<?xml version="1.0" encoding="UTF-8" standalone="no"?>
<svg
   xml:space="preserve"
   width="100"
   height="60.330463"
   version="1.1"
   id="svg1"
   sodipodi:docname="Adult Swim.svg"
   inkscape:version="1.4.2 (f4327f4, 2025-05-13)"
   xmlns:inkscape="http://www.inkscape.org/namespaces/inkscape"
   xmlns:sodipodi="http://sodipodi.sourceforge.net/DTD/sodipodi-0.dtd"
   xmlns="http://www.w3.org/2000/svg"
   xmlns:svg="http://www.w3.org/2000/svg"><defs
   id="defs1" /><sodipodi:namedview
   id="namedview1"
   pagecolor="#ffffff"
   bordercolor="#000000"
   borderopacity="0.25"
   inkscape:showpageshadow="2"
   inkscape:pageopacity="0.0"
   inkscape:pagecheckerboard="0"
   inkscape:deskcolor="#d1d1d1"
   inkscape:zoom="8.99"
   inkscape:cx="50"
   inkscape:cy="30.200222"
   inkscape:window-width="1920"
   inkscape:window-height="974"
   inkscape:window-x="-11"
   inkscape:window-y="-11"
   inkscape:window-maximized="1"
   inkscape:current-layer="svg1" />
  <path
   d="m 28.719987,36.851659 c 0,-2.008826 0.537192,-3.155314 1.681065,-4.027262 1.007035,-0.804482 2.483277,-0.869582 5.910877,-2.68322 0,1.471623 -0.06728,3.357483 -0.06728,6.382719 0,3.622525 -2.083543,4.966566 -4.369394,4.966566 -2.01345,1.21e-4 -3.155183,-1.743785 -3.155183,-4.638803 m 0.199924,-13.967657 c 0.06745,-3.160048 0.941809,-4.973688 3.964548,-4.973688 2.415927,0 3.427584,1.409023 3.427584,3.629767 0,2.753073 -0.606925,3.292514 -3.897182,4.162094 -3.022853,0.809226 -7.054734,1.478876 -9.742834,2.960126 -2.685585,1.478876 -4.434244,5.034044 -4.434244,9.26824 0,7.861594 3.560045,11.084374 9.67297,11.084374 3.627394,0 7.054734,-1.883483 8.533735,-5.106144 h 0.134731 c 0.06761,1.406524 0.199924,2.885521 0.604541,4.162086 H 47.661294 C 46.387361,46.461904 46.387361,42.969459 46.387361,40.214018 V 21.540081 c 0,-7.656909 -3.962295,-10.749611 -12.898263,-10.749611 -4.501609,0 -7.589443,0.604549 -10.145083,2.35321 -2.553124,1.743906 -4.03188,4.766634 -4.096976,9.740322 z m 33.404961,13.630267 c 0.07218,1.618581 0.202292,3.025226 0.741738,4.099491 0.602043,1.011655 1.609078,1.685928 3.357737,1.685928 2.553141,0 3.892185,-1.613707 3.892185,-3.699499 0,-1.676309 -0.799729,-3.285263 -4.162218,-4.43175 -8.93347,-3.02285 -13.230386,-4.766636 -13.230386,-12.428426 0,-7.252291 5.103766,-10.949543 13.832445,-10.949543 10.217543,0 13.170287,4.97132 13.170287,10.207673 v 1.209089 h -9.672986 v -0.667151 c 0,-3.16005 -1.276431,-4.034384 -3.559784,-4.034384 -2.890392,0 -3.694743,1.409021 -3.694743,3.357614 0,6.452693 17.399594,2.148524 17.399594,16.262878 0,7.317271 -4.903842,11.883982 -13.907159,11.883982 -9.740336,0 -13.839827,-3.622524 -13.839827,-10.8772 v -1.618573 h 9.673117 z M 0,0.00724117 H 16.997378 V 7.526829 H 10.074974 V 52.80601 h 6.922404 v 7.524453 H 0 Z M 83.000287,52.80601 h 6.922159 V 7.526829 H 83.000287 V 0 H 100 V 60.330463 H 83.000254 Z"
   id="path1"
   style="stroke-width:0.124958;fill:#ffffff" />
</svg>
