<?xml version="1.0" encoding="UTF-8" standalone="no"?>
<svg
   width="100mm"
   height="56.181599mm"
   viewBox="0 0 100 56.181599"
   version="1.1"
   id="svg5"
   sodipodi:docname="AMC_logo_2019.svg"
   inkscape:version="1.4.2 (f4327f4, 2025-05-13)"
   xmlns:inkscape="http://www.inkscape.org/namespaces/inkscape"
   xmlns:sodipodi="http://sodipodi.sourceforge.net/DTD/sodipodi-0.dtd"
   xmlns="http://www.w3.org/2000/svg"
   xmlns:svg="http://www.w3.org/2000/svg">
  <defs
     id="defs5" />
  <sodipodi:namedview
     id="namedview5"
     pagecolor="#ffffff"
     bordercolor="#000000"
     borderopacity="0.25"
     inkscape:showpageshadow="2"
     inkscape:pageopacity="0.0"
     inkscape:pagecheckerboard="0"
     inkscape:deskcolor="#d1d1d1"
     inkscape:document-units="mm"
     inkscape:zoom="2.3786042"
     inkscape:cx="188.97638"
     inkscape:cy="106.1547"
     inkscape:window-width="1920"
     inkscape:window-height="974"
     inkscape:window-x="-11"
     inkscape:window-y="-11"
     inkscape:window-maximized="1"
     inkscape:current-layer="svg5" />
  <g
     transform="matrix(0.16331582,0,0,0.16331582,-10.511223,-49.574645)"
     style="fill:#000000;stroke:none"
     id="g4">
    <path
       d="m 64.361328,303.55078 v 2.5918 341.41406 H 676.67188 V 303.55078 Z"
       id="path4"
       sodipodi:nodetypes="cccccc"
       style="fill:#ffffff;stroke:none"
       transform="translate(-1.4120811e-6)" />
    <path
       d="m 205.34935,398.03965 c -49.41644,0 -64.5597,31.18705 -64.5597,48.4375 h 34.09376 c 1.16151,-9.11623 9.64888,-19.59375 31.62219,-19.59375 22.37071,0 31.125,14.06076 31.125,31.84375 h -16.625 c -55.54456,0 -86.875,15.39324 -86.875,49.5625 0,24.39973 24.02635,46.125 55.25,46.125 19.66032,0 40.86019,-9.35927 48.15345,-15.3125 l 0.5,11.375 h 33.03405 v -84 c 0,-42.29747 -16.8851,-68.4375 -65.71875,-68.4375 z m 20.65625,87.3125 h 11.02845 v 8.40625 c 0,17.53782 -16.15296,30.52845 -40.71595,30.52845 -14.99665,0 -26.52845,-4.44975 -26.52845,-14.9972 0,-14.51421 10.41269,-23.9375 56.21595,-23.9375 z"
       id="path1" />
    <path
       d="M 290.44317,550.46433 V 401.2308 h 53.31796 l 27.58414,108.41029 27.61167,-108.41029 h 53.2704 V 550.46433 H 417.45889 V 442.97341 l -30.3398,107.49092 h -32.02566 l -30.0756,-107.26145 v 107.26145 z"
       id="path2" />
    <path
       d="m 576.45009,494.48219 h 33.93316 c -5.0296,28.215 -30.31325,60 -70.07552,60 -50.09612,0 -72.10797,-43.83495 -72.10797,-77.85714 0,-46.11103 28.81112,-78.48215 71.84287,-78.48215 37.8001,0 64.33912,27.73392 69.89878,59.82143 h -33.31459 c -3.88558,-12.34668 -15.83052,-29.01786 -36.58419,-29.01786 -23.38299,0 -39.32359,23.53303 -39.32359,46.96429 0,28.14177 18.97428,47.58929 39.23523,47.58929 18.51998,0 32.06962,-14.5094 36.49582,-29.01786 z"
       id="path3" />
  </g>
</svg>
