<?xml version="1.0" encoding="UTF-8" standalone="no"?>
<svg
   width="94.131958pt"
   height="100pt"
   version="1.1"
   viewBox="0 0 94.131958 100"
   id="svg5"
   sodipodi:docname="Logo_Azteca_7_2011.svg"
   xml:space="preserve"
   inkscape:version="1.4.2 (f4327f4, 2025-05-13)"
   xmlns:inkscape="http://www.inkscape.org/namespaces/inkscape"
   xmlns:sodipodi="http://sodipodi.sourceforge.net/DTD/sodipodi-0.dtd"
   xmlns="http://www.w3.org/2000/svg"
   xmlns:svg="http://www.w3.org/2000/svg"
   xmlns:rdf="http://www.w3.org/1999/02/22-rdf-syntax-ns#"
   xmlns:cc="http://creativecommons.org/ns#"
   xmlns:dc="http://purl.org/dc/elements/1.1/"><defs
     id="defs5" /><sodipodi:namedview
     id="namedview5"
     pagecolor="#ffffff"
     bordercolor="#000000"
     borderopacity="0.25"
     inkscape:showpageshadow="2"
     inkscape:pageopacity="0.0"
     inkscape:pagecheckerboard="0"
     inkscape:deskcolor="#d1d1d1"
     inkscape:document-units="pt"
     showguides="false"
     inkscape:zoom="5.5125"
     inkscape:cx="62.76644"
     inkscape:cy="66.666667"
     inkscape:window-width="1920"
     inkscape:window-height="974"
     inkscape:window-x="-11"
     inkscape:window-y="-11"
     inkscape:window-maximized="1"
     inkscape:current-layer="svg5"><sodipodi:guide
       position="57.512698,47.059079"
       orientation="1,0"
       id="guide5"
       inkscape:locked="false" /><sodipodi:guide
       position="59.18262,51.469729"
       orientation="0,-1"
       id="guide6"
       inkscape:locked="false" /><sodipodi:guide
       position="59.18262,51.469729"
       orientation="1,0"
       id="guide7"
       inkscape:locked="false" /><sodipodi:guide
       position="49.977541,-108.57031"
       orientation="1,0"
       id="guide8"
       inkscape:locked="false" /><sodipodi:guide
       position="49.977541,-108.57031"
       orientation="0,-1"
       id="guide9"
       inkscape:locked="false" /><sodipodi:guide
       position="117.47702,-108.57031"
       orientation="1,0"
       id="guide10"
       inkscape:locked="false" /><sodipodi:guide
       position="117.47702,-108.57031"
       orientation="0,-1"
       id="guide11"
       inkscape:locked="false" /></sodipodi:namedview><path
     id="path1"
     style="display:inline;stroke-width:0.398646;fill:#ffffff"
     d="M 65.848149,0 28.4162,5.8398487e-4 C 12.833165,5.8398487e-4 0.23581073,12.545981 0.23581073,28.129004 c 0,0 -0.37786158,44.328511 -0.17694742,66.49354 C 0.09658873,100.63552 4.627158,100.77582 6.6960675,99.030199 11.294219,95.150554 19.969641,83.148088 19.971066,83.146103 L 54.420184,32.593919 C 45.36855,31.442914 36.481251,30.979747 27.798367,29.309179 24.330841,28.642034 22.974918,26.25961 22.974918,23.883668 v -3.767082 c 0,-0.553355 0.197737,-0.769955 0.665705,-0.769634 l 46.056343,0.03212 c 2.033648,0.0014 3.585725,1.826939 3.982561,4.081821 0.473976,2.693251 -4.932065,13.482313 -4.932065,13.482313 l -0.02278,0.0146 -21.845083,46.188881 H 76.115774 C 85.774145,82.979083 94.160586,71.519489 94.131883,64.773208 L 93.991727,32.452595 c -0.0053,2.9e-5 -0.0099,0 -0.01518,0 V 28.129004 C 93.976543,12.545981 81.431161,5.8398487e-4 65.848126,5.8398487e-4 Z"
     sodipodi:nodetypes="cccscccssscsscccccccscc" /><title
     id="title1">Azteca 7 2011 Logo</title><metadata
     id="metadata11"><rdf:RDF><cc:Work
         rdf:about=""><dc:title>Azteca 7 2011 Logo</dc:title></cc:Work></rdf:RDF></metadata></svg>
