<?xml version="1.0" encoding="UTF-8" standalone="no"?>
<!-- Created with Inkscape (http://www.inkscape.org/) -->

<svg
   id="svg2"
   height="100"
   width="80.864601"
   version="1.0"
   sodipodi:docname="Canal 5.svg"
   xml:space="preserve"
   inkscape:version="1.4.2 (f4327f4, 2025-05-13)"
   xmlns:inkscape="http://www.inkscape.org/namespaces/inkscape"
   xmlns:sodipodi="http://sodipodi.sourceforge.net/DTD/sodipodi-0.dtd"
   xmlns="http://www.w3.org/2000/svg"
   xmlns:svg="http://www.w3.org/2000/svg"><defs
     id="defs1" /><sodipodi:namedview
     id="namedview1"
     pagecolor="#ffffff"
     bordercolor="#000000"
     borderopacity="0.25"
     inkscape:showpageshadow="2"
     inkscape:pageopacity="0.0"
     inkscape:pagecheckerboard="0"
     inkscape:deskcolor="#d1d1d1"
     inkscape:zoom="7.35"
     inkscape:cx="40.408163"
     inkscape:cy="50"
     inkscape:window-width="1920"
     inkscape:window-height="974"
     inkscape:window-x="-11"
     inkscape:window-y="-11"
     inkscape:window-maximized="1"
     inkscape:current-layer="svg2" /><path
     id="path2498"
     fill="#010101"
     d="M 31.581817,99.443908 C 18.360999,97.23023 7.0352529,87.605275 1.770943,75.410835 1.7708217,75.410835 0,71.551554 0,71.551554 l 18.684863,-11.594015 3.741017,8.874932 -9.891606,6.29938 c 4.433827,7.765061 13.358692,13.668205 22.231802,14.6588 5.72322,0.135456 11.705207,0.606486 17.066556,-1.831592 9.699752,-3.576251 18.35837,-12.249021 18.924425,-22.997999 0.341654,-7.376907 0.16374,-15.762606 -5.375501,-21.374635 -4.779118,-5.031821 -12.040793,-6.105306 -18.657569,-5.994116 l -16.211408,-0.09906 -0.103101,-9.728058 c 0,0 18.354328,-0.717675 27.095832,0.814716 6.226603,1.091675 12.289455,4.360645 16.268012,9.485461 6.938215,8.167364 7.732715,19.597627 6.744139,29.825024 -2.22783,15.794953 -16.075958,28.062171 -31.298789,31.181535 -5.781846,1.154343 -11.806288,1.176583 -17.636653,0.371981 z M 6.0183759,2.0216244e-4 H 75.509694 V 25.19975 H 65.104393 V 10.569053 H 16.136606 l 6.06e-4,40.402163 H 6.0191847 V 0 Z"
     style="display:inline;stroke-width:0.202161;fill:#ffffff"
     sodipodi:nodetypes="ccccccccccccccccccccccccccccc" /><path
     id="path1"
     fill="#010101"
     d="m 36.755153,71.561663 c -1.540477,-0.800563 -2.86262,-2.07823 -2.86262,-2.767604 0,-0.309309 0.612553,-1.310013 1.362577,-2.225806 0.75002,-0.915797 1.30799,-1.965021 1.239254,-2.330934 -0.07884,-0.414434 -1.024962,-1.014856 -2.510857,-1.591017 -2.072165,-0.804609 -2.381475,-1.05529 -2.375409,-1.908415 0.01024,-1.113916 1.229149,-4.004839 1.849787,-4.388948 0.226414,-0.139505 1.261493,0.113206 2.300607,0.559992 2.876771,1.237233 3.287161,1.006767 3.287161,-1.85181 0,-2.785798 0.309309,-3.115323 2.927312,-3.123409 2.852514,-0.01024 2.992006,0.125344 2.992006,2.909117 0,3.006157 0.349742,3.22247 3.285138,2.031732 1.791161,-0.727785 2.189421,-0.780346 2.490642,-0.329524 1.510152,2.252089 2.142923,4.607281 1.398964,5.197597 -0.270896,0.216308 -1.409071,0.691397 -2.525008,1.055286 -2.941463,0.960274 -2.959657,1.214997 -0.329524,4.524399 1.012834,1.27362 1.041134,1.405027 0.481145,2.260173 -0.570098,0.871321 -3.175969,2.579593 -3.93206,2.579593 -0.198107,0 -1.012831,-0.944097 -1.807332,-2.098445 -0.796519,-1.156369 -1.677946,-2.100469 -1.960976,-2.100469 -0.283026,0 -1.212972,0.9441 -2.066099,2.100469 -0.853124,1.154348 -1.673906,2.098445 -1.825529,2.096424 -0.149585,0 -0.788432,-0.268875 -1.419179,-0.598401 z"
     style="display:inline;stroke-width:0.202161;fill:#d8f330;fill-opacity:1"
     sodipodi:nodetypes="csscccccscsccccccscsccc" /></svg>
