<?xml version="1.0" encoding="UTF-8" standalone="no"?>
<svg
   id="svg178"
   width="100"
   height="49.987564"
   version="1.1"
   viewBox="0 0 100 49.987564"
   sodipodi:docname="Cartoon Network.svg"
   inkscape:version="1.4.2 (f4327f4, 2025-05-13)"
   xmlns:inkscape="http://www.inkscape.org/namespaces/inkscape"
   xmlns:sodipodi="http://sodipodi.sourceforge.net/DTD/sodipodi-0.dtd"
   xmlns="http://www.w3.org/2000/svg"
   xmlns:svg="http://www.w3.org/2000/svg">
  <defs
     id="defs1" />
  <sodipodi:namedview
     id="namedview1"
     pagecolor="#ffffff"
     bordercolor="#000000"
     borderopacity="0.25"
     inkscape:showpageshadow="2"
     inkscape:pageopacity="0.0"
     inkscape:pagecheckerboard="0"
     inkscape:deskcolor="#d1d1d1"
     inkscape:zoom="7.35"
     inkscape:cx="50"
     inkscape:cy="50"
     inkscape:window-width="1920"
     inkscape:window-height="974"
     inkscape:window-x="-11"
     inkscape:window-y="-11"
     inkscape:window-maximized="1"
     inkscape:current-layer="svg178" />
  <g
     id="g1"
     transform="scale(0.07841907)">
    <path
       id="rectW"
       d="m 637.6,0 h 637.6 V 637.441 H 637.6 Z"
       fill="#ffffff"
       style="stroke-width:1" />
    <path
       id="rectB"
       style="stroke-width:1"
       d="M 0,0 V 637.44141 H 637.59961 V 0 Z m 683.26562,45.564453 -0.0371,546.312497 h 182.1289 V 364.39648 l 182.27538,227.48047 h 181.9395 l -0.01,-546.312497 H 1047.623 V 273.42773 L 865.34961,45.564453 Z" />
    <path
       id="bigC"
       d="m 584.886,177.689 -158.359,90.5934 c -23.2039,-37.2454 -56.2395,-51.4974 -87.0196,-51.7556 -56.0546,-0.46964 -104.396,44.5316 -104.366,101.936 -0.0277,59.0513 48.4672,101.885 101.515,102.786 31.7094,0.53425 70.2922,-17.1275 89.8952,-52.1477 l 158.35,90.8261 c -57.5641,99.2249 -156.249,144.026 -248.457,143.866 -146.216,-0.24006 -283.764,-117.14 -283.748,-285.087 -0.005,-167.067 138.104,-285.995 284.306,-285.055 94.8143,0.617149 191.471,45.2234 247.899,144.026 z"
       fill="#ffffff"
       style="stroke-width:1" />
  </g>
</svg>
