<?xml version="1.0" encoding="UTF-8" standalone="no"?>
<svg
   width="100mm"
   height="63.755745mm"
   viewBox="0 0 100 63.755745"
   version="1.1"
   id="svg8"
   sodipodi:docname="Discovery Home &amp; Health.svg"
   inkscape:version="1.4.2 (f4327f4, 2025-05-13)"
   xml:space="preserve"
   xmlns:inkscape="http://www.inkscape.org/namespaces/inkscape"
   xmlns:sodipodi="http://sodipodi.sourceforge.net/DTD/sodipodi-0.dtd"
   xmlns:xlink="http://www.w3.org/1999/xlink"
   xmlns="http://www.w3.org/2000/svg"
   xmlns:svg="http://www.w3.org/2000/svg"
   xmlns:rdf="http://www.w3.org/1999/02/22-rdf-syntax-ns#"
   xmlns:cc="http://creativecommons.org/ns#"
   xmlns:dc="http://purl.org/dc/elements/1.1/"><sodipodi:namedview
     id="namedview1"
     pagecolor="#ffffff"
     bordercolor="#000000"
     borderopacity="0.25"
     inkscape:showpageshadow="2"
     inkscape:pageopacity="0.0"
     inkscape:pagecheckerboard="0"
     inkscape:deskcolor="#d1d1d1"
     inkscape:document-units="mm"
     inkscape:zoom="1.9446875"
     inkscape:cx="188.97638"
     inkscape:cy="188.97638"
     inkscape:window-width="1920"
     inkscape:window-height="974"
     inkscape:window-x="-11"
     inkscape:window-y="-11"
     inkscape:window-maximized="1"
     inkscape:current-layer="svg8" /><defs
     id="defs2"><linearGradient
       id="linearGradient1178"><stop
         style="stop-color:#aeb0b4;stop-opacity:1"
         offset="0"
         id="stop1174" /><stop
         style="stop-color:#e6e6e6;stop-opacity:1"
         offset="0.50718993"
         id="stop1182" /><stop
         style="stop-color:#b1b2b6;stop-opacity:1"
         offset="1"
         id="stop1176" /></linearGradient><linearGradient
       xlink:href="#linearGradient1178"
       id="linearGradient1180"
       x1="41.428574"
       y1="1080"
       x2="991.42859"
       y2="1080"
       gradientUnits="userSpaceOnUse"
       gradientTransform="matrix(0.19135973,0,0,0.18293294,25.892112,66.878929)" /><style
       type="text/css"
       id="style6"><![CDATA[
    .fil0 {fill:#1F1A17}
    .fil4 {fill:white}
    .fil2 {fill:#E51E2A}
    .fil3 {fill:white}
    .fil1 {fill:url(#id0)}
   ]]></style><linearGradient
       id="id0"
       gradientUnits="userSpaceOnUse"
       x1="10.2224"
       y1="228.21001"
       x2="214.13699"
       y2="228.21001"
       gradientTransform="translate(82.741733,34.42837)"><stop
         offset="0"
         style="stop-color:#A7B6BF"
         id="stop9" /><stop
         offset="0.0705882"
         style="stop-color:#AAB8C1"
         id="stop11" /><stop
         offset="0.211765"
         style="stop-color:white"
         id="stop13" /><stop
         offset="0.368627"
         style="stop-color:#A7B6BF"
         id="stop15" /><stop
         offset="0.490196"
         style="stop-color:#A7B6BF"
         id="stop17" /><stop
         offset="0.611765"
         style="stop-color:#A7B6BF"
         id="stop19" /><stop
         offset="0.768627"
         style="stop-color:white"
         id="stop21" /><stop
         offset="0.921569"
         style="stop-color:#AEBCC5"
         id="stop23" /><stop
         offset="1"
         style="stop-color:#A7B6BF"
         id="stop25" /></linearGradient><style
       type="text/css"
       id="style6-1"><![CDATA[
    .fil0 {fill:#1F1A17}
    .fil4 {fill:white}
    .fil2 {fill:#E51E2A}
    .fil3 {fill:white}
    .fil1 {fill:url(#id0)}
   ]]></style><style
       type="text/css"
       id="style6-8"><![CDATA[
    .fil3 {fill:#1F1A17}
    .fil0 {fill:black}
    .fil1 {fill:white}
    .fil2 {fill:#DE3E3F}
   ]]></style><style
       type="text/css"
       id="style6-16"><![CDATA[
    .fil0 {fill:#1F1A17}
    .fil4 {fill:white}
    .fil2 {fill:#E51E2A}
    .fil3 {fill:white}
    .fil1 {fill:url(#id0)}
   ]]></style><style
       type="text/css"
       id="style6-1-3"><![CDATA[
    .fil0 {fill:#1F1A17}
    .fil4 {fill:white}
    .fil2 {fill:#E51E2A}
    .fil3 {fill:white}
    .fil1 {fill:url(#id0)}
   ]]></style></defs><metadata
     id="metadata5"><rdf:RDF><cc:Work
         rdf:about=""><dc:format>image/svg+xml</dc:format><dc:type
           rdf:resource="http://purl.org/dc/dcmitype/StillImage" /></cc:Work></rdf:RDF></metadata><path
     id="path3272"
     style="fill:#f08e0d;fill-opacity:1;stroke-width:0.212099"
     class="st0"
     d="m 0,0 v 40.952327 h 6.7835951 v -9.806626 c 0,-2.202564 6.08e-5,-2.80546 0.061105,-4.059919 0.061105,-1.254481 0.1830229,-3.160446 0.9488619,-4.557649 0.765839,-1.397207 2.1752831,-2.28558 3.460404,-2.711925 1.285133,-0.426349 2.446003,-0.390759 3.440894,-0.159736 0.994891,0.231 1.823669,0.657383 2.439467,1.450966 0.615786,0.793602 1.018471,1.954455 1.201992,3.079596 0.183533,1.125141 0.148024,2.214692 0.130263,3.843221 -0.01774,1.62853 -0.01774,3.796098 -0.01774,5.288412 0,1.492315 -1.09e-4,2.309146 0.236815,3.304062 0.236924,0.994896 0.710747,2.167585 1.859664,3.132773 1.148916,0.96519 2.972962,1.723009 4.838287,1.734788 1.522628,0.0096 3.066053,-0.476928 4.22204,-0.910812 v -5.483002 c -0.882145,0.313308 -2.094523,0.601916 -2.842577,0.43061 -0.852771,-0.195288 -1.101114,-0.988646 -1.22551,-2.048682 -0.124397,-1.06004 -0.124482,-2.386825 -0.124482,-4.352901 0,-1.966078 -1.94e-4,-4.571232 -0.242986,-6.543196 -0.242755,-1.971945 -0.728131,-3.310601 -1.515703,-4.613418 -0.78756,-1.302819 -1.877181,-2.569851 -3.357631,-3.434521 -1.48045,-0.86467 -3.351691,-1.32649 -5.151987,-1.39759 -1.800284,-0.0711 -3.529575,0.248579 -4.980493,0.781551 -1.3144822,0.482855 -2.3998642,1.14245 -3.3807364,2.270361 V 0 Z m 70.394312,0 v 40.952327 h 6.783595 v -9.806626 c 0,-2.202564 4.9e-5,-2.80546 0.0611,-4.059919 0.0611,-1.254481 0.183011,-3.160446 0.94885,-4.557649 0.765839,-1.397207 2.175295,-2.28558 3.460416,-2.711925 1.28512,-0.426349 2.446003,-0.390759 3.440894,-0.159736 0.994891,0.231 1.823657,0.657383 2.439455,1.450966 0.615786,0.793602 1.01847,1.954455 1.202003,3.079596 0.183521,1.125141 0.148013,2.214692 0.130252,3.843221 -0.01774,1.62853 -0.01749,3.796098 -0.01749,5.288412 0,1.492315 -2.19e-4,2.309146 0.23662,3.304062 0.236924,0.994896 0.710748,2.167585 1.859664,3.132773 1.148929,0.96519 2.97295,1.723009 4.838287,1.734788 1.522628,0.0096 3.066041,-0.476928 4.22204,-0.910812 v -5.483002 c -0.882157,0.313308 -2.094523,0.601916 -2.842577,0.43061 -0.852771,-0.195288 -1.101114,-0.988646 -1.22551,-2.048682 -0.124396,-1.06004 -0.124481,-2.386825 -0.124481,-4.352901 0,-1.966078 -1.95e-4,-4.571232 -0.242986,-6.543196 -0.242755,-1.971945 -0.728132,-3.310601 -1.515704,-4.613418 -0.787559,-1.302819 -1.877181,-2.569851 -3.357631,-3.434521 -1.480449,-0.86467 -3.35169,-1.326487 -5.151987,-1.39759 -1.800284,-0.0711 -3.529575,0.248579 -4.980492,0.781551 -1.314483,0.482855 -2.399865,1.14245 -3.380737,2.270361 V 0 Z M 47.310294,1.8168444 c -1.516723,-0.016533 -3.06768,0.2749705 -4.599273,0.963792 -1.750405,0.7872305 -3.475298,2.0933224 -4.530565,3.3956837 -1.055267,1.3023564 -1.636066,2.5295113 -1.937545,3.8820579 -0.301491,1.352551 -0.323734,2.830418 0.367273,4.731527 0.397886,1.09468 1.099437,2.354498 2.173364,3.86792 -0.838449,0.486021 -1.750295,1.122301 -2.596409,1.956464 -1.482393,1.461442 -2.755256,3.513403 -3.362417,6.059406 -0.607161,2.546002 -0.54851,5.586005 0.582184,7.993764 1.130694,2.40774 3.333044,4.183058 5.841305,5.397358 2.508262,1.214282 5.322279,1.867478 8.152902,1.691568 2.830636,-0.175911 5.677902,-1.1809 7.708757,-2.223556 0.795103,-0.408216 1.460296,-0.820396 1.997289,-1.188658 l 2.537648,2.608156 h 9.151353 l -7.626295,-7.508581 -0.06669,-0.05139 c 0.494609,-1.015942 0.946772,-2.500039 1.196622,-3.938225 0.309885,-1.783798 0.309715,-3.483882 0.309715,-5.087649 v -3.915321 h -5.829558 c -7.78e-4,1.573418 -0.0097,3.76193 -0.129268,5.426638 -0.07617,1.061445 -0.198694,1.894981 -0.385398,2.622496 -2.289888,-2.275587 -4.976666,-4.941181 -7.067022,-7.015232 -2.851165,-2.828942 -4.178112,-4.149731 -5.122698,-5.384414 -0.944585,-1.234699 -1.506701,-2.383385 -1.557128,-3.553026 -0.05041,-1.169638 0.411127,-2.3602 1.06258,-3.1893406 0.651465,-0.8291378 1.492319,-1.2965193 2.48727,-1.4830323 0.99494,-0.1865167 2.143917,-0.091864 3.067244,0.2672868 0.923339,0.3591506 1.621003,0.9825923 1.96981,1.9307751 0.207866,0.565042 0.290655,1.243311 0.324646,1.835567 h 6.471098 c 0.02138,-0.266172 0.03025,-0.538884 0.02272,-0.816607 C 57.87776,9.3880674 57.266311,7.5207598 56.353529,6.1388749 55.440747,4.7569862 54.226826,3.8609976 52.786356,3.161651 51.345898,2.4623045 49.679291,1.9596378 47.958236,1.8423384 47.743106,1.8276878 47.527004,1.8192084 47.310331,1.8168639 Z M 42.215282,22.934043 c 2.86731,3.290704 6.764923,7.332352 8.933647,9.580966 0.613247,0.635821 1.069662,1.108731 1.441806,1.490999 -0.407045,0.312906 -0.86815,0.591525 -1.438016,0.832938 -1.205891,0.510846 -2.889177,0.862387 -4.668785,0.845683 -1.779608,-0.01668 -3.655271,-0.40201 -4.957594,-1.113768 -1.302322,-0.711759 -2.030854,-1.749957 -2.391057,-3.1025 -0.360203,-1.352566 -0.351808,-3.019271 0.238612,-4.484954 0.590409,-1.465683 2.749086,-3.932665 2.841387,-4.049364 z M 20.677824,50.830655 v 1.636595 c 0.257284,0.104911 0.493054,0.230686 0.707455,0.398544 0.34305,0.251789 0.664561,0.566531 0.943286,0.902248 v -1.405754 h 1.843932 c 1.972496,0 3.258855,1.384849 3.258855,3.252276 0,1.888409 -1.286359,3.231366 -3.258855,3.231366 h -1.457939 c -0.343037,0.62947 -0.814723,1.153947 -1.393603,1.53163 h 2.851542 c 2.937296,0 4.974115,-2.098171 4.974115,-4.783905 0,-2.685738 -2.015378,-4.742083 -4.974115,-4.742083 v -0.02093 z m -1.822418,2.014226 c -2.058261,0 -3.730687,1.720563 -3.730687,3.797809 0,2.098232 1.672426,3.797809 3.730687,3.797809 2.058248,0 3.730492,-1.699577 3.730492,-3.797809 0,-2.098228 -1.672244,-3.797809 -3.730492,-3.797809 z m 23.991442,0.251754 c -2.101131,0 -3.666156,1.720628 -3.666156,3.776895 0,2.056268 1.565025,3.734874 3.666156,3.734874 1.372174,0 2.20829,-0.54549 2.894364,-1.34282 l -0.986095,-0.986299 -0.192997,0.188817 c -0.471685,0.440629 -0.98629,0.713434 -1.650936,0.713434 -1.243525,0 -2.122572,-1.028014 -2.122572,-2.328919 0,-1.279921 0.85752,-2.308203 2.036734,-2.308203 0.814723,0 1.329291,0.37769 1.822418,0.902249 l 1.007817,-1.111975 -0.193009,-0.209928 c -0.621763,-0.629469 -1.415069,-1.028125 -2.615724,-1.028125 z m 21.761724,0 c -0.514568,0 -0.986242,0.104935 -1.393603,0.293779 -0.428803,0.188841 -0.793294,0.461565 -1.093461,0.797282 -0.321596,0.335717 -0.557438,0.73442 -0.728969,1.196031 -0.171519,0.461608 -0.257126,0.944332 -0.257126,1.46889 v 0.02093 c 0,0.545541 0.08564,1.070091 0.27864,1.510717 0.19296,0.461611 0.450184,0.860182 0.771792,1.174917 0.321596,0.335716 0.70754,0.587532 1.157784,0.776373 0.450244,0.167859 0.922064,0.272862 1.436632,0.272862 0.643204,0 1.221999,-0.12584 1.672243,-0.377628 0.471686,-0.251787 0.879071,-0.566653 1.222121,-0.9863 l -0.964788,-0.860224 c -0.278726,0.272769 -0.578977,0.503621 -0.879144,0.650497 -0.300167,0.146877 -0.643071,0.209727 -1.050432,0.209727 -0.53601,0 -0.964861,-0.167727 -1.350793,-0.46148 -0.364479,-0.314734 -0.600383,-0.776423 -0.686136,-1.363929 h 5.209933 c 0,-0.08393 0.0215,-0.167892 0.0215,-0.23084 V 56.9574 c 0.02138,-0.503575 -0.04288,-1.007082 -0.192996,-1.468694 -0.150077,-0.461611 -0.364406,-0.881354 -0.643119,-1.238053 -0.278726,-0.356699 -0.643277,-0.629288 -1.050639,-0.839111 -0.428802,-0.209824 -0.922002,-0.314893 -1.479441,-0.314893 z m -14.707846,0.02112 c -0.53601,0 -1.050517,0.104935 -1.500761,0.293781 -0.471686,0.209822 -0.857764,0.461494 -1.200813,0.818194 -0.343038,0.335717 -0.600334,0.734416 -0.793294,1.196027 -0.192972,0.461611 -0.27864,0.944135 -0.27864,1.468694 v 0.02113 c 0,0.503575 0.08564,0.986169 0.27864,1.447781 0.19296,0.461611 0.450256,0.839196 0.793294,1.174913 0.343049,0.335717 0.729127,0.608445 1.200813,0.797287 0.450244,0.18884 0.964751,0.293779 1.500761,0.293779 0.535997,0 1.050578,-0.104935 1.522263,-0.293779 0.471686,-0.209824 0.857569,-0.482483 1.200607,-0.8182 0.321608,-0.335717 0.600346,-0.734416 0.793306,-1.196027 0.19296,-0.461611 0.27864,-0.923222 0.27864,-1.447781 v -0.02093 c -0.02138,-0.545536 -0.128502,-1.02826 -0.321462,-1.468889 -0.19296,-0.440629 -0.45039,-0.839202 -0.771986,-1.174915 -0.34305,-0.335717 -0.728861,-0.608445 -1.179105,-0.797285 -0.471685,-0.188841 -0.964824,-0.29378 -1.522263,-0.29378 z m -14.214901,0.02093 c -0.343038,0 -0.664549,0.04195 -0.943274,0.125879 -0.300167,0.10491 -0.557463,0.251726 -0.793306,0.440567 -0.235843,0.18884 -0.407337,0.419751 -0.535973,0.69252 -0.128636,0.272771 -0.192997,0.587445 -0.192997,0.923162 v 0.02112 l 0.02126,0.251753 c 0.02138,0.251788 0.08577,0.461523 0.192997,0.629382 0.128636,0.230805 0.300252,0.4197 0.514653,0.587559 0.214402,0.146876 0.450184,0.272719 0.707455,0.377631 0.257285,0.08393 0.51452,0.188807 0.771804,0.251754 0.214402,0.06295 0.407532,0.125867 0.600504,0.188813 0.19296,0.06295 0.364369,0.125999 0.514459,0.209928 0.150077,0.08393 0.257211,0.167755 0.342964,0.272666 0.08577,0.10491 0.128673,0.230822 0.128673,0.356715 v 0.02112 l -0.02126,0.167704 c -0.04288,0.167859 -0.128758,0.293829 -0.278835,0.398741 -0.19296,0.125895 -0.471576,0.209928 -0.814614,0.209928 -0.364478,0 -0.750557,-0.08397 -1.136477,-0.23084 -0.407361,-0.146877 -0.793172,-0.356746 -1.179092,-0.650498 l -0.728969,1.111977 0.342964,0.251954 c 0.34305,0.230806 0.729042,0.398657 1.114975,0.545534 0.514556,0.18884 1.029015,0.272666 1.543571,0.272666 0.364491,0 0.707528,-0.06287 1.029124,-0.146792 0.321608,-0.08393 0.600479,-0.230813 0.836322,-0.419654 0.235843,-0.167859 0.428645,-0.419751 0.557293,-0.692521 0.128636,-0.272771 0.192997,-0.608419 0.192997,-0.9861 v -0.02093 l -0.02126,-0.23084 c -0.02138,-0.230806 -0.08577,-0.419697 -0.192997,-0.587555 -0.128636,-0.230806 -0.300252,-0.419701 -0.514653,-0.587559 -0.214402,-0.146876 -0.450184,-0.29363 -0.707468,-0.398542 -0.257272,-0.125893 -0.514507,-0.209849 -0.771791,-0.293779 -0.214402,-0.08393 -0.407337,-0.14698 -0.600297,-0.209928 -0.192961,-0.06295 -0.364576,-0.125797 -0.514666,-0.209726 -0.150077,-0.06295 -0.278725,-0.146841 -0.364479,-0.251753 -0.08576,-0.104911 -0.128672,-0.209912 -0.128672,-0.335806 v -0.02093 l 0.0215,-0.146985 c 0.02138,-0.146876 0.107146,-0.272719 0.235819,-0.377631 0.171518,-0.146876 0.407361,-0.209727 0.728969,-0.209727 0.300155,0 0.621739,0.06292 0.964788,0.188814 0.343038,0.125894 0.686075,0.293683 1.029112,0.503506 L 38.28008,53.957069 38.001439,53.768054 C 37.701275,53.60021 37.379692,53.453322 37.036654,53.348411 36.58641,53.222517 36.136117,53.138684 35.685873,53.138684 Z m -5.574425,0.10496 v 7.196876 h 1.629434 v -7.196876 z m 23.62717,0 2.894365,7.259815 h 1.479247 L 61.00674,53.243645 H 59.29148 L 57.383212,58.53106 55.47515,53.243645 Z m 15.479638,0 v 7.196876 h 1.629628 v -2.72766 -0.356715 c 0.02138,-0.335717 0.06426,-0.65046 0.171482,-0.902248 0.493127,-1.300904 1.84386,-1.678675 2.551388,-1.783586 l -0.557475,-1.384842 -0.235819,0.04202 c -0.578892,0.146876 -1.415093,0.44074 -1.95109,1.112175 v -1.196028 z m 6.582229,0 v 0.02093 h -1.693758 l 2.637044,7.133937 -0.02126,0.04202 -0.0215,0.04202 c -0.06426,0.230805 -0.557499,1.46865 -0.986302,1.783385 -0.38592,0.188842 -1.243489,0.167975 -1.565097,0.146993 v 1.342815 h 0.535973 c 0.643204,-0.02097 1.479514,-0.04194 1.80111,-0.251754 0.53601,-0.356699 0.664646,-0.503603 1.029124,-1.258967 0.385921,-0.839292 3.494674,-9.001371 3.494674,-9.001371 h -1.693758 l -1.82243,5.266502 z m -11.191865,1.196027 c 0.257284,0 0.514568,0.04187 0.72897,0.146788 0.214401,0.104911 0.38609,0.230886 0.536167,0.398745 0.150077,0.167858 0.278726,0.377662 0.364491,0.608468 0.08576,0.230805 0.150041,0.314658 0.171482,0.566445 h -3.644848 c 0.06426,-0.566522 0.278701,-0.839327 0.600309,-1.196026 0.343038,-0.356701 0.750302,-0.52442 1.243429,-0.52442 z m -14.72936,0.146788 c 0.321608,0 0.62186,0.06299 0.879144,0.167905 0.257284,0.125894 0.492993,0.293683 0.685953,0.503506 0.19296,0.209823 0.343123,0.461576 0.450329,0.734346 0.107146,0.272771 0.171483,0.587513 0.171483,0.902249 h -0.02126 c 0,0.314735 -0.043,0.608564 -0.150174,0.881334 -0.107146,0.272771 -0.235855,0.524524 -0.428815,0.734347 -0.19296,0.209824 -0.407349,0.377613 -0.664633,0.503506 -0.257285,0.125894 -0.557415,0.189014 -0.900452,0.189014 -0.300167,0 -0.600358,-0.06312 -0.857642,-0.189014 C 48.785861,58.88776 48.549957,58.719971 48.356997,58.510147 48.164037,58.300324 48.014069,58.048571 47.906874,57.7758 47.799607,57.50303 47.73538,57.209201 47.73538,56.894466 v -0.02093 c 0,-0.314735 0.04276,-0.608496 0.14998,-0.902248 0.107146,-0.27277 0.235855,-0.524594 0.428815,-0.713434 0.19296,-0.209823 0.407434,-0.377612 0.686148,-0.503506 0.257284,-0.125895 0.557341,-0.167905 0.878949,-0.167905 z" /><style
     type="text/css"
     id="style3265">
	.st0{fill-rule:evenodd;clip-rule:evenodd;fill:#999999;}
	.st1{fill-rule:evenodd;clip-rule:evenodd;fill:#FF9000;}
</style></svg>
