<?xml version="1.0" encoding="UTF-8" standalone="no"?>
<svg
   id="Layer_2"
   data-name="Layer 2"
   viewBox="0 0 99.999998 30.103025"
   version="1.1"
   sodipodi:docname="2024_Disney_Jr._Logo.svg"
   xml:space="preserve"
   width="100"
   height="30.103025"
   inkscape:version="1.4.2 (f4327f4, 2025-05-13)"
   xmlns:inkscape="http://www.inkscape.org/namespaces/inkscape"
   xmlns:sodipodi="http://sodipodi.sourceforge.net/DTD/sodipodi-0.dtd"
   xmlns="http://www.w3.org/2000/svg"
   xmlns:svg="http://www.w3.org/2000/svg"><sodipodi:namedview
     id="namedview1"
     pagecolor="#828282"
     bordercolor="#000000"
     borderopacity="0.25"
     inkscape:showpageshadow="2"
     inkscape:pageopacity="0.0"
     inkscape:pagecheckerboard="0"
     inkscape:deskcolor="#d1d1d1"
     inkscape:zoom="9.58"
     inkscape:cx="50"
     inkscape:cy="15.083507"
     inkscape:window-width="1920"
     inkscape:window-height="974"
     inkscape:window-x="-11"
     inkscape:window-y="-11"
     inkscape:window-maximized="1"
     inkscape:current-layer="Layer_2"
     showguides="false" /><defs
     id="defs959"><style
       id="style957">
      .cls-0 {
        fill: #e21f25;
        stroke-width: 0px;
      }
      .cls-1 {
        fill: #008de7;
        stroke-width: 0px;
      }
    </style><style
       id="style957-8">
      .cls-0 {
        fill: #e21f25;
        stroke-width: 0px;
      }
      .cls-1 {
        fill: #008de7;
        stroke-width: 0px;
      }
    </style></defs><g
     id="g1"
     transform="matrix(0.20526397,0,0,0.20526397,-0.06217898,-4.7167708e-4)"><path
       id="path30"
       class="cls-0"
       d="m 381.5293,15.449219 v 56.589843 c 0,7.21 -10.68875,11.120547 -19.71875,2.810547 -0.9,10.37 -6.32961,19.821329 -15.59961,27.111331 16.38,12.01 29.66828,13.4289 39.98828,12.3789 6.05,-0.63 12.03125,-2.66945 17.03125,-6.18945 4.1,-2.86 7.50859,-6.66008 9.80859,-11.080078 2.62,-5 3.86063,-10.661015 3.89063,-16.291015 V 15.449219 Z m 98.50976,17.470703 c -4.78,-0.1 -9.72875,0.08086 -14.21875,1.880859 v -0.02148 c -4.31,1.69 -7.76968,5.031328 -10.17969,8.861328 -0.23999,-0.29 -0.1914,-0.69125 -0.1914,-1.03125 v -8.138672 h -33.25977 c -0.03,23.4 -0.05,46.82 0,70.249993 h 34.05078 l 0.0293,-22.980462 c 0.02,-2 -0.0791,-4.040781 0.13086,-6.050781 0.32,-3.17 1.66953,-6.319062 4.01953,-8.539062 2.88,-2.77 7.00992,-3.91 10.91992,-3.75 3.02,0 5.97922,0.819843 8.69922,2.089843 z"
       style="fill:#e21f25;fill-opacity:1" /><path
       id="circle961"
       class="cls-1"
       d="M 35.560547,0.0234375 C 27.861598,-0.13698914 19.577321,0.59710694 11.011719,2.8632812 6.7679231,3.9732442 3.8980612,5.8220785 1.859375,9.3164062 0.86083484,11.084125 -0.0559107,12.976045 0.44335938,14.908203 c 0.45766423,1.64439 2.83086232,2.220044 4.70312502,2.507813 1.8306569,0.287768 5.9899236,0.493246 7.1132816,-0.822266 0.582481,-0.698866 0.582148,-2.631401 -2.4550785,-3.248047 -1.1233577,-0.246658 -4.2021271,-0.328855 -4.4101563,-0.863281 0,0 0.124829,-0.369965 1.7890626,-0.863281 C 7.9324989,11.372482 13.383043,9.1942773 28.236328,9.6464844 45.918809,10.222021 61.355936,14.2901 77.707031,20.662109 c 15.976643,6.207571 33.950289,17.43221 44.476559,30.833985 3.99416,5.056498 8.94428,13.36086 9.56836,20.390625 1.58103,17.019431 -15.22773,31.365921 -49.427731,30.214841 -5.824818,-0.20555 -12.939453,-1.5625 -12.939453,-1.5625 L 68.677734,67.734375 c 0,0 14.43683,-0.12328 30.455078,5.097656 1.372998,0.452207 2.746278,1.315348 2.871098,2.63086 0.0832,0.986633 -0.70772,1.849774 -1.62305,2.630859 -1.664234,1.438841 -3.951902,2.055229 -4.451172,2.671875 -0.374453,0.452207 -0.374271,1.110481 0.125,1.480469 1.206569,0.904414 4.161122,1.519907 6.158202,1.355468 4.03577,-0.369987 6.69764,-2.629754 8.73633,-5.671874 2.1635,-3.20656 3.36993,-11.388533 -8.11328,-16.56836 -14.853287,-6.741997 -34.24219,-5.466797 -34.24219,-5.466797 0,0 -0.08299,-4.440489 -0.291016,-7.40039 -0.332846,-4.850949 -1.705788,-14.429242 -6.199218,-17.183594 -0.832117,-0.493317 -1.829628,-0.576007 -2.41211,0.205078 -0.873722,1.109963 -1.747639,5.386131 -1.914062,6.496094 -1.70584,9.948556 -1.580261,18.827748 -1.705078,18.992187 -0.04161,0.04111 -0.08476,0.122953 -0.167969,0.164063 -0.166423,0.123329 -10.89991,1.357023 -21.259766,5.796875 -4.118978,1.767718 -10.027355,4.933948 -11.816406,9.044922 -2.329927,5.303156 1.748318,11.098599 8.613281,17.511718 5.824818,5.426486 14.394663,11.141666 20.71875,14.101566 1.622628,0.73997 3.53711,1.68554 3.53711,1.68554 0,0 0.4152,3.78203 0.748046,6.00196 1.20657,7.89307 7.282442,6.74098 8.988282,6.41211 2.745985,-0.53443 3.244688,-2.34286 3.61914,-4.43946 0.20803,-1.15107 0.125,-2.79492 0.125,-2.79492 0,0 4.118659,0.94418 6.90625,1.4375 8.071533,1.47995 16.849612,1.72696 24.421876,0.69922 30.37226,-4.11097 38.06928,-18.210092 40.48242,-21.992188 4.20219,-6.577558 13.1475,-24.830463 -13.77148,-51.96289 C 121.14234,32.339022 103.37632,15.278635 67.761719,5.3300781 59.596573,3.0433489 48.39213,0.29081112 35.560547,0.0234375 Z M 166.88281,9.1191406 c -3.52959,0.1244515 -7.15059,1.0566794 -9.95898,2.2128904 -4.74307,1.973268 -9.11099,4.890344 -12.43945,8.425781 -8.73723,9.249692 -4.90966,16.567207 -4.11915,17.923829 0.6657,1.151072 1.87087,2.385848 2.16211,3.61914 0.16643,0.698866 10e-4,1.644508 0.043,2.507813 0.0416,1.932157 0.9143,3.946301 2.41211,5.220703 1.04015,0.904414 2.57973,1.190817 4.11914,-1.111328 0.49927,-0.781085 1.37305,-2.341797 1.37305,-2.341797 0,0 1.78882,1.026685 6.07422,1.314453 3.07883,0.246658 7.48916,-0.698725 10.31836,-1.767578 6.4073,-2.466584 11.40124,-6.043018 16.43554,-11.140625 2.95402,-2.959901 5.4915,-7.769133 4.57618,-12.208984 -0.45767,-2.178817 -1.49747,-3.699455 -3.32813,-5.302735 -0.91533,-0.781085 -3.0383,-1.891825 -4.74414,-2.220703 -0.49927,-0.08222 -1.04002,-0.12267 -1.24805,-0.287109 -0.24963,-0.164439 -0.45798,-0.452372 -0.66601,-0.78125 -1.12336,-1.397731 -3.37015,-2.754636 -4.95117,-3.2890629 -1.85666,-0.6320622 -3.94084,-0.8481092 -6.0586,-0.7734375 z m -7.2539,10.3105474 c 0,0 -1.04034,0.82243 -1.91407,1.603515 -7.57226,6.577558 -11.4414,12.908203 -11.4414,12.908203 0,0 -0.29197,-0.616152 -0.5,-1.068359 -1.33139,-3.247669 1.58136,-6.906933 4.24414,-9.167969 5.20073,-4.357632 9.61133,-4.27539 9.61133,-4.27539 z m 17.30468,0.974609 c 0.69042,0.02891 1.33094,0.169461 1.91602,0.423828 1.24817,0.534427 2.20662,1.64319 2.37305,3.082031 0.54087,4.563181 -4.78577,8.344904 -8.32227,10.400391 -8.07153,4.6454 -17.6826,3.618223 -17.89062,3.166015 -0.0832,-0.04111 1.87218,-2.712679 2.62109,-3.658203 3.16204,-4.028754 9.02946,-9.045228 13.14844,-11.470703 2.00228,-1.181905 3.84113,-1.833574 5.44726,-1.935547 0.24092,-0.0153 0.4769,-0.01745 0.70703,-0.0078 z m 70.0625,26.369141 c -0.61888,0.01542 -1.30573,0.30317 -1.57617,1.392578 -0.54087,2.137706 0.29102,4.439453 0.29102,4.439453 5.49197,18.376053 6.74023,29.228515 6.74023,29.228515 0,0 0.24909,3.206655 -0.375,3.371094 -0.45766,0.328878 -0.91601,-0.123047 -0.91601,-0.123047 -0.62409,0.04111 -6.65625,-9.949219 -6.65625,-9.949219 l -1.16407,-1.93164 C 236.72452,62.677079 232.6875,59.058594 232.6875,59.058594 c -0.95693,-0.863305 -3.32801,-3.245811 -6.36523,0.04297 -2.99562,3.329889 -5.36788,13.936115 -6.28321,23.925782 -0.79051,9.989666 -0.20679,15.66251 1.29102,18.046874 1.62263,2.42547 4.7427,3.24689 7.32226,1.1914 2.74599,-2.05548 2.20445,-15.211121 2.66211,-21.953118 0.41606,-6.783107 1.08203,-5.548828 1.08203,-5.548828 0.58249,-0.164439 3.74415,6.042969 3.74414,6.042969 0,0 8.23932,16.607634 13.39844,19.074218 5.24234,2.466579 9.44437,-1.479811 11.02539,-5.179687 1.62263,-3.740986 4.36839,-16.074223 0.29102,-29.722656 -4.20219,-13.771763 -12.68945,-17.964844 -12.68945,-17.964844 0,0 -0.55104,-0.255651 -1.16993,-0.240234 z m 78.79297,5.457031 c -0.95961,-0.02754 -2.23437,1.074219 -2.23437,1.074219 -13.93796,12.332921 -15.89258,26.021484 -15.89258,26.021484 -1.33139,7.358643 0.20777,12.538499 2.49609,16.197266 -7.73868,16.279452 -11.52393,30.504242 -10.52539,38.890622 0.95694,6.41312 5.5751,11.01728 8.4043,12.00391 2.8292,1.15107 3.36914,-2.2207 3.36914,-2.2207 2.28832,-17.38942 6.32411,-28.98156 11.15039,-40.45118 14.52044,3.28878 25.46269,-10.646765 29.33203,-17.347652 2.28832,-3.987645 3.49414,-9.332175 3.49414,-14.388672 -0.0416,-5.673144 -1.6639,-11.017885 -5.11719,-13.44336 -10.31824,-7.070875 -26.9176,15.292949 -34.24023,26.392578 -1.08175,-5.632034 2.78711,-12.826172 2.78711,-12.826172 0,0 6.19854,-10.606434 7.07227,-12.74414 0.83211,-2.178816 1.33116,-6.618106 0.29101,-7.070313 -0.11962,-0.05653 -0.24963,-0.08396 -0.38672,-0.08789 z m -129.89062,1.267578 c -2.23112,0.06873 -4.32818,0.23874 -6.14844,0.464844 -7.48905,0.904414 -17.51597,3.204821 -21.75977,9.289062 -1.62262,2.302145 -2.57898,5.880131 -1.83007,8.757813 0.41605,1.603279 1.58127,2.835914 3.28711,3.699218 3.03722,1.56217 13.14719,1.891449 17.64062,2.384766 4.2438,0.452207 12.06557,1.191266 16.39258,2.958984 0,0 4.07676,1.399027 4.03515,3.701172 0,1.151073 -0.87237,2.055229 -1.74609,2.671875 -6.4073,4.480962 -15.18591,5.754189 -23.00781,5.63086 -2.66278,-0.04111 -4.82687,-0.452443 -7.53125,-1.603516 -1.16496,-0.493317 -2.62209,-1.396814 -2.41406,-2.958984 0.33284,-2.466585 3.20445,-3.082502 5.45117,-2.876953 1.28978,0.123329 2.91198,0.657167 4.16015,1.109374 5.03431,1.973268 7.32221,3.616835 11.73243,2.917969 1.66423,-0.246658 7.36437,-1.479104 8.11328,-3.78125 0.20803,-0.575536 -0.082,-1.192418 -0.49805,-1.603515 -0.58248,-0.616646 -4.03584,-1.932841 -4.95117,-2.261719 -3.37007,-1.192183 -9.73694,-2.259483 -13.27344,-2.382813 -4.65985,-0.164439 -11.02472,0.780404 -13.6875,4.5625 -2.37153,3.412109 -2.91235,10.318668 8.94531,16.156246 5.49197,2.71325 12.19,3.90581 18.34766,3.24805 3.5365,-0.4111 13.64687,-1.97402 17.47461,-9.908202 2.08029,-4.275413 1.87171,-9.98873 -0.375,-14.058594 -1.45621,-2.672133 -3.24395,-6.250141 -16.47461,-7.894531 -2.1219,-0.246658 -17.68306,-2.054217 -19.09766,-2.259765 -0.79051,-0.12333 -4.45189,-0.535863 -3.16211,-1.933594 0.37446,-0.411098 1.45736,-0.698843 2.12305,-0.863282 8.15475,-2.219925 18.55615,-1.930511 27.12695,-2.423828 1.91387,-0.123329 6.28104,-0.371541 8.36133,-1.029296 1.99708,-0.616647 3.66148,-2.014544 4.11914,-4.19336 0.24964,-1.109963 -0.2907,-1.643214 -1.41406,-2.21875 -5.33595,-2.805739 -13.24611,-3.506975 -19.93945,-3.300781 z M 301.2207,54 c -0.0326,0.0012 -0.0488,0.0039 -0.0488,0.0039 -12.44015,-0.411097 -30.53867,2.835632 -32.49415,3.822266 -1.83065,0.822195 -1.66509,2.178677 0.74805,5.179687 2.57956,3.16545 6.94922,2.876953 6.94922,2.876953 l -3.82812,7.771485 c -3.12044,0.205549 -4.20313,1.191406 -4.20313,1.191406 -1.78905,1.891048 0.66602,7.482422 0.66602,7.482422 0,0 -5.409,11.962069 -1.49805,18.292961 4.20219,6.61867 9.19531,6.33203 9.19531,6.33203 9.44453,0.61665 25.00578,-9.209447 25.83789,-12.416007 0.7073,-2.589913 -1.70564,-5.467526 -3.86914,-6.001953 -2.03868,-0.411097 -17.642,2.467621 -19.47266,2.960938 -1.99708,0.534426 -1.12304,-1.316406 -1.12304,-1.316406 l 2.41406,-8.056641 c 0,0 14.89314,-0.577372 17.05664,-0.90625 1.99708,-0.369988 2.12305,-1.767578 2.12305,-1.767578 0,0 0.24923,-2.301747 0.16601,-4.439453 -0.20803,-2.302146 -2.08007,-2.095703 -2.08007,-2.095704 -5.74161,-0.575536 -13.64649,0.08203 -13.64649,0.08203 l 1.9961,-6.166016 c 0,0 15.8109,-0.740941 21.84374,-2.138672 3.07884,-0.739975 1.28907,-3.699219 1.28907,-3.699218 C 305.73169,54.054919 301.7098,53.981936 301.2207,54 Z m -145.38672,1.373047 c -1.25381,-0.02138 -1.97121,1.730759 -2.32226,2.617187 -1.12336,2.836572 -1.91307,9.538075 -2.1211,11.675782 -0.66569,6.372009 -1.20734,21.459057 -0.084,29.105468 0.45766,3.206556 1.53931,5.303086 4.82617,6.001956 1.33139,0.28777 3.78603,0.20658 4.82617,-0.45117 0.91533,-0.57554 1.58104,-1.6872 1.78907,-2.67383 0.62408,-2.672135 0.37481,-6.454352 0.25,-9.332034 -0.12482,-3.370998 -0.20858,-6.740329 -0.375,-10.111328 -0.20803,-4.563181 -0.74733,-16.155922 -2.03711,-21.417969 -0.54088,-2.261035 -1.49938,-4.318336 -3.7461,-5.18164 -0.24963,-0.08222 -0.54001,-0.163969 -0.74804,-0.205078 -0.0884,-0.01799 -0.17423,-0.02592 -0.25782,-0.02734 z m 191.35938,11.685547 c 1.40713,-0.0686 1.6582,1.826172 1.6582,1.826172 0.99854,8.550825 -5.32491,15.004307 -8.02929,17.388672 -1.66424,1.56217 -7.19844,4.647025 -12.89844,5.263671 5.45036,-10.441873 12.23204,-18.129354 15.97656,-22.199218 1.50171,-1.667514 2.5559,-2.243359 3.29297,-2.279297 z M 55.738281,68.185547 c 0,0 -0.125,4.852082 -0.125,9.744141 -0.04161,9.2908 0.208985,18.746093 0.208985,18.746093 0,0 -15.477598,-4.441057 -28.208985,-17.390625 -1.123357,-1.109963 -1.956666,-2.342315 -1.707031,-3.822265 0.249635,-1.438841 3.079542,-2.672887 4.494141,-3.083985 13.729928,-3.987644 25.33789,-4.193359 25.33789,-4.193359 z M 474.48047,78.740234 a 13,13 0 0 0 -13,13 13,13 0 0 0 13,12.999996 13,13 0 0 0 13,-12.999996 13,13 0 0 0 -13,-13 z"
       style="fill:#ffffff" /></g></svg>
