<?xml version="1.0" encoding="UTF-8" standalone="no"?>
<!-- Created with Inkscape (http://www.inkscape.org/) -->

<svg
   width="100mm"
   height="41.948193mm"
   viewBox="0 0 100 41.948193"
   version="1.1"
   id="svg4495"
   inkscape:version="1.4.2 (f4327f4, 2025-05-13)"
   sodipodi:docname="2024_Disney_Channel_text_logo.svg"
   xmlns:inkscape="http://www.inkscape.org/namespaces/inkscape"
   xmlns:sodipodi="http://sodipodi.sourceforge.net/DTD/sodipodi-0.dtd"
   xmlns="http://www.w3.org/2000/svg"
   xmlns:svg="http://www.w3.org/2000/svg"
   xmlns:rdf="http://www.w3.org/1999/02/22-rdf-syntax-ns#"
   xmlns:cc="http://creativecommons.org/ns#"
   xmlns:dc="http://purl.org/dc/elements/1.1/">
  <defs
     id="defs4489" />
  <sodipodi:namedview
     id="base"
     pagecolor="#ffffff"
     bordercolor="#666666"
     borderopacity="1.0"
     inkscape:pageopacity="0.0"
     inkscape:pageshadow="2"
     inkscape:zoom="2.3786042"
     inkscape:cx="188.97638"
     inkscape:cy="79.248158"
     inkscape:document-units="mm"
     inkscape:current-layer="svg4495"
     showgrid="false"
     inkscape:snap-global="false"
     showguides="true"
     inkscape:guide-bbox="true"
     inkscape:window-width="1920"
     inkscape:window-height="974"
     inkscape:window-x="-11"
     inkscape:window-y="-11"
     inkscape:window-maximized="1"
     inkscape:showpageshadow="2"
     inkscape:pagecheckerboard="0"
     inkscape:deskcolor="#d1d1d1" />
  <metadata
     id="metadata4492">
    <rdf:RDF>
      <cc:Work
         rdf:about="">
        <dc:format>image/svg+xml</dc:format>
        <dc:type
           rdf:resource="http://purl.org/dc/dcmitype/StillImage" />
      </cc:Work>
    </rdf:RDF>
  </metadata>
  <path
     id="path1701"
     style="fill:#ffffff;fill-opacity:1;fill-rule:nonzero;stroke:none;stroke-width:0.139247"
     d="M 9.1231891,0 C 3.7676712,0 0,1.567058 0,3.5856071 c 0,0.9295938 0.75340438,1.4342718 2.0990113,1.4342718 0.8881015,0 1.399479,-0.2124216 1.399479,-0.5842591 0,-0.318723 -0.3767829,-0.531199 -1.2917949,-0.6905605 C 1.6684513,3.6654782 1.4801039,3.5857159 1.4801039,3.5059535 c 0,-0.3718375 2.8258429,-0.7702322 5.6516198,-0.7702322 13.8059313,0 29.7110053,9.5615287 29.7110053,18.0606947 0,4.754234 -5.00573,7.782121 -12.783343,7.782121 -1.399432,0 -3.014075,-0.159524 -4.763365,-0.451581 v -9.083444 c 4.332859,0 9.203814,1.168717 9.203814,2.310805 0,0.265591 -0.295956,0.610799 -1.022584,0.929522 -0.376771,0.159343 -0.726591,0.371728 -0.726591,0.610762 0,0.292165 0.457533,0.557883 0.915039,0.557883 2.12606,0 3.740779,-1.301522 3.740779,-2.921677 0,-2.86847 -5.059506,-4.887073 -12.21814,-4.887073 -0.242209,-4.99325 -0.726654,-6.9320915 -1.749314,-6.9320915 -1.049575,0 -1.560938,2.0982755 -1.776236,7.3040195 -5.490077,0.849922 -9.5268661,3.05428 -9.5268661,5.099386 0,2.231044 4.9788351,6.64007 9.4731621,8.393011 0.215298,2.682552 0.699728,3.559104 2.126071,3.559104 1.049577,0 1.453098,-0.504678 1.614572,-2.124833 2.072236,0.504642 4.09076,0.770215 6.216821,0.770215 8.800275,0 15.205408,-4.594819 15.205408,-10.942632 C 40.771956,11.314596 23.548106,0 9.1231891,0 Z M 46.566326,2.7826723 c -3.685938,0 -7.963652,3.4262093 -7.963652,6.2946805 0,0.9295942 0.457307,1.8857082 1.237538,2.6559412 -0.134526,0.318705 -0.188309,0.637554 -0.188309,0.903163 0,0.743675 0.484404,1.593452 1.103211,1.593452 0.403568,0 0.753174,-0.398231 1.102933,-1.195021 0.672618,0.265591 1.452824,0.424934 2.233065,0.424934 3.739742,0 8.394388,-3.6388123 8.394388,-6.5869552 0,-1.381103 -0.968683,-2.337254 -2.690583,-2.6294198 -0.5919,-0.9295938 -1.775742,-1.4607747 -3.228591,-1.4607747 z m -2.12538,3.0277058 c -1.237613,0.9030365 -2.636655,2.4170707 -3.632129,3.9575353 -0.188331,-0.212476 -0.295992,-0.4780665 -0.295992,-0.7702142 0,-1.3545639 2.260033,-3.1873211 3.928121,-3.1873211 z m 4.815965,0.212621 c 0.780231,0 1.318301,0.5046781 1.318301,1.2217959 0,1.8060731 -3.282395,3.691763 -6.403337,3.691763 -0.349758,0 -0.672536,-0.02647 -0.995389,-0.106228 1.85642,-2.7091101 4.493047,-4.8074034 6.080425,-4.8074034 z m 20.157354,7.2968399 c -0.45152,0 -0.690557,0.371838 -0.690557,0.823365 0,0.26559 0.07956,0.849778 0.477953,2.071537 0.849918,2.576305 1.48742,6.029162 1.48742,7.782103 0,0.371837 -0.02665,0.557756 -0.106301,0.557756 -0.185919,0 -1.327882,-1.6201 -2.337162,-3.346502 -1.938872,-3.373094 -3.001299,-4.701082 -3.718413,-4.701082 -1.381116,0 -2.921551,5.099423 -2.921551,9.641163 0,2.124796 0.690454,3.452803 1.779409,3.452803 0.849918,0 1.30146,-0.770251 1.30146,-2.629438 0,-1.832631 0.106229,-3.691854 0.212469,-5.099533 0.05311,-0.557756 0.07973,-0.796717 0.185962,-0.796717 0.132804,0 0.424948,0.478121 1.593586,2.815393 1.487354,3.001258 2.894964,4.807258 3.90424,4.807258 1.859191,0 3.187308,-2.231043 3.187308,-5.31199 0,-4.249593 -2.496626,-10.066116 -4.355821,-10.066116 z m 22.033547,1.855889 c -1.487352,0 -5.019874,6.427557 -5.019874,9.163224 0,1.301431 0.292142,2.443591 0.770218,3.346628 -1.673271,3.930869 -2.655934,7.861775 -2.655934,10.756821 0,1.885745 0.982698,3.50579 2.151335,3.50579 0.478078,0 0.796852,-0.29222 0.876523,-0.796862 0.664004,-4.276131 1.699779,-7.994397 2.788742,-11.048787 0.26559,0.05311 0.557749,0.07958 0.903025,0.07958 4.462063,0 8.738153,-4.435421 8.738153,-9.163079 0,-2.470077 -1.168545,-4.461995 -2.602781,-4.461995 -1.859193,0 -5.2588,3.266774 -8.605341,8.206909 -0.07969,-0.185919 -0.106301,-0.451455 -0.106301,-0.717064 0,-1.168627 0.610836,-2.682552 1.885713,-4.833905 1.08895,-1.83263 1.407764,-2.73563 1.407764,-3.266829 0,-0.478085 -0.212525,-0.770359 -0.531242,-0.770359 z m -35.693273,0.194801 c -5.336012,0 -9.028067,1.646748 -9.028067,4.196496 0,1.646711 1.536027,2.443573 6.090502,2.735739 3.530395,0.239033 5.659489,0.982672 5.659489,1.885709 0,1.142069 -3.395689,2.284139 -6.737436,2.284139 -1.643923,0 -3.045249,-0.557792 -3.045249,-1.221796 0,-0.451527 0.619758,-0.823365 1.509096,-0.823365 0.781535,0 1.320578,0.292166 1.643978,0.478085 0.781533,0.424952 1.374488,0.717208 2.29077,0.717208 1.347478,0 2.883586,-0.664094 2.883586,-1.195293 0,-0.717117 -3.287957,-1.699753 -5.497823,-1.699753 -2.344614,0 -4.069355,1.088973 -4.069355,2.549766 0,2.045106 3.476465,4.222999 7.195505,4.222999 3.557344,0 6.252303,-1.965471 6.252303,-4.887057 0,-2.576305 -2.102013,-3.904257 -7.087683,-4.30267 -3.287845,-0.265591 -4.419741,-0.451546 -4.419741,-0.743711 0,-0.557757 3.773023,-1.062344 7.087822,-1.062344 3.3148,0 4.743069,-0.504732 4.743069,-1.40775 0,-1.088974 -2.155967,-1.726402 -5.470766,-1.726402 z m 27.607027,0.120732 c -0.690556,0 -1.673258,0.07958 -2.496616,0.185828 l -3.744921,0.504732 c -1.540474,0.212476 -2.204486,0.531145 -2.204486,1.062344 0,0.663985 0.95614,1.195147 2.496613,1.540427 l -0.876383,2.363812 c -0.929596,0 -1.381117,0.345298 -1.381117,1.088991 0,0.451509 0.159361,0.982781 0.34528,1.274947 -0.743679,1.56704 -1.009331,2.443501 -1.009331,3.31998 0,2.045106 1.460856,3.61211 3.426286,3.61211 2.390393,0 6.533663,-2.337254 6.533663,-3.665261 0,-0.557756 -0.664,-1.381121 -1.381118,-1.381121 -0.23904,0 -0.876447,0.07976 -2.018524,0.318778 -1.248317,0.239033 -2.73561,0.477957 -3.34649,0.477957 0.265599,-0.982726 0.610869,-1.938768 0.903027,-2.682443 1.062397,-0.106229 2.363725,-0.159525 4.408836,-0.159525 0.717118,0 1.009331,-0.318614 1.009331,-1.088846 0,-0.95617 -0.39842,-1.354619 -1.301457,-1.354619 -1.035835,0 -2.337185,0.02665 -3.293341,0.07958 l 0.584257,-1.912211 c 4.727661,0 6.400991,-0.345317 6.400991,-1.301467 0,-0.982708 -1.726505,-2.284139 -3.0545,-2.284139 z m -39.561202,0.115836 c -1.088958,0 -1.726396,3.399688 -1.726396,8.552317 0,4.249592 0.424866,5.391662 1.91222,5.391662 1.168638,0 1.56708,-0.717118 1.56708,-2.762242 0,-7.410212 -0.610829,-11.181737 -1.752904,-11.181737 z M 15.555242,19.20291 v 7.888277 C 11.78754,25.816295 7.2123487,22.708718 7.2123487,21.460401 c 0,-1.062398 3.3641433,-1.938768 8.3428933,-2.257491 z m 81.94828,0.142847 c 0.318716,0 0.531103,0.557702 0.531103,1.407624 0,3.107504 -2.735659,5.763445 -5.949405,5.763445 2.470067,-4.143345 4.754301,-7.171069 5.418302,-7.171069 z m -61.786919,13.6411 c -2.123226,0 -3.332409,0.996521 -3.332409,2.712535 v 1.197487 c 0,1.682151 1.207341,2.678709 3.263518,2.678709 1.96428,0 3.136755,-0.90949 3.239083,-2.526834 h -1.572188 c -0.03296,0.737983 -0.667522,1.167539 -1.713971,1.167539 -1.102854,0 -1.661236,-0.477033 -1.661236,-1.409981 v -1.058754 c 0,-0.913333 0.593978,-1.421147 1.680286,-1.421147 1.00495,0 1.6392,0.434541 1.672555,1.158149 h 1.572188 c -0.104325,-1.648851 -1.18816,-2.497703 -3.147826,-2.497703 z m 4.269535,0.08738 v 6.397954 l 1.555208,-1.27e-4 v -2.9e-4 -2.687954 h 2.785565 v 2.688244 l 1.555208,-1.45e-4 v -6.397682 h -1.555208 v 2.461828 h -2.785565 v -2.461828 z m 9.141137,0 -2.503517,6.398099 1.633484,-2.72e-4 0.425905,-1.286276 h 2.601951 l 0.426179,1.286548 h 1.865284 l -2.503379,-6.398099 z m 5.287703,0 v 6.397827 l 1.478585,-1.45e-4 V 35.5841 c 0,-0.288541 -0.0261,-0.596024 -0.08105,-0.956043 h 0.129215 l 2.847693,4.84413 1.854236,-1.27e-4 v -6.397827 h -1.478583 l -1.4e-4,3.169791 c -1.6e-5,0.313448 0.04365,0.659435 0.134327,1.063848 h -0.144823 l -2.485985,-4.233639 z m 7.415154,0 v 6.397827 l 1.478584,-1.45e-4 V 35.5841 c 0,-0.288541 -0.02596,-0.596024 -0.0809,-0.956043 h 0.129088 l 2.847694,4.84413 1.854236,-1.27e-4 v -6.397827 h -1.478585 l -1.38e-4,3.169791 c -1e-5,0.313448 0.04367,0.659435 0.134327,1.063848 H 66.56961 l -2.485981,-4.233639 z m 7.39845,0 -1.39e-4,6.397954 h 5.139428 v -1.260734 h -3.584083 v -1.469748 h 2.861496 V 35.761643 H 70.783788 V 34.33484 h 3.584083 v -1.260607 z m 6.157732,0 v 6.397954 h 5.274588 v -1.260734 h -3.719518 l 1.36e-4,-5.13722 z m -25.467837,1.380994 h 0.131155 l 0.900957,2.720403 h -1.932791 z" />
</svg>
