<?xml version="1.0" encoding="UTF-8" standalone="no"?>
<svg
   width="301.96786"
   height="313.36844"
   viewBox="0 0 301.96786 313.36844"
   version="1.1"
   id="svg2"
   sodipodi:docname="63 sin título_20250923171817.svg"
   inkscape:version="1.4.2 (f4327f4, 2025-05-13)"
   xmlns:inkscape="http://www.inkscape.org/namespaces/inkscape"
   xmlns:sodipodi="http://sodipodi.sourceforge.net/DTD/sodipodi-0.dtd"
   xmlns="http://www.w3.org/2000/svg"
   xmlns:svg="http://www.w3.org/2000/svg">
  <defs
     id="defs2" />
  <sodipodi:namedview
     id="namedview2"
     pagecolor="#ffffff"
     bordercolor="#000000"
     borderopacity="0.25"
     inkscape:showpageshadow="2"
     inkscape:pageopacity="0.0"
     inkscape:pagecheckerboard="0"
     inkscape:deskcolor="#d1d1d1"
     showguides="false"
     inkscape:zoom="2.3407643"
     inkscape:cx="132.86259"
     inkscape:cy="147.17415"
     inkscape:window-width="1920"
     inkscape:window-height="974"
     inkscape:window-x="-11"
     inkscape:window-y="-11"
     inkscape:window-maximized="1"
     inkscape:current-layer="svg2">
    <sodipodi:guide
       position="23.893665,42.554"
       orientation="0,-1"
       id="guide2"
       inkscape:locked="false" />
  </sodipodi:namedview>
  <path
     fill="#10e900"
     d="m 32.325065,232.094 c 10.9112,-0.557 13.1955,3.375 21.6094,8.953 7.6339,5.061 16.4702,10.209 24.8279,13.946 48.841905,22.325 105.064905,21.864 153.533905,-1.261 6.944,-3.321 13.647,-7.124 20.059,-11.383 4.063,-2.682 9.687,-7.479 14.353,-9.126 13.32,-4.401 27.409,3.99 28.044,18.334 0.441,9.958 -4.376,16.375 -12.506,21.354 -40.78727,29.29747 -89.10752,41.18659 -138.733,40.423 -42.323,-2.077 -85.317705,-16.73 -119.619605,-41.888 -4.9274,-3.646 -9.2589,-8.366 -10.123,-14.679 -1.6931,-12.37 5.9902,-23.191 18.5544,-24.673 z"
     id="path1"
     sodipodi:nodetypes="cccccccscccc" />
  <path
     fill="#10e900"
     d="m 133.74627,0 h 4.86 c 1.867,0.653263 3.849,1.08037 5.64,1.75915 5.38,2.03874 9.243,6.18488 11.544,11.36835 1.111,2.5043 1.225,4.8996 1.439,7.6011 0.313,7.978 0.185,16.1853 0.183,24.1767 l -0.011,46.6664 c 0,8.9033 -0.248,19.3453 0.274,28.1013 1.828,-3.518 3.437,-7.334 5.503,-10.695 30.842,-50.1726 102.786,-50.4503 134.691,-1.167 12.708,19.629 -6.318,41.757 -27.212,31.638 -5.449,-2.638 -8.486,-8.411 -12.117,-12.882 -9.364,-11.617 -23.862,-15.797 -38.261,-11.728 -8.955,2.565 -16.545,8.542 -21.14,16.645 -5.034,9.052 -6.569,18.058 -3.751,28.143 2.495,8.931 9.59,17.837 17.567,22.369 8.034,4.564 18.901,5.873 27.726,3.156 5.023,-1.445 10.886,-4.437 14.579,-8.213 7.731,-7.904 9.968,-15.859 22.893,-16.634 9.385,-0.563 18.335,4.571 21.145,13.753 2.757,9.884 -0.235,16.222 -5.995,23.945 -10.176,13.645 -25.045,23.678 -41.471,28.129 -20.052,5.434 -43.382,2.673 -61.236,-8.106 -12.596,-7.605 -23.452,-19.069 -30.177,-32.145 -2.348,-4.607 -4.082,-10.68 -6.252,-14.902 -0.491,7.156 -8.46,21.772 -13.201,27.678 -16.673,20.77 -42.150305,32.231 -68.675205,29.935 -16.7426,-1.449 -27.9641,-6.375 -41.2104,-15.684 l -0.29,-0.364 c -7.262,-4.152 -19.5289,-20.235 -23.0441896,-27.676 -20.4211104,-43.231 1.04203,-95.2124 46.6595896,-110.0617 20.4125,-6.6446 42.6651,-4.293 60.676205,4.8061 1.171,-0.6475 -0.012,-54.3399 0.664,-61.1451 0.205,-2.2622 0.785,-4.4745 1.718,-6.5459 2.163,-4.8754 6.237,-8.64541 11.266,-10.42391 1.594,-0.546523 3.184,-0.781208 4.806,-1.4142126 z M 82.058065,186.357 c 20.064205,-1.752 34.927205,-19.41 33.228205,-39.479 -1.699,-20.069 -19.318805,-34.978 -39.392005,-33.332 -20.1479,1.653 -35.1244,19.352 -33.4191,39.496 1.7052,20.143 19.4439,35.073 39.5829,33.315 z"
     id="path2" />
</svg>
