<?xml version="1.0" encoding="UTF-8" standalone="no"?>
<svg
   width="100"
   height="100"
   viewBox="0 0 100 100"
   fill="none"
   version="1.1"
   id="svg2"
   sodipodi:docname="El Gourmet.svg"
   inkscape:version="1.4.2 (f4327f4, 2025-05-13)"
   xmlns:inkscape="http://www.inkscape.org/namespaces/inkscape"
   xmlns:sodipodi="http://sodipodi.sourceforge.net/DTD/sodipodi-0.dtd"
   xmlns="http://www.w3.org/2000/svg"
   xmlns:svg="http://www.w3.org/2000/svg">
  <defs
     id="defs2" />
  <sodipodi:namedview
     id="namedview2"
     pagecolor="#848484"
     bordercolor="#000000"
     borderopacity="0.25"
     inkscape:showpageshadow="2"
     inkscape:pageopacity="0.0"
     inkscape:pagecheckerboard="0"
     inkscape:deskcolor="#d1d1d1"
     inkscape:zoom="7.35"
     inkscape:cx="50"
     inkscape:cy="50"
     inkscape:window-width="1920"
     inkscape:window-height="974"
     inkscape:window-x="-11"
     inkscape:window-y="-11"
     inkscape:window-maximized="1"
     inkscape:current-layer="svg2" />
  <g
     id="g2"
     style="display:inline"
     transform="scale(2.2074665)">
    <path
       id="path1"
       d="M 22.6504 0 C 10.1409 0 2.145877e-15 10.1409 0 22.6504 C 0 35.1599 10.1409 45.300801 22.6504 45.300801 C 35.1599 45.300801 45.300801 35.1599 45.300801 22.6504 C 45.300801 10.1409 35.1599 2.145877e-15 22.6504 0 z M 23.290982 9.125634 C 25.219282 9.125634 27.018209 9.4304739 28.684609 10.036074 C 30.350909 10.641574 31.716807 11.466198 32.777607 12.505498 L 29.105764 16.762181 C 28.457164 16.027781 27.65824 15.456608 26.71774 15.057208 C 25.77714 14.657808 24.72966 14.455556 23.58296 14.455556 C 22.19576 14.455556 20.945533 14.790792 19.828833 15.465092 C 18.712233 16.135092 17.836509 17.067001 17.196609 18.261001 C 16.556709 19.450601 16.238391 20.764638 16.238391 22.194738 C 16.238391 23.710838 16.531109 25.059743 17.115209 26.240843 C 17.699309 27.421843 18.56244 28.349056 19.70054 29.019056 C 20.83864 29.688956 22.195466 30.028591 23.780266 30.028591 C 24.690766 30.028591 25.54079 29.925118 26.33109 29.718918 C 26.849791 29.583631 27.278436 29.428134 27.615793 29.250869 L 27.615793 24.95614 L 22.869826 24.95614 L 22.869826 20.146469 L 33.138597 20.146469 L 33.138597 32.948369 C 31.858797 33.661369 30.381604 34.228532 28.702304 34.636532 C 27.023104 35.048832 25.274782 35.254994 23.453782 35.254994 C 20.876982 35.254994 18.557486 34.70981 16.500286 33.61461 L 16.495862 33.61461 C 14.438762 32.51951 12.82888 30.982021 11.66938 28.997821 C 10.50978 27.013621 9.9299001 24.745714 9.9299001 22.190314 C 9.9299001 19.635014 10.513791 17.363592 11.686191 15.383692 C 12.854391 13.399492 14.460162 11.862003 16.495862 10.766903 C 18.531562 9.6717132 20.795782 9.125634 23.290982 9.125634 z "
       style="fill:#ffffff;fill-opacity:1" />
  </g>
</svg>
