<?xml version="1.0" encoding="UTF-8" standalone="no"?>
<svg
   width="96.235207"
   height="100"
   viewBox="0 0 96.235207 100"
   fill="none"
   version="1.1"
   id="svg47"
   sodipodi:docname="History_(2021).svg"
   inkscape:version="1.4.2 (f4327f4, 2025-05-13)"
   xmlns:inkscape="http://www.inkscape.org/namespaces/inkscape"
   xmlns:sodipodi="http://sodipodi.sourceforge.net/DTD/sodipodi-0.dtd"
   xmlns="http://www.w3.org/2000/svg"
   xmlns:svg="http://www.w3.org/2000/svg">
  <sodipodi:namedview
     id="namedview47"
     pagecolor="#ffffff"
     bordercolor="#000000"
     borderopacity="0.25"
     inkscape:showpageshadow="2"
     inkscape:pageopacity="0.0"
     inkscape:pagecheckerboard="0"
     inkscape:deskcolor="#d1d1d1"
     inkscape:zoom="7.35"
     inkscape:cx="48.163265"
     inkscape:cy="50"
     inkscape:window-width="1920"
     inkscape:window-height="974"
     inkscape:window-x="-11"
     inkscape:window-y="-11"
     inkscape:window-maximized="1"
     inkscape:current-layer="svg47" />
  <g
     id="g47"
     transform="matrix(0.27292855,0,0,0.27292855,-10.839303,-0.09681758)">
    <path
       d="m 39.9252,366.74 v -6.511 l 2.8014,-0.023 c 0.0664,0 0.2104,0.011 0.3986,0.011 5.6581,0 11.139,-2.279 15.8891,-5.192 6.1342,-3.77 9.4227,-10.363 10.4746,-17.335 0.2436,-1.612 0.4097,-3.258 0.3543,-4.893 0,0 1e-4,-5.448 -0.011,-5.448 V 33.1849 C 69.6993,29.6045 68.4924,17.6625 58.7486,12.025 51.4185,7.35497 44.9411,6.98804 43.1363,6.98804 c -0.1883,0 -0.3211,-10e-6 -0.3987,0.01111 L 39.7148,6.94355 V 0.465935 H 181.961 V 6.95468 l -1.938,0.04447 c -0.078,0 -0.199,-0.01111 -0.388,-0.01111 -1.805,0 -8.271,0.36694 -15.656,5.05926 -9.733,5.6374 -10.851,17.624 -10.973,21.1599 l -0.056,5.0036 -0.011,1.4011 v 3.1022 l 0.133,87.8139 h 125.865 l 0.133,-87.8028 c 0,0 0,-4.5032 -0.011,-4.5032 v -4.9592 c -0.122,-3.5916 -1.284,-15.5669 -11.084,-21.2378 -7.33,-4.67003 -13.796,-5.03696 -15.612,-5.03696 -0.188,0 -0.321,-10e-6 -0.387,0.01111 l -1.938,-0.04447 0.011,-6.599944 h 142.268 l -0.011,6.588814 -3.056,0.0556 c -0.067,0 -0.2,-0.01111 -0.399,-0.01111 -1.805,0 -8.271,0.36694 -15.656,5.05926 -9.7,5.6152 -10.896,17.5572 -11.029,21.082 V 327.349 h -0.022 v 5.493 c -0.022,0.589 -0.41,15.678 11.095,22.338 7.33,4.67 13.796,5.037 15.601,5.037 0.199,0 0.332,0 0.399,-0.011 l 3.067,0.034 v 6.511 h -49.882 -92.408 l 0.055,-6.645 h 1.916 c 0.055,0 0.166,0.011 0.332,0.011 1.805,0 8.227,-0.222 15.679,-4.959 9.024,-5.215 10.685,-15.867 10.984,-20.203 v -0.101 l 0.044,-124.962 H 152.552 l -0.255,123.072 0.122,3.469 c 0.288,4.337 2.48,14.266 11.56,19.515 7.33,4.67 13.464,4.258 15.269,4.258 0.199,0 0.332,0 0.398,-0.011 l 1.717,0.022 v 6.511 H 39.9252 Z m 67.2178,-33.464 h 6.514 V 173.259 H 318.02 v 160.094 h 6.525 V 28.2369 H 318.02 V 167.016 H 113.657 V 28.248 h -6.514 z"
       fill="url(#paint0_linear_29_544)"
       fill-opacity="0.3"
       id="path1"
       style="fill:url(#paint0_linear_29_544)" />
    <path
       d="m 39.9252,366.74 v -6.511 l 2.8014,-0.023 c 0.0664,0 0.2104,0.011 0.3986,0.011 5.6581,0 11.139,-2.279 15.8891,-5.192 6.1342,-3.77 9.4227,-10.363 10.4746,-17.335 0.2436,-1.612 0.4097,-3.258 0.3543,-4.893 0,0 1e-4,-5.448 -0.011,-5.448 V 33.1849 C 69.6993,29.6045 68.4924,17.6625 58.7486,12.025 51.4185,7.35497 44.9411,6.98804 43.1363,6.98804 c -0.1883,0 -0.3211,-10e-6 -0.3987,0.01111 L 39.7148,6.94355 V 0.465935 H 181.961 V 6.95468 l -1.938,0.04447 c -0.078,0 -0.199,-0.01111 -0.388,-0.01111 -1.805,0 -8.271,0.36694 -15.656,5.05926 -9.733,5.6374 -10.851,17.624 -10.973,21.1599 l -0.056,5.0036 -0.011,1.4011 v 3.1022 l 0.133,87.8139 h 125.865 l 0.133,-87.8028 c 0,0 0,-4.5032 -0.011,-4.5032 v -4.9592 c -0.122,-3.5916 -1.284,-15.5669 -11.084,-21.2378 -7.33,-4.67003 -13.796,-5.03696 -15.612,-5.03696 -0.188,0 -0.321,-10e-6 -0.387,0.01111 l -1.938,-0.04447 0.011,-6.599944 h 142.268 l -0.011,6.588814 -3.056,0.0556 c -0.067,0 -0.2,-0.01111 -0.399,-0.01111 -1.805,0 -8.271,0.36694 -15.656,5.05926 -9.7,5.6152 -10.896,17.5572 -11.029,21.082 V 327.349 h -0.022 v 5.493 c -0.022,0.589 -0.41,15.678 11.095,22.338 7.33,4.67 13.796,5.037 15.601,5.037 0.199,0 0.332,0 0.399,-0.011 l 3.067,0.034 v 6.511 h -49.882 -92.408 l 0.055,-6.645 h 1.916 c 0.055,0 0.166,0.011 0.332,0.011 1.805,0 8.227,-0.222 15.679,-4.959 9.024,-5.215 10.685,-15.867 10.984,-20.203 v -0.101 l 0.044,-124.962 H 152.552 l -0.255,123.072 0.122,3.469 c 0.288,4.337 2.48,14.266 11.56,19.515 7.33,4.67 13.464,4.258 15.269,4.258 0.199,0 0.332,0 0.398,-0.011 l 1.717,0.022 v 6.511 H 39.9252 Z m 67.2178,-33.464 h 6.514 V 173.259 H 318.02 v 160.094 h 6.525 V 28.2369 H 318.02 V 167.016 H 113.657 V 28.248 h -6.514 z"
       fill="url(#paint1_linear_29_544)"
       fill-opacity="0.6"
       id="path2"
       style="fill:url(#paint1_linear_29_544)" />
    <path
       d="m 41.576,365.101 v -3.236 l 2.8013,-0.022 c 0.0664,0 0.2104,0.011 0.3986,0.011 1.8048,0 8.2823,-0.367 15.6566,-5.059 11.4601,-6.627 11.0615,-21.716 11.0504,-22.361 v -5.448 H 71.4718 V 31.5463 C 71.339,27.9659 70.132,16.0239 60.3882,10.3865 53.0582,5.71637 46.5807,5.34944 44.7759,5.34944 c -0.1882,0 -0.3211,-1e-5 -0.3986,0.01111 L 41.3545,5.30495 V 2.10263 H 180.337 v 3.21345 l -1.938,0.04447 c -0.077,0 -0.199,-0.01111 -0.387,-0.01111 -1.805,0 -8.271,0.36694 -15.657,5.05926 -9.732,5.6374 -10.862,17.6129 -10.984,21.1599 l -0.044,5.0036 -0.011,1.4011 v 3.1022 l 0.133,91.0885 h 129.128 l 0.133,-91.0774 v -4.5032 h -0.011 v -4.9592 c -0.122,-3.5915 -1.285,-15.5669 -11.084,-21.2377 -7.33,-4.67013 -13.796,-5.03706 -15.612,-5.03706 -0.188,0 -0.321,-1e-5 -0.388,0.01111 l -1.937,-0.04447 -0.012,-3.30241 h 139.005 l 0.011,3.29128 -3.056,0.0556 c -0.066,0 -0.199,-0.01111 -0.398,-0.01111 -1.805,0 -8.271,0.36694 -15.657,5.05926 -9.699,5.6152 -10.895,17.5572 -11.028,21.082 V 328.986 h -0.022 v 5.493 c -0.022,0.589 -0.41,15.678 11.094,22.338 7.33,4.67 13.797,5.037 15.602,5.037 0.199,0 0.332,0 0.398,-0.011 l 3.067,0.033 v 3.236 H 340.8 251.655 v -3.224 h 1.916 c 0.055,0 0.166,0.011 0.332,0.011 1.805,0 8.282,-0.367 15.723,-5.104 9.024,-5.215 10.685,-15.867 10.984,-20.204 v -0.1 l 0.044,-128.238 H 150.94 l 0.044,128.283 v 0.044 c 0.288,4.337 1.949,14.989 11.028,20.237 7.33,4.67 13.796,5.037 15.601,5.037 0.2,0 0.332,0 0.399,-0.011 l 1.927,0.022 v 3.236 z m 63.955,-30.189 h 9.777 V 174.895 h 201.1 V 334.99 h 9.788 V 26.5983 h -9.788 V 165.377 h -201.1 V 26.6094 h -9.777 z"
       fill="url(#paint2_linear_29_544)"
       id="path4"
       style="fill:url(#paint2_linear_29_544)" />
    <path
       d="m 41.576,365.102 v -3.236 l 2.8013,-0.022 c 0.0664,0 0.2104,0.011 0.3986,0.011 1.8048,0 8.2823,-0.367 15.6566,-5.059 11.4601,-6.627 11.0615,-21.716 11.0504,-22.361 v -5.449 H 71.4718 V 31.5471 C 71.339,27.9667 70.1321,16.0247 60.3882,10.3872 53.0582,5.71713 46.5807,5.3502 44.7759,5.3502 c -0.1882,0 -0.3211,-1e-5 -0.3986,0.01111 L 41.3545,5.30571 V 2.10339 H 180.337 v 3.21345 l -1.938,0.04447 c -0.077,0 -0.199,-0.01111 -0.387,-0.01111 -1.805,0 -8.271,0.36694 -15.657,5.0593 -9.732,5.6374 -10.851,17.6239 -10.973,21.1598 l -0.055,5.0037 -0.011,1.401 v 3.1023 l 0.133,91.0887 h 129.128 l 0.133,-91.0776 v -4.5033 h -0.011 v -4.9592 c -0.122,-3.5915 -1.285,-15.5669 -11.084,-21.2377 -7.33,-4.67007 -13.796,-5.037 -15.612,-5.037 -0.188,0 -0.321,-1e-5 -0.388,0.01111 l -1.937,-0.04447 0.011,-3.32465 h 139.004 l -0.011,3.31352 -3.056,0.0556 c -0.066,0 -0.199,-0.01111 -0.398,-0.01111 -1.805,0 -8.271,0.36694 -15.657,5.0593 -9.699,5.6152 -10.895,17.5572 -11.028,21.082 V 328.986 h -0.022 v 5.493 c -0.022,0.59 -0.41,15.678 11.094,22.339 7.331,4.67 13.797,5.037 15.602,5.037 0.199,0 0.332,0 0.398,-0.011 l 3.067,0.033 v 3.236 h -49.881 -89.146 l 0.056,-3.369 h 1.915 c 0.056,0 0.166,0.011 0.333,0.011 1.804,0 8.226,-0.223 15.678,-4.959 9.024,-5.215 10.685,-15.867 10.984,-20.204 v -0.1 l 0.045,-128.238 H 150.94 l 0.044,128.282 v 0.045 c 0.288,4.336 1.949,14.989 11.028,20.237 7.33,4.67 13.796,5.037 15.601,5.037 0.2,0 0.332,0 0.399,-0.011 l 1.927,0.022 v 3.236 z m 63.955,-30.189 h 9.777 V 174.896 h 201.1 v 160.095 h 9.788 V 26.599 h -9.788 v 138.779 h -201.1 V 26.6102 h -9.777 z"
       fill="url(#paint3_linear_29_544)"
       id="path5"
       style="fill:url(#paint3_linear_29_544)" />
    <path
       d="m 41.5756,365.102 v -3.236 l 2.8014,-0.022 c 0.0664,0 0.2103,0.011 0.3986,0.011 5.6581,0 11.139,-2.28 15.8891,-5.193 6.1342,-3.769 9.4227,-10.363 10.4746,-17.335 0.2436,-1.612 0.4097,-3.258 0.3543,-4.892 0,0 0,-5.449 -0.011,-5.449 V 31.5471 C 71.3497,27.9667 70.1428,16.0247 60.399,10.3872 53.0689,5.71713 46.5915,5.3502 44.7866,5.3502 c -0.1882,0 -0.3211,-1e-5 -0.3986,0.01111 L 41.3652,5.30571 V 2.10339 H 180.348 v 3.21345 l -1.938,0.04447 c -0.077,0 -0.199,-0.01111 -0.387,-0.01111 -1.805,0 -8.272,0.36694 -15.657,5.0593 -9.733,5.6374 -10.851,17.6239 -10.973,21.1598 l -0.055,5.0037 -0.011,1.401 v 3.1023 l 0.133,91.0887 h 129.128 l 0.133,-91.0776 c 0,0 0,-4.5033 -0.011,-4.5033 v -4.9592 c -0.122,-3.5915 -1.285,-15.5669 -11.084,-21.2377 -7.33,-4.67007 -13.797,-5.037 -15.612,-5.037 -0.189,0 -0.322,-1e-5 -0.388,0.01111 l -1.938,-0.04447 0.011,-3.32465 h 139.005 l -0.011,3.31352 -3.056,0.0556 c -0.066,0 -0.199,-0.01111 -0.398,-0.01111 -1.805,0 -8.272,0.36694 -15.657,5.0593 -9.7,5.6152 -10.895,17.5572 -11.028,21.082 V 328.986 h -0.022 v 5.493 c -0.023,0.59 -0.41,15.678 11.094,22.339 7.33,4.67 13.797,5.037 15.601,5.037 0.2,0 0.333,0 0.399,-0.011 l 3.067,0.033 v 3.236 h -49.882 -89.145 l 0.056,-3.369 h 1.915 c 0.055,0 0.166,0.011 0.332,0.011 1.805,0 8.227,-0.223 15.679,-4.959 9.024,-5.215 10.685,-15.867 10.984,-20.204 v -0.1 l 0.044,-128.238 H 150.939 l -0.254,126.348 0.121,3.469 c 0.288,4.336 2.481,14.266 11.56,19.514 7.33,4.67 13.464,4.259 15.269,4.259 0.199,0 0.332,0 0.399,-0.011 l 1.716,0.022 v 3.236 H 41.5756 Z m 63.9554,-30.189 h 9.777 V 174.896 h 201.099 v 160.095 h 9.789 V 26.599 h -9.789 V 165.378 H 115.308 V 26.6102 h -9.777 z"
       fill="url(#paint4_linear_29_544)"
       id="path6"
       style="fill:url(#paint4_linear_29_544)" />
    <path
       d="m 41.5766,365.102 v -3.236 l 2.8013,-0.022 c 0.0665,0 0.2104,0.011 0.3987,0.011 5.658,0 11.1389,-2.28 15.8891,-5.193 6.1341,-3.769 9.4227,-10.363 10.4746,-17.335 0.2436,-1.612 0.4097,-3.258 0.3543,-4.892 0,0 0,-5.449 -0.0111,-5.449 V 31.5471 C 71.3507,27.9667 70.1438,16.0247 60.3999,10.3872 53.0699,5.71713 46.5924,5.3502 44.7876,5.3502 c -0.1882,0 -0.3211,-1e-5 -0.3986,0.01111 L 41.3662,5.30571 V 2.10339 H 180.349 v 3.21345 l -1.938,0.04447 c -0.077,0 -0.199,-0.01111 -0.387,-0.01111 -1.805,0 -8.272,0.36694 -15.657,5.0593 -9.733,5.6374 -10.851,17.6239 -10.973,21.1598 l -0.055,5.0037 -0.011,1.401 v 3.1023 l 0.133,91.0887 h 129.128 l 0.132,-91.0776 c 0,0 0,-4.5033 -0.011,-4.5033 v -4.9592 c -0.121,-3.5915 -1.284,-15.5669 -11.083,-21.2377 -7.33,-4.67007 -13.797,-5.037 -15.613,-5.037 -0.188,0 -0.321,-1e-5 -0.387,0.01111 L 251.689,5.31684 251.7,1.99219 h 139.005 l -0.011,3.31352 -3.056,0.0556 c -0.066,0 -0.199,-0.01111 -0.399,-0.01111 -1.804,0 -8.271,0.36694 -15.656,5.0593 -9.7,5.6152 -10.896,17.5572 -11.028,21.082 V 328.986 h -0.023 v 5.493 c -0.022,0.59 -0.409,15.678 11.095,22.339 7.33,4.67 13.796,5.037 15.601,5.037 0.2,0 0.333,0 0.399,-0.011 l 3.067,0.033 v 3.236 h -49.882 -89.145 l 0.055,-3.369 h 1.916 c 0.055,0 0.166,0.011 0.332,0.011 1.805,0 8.227,-0.223 15.679,-4.959 9.024,-5.215 10.685,-15.867 10.984,-20.204 v -0.1 l 0.044,-128.238 H 150.94 l -0.255,126.348 0.122,3.469 c 0.288,4.336 2.481,14.266 11.56,19.514 7.33,4.67 13.464,4.259 15.269,4.259 0.199,0 0.332,0 0.399,-0.011 l 1.716,0.022 v 3.236 H 41.5766 Z m 63.9554,-30.189 h 9.777 V 174.896 h 201.099 v 160.095 h 9.788 V 26.599 h -9.788 V 165.378 H 115.309 V 26.6102 h -9.777 z"
       fill="url(#paint5_linear_29_544)"
       id="path7"
       style="fill:url(#paint5_linear_29_544)" />
  </g>
  <defs
     id="defs47">
    <linearGradient
       id="paint0_linear_29_544"
       x1="74.140297"
       y1="279.983"
       x2="363.13199"
       y2="97.379501"
       gradientUnits="userSpaceOnUse">
      <stop
         stop-color="#DD972C"
         id="stop16" />
      <stop
         offset="0.264617"
         stop-color="#F8CB45"
         id="stop17" />
      <stop
         offset="0.654677"
         stop-color="#F2AC2F"
         id="stop18" />
      <stop
         offset="1"
         stop-color="#FDDB50"
         id="stop19" />
    </linearGradient>
    <linearGradient
       id="paint1_linear_29_544"
       x1="71.693001"
       y1="170.99699"
       x2="362.74301"
       y2="270.63501"
       gradientUnits="userSpaceOnUse">
      <stop
         stop-color="#DD972C"
         id="stop20" />
      <stop
         offset="0.264617"
         stop-color="#B55727"
         id="stop21" />
      <stop
         offset="0.485254"
         stop-color="#F2AC2F"
         id="stop22" />
      <stop
         offset="0.825857"
         stop-color="#E5B544"
         id="stop23" />
      <stop
         offset="1"
         stop-color="#FDDB50"
         id="stop24" />
    </linearGradient>
    <linearGradient
       id="paint2_linear_29_544"
       x1="41.358501"
       y1="183.55"
       x2="390.69299"
       y2="183.55"
       gradientUnits="userSpaceOnUse">
      <stop
         offset="0.2066"
         stop-color="#EE9322"
         id="stop25" />
      <stop
         offset="0.4014"
         stop-color="#F2AC2F"
         id="stop26" />
      <stop
         offset="0.6663"
         stop-color="#F8CB45"
         id="stop27" />
      <stop
         offset="0.8749"
         stop-color="#FCDE54"
         id="stop28" />
      <stop
         offset="1"
         stop-color="#FEE55A"
         id="stop29" />
    </linearGradient>
    <linearGradient
       id="paint3_linear_29_544"
       x1="306.737"
       y1="334.30499"
       x2="214.57201"
       y2="182.23"
       gradientUnits="userSpaceOnUse">
      <stop
         offset="0.4326"
         stop-color="#B55727"
         id="stop30" />
      <stop
         offset="0.4596"
         stop-color="#BD6829"
         stop-opacity="0.9612"
         id="stop31" />
      <stop
         offset="0.514"
         stop-color="#CB8331"
         stop-opacity="0.8833"
         id="stop32" />
      <stop
         offset="0.5722"
         stop-color="#D89D3A"
         stop-opacity="0.7999"
         id="stop33" />
      <stop
         offset="0.6339"
         stop-color="#E4B442"
         stop-opacity="0.7114"
         id="stop34" />
      <stop
         offset="0.7005"
         stop-color="#EEC749"
         stop-opacity="0.6161"
         id="stop35" />
      <stop
         offset="0.7741"
         stop-color="#F6D54E"
         stop-opacity="0.5105"
         id="stop36" />
      <stop
         offset="0.8605"
         stop-color="#FCDE52"
         stop-opacity="0.3867"
         id="stop37" />
      <stop
         offset="0.9908"
         stop-color="#FEE153"
         stop-opacity="0.2"
         id="stop38" />
    </linearGradient>
    <linearGradient
       id="paint4_linear_29_544"
       x1="216.026"
       y1="313.495"
       x2="216.026"
       y2="182.119"
       gradientUnits="userSpaceOnUse">
      <stop
         stop-color="#B55727"
         stop-opacity="0.7"
         id="stop39" />
      <stop
         offset="0.144"
         stop-color="#BF6C2A"
         stop-opacity="0.6419"
         id="stop40" />
      <stop
         offset="0.5534"
         stop-color="#DCA43C"
         stop-opacity="0.4766"
         id="stop41" />
      <stop
         offset="0.8458"
         stop-color="#F2CE4C"
         stop-opacity="0.3585"
         id="stop42" />
      <stop
         offset="0.9908"
         stop-color="#FEE153"
         stop-opacity="0.3"
         id="stop43" />
    </linearGradient>
    <linearGradient
       id="paint5_linear_29_544"
       x1="65.166901"
       y1="357.52499"
       x2="151.50999"
       y2="9.5119305"
       gradientUnits="userSpaceOnUse">
      <stop
         stop-color="#B55727"
         stop-opacity="0.7"
         id="stop44" />
      <stop
         offset="0.418092"
         stop-color="#BF6C2A"
         stop-opacity="0.6419"
         id="stop45" />
      <stop
         offset="0.8458"
         stop-color="#F2CE4C"
         stop-opacity="0.3585"
         id="stop46" />
      <stop
         offset="0.9908"
         stop-color="#FEE153"
         stop-opacity="0.3"
         id="stop47" />
    </linearGradient>
  </defs>
</svg>
