<?xml version="1.0" encoding="UTF-8" standalone="no"?>
<svg
   version="1.1"
   id="Layer_1"
   x="0px"
   y="0px"
   width="99.573387"
   height="100"
   viewBox="0 0 99.573387 99.999999"
   enable-background="new 0 0 230 216"
   xml:space="preserve"
   inkscape:version="1.4.2 (f4327f4, 2025-05-13)"
   sodipodi:docname="Canal_2_(Las_Estrellas_2017).svg"
   xmlns:inkscape="http://www.inkscape.org/namespaces/inkscape"
   xmlns:sodipodi="http://sodipodi.sourceforge.net/DTD/sodipodi-0.dtd"
   xmlns="http://www.w3.org/2000/svg"
   xmlns:svg="http://www.w3.org/2000/svg"
   xmlns:rdf="http://www.w3.org/1999/02/22-rdf-syntax-ns#"
   xmlns:cc="http://creativecommons.org/ns#"
   xmlns:dc="http://purl.org/dc/elements/1.1/"><style
   id="style852" /><metadata
   id="metadata3043"><rdf:RDF><cc:Work
       rdf:about=""><dc:format>image/svg+xml</dc:format><dc:type
         rdf:resource="http://purl.org/dc/dcmitype/StillImage" /></cc:Work></rdf:RDF></metadata><defs
   id="defs3041" /><sodipodi:namedview
   pagecolor="#ffffff"
   bordercolor="#666666"
   borderopacity="1"
   objecttolerance="10"
   gridtolerance="10"
   guidetolerance="10"
   inkscape:pageopacity="0"
   inkscape:pageshadow="2"
   inkscape:window-width="1920"
   inkscape:window-height="974"
   id="namedview3039"
   showgrid="false"
   fit-margin-top="0"
   fit-margin-left="0"
   fit-margin-right="0"
   fit-margin-bottom="0"
   inkscape:zoom="7.35"
   inkscape:cx="49.795918"
   inkscape:cy="50"
   inkscape:window-x="-11"
   inkscape:window-y="-11"
   inkscape:window-maximized="1"
   inkscape:current-layer="Layer_1"
   inkscape:document-rotation="0"
   inkscape:showpageshadow="2"
   inkscape:pagecheckerboard="0"
   inkscape:deskcolor="#d1d1d1" />



















<g
   id="g3045"
   transform="matrix(0.57806141,0,0,0.57806141,-18.414146,-0.14220311)"><path
     d="m 111.125,101.104 c -0.276,0.476 -0.474,1.314 -0.439,1.863 l 4.365,69.273 c 0.035,0.549 0.273,0.998 0.531,0.998 0.257,0 0.671,0 0.919,0 0.248,0 0.479,-0.449 0.512,-0.998 l 4.212,-69.273 c 0.033,-0.549 -0.159,-1.391 -0.428,-1.871 l -4.259,-7.609 c -0.269,-0.48 -0.714,-0.483 -0.99,-0.008 z"
     id="path3023"
     inkscape:connector-curvature="0"
     style="fill:#4066b0;fill-opacity:1" /><path
     d="m 122.262,90.358 c -0.529,-0.149 -0.848,0.164 -0.706,0.695 l 2.266,8.518 c 0.142,0.531 0.595,1.264 1.007,1.627 l 52.07,45.902 c 0.412,0.363 0.898,0.512 1.08,0.33 0.182,-0.183 0.474,-0.476 0.649,-0.651 0.175,-0.175 0.021,-0.656 -0.344,-1.068 L 132.279,93.744 c -0.365,-0.412 -1.097,-0.871 -1.626,-1.02 z"
     id="path3025"
     inkscape:connector-curvature="0"
     style="fill:#d0d0d0;fill-opacity:1" /><path
     d="m 178.298,23.682 c 0.363,-0.413 0.513,-0.899 0.331,-1.081 -0.182,-0.182 -0.474,-0.475 -0.649,-0.65 -0.176,-0.176 -0.656,-0.021 -1.068,0.344 l -51.964,46.004 c -0.412,0.365 -0.871,1.096 -1.021,1.625 l -2.369,8.394 c -0.149,0.529 0.163,0.847 0.695,0.706 l 8.518,-2.263 c 0.532,-0.141 1.265,-0.594 1.628,-1.007 z"
     id="path3027"
     inkscape:connector-curvature="0"
     style="fill:#e8168f;fill-opacity:1" /><path
     d="m 133.836,80.235 c -0.549,-0.033 -1.391,0.159 -1.87,0.428 l -7.607,4.259 c -0.479,0.269 -0.482,0.715 -0.007,0.991 l 7.621,4.423 c 0.476,0.276 1.314,0.474 1.863,0.439 l 69.275,-4.365 c 0.549,-0.035 0.998,-0.273 0.998,-0.531 0,-0.258 0,-0.671 0,-0.919 0,-0.248 -0.449,-0.479 -0.998,-0.512 z"
     id="path3029"
     inkscape:connector-curvature="0"
     style="fill:#fecc11;fill-opacity:1" /><path
     d="m 120.411,68.609 c 0.276,-0.476 0.474,-1.314 0.439,-1.863 L 116.724,1.244 c -0.034,-0.549 -0.263,-0.998 -0.507,-0.998 -0.244,0 -0.636,0 -0.872,0 -0.236,0 -0.455,0.449 -0.488,0.998 l -3.981,65.502 c -0.033,0.549 0.159,1.391 0.428,1.871 l 3.981,7.114 c 0.269,0.48 0.714,0.483 0.99,0.008 z"
     id="path3031"
     inkscape:connector-curvature="0"
     style="fill:#ed242c;fill-opacity:1" /><path
     d="m 109.449,79.009 c 0.529,0.149 0.847,-0.164 0.706,-0.695 l -2.118,-7.965 c -0.141,-0.531 -0.594,-1.264 -1.007,-1.627 L 57.794,25.321 c -0.413,-0.364 -0.891,-0.52 -1.063,-0.347 -0.172,0.172 -0.449,0.45 -0.615,0.616 -0.166,0.166 -0.003,0.639 0.361,1.051 l 43.5,49.136 c 0.365,0.412 1.096,0.871 1.625,1.02 z"
     id="path3033"
     inkscape:connector-curvature="0"
     style="fill:#8863aa;fill-opacity:1" /><path
     d="m 101.493,92.459 c -0.531,0.141 -1.264,0.594 -1.627,1.007 l -43.402,49.235 c -0.364,0.412 -0.52,0.892 -0.348,1.064 0.172,0.173 0.449,0.45 0.616,0.616 0.167,0.166 0.64,0.004 1.051,-0.361 l 49.134,-43.499 c 0.412,-0.365 0.871,-1.096 1.02,-1.625 l 2.215,-7.847 c 0.149,-0.529 -0.164,-0.847 -0.695,-0.706 z"
     id="path3035"
     inkscape:connector-curvature="0"
     style="fill:#5ac9dd;fill-opacity:1" /><path
     d="m 107.339,86.081 c 0.48,-0.269 0.483,-0.714 0.007,-0.991 l -7.126,-4.133 c -0.476,-0.276 -1.314,-0.474 -1.863,-0.439 l -65.504,4.125 c -0.549,0.035 -0.998,0.262 -0.998,0.506 0,0.244 0,0.636 0,0.871 0,0.235 0.449,0.455 0.998,0.488 l 65.504,3.987 c 0.549,0.033 1.391,-0.16 1.871,-0.428 z"
     id="path3037"
     inkscape:connector-curvature="0"
     style="fill:#42b861;fill-opacity:1" /></g>
</svg>
