<?xml version="1.0" encoding="UTF-8" standalone="no"?>
<!-- Created with Inkscape (http://www.inkscape.org/) -->

<svg
   width="100mm"
   height="30.319145mm"
   viewBox="0 0 100 30.319145"
   version="1.1"
   id="svg8"
   inkscape:version="1.4.2 (f4327f4, 2025-05-13)"
   sodipodi:docname="Logo_Lifetime_2020.svg"
   xmlns:inkscape="http://www.inkscape.org/namespaces/inkscape"
   xmlns:sodipodi="http://sodipodi.sourceforge.net/DTD/sodipodi-0.dtd"
   xmlns="http://www.w3.org/2000/svg"
   xmlns:svg="http://www.w3.org/2000/svg"
   xmlns:rdf="http://www.w3.org/1999/02/22-rdf-syntax-ns#"
   xmlns:cc="http://creativecommons.org/ns#"
   xmlns:dc="http://purl.org/dc/elements/1.1/">
  <defs
     id="defs2" />
  <sodipodi:namedview
     id="base"
     pagecolor="#ffffff"
     bordercolor="#666666"
     borderopacity="1.0"
     inkscape:pageopacity="0.0"
     inkscape:pageshadow="2"
     inkscape:zoom="2.5347083"
     inkscape:cx="188.97638"
     inkscape:cy="57.403054"
     inkscape:document-units="mm"
     inkscape:current-layer="svg8"
     showgrid="false"
     fit-margin-top="0"
     fit-margin-left="0"
     fit-margin-right="0"
     fit-margin-bottom="0"
     inkscape:window-width="1920"
     inkscape:window-height="974"
     inkscape:window-x="-11"
     inkscape:window-y="-11"
     inkscape:window-maximized="1"
     inkscape:showpageshadow="2"
     inkscape:pagecheckerboard="0"
     inkscape:deskcolor="#d1d1d1" />
  <metadata
     id="metadata5">
    <rdf:RDF>
      <cc:Work
         rdf:about="">
        <dc:format>image/svg+xml</dc:format>
        <dc:type
           rdf:resource="http://purl.org/dc/dcmitype/StillImage" />
      </cc:Work>
    </rdf:RDF>
  </metadata>
  <path
     id="path817"
     style="fill:#ffffff;fill-opacity:1;stroke-width:0.0959904"
     d="m 36.606603,0 c -3.578664,0 -6.954766,2.540958 -8.083348,6.973247 l -0.279757,0.869314 -1.591676,0.678169 -0.09645,0.343762 h 1.43732 l -2.662369,11.376862 c -1.437253,6.209022 -2.160608,8.902906 -3.819719,10.020532 v 0.05726 c 4.630078,-0.06687 6.887297,-2.206694 8.170214,-7.384063 L 33.191825,8.854918 h 2.131814 l 0.376203,-0.773522 h -2.353661 l 0.443693,-2.416798 c 0.598052,-3.629892 1.533792,-5.177357 2.662373,-5.177357 0.569114,0 0.877806,0.401162 0.877806,0.993409 0,1.767183 -1.041796,2.579205 -1.977458,2.732041 0.154336,0.659114 0.877847,1.21308 1.909968,1.21308 1.562652,0 2.912957,-1.022086 2.912957,-2.856136 C 40.17552,0.964841 38.584033,4e-6 36.606603,4e-6 Z m 25.812549,0.640069 c -1.63982,0.0191 -2.951695,1.356331 -2.922755,2.980231 0,1.490166 1.128695,2.636465 2.720284,2.636465 h 0.01938 c 1.649466,-0.0096 2.980448,-1.337416 2.980448,-2.970869 0,-1.490166 -1.118831,-2.636248 -2.720067,-2.636248 -0.02894,-0.0096 -0.04835,-0.0096 -0.07729,-0.0096 z m -38.28841,0.0024 c -0.01326,0 -0.0254,0.0024 -0.03505,0.0072 -1.63982,0.01911 -2.951695,1.356334 -2.922755,2.98023 0,1.490166 1.119049,2.636465 2.720284,2.636465 h 0.02896 c 1.649465,-0.0095 2.980515,-1.346994 2.970868,-2.980447 0,-1.490097 -1.118949,-2.636144 -2.720066,-2.636248 h -2.18e-4 c -0.0144,-0.0047 -0.02882,-0.0072 -0.04202,-0.0072 z M 5.4499303,1.738633 v 0.05726 c 0.5980494,0.429858 0.7813604,0.869268 0.7813604,1.547484 0,0.496724 -0.1253876,1.146155 -0.3472449,2.044078 L 2.2572179,19.78286 C 1.7556273,21.82706 1.4083167,22.572237 0,23.374634 v 0.05726 h 14.681264 l 2.343865,-7.259752 h -0.05791 C 13.745454,20.795476 11.488433,22.68689 7.9194146,22.68689 H 7.1380533 L 11.488333,5.397029 c 0.501594,-2.053757 0.848901,-2.798743 2.257214,-3.60114 V 1.738629 Z M 55.522322,2.674565 c -2.006367,3.133168 -4.109198,4.938697 -7.359899,5.769749 l -0.09644,0.401238 h 1.128608 l -2.536973,10.04905 c -0.135044,0.49672 -0.202553,1.002918 -0.221846,1.518745 0,2.015542 1.186571,3.31463 3.443734,3.31463 1.977429,0 3.51105,-0.90732 4.668569,-2.731821 l -0.02896,-0.05748 c -0.598052,0.563591 -1.25402,0.840579 -1.755612,0.840579 -0.752388,0 -1.350237,-0.525253 -1.350237,-1.423172 0,-0.219707 0.02892,-0.439493 0.09645,-0.649644 L 54.229783,8.845548 h 2.816729 L 57.39376,8.071806 H 54.451629 L 55.802083,2.674561 Z M 42.866849,7.73741 c -5.353528,0 -9.453178,5.396967 -9.453178,10.325977 0,3.725415 2.189781,5.674172 5.295792,5.674172 2.720171,0 4.977346,-1.490202 6.289201,-4.499192 h -0.193109 c -1.186457,1.557033 -2.160602,2.235227 -3.568917,2.235227 -1.659112,0 -2.845467,-1.203523 -2.845467,-3.687134 0.0096,-0.592243 0.05768,-1.184457 0.154139,-1.767151 4.379282,-0.191044 8.170214,-1.671787 8.170214,-5.148839 0,-1.83405 -1.28284,-3.13306 -3.848675,-3.13306 z m 53.28448,0 c -5.353527,0 -9.453178,5.396967 -9.453178,10.325977 0,3.725415 2.199277,5.674172 5.285994,5.674172 2.720171,0 4.977345,-1.490202 6.289203,-4.499192 h -0.183311 c -1.186459,1.557033 -2.160606,2.235227 -3.568919,2.235227 -1.659114,0 -2.845467,-1.203523 -2.845467,-3.687134 0.0096,-0.592243 0.05768,-1.184457 0.154138,-1.767151 C 96.20907,15.828265 100,14.347522 100,10.87047 100,9.03642 98.717165,7.73741 96.151329,7.73741 Z M 75.61498,7.76615 c -2.160703,0 -3.597917,1.43266 -4.755436,3.878063 l 0.906761,-3.56282 h -6.173597 v 0.06683 c 0.434069,0.372539 0.627004,0.745039 0.627004,1.299074 0,0.429854 -0.154345,1.022115 -0.376203,2.01556 L 62.834106,23.43189 h 5.073728 l 2.247418,-8.960068 c 0.694512,-2.693761 1.659173,-3.964278 2.633418,-3.964278 0.53053,0 0.752406,0.343935 0.752406,0.869315 -0.0096,0.372543 -0.07714,0.735548 -0.192891,1.088985 l -2.758819,10.975624 h 5.04499 l 2.256998,-9.055641 c 0.684865,-2.607792 1.688127,-3.878283 2.662373,-3.878283 0.491946,0 0.684915,0.305759 0.684915,0.80248 -0.0096,0.391649 -0.07714,0.773702 -0.192891,1.146242 l -1.784567,7.097341 c -0.09646,0.468062 -0.192891,0.897984 -0.192891,1.33739 0,1.643006 0.906625,2.856136 2.970868,2.856136 1.340794,0 2.565983,-0.525397 3.501645,-1.862727 v -0.05726 c -0.231504,0.152836 -0.501627,0.238838 -0.781361,0.248406 -0.530529,0 -0.78136,-0.343935 -0.78136,-0.869315 0,-0.200601 0.03857,-0.401339 0.09645,-0.592387 l 2.015993,-8.004756 c 0.135044,-0.57314 0.2122,-1.155939 0.221847,-1.738632 0,-1.767183 -0.868041,-3.104321 -2.970869,-3.104321 -2.131765,0 -3.636686,1.394564 -4.823143,3.839963 0.03858,-0.210151 0.05784,-0.429941 0.06749,-0.649644 0,-1.795842 -0.906625,-3.190319 -2.970868,-3.190319 z M 19.417324,8.081393 v 0.06683 c 0.472654,0.372539 0.65596,0.745039 0.65596,1.299074 0,0.429854 -0.154362,1.022115 -0.405158,2.01556 l -2.006414,8.09075 c -0.106106,0.439406 -0.163785,0.888431 -0.154139,1.33739 0,1.643006 0.877653,2.856136 2.912958,2.856136 1.35044,0 2.565934,-0.525397 3.540179,-1.862727 v -0.05726 c -0.241149,0.152836 -0.520936,0.238838 -0.810316,0.248406 -0.501591,0 -0.752405,-0.343935 -0.752405,-0.869315 0,-0.200601 0.01933,-0.401339 0.05791,-0.592387 L 25.619658,8.081384 Z m 38.313882,0 v 0.06683 c 0.463007,0.372539 0.65596,0.745039 0.65596,1.299074 0,0.429854 -0.154363,1.022115 -0.405159,2.01556 l -2.006196,8.09075 c -0.106106,0.439406 -0.164002,0.888431 -0.154356,1.33739 0,1.643006 0.877652,2.856136 2.912958,2.856136 1.350439,0 2.565933,-0.525397 3.540179,-1.862727 v -0.05726 c -0.24115,0.152836 -0.520936,0.238838 -0.810316,0.248406 -0.501591,0 -0.752405,-0.343935 -0.752405,-0.869315 0.0096,-0.200601 0.02891,-0.401339 0.06749,-0.592387 L 63.933759,8.081384 Z M 42.616048,8.30106 c 0.405132,0 0.627004,0.372504 0.627004,0.993409 0,2.454952 -1.96794,5.463946 -4.601297,6.266343 0.655928,-3.448397 2.565978,-7.259752 3.974293,-7.259752 z m 53.28448,0 c 0.405132,0 0.627004,0.372504 0.627004,0.993409 0,2.454952 -1.967722,5.463946 -4.601081,6.266343 0.665576,-3.448397 2.575407,-7.259752 3.974077,-7.259752 z" />
</svg>
