<?xml version="1.0" encoding="UTF-8" standalone="no"?>
<svg
   id="Layer_1"
   data-name="Layer 1"
   width="100.00001"
   height="76.189369"
   viewBox="0 0 100.00001 76.189369"
   version="1.1"
   sodipodi:docname="Nickelodeon_2023_logo.svg"
   inkscape:version="1.4.2 (f4327f4, 2025-05-13)"
   xmlns:inkscape="http://www.inkscape.org/namespaces/inkscape"
   xmlns:sodipodi="http://sodipodi.sourceforge.net/DTD/sodipodi-0.dtd"
   xmlns="http://www.w3.org/2000/svg"
   xmlns:svg="http://www.w3.org/2000/svg">
  <sodipodi:namedview
     id="namedview13"
     pagecolor="#ffffff"
     bordercolor="#000000"
     borderopacity="0.25"
     inkscape:showpageshadow="2"
     inkscape:pageopacity="0.0"
     inkscape:pagecheckerboard="0"
     inkscape:deskcolor="#d1d1d1"
     inkscape:zoom="7.35"
     inkscape:cx="50"
     inkscape:cy="36.802721"
     inkscape:window-width="1920"
     inkscape:window-height="974"
     inkscape:window-x="-11"
     inkscape:window-y="-11"
     inkscape:window-maximized="1"
     inkscape:current-layer="Layer_1" />
  <defs
     id="defs1">
    <style
       id="style1">
      .cls-1 {
        fill: #ff6700;
      }

      .cls-2 {
        fill: #fff;
      }
    </style>
  </defs>
  <g
     id="g13"
     transform="matrix(0.05541054,0,0,0.05541054,0,-5.1584984e-5)">
    <path
       id="path1"
       class="cls-1"
       d="M 932.28906,0.16992188 C 874.06906,-2.4200781 818.56938,24.899375 785.10938,72.609375 c -41.46,52.989995 -85.78844,109.220785 -162.64844,121.050785 -81.35,9.83 -146.06102,77.25953 -149.79102,161.76953 -1.72,38.86 12.41961,73.55984 30.34961,104.83984 90.24,157.33 -45.0293,342.00125 -212.7793,361.28125 -65.09,11.18 -114.40101,69.38844 -117.29101,135.14844 -4.16,94.06998 68.76039,173.68058 162.90039,177.81058 52.82,2.34 100.51969,-18.9906 133.42969,-55.3106 142.83,-142.16998 486.02156,-93.31928 511.85156,134.7207 4.78,86.54 74.65934,157.0302 163.27934,160.9102 94.36,4.15 174.2301,-68.8296 178.4101,-163.0196 2.13,-48.28 -25.3904,-102.9707 -57.1504,-134.9707 h -0.029 c -157.305,-158.43491 50.5068,-295.83144 155.25,-308.03902 v 0.01 c 104.73,-13.2 182.3392,-63.50008 188.1192,-157.58008 5.07,-82.91 -51.85,-168.12992 -146.42,-171.16992 -56.53,-1.8 -84.3904,10.13953 -136.2304,52.76953 -41.02,33.69 -108.5401,44.57031 -155.5801,39.57031 -76.26,-8.11 -152.4998,-78.13 -152.7598,-153 -0.14,-40.86 19.5604,-75.30086 37.9004,-99.88086 21.52,-28.85 37.5496,-62.79906 39.2696,-101.53906 C 1099.3395,83.930469 1026.4091,4.2999219 932.28906,0.16992188 Z M 311.93945,284 c -48.02,-0.04 -86.98906,38.84914 -87.03906,86.86914 0.05,48.03 39.01906,86.92109 87.03906,86.87109 48.02,0.04 86.99102,-38.85109 87.04102,-86.87109 -0.05,-48.03 -39.02102,-86.91914 -87.04102,-86.86914 z" />
    <path
       id="path3"
       class="cls-2"
       d="m 836.28906,563.66992 -0.01,0.01 c -18.74,0 -33.93922,15.17015 -33.94922,33.91015 l 0.0898,223.47071 h 67.92969 l -0.0993,-223.51 c 0,-18.73 -15.23094,-33.88086 -33.96094,-33.88086 z m 375.47074,0.041 c -18.77,0 -33.9502,15.1882 -33.9102,33.9082 v 55.41016 c -30.45,-7.59 -62.6591,1.33 -84.8691,23.5 -34.87,34.71 -34.9913,91.12047 -0.2813,125.98047 0.09,0.09 0.1813,0.18929 0.2813,0.27929 10.3,10.31 32.4,26.16016 63.25,26.16016 30.85,0 52.9495,-15.82969 63.2695,-26.17969 16.78,-16.73 26.2205,-39.4389 26.2305,-63.12891 v -0.0703 l 0.029,-0.0312 V 597.58984 c 0,-18.73 -15.23,-33.8789 -34,-33.8789 z M 225.33008,564 c -20.79,-0.07 -37.68977,16.72953 -37.75977,37.51953 v 0.15039 c 0,10.4 4.20883,19.83063 11.04883,26.64063 l 8.35156,8.32031 c 13.92,13.89 14.89992,17.5793 1.66992,30.7793 l -7.56054,7.56054 c -6.46,6.41 -10.08078,15.13852 -10.05078,24.22852 v 121.86133 h 68.63086 V 699.19922 c 0,-9.09 -3.60102,-17.80852 -10.04102,-24.22852 l -7.59961,-7.56054 c -13.23,-13.2 -12.25008,-16.89953 1.66992,-30.76954 l 8.33008,-8.33007 c 6.84,-6.81 11.05078,-16.24063 11.05078,-26.64063 0,-10.4 -4.21078,-19.83062 -11.05078,-26.64062 -7.07,-7.08 -16.67945,-11.0593 -26.68945,-11.0293 z m 361.88086,85.19531 c -12.03662,-0.42394 -23.92461,5.57469 -30.49024,16.66407 l -30.75,54.86132 v -36.56054 c -0.03,-18.73 -15.23093,-33.90063 -33.96093,-33.89063 -18.74,-0.03 -33.95047,15.14086 -33.98047,33.88086 v 0.0195 136.94922 h 67.93164 V 767.4902 l 35.81836,53.58985 h 54.83008 c 6.51999,-0.02 11.81007,-5.30008 11.83007,-11.83008 h 0.0312 l 0.01,-0.01 c -0.01,-2.19 -0.64078,-4.32945 -1.80078,-6.18945 L 589.5,746.92969 615.23047,700.2793 c 9.51,-16.1 4.15859,-36.85914 -11.94141,-46.36914 l -0.0586,-0.0293 c -5.04688,-2.97188 -10.54834,-4.49285 -16.01953,-4.68555 z m 120.86914,1.00391 c -23.71,-0.01 -46.46,9.38086 -63.25,26.13086 l -0.01,0.01 v 0.0195 l -0.16992,0.16992 c -34.78,34.87 -34.70008,91.33156 0.16992,126.10156 16.89,16.85 39.81969,26.26867 63.67969,26.13867 26.57,0 48.56062,-11.83945 63.39062,-26.68945 18.7,-21.42 19.58008,-44.2793 19.58008,-44.2793 h -60.52148 c 0,0 -8.39984,21.08984 -22.83984,21.08984 -6.05001,1e-5 -11.22852,-4.36976 -15.22852,-11.75976 -2.73,-5.11 -4.65156,-11.26023 -5.60156,-18.24024 h 105.43164 c 0,1e-5 7.20843,-42.93046 -21.60156,-71.98046 -16.78,-16.89 -38.12852,-26.70946 -62.97852,-26.68946 z m 635.75002,0 c -23.71,-0.01 -46.46,9.38086 -63.25,26.13086 l 0.02,0.01 v 0.0195 l -0.1699,0.16992 c -34.78,34.87 -34.7001,91.33156 0.1699,126.10156 16.89,16.85 39.8197,26.26867 63.6797,26.13867 26.55,0 48.5411,-11.83945 63.3711,-26.68945 18.71,-21.42 19.5898,-44.2793 19.5898,-44.2793 h -60.5195 c 0,0 -8.4113,21.08984 -22.8613,21.08984 -6.05,1e-5 -11.2085,-4.36976 -15.2285,-11.75976 -2.72,-5.11 -4.6418,-11.26023 -5.5918,-18.24024 h 105.4101 c 0,1e-5 7.2302,-42.93046 -21.5898,-71.98046 -16.78,-16.89 -38.1285,-26.70946 -62.9785,-26.68946 z m -1254.369162,0.0703 c -23.72,-0.01 -46.481485,9.39063 -63.271485,26.14063 v 0.01 C 10.049453,692.45992 0,714.99078 0,739.55078 v 81.5586 h 67.880859 v -80.17969 c 0,-9.76 2.380078,-18.12008 6.330079,-24.58008 4.019999,-6.38 9.178515,-10.15969 15.228515,-10.17969 6.05,0.04 11.240467,3.81969 15.230467,10.17969 3.96,6.46 6.31008,14.82008 6.33008,24.58008 v 80.17969 h 67.92969 v -81.5586 c 0.01,-23.7 -9.40946,-46.42039 -26.18946,-63.15039 -16.79,-16.76 -39.54929,-26.16086 -63.279292,-26.13086 z m 879.728512,0 c -49.35,-0.05 -89.39898,39.91953 -89.45898,89.26953 h -0.0195 c 0.06,49.36 40.11851,89.33149 89.47851,89.27149 49.35002,0.05 89.40092,-39.92149 89.46092,-89.27149 -0.06,-49.35 -40.1109,-89.31953 -89.46092,-89.26953 z m 558.72075,0 c -49.35,-0.05 -89.401,39.91953 -89.461,89.26953 0.06,49.35 40.111,89.32149 89.461,89.27149 49.35,0.05 89.3989,-39.92149 89.4589,-89.27149 -0.06,-49.35 -40.1089,-89.31953 -89.4589,-89.26953 z m 187.33,0 c -23.72,-0.02 -46.4793,9.38086 -63.2793,26.13086 -16.79,16.73 -26.2114,39.45039 -26.1914,63.15039 v 81.5586 h 67.9297 v -80.17969 c 0,-9.76 2.3503,-18.12008 6.3203,-24.58008 4,-6.36 9.1805,-10.13969 15.2305,-10.17969 6.05,0.02 11.2405,3.79969 15.2305,10.17969 3.94,6.46 6.2903,14.82008 6.3203,24.58008 v 80.17969 h 67.9101 v -81.5586 c 0,-24.56 -10.0514,-47.09086 -26.1914,-63.13086 -16.79,-16.76 -39.5495,-26.16062 -63.2695,-26.14062 z m -1356.80075,0.0898 c -23.72,-0.01 -46.47953,9.39062 -63.26953,26.14062 l -0.13086,0.13086 c -34.79,34.87 -34.73914,91.33891 0.13086,126.12891 32.99,32.93 85.72024,35.0296 121.24024,4.84961 C 434.22016,792.62931 445.39,771.219 447.5,748.039 h -67.98047 c -0.68,6.96 -2.66008,13.73071 -5.83008,19.97071 v 0.0293 c -4.01535,7.37148 -9.16803,11.73173 -15.20898,11.76172 h -0.0195 c -6.04197,-0.009 -11.21506,-4.39931 -15.21094,-11.76172 -3.96,-7.46 -6.31055,-17.1382 -6.31055,-28.4082 0,-11.27 2.36055,-20.91063 6.31055,-28.39063 4.01,-7.38 9.18047,-11.72976 15.23047,-11.75976 6.05,0.04 11.20898,4.36976 15.20898,11.75976 3.17,6.24 5.15985,13.02024 5.83985,19.99024 h 67.98047 c -4.42,-45.88 -42.98032,-80.90109 -89.07032,-80.87109 z m 349.64063,48.2207 c 6.12,0.01 11.10914,4.33976 15.36914,12.00976 1.84,3.3 3.49125,9.03985 4.28125,12.83985 l -39.33008,0.0996 v 0.01 h -0.0195 c 1.05,-4.54 2.54875,-8.95922 4.46875,-13.19922 3.04,-6.47 9.18047,-11.73976 15.23047,-11.75976 z m 635.75002,0 c 6.12,0.01 11.1091,4.33976 15.3691,12.00976 1.84,3.3 3.4913,9.03985 4.2813,12.83985 l -39.3301,0.0996 v 0.01 h -0.019 c 1.05,-4.54 2.5487,-8.95922 4.4687,-13.19922 3.03,-6.47 9.1805,-11.73976 15.2305,-11.75976 z m -374.64065,0.74023 c 11.89,0 21.55078,18.00875 21.55078,40.21875 0,22.21 -9.66078,40.22071 -21.55078,40.22071 -11.89,0 -21.54883,-18.01071 -21.54883,-40.22071 0,-22.21 9.65883,-40.21875 21.54883,-40.21875 z m 187.08985,0 c 11.89,0 21.5508,18.00875 21.5508,40.21875 0,22.21 -9.6608,40.22071 -21.5508,40.22071 -11.89,0 -21.5488,-18.01071 -21.5488,-40.22071 0,-22.21 9.6588,-40.21875 21.5488,-40.21875 z m 371.6309,0.01 c 11.89,0 21.5507,18.0107 21.5507,40.2207 0,22.21 -9.6607,40.21875 -21.5507,40.21875 V 779.75 c -11.89,0 -21.5508,-17.99922 -21.5508,-40.19922 0,-22.2 9.6608,-40.2207 21.5508,-40.2207 z" />
  </g>
</svg>
