<?xml version="1.0" encoding="UTF-8" standalone="no"?>
<svg
   width="100pt"
   height="99.926613pt"
   viewBox="0 0 100 99.926613"
   version="1.1"
   id="svg38"
   sodipodi:docname="Paramount_Channel_logo.svg"
   inkscape:version="1.4.2 (f4327f4, 2025-05-13)"
   xmlns:inkscape="http://www.inkscape.org/namespaces/inkscape"
   xmlns:sodipodi="http://sodipodi.sourceforge.net/DTD/sodipodi-0.dtd"
   xmlns="http://www.w3.org/2000/svg"
   xmlns:svg="http://www.w3.org/2000/svg">
  <defs
     id="defs38" />
  <sodipodi:namedview
     id="namedview38"
     pagecolor="#7b7b7b"
     bordercolor="#000000"
     borderopacity="0.25"
     inkscape:showpageshadow="2"
     inkscape:pageopacity="0.0"
     inkscape:pagecheckerboard="0"
     inkscape:deskcolor="#d1d1d1"
     inkscape:document-units="pt"
     inkscape:zoom="5.5165484"
     inkscape:cx="66.708378"
     inkscape:cy="66.617742"
     inkscape:window-width="1920"
     inkscape:window-height="974"
     inkscape:window-x="-11"
     inkscape:window-y="-11"
     inkscape:window-maximized="1"
     inkscape:current-layer="svg38" />
  <path
     id="path4"
     d="m 52.624884,0 c -0.322634,0.76151019 -0.628642,1.5325561 -0.929926,2.3011833 -0.839796,-0.035585 -1.677127,-0.080377 -2.514551,-0.1254501 0.645267,0.5551197 1.295326,1.1054903 1.945338,1.6558652 -0.31789,0.7994672 -0.6407,1.5962977 -0.951473,2.3981373 0.70932,-0.4483659 1.420937,-0.8991086 2.118395,-1.3688253 0.676109,0.5195352 1.321345,1.0771011 1.983218,1.6179869 -0.204018,-0.8397962 -0.431618,-1.6748154 -0.623774,-2.516984 0.716438,-0.4412489 1.423236,-0.8991968 2.101717,-1.3997532 -0.844542,-0.049818 -1.68878,-0.08752 -2.53332,-0.153945 C 53.033096,1.6040032 52.833647,0.79946711 52.624884,0 Z M 43.01218,0.42708463 C 42.841373,1.2336686 42.699271,2.0451086 42.5427,2.8540649 c -0.832679,0.1020085 -1.667792,0.1993803 -2.493353,0.3464633 0.730669,0.4127811 1.463659,0.82079 2.201447,1.2169652 -0.120985,0.8540301 -0.291755,1.7007721 -0.436467,2.55243 0.614428,-0.5859596 1.219496,-1.1788278 1.852902,-1.7434368 0.735416,0.417526 1.473102,0.8276941 2.213261,1.2357307 C 45.522273,5.6698671 45.149766,4.8872054 44.755964,4.116206 45.386996,3.5373633 46.013295,2.9512229 46.604,2.3296788 45.754714,2.4316878 44.907745,2.5408185 44.056087,2.6309662 43.738198,1.8836897 43.396491,1.1435211 43.01218,0.42708463 Z M 62.114225,1.4424964 C 61.675348,2.1423268 61.229224,2.8399239 60.795092,3.5421263 59.974274,3.3286188 59.153484,3.115014 58.332667,2.9086234 c 0.533768,0.6761072 1.076981,1.3449864 1.613122,2.0210935 -0.476833,0.7093195 -0.941871,1.4257837 -1.371258,2.163571 0.78286,-0.3131445 1.563498,-0.6262242 2.346359,-0.9417408 0.519535,0.6689903 1.057987,1.3238812 1.598873,1.9762654 C 62.474695,7.2690377 62.408343,6.412612 62.358523,5.5538373 63.13901,5.2430651 63.917139,4.9299116 64.685766,4.5954163 63.895788,4.3344627 63.091434,4.1303193 62.284849,3.933418 62.227914,3.1031109 62.175904,2.2728036 62.114225,1.4424964 Z M 33.665316,2.6309662 c -0.0119,0.8350516 -0.0094,1.6701174 -0.0094,2.5051691 -0.792349,0.2609536 -1.584753,0.5220512 -2.369987,0.7996108 0.806584,0.294166 1.622721,0.5596278 2.438794,0.8253262 0.0046,0.8540301 0.0025,1.7081298 0.01913,2.5621599 0.48395,-0.6855964 0.965495,-1.3733752 1.449445,-2.0589715 0.804213,0.256209 1.608462,0.509981 2.410302,0.7638176 C 37.119669,7.3235034 36.599867,6.6450331 36.08745,5.961809 36.573773,5.2572341 37.069855,4.5572509 37.549062,3.8479314 36.737732,4.1041404 35.931037,4.3747271 35.122081,4.6475424 34.638131,3.9738072 34.149286,3.3023286 33.665335,2.6309662 Z M 71.169182,4.6760376 C 70.578477,5.2572527 70.023307,5.8715269 69.456326,6.476465 68.680582,6.127736 67.911956,5.7625076 67.143328,5.3995448 c 0.391431,0.7662548 0.797207,1.5231733 1.181519,2.2918004 -0.590704,0.6144274 -1.171904,1.2381261 -1.764981,1.8525532 0.837424,-0.1399664 1.67249,-0.3060319 2.50517,-0.4792103 0.384314,0.7449041 0.780491,1.4825929 1.1909,2.2132639 C 70.398273,10.4429 70.493273,9.6032572 70.602399,8.765833 71.451685,8.5831655 72.300799,8.4145928 73.15483,8.2675098 72.381458,7.8855685 71.607953,7.5036321 70.82272,7.1454137 70.931846,6.3198513 71.060055,5.4992278 71.169182,4.6760376 Z M 24.923461,6.6071274 c 0.158944,0.8231902 0.334529,1.6439801 0.507706,2.4624257 -0.747276,0.4198982 -1.492156,0.8373917 -2.229944,1.2715239 0.858775,0.09489 1.71514,0.206515 2.571543,0.306152 0.173177,0.844541 0.33696,1.688777 0.510137,2.533318 0.358219,-0.771 0.704623,-1.551502 1.055724,-2.327247 0.825564,0.104378 1.650824,0.213512 2.47876,0.301287 C 29.219565,10.561511 28.593312,9.9948266 27.957534,9.4420793 28.299146,8.6497291 28.650446,7.8620078 28.992059,7.0696576 28.235294,7.4753218 27.497456,7.9072018 26.745435,8.3199831 26.15473,7.7316511 25.54026,7.169364 24.923461,6.6071274 Z M 51.490625,8.3630739 C 48.0927,8.2334134 44.678955,8.5141557 41.351796,9.2071655 33.990531,10.730186 27.087119,14.340613 21.602349,19.476657 15.026317,25.582972 10.526121,33.888721 9.0410573,42.742168 7.7125664,50.466396 8.6235365,58.555817 11.655344,65.784234 c 3.183635,-3.86686 6.490573,-7.636374 9.550849,-11.602871 2.087629,-1.859889 4.260569,-3.636889 6.250934,-5.603532 4.367416,-6.163251 8.61147,-12.41915 12.988376,-18.577657 1.515902,-1.402032 2.898961,-2.941397 4.215591,-4.533214 0.640524,-0.785232 1.067363,-1.755622 1.895299,-2.372421 1.281044,-1.010602 2.56699,-2.01404 3.838547,-3.036505 0.735415,0.960785 1.461395,1.926354 2.192066,2.889511 0.529024,0.818444 1.608489,0.815841 2.438796,1.126615 0.393803,1.525391 0.763712,3.055607 1.129048,4.588117 0.192155,1.079399 1.463734,1.449411 1.86228,2.419684 0.531397,1.302396 0.884973,2.676001 1.46856,3.957046 1.012974,1.651125 2.142178,3.233629 3.188365,4.865776 0.448366,0.986878 0.384303,2.118473 0.697447,3.148055 2.766108,1.454223 5.72439,2.554875 8.499989,3.992494 1.959525,3.060274 3.731462,6.246198 5.631679,9.34443 0.614427,0.839796 0.277811,2.023849 0.968152,2.830434 2.557346,3.665212 4.957947,7.432254 7.356349,11.201849 4.329457,-7.451414 6.168,-16.295493 5.283129,-24.859519 C 90.401481,38.29378 87.694658,31.236465 83.377061,25.34603 79.377354,19.849396 74.001739,15.363253 67.871699,12.421593 62.772724,9.9351205 57.153835,8.5791763 51.490625,8.3630739 Z m 23.84689,1.1498966 c 0.232484,0.8255625 0.47668,1.6489055 0.732889,2.4697245 -0.697458,0.488694 -1.397415,0.974892 -2.085383,1.473076 0.837425,0.0095 1.675103,0.0096 2.514901,0.0074 0.256209,0.820817 0.509873,1.64404 0.773197,2.464859 0.265699,-0.823191 0.541045,-1.641609 0.81386,-2.462427 0.854032,-0.0024 1.710275,-2.37e-4 2.566677,-0.0096 -0.673735,-0.514963 -1.357042,-1.015376 -2.042639,-1.51356 0.265699,-0.789978 0.54827,-1.572714 0.804478,-2.3626918 C 78.727526,10.049407 78.049023,10.530712 77.375288,11.019407 76.699181,10.511733 76.02074,10.006409 75.337515,9.5129705 Z M 21.182216,11.85933 c -0.647641,0.540885 -1.290389,1.091421 -1.923794,1.648915 -0.706947,-0.445994 -1.413834,-0.887312 -2.132643,-1.3167 0.301283,0.775744 0.6216,1.541818 0.946607,2.3057 -0.635778,0.548004 -1.278739,1.086559 -1.905028,1.644051 0.858774,-0.03559 1.719778,-0.08778 2.580927,-0.123372 0.294165,0.780489 0.609798,1.551428 0.949037,2.310567 0.225369,-0.80184 0.407852,-1.617798 0.58103,-2.431499 0.846914,-0.05694 1.696361,-0.108993 2.538529,-0.213369 -0.735414,-0.434131 -1.461335,-0.880375 -2.189634,-1.323996 0.194529,-0.83268 0.377046,-1.665252 0.554969,-2.500304 z m 61.402531,3.252307 c 0.06644,0.846913 0.146984,1.693928 0.256111,2.536096 -0.780488,0.355847 -1.565689,0.699952 -2.339061,1.072403 0.820819,0.175552 1.64416,0.339258 2.469723,0.493458 0.106756,0.830307 0.180347,1.6627 0.289473,2.493008 0.441249,-0.723555 0.851612,-1.465989 1.257275,-2.213265 0.844541,0.175551 1.693884,0.339365 2.547914,0.484076 -0.588331,-0.62629 -1.167255,-1.257434 -1.741352,-1.893212 0.424641,-0.711692 0.83747,-1.427914 1.233646,-2.153842 -0.759138,0.334496 -1.515861,0.678319 -2.270255,1.019931 -0.562236,-0.6168 -1.124632,-1.236088 -1.703474,-1.838653 z M 14.447553,18.02026 c -0.538514,0.6595 -1.065393,1.325919 -1.59679,1.990165 -0.773372,-0.298911 -1.546637,-0.59782 -2.322381,-0.889614 0.450738,0.706946 0.908538,1.411674 1.366393,2.113877 -0.531397,0.642896 -1.05095,1.295219 -1.560996,1.95472 0.832679,-0.201646 1.662987,-0.417395 2.490922,-0.63802 0.450737,0.711691 0.913522,1.418399 1.376122,2.125345 0.06169,-0.839795 0.07813,-1.679272 0.144565,-2.51907 0.811327,-0.215879 1.620396,-0.439182 2.426981,-0.669294 -0.780491,-0.313147 -1.568319,-0.611997 -2.363041,-0.887184 -0.0071,-0.861147 -0.002,-1.72215 0.03822,-2.580925 z m 74.186574,3.957048 c -0.07118,0.849285 -0.147094,1.698568 -0.24673,2.54548 -0.830306,0.187412 -1.655976,0.379324 -2.481539,0.578599 0.771,0.336865 1.551624,0.65026 2.332112,0.968149 -0.06169,0.842168 -0.125627,1.686632 -0.187305,2.5288 0.557492,-0.63815 1.107742,-1.283571 1.651,-1.935956 0.799467,0.310773 1.596644,0.635835 2.398484,0.946608 -0.431759,-0.737788 -0.875403,-1.46365 -1.328513,-2.187202 0.543258,-0.619173 1.093645,-1.231369 1.615553,-1.867148 -0.806585,0.168435 -1.6084,0.3561 -2.407866,0.557746 -0.436505,-0.718808 -0.870735,-1.439991 -1.345196,-2.135076 z M 8.9743363,25.357844 C 8.5900237,26.11461 8.1988423,26.866636 7.807412,27.616285 6.9723602,27.47632 6.1324577,27.355284 5.3258733,27.094329 5.79559,27.817882 6.5262005,28.332711 7.1026709,28.970861 6.7207293,29.725254 6.3198324,30.472535 5.9402634,31.229301 6.7207528,30.878202 7.486947,30.500902 8.2508301,30.116588 8.8533956,30.721526 9.4609462,31.324147 10.039789,31.952807 9.9354123,31.120128 9.8071226,30.289762 9.6766463,29.459454 10.435783,29.082258 11.195,28.705053 11.951765,28.323111 11.107225,28.173655 10.26021,28.038532 9.4156689,27.889076 9.2733315,27.044535 9.1451428,26.197642 8.9743363,25.357844 Z m 84.3191497,4.483519 c -0.253836,0.818445 -0.488937,1.641728 -0.721423,2.467291 -0.837425,0.05219 -1.674635,0.05931 -2.509686,0.123357 0.671361,0.479206 1.364113,0.932397 2.054455,1.385508 -0.222997,0.811328 -0.45783,1.620167 -0.683198,2.431498 0.687967,-0.519536 1.35455,-1.065213 2.037774,-1.589494 0.716437,0.476835 1.442223,0.941898 2.17052,1.399754 C 95.3359,35.25981 95.029907,34.4602 94.726251,33.65836 c 0.647641,-0.512417 1.30232,-1.01274 1.94047,-1.537019 -0.830306,0.02136 -1.65812,0.05931 -2.486055,0.0688 -0.287049,-0.787605 -0.576409,-1.570676 -0.88718,-2.348792 z M 5.0245863,33.637168 c -0.2609541,0.792351 -0.4980787,1.591783 -0.7210751,2.393622 -0.8279343,0.07355 -1.6581811,0.08283 -2.4884879,0.08758 0.6761066,0.472088 1.3566347,0.937091 2.0398575,1.397319 -0.2467187,0.811328 -0.4884069,1.622723 -0.7137757,2.438796 0.6974581,-0.495811 1.3828644,-1.010592 2.0589712,-1.532499 0.7045756,0.488694 1.4115691,0.975105 2.1232609,1.454311 C 7.0410319,39.074457 6.7467277,38.277216 6.4691674,37.475377 7.142903,36.972449 7.8145018,36.467124 8.4906086,35.96894 7.6365779,35.971319 6.7825383,35.964419 5.9308815,36.01898 5.6295974,35.224257 5.3329851,34.429526 5.0245863,33.637175 Z m 45.4843357,2.222647 c -0.08541,0.374825 -0.144695,0.766506 -0.04031,1.146076 0.37957,1.77923 1.326087,3.413545 1.449447,5.247338 0.01421,0.462599 0.04029,0.972889 -0.220667,1.378554 -0.301284,0.545629 -0.882723,1.050603 -0.707173,1.738572 0.614429,2.301137 1.288376,4.588211 1.938388,6.877486 0.213508,0.880126 0.816011,1.575193 1.243027,2.35331 0.374823,0.818445 1.534998,0.583747 2.016576,1.293066 0.389058,0.600195 0.60501,1.29034 0.906294,1.935608 1.874122,4.037665 3.778811,8.061129 5.709868,12.0727 0.275187,0.671361 0.93469,1.029493 1.601307,1.214531 -0.60731,-1.537253 -1.544144,-2.972271 -1.783746,-4.630512 0.139965,-0.519536 0.626056,-0.998882 0.41492,-1.565863 -0.322633,-1.333236 -1.209867,-2.405578 -1.888346,-3.56089 -0.614428,-1.565723 -1.022293,-3.207146 -1.484894,-4.822685 0.291795,-0.448366 0.709092,-0.870636 0.77077,-1.423383 -0.05457,-1.043815 -0.592763,-1.964419 -1.041128,-2.88013 -1.053304,-2.03781 -2.163796,-4.042375 -3.22659,-6.075443 -1.380682,-2.628515 -2.922687,-5.174195 -4.215593,-7.850155 -0.427015,-0.846914 -0.785021,-1.745977 -1.442148,-2.44818 z m -6.481331,2.40092 c -1.347469,0.984507 -1.904836,2.711516 -3.252306,3.707885 -1.257322,0.844542 -1.826828,2.312911 -2.647647,3.527531 -0.709319,1.2763 -1.765024,2.343797 -2.341494,3.693639 -0.17555,0.405664 0.415235,0.790209 0.140052,1.186384 -1.008231,1.731784 -1.82417,3.584404 -2.293887,5.536812 -0.673735,1.788718 -1.952418,3.323533 -2.381805,5.21189 0.79235,-0.63815 1.276061,-1.551474 1.947424,-2.298751 0.507673,-0.583587 1.269369,-0.95343 1.554046,-1.71494 0.410408,-0.970273 1.345152,-1.568322 1.836218,-2.486405 0.327379,-0.54563 0.535971,-1.167228 0.951125,-1.658296 0.431759,-0.360591 1.060498,-0.462429 1.385505,-0.951124 0.697458,-1.017719 1.103215,-2.201602 1.755599,-3.247789 0.469716,-0.789979 1.107637,-1.520425 1.304538,-2.44088 0.23723,-1.157686 0.07845,-2.360751 0.348895,-3.516063 0.265699,-1.245461 0.934683,-2.343649 1.477943,-3.482356 0.168432,-0.334495 0.239523,-0.690341 0.2158,-1.067537 z m 52.228727,0.443763 c -0.393802,0.676107 -0.709137,1.392441 -1.060239,2.089899 -0.854029,-0.128102 -1.703326,-0.275275 -2.559727,-0.386774 0.583586,0.60494 1.207411,1.16733 1.802861,1.758035 -0.374826,0.761509 -0.756643,1.515873 -1.117233,2.284501 0.756766,-0.393802 1.513322,-0.785331 2.277204,-1.167273 0.619172,0.583589 1.233792,1.171891 1.855337,1.750734 -0.132848,-0.835052 -0.270622,-1.667624 -0.417704,-2.500303 0.740159,-0.40092 1.494724,-0.775707 2.25149,-1.148158 -0.835052,-0.144711 -1.677415,-0.254106 -2.512466,-0.394071 -0.201645,-0.733043 -0.0593,-1.70063 -0.519523,-2.28659 z M 2.6997725,42.509686 C 2.6167484,43.344739 2.5312228,44.181949 2.4624267,45.019372 1.6416085,45.194923 0.81844563,45.363357 0,45.553141 c 0.76625424,0.334495 1.5349278,0.668936 2.3011836,1.010548 -0.068804,0.839797 -0.1590009,1.677188 -0.2349146,2.516983 0.5907041,-0.62866 1.1650012,-1.273825 1.7462167,-1.911976 0.7804895,0.358218 1.5607783,0.709426 2.3460113,1.058155 C 5.7385993,47.486692 5.3068579,46.75364 4.8727263,46.022969 5.4325906,45.396682 5.9971485,44.77758 6.5404065,44.137056 5.7053545,44.30549 4.8752146,44.492734 4.0425352,44.677775 3.6060312,43.947104 3.1694891,43.219006 2.6997725,42.509686 Z M 59.269888,42.78248 c 0.275189,1.053305 1.041408,1.864618 1.504006,2.832519 1.371194,2.80881 2.618814,5.676817 4.110993,8.426319 1.264441,2.308254 2.291895,4.83463 4.225326,6.687401 0.735413,0.778116 1.999772,0.533987 2.70672,1.350061 1.75076,1.724666 3.283138,3.655486 4.962731,5.451322 1.043814,1.100749 1.52777,2.685525 2.792209,3.575141 -0.218252,-1.043815 -0.777913,-1.964165 -1.333032,-2.856153 -1.029581,-1.620285 -1.90499,-3.328345 -2.875265,-4.981842 -0.787604,-1.411522 -1.803136,-2.690398 -2.443659,-4.182577 -1.660614,-1.888358 -3.745853,-3.378183 -5.377999,-5.297379 -0.631034,-0.583587 -0.08548,-1.506108 -0.495892,-2.17747 -1.885985,-2.723408 -4.521583,-4.82545 -6.431289,-7.534623 -0.391431,-0.48395 -0.67823,-1.143264 -1.344849,-1.292719 z m 38.452558,4.822685 c -0.550376,0.661873 -1.079293,1.340527 -1.61069,2.019008 -0.801839,-0.298912 -1.606269,-0.590964 -2.417597,-0.859033 0.476832,0.69034 0.953681,1.378299 1.437631,2.066269 -0.519535,0.676107 -1.04604,1.349851 -1.567946,2.025959 0.832679,-0.246721 1.665312,-0.495827 2.502738,-0.725941 0.479204,0.702204 0.967942,1.399967 1.466126,2.092681 0.0024,-0.856404 0.04252,-1.710563 0.101819,-2.564595 C 98.424505,51.438889 99.214766,51.2158 100,50.971452 c -0.775743,-0.279931 -1.551503,-0.555003 -2.327247,-0.83019 -0.0046,-0.844541 0.01649,-1.691557 0.0497,-2.536097 z m -66.123398,1.817106 c -0.960785,0.265699 -1.551386,1.112918 -2.267823,1.736833 -0.944179,0.948923 -1.992756,1.797999 -2.806458,2.865535 -1.76974,2.298764 -3.330656,4.749244 -5.157331,7.002937 -0.830308,1.03907 -1.895645,1.931086 -2.429414,3.176548 0.479206,-0.265698 0.880125,-0.645193 1.245461,-1.050856 1.722294,-1.923941 3.461484,-3.838184 5.103121,-5.835668 0.578843,-0.816073 1.750527,-0.896911 2.24871,-1.786525 1.364077,-2.028322 2.868091,-3.973729 4.063734,-6.108804 z M 2.1635706,51.706775 c 0.045078,0.827936 0.1186852,1.656037 0.1946036,2.48397 -0.7567656,0.31789 -1.51132991,0.635936 -2.25149066,0.99178 0.79946828,0.187413 1.60157116,0.360592 2.40578316,0.53377 0.085412,0.839796 0.1683226,1.679335 0.2418638,2.521502 0.4602279,-0.723552 0.9036592,-1.456591 1.3472809,-2.189633 0.8279343,0.180295 1.6512304,0.379823 2.4815373,0.557746 -0.5313953,-0.652385 -1.091255,-1.278676 -1.6558642,-1.902593 0.4459941,-0.72118 0.8800143,-1.447208 1.3094023,-2.18025 -0.7947233,0.32975 -1.5823245,0.676065 -2.3675575,1.024794 -0.5598641,-0.623918 -1.117227,-1.245638 -1.7055587,-1.841086 z m 95.1224094,5.06976 c -0.65713,0.557492 -1.312069,1.115174 -1.964452,1.677411 -0.735415,-0.441249 -1.468192,-0.88967 -2.220213,-1.30245 0.339238,0.773372 0.680584,1.544429 1.029313,2.315429 -0.635782,0.562237 -1.283136,1.107544 -1.90468,1.684015 0.851658,-0.08065 1.703264,-0.175514 2.557294,-0.258547 0.343983,0.782862 0.690086,1.565873 1.043561,2.346361 0.213507,-0.823189 0.391457,-1.658242 0.562262,-2.490921 0.82319,-0.05694 1.646413,-0.118558 2.464858,-0.230049 -0.706946,-0.438877 -1.425814,-0.854239 -2.137505,-1.281254 0.213507,-0.813703 0.396383,-1.636804 0.569562,-2.459995 z M 3.3377927,60.750264 c 0.2396026,0.825564 0.4935459,1.646141 0.70231,2.481193 -0.7022032,0.455483 -1.4022183,0.91574 -2.0878151,1.397319 0.8397955,0.02136 1.6820529,0.01657 2.5218499,0.04031 0.2585815,0.801839 0.4886618,1.610954 0.7377546,2.415165 0.3131439,-0.789977 0.6002529,-1.589574 0.8920469,-2.386671 0.8540307,0 1.7105628,0.03796 2.5645921,0.0688 C 8.0232645,64.234983 7.3566186,63.732124 6.682883,63.236311 6.9556982,62.436845 7.2499293,61.644592 7.5203719,60.845125 6.8086801,61.312469 6.1062647,61.798805 5.4040615,62.282755 4.7184662,61.767964 4.0328782,61.250812 3.3377927,60.750255 Z m 87.5950843,4.514449 c 0.189784,0.818446 0.374732,1.639176 0.557399,2.459994 -0.728297,0.417525 -1.454023,0.837449 -2.168088,1.273953 0.842168,0.08777 1.681828,0.177813 2.526369,0.241864 0.21588,0.837425 0.400988,1.682115 0.605006,2.524284 0.341612,-0.780489 0.680751,-1.558573 1.022362,-2.33906 0.830307,0.07116 1.660615,0.161323 2.490922,0.246726 -0.621544,-0.566981 -1.257073,-1.117318 -1.878618,-1.681927 0.358218,-0.756765 0.692611,-1.525607 1.022362,-2.294233 -0.759137,0.403291 -1.501719,0.830548 -2.246624,1.255191 -0.633404,-0.574098 -1.269217,-1.148278 -1.93109,-1.686792 z m -74.449288,4.461973 c -2.677416,0.08015 -5.343597,0.733354 -7.7677961,1.860199 -2.6237707,1.245461 -5.0505523,3.368762 -5.8405305,6.25823 -0.3938027,1.546744 -0.5193581,3.297405 0.2397799,4.758745 0.7923492,1.485064 2.4004625,2.355793 4.0112588,2.645214 1.9025888,0.405663 4.0948639,-0.05942 5.4304729,-1.537365 0.657128,-0.678481 0.813549,-1.776801 0.377044,-2.611852 -0.351101,-0.668991 -1.451699,-0.624009 -1.800428,0.02362 -0.645268,0.896732 0.436329,2.092323 -0.417702,2.913142 -1.2786737,1.397287 -3.7386707,1.05563 -4.8963566,-0.344032 -1.3617035,-1.620284 -1.4137968,-4.025498 -0.6119574,-5.913854 1.4471075,-3.620139 4.922479,-6.142063 8.661233,-6.986604 2.377051,-0.512417 4.9556,-0.744889 7.261481,0.192171 1.710434,0.668991 3.20998,2.08769 3.636996,3.916737 0.989251,3.672331 -2.339095,7.577227 -6.049381,7.612811 0.476834,-2.106607 1.15043,-4.182417 2.170521,-6.092124 0.419899,-0.797095 0.998849,-1.496911 1.414002,-2.298751 -0.158945,0.01898 -0.474499,0.05927 -0.631071,0.08063 -1.686709,1.001112 -2.97027,2.550039 -4.002224,4.194048 -1.983247,3.188378 -3.081658,6.813442 -4.777857,10.148904 -0.846912,1.594191 -1.847906,3.197767 -3.3756707,4.224976 C 7.6721219,94.026473 5.1501461,94.211488 3.1289422,93.2768 2.2938903,92.909092 1.6583261,92.06703 1.6867936,91.132341 1.6061276,90.525031 2.1874425,90.202462 2.5527778,89.834755 2.9940269,89.488398 3.0767742,88.819324 2.8561504,88.325885 2.5667289,87.502694 1.3594057,87.135108 0.72837276,87.79698 c -0.86114833,0.865891 -0.73054612,2.241653 -0.40553953,3.31868 0.4863229,1.667731 2.03291717,2.83503 3.70302107,3.152919 3.2619213,0.640524 6.7039647,-0.412756 9.3135017,-2.407865 2.711546,-2.052046 4.448246,-5.202729 5.098258,-8.509724 3.119582,-0.54563 6.599635,-1.451872 8.535437,-4.17528 1.058048,-1.606051 1.065412,-3.850231 -0.04483,-5.43256 -1.288162,-1.909706 -3.48755,-2.967483 -5.662955,-3.520232 -1.564832,-0.386091 -3.175228,-0.544332 -4.781678,-0.496238 z m 74.783938,6.341632 c -0.763884,-0.0046 -1.530352,-0.0051 -2.294233,0.01391 -0.500557,1.152941 -1.031987,2.294242 -1.575245,3.430576 -0.39143,0.0071 -0.782731,0.01669 -1.171789,0.03093 -0.09015,0.227742 -0.180212,0.4576 -0.27036,0.687714 h 1.10055 c -0.398546,0.922827 -0.825622,1.833981 -1.247891,2.744947 -0.590705,1.421012 -1.430354,2.962927 -2.991332,3.472974 -0.279932,-0.291793 -0.130357,-0.685422 0.0049,-1.005683 0.650013,-1.463712 1.387766,-2.892178 1.983215,-4.379613 0.294167,-0.657129 0.0354,-1.686456 -0.787796,-1.755253 -1.262066,-0.149454 -2.350883,0.652268 -3.309295,1.363959 0.168433,-0.365333 0.329829,-0.733069 0.49589,-1.09603 -0.778116,-0.0046 -1.553936,-0.0071 -2.32968,0.02362 -0.548004,1.188524 -1.060509,2.393957 -1.632234,3.570622 -0.699832,1.155312 -1.594142,2.217817 -2.680659,3.026773 -0.251464,0.239602 -0.595509,0.111597 -0.892046,0.09974 0.891986,-2.29402 2.002534,-4.497966 2.927733,-6.777753 -0.742531,-0.0024 -1.485326,1.23e-4 -2.227859,0.0049 -0.75202,1.622657 -1.480104,3.264153 -2.331762,4.839365 -0.631033,0.929944 -1.354578,2.082852 -2.600038,2.161138 0.116238,-0.929943 0.580922,-1.750691 0.946258,-2.597605 0.654756,-1.494553 1.319242,-2.984162 1.966881,-4.481088 h -2.158706 c -0.419898,1.167175 -1.378615,2.554752 -2.804371,2.262958 -0.156573,-0.816074 -0.308126,-1.790808 -1.08387,-2.260526 -1.252576,-0.628661 -2.780361,-0.227893 -3.873994,0.554969 -1.292907,1.012974 -2.469658,2.327333 -2.877696,3.95948 -0.24909,1.221738 -1.219222,2.301045 -2.403003,2.692475 0.336868,-1.456596 1.162287,-2.735356 1.691312,-4.123157 0.36059,-1.008229 1.221743,-2.049555 0.657133,-3.143189 -1.373564,-0.676106 -2.811249,0.21334 -3.86218,1.074487 -0.111491,-0.576471 -0.353339,-1.297688 -1.048424,-1.342762 -1.205132,-0.05219 -2.187535,0.790062 -3.062916,1.50887 0.222998,-0.427014 0.441314,-0.858817 0.659565,-1.288204 -0.740159,-0.0046 -1.480055,-0.0046 -2.220214,0 -0.880126,1.848025 -1.475689,3.900155 -2.906189,5.423174 -0.597822,0.633406 -1.300211,1.397243 -2.265741,1.257277 0.835052,-2.28453 2.002357,-4.431218 2.920441,-6.682536 -2.101863,-1.036697 -4.649571,-0.273078 -6.371866,1.152677 -0.602565,0.441248 -1.16004,1.188617 -1.997464,1.043908 0.211135,-0.797097 0.716144,-1.475701 0.946258,-2.263307 -0.0119,-0.502928 -0.678271,-0.533492 -1.031744,-0.372176 -0.794723,0.381942 -1.409228,1.031862 -2.097197,1.570377 0.189784,-0.398549 0.381985,-0.792581 0.576513,-1.186384 -0.71881,-0.0024 -1.439897,-0.0021 -2.158706,-0.0045 -0.88487,1.826677 -1.518546,3.821587 -2.884995,5.370703 -0.552746,0.602565 -1.174099,1.295288 -2.05897,1.314266 0.03322,-0.410409 0.08282,-0.822967 0.265494,-1.19542 0.816075,-1.833791 1.651262,-3.660394 2.455475,-5.49893 -1.489808,-0.635779 -3.245382,-0.586288 -4.697236,0.13727 -1.764994,0.908593 -3.330536,2.287162 -4.262852,4.061647 -0.495812,0.963155 -0.915659,2.090034 -0.600141,3.176551 0.139964,0.612055 0.718585,1.150446 1.373342,1.062672 1.228854,-0.166062 2.251479,-0.951231 3.072298,-1.831358 0.0024,0.697458 0.06646,1.736305 0.986917,1.78375 1.383054,-0.02372 2.42425,-1.086414 3.425363,-1.911977 -0.284677,0.585961 -0.552676,1.178976 -0.818375,1.776795 0.754395,0.0024 1.50648,0.0025 2.260873,0.0025 0.647638,-1.442363 1.288254,-2.88936 1.93352,-4.334095 0.272815,-0.638151 0.706744,-1.179133 1.155111,-1.701041 0.17555,0.367708 0.194796,0.8708 0.571993,1.115147 0.393803,0.284677 0.915594,0.125613 1.36396,0.173058 -0.500556,0.932316 -1.074867,1.871667 -1.226693,2.939205 -0.123357,0.934688 0.467559,2.118668 1.52798,2.102062 1.271557,-0.147082 2.29886,-1.029752 3.178985,-1.895644 -0.07591,0.633407 -0.102009,1.610901 0.711692,1.769845 1.530137,0.158944 2.697213,-1.093799 3.814568,-1.950202 -0.31077,0.623917 -0.595479,1.264566 -0.86355,1.90746 0.742532,0.0046 1.484981,0.0049 2.227512,0.0049 0.685597,-1.466085 1.328439,-2.95129 2.023525,-4.412631 0.583589,-1.122099 1.283437,-2.400802 2.628535,-2.697339 0.04508,0.744903 -0.358151,1.397446 -0.640454,2.05932 -0.742531,1.679593 -1.494575,3.356701 -2.218127,5.045782 0.754393,0.0046 1.506478,0.0045 2.260871,0.0069 0.704575,-1.648755 1.468587,-3.271161 2.208749,-4.90331 0.585959,-1.041441 1.382932,-2.201629 2.663977,-2.386668 -0.476832,1.461339 -1.171933,2.839624 -1.793477,4.241657 -0.365336,0.818445 -0.967892,1.696214 -0.642885,2.628531 0.166061,0.524279 0.737632,0.804319 1.266657,0.702309 1.321375,-0.135221 2.28461,-1.145907 3.164737,-2.042637 0.199273,0.588331 0.30837,1.29778 0.861119,1.674978 1.031952,0.706946 2.443572,0.521655 3.480269,-0.07855 1.895473,-1.022465 3.100619,-2.993572 3.572707,-5.052733 0.495814,-0.01661 0.991514,-0.04998 1.487325,-0.102163 -0.483951,1.214621 -1.088712,2.3793 -1.539452,3.608154 -0.291793,0.768628 -0.0854,1.926609 0.889616,2.023875 1.375938,0.09488 2.498039,-0.963331 3.380536,-1.895647 -0.149456,0.768628 0.07578,2.03316 1.102982,1.933522 1.35696,-0.163689 2.381983,-1.224323 3.333278,-2.11631 -0.308399,0.659502 -0.600193,1.328475 -0.889615,1.997465 0.744904,0.0024 1.489557,0.0026 2.234461,-0.0021 0.98688,-1.776858 1.592035,-3.760308 2.773444,-5.428041 0.619171,-0.780487 1.300005,-1.684407 2.353308,-1.850467 -0.360591,2.059161 -1.679579,3.805443 -2.298749,5.786318 -0.19453,0.62629 0.04037,1.544251 0.808993,1.596441 1.394916,0.151828 2.490865,-0.910896 3.501467,-1.707992 0.04745,0.64764 -0.007,1.352247 0.344031,1.93109 0.445996,0.761512 1.444464,1.098369 2.274771,0.820809 1.698572,-0.457854 3.077104,-1.81738 3.786425,-3.402081 -0.18504,0.0261 -0.553001,0.07363 -0.735669,0.09974 -0.652383,0.730671 -1.152891,1.63204 -2.023528,2.144459 -0.505301,0.301283 -1.219234,0.740447 -1.705557,0.175838 -0.173179,-0.818447 0.17087,-1.62282 0.481642,-2.360607 0.811329,-1.838537 1.653478,-3.662738 2.531232,-5.470436 0.536142,0.0024 1.077042,0.0025 1.615554,0.0025 0.102008,-0.237231 0.206289,-0.472315 0.31067,-0.707174 -0.540884,-0.0024 -1.079472,-0.007 -1.617986,-0.0119 0.517163,-1.145824 1.03693,-2.291478 1.542231,-3.442046 z m -60.358626,3.425365 c -0.692714,1.653498 -1.390412,3.32609 -2.322727,4.863345 -0.467344,0.671362 -0.991338,1.397157 -1.781316,1.705558 -0.524279,0.196901 -0.870757,-0.410444 -0.716557,-0.863554 0.265698,-1.34747 1.107825,-2.486008 1.914407,-3.565407 0.723555,-0.979763 1.670222,-1.888476 2.906193,-2.139942 z m 14.378399,0.04519 c -0.742532,1.648753 -1.401909,3.354583 -2.362693,4.891837 -0.507673,0.794723 -1.188649,1.491996 -2.08538,1.82649 -0.147083,-0.263324 -0.481562,-0.488578 -0.396158,-0.830191 0.106755,-1.133962 0.773389,-2.111366 1.383072,-3.038938 0.856404,-1.233598 1.89781,-2.547916 3.461159,-2.849198 z m 19.642416,0.231786 c 0.184294,-0.0014 0.352748,0.08545 0.470176,0.31623 0.182667,1.439991 -0.61706,2.782839 -1.214881,4.042534 -0.733044,1.262067 -1.333126,2.791988 -2.732785,3.453861 -0.835052,-0.619172 -0.457749,-1.741281 -0.187306,-2.559728 0.635778,-1.679592 1.473157,-3.330532 2.680661,-4.673257 0.222623,-0.253764 0.632299,-0.577144 0.984135,-0.57964 z M 21.797299,91.605311 c -0.904442,0.03825 -1.792819,0.432121 -2.334891,1.171095 -0.614428,0.820818 -0.547818,1.911999 -0.581029,2.884645 0.01898,0.996369 -0.04268,2.078024 0.493458,2.965266 0.993996,1.549113 3.44695,1.729573 4.735112,0.458013 0.474461,-0.47209 0.671169,-1.126755 0.86807,-1.7483 -0.557492,-0.01898 -1.117485,-0.02635 -1.674977,-0.02397 -0.244347,0.417526 -0.450547,0.982316 -0.991433,1.074836 -0.645267,0.180295 -1.463607,-0.151907 -1.610689,-0.851737 -0.222997,-1.074654 -0.154424,-2.201583 -0.05004,-3.288099 0.01898,-0.728297 0.752109,-1.262017 1.454312,-1.133911 0.63815,0.0046 0.956165,0.612155 1.195767,1.112712 0.557493,0.0024 1.11714,-0.0025 1.67463,-0.01913 -0.175551,-0.574098 -0.336727,-1.183703 -0.747135,-1.639187 -0.606124,-0.683222 -1.526711,-1.000494 -2.431152,-0.962241 z m 18.024429,0.06324 c -0.991624,2.732897 -1.985865,5.463316 -2.97986,8.193839 0.583587,0.0024 1.165059,0.0025 1.748648,0.0049 0.163688,-0.49344 0.327337,-0.98479 0.491027,-1.475857 0.932315,0 1.861977,0.0026 2.794294,-0.0021 0.163689,0.491066 0.329828,0.986588 0.49589,1.480026 0.578842,-0.0046 1.160136,-0.0068 1.741351,-0.01391 -0.982135,-2.721036 -2.011887,-5.425556 -2.963181,-8.160825 -0.443622,-0.01421 -0.88692,-0.02132 -1.328169,-0.02606 z m -11.731099,0.0025 c 0.0024,2.732895 0.0024,5.465747 0,8.196271 0.559864,-0.0024 1.119631,-0.0024 1.679495,0 v -3.378463 c 0.882499,0.0071 1.762717,0.0071 2.645216,0.0025 -0.0046,1.124473 -0.0025,2.249174 -0.0049,3.37602 0.562236,-0.0024 1.126989,-0.0024 1.689226,0 -0.0024,-2.732898 -0.0024,-5.463664 0,-8.194188 H 32.41044 c 0.0024,1.107867 6.1e-5,2.216025 0.0025,3.323893 -0.882499,-0.0024 -1.762657,-0.0024 -2.642783,0 0,-1.107868 -0.0024,-2.213592 0,-3.321459 -0.559865,-0.0024 -1.11963,-0.0021 -1.679494,-0.0045 z m 18.791027,0.0021 c 0.0024,2.730524 0.0024,5.461229 0,8.191753 0.562238,0 1.124211,6.2e-5 1.686446,0.0025 0,-1.620284 0.005,-3.238193 -0.0021,-4.858478 1.022463,1.62503 2.087362,3.226152 3.109827,4.851182 0.48395,0.0024 0.967929,0.0046 1.451881,0.0094 -0.0024,-2.732897 -0.0024,-5.463376 0,-8.196271 h -1.605824 c -0.0024,1.629773 0.0046,3.259572 -0.0049,4.886974 -1.048558,-1.627402 -2.10418,-3.252394 -3.145623,-4.884541 -0.498184,-0.0024 -0.993945,-0.0025 -1.489755,-0.0025 z m 9.963686,0 c 0.0024,2.730524 0.0024,5.461289 0,8.194187 0.562236,-0.0024 1.126641,-0.0025 1.688877,-0.0025 -0.0071,-1.617913 0.0095,-3.233613 -0.0094,-4.851526 1.022464,1.625029 2.082907,3.226497 3.107744,4.851526 0.486324,0 0.972507,-2.24e-4 1.458829,0.0045 -0.0024,-2.732896 -0.0024,-5.465747 0,-8.196272 h -1.605824 v 4.90852 c -1.046188,-1.639264 -2.116057,-3.262018 -3.159871,-4.903655 -0.49344,-0.0024 -0.986934,-0.0049 -1.480373,-0.0049 z m 9.963685,0 c 0.0024,2.730524 0.0024,5.461289 0,8.194187 1.807698,-0.0024 3.615191,-0.0024 5.42526,0 0,-0.500556 -0.0024,-1.001303 0,-1.499488 -1.266811,-0.0024 -2.531078,-0.0046 -3.797891,0.0025 0.0024,-0.62629 0.0024,-1.252676 0,-1.878966 1.065166,0.0046 2.127719,0.0025 3.192884,0.0049 0,-0.500555 5.9e-5,-1.003387 0.0025,-1.501571 -1.065166,0.0024 -2.130151,5.8e-5 -3.195316,0.0025 0.0024,-0.609683 0.0025,-1.219586 0.0025,-1.829268 1.264439,0.0071 2.531019,0.0071 3.795457,0.0025 0,-0.500556 -0.0025,-0.998871 -0.0025,-1.497055 -1.807699,0.0024 -3.615133,0 -5.422829,0 z m 8.727607,0 c 0.0024,2.730524 0.0024,5.463663 0,8.194187 1.781602,-0.0024 3.56547,-0.0024 5.347072,0 -0.0024,-0.500556 -0.0025,-1.003738 -0.0025,-1.501922 -1.221737,0.0046 -2.443406,-0.0021 -3.665143,0.0074 V 91.67568 c -0.562238,-0.0024 -1.122004,-0.0025 -1.679497,-0.0025 z M 40.509443,94.21409 c 0.306027,0.929944 0.614589,1.862206 0.937221,2.789778 -0.631032,-0.0024 -1.262116,-0.0024 -1.890777,0 0.322635,-0.927572 0.647528,-1.855091 0.953556,-2.789778 z"
     style="display:inline;fill:#ffffff;stroke-width:0.23723" />
</svg>
