<?xml version="1.0" encoding="UTF-8" standalone="no"?>
<!-- Generator: Adobe Illustrator 24.3.0, SVG Export Plug-In . SVG Version: 6.00 Build 0)  -->

<svg
   version="1.1"
   id="Camada_1"
   x="0px"
   y="0px"
   viewBox="3.6 0 135.63 78.319966"
   height="57.745312"
   width="100"
   xml:space="preserve"
   sodipodi:docname="Star_Channel_2020.svg"
   inkscape:version="1.4.2 (f4327f4, 2025-05-13)"
   xmlns:inkscape="http://www.inkscape.org/namespaces/inkscape"
   xmlns:sodipodi="http://sodipodi.sourceforge.net/DTD/sodipodi-0.dtd"
   xmlns="http://www.w3.org/2000/svg"
   xmlns:svg="http://www.w3.org/2000/svg"><defs
   id="defs12" /><sodipodi:namedview
   id="namedview12"
   pagecolor="#919191"
   bordercolor="#000000"
   borderopacity="0.25"
   inkscape:showpageshadow="2"
   inkscape:pageopacity="0.0"
   inkscape:pagecheckerboard="0"
   inkscape:deskcolor="#d1d1d1"
   inkscape:zoom="9.58"
   inkscape:cx="50"
   inkscape:cy="28.862213"
   inkscape:window-width="1920"
   inkscape:window-height="974"
   inkscape:window-x="-11"
   inkscape:window-y="-11"
   inkscape:window-maximized="1"
   inkscape:current-layer="Camada_1" />
<style
   type="text/css"
   id="style1">
	.st0{fill:url(#SVGID_1_);}
	.st1{fill:#241C32;}
</style>
<g
   id="g13"
   transform="matrix(0.1,0,0,0.1,3.24,0)"><path
     id="path3"
     style="fill:#ffffff"
     class="st1"
     d="m 141.90021,59.499714 c -71.099994,0 -123.600779,46.800036 -123.600779,109.500036 0,42.9 21.099788,76.79932 71.099788,101.79932 l 55.099691,27.50216 c 30.7,15.4 45.50227,26.89832 45.50227,49.29832 0,24.3 -19.80227,41.60027 -45.50227,41.60027 -27.5,0 -52.497761,-15.39966 -63.997761,-49.89966 L 3.6,361.80097 c 17.9,64.7 71.099566,102.49866 140.19956,102.49866 74.9,0 132.5015,-48.00074 132.5015,-117.20074 0,-53.1 -28.79986,-88.39873 -83.89986,-113.29873 L 139.29887,209.4 c -25.6,-11.5 -35.19757,-24.29893 -35.19757,-40.99893 0,-19.2 15.99761,-35.20155 41.59761,-34.60155 22.4,0.6 39.70232,12.80027 51.90232,41.60027 l 73.59782,-32.69955 c -20.5,-52.499998 -62.09884,-83.200526 -129.29884,-83.200526 z m 157.50034,5.200033 v 77.399163 h 86.40055 v 315.70002 h 86.49856 V 142.09891 H 558.7002 V 64.699747 Z m 770.99825,0 V 457.89959 h 85.2005 V 300.30124 l 105.7014,157.49769 H 1359.9 L 1247.0993,300.30124 c 55.1,-7 100.5013,-54.40205 100.5013,-114.60205 0,-78.1 -53.1016,-120.999443 -138.9016,-120.999443 z m 85.0999,74.901133 h 53.1023 c 32,0 52.4984,16.59963 52.4984,45.49963 0,31.4 -20.4984,51.89967 -52.4984,51.89967 h -53.1023 z M 197.90057,618.00126 c -49.1,0 -84.80054,32.1992 -84.80054,82.5992 0,50.4 35.70054,82.5992 84.80054,82.5992 21.5,0 43.70036,-8.60083 56.80036,-27.30083 l -28.90085,-21.49948 c -7.1,10.7 -18.4002,16.90077 -32.4002,16.90077 -25.1,0 -44.40028,-21.29899 -44.40028,-50.59899 0,-29.3 19.29962,-50.60165 45.49962,-50.60165 12.9,0 22.90152,4.70074 29.80152,12.90074 l 26.6995,-21.89947 c -13.4,-17.1 -35.59967,-23.09949 -53.09967,-23.09949 z m 89.0999,4.09804 v 157.201 h 34.59889 v -67.89977 h 67.30109 v 67.89977 h 34.5989 v -157.201 h -34.5989 v 58.6017 h -67.30109 v -58.6017 z m 233.59883,0 -68.00043,157.201 h 38.20157 l 13.09942,-33.30087 h 61.09972 L 578.499,779.3003 h 39.10224 l -68.40043,-157.201 z m 126.10146,0 v 157.201 h 34.5989 V 667.40025 h 0.4 l 68.59911,111.90005 h 45.30095 v -157.201 h -34.5989 v 109.20069 h -0.4 L 693.8004,622.0993 Z m 194.29792,0 v 157.201 h 34.60154 V 667.40025 h 0.40001 L 944.7,779.3003 h 45.30095 v -157.201 h -34.80022 v 109.20069 h -0.40001 L 888.0003,622.0993 Z m 195.60122,0 v 157.30166 h 110.8007 v -32.0002 h -76.2018 v -32.0002 h 68.2018 v -32.00021 h -68.2018 v -29.30084 h 72.2018 V 622.0993 Z m 153.201,0 v 157.201 h 98.798 v -32.0002 h -64.1991 V 622.0993 Z m -655.90085,45.80162 19.30078,48.89832 h -38.40024 z" /><g
     id="g12"
     style="display:inline">
	<g
   id="g4">
		<linearGradient
   id="SVGID_1_"
   gradientUnits="userSpaceOnUse"
   x1="614.57709"
   y1="488.40689"
   x2="940.79321"
   y2="99.637703">
			<stop
   offset="0.28"
   style="stop-color:#FA1660"
   id="stop1" />
			<stop
   offset="0.78"
   style="stop-color:#FF7D17"
   id="stop2" />
		</linearGradient>
		
		
		
		
	</g>
	<g
   id="g11">
		
		
		
		
		
		
		
	</g>
<path
   class="st0"
   d="M 1047.9,189.5 H 852 c -2.6,0 -3.8,-1.3 -4.5,-3.8 L 786,0 725.8,185.7 c -0.6,2.6 -1.9,3.8 -4.5,3.8 H 525.4 l 158.2,115.3 c 1.9,1.3 3.8,1.3 5.8,0 C 732.9,277.9 772,258.7 853.3,238.2 779,295.8 706,361.1 645.8,436.7 c -1.9,2.6 -2.6,3.2 -3.8,7 l -17.3,53.1 158.2,-114.6 c 2.6,-1.9 3.8,-1.9 6.4,0 l 158.2,114.6 -60.2,-187 c -0.6,-2.6 0,-3.8 1.9,-5.1 z"
   id="path2"
   style="fill:url(#SVGID_1_)" /></g></g>
</svg>
