<?xml version="1.0" encoding="UTF-8" standalone="no"?>
<!-- Generator: Adobe Illustrator 18.1.1, SVG Export Plug-In . SVG Version: 6.00 Build 0)  -->

<svg
   version="1.1"
   id="Layer_1"
   x="0px"
   y="0px"
   viewBox="0 0 100 29.714843"
   enable-background="new 0 0 481 132.3"
   xml:space="preserve"
   sodipodi:docname="logo (1).svg"
   width="100"
   height="29.714844"
   inkscape:version="1.4.2 (f4327f4, 2025-05-13)"
   xmlns:inkscape="http://www.inkscape.org/namespaces/inkscape"
   xmlns:sodipodi="http://sodipodi.sourceforge.net/DTD/sodipodi-0.dtd"
   xmlns="http://www.w3.org/2000/svg"
   xmlns:svg="http://www.w3.org/2000/svg"><defs
   id="defs1" /><sodipodi:namedview
   id="namedview1"
   pagecolor="#8c8c8c"
   bordercolor="#000000"
   borderopacity="0.25"
   inkscape:showpageshadow="2"
   inkscape:pageopacity="0.0"
   inkscape:pagecheckerboard="0"
   inkscape:deskcolor="#d1d1d1"
   inkscape:zoom="9.58"
   inkscape:cx="50"
   inkscape:cy="13.100209"
   inkscape:window-width="1920"
   inkscape:window-height="974"
   inkscape:window-x="-11"
   inkscape:window-y="-11"
   inkscape:window-maximized="1"
   inkscape:current-layer="Layer_1"
   showguides="true" />

<path
   id="U"
   style="display:inline;opacity:1;fill:#ffffff;stroke-width:0.309907"
   d="m 93.072265,0 c -3.463569,0 -5.279296,1.943741 -5.279296,3.8867188 v 9.8828122 c 0,1.921859 1.815727,3.886719 5.279296,3.886719 v -0.02148 h 1.900391 c 3.294615,0 5.027343,-1.943741 5.027343,-3.886719 V 3.8867188 C 99.999999,1.9648603 98.267271,0 94.972656,0 Z M 4.7734376,0.0625 C 1.6477776,0.0625 0,2.0277253 0,3.9707032 V 5.5761718 C 0,8.4061612 3.2307039,9.7987724 5.6171875,10.8125 l 0.2539062,0.105469 c 0.1478353,0.06336 0.2958891,0.128048 0.4648437,0.191406 0.8870116,0.359028 1.8164064,0.739212 1.8164064,1.583984 v 0.189453 c 0,1.393876 -1.2049318,1.394532 -1.6484376,1.394532 H 5.5332031 c -1.0348469,0 -1.6464844,-0.528639 -1.6464844,-1.394532 V 12.439453 H 0 v 1.394531 c 0,1.921859 1.8157278,3.884766 5.2792969,3.884766 V 17.67773 H 7.138672 c 3.294614,0 5.02539,-1.943741 5.02539,-3.886718 v -1.921875 c 0,-2.259768 -2.8509578,-3.5277813 -4.9628902,-4.4570315 C 6.9899786,7.3276322 6.7994489,7.2446336 6.609375,7.1601563 L 6.2929687,7.0117188 C 5.0046899,6.441497 3.8867187,5.9346168 3.8867187,5.0898438 V 4.8789063 c 0,-0.8658923 0.6116375,-1.3945313 1.6464844,-1.3945313 h 0.9921876 c 1.0348468,0 1.6484375,0.528639 1.6484375,1.3945313 V 5.765625 H 12.058594 V 3.9492187 C 12.058594,2.0273602 10.327818,0.0625 7.0332031,0.0625 Z M 18.226562,0.12695311 V 3.5683593 h 4.308595 V 17.507812 h 3.884765 V 3.5683593 h 4.308593 V 0.12695311 Z m 18.859376,0 V 13.769531 c 0,1.921859 1.815728,3.886719 5.279297,3.886719 v -0.02148 h 1.900391 c 3.294614,0 5.027343,-1.943741 5.027343,-3.886719 V 0.12695311 H 45.406251 V 12.820313 c 0,0.865892 -0.611639,1.392578 -1.646486,1.392578 H 42.61914 c -1.034847,0 -1.648437,-0.526686 -1.648437,-1.392578 V 0.12695311 Z m 39.578125,0 V 17.507812 h 3.884764 V 0.12695311 Z M 56.832031,0.14843751 V 17.486328 h 7.265624 c 3.294615,0 5.025392,-1.941788 5.025392,-3.884766 V 4.033203 c 0,-1.9218584 -1.730777,-3.88476549 -5.025392,-3.88476549 z M 93.326172,3.4218751 h 1.140625 c 1.034847,0 1.646484,0.5266857 1.646484,1.392578 v 8.0253909 c 0,0.865892 -0.611637,1.394531 -1.646484,1.394531 h -1.140625 c -1.034847,0 -1.646485,-0.528639 -1.646485,-1.394531 V 4.8359376 c 0,-0.8658923 0.611638,-1.3925783 1.646485,-1.3925783 z M 60.718749,3.5898438 h 2.871094 c 1.034847,0 1.648437,0.5286389 1.648437,1.3945312 v 7.6875 c 0,0.865892 -0.61359,1.394531 -1.648437,1.394531 h -2.871094 z m 9.521485,20.8886722 c -0.898722,0 -1.361329,0.588653 -1.361329,1.146484 v 0.462891 c 0,0.898725 1.021855,1.271867 1.765627,1.550782 0.433867,0.154952 0.83789,0.310152 0.83789,0.496093 v 0.123047 c 0,0.371886 -0.341139,0.402342 -0.496093,0.402342 h -0.527345 c -0.247924,0 -0.496093,-0.123427 -0.496093,-0.402342 v -0.185548 h -1.115234 v 0.431641 c 0,0.58882 0.527833,1.179688 1.519531,1.179688 h 0.710936 c 0.931219,0 1.486329,-0.587709 1.486329,-1.238281 v -0.527344 c 0,-0.743771 -0.957398,-1.117571 -1.701172,-1.396485 -0.464857,-0.185941 -0.90039,-0.339707 -0.90039,-0.55664 v -0.125001 c 0,-0.216936 0.18593,-0.371092 0.464844,-0.371092 h 0.527344 c 0.278914,0 0.462889,0.154418 0.462889,0.402342 v 0.404298 h 1.115235 V 25.625 c 0,-0.557831 -0.494374,-1.146484 -1.455079,-1.146484 z m -64.1152341,0.0918 v 3.933594 c 0,0.58882 0.5278362,1.179688 1.5195314,1.179688 v 0.03125 h 0.8378906 c 0.9297142,0 1.4238281,-0.588913 1.4238281,-1.177734 V 24.570312 H 8.7910156 v 3.687501 c 0,0.309903 -0.2479107,0.402342 -0.4648438,0.402342 H 7.7363281 c -0.2169337,0 -0.4648437,-0.123427 -0.4648437,-0.402342 v -3.687501 z m 11.0136721,0.03125 v 5.048828 h 1.115234 v -2.787109 l 1.613282,2.787109 h 1.08203 v -5.048828 h -1.08203 v 2.91211 l -1.642579,-2.91211 z m 10.964844,0 v 5.048828 h 1.240235 v -5.048828 z m 8.111328,0 1.642577,5.048828 h 1.115235 l 1.673829,-5.048828 H 39.53125 l -1.115233,3.5625 -1.085939,-3.5625 z m 11.421876,0 v 5.048828 h 3.220701 v -0.990235 h -2.105468 v -1.083983 h 1.765624 V 26.583984 H 48.751953 V 25.59375 h 2.046874 v -0.992188 z m 10.449218,0 v 5.048828 h 1.115234 v -1.70117 h 0.777343 l 0.742188,1.70117 h 1.177734 l -0.896484,-1.828125 c 0.46486,-0.216931 0.742188,-0.585662 0.742188,-1.019531 v -1.054686 c 0,-0.557827 -0.496325,-1.146486 -1.457031,-1.146486 z m 22.984374,0 -1.673827,5.048828 h 0.990234 l 0.341796,-0.990235 h 1.796876 l 0.341797,0.990235 h 0.958984 l -1.673828,-5.048828 z m 9.765626,0 V 29.65039 H 93.875 V 28.599608 H 91.953125 V 24.601562 Z M 59.201172,25.625 h 0.962891 c 0.278914,0 0.464842,0.121214 0.464842,0.369141 v 0.589843 c 0,0.278915 -0.247909,0.373048 -0.464842,0.373048 v 0.0293 h -0.962891 z m 22.427733,0.431641 h 0.06055 l 0.527346,1.611328 h -1.115236 z" /></svg>
