<?xml version="1.0" encoding="UTF-8" standalone="no"?>
<svg
   version="1.1"
   id="Layer_1"
   x="0px"
   y="0px"
   width="96.381485"
   height="100"
   viewBox="0 0 96.381485 100"
   enable-background="new 0 0 1000 844"
   xml:space="preserve"
   sodipodi:docname="Telemundo_logo_2018.svg"
   inkscape:version="1.4.2 (f4327f4, 2025-05-13)"
   xmlns:inkscape="http://www.inkscape.org/namespaces/inkscape"
   xmlns:sodipodi="http://sodipodi.sourceforge.net/DTD/sodipodi-0.dtd"
   xmlns="http://www.w3.org/2000/svg"
   xmlns:svg="http://www.w3.org/2000/svg"
   xmlns:rdf="http://www.w3.org/1999/02/22-rdf-syntax-ns#"
   xmlns:cc="http://creativecommons.org/ns#"
   xmlns:dc="http://purl.org/dc/elements/1.1/"><metadata
   id="metadata33"><rdf:RDF><cc:Work
       rdf:about=""><dc:format>image/svg+xml</dc:format><dc:type
         rdf:resource="http://purl.org/dc/dcmitype/StillImage" /></cc:Work></rdf:RDF></metadata><defs
   id="defs31">
	
	
	
	
	
	
	
	
	
	
	
	
</defs><sodipodi:namedview
   pagecolor="#ffffff"
   bordercolor="#666666"
   borderopacity="1"
   objecttolerance="10"
   gridtolerance="10"
   guidetolerance="10"
   inkscape:pageopacity="0"
   inkscape:pageshadow="2"
   inkscape:window-width="1920"
   inkscape:window-height="974"
   id="namedview29"
   showgrid="false"
   inkscape:zoom="7.35"
   inkscape:cx="48.163265"
   inkscape:cy="50"
   inkscape:window-x="-11"
   inkscape:window-y="-11"
   inkscape:window-maximized="1"
   inkscape:current-layer="Layer_1"
   inkscape:document-rotation="0"
   inkscape:showpageshadow="2"
   inkscape:pagecheckerboard="0"
   inkscape:deskcolor="#d1d1d1" />

<g
   id="g93"
   transform="matrix(0.15424295,0,0,0.15424295,-28.882455,0)"><path
     fill-rule="evenodd"
     clip-rule="evenodd"
     fill="#a71916"
     d="m 624.153,324.724 c 2.426,142.063 -94.829,278.554 -230.352,321.012 -13.642,3.44 -18.62,4.818 -18.62,-4.697 V 241.865 H 192.508 c -2.889,0 -5.255,-2.366 -5.255,-5.257 V 5.255 C 187.253,2.366 189.616,0 192.508,0 h 103.868 c 197.852,0 327.777,169.358 327.777,324.724 z"
     id="path2"
     style="fill:#911010;fill-opacity:1" /><path
     fill-rule="evenodd"
     clip-rule="evenodd"
     fill="#ff0000"
     d="m 375.22,324.724 c -2.422,142.063 94.83,278.554 230.353,321.012 13.645,3.44 18.619,4.818 18.619,-4.697 V 241.865 h 182.677 c 2.887,0 5.252,-2.366 5.252,-5.257 V 5.255 C 812.121,2.366 809.761,0 806.869,0 H 703 C 505.148,0 375.22,169.358 375.22,324.724 Z"
     id="path4"
     style="fill:#eb1010;fill-opacity:1" /><path
     id="path2-85"
     d="m 499.68664,71.53515 c -78.65055,63.73475 -124.46875,160.92821 -124.46875,253.18946 -0.0378,2.21973 -0.0496,4.43762 -0.0391,6.65429 0.47244,98.88293 48.91222,194.37596 124.50781,256.54688 75.56407,-62.14471 123.99386,-157.5837 124.50391,-256.42188 v -0.4414 c 0.008,-2.11143 -0.003,-4.22371 -0.0391,-6.33789 0,-92.26078 -45.81588,-189.4547 -124.46484,-253.18946 z"
     style="fill:#c31010;fill-opacity:1" /></g></svg>
