<?xml version="1.0" encoding="UTF-8" standalone="no"?>
<svg
   width="100"
   height="83"
   viewBox="0 0 26.458333 21.960415"
   version="1.1"
   id="svg8"
   inkscape:version="1.4.2 (f4327f4, 2025-05-13)"
   sodipodi:docname="Tlnovelas.svg"
   xml:space="preserve"
   xmlns:inkscape="http://www.inkscape.org/namespaces/inkscape"
   xmlns:sodipodi="http://sodipodi.sourceforge.net/DTD/sodipodi-0.dtd"
   xmlns="http://www.w3.org/2000/svg"
   xmlns:svg="http://www.w3.org/2000/svg"
   xmlns:rdf="http://www.w3.org/1999/02/22-rdf-syntax-ns#"
   xmlns:cc="http://creativecommons.org/ns#"
   xmlns:dc="http://purl.org/dc/elements/1.1/"><title
     id="title262">TLNovelas logo</title><defs
     id="defs2" /><sodipodi:namedview
     id="base"
     pagecolor="#ffffff"
     bordercolor="#666666"
     borderopacity="1.0"
     inkscape:pageopacity="0.0"
     inkscape:pageshadow="2"
     inkscape:zoom="8.8674699"
     inkscape:cx="50.014266"
     inkscape:cy="41.5"
     inkscape:document-units="px"
     inkscape:current-layer="svg8"
     inkscape:document-rotation="0"
     showgrid="false"
     units="px"
     inkscape:showpageshadow="false"
     inkscape:window-width="1920"
     inkscape:window-height="974"
     inkscape:window-x="-11"
     inkscape:window-y="-11"
     inkscape:window-maximized="1"
     objecttolerance="1"
     guidetolerance="1"
     inkscape:pagecheckerboard="0"
     inkscape:deskcolor="#d1d1d1" /><metadata
     id="metadata5"><rdf:RDF><cc:Work
         rdf:about=""><dc:format>image/svg+xml</dc:format><dc:type
           rdf:resource="http://purl.org/dc/dcmitype/StillImage" /><dc:title>TLNovelas logo</dc:title><cc:license
           rdf:resource="http://scripts.sil.org/OFL" /><dc:date>24 feb 2021</dc:date></cc:Work><cc:License
         rdf:about="http://scripts.sil.org/OFL"><cc:permits
           rdf:resource="http://scripts.sil.org/pub/OFL/Reproduction" /><cc:permits
           rdf:resource="http://scripts.sil.org/pub/OFL/Distribution" /><cc:permits
           rdf:resource="http://scripts.sil.org/pub/OFL/Embedding" /><cc:permits
           rdf:resource="http://scripts.sil.org/pub/OFL/DerivativeWorks" /><cc:requires
           rdf:resource="http://scripts.sil.org/pub/OFL/Notice" /><cc:requires
           rdf:resource="http://scripts.sil.org/pub/OFL/Attribution" /><cc:requires
           rdf:resource="http://scripts.sil.org/pub/OFL/ShareAlike" /><cc:requires
           rdf:resource="http://scripts.sil.org/pub/OFL/DerivativeRenaming" /><cc:requires
           rdf:resource="http://scripts.sil.org/pub/OFL/BundlingWhenSelling" /></cc:License></rdf:RDF></metadata><path
     id="path3"
     style="fill:#ef4c9b;fill-opacity:1;stroke-width:5.91727"
     d="m 32.191406,-83.878906 c 0.005,15.474664 -0.0033,30.949905 0.0039,46.425781 0.04412,3.309704 0.448518,6.790346 2.240235,9.642578 1.238147,2.005799 3.324303,3.327374 5.537109,3.972656 3.633532,1.116197 7.469433,0.750805 11.208985,0.816407 0.527036,0.07899 1.121292,-0.271103 1.074218,-0.867188 0.01625,-3.181545 0.0066,-6.363357 0.002,-9.544922 0.02646,-0.402348 -0.206343,-0.844245 -0.628906,-0.902344 -1.598834,-0.157931 -3.364263,0.268741 -4.814453,-0.632812 -1.205786,-0.767474 -1.410269,-2.358932 -1.427734,-3.677734 -0.006,-15.077591 -0.002,-30.154832 -0.002,-45.232422 z m -26.7285154,0.05859 c -0.3307257,0.01346 -0.7177602,-0.01773 -0.9746094,0.236328 v 0.002 c -0.2655685,0.255537 -0.2363681,0.656402 -0.2480468,0.99414 0.00654,3.988521 -0.00132,7.974408 0.00195,11.962891 0.01035,0.286912 -0.032318,0.718818 -0.3984375,0.744141 -1.1028728,0.09411 -2.2169567,-0.04566 -3.31835938,0.06641 -0.67613444,0.104613 -0.64323085,0.943295 -0.66992187,1.464844 v 6.453125 c 0.09893163,0.584318 -0.17114771,1.652985 0.6171875,1.845703 1.09992335,0.133039 2.21791235,-0.01528 3.32226565,0.06836 0.1875005,0.01047 0.3761783,0.133304 0.4101562,0.332031 0.076838,0.515577 0.023805,1.042437 0.037109,1.5625 0.00421,6.777019 -0.00972,13.553058 0.00781,20.330079 0.075306,3.459485 0.5667743,7.093874 2.515625,10.027343 1.3066001,2.009953 3.451122,3.311626 5.707031,3.951172 3.47548,1.043101 7.135108,0.742613 10.710938,0.794922 0.417835,-0.02389 0.893605,0.07297 1.259765,-0.185547 0.29991,-0.228639 0.298981,-0.640665 0.304688,-0.984375 -0.01083,-3.091876 0.0054,-6.185475 -0.0078,-9.277344 0.02514,-0.415446 -0.225505,-0.87178 -0.669922,-0.90625 -1.38485,-0.118012 -2.797396,0.112639 -4.166015,-0.201171 -0.752975,-0.170368 -1.507661,-0.56476 -1.900391,-1.265626 -0.537393,-0.947422 -0.608634,-2.076024 -0.625,-3.144531 -0.0033,-6.476629 0.0025,-12.955015 -0.002,-19.43164 0.0088,-0.440844 -0.03826,-0.887409 0.04883,-1.322266 0.107807,-0.304932 0.471072,-0.291269 0.732422,-0.298828 1.821866,0 3.645387,-0.0013 5.46875,0.002 0.289352,-0.01346 0.619251,-3.04e-4 0.849609,-0.210938 0.281965,-0.248088 0.262565,-0.659754 0.271485,-1.001953 -0.0045,-2.494133 -0.0033,-4.988285 0,-7.482421 -0.01032,-0.303342 -7.71e-4,-0.648547 -0.214844,-0.890626 -0.187503,-0.21959 -0.492998,-0.256112 -0.761719,-0.263671 -1.970976,-0.02255 -3.94061,0.02386 -5.910156,-0.01953 -0.408933,0.02541 -0.513489,-0.427669 -0.482422,-0.751953 v -12.117187 c -0.0074,-0.303345 -0.02392,-0.656479 -0.273437,-0.867188 -0.233292,-0.210671 -0.56704,-0.200733 -0.859375,-0.210937 -3.595033,0 -7.188196,6.29e-4 -10.7832034,-0.0039 z m 79.0839844,13.46875 c -1.328204,-0.0312 -2.659922,0.06618 -3.96875,0.27539 l -0.002,-0.002 c -2.721003,0.42144 -5.26438,1.775253 -7.232422,3.708984 -0.431089,0.400468 -0.758422,0.89567 -1.177734,1.306641 -0.03855,-1.165629 0.02237,-2.334375 -0.0293,-3.5 -0.01476,-0.446808 -0.431259,-0.758691 -0.853516,-0.738281 -3.692455,-0.01776 -7.383736,8.17e-4 -11.076172,-0.0098 -0.35433,0.006 -0.765438,-0.03071 -1.042969,0.238281 -0.235351,0.239105 -0.236961,0.598775 -0.240234,0.914063 0.0076,14.746572 -0.0069,29.493663 0.0078,44.240234 -0.03838,0.476701 0.346824,0.914814 0.828125,0.890625 3.848965,0.0165 7.697925,0.016 11.546875,0.0039 0.475411,0.02839 0.875371,-0.394823 0.839843,-0.873046 0.0223,-8.970762 -0.0048,-17.94329 0.01563,-26.914063 0.01624,-2.314794 0.679151,-4.753698 2.371094,-6.394531 1.346461,-1.340436 3.303392,-1.84643 5.150391,-1.759766 1.719995,0.03438 3.520603,0.599092 4.691406,1.933594 1.526604,1.721526 2.034717,4.112155 2.044922,6.367188 0.01234,8.915482 -0.0065,17.832534 0.0098,26.748046 -0.05168,0.527536 0.419381,0.950267 0.925781,0.896485 3.698396,0.0093 7.395353,-0.0013 11.09375,0.0078 0.323316,-0.009 0.702164,0.01523 0.953125,-0.234375 0.221216,-0.207707 0.241999,-0.532412 0.248047,-0.816406 0.0033,-9.564036 -0.0013,-19.129329 0.002,-28.693359 0.04869,-4.333701 -0.843318,-8.898611 -3.582032,-12.347657 -1.880946,-2.416392 -4.635162,-4.053042 -7.576171,-4.753906 -1.294802,-0.304087 -2.619062,-0.462943 -3.947266,-0.49414 z M 2.4042969,-16.931641 c -0.091444,0.0037 -0.1984993,-0.0058 -0.2695313,0.06445 -0.073481,0.07066 -0.065094,0.182007 -0.068359,0.275391 0.00163,1.102838 0.00114,2.205756 0.00195,3.308594 0.00286,0.07934 -0.010087,0.198054 -0.1113282,0.205078 -0.3049476,0.02603 -0.6134293,-0.01341 -0.9179687,0.01758 -0.18696925,0.02892 -0.17819874,0.262042 -0.18554688,0.40625 v 1.785156 c 0.0273514,0.161563 -0.0461197,0.456463 0.17187498,0.509766 0.3041312,0.03678 0.6126129,-0.0036 0.9179688,0.01953 0.051845,0.0029 0.1038919,0.03684 0.1132812,0.0918 0.021228,0.142555 0.00804,0.2878463 0.011719,0.4316408 0.00122,1.8738734 -0.00295,3.7472202 0.00195,5.6210937 0.02082,0.9565639 0.1564492,1.9603678 0.6953125,2.7714844 0.3612834,0.55575738 0.9543499,0.91689929 1.578125,1.09374998 0.960973,0.28841536 1.9722049,0.20428791 2.9609375,0.21875 0.115529,-0.006611 0.2464153,0.02070278 0.3476563,-0.0507813 0.082871,-0.06322 0.084305,-0.17840091 0.085937,-0.2734375 C 7.7358319,-1.2904629 7.7380491,-2.145084 7.734375,-3 7.7413149,-3.1148703 7.6736584,-3.2404963 7.5507812,-3.25 7.1678617,-3.282643 6.7768665,-3.217915 6.3984375,-3.3046875 6.1902403,-3.3517926 5.981636,-3.462458 5.8730469,-3.65625 5.7244512,-3.9182204 5.7037093,-4.2299508 5.6992188,-4.5253906 c -8.165e-4,-1.7908198 0.00122,-3.5822271 0,-5.3730469 0.00245,-0.1218945 -0.010414,-0.2449925 0.013672,-0.3652345 0.029801,-0.08429 0.1308683,-0.07996 0.203125,-0.08203 0.5037556,0 1.007555,-4.13e-4 1.5117188,0 0.080013,-0.0037 0.1706911,-3.32e-4 0.234375,-0.05859 0.077972,-0.06859 0.073722,-0.18272 0.076172,-0.277344 -0.00122,-0.689635 -8.164e-4,-1.378724 0,-2.068359 -0.00286,-0.08388 -0.00135,-0.179155 -0.060547,-0.246094 -0.051845,-0.06074 -0.1366397,-0.07215 -0.2109375,-0.07422 -0.5449868,-0.0058 -1.0901871,0.0081 -1.6347657,-0.0039 -0.1130796,0.007 -0.1413853,-0.119319 -0.1328124,-0.208984 v -3.349609 c -0.00204,-0.08388 -0.00718,-0.181973 -0.076172,-0.240235 -0.0645,-0.05826 -0.1554986,-0.0557 -0.2363281,-0.05859 -0.9940396,4.14e-4 -1.9883823,0.0012 -2.9824219,0 z m 7.375,0.03906 c 9.797e-4,4.259386 -0.00192,8.5195832 0,12.7792968 0.012243,0.9177228 0.124278,1.8829593 0.6210941,2.6738281 0.343321,0.556171 0.921586,0.9226466 1.535156,1.10156248 1.007511,0.30948952 2.072471,0.20838076 3.109375,0.2265625 0.146146,0.02189808 0.309938,-0.0749542 0.296875,-0.24023438 0.0045,-0.8821874 0.0032,-1.7642966 0.002,-2.6464844 0.0073,-0.1115647 -0.05862,-0.2338851 -0.175781,-0.25 -0.443338,-0.043799 -0.931878,0.074206 -1.333985,-0.1757812 -0.33434,-0.2127997 -0.391585,-0.6538466 -0.396484,-1.0195313 -0.0011,-4.1492687 -8.2e-5,-8.2999496 0,-12.4492186 z m 58.3691411,0.08008 c 0.0011,4.259388 -0.0022,8.519581 0,12.7792969 0.01209,0.9177258 0.124289,1.8829544 0.621093,2.6738281 0.343333,0.55616884 0.921592,0.92264722 1.535157,1.1015625 1.007508,0.30950552 2.072476,0.20838297 3.109374,0.2265625 0.146155,0.02192126 0.309953,-0.07491783 0.296876,-0.24023438 0.0045,-0.88218712 0.0031,-1.76429352 0.002,-2.64648442 0.0072,-0.1115716 -0.05862,-0.2358145 -0.175782,-0.2519531 -0.443338,-0.043767 -0.93188,0.074197 -1.333984,-0.1757812 -0.334337,-0.2127874 -0.391586,-0.6518937 -0.396484,-1.0175781 -0.0011,-4.1492706 -0.0011,-8.2999478 0,-12.4492188 z m 12.33789,3.363281 c -0.937296,0.01157 -1.882504,0.115243 -2.777344,0.408203 -0.639696,0.207841 -1.260925,0.490119 -1.804687,0.892578 -0.114304,0.07851 -0.102194,0.238797 -0.0332,0.34375 0.391084,0.694594 0.779886,1.390631 1.173828,2.0839849 0.05429,0.1173495 0.208577,0.1574982 0.308594,0.070312 0.326583,-0.2454423 0.694389,-0.4301629 1.078125,-0.5644529 0.722566,-0.263211 1.503139,-0.298494 2.263671,-0.261718 0.436398,0.02686 0.882874,0.07397 1.289063,0.25 0.324134,0.137596 0.575061,0.425897 0.691406,0.7597646 0.141656,0.3884104 0.114594,0.8086657 0.111328,1.2148438 0.0073,0.097103 -0.08892,0.154561 -0.173828,0.1425781 -0.586218,0.00207 -1.171594,-8.264e-4 -1.757812,0 -0.738488,-0.00826 -1.483152,0.01129 -2.208985,0.1621094 -0.810336,0.1640414 -1.604148,0.476811 -2.259765,0.9941406 -0.51886,0.4111365 -0.895735,0.9947149 -1.076172,1.6347656 -0.197583,0.6966595 -0.216564,1.4375034 -0.113281,2.1523438 0.130225,0.8830138 0.593959,1.7234287 1.304687,2.2597656 0.618877,0.47642252 1.386593,0.70638365 2.150391,0.796875 0.714402,0.07520286 1.444329,0.04734165 2.146484,-0.11132812 0.789517,-0.18594114 1.523148,-0.62764029 2.03711,-1.26562498 0.01959,0.3057698 -0.005,0.61178565 0.01172,0.91796872 0.0016,0.1297456 0.128756,0.21736132 0.25,0.20703126 0.939745,0.003306 1.88016,-5.261e-4 2.820313,0.001953 0.09022,-0.002892 0.194417,0.007406 0.269531,-0.0566406 0.06613,-0.0557824 0.07649,-0.14906786 0.07813,-0.23046876 4.08e-4,-2.71474062 4.08e-4,-5.42979062 0,-8.14453122 -4.08e-4,-0.6999651 -0.0704,-1.4089628 -0.294922,-2.0742188 -0.181662,-0.544601 -0.497868,-1.045035 -0.927734,-1.421875 -0.554785,-0.490885 -1.259975,-0.769252 -1.970703,-0.931641 -0.847485,-0.18966 -1.720491,-0.237906 -2.585938,-0.230469 z m 13.361328,0.0039 c -0.32363,-0.0083 -0.646656,-0.0016 -0.96875,0.01758 -1.093239,0.07148 -2.218065,0.34 -3.103515,1.023437 -0.46824,0.359073 -0.858434,0.829573 -1.097657,1.375 -0.305764,0.686743 -0.373766,1.4593606 -0.302734,2.2031251 0.06287,0.650794 0.277901,1.2990767 0.681641,1.8164063 0.398432,0.5152635 0.953629,0.8855299 1.548828,1.1289062 0.640104,0.2644496 1.326301,0.3903928 2.011719,0.4589844 0.595607,0.071897 1.194679,0.1230382 1.789062,0.2089844 0.363325,0.070244 0.767998,0.1343244 1.039062,0.4140625 0.319236,0.3218847 0.318436,0.8820261 0.04492,1.2324219 -0.230649,0.3037038 -0.593298,0.4699447 -0.957031,0.5410156 -0.510695,0.099995 -1.039181,0.086883 -1.552734,0.019531 -1.134063,-0.1628018 -2.217681,-0.6412673 -3.121094,-1.3515625 -0.10369,-0.090904 -0.274199,-0.1079971 -0.365234,0.00977 -0.560092,0.6317866 -1.116099,1.2697306 -1.675782,1.9023437 -0.05429,0.062807 -0.119172,0.1321649 -0.109375,0.2226563 0.0061,0.08512 0.0684,0.1506482 0.13086,0.203125 0.562949,0.4780753 1.202909,0.8557005 1.86914,1.16601558 1.278984,0.62682824 2.72133,0.81193987 4.128907,0.77929687 1.132429,-0.03016378 2.296888,-0.21820403 3.292968,-0.79296875 0.624184,-0.3636182 1.164836,-0.8834251 1.527344,-1.515625 0.535598,-0.9429282 0.657223,-2.1011565 0.408203,-3.1523437 -0.172273,-0.707816 -0.569135,-1.3612445 -1.130859,-1.8203126 -0.508654,-0.4103101 -1.130363,-0.6480092 -1.757813,-0.7988281 -0.645411,-0.1582565 -1.309955,-0.1981963 -1.966796,-0.28125 -0.484569,-0.062394 -0.976313,-0.089607 -1.453126,-0.2011719 -0.250244,-0.06198 -0.514962,-0.138727 -0.693359,-0.3378906 -0.224526,-0.2392442 -0.264983,-0.6107718 -0.162109,-0.9140625 0.107364,-0.3061832 0.386722,-0.5189582 0.685547,-0.6152342 0.415169,-0.134704 0.85838,-0.126768 1.289062,-0.101563 0.924641,0.05743 1.820347,0.368346 2.634766,0.8046879 0.150637,0.076442 0.284734,0.1821218 0.439453,0.2519531 0.11757,0.048758 0.236105,-0.029963 0.304687,-0.125 0.480079,-0.60121 0.965323,-1.197919 1.44336,-1.800781 0.09798,-0.111978 0.08396,-0.296528 -0.0332,-0.388672 -0.591117,-0.461547 -1.268724,-0.796736 -1.966797,-1.056641 -0.911475,-0.343991 -1.880671,-0.500637 -2.851563,-0.52539 z m -57.498047,0.0059 c -0.367094,-0.02008 -0.736079,-0.0133 -1.099609,0.01563 -1.258981,0.09462 -2.521393,0.538375 -3.474609,1.394531 -0.596016,0.534271 -1.033975,1.233961 -1.296875,1.992188 -0.280862,0.8400404 -0.431281,1.7234684 -0.466797,2.6093746 -0.0298,0.7966545 -0.01787,1.5986287 0.09766,2.3886719 0.125735,0.7908696 0.312889,1.5878195 0.693359,2.296875 0.335565,0.6342659 0.819392,1.1861065 1.402344,1.5976563 1.098955,0.78384515 2.468403,1.09735804 3.798828,1.0742187 1.357364,-0.0070244 2.748533,-0.38250046 3.824219,-1.2460937 0.544579,-0.4355155 0.984787,-1.0028661 1.283203,-1.6367188 0.257593,-0.5363369 0.406043,-1.1166032 0.519531,-1.6992188 0.153495,-0.7892168 0.186892,-1.5979513 0.173829,-2.4003906 -0.0098,-0.5805495 -0.05329,-1.1613759 -0.158204,-1.7324218 -0.126959,-0.6809578 -0.305004,-1.3618298 -0.632812,-1.9746098 -0.360467,-0.690048 -0.900239,-1.280306 -1.546875,-1.705078 -0.925559,-0.617944 -2.015903,-0.914372 -3.117188,-0.974609 z m 23.683594,0.08594 c -0.441296,0.01694 -0.881409,0.06963 -1.3125,0.167969 -1.156923,0.257839 -2.257814,0.881815 -2.982422,1.84375 -0.504572,0.654926 -0.801776,1.4461338 -0.996093,2.2460939 -0.227385,0.9677203 -0.251553,1.9685379 -0.22461,2.9589843 0.02245,0.8429332 0.159119,1.6852414 0.427734,2.484375 0.21228,0.6838502 0.548435,1.3331041 1.019532,1.8710938 0.784617,0.90780596 1.909947,1.46486053 3.074218,1.671875 1.038129,0.18552794 2.10722,0.16896364 3.144532,-0.0136719 1.412067,-0.2619704 2.760771,-0.955047 3.751953,-2.0136719 0.0943,-0.083054 0.09593,-0.2369584 0,-0.3183593 -0.570705,-0.5520386 -1.15268,-1.0933191 -1.724609,-1.6445313 -0.05715,-0.049997 -0.106175,-0.1258264 -0.189454,-0.125 -0.12451,0.00372 -0.218142,0.097273 -0.304687,0.1757813 -0.643779,0.5904664 -1.477719,0.9724623 -2.347656,1.0332031 -0.58581,0.048345 -1.191078,0.017225 -1.742188,-0.2050781 -0.527025,-0.2032957 -0.976061,-0.6119516 -1.205078,-1.1367188 -0.142472,-0.3433713 -0.279297,-0.7043641 -0.279297,-1.0820312 0.0069,-0.1020611 0.117485,-0.1293578 0.201172,-0.1210938 2.532658,0 5.064999,8.264e-4 7.597656,0 0.144514,0.017355 0.307985,-0.082879 0.294922,-0.2460937 0.0029,-0.8214467 -0.01298,-1.6436229 -0.101562,-2.4609375 -0.103691,-0.9226813 -0.351457,-1.8443839 -0.833985,-2.6406249 -0.57887,-0.964002 -1.506353,-1.696778 -2.554687,-2.070313 -0.86708,-0.313207 -1.797231,-0.406816 -2.712891,-0.375 z m -35.876953,0.173828 c -0.367254,-0.0086 -0.735761,0.01637 -1.097656,0.07422 -0.752368,0.116523 -1.453877,0.49266 -1.998047,1.027344 -0.119203,0.110738 -0.210235,0.247697 -0.326172,0.361328 -0.01061,-0.322298 0.0065,-0.646452 -0.0078,-0.96875 -0.0041,-0.123547 -0.119574,-0.210863 -0.236328,-0.205078 -1.020982,-0.005 -2.041517,9.39e-4 -3.0625,-0.002 -0.09798,0.0017 -0.212315,-0.008 -0.289062,0.06641 -0.06532,0.06611 -0.06559,0.164768 -0.06641,0.251953 0.002,4.0774828 -0.0021,8.1549395 0.002,12.23242212 -0.01061,0.13181161 0.09543,0.25465812 0.228515,0.24804688 1.064255,0.004132 2.129105,0.0033056 3.19336,0 0.13145,0.0078509 0.242219,-0.10996269 0.232422,-0.2421875 0.0061,-2.4804548 -0.0018,-4.9609514 0.0039,-7.4414063 0.0045,-0.6400507 0.188419,-1.3138817 0.65625,-1.7675781 0.372305,-0.3706426 0.913133,-0.5102941 1.423828,-0.4863281 0.475588,0.0095 0.973149,0.1642133 1.296875,0.5332031 0.42211,0.4760093 0.563549,1.1381962 0.566406,1.7617188 0.0033,2.4651663 -0.0025,4.931318 0.002,7.39648435 -0.01429,0.14586049 0.115837,0.26096904 0.25586,0.24609375 1.022615,0.0024792 2.045743,-5.2609e-4 3.068359,0.0019531 0.0894,-0.0024792 0.194273,0.0045517 0.263672,-0.06445313 0.06123,-0.0574352 0.06673,-0.14610089 0.06836,-0.22460938 4.09e-4,-2.64449619 -4.08e-4,-5.28909749 0,-7.93359369 0.01347,-1.1982874 -0.232968,-2.4603909 -0.990234,-3.4140629 -0.520085,-0.668148 -1.282509,-1.120661 -2.095703,-1.314453 -0.358018,-0.08409 -0.724543,-0.128093 -1.091797,-0.136719 z m 18.111328,0.330079 c -0.102466,0.005 -0.217646,-0.01481 -0.30664,0.04883 -0.07552,0.06281 -0.04852,0.171792 -0.01953,0.251953 1.500245,4.0952502 2.999347,8.1922722 4.5,12.28710925 0.03919,0.11858913 0.147615,0.21382992 0.275391,0.2109375 0.954441,0.0045452 1.910385,7.1352e-4 2.865234,0.0019531 0.107365,0.006198 0.22092,-0.03416999 0.279297,-0.13085938 0.06164,-0.10619305 0.09141,-0.22816618 0.136719,-0.34179688 1.469219,-4.01219659 2.939392,-8.02295959 4.408203,-12.03515659 0.02286,-0.07148 0.04712,-0.162103 -0.0039,-0.226562 -0.06205,-0.07024 -0.16436,-0.0631 -0.248047,-0.06641 -1.062622,0.0017 -2.125286,-9.4e-4 -3.1875,0.002 -0.160843,-0.01074 -0.302375,0.110261 -0.337891,0.265625 -0.769921,2.484173 -1.540713,4.9681247 -2.308594,7.4531248 -0.02368,0.05165 -0.02281,0.1324354 -0.0918,0.1464843 -0.803805,-2.4845868 -1.608713,-4.9681249 -2.41211,-7.4531251 -0.04123,-0.115697 -0.06268,-0.251231 -0.158203,-0.335937 -0.07593,-0.07025 -0.184091,-0.07895 -0.28125,-0.07813 -1.036087,4.13e-4 -2.073288,8.26e-4 -3.109375,0 z m 18.269531,2.322265 c 0.513432,0.0258 1.023999,0.188376 1.414063,0.5351565 0.300457,0.2640364 0.50951,0.6307822 0.58789,1.0253906 0.05838,0.2764325 0.11084,0.5607063 0.08594,0.84375 -0.01388,0.09545 -0.123288,0.1096008 -0.199219,0.1054688 -1.374101,-0.00165 -2.746992,0.00135 -4.121093,-0.00195 -0.105732,0.016528 -0.1808,-0.081646 -0.164063,-0.1816407 0.0073,-0.4103101 0.06837,-0.8303034 0.240234,-1.2050781 0.296375,-0.6396381 0.96719,-1.0324451 1.646485,-1.1035161 0.167884,-0.01994 0.338621,-0.02618 0.509765,-0.01758 z m -24.535156,0.199219 c 0.444468,0.01278 0.88802,0.125666 1.238281,0.4101562 0.404556,0.324364 0.617277,0.8308166 0.714844,1.3320313 0.155536,0.7053367 0.143075,1.4318314 0.140625,2.1503906 -0.0053,0.6115398 -0.04689,1.2287194 -0.21875,1.8183594 -0.146146,0.5218748 -0.486567,1.0101189 -0.988281,1.2324219 -0.535598,0.2355254 -1.155161,0.2456956 -1.714844,0.095703 -0.536414,-0.1446209 -0.968112,-0.573528 -1.164062,-1.09375 -0.278821,-0.744591 -0.29874,-1.5546461 -0.300782,-2.3417969 0.002,-0.6218698 0.0066,-1.2514412 0.142578,-1.8613281 0.07716,-0.3879972 0.212966,-0.773369 0.464844,-1.0820313 0.300457,-0.3822121 0.771003,-0.5934071 1.244141,-0.6425781 0.144616,-0.01549 0.29325,-0.02184 0.441406,-0.01758 z m 45.212891,4.6757812 c 0.328982,7.232e-4 0.657703,0.00774 0.986328,0.00195 0.162067,0.00455 0.326214,-0.010068 0.488281,0.00977 0.124918,0.026858 0.09666,0.1849738 0.101563,0.28125 -0.01592,0.448738 0.04633,0.9093613 -0.08594,1.3457031 -0.09716,0.32643 -0.313848,0.6116858 -0.599609,0.7910157 -0.395575,0.2504007 -0.86773,0.3350705 -1.326172,0.3652343 -0.447012,0.023139 -0.908113,0.016654 -1.335938,-0.1308593 -0.287393,-0.098756 -0.556514,-0.2890345 -0.695312,-0.5683594 -0.257185,-0.5408821 -0.168867,-1.2927063 0.332031,-1.6621094 0.330666,-0.2508139 0.745107,-0.3477265 1.148438,-0.3964844 0.327604,-0.031817 0.657346,-0.037832 0.986328,-0.037109 z"
     transform="matrix(0.25922702,0,0,0.25922712,0.40011396,21.891978)" /></svg>
