<?xml version="1.0" encoding="UTF-8" standalone="no"?>
<svg
   id="uuid-992480e5-52b6-43d0-bb76-1b1d82b7b396"
   viewBox="0 0 100 28.162775"
   version="1.1"
   sodipodi:docname="TNT Novelas.svg"
   inkscape:version="1.4.2 (f4327f4, 2025-05-13)"
   width="100"
   height="28.162775"
   xmlns:inkscape="http://www.inkscape.org/namespaces/inkscape"
   xmlns:sodipodi="http://sodipodi.sourceforge.net/DTD/sodipodi-0.dtd"
   xmlns="http://www.w3.org/2000/svg"
   xmlns:svg="http://www.w3.org/2000/svg"
   xmlns:rdf="http://www.w3.org/1999/02/22-rdf-syntax-ns#"
   xmlns:cc="http://creativecommons.org/ns#"
   xmlns:dc="http://purl.org/dc/elements/1.1/">
  <defs
     id="defs1" />
  <sodipodi:namedview
     id="namedview1"
     pagecolor="#828282"
     bordercolor="#000000"
     borderopacity="0.25"
     inkscape:showpageshadow="2"
     inkscape:pageopacity="0.0"
     inkscape:pagecheckerboard="0"
     inkscape:deskcolor="#d1d1d1"
     inkscape:zoom="8.99"
     inkscape:cx="50"
     inkscape:cy="14.07119"
     inkscape:window-width="1920"
     inkscape:window-height="974"
     inkscape:window-x="-11"
     inkscape:window-y="-11"
     inkscape:window-maximized="1"
     inkscape:current-layer="uuid-992480e5-52b6-43d0-bb76-1b1d82b7b396" />
  <title
     id="title1">TNT Novelas logo - Brandlogos.net</title>
  <path
     id="uuid-d4147fcd-bc21-420f-ba9c-d1e11ecb6332"
     style="fill:#ffffff;stroke-width:0.0440974"
     d="M 14.077642,0 C 7.766873,0 2.4315573,4.144289 0.63811928,9.876937 H 9.1184146 11.878546 c 0.696296,0 1.040693,0.186962 1.385534,0.761113 l 2.852632,4.440132 h 0.104904 V 9.876937 H 27.517595 C 25.725038,4.146932 20.38841,0 14.077642,0 Z m 34.128233,9.760063 c -0.794193,0 -1.529697,0.141989 -2.206591,0.426421 -0.666751,0.274724 -1.245366,0.657027 -1.735728,1.147388 -0.480661,0.480221 -0.85811,1.044283 -1.132837,1.691632 -0.274726,0.637206 -0.411862,1.323768 -0.411862,2.059312 v 0.02952 c 0,0.735543 0.132722,1.426949 0.397307,2.0743 0.274726,0.637647 0.652175,1.196416 1.132836,1.677074 0.490361,0.470958 1.068976,0.84841 1.735728,1.132835 0.667192,0.27473 1.397841,0.411863 2.192034,0.411863 0.794633,0 1.52537,-0.137133 2.192122,-0.411863 0.676453,-0.284425 1.25498,-0.666729 1.73564,-1.147393 0.490362,-0.49036 0.872669,-1.053894 1.147395,-1.691543 0.274724,-0.647349 0.411862,-1.338841 0.411862,-2.074384 v -0.02952 c 0,-0.735543 -0.137138,-1.421663 -0.411862,-2.059311 C 52.986894,12.349044 52.609443,11.790276 52.11908,11.319319 51.638419,10.838654 51.064744,10.461208 50.397993,10.186484 49.7308,9.902052 49.000068,9.760063 48.205875,9.760063 Z m 47.632177,0 c -2.121522,0 -3.620798,1.250582 -3.620798,3.124277 v 0.0225 c 0,2.050083 1.322864,2.636154 3.427185,3.170614 1.722005,0.440973 2.091091,0.732942 2.091091,1.317231 v 0.02905 c 0,0.613395 -0.585995,0.975913 -1.508955,0.975913 -0.922952,0 -1.758155,-0.318861 -2.532062,-0.847148 -0.0097,-0.0066 -0.01941,-0.01279 -0.02911,-0.01941 -0.115976,-0.07717 -0.260167,-0.114636 -0.411863,-0.114636 -0.111568,0.0042 -0.227969,0.02692 -0.338652,0.08734 -0.08952,0.04893 -0.173318,0.119444 -0.25666,0.22307 l -0.857317,1.025261 c 0.847991,0.754947 1.848181,1.249722 2.893282,1.488289 0.489045,0.111562 0.995255,0.168031 1.496638,0.168031 0.583411,0 1.097994,-0.07494 1.563223,-0.217812 0.592228,-0.182123 1.083069,-0.475335 1.45702,-0.868685 C 99.714663,18.794334 100,18.081681 100,17.201499 v -0.02783 c 0,-1.803577 -1.174307,-2.557565 -3.285248,-3.108342 -1.79564,-0.45729 -2.231823,-0.682227 -2.231823,-1.361768 v -0.02911 c 0,-0.202849 0.07541,-0.389815 0.224021,-0.54019 0.215193,-0.2174 0.583417,-0.359843 1.102002,-0.359843 0.65793,0 1.329977,0.219158 2.013495,0.595749 0.173735,0.0904 0.260632,0.158766 0.506257,0.153479 0.164486,0 0.376586,-0.07807 0.511078,-0.23108 0.04498,-0.05159 0.09435,-0.112908 0.140649,-0.183026 l 0.709088,-1.031804 C 99.063776,10.576784 98.358259,10.205893 97.571123,9.987614 97.031812,9.838125 96.454101,9.760063 95.838058,9.760063 Z M 85.18545,9.862815 81.00766,20.234041 h 2.309424 l 0.784881,-1.972924 h 4.118708 l 0.862572,1.972924 H 91.45166 L 87.273962,9.862815 Z m -11.456433,0.07321 v 10.29716 h 6.772469 v -2.05931 h -4.507229 v -8.23785 z m -41.159608,4.42e-4 v 10.297592 h 2.236217 V 13.68783 l 4.392507,6.129528 c 0.187414,0.261499 0.489498,0.416688 0.811408,0.416688 h 1.414216 V 9.93645 h -2.236218 v 6.340289 L 34.956866,10.35357 C 34.769893,10.091633 34.46823,9.93645 34.146319,9.93645 H 32.56984 Z m 20.827633,0 4.163237,10.371227 h 2.00066 L 63.724171,9.936465 h -2.442056 l -2.692178,7.252201 -2.69218,-7.252201 z m 11.550407,0 v 10.297155 h 7.011474 V 18.218408 H 67.198129 V 16.05583 h 4.204753 V 14.040619 H 67.198129 V 11.95167 h 4.687153 V 9.936452 Z m -16.770687,1.911604 c 0.451116,0 0.868338,0.08862 1.250661,0.265011 0.382325,0.166692 0.710832,0.397304 0.985558,0.691437 0.284428,0.294128 0.500051,0.637273 0.647336,1.029738 0.156986,0.392465 0.23547,0.80916 0.23547,1.250576 v 0.02952 c 0,0.441415 -0.07849,0.85811 -0.23547,1.250575 -0.146844,0.382764 -0.357624,0.721058 -0.632352,1.015185 -0.265024,0.294127 -0.588676,0.524746 -0.971001,0.691431 -0.382765,0.166691 -0.799542,0.250028 -1.250657,0.250028 v -6.06e-4 c -0.460818,0 -0.882807,-0.08342 -1.26513,-0.250113 -0.372623,-0.176387 -0.701131,-0.411856 -0.985559,-0.705989 -0.274726,-0.294128 -0.490348,-0.637188 -0.647334,-1.029653 -0.146845,-0.392465 -0.220488,-0.80916 -0.220488,-1.250576 v -0.02952 c 0,-0.441415 0.0732,-0.853259 0.220488,-1.235586 0.156545,-0.392023 0.367762,-0.73561 0.632347,-1.029737 0.274726,-0.294134 0.598383,-0.524746 0.971005,-0.691438 0.382324,-0.166685 0.81401,-0.250028 1.265126,-0.250028 z M 0.1676038,11.917735 C 0.05471507,12.623732 0,13.34297 0,14.078071 c 0,7.774357 6.3041544,14.084704 14.078073,14.084704 7.773918,0 14.078072,-6.322693 14.078072,-14.084704 0,-0.735101 -0.05815,-1.454339 -0.167518,-2.160341 h -3.089053 v 8.31941 h -2.801989 v -8.31941 h -3.211612 v 8.31941 h -1.867074 c -0.696297,0 -1.034527,-0.205037 -1.392597,-0.776095 l -3.624336,-5.425352 h -0.05951 V 20.23714 H 9.2172033 V 11.91773 H 6.0236784 v 8.31941 H 3.1701842 v -8.31941 c -1.0005682,-6.06e-4 -2.0020115,6.06e-4 -3.0025804,0 z m 86.0325152,0.666801 1.367965,3.574467 h -2.735838 z" />
  <metadata
     id="metadata1">
    <rdf:RDF>
      <cc:Work
         rdf:about="">
        <dc:title>TNT Novelas logo - Brandlogos.net</dc:title>
      </cc:Work>
    </rdf:RDF>
  </metadata>
</svg>
