<?xml version="1.0" encoding="UTF-8" standalone="no"?>
<svg
   version="1.1"
   xml:space="preserve"
   height="1000"
   width="1000"
   enable-background="new 0 0 1000 999.839"
   y="0px"
   x="0px"
   viewBox="0 0 1000 999.99897"
   id="svg2"
   sodipodi:docname="CUADRADOS.svg"
   inkscape:version="1.4.2 (f4327f4, 2025-05-13)"
   xmlns:inkscape="http://www.inkscape.org/namespaces/inkscape"
   xmlns:sodipodi="http://sodipodi.sourceforge.net/DTD/sodipodi-0.dtd"
   xmlns="http://www.w3.org/2000/svg"
   xmlns:svg="http://www.w3.org/2000/svg"><defs
     id="defs2" /><sodipodi:namedview
     id="namedview2"
     pagecolor="#808080"
     bordercolor="#000000"
     borderopacity="0.25"
     inkscape:showpageshadow="2"
     inkscape:pageopacity="0.0"
     inkscape:pagecheckerboard="0"
     inkscape:deskcolor="#d1d1d1"
     inkscape:zoom="0.73511468"
     inkscape:cx="500.60217"
     inkscape:cy="499.922"
     inkscape:window-width="1920"
     inkscape:window-height="974"
     inkscape:window-x="-11"
     inkscape:window-y="-11"
     inkscape:window-maximized="1"
     inkscape:current-layer="svg2"
     showguides="false" /><path
     id="path1"
     style="display:inline;fill:#ffffff"
     d="M 499.84766 -0.00442125 C 275.72766 -0.00442125 86.018828 147.4562 22.548828 350.6362 L 323.87891 350.6362 L 323.88086 350.64011 L 421.89648 350.64011 C 446.57348 350.64011 458.88712 357.58175 471.20312 377.94675 L 572.42383 535.59519 L 575.92773 535.59519 L 575.92773 350.6362 L 977.11719 350.6362 C 913.64719 147.4562 723.98766 -0.00442125 499.84766 -0.00442125 z M 670.85352 423.18698 L 670.85352 718.62644 L 604.33789 718.62644 C 579.70789 718.62644 567.89813 711.62474 555.07812 691.28074 L 426.22852 498.38034 L 424.15039 498.38034 L 424.15039 718.62058 L 327.38867 718.62058 L 327.38867 423.19089 L 213.91797 423.19089 L 213.91797 718.62058 L 112.62891 718.62058 L 112.62891 423.19089 L 5.8574219 423.19089 C 1.9834219 448.16689 0 473.76809 0 499.84909 C 0 775.94909 223.84023 999.83933 499.99023 999.83933 C 776.11023 999.83933 1000 775.93909 1000 499.84909 L 999.99805 499.84714 C 999.99805 473.76714 997.97766 448.16699 994.09766 423.18698 L 884.31836 423.18698 L 884.31836 718.61667 L 784.69336 718.61667 L 784.69336 423.18698 L 670.85352 423.18698 z " /></svg>
