<?xml version="1.0" encoding="UTF-8" standalone="no"?>
<svg
   version="1.1"
   xml:space="preserve"
   height="100"
   width="100.01563"
   enable-background="new 0 0 1000 999.839"
   y="0px"
   x="0px"
   viewBox="0 0 100.01563 99.999897"
   id="svg2"
   sodipodi:docname="TNT.svg"
   inkscape:version="1.4.2 (f4327f4, 2025-05-13)"
   xmlns:inkscape="http://www.inkscape.org/namespaces/inkscape"
   xmlns:sodipodi="http://sodipodi.sourceforge.net/DTD/sodipodi-0.dtd"
   xmlns="http://www.w3.org/2000/svg"
   xmlns:svg="http://www.w3.org/2000/svg"><defs
     id="defs2" /><sodipodi:namedview
     id="namedview2"
     pagecolor="#808080"
     bordercolor="#000000"
     borderopacity="0.25"
     inkscape:showpageshadow="2"
     inkscape:pageopacity="0.0"
     inkscape:pagecheckerboard="0"
     inkscape:deskcolor="#d1d1d1"
     inkscape:zoom="7.35"
     inkscape:cx="49.931973"
     inkscape:cy="50"
     inkscape:window-width="1920"
     inkscape:window-height="974"
     inkscape:window-x="-11"
     inkscape:window-y="-11"
     inkscape:window-maximized="1"
     inkscape:current-layer="svg2"
     showguides="true"><sodipodi:guide
       position="99.339844,0"
       orientation="0,-1"
       id="guide1"
       inkscape:locked="false" /></sodipodi:namedview><path
     id="path1"
     style="display:inline;fill:#ffffff;stroke-width:0.100016"
     d="M 49.992577,-5.15e-5 C 27.577074,-5.15e-5 8.6032269,14.748315 2.2552351,35.06949 H 32.392952 l 2e-4,4e-4 h 9.803093 c 2.468085,0 3.699643,0.694273 4.931435,2.731091 l 10.123652,15.767307 h 0.350445 V 35.06949 h 40.12521 C 91.378995,14.748315 72.410079,-5.15e-5 49.992577,-5.15e-5 Z M 67.095835,42.325702 v 29.548562 h -6.652603 c -2.463385,0 -3.644545,-0.700279 -4.926747,-2.734997 L 42.629512,49.846212 H 42.421667 V 71.873678 H 32.743983 V 42.326093 H 21.39514 V 71.873678 H 11.264651 V 42.326093 H 0.58583372 C 0.19837318,44.824083 0,47.384603 0,49.993111 c 0,27.614313 22.38752,50.006838 50.006836,50.006838 27.616314,0 50.008794,-22.393525 50.008794,-50.006838 l -2e-4,-2e-4 c 0,-2.608408 -0.202075,-5.168823 -0.590135,-7.667214 H 88.445649 v 29.547585 h -9.964057 v -29.54758 z" /></svg>
