<?xml version="1.0" encoding="UTF-8" standalone="no"?>
<svg
   version="1.1"
   id="Layer_1_1_"
   x="0px"
   y="0px"
   viewBox="0 0 97.177016 99.999999"
   xml:space="preserve"
   sodipodi:docname="Logo_Univision_2019.svg"
   width="97.177017"
   height="100"
   inkscape:version="1.4.2 (f4327f4, 2025-05-13)"
   xmlns:inkscape="http://www.inkscape.org/namespaces/inkscape"
   xmlns:sodipodi="http://sodipodi.sourceforge.net/DTD/sodipodi-0.dtd"
   xmlns="http://www.w3.org/2000/svg"
   xmlns:svg="http://www.w3.org/2000/svg"
   xmlns:rdf="http://www.w3.org/1999/02/22-rdf-syntax-ns#"
   xmlns:cc="http://creativecommons.org/ns#"
   xmlns:dc="http://purl.org/dc/elements/1.1/"><metadata
   id="metadata63"><rdf:RDF><cc:Work
       rdf:about=""><dc:format>image/svg+xml</dc:format><dc:type
         rdf:resource="http://purl.org/dc/dcmitype/StillImage" /></cc:Work></rdf:RDF></metadata><defs
   id="defs61" /><sodipodi:namedview
   pagecolor="#ffffff"
   bordercolor="#666666"
   borderopacity="1"
   objecttolerance="10"
   gridtolerance="10"
   guidetolerance="10"
   inkscape:pageopacity="0"
   inkscape:pageshadow="2"
   inkscape:window-width="1920"
   inkscape:window-height="974"
   id="namedview59"
   showgrid="false"
   inkscape:zoom="7.35"
   inkscape:cx="48.571429"
   inkscape:cy="50"
   inkscape:window-x="-11"
   inkscape:window-y="-11"
   inkscape:window-maximized="1"
   inkscape:current-layer="Layer_1_1_"
   inkscape:showpageshadow="2"
   inkscape:pagecheckerboard="0"
   inkscape:deskcolor="#d1d1d1" />
<style
   type="text/css"
   id="style2">
	.st0{fill:#6D6D6D;}
	.st1{fill:url(#SVGID_1_);}
	.st2{fill:url(#SVGID_2_);}
	.st3{fill:url(#SVGID_3_);}
	.st4{fill:url(#SVGID_4_);}
</style>
<g
   id="g54"
   transform="matrix(0.33211558,0,0,0.33211558,-34.307539,0)">
		
			<linearGradient
   id="SVGID_1_"
   gradientUnits="userSpaceOnUse"
   x1="221.05991"
   y1="307.17068"
   x2="395.80829"
   y2="307.17068"
   gradientTransform="matrix(1,0,0,-1,0,392.535)">
			<stop
   offset="0"
   style="stop-color:#4EBF89"
   id="stop26" />
			<stop
   offset="1"
   style="stop-color:#13AB65"
   id="stop28" />
		</linearGradient>
		<path
   class="st1"
   d="m 221.1,0 v 65.4 105.1 c 8.4,0 55.9,1.2 96,-2.4 10.1,-1.1 20,-2.3 29.4,-3.9 23.1,-4.4 42.6,-11.3 49.4,-16.9 V 17 C 378.3,3.9 304.2,0 221.1,0 Z"
   id="path31"
   style="fill:#00c473;fill-opacity:1" />
		
			<radialGradient
   id="SVGID_2_"
   cx="220.2439"
   cy="218.6161"
   r="168.6837"
   gradientTransform="matrix(1,0,0,-1,0,392.535)"
   gradientUnits="userSpaceOnUse">
			<stop
   offset="0"
   style="stop-color:#151BDA"
   id="stop33" />
			<stop
   offset="1"
   style="stop-color:#091E90"
   id="stop35" />
		</radialGradient>
		<path
   class="st2"
   d="m 395.8,149.5 v -2.2 c -6.8,5.6 -26.2,12.5 -49.4,16.9 -9.4,1.6 -19.3,3 -29.4,3.9 -40.1,3.5 -87.6,2.4 -96,2.4 0,1 0,1.9 0,2.9 0,6.8 0.1,12.6 0.3,19.2 0,1.8 0.1,3.5 0.1,5.4 0.3,8.3 0.5,16.5 1.1,24.5 1.1,16.9 3,32.6 5.8,45.8 3.3,14.8 7.9,26.2 14.4,32.4 0.1,0.1 0.3,0.3 0.3,0.3 2,0.1 4.2,0.1 6.4,0.1 49.6,0 93.4,-24.6 119.8,-62.4 9.5,-13.6 16.9,-31.4 21.4,-50 3.3,-12.5 5.2,-25.6 5.2,-39 v 0 z"
   id="path38"
   style="fill:#1d1dea;fill-opacity:1" />
		
			<radialGradient
   id="SVGID_3_"
   cx="220.2439"
   cy="218.6161"
   r="168.6837"
   gradientTransform="matrix(1,0,0,-1,0,392.535)"
   gradientUnits="userSpaceOnUse">
			<stop
   offset="0"
   style="stop-color:#DE1B20"
   id="stop40" />
			<stop
   offset="1"
   style="stop-color:#A31E24"
   id="stop42" />
		</radialGradient>
		<path
   class="st3"
   d="m 243,300.7 c -6.5,-6.1 -11.2,-17.5 -14.4,-32.4 -3,-13.2 -4.8,-29 -5.8,-45.8 -0.5,-8 -1,-16.2 -1.1,-24.5 0,-1.9 -0.1,-3.7 -0.1,-5.4 -0.1,-6.5 -0.3,-12.4 -0.3,-19.2 0,-1 0,-1.9 0,-2.9 -38.5,0 -71.9,-2.9 -87.9,-5.8 -16.9,-3 -28,-9.2 -29.9,-12.4 0,14.4 2,30.7 6,43.9 4.5,15.5 11.6,29.8 20.7,42.7 25.3,36 66.5,60 113.3,62 -0.4,-0.1 -0.5,-0.1 -0.5,-0.2 z"
   id="path45"
   style="fill:#ff0000;fill-opacity:1" />
		
			<linearGradient
   id="SVGID_4_"
   gradientUnits="userSpaceOnUse"
   x1="103.2917"
   y1="302.30499"
   x2="221.05991"
   y2="302.30499"
   gradientTransform="matrix(1,0,0,-1,0,392.535)">
			<stop
   offset="0"
   style="stop-color:#A62B9A"
   id="stop47" />
			<stop
   offset="1"
   style="stop-color:#BB25AB"
   id="stop49" />
		</linearGradient>
		<path
   class="st4"
   d="m 109,10.1 c -3.1,0 -5.7,2.6 -5.7,5.7 v 136.5 c 1.9,3.1 13.1,9.2 29.9,12.4 2.6,0.4 5.6,1 9.1,1.4 17.8,2.3 46.5,4.4 78.7,4.4 V 65.5 C 184.6,18.5 128.3,10.1 109,10.1 Z"
   id="path52"
   style="fill:#c626b6;fill-opacity:1" />
	</g>
</svg>
