<?xml version="1.0" encoding="UTF-8" standalone="no"?>
<!-- Created with Inkscape (http://www.inkscape.org/) -->

<svg
   version="1.1"
   width="100"
   height="96.565338"
   id="svg2"
   sodipodi:docname="Warner Bros TV.svg"
   inkscape:version="1.4.2 (f4327f4, 2025-05-13)"
   xml:space="preserve"
   xmlns:inkscape="http://www.inkscape.org/namespaces/inkscape"
   xmlns:sodipodi="http://sodipodi.sourceforge.net/DTD/sodipodi-0.dtd"
   xmlns="http://www.w3.org/2000/svg"
   xmlns:svg="http://www.w3.org/2000/svg"
   xmlns:rdf="http://www.w3.org/1999/02/22-rdf-syntax-ns#"
   xmlns:cc="http://creativecommons.org/ns#"
   xmlns:dc="http://purl.org/dc/elements/1.1/"><sodipodi:namedview
     id="namedview1"
     pagecolor="#979797"
     bordercolor="#000000"
     borderopacity="0.25"
     inkscape:showpageshadow="2"
     inkscape:pageopacity="0.0"
     inkscape:pagecheckerboard="0"
     inkscape:deskcolor="#d1d1d1"
     inkscape:zoom="7.6114268"
     inkscape:cx="49.990627"
     inkscape:cy="48.282669"
     inkscape:window-width="1920"
     inkscape:window-height="974"
     inkscape:window-x="-11"
     inkscape:window-y="-11"
     inkscape:window-maximized="1"
     inkscape:current-layer="svg2"
     showguides="false"><sodipodi:guide
       position="69.152344,36.286041"
       orientation="1,0"
       id="guide19"
       inkscape:locked="false" /><sodipodi:guide
       position="69.152344,36.286018"
       orientation="0,-1"
       id="guide20"
       inkscape:locked="false" /><sodipodi:guide
       position="100,36.286018"
       orientation="1,0"
       id="guide21"
       inkscape:locked="false" /><sodipodi:guide
       position="84.404531,20.683892"
       orientation="0,-1"
       id="guide22"
       inkscape:locked="false" /><sodipodi:guide
       position="83.830067,51.551653"
       orientation="0,-1"
       id="guide23"
       inkscape:locked="false" /><sodipodi:guide
       position="47.304688,93.442291"
       orientation="1,0"
       id="guide24"
       inkscape:locked="false" /><sodipodi:guide
       position="66.619244,84.139601"
       orientation="0,-1"
       id="guide25"
       inkscape:locked="false" /><sodipodi:guide
       position="67.687603,79.973585"
       orientation="0,-1"
       id="guide26"
       inkscape:locked="false" /><sodipodi:guide
       position="27.082134,84.139601"
       orientation="0.93152131,-0.36368674"
       id="guide27"
       inkscape:locked="false" /><sodipodi:guide
       position="25.455628,79.973585"
       orientation="0.1941524,-0.98097138"
       id="guide28"
       inkscape:locked="false" /></sodipodi:namedview><defs
     id="defs4" /><metadata
     id="metadata7"><rdf:RDF><cc:Work
         rdf:about=""><dc:format>image/svg+xml</dc:format><dc:type
           rdf:resource="http://purl.org/dc/dcmitype/StillImage" /></cc:Work></rdf:RDF></metadata><g
     id="g10"
     style="display:inline;opacity:1"><path
       d="M 47.304687,6.9756406 C 40.156738,8.016115 25.898964,10.333076 25.898964,10.333076 l -1.722133,4.409737 -7.593511,1.50299 c -0.385891,0.07637 -0.488889,0.506136 -0.541656,0.800078 l -0.30804,1.715932 c -0.05684,0.316604 -0.232526,0.55032 -0.564397,0.638822 l -7.8457326,2.092196 0.024808,6.888532 C 7.4464522,56.276328 20.744474,76.619722 47.304687,89.418891 73.8649,76.619722 87.162923,56.276328 87.261071,28.381363 l 0.02481,-6.888532 -7.845734,-2.092196 c -0.331869,-0.0885 -0.507559,-0.322218 -0.564396,-0.638822 l -0.30804,-1.715932 c -0.05277,-0.293942 -0.155765,-0.723703 -0.541656,-0.800078 l -7.593511,-1.50299 -1.722133,-4.409737 c 0,0 -14.257776,-2.316961 -21.405724,-3.3574354 z"
       style="display:inline;opacity:1;vector-effect:none;fill:#040850;fill-rule:evenodd;stroke-width:69.5091;stroke-linejoin:round;stop-color:#000000;stop-opacity:1;fill-opacity:1"
       id="path32" /><path
       id="path7"
       style="font-variation-settings:normal;display:inline;opacity:1;vector-effect:none;fill:#ffffff;fill-opacity:1;fill-rule:evenodd;stroke-width:65.6674;stroke-linecap:butt;stroke-linejoin:round;stroke-miterlimit:4;stroke-dasharray:none;stroke-dashoffset:0;stroke-opacity:1;-inkscape-stroke:none;stop-color:#000000;stop-opacity:1"
       d="m 50.46875,14.03125 c -0.351732,0.0083 -0.488737,0.08053 -0.617188,0.203125 -0.0023,0.01077 -0.0052,0.01395 -0.0078,0.0293 -0.01152,0.06719 -0.02324,0.174767 -0.03516,0.318359 -0.02384,0.287186 -0.04663,0.722161 -0.06641,1.320313 -0.03956,1.196304 -0.0702,3.049232 -0.09375,5.71875 -0.04709,5.339036 -0.06445,13.948123 -0.06445,27.144531 0,11.890246 0.02269,16.709332 0.04883,21.8125 0.05767,1.80868 0.01731,11.5594 0.140626,11.5625 0.02386,0.297566 0.05192,0.451904 0.07617,0.554687 0.06842,-0.03679 0.105626,-0.05469 0.236329,-0.132812 0.210366,-0.12574 0.490313,-0.298931 0.818359,-0.505859 0.656092,-0.413857 1.505531,-0.963668 2.388672,-1.548829 5.262366,-3.486805 9.425308,-7.273496 13.978515,-12.716796 1.160506,-1.387377 1.742947,-2.092578 1.990235,-2.535157 0.247296,-0.442578 0.198588,-0.595548 0.09766,-1.103515 -0.124211,-0.624972 -0.208131,-2.322973 -0.207031,-3.873047 0.0029,-4.478809 1.367405,-7.842009 4.429687,-10.904297 l 1.078125,-1.076172 -0.664062,-1.267578 C 73.610694,46.295118 72.6375,44.999981 71.87306,44.218753 l -1.597656,-1.632812 2.376953,-1.759766 c 3.442511,-2.547231 5.225546,-4.355182 6.105468,-6.142578 0.799945,-1.624915 1.013621,-2.94889 0.576172,-4.355469 C 78.896523,28.921543 77.782115,27.414283 75.869141,25.511719 70.761866,20.432213 63.730131,16.886891 54.486328,14.751953 52.242339,14.233688 51.079417,14.01749 50.46875,14.03125 Z m 6.580078,8.142578 2.00586,0.685547 c 2.975684,1.017832 5.686206,2.31381 7.755859,3.648437 2.069653,1.334629 3.509763,2.686902 3.919922,3.929688 0.414234,1.255131 -0.04345,2.671397 -1.207031,4.113281 -1.163582,1.441884 -3.041639,2.937086 -5.560547,4.408203 -1.79089,1.045947 -4.884313,2.53932 -6.058594,2.910157 l -0.855469,0.269531 v -9.978516 z m 6.353516,25.386719 h 0.002 c 1.463354,0.05817 2.59539,0.722658 3.224609,1.943359 0.721509,1.399743 0.484164,3.898609 -0.484375,6.207032 -1.321964,3.15077 -4.645728,8.159176 -7.498047,11.3125 l -1.322265,1.460937 -0.0098,-9.773437 -0.01172,-9.353516 2.107422,-0.894531 c 1.511198,-0.641557 2.848049,-0.943831 3.984375,-0.900391 h 0.002 c 9e-4,-3e-4 0.005,-0.0018 0.0059,-0.002 z" /><path
       style="font-variation-settings:normal;opacity:1;vector-effect:none;fill:#ffffff;fill-opacity:1;fill-rule:evenodd;stroke-width:65.6674;stroke-linecap:butt;stroke-linejoin:round;stroke-miterlimit:4;stroke-dasharray:none;stroke-dashoffset:0;stroke-opacity:1;-inkscape-stroke:none;stop-color:#000000;stop-opacity:1"
       d="m 42.701172,13.761719 c -1.702676,0.04604 -3.94996,0.511781 -4.863281,1.109375 l -0.46875,0.30664 0.136718,20.962891 c 0.04351,6.697809 0.05519,11.932339 0.03711,15.464844 -0.009,1.766252 -0.02674,3.108171 -0.05078,3.99414 -0.01202,0.442985 -0.02483,0.769748 -0.04102,0.986329 -0.0081,0.10829 -0.01497,0.185929 -0.02734,0.25 -0.0062,0.03204 -0.0025,0.05367 -0.04102,0.117187 -0.0048,0.0079 -0.01143,0.01734 -0.01953,0.02734 -0.0081,0.01 -0.03262,0.03273 -0.0332,0.0332 -5.8e-4,4.7e-4 -0.05606,0.03297 -0.05664,0.0332 -5.8e-4,2.4e-4 -0.0834,0.01563 -0.08398,0.01563 -5.9e-4,0 -0.08144,-0.01539 -0.08203,-0.01563 -5.9e-4,-2.4e-4 -0.05605,-0.03078 -0.05664,-0.03125 -6e-4,-4.7e-4 -0.02315,-0.0236 -0.03125,-0.0332 -0.0081,-0.0096 -0.01463,-0.01769 -0.01953,-0.02539 -0.07029,-0.110704 -0.134372,-0.268648 -0.226562,-0.509765 -0.09219,-0.241118 -0.202921,-0.554239 -0.326172,-0.921875 -0.246503,-0.735273 -0.543169,-1.688799 -0.837891,-2.71875 -0.589444,-2.059903 -1.169549,-4.412351 -1.318359,-5.921875 -0.487084,-4.940948 -1.309686,-8.71477 -1.564454,-20.015625 -0.06878,-3.050934 -0.05644,-5.513676 -0.03711,-7.244141 0.0097,-0.865232 0.02109,-1.548068 0.02539,-2.027344 0.0022,-0.239638 0.0025,-0.428839 0,-0.5625 -0.0013,-0.06683 -0.0034,-0.11996 -0.0059,-0.15625 -0.0016,-0.02213 -0.0052,-0.04012 -0.0059,-0.04492 v -0.002 c -0.045,-0.135495 -0.116841,-0.227891 -0.230469,-0.300781 -0.116983,-0.07503 -0.286057,-0.126285 -0.511718,-0.140625 -0.451325,-0.02868 -1.118658,0.0989 -1.957032,0.402344 -1.177988,0.426362 -2.157801,0.852427 -2.875,1.242187 -0.715656,0.388922 -1.166598,0.764333 -1.28125,0.976563 v 0.002 c -0.0027,0.01496 -0.03395,0.121705 -0.05273,0.261719 -0.02146,0.160015 -0.0416,0.378236 -0.05859,0.646484 -0.01953,0.308309 -0.02801,0.804622 -0.04102,1.232422 -0.170383,1.978823 0.04888,7.08599 0.214844,12.558594 0.107337,3.04088 0.184147,6.479605 0.357422,8.242187 l 0.462891,4.695313 -0.810547,1.402343 -1.021484,1.767578 -1.171876,-3.671874 c -1.999427,-6.254185 -2.609154,-10.126057 -3.074218,-19.50586 -0.0557,-1.123449 -0.127156,-2.177967 -0.197266,-2.970703 -0.03505,-0.396368 -0.06978,-0.728394 -0.101562,-0.966797 -0.01589,-0.119201 -0.03166,-0.21459 -0.04492,-0.28125 -0.0082,-0.04144 -0.02249,-0.07772 -0.02539,-0.08789 -0.06415,-0.06922 -0.263919,-0.178341 -0.386719,-0.181641 v 0.002 c -0.01375,0.0066 -0.11265,0.02919 -0.222656,0.08008 -0.135392,0.06263 -0.315151,0.158845 -0.523437,0.277344 -0.416573,0.236997 -0.949306,0.568829 -1.515625,0.941406 -1.132639,0.745155 -2.399128,1.654338 -3.13086,2.283203 l -0.912109,0.783203 0.283203,3.951172 c 0.752966,10.553853 2.59133,18.189189 5.865234,24.410156 0.587987,1.117275 1.564701,2.685662 2.488282,4.048829 0.46179,0.681583 0.910866,1.311985 1.291015,1.810547 0.380149,0.49856 0.703004,0.872413 0.861328,1.003906 0.01574,0.01307 0.02114,0.02004 0.02344,0.02344 v 0.002 h 0.002 c 0.0027,-0.0017 0.0098,-0.0067 0.02734,-0.01367 0.04668,-0.01879 0.165438,-0.106282 0.332031,-0.294921 0.333185,-0.37728 0.864481,-1.133204 1.734375,-2.431641 0.567217,-0.846648 1.095084,-1.61643 1.488281,-2.175781 0.196599,-0.279676 0.359388,-0.506703 0.478516,-0.666016 0.05956,-0.07966 0.107844,-0.142923 0.146484,-0.189453 0.01932,-0.02327 0.03589,-0.04163 0.05469,-0.06055 0.0094,-0.0095 0.01802,-0.01824 0.03516,-0.03125 0.0086,-0.0065 0.01865,-0.01404 0.03711,-0.02344 0.0092,-0.0047 0.03656,-0.01546 0.03711,-0.01563 5.5e-4,-2e-4 0.06402,-0.0098 0.06445,-0.0098 8.8e-4,0 0.0482,0.0043 0.06641,0.0098 0.01821,0.0055 0.03291,0.01293 0.04492,0.01953 0.02402,0.01323 0.03915,0.0243 0.05078,0.03516 0.02326,0.02172 0.03346,0.04019 0.04492,0.05664 0.02293,0.0329 0.04082,0.06455 0.06055,0.103515 0.03946,0.07793 0.08455,0.18014 0.134766,0.304688 0.10043,0.249096 0.222267,0.585319 0.34375,0.957031 0.591267,1.809137 2.673252,7.010512 3.792968,9.46875 2.214853,4.862478 3.582228,7.140585 6.259766,10.4375 0.722074,0.889104 2.023995,2.249486 3.189453,3.378906 0.582729,0.564711 1.132123,1.07361 1.556641,1.4375 0.203952,0.174825 0.3751,0.311824 0.507812,0.408203 0.0046,-0.103458 0.01102,-0.196569 0.01563,-0.353515 0.01338,-0.456052 0.02475,-1.132923 0.03711,-2.001953 0.02472,-1.73806 0.04766,-4.252023 0.06641,-7.355469 0.03749,-6.206891 0.06055,-14.76938 0.06055,-24.1875 0,-12.474594 -0.0211,-18.15976 -0.05273,-23.279297 -0.04678,-1.301325 -0.02123,-8.749492 -0.103515,-8.984375 -0.01147,-0.281645 -0.01617,-0.929486 -0.0293,-1.136719 -0.02694,-0.425326 -0.0573,-0.704958 -0.08984,-0.878906 -0.02441,-0.130464 -0.0554,-0.196914 -0.0625,-0.214844 l -0.002,-0.002 v -0.002 c -0.08772,-0.0845 -0.339935,-0.19167 -0.697266,-0.25 -0.361381,-0.05896 -0.825131,-0.0822 -1.335937,-0.06836 z"
       id="path6"
       sodipodi:nodetypes="cccccsscsssssssscssssscccccccsssccsscccccccsssccccssscccssssccccsssssccccsscssssscssscssssccsscccccc" /><path
       id="path5"
       style="font-variation-settings:normal;opacity:1;vector-effect:none;fill:#f9003d;fill-opacity:1;fill-rule:evenodd;stroke-width:65.6674;stroke-linecap:butt;stroke-linejoin:round;stroke-miterlimit:4;stroke-dasharray:none;stroke-dashoffset:0;stroke-opacity:1;-inkscape-stroke:none;stop-color:#000000;stop-opacity:1"
       d="M 47.304688,3.1230469 23.78125,6.9472656 22.865234,10.072266 c -0.12667,0.432138 -0.196528,0.940301 -0.554687,1.033203 l -8.373047,2.171875 -0.306641,2.402344 c -0.174022,1.011006 -0.78734,1.152728 -2.097656,1.429687 -2.669676,0.59224 -5.378707,1.075186 -8.0253905,1.742187 -0.4176734,1.178786 -0.5853932,9.284563 -0.3222656,13.388672 1.110679,17.323564 8.8475291,44.954322 44.1191411,60.791016 35.271611,-15.836694 43.008461,-43.467452 44.11914,-60.791016 0.263128,-4.104109 0.09541,-12.209886 -0.322266,-13.388672 -2.646681,-0.667001 -5.355714,-1.149947 -8.02539,-1.742187 -1.310316,-0.276959 -1.923634,-0.418681 -2.097656,-1.429687 l -0.306641,-2.402344 -8.373047,-2.171875 c -0.358159,-0.0929 -0.428017,-0.601065 -0.554687,-1.033203 L 70.828125,6.9472656 Z m 0,6.1308593 c 6.75289,0.9829688 20.222656,3.1718748 20.222656,3.1718748 l 1.626953,4.166016 7.173828,1.419922 c 0.364563,0.07215 0.461869,0.478162 0.511719,0.755859 l 0.291015,1.621094 c 0.0537,0.299106 0.219675,0.519905 0.533203,0.603516 l 7.41211,1.976562 -0.02344,6.507812 C 84.96001,55.829809 72.396952,75.04885 47.304688,87.140625 22.212423,75.04885 9.6493652,55.829809 9.5566406,29.476562 L 9.5332031,22.96875 16.945312,20.992188 c 0.313529,-0.08361 0.479508,-0.30441 0.533204,-0.603516 l 0.291015,-1.621094 c 0.04985,-0.277697 0.147156,-0.683705 0.511719,-0.755859 l 7.173828,-1.419922 1.626953,-4.166016 c 0,0 13.469765,-2.188906 20.222657,-3.1718748 z" /><circle
       style="display:inline;opacity:1;fill:#ffffff;fill-rule:evenodd;stroke-width:1.0271"
       id="path23"
       cx="84.158119"
       cy="60.447563"
       r="15.841881" /><path
       style="font-variation-settings:normal;display:inline;opacity:1;vector-effect:none;fill:#040850;fill-opacity:1;fill-rule:evenodd;stroke-width:65.6674;stroke-linecap:butt;stroke-linejoin:round;stroke-miterlimit:4;stroke-dasharray:none;stroke-dashoffset:0;stroke-opacity:1;-inkscape-stroke:none;stop-color:#000000;stop-opacity:1"
       d="m 74.296875,54.763672 v 1.568359 1.566407 h 1.056641 1.492187 v 4.802734 4.36914 h 1.820313 1.822265 v -4.511718 -4.957032 l 1.421875,0.0918 1.326172,0.08594 1.951172,4.775391 1.845703,4.515624 h 1.550781 1.539063 l 0.609375,-1.826171 c 0.364473,-1.089507 1.354209,-3.955146 2.201172,-6.373047 l 1.439453,-4.107422 h -1.923828 -2.066407 l -0.822265,2.882812 c -0.247126,0.865501 -0.485929,1.596608 -0.679688,2.097657 -0.09688,0.250524 -0.182185,0.44176 -0.259765,0.576171 -0.0388,0.06721 -0.06707,0.120412 -0.134766,0.175782 -0.03385,0.02768 -0.08781,0.0647 -0.175781,0.0625 -0.08797,-0.0022 -0.169842,-0.06789 -0.201172,-0.117188 -0.05716,-0.08995 -0.09346,-0.191092 -0.164063,-0.36914 -0.0706,-0.178048 -0.158943,-0.412864 -0.259765,-0.689454 -0.201644,-0.553176 -0.452392,-1.272503 -0.705078,-2.027343 l -0.869141,-2.591797 h -5.9375 z"
       id="path10" /></g></svg>
