<?xml version="1.0" encoding="UTF-8" standalone="no"?>
<svg
   width="100"
   height="53.786396"
   viewBox="0 0 93.750004 50.424744"
   version="1.1"
   id="svg2"
   sodipodi:docname="Animal Planet.svg"
   inkscape:version="1.4.2 (f4327f4, 2025-05-13)"
   xmlns:inkscape="http://www.inkscape.org/namespaces/inkscape"
   xmlns:sodipodi="http://sodipodi.sourceforge.net/DTD/sodipodi-0.dtd"
   xmlns="http://www.w3.org/2000/svg"
   xmlns:svg="http://www.w3.org/2000/svg">
  <defs
     id="defs2" />
  <sodipodi:namedview
     id="namedview2"
     pagecolor="#ffffff"
     bordercolor="#000000"
     borderopacity="0.25"
     inkscape:showpageshadow="2"
     inkscape:pageopacity="0.0"
     inkscape:pagecheckerboard="0"
     inkscape:deskcolor="#d1d1d1"
     inkscape:zoom="9.58"
     inkscape:cx="50"
     inkscape:cy="26.878914"
     inkscape:window-width="1920"
     inkscape:window-height="974"
     inkscape:window-x="-11"
     inkscape:window-y="-11"
     inkscape:window-maximized="1"
     inkscape:current-layer="svg2" />
  <path
     fill="#0074ff"
     d="m 47.365768,0 v 14.812993 c 0,0 2.300409,1.882786 3.394643,3.394653 -5.635364,-3.676647 -11.622443,-5.220936 -18.902523,-5.220936 -11.984074,0 -22.8955891,5.552372 -28.2825948,14.742611 l 0.6953246,1.30689 c 0,0 2.3440459,-2.818214 7.7600222,-5.582311 C 6.1149647,29.289586 3.6372284,33.944863 0,44.67873 l 5.7697255,5.746017 C 13.318912,41.978219 24.425786,36.397335 36.964145,36.397335 c 11.864156,0 22.788771,5.309829 29.618711,12.368785 l 6.215179,-6.233871 C 69.313861,36.569475 64.789581,31.070081 61.193411,27.251925 c 3.720743,2.124818 9.661107,3.340121 15.335411,3.340121 C 86.455711,30.592046 93.75,25.24709 93.75,17.969609 93.75,9.0047535 86.063714,3.5489748 73.526879,1.4744401 l -2.027341,3.401257 c 6.309184,1.1251216 16.124442,4.7972424 16.124442,11.3572239 0,3.598502 -2.783759,6.616826 -6.794526,6.616826 -4.956964,0 -9.07358,-5.527864 -11.575068,-10.409249 l -3.828487,-0.09213 C 61.031901,6.9110151 53.92837,1.6049566 47.365768,2.1301858e-5 Z"
     id="path2"
     style="stroke-width:0.128629;fill:#ffffff" />
</svg>
