<?xml version="1.0" encoding="UTF-8" standalone="no"?>
<svg
   width="100"
   height="44.532299"
   viewBox="0 0 100 44.532299"
   version="1.1"
   id="svg30"
   sodipodi:docname="65 sin título_20250924004230.svg"
   xml:space="preserve"
   inkscape:version="1.4.2 (f4327f4, 2025-05-13)"
   xmlns:inkscape="http://www.inkscape.org/namespaces/inkscape"
   xmlns:sodipodi="http://sodipodi.sourceforge.net/DTD/sodipodi-0.dtd"
   xmlns:xlink="http://www.w3.org/1999/xlink"
   xmlns="http://www.w3.org/2000/svg"
   xmlns:svg="http://www.w3.org/2000/svg"><sodipodi:namedview
     id="namedview30"
     pagecolor="#6a6a6a"
     bordercolor="#000000"
     borderopacity="0.25"
     inkscape:showpageshadow="2"
     inkscape:pageopacity="0.0"
     inkscape:pagecheckerboard="0"
     inkscape:deskcolor="#d1d1d1"
     showguides="false"
     inkscape:zoom="8.99"
     inkscape:cx="50"
     inkscape:cy="22.302558"
     inkscape:window-width="1920"
     inkscape:window-height="974"
     inkscape:window-x="-11"
     inkscape:window-y="-11"
     inkscape:window-maximized="1"
     inkscape:current-layer="svg30"><sodipodi:guide
       position="356.959,909.212"
       orientation="0,-1"
       id="guide30"
       inkscape:locked="false" /><sodipodi:guide
       position="642.999,608.536"
       orientation="1,0"
       id="guide31"
       inkscape:locked="false" /><sodipodi:guide
       position="962.492,27"
       orientation="1,0"
       id="guide32"
       inkscape:locked="false" /><sodipodi:guide
       position="356.95759,909.212"
       orientation="1,0"
       id="guide34"
       inkscape:locked="false" /><sodipodi:guide
       position="2334.6685,494.73376"
       orientation="0,-1"
       id="guide35"
       inkscape:locked="false" /><sodipodi:guide
       position="2143.78,698.494"
       orientation="1,0"
       id="guide36"
       inkscape:locked="false" /><sodipodi:guide
       position="1696.62,280.07"
       orientation="1,0"
       id="guide37"
       inkscape:locked="false" /><sodipodi:guide
       position="1694.25,932.313"
       orientation="0,-1"
       id="guide38"
       inkscape:locked="false" /><sodipodi:guide
       position="1346.43,668.013"
       orientation="1,0"
       id="guide39"
       inkscape:locked="false" /><sodipodi:guide
       position="962.492,909.212"
       orientation="0.80345436,0.59536635"
       id="guide40"
       inkscape:locked="false" /><sodipodi:guide
       position="1181.21,138.34"
       orientation="-0.81426668,-0.58049098"
       id="guide41"
       inkscape:label=""
       inkscape:locked="false"
       inkscape:color="rgb(0,134,229)" /><sodipodi:guide
       position="857.28062,592.72242"
       orientation="0,-1"
       id="guide42"
       inkscape:locked="false" /><sodipodi:guide
       position="24.264114,34.351645"
       orientation="1,0"
       id="guide54"
       inkscape:locked="false" /><sodipodi:guide
       position="13.470114,15.407422"
       orientation="0,-1"
       id="guide55"
       inkscape:locked="false" /><sodipodi:guide
       position="16.981374,10.231384"
       orientation="0,-1"
       id="guide56"
       inkscape:locked="false" /><sodipodi:guide
       position="36.320454,1.0605536"
       orientation="0,-1"
       id="guide57"
       inkscape:locked="false" /><sodipodi:guide
       position="0.56182266,34.351686"
       orientation="1,0"
       id="guide58"
       inkscape:locked="false" /></sodipodi:namedview><defs
     id="defs4"><linearGradient
       id="linearGradient53"
       inkscape:collect="always"><stop
         style="stop-color:#f3f0f1;stop-opacity:1;"
         offset="0"
         id="stop53" /><stop
         style="stop-color:#d1d2d9;stop-opacity:1;"
         offset="1"
         id="stop54" /></linearGradient><linearGradient
       id="linearGradient51"
       inkscape:collect="always"><stop
         style="stop-color:#928189;stop-opacity:1;"
         offset="0"
         id="stop51" /><stop
         style="stop-color:#eeeeed;stop-opacity:1;"
         offset="1"
         id="stop52" /></linearGradient><linearGradient
       id="linearGradient42"
       inkscape:collect="always"><stop
         style="stop-color:#f2f2f2;stop-opacity:1;"
         offset="0"
         id="stop42" /><stop
         style="stop-color:#99a2a7;stop-opacity:1;"
         offset="1"
         id="stop43" /></linearGradient><linearGradient
       id="gradient_0"
       gradientUnits="userSpaceOnUse"
       x1="1590.9501"
       y1="425.63422"
       x2="1816.7083"
       y2="820.48773"><stop
         offset="0"
         stop-color="#7A656E"
         id="stop3" /><stop
         offset="1"
         stop-color="#C4BBBD"
         id="stop4" /></linearGradient><linearGradient
       inkscape:collect="always"
       xlink:href="#linearGradient42"
       id="linearGradient43"
       x1="824.33765"
       y1="775.35663"
       x2="775.17902"
       y2="211.25887"
       gradientUnits="userSpaceOnUse" /><linearGradient
       inkscape:collect="always"
       xlink:href="#linearGradient51"
       id="linearGradient52"
       x1="1553.9209"
       y1="583.9931"
       x2="1971.502"
       y2="994.92047"
       gradientUnits="userSpaceOnUse" /><linearGradient
       inkscape:collect="always"
       xlink:href="#linearGradient53"
       id="linearGradient54"
       x1="2328.6602"
       y1="463.60471"
       x2="2535.3606"
       y2="1328.6111"
       gradientUnits="userSpaceOnUse" /></defs><defs
     id="defs10"><linearGradient
       id="gradient_1"
       gradientUnits="userSpaceOnUse"
       x1="1368.5"
       y1="272.62875"
       x2="1601.8464"
       y2="1146.6138"><stop
         offset="0"
         stop-color="#D60007"
         id="stop9" /><stop
         offset="1"
         stop-color="#550058"
         id="stop10" /></linearGradient></defs><defs
     id="defs19"><linearGradient
       id="gradient_2"
       gradientUnits="userSpaceOnUse"
       x1="1117.7921"
       y1="1161.338"
       x2="892.3739"
       y2="357.9198"><stop
         offset="0"
         stop-color="#8B8691"
         id="stop18" /><stop
         offset="1"
         stop-color="#E7E9ED"
         id="stop19" /></linearGradient></defs><g
     id="g36"
     style="display:inline"
     transform="matrix(0.03773585,0,0,0.03773585,0,-0.0376896)"><path
       id="path2"
       style="display:inline;fill:url(#linearGradient54);fill-opacity:1"
       d="m 2143.7793,220.56445 c -233.8888,-2.05373 -391.863,89.18099 -466.6484,252.22071 -37.356,81.43972 -39.5704,142.80699 -39.5704,212.48046 0,69.6735 2.2144,156.83372 39.5704,238.27344 74.7854,163.03974 252.6137,229.19144 466.6484,229.19144 214.0347,0 391.865,-66.1517 466.6504,-229.19144 C 2647.7857,842.09934 2650,754.93912 2650,685.26562 c 0,-69.67348 -2.2143,-117.03879 -39.5703,-198.47851 -74.7854,-163.03972 -252.6239,-264.34334 -466.6504,-266.22266 z m 10e-4,269.85352 c 129.8449,-5.93955 196.2119,75.44874 196.2119,196.21289 3.1572,129.18749 -71.2475,206.21094 -196.2119,206.21094 -132.1338,10.80375 -189.0165,-85.56074 -196.2119,-206.21094 -10.2034,-127.522 74.3449,-192.47051 196.2119,-196.21289 z"
       sodipodi:nodetypes="sssssssssccccc" /><path
       fill="#e9e8e9"
       d="m 14.8883,270.785 342.0707,0.003 -10e-4,449.02 c -1.2e-4,53.20418 19.68499,190.165 143.0205,190.165 117.66033,0 143.02043,-101.81661 143.02051,-190.165 l 4e-4,-449.02 H 962.492 V 1153 H 658.6 c -4.827,-28.75 -12.122,-59.91 -17.515,-89.03 -38.661,102.17 -189.36,113.05 -283.211,115.05 C -0.68057,1186.68 14.8899,798.99 14.8713,542.669 Z"
       id="path9"
       style="display:inline;fill:url(#linearGradient43);fill-opacity:1"
       sodipodi:nodetypes="ccssscccccccc" /><path
       fill="#e9e8e9"
       d="m 14.8883,270.785 342.0707,0.003 -10e-4,502.02 c -1.6e-4,78.92557 20.12291,144.35067 93.04841,137.165 L 357.874,1179.02 C -0.68057,1186.68 14.867889,873.52631 14.8713,772.808 Z"
       id="path49"
       style="display:inline;fill:#f2f2f2;fill-opacity:1"
       sodipodi:nodetypes="ccsccsc" /><path
       fill="url(#gradient_2)"
       d="m 962.492,270.788 c 131.7847,171.98143 279.4686,381.75939 410.663,554.19481 0,0 43.6684,355.01719 -116.185,294.72719 -31.7045,-19.772 -53.9111,-48.4734 -75.76,-78.05 0,0 -538.028,-772.275 -538.211,-770.872 z"
       id="path19"
       style="display:inline;fill:url(#gradient_2)"
       sodipodi:nodetypes="cccccc" /><path
       fill="url(#gradient_1)"
       d="m 1455.75,247.722 240.87,-0.035 V 899.93 c 0.76,16.336 -3.78,38.962 -2.34,53.154 -28.7831,226.916 -266.8838,288.4806 -437.31,166.626 51.27,11.81 89.46,-31.1591 89.46,-108.56 V 511.987 c 0,-20.3509 -22.03,-17.742 -40.78,-19.511 -9.23,-0.871 -33.46,-2.889 -21.92,-17.87 58.1725,-74.99247 114.8943,-151.09464 172.02,-226.884 z"
       id="path10"
       style="display:inline;fill:url(#gradient_1)"
       sodipodi:nodetypes="cccccssscc" /><path
       fill="url(#gradient_0)"
       d="m 1694.78,351.283 c 6.72,19.012 14,37.82 21.83,56.401 0.12,4.226 7.21,18.722 9.4,23.445 29.82,63.417 64.74,124.308 104.42,182.072 4.3,6.356 17,26.284 22.21,30.922 10.21,15.27 22.97,31.717 34.08,46.493 21.98,29.248 44.61,58.007 67.87,86.256 -8.48,-7.533 -13.6,-12.934 -19.54,-22.512 -1.01,-1.624 -2.34,-1.451 -4.03,-1.431 -2.39,2.236 -2.77,2.778 -4.52,5.557 l -1.05,-0.45 c -3.06,-1.287 -4.38,-2.045 -7.75,-1.586 l -0.24,0.466 c -0.94,1.819 -1.09,2.068 -2.4,3.598 -2.09,-0.099 -4.42,-0.494 -6.13,0.517 l -0.9,3.443 c -1.57,0.462 -6.47,0.341 -6.26,0.234 -3.76,1.879 -8.37,11.762 -11.77,13.756 l -0.96,-1.777 c -3.22,-0.313 -4.61,-0.634 -7.77,0.406 -0.86,2.133 -1.48,3.747 -2.58,5.77 -2.15,-0.766 -2.53,-1.11 -4.44,-2.418 -5.68,3.672 -14.08,8.765 -20.17,12.314 0,0 -4.62,-0.208 -4.62,-0.208 -4.22,4.141 -5.47,5.311 -6.84,10.316 l -0.96,-0.524 c -2.83,-1.537 -3.97,-2.36 -7.25,-2.036 -3.53,2.144 -4.26,5.337 -6.29,8.254 -2.26,1.962 -11.2,2.657 -13.24,4.034 -6.35,4.283 -12.37,10.035 -18.4,14.662 -8.2,6.3 -13.85,0.04 -17.42,11.584 -2.1,-0.261 -3.05,-2.172 -4.45,-2.397 -2.53,-0.407 -7.94,8.781 -17.06,8.04 -3.38,2.232 -4.19,9.63 -6.34,9.032 -16.1,-4.468 -9.65,4.01 -16.56,8.89 l -0.66,-0.274 c -3.07,-1.24 -3.96,-1.405 -7.19,-2.001 -4.1,1.777 -5.54,7.295 -7.25,8.237 -6.53,3.568 -15.14,1.742 -17.99,10.105 -0.7,2.063 -2.84,4.27 -2.75,7.052 0.57,17.663 -0.2,35.15 -0.87,52.796 -0.2,5.267 -2.54,10.18 -1.41,15.054 3.34,4.81 19.18,23.092 18.75,26.721 -3.32,-1.961 -17.78,-22.481 -21,-27.012 -1.44,-14.192 3.1,-36.818 2.34,-53.154 -4.13,-88.882 -2.34,-179.047 -2.33,-268.044 l -0.12,-191.832 -0.08,-55.542 c -0.01,-9.159 -0.45,-24.531 0.69,-33.229 z"
       id="path4"
       style="display:none;fill:url(#gradient_0)" /><path
       d="m 2143.78,481.506 c 47.98,-2.872 110.75,14.383 145.61,48.623 32.6,32.012 45.66,77.816 45.27,122.855 -0.56,64.259 -7.91,141.516 -54.95,190.145 -38.6,38.808 -90.34,45.866 -142.21,46.206 l -4.73,-0.035 c -57.76,-0.7 -110.9,-20.058 -145.81,-67.27 -10.87,-14.698 -13.15,-25.524 -26.42,-39.121 -8.2,-27.4 -13.89,-74.397 -15.41,-103.033 -2.67,-50.218 6.68,-104.789 42.9,-142.322 44.24,-45.839 95.81,-53.975 155.75,-56.048 z"
       id="path6"
       style="display:none" /><path
       fill="#e9e8e9"
       d="m 640.971,271.644 c 36.378,0.863 74.73,0.251 111.343,0.252 l 200.684,-0.012 9.665,12.706 3.872,5.334 c 1.415,4.753 3.474,9.135 0.21,13.477 -3.493,0.969 -13.071,3.013 -14.926,5.306 -0.078,2.395 -0.152,3.966 -0.466,6.338 -4.528,2.768 -3.716,-1.914 -7.043,2.001 -0.165,1.936 -0.122,4.661 -1.208,6.081 -12.518,3.741 -7.156,-7.267 -15.645,11.845 -2.906,0.762 -3.629,0.646 -6.65,0.46 -1.923,3.819 -1.413,6.369 -5.529,7.696 -3.944,1.27 -7.097,-1.277 -10.465,0.977 -1.836,10.602 -8.268,8.707 -14.842,11.848 -0.494,0.236 -9.105,10.734 -10.004,11.852 -4.447,-0.883 -9.294,0.79 -12.789,3.389 -5.626,4.184 -0.248,9.672 -9.741,8 -2.577,3.139 -0.995,6.98 -2.416,7.607 -4.415,1.949 -9.544,3.094 -14.135,4.621 -2.055,0.684 0.512,7.021 -1.739,7.55 -3.722,1.729 -10.573,3.294 -13.999,4.489 -2.225,0.776 0.303,4.835 -2.582,8.597 -8.124,-1.035 -8.335,1.875 -14.871,6.512 -4.051,2.874 -4.314,-1.474 -7.507,2.118 -0.27,2.406 -0.21,9.325 -1.246,9.91 -9.685,5.473 -12.479,2.7 -20.36,11.796 -2.014,0.632 -3.564,1.151 -5.526,1.926 l -2.152,6.275 c -1.53,-0.699 -1.616,-0.611 -2.738,-1.83 l -1.285,0.197 c -0.612,3.461 2.458,7.37 4.449,10.215 2.525,3.594 5.116,7.141 7.771,10.64 l -0.434,0.929 c -33.718,-45.059 -65.637,-93.503 -97.948,-139.615 -5.788,-8.259 -13.585,-16.077 -19.634,-24.232 -2.563,-4.152 -15.529,-21.679 -16.702,-24.342 -0.053,3.39 0.442,10.984 -1.147,13.162 0.005,-2.965 -2.082,-25.478 -2.265,-24.075 z"
       id="path20"
       style="display:none" /><path
       id="path21"
       style="fill:#f2f2f2;fill-opacity:1"
       d="m 435.96484,1 c -0.22727,0.010899 -0.49753,0.094765 -1.1914,0.2734375 l -49.44922,11.4042965 -7.8418,36.490235 H 357.66797 C 354.43797,64.289069 351.31314,79.9742 347.86914,95 h 20.30664 L 344.32227,206.16406 H 359.5 394.70117 C 402.44217,170.44306 410.04241,130.194 418.56641,95 h 30.86328 c 2.984,-14.0876 6.27131,-32.204931 9.82031,-45.832031 h -30.90039 c 1.663,-7.5525 10.21194,-43.1611046 9.08594,-47.8964846 C 436.47817,1.0931004 436.25705,0.98598711 435.96484,1 Z m 108.85157,43.925781 c -13.38064,-0.307975 -46.6979,2.546487 -74.1211,34.714844 -47.325,55.514305 -13.38411,139.692295 64.71289,130.779295 15.702,-1.763 30.59538,-7.89808 42.98438,-17.70508 l -5.91016,-11.09765 -12.63476,-23.22266 c -24.329,14.067 -50.97699,15.1817 -62.33399,-14.9043 h 106.13281 c 13.722,-36.54 10.57755,-77.663411 -31.06445,-93.853511 -6.12825,-2.382525 -18.25984,-4.492139 -27.76562,-4.710938 z m 173.84375,0.832031 c -3.966,0.0025 -7.92896,0.193919 -11.87696,0.574219 -27.974,4.1534 -48.23706,15.604078 -65.41406,38.017578 -25.476,33.244001 -26.65875,86.345451 10.65625,111.814451 32.831,22.408 69.55473,18.56907 100.92773,-2.96094 l -7.36523,-13.83398 c -3.772,-7.187 -8.70937,-17.36219 -12.73437,-24.11719 -11.495,6.267 -22.63841,10.66686 -36.06641,6.75586 -7.985,-2.299 -14.71922,-7.69914 -18.69922,-14.99414 -4.445,-8.272 -4.59442,-17.82162 -1.73242,-26.64062 3.221,-10.024 10.41158,-18.28859 19.89258,-22.867191 16.515,-8.1637 31.54698,-5.104656 44.70898,7.402341 l 34.22266,-37.558591 c -16.331,-16.1819 -34.06853,-21.658397 -56.51953,-21.591797 z m 152.45703,0.0293 c -2.68762,0.06673 -5.46241,0.261029 -8.33203,0.572266 -26.293,3.538 -45.10063,14.273644 -61.89063,35.339844 -25.969,32.583798 -29.36723,87.745438 6.00977,115.148438 13.821,10.706 35.85601,14.93337 53.16601,12.10937 5.9,-0.979 11.64485,-2.72812 17.08985,-5.20312 4.177,-1.937 11.42404,-7.73985 14.37304,-7.96485 l 3.53125,10.0625 c 0,0 26.35799,0.3975 37.45899,0.3125 L 966.01953,49.509766 h -37.1875 c -3.382,5.2602 -7.08475,11.318903 -10.59375,16.408203 -13.71475,-14.864063 -28.30776,-20.59794 -47.12109,-20.13086 z M 94.941406,46.205078 C 43.645105,43.913336 9.8431875,80.375296 0,129.19336 v 18.73047 c 5.29316,32.074 21.720697,55.95122 56.404297,61.32422 20.6431,3.198 37.693379,-2.34371 54.238283,-14.72071 0.799,3.64 1.44565,7.91472 2.09765,11.63672 h 38.78321 L 185.01953,49.509766 h -37.1875 L 137.25977,65.966797 C 128.96177,56.442797 118.04364,48.97 105.43164,47.1875 101.8583,46.682412 98.36116,46.357861 94.941406,46.205078 Z M 214.47656,49 205.10742,93.164062 h 61.48047 L 186.27734,172.13477 178.78125,206 h 135.58789 l 9.35352,-44.16406 H 256.4082 c 27.163,-26.144 53.86042,-53.92753 81.10742,-79.703128 C 339.66262,71.048513 342.00125,60.003 344.53125,49 Z m 320.2793,35.285156 C 548.3862,83.756784 561.82125,92.133985 566.73438,111 h -65.125 c 5.69049,-16.752527 19.51613,-26.186472 33.14648,-26.714844 z M 89.105469,93.140625 c 43.789871,0.402878 40.136221,61.574425 -2.865235,69.591795 -56.483039,2.67389 -36.10687,-69.950346 2.865235,-69.591795 z m 781.000001,0 c 43.79005,0.402878 40.13661,61.574425 -2.86524,69.591795 -56.48297,2.67389 -36.10695,-69.950346 2.86524,-69.591795 z" /><path
       id="path50"
       style="display:inline;opacity:1;fill:url(#linearGradient52);stroke:none;stroke-width:1px;stroke-linecap:butt;stroke-linejoin:miter"
       d="m 1696.6191,351.51562 -2.6816,604.18946 c 176.2013,277.86672 605.9074,150.42052 634.7227,-174.52149 -54.7214,138.06887 -267.3197,126.76476 -327.5704,60.51172 -19.7941,-21.76603 -30.2226,-48.62822 -35.8021,-62.82075 -4e-4,-10e-4 -268.6686,-427.35894 -268.6686,-427.35894 z"
       sodipodi:nodetypes="cccscc" /></g></svg>
