<?xml version="1.0" encoding="UTF-8" standalone="no"?>
<!-- Created with Inkscape (http://www.inkscape.org/) -->

<svg
   width="91.304344"
   height="100"
   viewBox="0 0 91.304344 100"
   version="1.1"
   id="svg1"
   inkscape:version="1.4.2 (f4327f4, 2025-05-13)"
   sodipodi:docname="Bitme.svg"
   xml:space="preserve"
   inkscape:export-filename="Bitme.png"
   inkscape:export-xdpi="300"
   inkscape:export-ydpi="300"
   xmlns:inkscape="http://www.inkscape.org/namespaces/inkscape"
   xmlns:sodipodi="http://sodipodi.sourceforge.net/DTD/sodipodi-0.dtd"
   xmlns="http://www.w3.org/2000/svg"
   xmlns:svg="http://www.w3.org/2000/svg"><sodipodi:namedview
     id="namedview1"
     pagecolor="#ffffff"
     bordercolor="#000000"
     borderopacity="0.25"
     inkscape:showpageshadow="2"
     inkscape:pageopacity="0.0"
     inkscape:pagecheckerboard="0"
     inkscape:deskcolor="#d1d1d1"
     inkscape:document-units="px"
     inkscape:zoom="7.35"
     inkscape:cx="49.931973"
     inkscape:cy="50"
     inkscape:window-width="1920"
     inkscape:window-height="974"
     inkscape:window-x="-11"
     inkscape:window-y="-11"
     inkscape:window-maximized="1"
     inkscape:current-layer="svg1" /><defs
     id="defs1" /><g
     id="g1"><path
       d="m 216.08658,329.54297 c -56.7886,0 -111.57486,-51.73096 -111.57486,-110.91846 v -80.91308 c 0,-59.1875 54.28626,-107.16846 111.07486,-107.16846 l 50.60028,1 c 56.7886,0 111.32486,50.48096 111.32486,109.66846 v 77.66308 c 0,59.1875 -55.78626,110.66846 -112.57486,110.66846 z"
       fill="#0d51f6"
       id="path1"
       style="display:inline"
       transform="matrix(0.33444816,0,0,0.33444816,-34.953752,-10.21504)" /><path
       id="path2"
       d="M 235.89068 82.692774 L 235.89068 97.981485 L 253.8482 97.981485 L 253.8482 82.692774 L 235.89068 82.692774 z M 279.83551 82.815411 L 279.83551 102.93951 L 265.0899 102.93951 L 265.0899 121.29414 L 279.83551 121.29414 L 279.83551 175.92004 L 329.04203 175.92004 L 329.04203 157.19166 L 298.29525 157.19166 L 298.29525 121.29414 L 321.91742 121.29414 L 321.91742 102.93951 L 298.29525 102.93951 L 298.29525 82.815411 L 279.83551 82.815411 z M 151.57502 83.714747 L 151.57502 102.11609 L 159.37705 102.11609 L 159.37705 175.92004 L 222.93207 175.92004 L 222.93207 121.3175 L 207.95287 121.3175 C 211.07561 117.73741 216.46137 110.87664 219.95375 102.67672 C 222.64504 96.35771 221.85754 83.714747 221.85754 83.714747 L 151.57502 83.714747 z M 177.33457 102.11609 L 200.62971 102.11609 C 200.62971 102.11609 198.35983 111.20932 189.5048 116.52883 C 184.976 119.24944 181.18222 120.62685 178.36238 121.3175 L 177.33457 121.3175 L 177.33457 102.11609 z M 235.89068 102.31465 L 235.89068 175.92004 L 253.8482 175.92004 L 253.8482 102.31465 L 235.89068 102.31465 z M 177.33457 139.9174 L 204.97455 139.9174 L 204.97455 157.3143 L 177.33457 157.3143 L 177.33457 139.9174 z M 266.83018 186.21568 L 266.83018 205.6682 L 270.62607 205.6682 L 270.62607 233.95057 C 270.62607 233.95057 274.58762 253.90051 298.25438 254.01043 C 318.85747 253.68177 329.88881 237.64135 329.88881 237.64135 L 318.25584 226.44637 C 318.25584 226.44637 301.02652 244.77098 289.62893 233.95057 C 289.62593 233.94767 289.62409 233.26577 289.62309 232.11102 C 292.58889 232.73641 304.09511 233.87451 318.39016 218.69106 C 331.61886 204.64023 330.25088 186.21568 330.25088 186.21568 L 266.83018 186.21568 z M 153.37953 186.4668 L 153.37953 205.16598 L 159.62816 205.16598 L 159.62816 279.41959 L 177.57984 279.41959 L 177.57984 205.16598 L 236.12428 205.16598 L 236.12428 279.41959 L 254.0818 279.41959 L 254.0818 186.4668 L 153.37953 186.4668 z M 289.62893 205.6682 L 307.50469 205.6682 C 307.50469 205.6682 303.52709 215.63376 289.62309 215.36234 C 289.62509 211.25471 289.62793 207.56525 289.62893 205.6682 z M 198.4748 215.76529 L 198.4748 261.12336 L 216.72432 261.12336 L 216.72432 215.76529 L 198.4748 215.76529 z M 266.08268 259.96707 L 266.08268 279.41959 L 329.87713 279.41959 L 329.87713 259.96707 L 266.08268 259.96707 z "
       style="fill:#ffffff"
       transform="matrix(0.33444816,0,0,0.33444816,-34.953752,-10.21504)" /></g></svg>
