<?xml version="1.0" encoding="UTF-8" standalone="no"?>
<!-- Created with Inkscape (http://www.inkscape.org/) -->

<svg
   id="svg2"
   height="100"
   width="80.864601"
   version="1.0"
   sodipodi:docname="Canal 5.svg"
   xml:space="preserve"
   inkscape:version="1.4.2 (f4327f4, 2025-05-13)"
   inkscape:export-filename="Canal 5.png"
   inkscape:export-xdpi="300"
   inkscape:export-ydpi="300"
   xmlns:inkscape="http://www.inkscape.org/namespaces/inkscape"
   xmlns:sodipodi="http://sodipodi.sourceforge.net/DTD/sodipodi-0.dtd"
   xmlns="http://www.w3.org/2000/svg"
   xmlns:svg="http://www.w3.org/2000/svg"><defs
     id="defs1" /><sodipodi:namedview
     id="namedview1"
     pagecolor="#ffffff"
     bordercolor="#000000"
     borderopacity="0.25"
     inkscape:showpageshadow="2"
     inkscape:pageopacity="0.0"
     inkscape:pagecheckerboard="0"
     inkscape:deskcolor="#d1d1d1"
     inkscape:zoom="7.35"
     inkscape:cx="47.959184"
     inkscape:cy="40.748299"
     inkscape:window-width="1920"
     inkscape:window-height="974"
     inkscape:window-x="-11"
     inkscape:window-y="-11"
     inkscape:window-maximized="1"
     inkscape:current-layer="svg2"
     showguides="true" /><g
     id="g2"><path
       id="path5"
       style="display:inline;fill:#ffffff;stroke-width:0.202161"
       d="M 6.0195312 0 L 6.0195312 50.970703 L 16.136719 50.970703 L 16.136719 10.568359 L 65.103516 10.568359 L 65.103516 25.199219 L 75.509766 25.199219 L 75.509766 0 L 6.0195312 0 z M 40.679688 27.597656 C 34.998418 27.585526 30.410156 27.765625 30.410156 27.765625 L 30.511719 37.494141 L 46.724609 37.591797 C 53.341385 37.480607 60.601741 38.554118 65.380859 43.585938 C 70.9201 49.197967 71.099467 57.584032 70.757812 64.960938 C 70.191757 75.709916 61.531783 84.382733 51.832031 87.958984 C 46.470682 90.397062 40.488845 89.926472 34.765625 89.791016 C 25.892515 88.800421 16.968983 82.897874 12.535156 75.132812 L 22.425781 68.832031 L 18.685547 59.957031 L 0 71.550781 C 0 71.550781 1.7713631 75.410156 1.7714844 75.410156 C 7.0357943 87.604596 18.361213 97.229681 31.582031 99.443359 C 37.412396 100.24796 43.436904 100.22661 49.21875 99.072266 C 64.441581 95.952902 78.289748 83.685578 80.517578 67.890625 C 81.506154 57.663228 80.711653 46.231817 73.773438 38.064453 C 69.794882 32.939637 63.732462 29.671753 57.505859 28.580078 C 53.135107 27.813883 46.360957 27.609786 40.679688 27.597656 z " /><path
       d="m 41.972656,51.933594 c -2.618003,0.0081 -2.927734,0.337249 -2.927734,3.123047 0,2.858577 -0.410339,3.088795 -3.28711,1.851562 -1.039113,-0.446786 -2.074367,-0.698099 -2.300781,-0.558594 -0.620638,0.384109 -1.839369,3.274756 -1.849609,4.388672 -0.0061,0.853125 0.304788,1.103594 2.376953,1.908203 1.485895,0.576161 2.430926,1.177363 2.509766,1.591797 0.06874,0.365913 -0.488262,1.414281 -1.238282,2.330078 -0.750024,0.915793 -1.363281,1.917254 -1.363281,2.226563 0,0.689374 1.322804,1.967015 2.863281,2.767578 0.630747,0.329526 1.268384,0.597656 1.417969,0.597656 0.151623,0.002 0.973048,-0.941355 1.826172,-2.095703 0.853127,-1.156369 1.78338,-2.101562 2.066406,-2.101562 0.28303,0 1.164419,0.945193 1.960938,2.101562 0.794501,1.154348 1.608533,2.097656 1.80664,2.097656 0.756091,0 3.361543,-1.708757 3.931641,-2.580078 0.559989,-0.855146 0.532365,-0.986145 -0.480469,-2.259765 -2.630133,-3.309402 -2.611385,-3.563164 0.330078,-4.523438 1.115937,-0.363889 2.254495,-0.840333 2.525391,-1.056641 0.743959,-0.590316 0.109761,-2.945176 -1.400391,-5.197265 C 50.439013,56.0941 50.041161,56.147215 48.25,56.875 c -2.935396,1.190738 -3.285156,0.974907 -3.285156,-2.03125 0,-2.783773 -0.139674,-2.920396 -2.992188,-2.910156 z"
       style="display:inline;fill:#d8f330;stroke-width:0.202161"
       id="path2" /></g></svg>
