<?xml version="1.0" encoding="UTF-8" standalone="no"?>
<svg
   width="100"
   height="35.381058"
   viewBox="0 0 100.00001 35.381057"
   version="1.1"
   id="svg10"
   sodipodi:docname="Canal Once.svg"
   inkscape:version="1.4.2 (f4327f4, 2025-05-13)"
   xml:space="preserve"
   inkscape:export-filename="Canal Once.png"
   inkscape:export-xdpi="300"
   inkscape:export-ydpi="300"
   xmlns:inkscape="http://www.inkscape.org/namespaces/inkscape"
   xmlns:sodipodi="http://sodipodi.sourceforge.net/DTD/sodipodi-0.dtd"
   xmlns="http://www.w3.org/2000/svg"
   xmlns:svg="http://www.w3.org/2000/svg"><defs
     id="defs10" /><sodipodi:namedview
     id="namedview10"
     pagecolor="#ffffff"
     bordercolor="#000000"
     borderopacity="0.25"
     inkscape:showpageshadow="2"
     inkscape:pageopacity="0.0"
     inkscape:pagecheckerboard="0"
     inkscape:deskcolor="#d1d1d1"
     showguides="false"
     inkscape:zoom="4.2880511"
     inkscape:cx="27.868138"
     inkscape:cy="15.508211"
     inkscape:window-width="1920"
     inkscape:window-height="974"
     inkscape:window-x="-11"
     inkscape:window-y="-11"
     inkscape:window-maximized="1"
     inkscape:current-layer="g36"><sodipodi:guide
       position="369.79494,-281.94625"
       orientation="1,0"
       id="guide31"
       inkscape:locked="false" /><sodipodi:guide
       position="434.3811,88.137678"
       orientation="0,-1"
       id="guide32"
       inkscape:locked="false" /><sodipodi:guide
       position="436.47539,-253.43544"
       orientation="0,-1"
       id="guide33"
       inkscape:locked="false" /><sodipodi:guide
       position="368.47819,-95.844322"
       orientation="1,0"
       id="guide34"
       inkscape:locked="false" /><sodipodi:guide
       position="-106.11892,-82.648882"
       orientation="1,0"
       id="guide35"
       inkscape:locked="false" /><sodipodi:guide
       position="-106.11892,-82.648882"
       orientation="0,-1"
       id="guide36"
       inkscape:locked="false" /></sodipodi:namedview><g
     id="g36"
     transform="scale(0.09567751)"><path
       id="path3"
       d="M 1010.8965,14.109375 V 191.50977 h 34.2812 V 14.109375 Z M 505.08984,65.148438 c -3.67848,-0.216306 -7.55202,-0.205042 -11.63281,0.02734 -80.17091,4.56542 -81.78311,138.498632 13.89844,129.683602 23.75396,-2.18842 42.12819,-17.77954 50.61719,-39.64454 l -31.81641,-8.20703 c -4.626,8.534 -9.30914,17.38805 -19.37305,20.15039 -44.05023,12.0909 -50.67315,-64.49402 -16.32812,-74.181641 18.80628,-4.474299 28.33832,4.40023 35.27734,20.886721 l 32.44922,-7.6543 C 547.05077,79.377985 530.83922,66.662573 505.08984,65.148438 Z m 133.66211,1.126953 c -1.81146,0.0201 -3.60616,0.119264 -5.375,0.300781 -38.67158,3.968461 -53.56883,28.191302 -58.26953,43.800778 -1.82177,6.04947 -2.76357,12.40445 -2.85547,18.79493 -0.28512,19.81604 7.58866,39.98218 22.64453,52.49804 13.95556,11.60118 50.52955,26.07906 76.63672,-4.26562 v 14.10547 h 34.38086 v -62.33789 c -0.18225,-6.58844 -0.65911,-13.09432 -2.11328,-18.79493 -6.84489,-26.833162 -37.87686,-44.403077 -65.04883,-44.101559 z m 287.52735,0 c -1.81147,0.0201 -3.60616,0.119264 -5.375,0.300781 -38.67158,3.968461 -53.56883,28.191297 -58.26953,43.800778 -1.82177,6.04946 -2.76162,12.40445 -2.85352,18.79493 -0.28512,19.81604 7.58671,39.98218 22.64258,52.49804 13.95556,11.60118 50.52955,26.07906 76.63672,-4.26562 v 14.10547 h 34.38086 v -62.33789 c -0.18225,-6.58845 -0.65912,-13.09433 -2.11329,-18.79493 C 984.48323,83.543783 953.45127,65.973873 926.2793,66.275391 Z m -142.24805,0.267578 c -49.03269,0.07644 -60.70803,28.245516 -60.79883,61.726561 V 191.625 h 34.38477 v -63.35547 c 0.49102,-18.81414 4.51429,-35.486327 26.41406,-35.486327 21.89977,0 25.92109,16.672187 26.41211,35.486327 V 191.625 h 34.38476 V 128.26953 C 844.73733,94.788485 833.06394,66.619409 784.03125,66.542969 Z M 640.20117,93.794922 c 11.13893,0.371713 23.30214,6.054812 28.67188,22.199218 7.71531,23.19645 -5.28975,49.59614 -27.625,52.03906 -36.084,3.944 -46.08192,-54.04958 -18.30078,-70.285153 4.25705,-2.487867 10.57055,-4.176153 17.2539,-3.953125 z m 287.5293,0 c 11.13893,0.371713 23.30214,6.054816 28.67187,22.199218 7.71531,23.19645 -5.28975,49.59614 -27.625,52.03906 -36.084,3.944 -46.08387,-54.04959 -18.30273,-70.285153 4.25706,-2.487867 10.5725,-4.176153 17.25586,-3.953125 z M 504.28516,222.01367 c -41.2672,0 -74.17814,37.35351 -66.75977,78.73828 5.84903,32.62989 35.71921,54.93164 66.75977,54.93164 87.62742,0 85.97012,-133.66992 0,-133.66992 z m 418.45507,1.23047 c -87.76035,-0.93693 -88.1911,130.53406 0.0977,130.29883 29.50488,-0.0786 46.3502,-14.20094 59.91016,-40.61719 h -35.50196 c -18.01052,26.13963 -50.32959,14.91135 -55.23047,-14.10351 h 92.89063 c -0.8824,-43.40392 -10.57995,-75.0274 -62.16602,-75.57813 z m -133.22656,0.79492 c -3.67848,-0.2163 -7.55007,-0.20309 -11.63086,0.0293 -80.17091,4.56542 -81.78311,138.49862 13.89844,129.68359 23.75396,-2.18842 42.12623,-17.77953 50.61523,-39.64453 l -31.8164,-8.20703 c -4.626,8.534 -9.30719,17.38805 -19.3711,20.15039 -44.05023,12.0909 -50.67315,-64.49402 -16.32812,-74.18164 18.80628,-4.4743 28.33637,4.39828 35.27539,20.88477 l 32.44922,-7.6543 c -11.13088,-26.831 -27.34242,-39.54641 -53.0918,-41.06055 z M 644.25,225.81641 c -49.03269,0.0764 -60.70803,28.24551 -60.79883,61.72656 v 63.35547 h 34.38477 v -63.35547 c 0.49102,-18.81414 4.51429,-35.48633 26.41406,-35.48633 21.89977,0 25.92109,16.67219 26.41211,35.48633 v 63.35547 h 34.38477 V 287.54297 C 704.95608,254.06192 693.28269,225.89285 644.25,225.81641 Z m 278.49023,24.14453 c 14.24964,0.22118 23.69782,6.45114 27.03125,22.55664 -18.82505,-0.0457 -37.6495,-0.0664 -56.4746,0 7.03517,-18.13481 18.92911,-22.71984 29.44335,-22.55664 z m -418.45507,0.20508 c 41.03195,1.25348 44.51664,74.78908 0,77.33789 -43.27757,2.47788 -46.82799,-78.76842 0,-77.33789 z"
       style="fill:#ffffff;fill-opacity:1"
       sodipodi:nodetypes="cccccsssccscccsssscsccccsssssssccccsscccccscccccsscsssscssssssssccccsssssccscccscccccscccccsccssss" /><path
       id="circle31"
       style="display:inline;fill:#ffffff;fill-rule:evenodd;stroke-width:1.6979;fill-opacity:1"
       d="M 184.89843,0 A 184.89777,184.89777 0 0 0 0,184.89648 184.89777,184.89777 0 0 0 184.89843,369.79492 184.89777,184.89777 0 0 0 369.79492,184.89648 184.89777,184.89777 0 0 0 184.89843,0 Z m 0,65 A 119.89777,119.89777 0 0 1 304.79492,184.89648 119.89777,119.89777 0 0 1 184.89843,304.79492 119.89777,119.89777 0 0 1 65,184.89648 119.89777,119.89777 0 0 1 184.89843,65 Z" /></g></svg>
