<?xml version="1.0" encoding="UTF-8" standalone="no"?>
<!-- Created with Inkscape (http://www.inkscape.org/) -->

<svg
   width="100"
   height="59.84919"
   viewBox="0 0 100 59.84919"
   version="1.1"
   id="svg1"
   inkscape:version="1.4.2 (f4327f4, 2025-05-13)"
   sodipodi:docname="Cartoon Network.svg"
   xml:space="preserve"
   inkscape:export-filename="..\PNG\Cartoon Network.png"
   inkscape:export-xdpi="300"
   inkscape:export-ydpi="300"
   xmlns:inkscape="http://www.inkscape.org/namespaces/inkscape"
   xmlns:sodipodi="http://sodipodi.sourceforge.net/DTD/sodipodi-0.dtd"
   xmlns="http://www.w3.org/2000/svg"
   xmlns:svg="http://www.w3.org/2000/svg"><sodipodi:namedview
     id="namedview1"
     pagecolor="#ffffff"
     bordercolor="#000000"
     borderopacity="0.25"
     inkscape:showpageshadow="2"
     inkscape:pageopacity="0.0"
     inkscape:pagecheckerboard="0"
     inkscape:deskcolor="#d1d1d1"
     inkscape:document-units="px"
     inkscape:zoom="9.24"
     inkscape:cx="50"
     inkscape:cy="29.924242"
     inkscape:window-width="1920"
     inkscape:window-height="974"
     inkscape:window-x="-11"
     inkscape:window-y="-11"
     inkscape:window-maximized="1"
     inkscape:current-layer="svg1" /><defs
     id="defs1" /><g
     id="g561"
     transform="scale(0.07841907)"
     style="display:inline"><path
       id="C"
       style="fill:#ffffff"
       d="M 637.60001 0 L 637.60001 637.45057 L 1275.2 637.45057 L 1275.2 0 L 637.60001 0 z M 57.707782 682.10748 C 39.219484 682.76166 23.116862 695.72673 19.377063 716.07961 C 15.961163 744.97091 37.315782 763.9402 62.091282 763.17733 C 75.453782 762.04873 87.723562 754.29763 94.643752 742.85383 L 73.672689 730.74939 C 69.808789 736.46132 64.091319 738.82934 58.728939 738.66958 C 49.142789 738.19928 41.298393 729.10163 43.884813 718.14683 C 45.562213 711.97515 51.152499 707.10983 57.533439 706.4907 C 63.994269 705.52203 70.017809 709.16862 73.672689 714.26145 L 94.643752 702.28154 C 89.200252 693.50399 80.774258 686.49254 70.758658 683.67658 C 66.358614 682.45627 61.974313 681.95652 57.707782 682.10748 z M 392.04929 682.1822 C 386.15079 682.61978 380.28415 684.36886 374.86398 687.51214 C 355.59248 698.68764 348.92017 723.73176 360.09457 743.00326 C 371.26917 762.27636 396.3391 768.94647 415.6106 757.77267 C 434.0484 747.08377 440.7687 723.72939 431.5506 704.84689 A 12.9766 12.9766 0 0 0 430.38001 702.28154 L 430.38001 702.25664 A 12.9766 12.9766 0 0 0 428.66148 699.91545 C 421.47955 689.37755 410.06017 683.035 397.95207 682.1822 C 395.99759 682.04456 394.01546 682.03634 392.04929 682.1822 z M 480.04307 682.1822 C 474.14457 682.61978 468.27793 684.36886 462.85776 687.51214 C 443.58626 698.68764 436.91395 723.73176 448.08835 743.00326 C 459.26295 762.27636 484.33128 768.94647 503.60438 757.77267 C 522.04218 747.08377 528.76219 723.72939 519.54439 704.84689 A 12.9766 12.9766 0 0 0 518.37379 702.28154 L 518.37379 702.25664 A 12.9766 12.9766 0 0 0 518.34889 702.25664 A 12.9766 12.9766 0 0 0 516.65526 699.91545 C 509.47318 689.37865 498.05235 683.035 485.94585 682.1822 C 483.99137 682.04456 482.00924 682.03634 480.04307 682.1822 z M 1043.4225 682.1822 C 1037.5239 682.61978 1031.6323 684.36886 1026.2122 687.51214 C 1006.9407 698.68764 1000.2933 723.73176 1011.4677 743.00326 C 1022.6423 762.27636 1047.7123 768.94647 1066.9838 757.77267 C 1085.4232 747.08217 1092.1221 723.72949 1082.8989 704.84689 A 12.9766 12.9766 0 0 0 1081.7532 702.28154 L 1081.7532 702.25664 L 1081.7283 702.25664 A 12.9766 12.9766 0 0 0 1080.0346 699.91545 C 1072.8527 689.37865 1061.4067 683.0349 1049.3003 682.1822 C 1047.3458 682.04456 1045.3886 682.03634 1043.4225 682.1822 z M 120.62097 683.70148 L 96.262658 761.55842 L 123.63463 761.55842 L 127.64453 748.50755 L 152.57569 748.50755 L 156.48597 761.55842 L 183.85794 761.55842 L 159.49963 683.70148 L 120.62097 683.70148 z M 191.70341 683.70148 L 191.70341 761.55842 L 217.48138 761.55842 L 217.48138 738.79411 L 225.87479 738.79411 L 237.43129 761.55842 L 266.12329 761.55842 L 251.10482 736.02951 C 262.67872 728.60912 266.63511 719.39232 266.19801 710.15192 C 266.20801 696.19832 253.6405 684.09198 239.897 683.70148 L 191.70341 683.70148 z M 273.32119 683.70148 L 273.32119 706.41598 L 297.72932 706.41598 L 297.72932 761.53351 L 326.91944 761.53351 L 326.91944 706.41598 L 351.30266 706.41598 L 351.30266 683.70148 L 273.32119 683.70148 z M 531.67373 683.70148 L 531.67373 761.55842 L 557.42679 761.55842 L 557.42679 729.10558 L 583.77761 761.55842 L 609.50576 761.55842 L 609.50576 683.70148 L 583.77761 683.70148 L 583.77761 716.07961 L 557.42679 683.70148 L 531.67373 683.70148 z M 662.18248 683.70148 L 662.18248 761.55842 L 687.91064 761.55842 L 687.91064 729.10558 L 714.26145 761.55842 L 739.98961 761.55842 L 739.98961 683.70148 L 714.26145 683.70148 L 714.26145 716.07961 L 687.91064 683.70148 L 662.18248 683.70148 z M 751.19742 683.70148 L 751.19742 761.55842 L 819.16658 761.55842 L 819.16658 740.7617 L 776.95048 740.7617 L 776.95048 732.56755 L 812.4917 732.56755 L 812.4917 714.38598 L 776.95048 714.38598 L 776.95048 706.41598 L 819.16658 706.41598 L 819.16658 683.70148 L 751.19742 683.70148 z M 827.78414 683.70148 L 827.78414 706.41598 L 852.19227 706.41598 L 852.19227 761.53351 L 881.35749 761.53351 L 881.35749 706.41598 L 905.76561 706.41598 L 905.76561 683.70148 L 827.78414 683.70148 z M 912.29105 683.70148 C 912.57225 685.45808 927.35933 761.55842 927.35933 761.55842 L 948.57946 761.55842 L 957.9193 740.53755 L 967.15952 761.55842 L 988.72833 761.55842 L 1003.5476 683.70148 L 977.62014 683.70148 L 971.04489 717.77323 L 957.9193 686.49098 L 945.01786 717.84795 C 944.99016 717.70925 938.44261 683.70148 938.44261 683.70148 L 912.29105 683.70148 z M 1094.7293 683.70148 L 1094.7293 761.55842 L 1120.5073 761.55842 L 1120.5571 738.79411 L 1128.9007 738.79411 L 1140.4572 761.55842 L 1169.1492 761.55842 L 1154.1058 736.02951 C 1165.6796 728.60912 1169.6609 719.39232 1169.2239 710.15192 C 1169.2339 696.19832 1156.6422 684.09198 1142.898 683.70148 L 1094.7293 683.70148 z M 1177.5177 683.70148 L 1177.5177 761.53351 L 1203.5696 761.53351 L 1203.5696 732.56755 L 1222.9716 761.53351 L 1256.1716 761.53351 L 1226.06 720.8118 L 1256.1716 683.70148 L 1222.9716 683.70148 L 1203.5696 708.90661 L 1203.5696 683.70148 L 1177.5177 683.70148 z M 140.07275 705.19558 L 147.0216 729.32973 L 133.099 729.32973 L 140.07275 705.19558 z M 217.48138 706.41598 L 234.64179 706.41598 C 237.96337 706.45968 240.37365 709.67946 240.51966 712.4433 C 240.60466 716.39674 237.60898 719.37086 234.61688 719.44195 L 217.48138 719.46686 L 217.48138 706.41598 z M 1120.5073 706.41598 L 1137.6677 706.41598 C 1140.9893 706.45968 1143.3995 709.67946 1143.5456 712.4433 C 1143.6306 716.39674 1140.635 719.37086 1137.6428 719.44195 L 1120.5073 719.46686 L 1120.5073 706.41598 z M 396.25845 707.93526 C 400.93302 708.2346 405.35183 710.82053 407.93948 715.28261 C 412.07591 722.42213 409.72351 731.19374 402.58463 735.33214 C 395.44478 739.47176 386.70031 737.14205 382.56001 730.0022 C 378.42007 722.86268 380.75042 714.09217 387.88995 709.95267 C 390.56723 708.40003 393.45381 707.75561 396.25845 707.93526 z M 484.25223 707.93526 C 488.9268 708.2346 493.32052 710.82053 495.90835 715.28261 C 500.04478 722.42213 497.7173 731.19374 490.57842 735.33214 C 483.43857 739.47176 474.66918 737.14205 470.52888 730.0022 C 466.38894 722.86268 468.71946 714.09217 475.85882 709.95267 C 478.53611 708.40003 481.44759 707.75561 484.25223 707.93526 z M 1047.6316 707.93526 C 1052.306 708.2346 1056.7 710.82053 1059.2877 715.28261 C 1063.4242 722.42213 1061.0966 731.19374 1053.9578 735.33214 C 1046.8179 739.47176 1038.0474 737.14205 1033.9083 730.0022 C 1029.7684 722.86268 1032.0988 714.09217 1039.2382 709.95267 C 1041.9156 708.40003 1044.827 707.75561 1047.6316 707.93526 z " /><path
       id="rectB"
       style="stroke-width:1"
       d="M 0,0 V 637.45057 H 637.60001 V 0 Z m 683.27808,45.553532 -0.0498,546.318608 H 865.36767 V 364.40335 l 182.26393,227.46879 h 181.9402 V 45.553532 H 1047.6316 V 273.42082 L 865.34277,45.553532 Z" /><path
       id="bigC"
       d="m 584.886,177.689 -158.359,90.5934 c -23.2039,-37.2454 -56.2395,-51.4974 -87.0196,-51.7556 -56.0546,-0.46964 -104.396,44.5316 -104.366,101.936 -0.0277,59.0513 48.4672,101.885 101.515,102.786 31.7094,0.53425 70.2922,-17.1275 89.8952,-52.1477 l 158.35,90.8261 c -57.5641,99.2249 -156.249,144.026 -248.457,143.866 -146.216,-0.24006 -283.764,-117.14 -283.748,-285.087 -0.005,-167.067 138.104,-285.995 284.306,-285.055 94.8143,0.617149 191.471,45.2234 247.899,144.026 z"
       fill="#ffffff"
       style="stroke-width:1" /></g></svg>
