<?xml version="1.0" encoding="UTF-8" standalone="no"?>
<svg
   width="99.648476"
   height="100"
   version="1.1"
   viewBox="0 0 26.364994 26.457863"
   id="svg15"
   sodipodi:docname="Cartoonito.svg"
   inkscape:version="1.4.2 (f4327f4, 2025-05-13)"
   xmlns:inkscape="http://www.inkscape.org/namespaces/inkscape"
   xmlns:sodipodi="http://sodipodi.sourceforge.net/DTD/sodipodi-0.dtd"
   xmlns="http://www.w3.org/2000/svg"
   xmlns:svg="http://www.w3.org/2000/svg">
  <defs
     id="defs15" />
  <sodipodi:namedview
     id="namedview15"
     pagecolor="#ffffff"
     bordercolor="#000000"
     borderopacity="0.25"
     inkscape:showpageshadow="2"
     inkscape:pageopacity="0.0"
     inkscape:pagecheckerboard="0"
     inkscape:deskcolor="#d1d1d1"
     inkscape:zoom="7.35"
     inkscape:cx="49.863946"
     inkscape:cy="50"
     inkscape:window-width="1920"
     inkscape:window-height="974"
     inkscape:window-x="-11"
     inkscape:window-y="-11"
     inkscape:window-maximized="1"
     inkscape:current-layer="svg15" />
  <g
     transform="matrix(0.45163009,0,0,0.45163009,69.898747,8.4927909)"
     id="g15"
     style="display:inline">
    <path
       d="m -96.393,36.076 c 0.006,1.982 -1.5837,3.6004 -3.5657,3.6235 -13.738,0.15779 -27.725,0.01545 -41.397,0.07894 -3.2694,-0.03464 -6.5368,-0.07894 -9.8062,-0.10204 -1.9859,-0.01299 -3.585,-1.6318 -3.5811,-3.6177 0.025,-17.065 0.008,-34.177 -0.0269,-51.244 -0.004,-1.9993 1.6164,-3.6215 3.6158,-3.6196 16.986,0.01154 34.12,0.07317 51.102,0.01154 1.9859,-0.0072 3.6061,1.5895 3.6254,3.5773 0.0231,2.3149 0.0365,4.7665 0.0212,6.6946 -0.17126,13.047 -0.0212,31.83 0.013,44.597"
       color="#262626"
       fill="#2eccf2"
       id="path1" />
    <path
       d="m -129.33,8.51 c -0.24053,-3.2482 -1.7954,-6.3867 -4.728,-8.0859 -3.2136,-1.8608 -8.2167,-1.984 -11.453,-0.16742 -3.7524,2.1033 -5.746,6.3078 -5.3091,10.468 0.40603,3.8813 2.3072,7.5933 6.3194,8.8383 3.6581,1.1373 8.4804,1.0776 11.732,-1.0988 3.331,-2.2283 3.7081,-6.329 3.4387,-9.9544"
       color="#262626"
       fill="#ffffff"
       id="path2" />
    <path
       d="m -111.86,-0.94097 c -3.2925,0.08659 -6.533,1.474 -8.3822,4.2873 -2.0263,3.0846 -2.3765,8.0108 -0.68889,11.29 1.9551,3.7966 6.1096,5.9595 10.333,5.7209 3.939,-0.21937 7.7742,-1.9224 9.2154,-5.821 1.3124,-3.5561 1.4721,-8.3149 -0.57922,-11.625 -2.0994,-3.3868 -6.2251,-3.9506 -9.8986,-3.8524"
       color="#262626"
       fill="#ffffff"
       id="path3" />
    <path
       d="m -138.76,3.2528 c -0.22707,-0.04618 -0.45029,-0.07505 -0.66966,-0.09237 -2.1744,-0.22514 -4.3566,0.26747 -5.6247,2.2168 -1.195,1.8416 -1.3451,4.6279 -0.66196,6.6581 0.78704,2.3419 2.7941,3.9968 5.3457,4.1007 2.1879,0.08847 4.7838,-0.61963 5.9307,-2.5766 0.98716,-1.6799 1.0295,-4.3489 0.50224,-6.1789 -0.62155,-2.1571 -2.6324,-3.6716 -4.8223,-4.1276"
       color="#262626"
       id="path4" />
    <path
       d="m -105.4,5.8218 c -1.1738,-1.7896 -3.3618,-2.5112 -5.4054,-2.6459 -0.38293,-0.02498 -0.76394,-0.03074 -1.1488,0.0013 -1.9339,0.16356 -3.7601,1.0872 -4.6895,2.9153 -1.3932,2.744 -1.0064,6.7658 1.5452,8.6382 2.4227,1.7742 6.7312,2.3188 9.0038,-0.03074 2.1033,-2.1725 2.3342,-6.379 0.69468,-8.8787"
       color="#262626"
       id="path5" />
    <path
       d="m -125.4,22.968 h -0.0173 c -0.077,0 -0.15587,0 -0.23284,-0.0013 -0.0731,-0.0043 -0.14817,-0.0072 -0.22129,-0.01154 -0.004,0 -0.01,0 -0.0134,-0.0013 -0.11738,-0.0058 -0.23476,-0.01545 -0.35022,-0.02887 -0.0712,-0.0072 -0.13855,-0.0173 -0.20782,-0.02498 -0.0289,-0.0058 -0.0597,-0.01011 -0.0905,-0.01299 -1.7973,-0.26555 -2.7306,-1.0911 -2.7286,-1.0911 -0.23284,-0.18088 -0.43296,-0.37331 -0.58691,-0.57729 -0.37331,-0.49454 -0.45991,-1.1873 -0.20397,-1.5952 0.22514,-0.356 0.65233,-0.54265 1.1103,-0.44837 0,0 0.0366,0.0058 0.10006,0.02699 0.004,0.0013 0.01,0.0013 0.0154,0.0043 0.052,0.0173 0.11931,0.04618 0.20205,0.08847 0.0212,0.01154 0.0423,0.02122 0.0616,0.03276 0.0962,0.05196 0.20782,0.12513 0.33097,0.21553 0,0 0.0134,0.01154 0.0385,0.03276 0.0173,0.01299 0.0327,0.0231 0.05,0.03651 0,0 0.0231,0.01921 0.0577,0.04806 0.18281,0.14042 0.51379,0.38101 0.87363,0.56766 0.483,0.23477 1.0911,0.43105 1.7704,0.4195 h 0.0635 c 0.67928,0.01154 1.2874,-0.18473 1.7684,-0.4195 0.36177,-0.18665 0.69275,-0.42719 0.87556,-0.56766 0.0346,-0.02886 0.0577,-0.04806 0.0577,-0.04618 0.0173,-0.01545 0.0327,-0.02498 0.05,-0.03853 0.025,-0.02122 0.0385,-0.03276 0.0346,-0.02699 0.12508,-0.09626 0.23669,-0.16935 0.3329,-0.2213 0.0212,-0.01154 0.0423,-0.02122 0.0616,-0.03276 0.0847,-0.04228 0.15202,-0.07115 0.20398,-0.08847 0.006,-0.0013 0.01,-0.0013 0.0154,-0.0043 0.0616,-0.02122 0.10006,-0.02699 0.10006,-0.02122 0.45798,-0.10002 0.88517,0.0866 1.1103,0.4426 0.25594,0.40795 0.16934,1.1007 -0.20397,1.5952 -0.15394,0.20398 -0.35407,0.39641 -0.58499,0.57729 0,0 -0.93328,0.82552 -2.7325,1.0911 -0.0289,0.0043 -0.0596,0.0072 -0.0904,0.01299 -0.0674,0.0072 -0.1347,0.01733 -0.2059,0.02498 -0.11546,0.01299 -0.23284,0.0231 -0.35023,0.02886 -0.004,0.0013 -0.01,0.0013 -0.0134,0.0013 -0.0789,0.0058 -0.15587,0.0072 -0.23477,0.01154 -0.0712,0.0013 -0.14432,0.0013 -0.21552,0.0013"
       color="#262626"
       fill="#ed1c99"
       id="path6" />
  </g>
</svg>
