<?xml version="1.0" encoding="UTF-8" standalone="no"?>
<!-- Generator: Adobe Illustrator 16.0.0, SVG Export Plug-In . SVG Version: 6.00 Build 0)  -->

<svg
   version="1.1"
   id="Layer_1"
   x="0px"
   y="0px"
   width="100"
   height="36.027779"
   viewBox="0 0 99.999997 36.027779"
   enable-background="new 0 0 349.2 126"
   xml:space="preserve"
   sodipodi:docname="Cinemax_(Yellow).svg"
   inkscape:version="1.4.2 (f4327f4, 2025-05-13)"
   xmlns:inkscape="http://www.inkscape.org/namespaces/inkscape"
   xmlns:sodipodi="http://sodipodi.sourceforge.net/DTD/sodipodi-0.dtd"
   xmlns="http://www.w3.org/2000/svg"
   xmlns:svg="http://www.w3.org/2000/svg"><defs
   id="defs1" /><sodipodi:namedview
   id="namedview1"
   pagecolor="#ffffff"
   bordercolor="#000000"
   borderopacity="0.25"
   inkscape:showpageshadow="2"
   inkscape:pageopacity="0.0"
   inkscape:pagecheckerboard="0"
   inkscape:deskcolor="#d1d1d1"
   inkscape:zoom="9.58"
   inkscape:cx="50"
   inkscape:cy="18.006263"
   inkscape:window-width="1920"
   inkscape:window-height="974"
   inkscape:window-x="-11"
   inkscape:window-y="-11"
   inkscape:window-maximized="1"
   inkscape:current-layer="Layer_1" />

<g
   id="g1"
   transform="matrix(0.28663315,0,0,0.28663315,-0.01777126,-0.0493009)"><polygon
     fill="#000000"
     points="12.685,111.124 12.685,51.561 333.189,20.854 333.189,80.413 "
     id="polygon1" /><path
     fill="#febe20"
     d="m 257.013,48.161 2.443,10.299 -7.852,0.964 z M 348.94,0.172 337.334,82.762 0.062,125.865 11.664,43.267 Z m -40.117,46.117 15.963,-23.271 -16.633,2.044 -7.441,11.493 -6.186,-9.824 L 279,28.635 291.592,47.776 277.22,68.75 266.452,30.245 l -14.228,1.759 -22.864,43.557 5.863,-41.539 -15.775,1.931 -11.393,16.722 -7.021,-14.46 -14.167,1.741 -6.248,44.388 14.04,-1.732 3.087,-22.003 7.648,14.578 0.25,-0.023 12.105,-17.005 -3.092,22 13.132,-1.609 1.171,-0.15 14.475,-1.773 3.033,-6.223 15.045,-1.855 1.443,5.682 11.479,-1.416 3.791,-0.457 12.833,-1.582 8.733,-13.411 6.73,11.51 15.526,-1.908 z m -151.321,13.663 0.638,-4.505 22.519,-2.772 1.74,-12.171 -36.632,4.505 -6.26,44.375 36.603,-4.496 1.694,-12.166 -22.507,2.764 0.721,-4.826 20.98,-2.574 1.49,-10.706 z m -65.436,35.257 14.234,-1.736 3.151,-22.078 12.809,20.109 12.757,-1.568 6.264,-44.375 -14.232,1.732 -3.011,21.194 -12.28,-19.308 -13.435,1.656 z m 1.845,-43.841 -14.352,1.764 -6.271,44.38 14.361,-1.756 z M 32.974,94.82 c -0.407,3.961 3.647,7.227 9.012,6.572 0.006,0 0.009,0 0.024,0 l 26.769,-3.303 1.852,-12.396 -18.199,2.229 c -2.406,0.303 -4.576,-0.451 -4.153,-3.568 L 49.876,73.11 c 0.477,-3.572 3.497,-4.537 6.661,-4.912 l 16.859,-2.062 1.772,-12.442 -29.644,3.641 c -4.133,0.511 -7.332,3.144 -8.299,7.024 z"
     id="path1" /></g>
</svg>
