<?xml version="1.0" encoding="UTF-8" standalone="no"?>
<svg
   width="100"
   height="100"
   viewBox="0 0 99.999999 99.999999"
   version="1.1"
   id="svg1"
   sodipodi:docname="Cinecanal.svg"
   inkscape:version="1.4.2 (f4327f4, 2025-05-13)"
   xmlns:inkscape="http://www.inkscape.org/namespaces/inkscape"
   xmlns:sodipodi="http://sodipodi.sourceforge.net/DTD/sodipodi-0.dtd"
   xmlns="http://www.w3.org/2000/svg"
   xmlns:svg="http://www.w3.org/2000/svg">
  <defs
     id="defs1" />
  <sodipodi:namedview
     id="namedview1"
     pagecolor="#737373"
     bordercolor="#000000"
     borderopacity="0.25"
     inkscape:showpageshadow="2"
     inkscape:pageopacity="0.0"
     inkscape:pagecheckerboard="0"
     inkscape:deskcolor="#d1d1d1"
     showguides="false"
     inkscape:zoom="9.2287319"
     inkscape:cx="97.954953"
     inkscape:cy="95.625273"
     inkscape:window-width="1920"
     inkscape:window-height="974"
     inkscape:window-x="-11"
     inkscape:window-y="-11"
     inkscape:window-maximized="1"
     inkscape:current-layer="svg1">
    <sodipodi:guide
       position="318.57104,-218.57031"
       orientation="1,0"
       id="guide1"
       inkscape:locked="false" />
  </sodipodi:namedview>
  <path
     id="path2"
     style="display:inline;fill:#ffffff;fill-rule:evenodd;stroke-width:0.156951"
     d="M 49.999999,0 A 49.999999,49.999999 0 0 0 0,49.999999 49.999999,49.999999 0 0 0 49.999999,100 49.999999,49.999999 0 0 0 100,49.999999 49.999999,49.999999 0 0 0 49.999999,0 Z m 2.590924,27.302155 c 0.96762,0.04234 1.930756,0.136961 2.781591,0.289992 4.876789,0.847223 9.344709,3.260926 12.726535,6.8752 1.011394,1.086417 1.72852,2.060966 2.569464,3.268078 -0.554664,0.234014 -2.28798,1.335772 -2.91249,1.715123 -2.10079,1.287941 -4.208794,2.563598 -6.324024,3.827525 -0.67646,-0.931348 -1.38129,-1.729982 -2.27089,-2.469222 -2.46335,-2.062968 -5.65471,-3.045377 -8.851806,-2.724882 -3.138552,0.314059 -6.024536,1.85938 -8.025663,4.29746 -2.027338,2.450792 -2.992002,5.609774 -2.679512,8.775167 0.312334,3.225973 1.924269,6.185963 4.464526,8.198863 2.452363,1.95624 5.573107,2.874966 8.694239,2.559651 3.62196,-0.390807 6.21964,-2.153007 8.456666,-4.913307 l 2.89992,1.75926 c 2.041465,1.308196 4.25216,2.518276 6.296134,3.845616 -0.30119,0.444954 -0.61641,0.879794 -0.945688,1.30435 -3.710956,4.774614 -9.16366,7.883074 -15.16296,8.64366 -5.984395,0.75368 -12.021595,-0.919056 -16.764662,-4.64539 -4.749657,-3.69746 -7.843776,-9.12371 -8.606874,-15.094296 -0.751795,-6.022215 0.943651,-12.094413 4.706085,-16.856314 3.121916,-3.98201 7.487185,-6.804325 12.399759,-8.016774 1.353076,-0.331479 2.369318,-0.454834 3.741387,-0.615235 0.868644,-0.05682 1.840639,-0.06686 2.808263,-0.02452 z" />
</svg>
