<?xml version="1.0" encoding="UTF-8" standalone="no"?>
<!-- Generator: Adobe Illustrator 23.1.0, SVG Export Plug-In . SVG Version: 6.00 Build 0)  -->

<svg
   version="1.1"
   id="Layer_2"
   x="0px"
   y="0px"
   width="93.540237"
   height="100"
   viewBox="0 0 93.540237 99.999999"
   enable-background="new 0 0 1000 344.9241333"
   xml:space="preserve"
   sodipodi:docname="Comedy_Central_2018.svg"
   inkscape:version="1.4.2 (f4327f4, 2025-05-13)"
   xmlns:inkscape="http://www.inkscape.org/namespaces/inkscape"
   xmlns:sodipodi="http://sodipodi.sourceforge.net/DTD/sodipodi-0.dtd"
   xmlns="http://www.w3.org/2000/svg"
   xmlns:svg="http://www.w3.org/2000/svg"><defs
   id="defs12" /><sodipodi:namedview
   id="namedview12"
   pagecolor="#ffffff"
   bordercolor="#000000"
   borderopacity="0.25"
   inkscape:showpageshadow="2"
   inkscape:pageopacity="0.0"
   inkscape:pagecheckerboard="0"
   inkscape:deskcolor="#d1d1d1"
   inkscape:zoom="7.35"
   inkscape:cx="46.802721"
   inkscape:cy="50"
   inkscape:window-width="1920"
   inkscape:window-height="974"
   inkscape:window-x="-11"
   inkscape:window-y="-11"
   inkscape:window-maximized="1"
   inkscape:current-layer="Layer_2" />













<path
   id="path11"
   d="M 43.539389,0 C 34.238484,0 25.731588,2.3694688 18.022548,7.1058489 10.313224,11.842939 4.3074478,18.045485 0,25.711633 l 10.464833,5.685131 c 3.187552,-5.685413 7.752082,-10.293262 13.694713,-13.826083 5.94546,-3.530271 12.405084,-5.296685 19.379843,-5.296685 5.167582,0 10.07809,0.991926 14.728685,2.972804 4.650733,1.980876 8.678182,4.670699 12.079771,8.074698 3.404285,3.401734 6.11718,7.406246 8.140951,12.014089 2.007084,4.569148 3.018542,9.456598 3.03509,14.664131 1.39e-4,-0.0433 5.69e-4,-0.08634 5.69e-4,-0.129673 v 0.25991 c 0,-0.04334 -4.3e-4,-0.08695 -5.69e-4,-0.130237 -0.01655,5.20712 -1.027864,10.09513 -3.03509,14.664695 -2.023911,4.607841 -4.736809,8.612635 -8.140951,12.014088 -3.401589,3.404284 -7.429038,6.093963 -12.079771,8.074698 -4.650314,1.98102 -9.56068,2.972805 -14.728685,2.972805 -6.974617,0 -13.434525,-1.766414 -19.379843,-5.296685 C 18.21649,78.896219 13.651819,74.28837 10.464833,68.603236 L 0,74.288367 C 4.3082973,81.954793 10.313507,88.157769 18.022548,92.89415 25.731164,97.630816 34.238061,100 43.539389,100 c 6.891238,0 13.3939,-1.31483 19.51065,-3.941655 6.113921,-2.626827 11.410468,-6.199851 15.889492,-10.72191 4.479011,-4.521482 8.032231,-9.840827 10.659056,-15.955174 C 92.209081,63.303286 93.523854,56.843748 93.54024,50.000282 93.523854,43.157103 92.209081,36.697134 89.598587,30.61874 86.971904,24.504821 83.418684,19.18562 78.939531,14.663564 74.460787,10.141508 69.164384,6.5684778 63.050039,3.9416537 56.933857,1.3146882 50.430766,0 43.539389,0 Z m 0,24.672001 c -3.444485,0 -6.717401,0.669163 -9.818741,2.003952 -3.10134,1.334931 -5.791446,3.143952 -8.075267,5.425224 -2.281129,2.283537 -4.090154,4.97378 -5.425223,8.075265 -1.334931,3.101197 -2.003388,6.416872 -2.003388,9.949547 0,3.530275 0.668457,6.845946 2.003388,9.947283 1.335069,3.101342 3.144094,5.79131 5.425223,8.075266 2.28368,2.283682 4.973785,4.090295 8.075267,5.425225 3.101198,1.334932 6.374256,2.003952 9.818741,2.003952 4.653144,0 8.981122,-1.206394 12.985206,-3.618894 4.004644,-2.409953 7.083338,-5.511011 9.238338,-9.301192 l -10.4637,-5.942774 c -1.120323,2.066805 -2.735262,3.724495 -4.844818,4.973357 -2.112101,1.249141 -4.416312,1.872583 -6.914457,1.872583 -3.701844,0 -6.868591,-1.311999 -9.495418,-3.938823 -2.626963,-2.627105 -3.939389,-5.794134 -3.939389,-9.495983 0,-3.704392 1.312565,-6.891386 3.939389,-9.5611 2.626827,-2.669861 5.793574,-4.004507 9.495418,-4.004507 2.498145,0 4.802356,0.665768 6.914457,2.000555 2.109556,1.334932 3.724495,2.993047 4.844818,4.973924 L 65.764068,37.592085 C 63.60907,33.71612 60.553164,30.594816 56.591413,28.225209 52.627109,25.858291 48.278885,24.672001 43.539389,24.672001 Z"
   style="fill:#fdc600;fill-opacity:1;stroke-width:0.289919" />

</svg>
