<?xml version="1.0" encoding="UTF-8" standalone="no"?>
<svg
   version="1.0"
   width="100"
   height="30.434813"
   viewBox="0 0 80 24.34785"
   preserveAspectRatio="xMidYMid"
   id="svg2"
   inkscape:version="1.4.2 (f4327f4, 2025-05-13)"
   sodipodi:docname="Discovery Theater.svg"
   inkscape:export-filename="Discovery Theater.png"
   inkscape:export-xdpi="300"
   inkscape:export-ydpi="300"
   xmlns:inkscape="http://www.inkscape.org/namespaces/inkscape"
   xmlns:sodipodi="http://sodipodi.sourceforge.net/DTD/sodipodi-0.dtd"
   xmlns="http://www.w3.org/2000/svg"
   xmlns:svg="http://www.w3.org/2000/svg"
   xmlns:rdf="http://www.w3.org/1999/02/22-rdf-syntax-ns#"
   xmlns:cc="http://creativecommons.org/ns#"
   xmlns:dc="http://purl.org/dc/elements/1.1/">
  <title
     id="title3019">2015  Discovery Theater HD</title>
  <defs
     id="defs40" />
  <sodipodi:namedview
     pagecolor="#ffffff"
     bordercolor="#666666"
     borderopacity="1"
     objecttolerance="10"
     gridtolerance="10"
     guidetolerance="10"
     inkscape:pageopacity="0"
     inkscape:pageshadow="2"
     inkscape:window-width="1920"
     inkscape:window-height="974"
     id="namedview38"
     showgrid="false"
     inkscape:zoom="7.35"
     inkscape:cx="50"
     inkscape:cy="50"
     inkscape:window-x="-11"
     inkscape:window-y="-11"
     inkscape:window-maximized="1"
     inkscape:current-layer="svg2"
     inkscape:showpageshadow="false"
     inkscape:pagecheckerboard="0"
     inkscape:deskcolor="#d1d1d1" />
  <metadata
     id="metadata4">
Created by potrace 1.11, written by Peter Selinger 2001-2013
<rdf:RDF>
  <cc:Work
     rdf:about="">
    <dc:format>image/svg+xml</dc:format>
    <dc:type
       rdf:resource="http://purl.org/dc/dcmitype/StillImage" />
    <dc:title>2015  Discovery Theater HD</dc:title>
    <cc:license
       rdf:resource="http://scripts.sil.org/OFL" />
  </cc:Work>
  <cc:License
     rdf:about="http://scripts.sil.org/OFL">
    <cc:permits
       rdf:resource="http://scripts.sil.org/pub/OFL/Reproduction" />
    <cc:permits
       rdf:resource="http://scripts.sil.org/pub/OFL/Distribution" />
    <cc:permits
       rdf:resource="http://scripts.sil.org/pub/OFL/Embedding" />
    <cc:permits
       rdf:resource="http://scripts.sil.org/pub/OFL/DerivativeWorks" />
    <cc:requires
       rdf:resource="http://scripts.sil.org/pub/OFL/Notice" />
    <cc:requires
       rdf:resource="http://scripts.sil.org/pub/OFL/Attribution" />
    <cc:requires
       rdf:resource="http://scripts.sil.org/pub/OFL/ShareAlike" />
    <cc:requires
       rdf:resource="http://scripts.sil.org/pub/OFL/DerivativeRenaming" />
    <cc:requires
       rdf:resource="http://scripts.sil.org/pub/OFL/BundlingWhenSelling" />
  </cc:License>
</rdf:RDF>
</metadata>
  <path
     style="fill:#ffffff;stroke:none;stroke-width:0.0196994"
     d="M 0,7.2463778e-7 V 2.2402308 l 4.1600985,0.034465 c 0,0 0.033139,7.1153778 0.039409,12.3360362 h 3.3743843 l 0.02463,-12.3581923 4.3940882,0.019695 c 0.0197,0.024618 0.02955,1.674018 0.03202,6.1864814 l 0.0074,6.1520169 c 1.120683,0.0059 2.241376,0.009 3.362069,0.01231 0.0023,-2.285366 0.0074,-4.570727 0.01232,-6.8560893 l 5.256157,0.019695 c 0.04947,2.4515943 0.03316,3.9532893 0.03941,6.8240853 l 6.65271,0.0074 6.65271,0.005 1.748768,-4.000412 5.825123,0.02955 1.768472,3.97087 h 3.399015 c 0,0 -4.199731,-9.7635805 -6.34729,-14.61073162 l -3.455666,0.0123089 -5.381773,12.25972072 -0.03448,0.06154 -3.699508,0.0074 C 25.108392,12.35588 24.12317,12.35088 24.09854,12.33123 24.03876,10.678475 24.06965,9.8177674 24.07638,7.7424506 l 6.403941,-0.024618 V 5.5267221 l -6.384237,-0.039388 c -0.05512,-1.1683779 -0.02642,-1.7789902 -0.0197,-3.2347937 l 8.374385,-0.024618 -0.0025,-0.068931 C 32.444969,1.3943897 32.442269,0.81241612 32.438469,4.1759842e-7 H 20.689655 C 20.687378,1.8340392 20.682305,3.6680711 20.677336,5.502104 L 15.428567,5.4873328 C 15.366362,3.5130269 15.394085,2.4797027 15.394085,0 Z m 43.596059,0 V 2.2402308 l 4.061577,0.034465 c 0.04914,4.4404865 0.03314,7.1153778 0.03941,12.3360362 H 49.371923 51.0468 C 51.055,10.491335 51.06322,6.371937 51.07143,2.2525397 h 3.990147 c 0.0082,4.1193973 0.01642,8.2387953 0.02463,12.3581923 h 15.024635 l 0.02463,-5.9329172 c 1.994274,1.9990422 4.063411,3.9233202 6.034483,5.9452262 H 80 L 74.091133,8.4267122 c 0.0098,-0.02708 0.167488,-0.081239 0.236453,-0.081239 0.02956,0 0.06157,-0.00984 0.06897,-0.024618 0.0074,-0.014771 0.0468,-0.024618 0.08621,-0.024618 0.03941,0 0.07882,-0.012308 0.08621,-0.024618 0.0074,-0.014771 0.04187,-0.024618 0.07389,-0.024618 0.03202,0 0.06404,-0.00984 0.07143,-0.022156 0.0074,-0.00984 0.05911,-0.02708 0.113301,-0.036926 0.05665,-0.00738 0.120689,-0.024618 0.142857,-0.036926 0.02216,-0.012308 0.06896,-0.032003 0.103447,-0.046774 0.03448,-0.012309 0.100983,-0.04185 0.147784,-0.061545 0.0468,-0.019695 0.147782,-0.061545 0.221675,-0.093548 0.07389,-0.032003 0.174876,-0.078777 0.221675,-0.1033954 0.236452,-0.1329368 0.312807,-0.1747872 0.362068,-0.1994051 0.03202,-0.014771 0.05665,-0.034465 0.05665,-0.046774 0,-0.00984 0.0098,-0.017233 0.02463,-0.017233 0.01971,0 0.310345,-0.1944815 0.3867,-0.258488 0.01725,-0.012308 0.04434,-0.036926 0.06157,-0.049236 0.0665,-0.054159 0.401477,-0.342189 0.426107,-0.3668069 0.01478,-0.014771 0.09606,-0.1107807 0.18473,-0.211714 0.08867,-0.1009338 0.165024,-0.189558 0.172413,-0.1969433 0.02709,-0.024618 0.197045,-0.2707971 0.197045,-0.2855679 0,-0.00738 0.02216,-0.044313 0.0468,-0.081239 0.07143,-0.098472 0.174877,-0.3003385 0.174877,-0.3372654 0,-0.019695 0.01232,-0.034465 0.02463,-0.034465 0.01478,0 0.02463,-0.022156 0.02463,-0.046774 0,-0.02708 0.0098,-0.054159 0.02216,-0.061545 0.01232,-0.00738 0.02709,-0.039388 0.03448,-0.06893 0.0074,-0.032003 0.03202,-0.1181659 0.05419,-0.1920197 0.120689,-0.401272 0.14532,-0.5785209 0.14532,-1.0954971 0,-0.258488 -0.01232,-0.5342087 -0.02956,-0.6154478 C 77.975369,3.370193 77.960591,3.3061864 77.899015,3.1264757 77.731528,2.6242702 77.453203,2.1885332 77.017242,1.7503343 76.344828,1.0758036 75.559113,0.66222262 74.391625,0.37173117 74.339897,0.35695995 74.248768,0.33480466 74.187193,0.32003344 74.125619,0.30526222 74.012316,0.28310693 73.935961,0.26833571 73.857141,0.25602701 73.729064,0.2338709 73.652709,0.22156189 73.445813,0.18217328 73.231527,0.15016999 73.103448,0.13539924 72.647784,0.08370163 72.477832,0.06646909 72.130542,0.04431297 61.85119,-0.00306726 55.073576,0.00803266 43.596059,7.2463778e-7 Z M 70.369959,2.147029 c 0.402821,-0.00127 1.228564,0.019964 1.538908,0.043966 0.495074,0.036926 1.086207,0.1255514 1.35468,0.2018669 1.02463,0.2880297 1.586207,0.7385374 1.770936,1.4229154 0.06404,0.2412556 0.09606,0.4825111 0.07882,0.6179096 -0.03695,0.3175711 -0.04434,0.3569597 -0.06404,0.4037338 -0.0098,0.02708 -0.02709,0.083701 -0.03448,0.1280131 -0.03202,0.1895579 -0.229064,0.519438 -0.433498,0.7237666 -0.140394,0.142784 -0.369458,0.3175712 -0.413793,0.3175712 -0.01478,0 -0.02956,0.00984 -0.03448,0.019695 -0.0074,0.017233 -0.325124,0.177249 -0.463055,0.2314083 -0.03448,0.014771 -0.08128,0.034465 -0.103448,0.046774 -0.02216,0.012309 -0.08621,0.029541 -0.142857,0.036926 -0.05418,0.00984 -0.105911,0.02708 -0.1133,0.036926 -0.0074,0.012309 -0.04434,0.022156 -0.08375,0.022156 -0.03941,0 -0.07882,0.00984 -0.08621,0.024618 -0.0073,0.012308 -0.05173,0.024618 -0.09606,0.024618 -0.04187,0 -0.08868,0.00984 -0.100983,0.022156 -0.02709,0.024618 -0.06404,0.029541 -0.517241,0.086163 -0.647784,0.083701 -2.20936,0.1230896 -2.273399,0.059083 l -0.0098,-4.4607658 c 0.0056,-0.00616 0.09283,-0.00908 0.227102,-0.0095 z m -11.904441,0.1104344 8.231527,0.017233 c 0.01478,10.0711876 0.02107,5.7966825 0.01478,10.0711876 l -8.229064,-0.01477 c -0.05978,-1.652754 -0.02889,-2.5134618 -0.02216,-4.5887783 l 6.403941,-0.024618 -0.01478,-2.1442202 -6.371922,-0.064006 z m -19.78283,1.7899145 c 0.0041,5.479e-4 0.0081,0.00304 0.01189,0.00719 l 1.896551,4.3130567 H 36.78571 l 1.892702,-4.3201359 c 0.0014,-2.57e-4 0.0029,-2.98e-4 0.0042,-1.162e-4 z M 58.442079,17.542494 v 5.12595 l 1.075354,-0.0095 c 0.602491,-0.0071 1.130561,-0.02186 1.204973,-0.03616 0.343252,-0.06431 0.496971,-0.111764 0.708205,-0.22133 0.271239,-0.138145 0.33574,-0.176159 0.342942,-0.195214 0.0048,-0.0095 0.01911,-0.01661 0.03352,-0.01661 0.01201,0 0.03589,-0.01418 0.05269,-0.03085 0.01679,-0.01431 0.07487,-0.05978 0.12527,-0.10028 0.148824,-0.111948 0.465748,-0.454952 0.465748,-0.50259 0,-0.0095 0.01678,-0.03549 0.03598,-0.05693 0.04801,-0.0524 0.17984,-0.309585 0.17984,-0.350075 0,-0.01668 0.01216,-0.03146 0.02417,-0.03146 0.01442,0 0.02359,-0.02125 0.02359,-0.04508 0,-0.02619 0.01216,-0.0546 0.02417,-0.06174 0.01442,-0.0071 0.0242,-0.04555 0.0242,-0.08127 0,-0.03573 0.0096,-0.07352 0.01924,-0.08544 0.08402,-0.09289 0.122459,-1.05045 0.05765,-1.321981 -0.120019,-0.48352 -0.319489,-0.85266 -0.638739,-1.186123 -0.307245,-0.32155 -0.801815,-0.603068 -1.226678,-0.700725 -0.0528,-0.0119 -0.148576,-0.03318 -0.215787,-0.04746 -0.07201,-0.01668 -0.554867,-0.02848 -1.217365,-0.03562 l -1.098945,-0.0094 v -3.9e-5 z m -38.77767,0.0036 v 0.868666 c 0.134313,0.06032 0.262581,0.130197 0.382658,0.212407 0.195172,0.133599 0.367957,0.296326 0.515971,0.478819 v -0.747015 h 1.008351 c 1.073992,0 1.775516,0.733321 1.775516,1.734985 0,1.001656 -0.701524,1.7201 -1.775516,1.7201 h -0.791294 c -0.187871,0.327043 -0.450185,0.604649 -0.764048,0.812891 h 1.555342 c 1.607346,0 2.718134,-1.110605 2.718134,-2.547839 0,-1.437494 -1.110788,-2.532991 -2.718134,-2.532991 z m 33.296143,0.0083 v 3.9e-5 5.113487 l 0.467596,0.01481 0.01239,-2.349049 3.098946,0.01481 0.03348,2.331854 h 0.479988 V 17.5591 h -0.479985 l -0.01243,2.322355 -3.098291,-0.01423 -0.0341,-2.308123 -0.467596,-0.0048 z m 6.214286,0.423698 c 0.107622,-3.34e-4 0.259783,0.0018 0.472213,0.0054 0.386461,0.0048 0.7725,0.02134 0.858914,0.03324 0.228035,0.03573 0.3556,0.06623 0.511621,0.123397 0.585687,0.219133 1.051492,0.693336 1.245922,1.272131 0.08641,0.254858 0.09798,0.35234 0.09798,0.716765 -0.0026,0.366808 -0.01929,0.55055 -0.05769,0.574367 -0.012,0.0071 -0.02109,0.03316 -0.02109,0.05935 0,0.02382 -0.0097,0.06457 -0.02171,0.08839 -0.0096,0.02145 -0.06247,0.128378 -0.112879,0.235562 -0.0504,0.109567 -0.100777,0.197598 -0.110374,0.197598 -0.012,0 -0.01924,0.0094 -0.01924,0.0237 0,0.09766 -0.580984,0.619488 -0.689001,0.619488 -0.01679,0 -0.03101,0.007 -0.03101,0.01896 0,0.0095 -0.03609,0.03141 -0.07689,0.04809 -0.04321,0.01905 -0.103313,0.04267 -0.13212,0.05458 -0.03121,0.01191 -0.07907,0.03079 -0.107874,0.04508 -0.225636,0.09527 -0.837861,0.150157 -1.543567,0.138245 l -0.504194,-0.0071 v -4.222857 c 0.0048,-0.01309 0.04138,-0.02044 0.147592,-0.02312 v 0 c 0.02655,-6.83e-4 0.0575,-0.001 0.09336,-0.0012 z M 18.774515,18.63664 c -1.139848,0 -2.063887,0.884089 -2.063886,1.974664 -1e-6,1.090577 0.924038,1.974665 2.063886,1.974665 1.139847,0 2.063847,-0.884088 2.063846,-1.974665 1e-6,-1.090575 -0.923999,-1.974664 -2.063846,-1.974664 z m 12.853331,0.160786 c -1.131532,0 -1.962784,0.894725 -1.962784,1.965779 0,1.07131 0.831354,1.9432 1.955935,1.9432 0.737226,0 1.174332,-0.291265 1.547914,-0.701918 L 32.645512,21.49301 c -0.272203,0.277535 -0.572746,0.469357 -0.981719,0.469357 -0.666321,0 -1.131158,-0.539287 -1.131158,-1.213394 0,-0.6599 0.457686,-1.199162 1.088362,-1.199162 0.436582,0 0.716617,0.191779 0.981104,0.467548 l 0.538293,-0.573752 c -0.351715,-0.384312 -0.795218,-0.646176 -1.512548,-0.646176 z m 3.769898,6.15e-4 c -0.291909,0 -0.561511,0.05293 -0.806804,0.157247 -0.245868,0.103374 -0.458206,0.244388 -0.637508,0.422466 -0.179363,0.177571 -0.320358,0.383977 -0.422953,0.620025 -0.102847,0.236048 -0.153824,0.489233 -0.153824,0.760078 v 0.01365 c 0,0.265921 0.04973,0.515074 0.150092,0.752386 0.100176,0.23586 0.241047,0.441811 0.419834,0.617679 0.178092,0.174417 0.392339,0.313391 0.63693,0.415311 0.246571,0.100849 0.512807,0.1519 0.799993,0.1519 0.290696,0 0.560908,-0.05225 0.810537,-0.156631 0.24657,-0.103564 0.460558,-0.243703 0.640626,-0.421274 0.178598,-0.176879 0.320216,-0.384448 0.422299,-0.621257 0.10266,-0.236804 0.15321,-0.487811 0.15321,-0.751769 v -0.01542 c 0,-0.268822 -0.04978,-0.521007 -0.148861,-0.755347 -0.10087,-0.234788 -0.241151,-0.439997 -0.420452,-0.617063 C 36.662008,19.19188 36.449261,19.054 36.203971,18.951132 35.9581,18.851232 35.687925,18.79804 35.397744,18.798041 Z m 7.865456,0 c -0.272904,0 -0.52163,0.05319 -0.746075,0.153092 -0.224445,0.102868 -0.418406,0.240748 -0.583551,0.41889 -0.164508,0.177066 -0.292731,0.384448 -0.383274,0.621255 -0.08926,0.236049 -0.137662,0.489643 -0.137662,0.758271 v 0.01484 c 0,0.289094 0.05056,0.5535 0.151939,0.791505 0.09947,0.239268 0.237084,0.443338 0.411791,0.613525 0.174714,0.170689 0.381134,0.302747 0.616419,0.396963 0.237197,0.09447 0.491188,0.142399 0.762815,0.142399 0.348782,0 0.649259,-0.06363 0.899208,-0.191635 0.251227,-0.127305 0.467559,-0.29766 0.649284,-0.510283 l -0.509737,-0.446815 c -0.152392,0.146061 -0.307023,0.257789 -0.464516,0.332303 -0.157496,0.07572 -0.344499,0.114512 -0.559383,0.114512 -0.281828,0 -0.522297,-0.08302 -0.720598,-0.245064 -0.197665,-0.163553 -0.320535,-0.398222 -0.368995,-0.706072 h 2.780749 c 0.0051,-0.04288 0.008,-0.08454 0.01055,-0.125205 0.0026,-0.03872 0.0032,-0.07808 0.0032,-0.116282 0,-0.268885 -0.03825,-0.526142 -0.113494,-0.769578 -0.07715,-0.244953 -0.189994,-0.459095 -0.340479,-0.642605 -0.151756,-0.184519 -0.340451,-0.330524 -0.56681,-0.440276 -0.226995,-0.109311 -0.491649,-0.163747 -0.791333,-0.163747 v 0 z m -15.463594,0.016 c -0.186313,0 -0.361367,0.02589 -0.526516,0.07774 -0.165588,0.05178 -0.30819,0.127281 -0.430995,0.226677 -0.121276,0.0987 -0.216113,0.21851 -0.285868,0.358383 -0.069,0.140128 -0.103602,0.298962 -0.103602,0.478241 v 0.01481 c 0,0.180538 0.03582,0.330564 0.107296,0.453892 0.07174,0.12238 0.163884,0.225911 0.275977,0.30857 0.112607,0.08292 0.238055,0.149931 0.379543,0.201713 0.141235,0.05355 0.280831,0.09814 0.419834,0.135898 0.109608,0.03328 0.215411,0.06538 0.318772,0.09671 0.102143,0.02987 0.192543,0.06616 0.272245,0.105627 0.07843,0.04023 0.140597,0.08589 0.185422,0.137667 0.0468,0.05254 0.0682,0.114061 0.0682,0.183904 v 0.01547 c 0,0.121813 -0.0517,0.220289 -0.153788,0.294299 -0.103354,0.07274 -0.247294,0.109742 -0.432843,0.109742 -0.19728,0 -0.40052,-0.0393 -0.612723,-0.117473 -0.212965,-0.07773 -0.42228,-0.193228 -0.628232,-0.344151 l -0.386353,0.582675 c 0.239112,0.184267 0.497943,0.323264 0.777671,0.417735 0.278959,0.09497 0.55533,0.1424 0.827278,0.1424 0.196262,0 0.37954,-0.02484 0.551955,-0.07416 0.171838,-0.05058 0.321334,-0.122558 0.448353,-0.220753 0.126503,-0.09668 0.225338,-0.21737 0.297068,-0.364883 0.07148,-0.145998 0.1073,-0.319549 0.107296,-0.518593 v -0.01307 c 0,-0.169427 -0.03582,-0.315982 -0.107296,-0.433122 -0.07173,-0.118404 -0.163882,-0.218749 -0.275978,-0.302608 -0.112606,-0.08191 -0.237424,-0.151846 -0.376424,-0.208868 -0.139452,-0.05721 -0.276636,-0.105949 -0.414871,-0.148323 -0.110884,-0.0375 -0.216029,-0.07492 -0.31939,-0.106241 -0.103364,-0.03328 -0.193749,-0.07021 -0.272244,-0.110935 -0.07919,-0.04023 -0.141184,-0.08538 -0.189769,-0.134706 -0.04859,-0.04932 -0.07193,-0.108071 -0.07193,-0.174441 v -0.01361 c 0,-0.108552 0.0461,-0.199133 0.13951,-0.269413 0.09264,-0.07105 0.223152,-0.107395 0.390084,-0.107395 0.158641,0 0.33042,0.03264 0.515973,0.09674 0.186821,0.06441 0.371398,0.150745 0.553186,0.259296 l 0.344173,-0.61114 c -0.201237,-0.13198 -0.422702,-0.235058 -0.667294,-0.311532 -0.243638,-0.0757 -0.485374,-0.112745 -0.723716,-0.112742 z m 20.520321,0.06289 1.405904,3.720305 -0.01178,0.02493 c 0,0 -0.283258,0.758994 -0.538947,0.944021 -0.197664,0.0999 -0.658772,0.0924 -0.833475,0.08008 v 0.700764 c 0.304784,0 1.022557,0.01898 1.252733,-0.125821 0.291401,-0.179595 0.355464,-0.258569 0.553763,-0.657413 0.21552,-0.434144 1.873499,-4.686867 1.873499,-4.686867 h -0.902322 l -0.969288,2.746628 -0.906672,-2.746628 z m -23.511931,6.15e-4 v 3.745231 h 0.868227 v -3.745231 z m 12.638739,0 1.554727,3.774888 h 0.780789 l 1.548529,-3.774888 h -0.909754 l -1.025128,2.753129 -1.017665,-2.753129 z m 8.27721,0 v 3.745231 h 0.866995 v -1.425216 c 0,-0.250825 0.02416,-0.471564 0.0924,-0.652106 0.260788,-0.682064 0.989988,-0.876191 1.366188,-0.930942 l -0.297029,-0.717381 c -0.30351,0.05109 -0.835737,0.196649 -1.161561,0.598715 v -0.618294 z m -2.468827,0.624218 c 0.14474,0 0.272285,0.0246 0.384506,0.07416 0.110947,0.05052 0.207961,0.120154 0.290217,0.209446 0.08034,0.0903 0.145718,0.194134 0.192272,0.316263 0.0491,0.119603 0.07897,0.158831 0.09363,0.296684 h -1.941694 c 0.03889,-0.294019 0.145298,-0.440897 0.318733,-0.624219 0.174709,-0.181298 0.394525,-0.272335 0.662331,-0.272335 z m -7.871614,0.04981 v 3.9e-5 c 0.171141,0 0.328569,0.03078 0.470059,0.09494 0.139961,0.0641 0.261797,0.151142 0.364648,0.26045 0.102661,0.108552 0.182116,0.23547 0.239377,0.382731 0.05802,0.145558 0.08682,0.302903 0.08682,0.468164 v 0.01361 c 0,0.161093 -0.027,0.313287 -0.07936,0.458085 -0.05356,0.143852 -0.12938,0.270423 -0.229488,0.379731 -0.09966,0.108488 -0.220043,0.194082 -0.36153,0.258681 -0.140725,0.06365 -0.299926,0.09497 -0.476293,0.09497 -0.167378,0 -0.321758,-0.03131 -0.463247,-0.09497 -0.139959,-0.0646 -0.262562,-0.150558 -0.364646,-0.262835 -0.102661,-0.110511 -0.183289,-0.240572 -0.240611,-0.386886 -0.05776,-0.145997 -0.08621,-0.299594 -0.08621,-0.460432 v -0.01542 c 0,-0.163742 0.02766,-0.320409 0.08001,-0.46401 0.05229,-0.144988 0.127897,-0.269481 0.228833,-0.376769 0.100104,-0.105332 0.220653,-0.191044 0.362146,-0.255142 0.140722,-0.06416 0.296877,-0.09493 0.469481,-0.09493 z"
     id="path10"
     inkscape:connector-curvature="0" />
</svg>
