<?xml version="1.0" encoding="UTF-8" standalone="no"?>
<!-- Created with Inkscape (http://www.inkscape.org/) -->

<svg
   width="100"
   height="46"
   viewBox="0 0 26.458333 12.17083"
   version="1.1"
   id="svg5"
   inkscape:version="1.4.4 (dcaf3e7, 2026-05-05)"
   sodipodi:docname="Discovery Turbo.svg"
   inkscape:export-filename="..\PNG\Discovery Turbo.png"
   inkscape:export-xdpi="300"
   inkscape:export-ydpi="300"
   xmlns:inkscape="http://www.inkscape.org/namespaces/inkscape"
   xmlns:sodipodi="http://sodipodi.sourceforge.net/DTD/sodipodi-0.dtd"
   xmlns="http://www.w3.org/2000/svg"
   xmlns:svg="http://www.w3.org/2000/svg"
   xmlns:rdf="http://www.w3.org/1999/02/22-rdf-syntax-ns#"
   xmlns:cc="http://creativecommons.org/ns#"
   xmlns:dc="http://purl.org/dc/elements/1.1/">
  <title
     id="title7982">Discovery Turbo logo</title>
  <sodipodi:namedview
     id="namedview7"
     pagecolor="#ffffff"
     bordercolor="#111111"
     borderopacity="1"
     inkscape:pageshadow="0"
     inkscape:pageopacity="0"
     inkscape:pagecheckerboard="1"
     inkscape:document-units="px"
     showgrid="false"
     objecttolerance="1"
     gridtolerance="1"
     guidetolerance="1"
     units="px"
     inkscape:zoom="9.58"
     inkscape:cx="50"
     inkscape:cy="23.016701"
     inkscape:window-width="1920"
     inkscape:window-height="974"
     inkscape:window-x="-11"
     inkscape:window-y="-11"
     inkscape:window-maximized="1"
     inkscape:current-layer="svg5"
     inkscape:showpageshadow="2"
     inkscape:deskcolor="#d1d1d1" />
  <defs
     id="defs2" />
  <path
     id="path18-3"
     style="fill:#f60506;fill-opacity:1;stroke:none;stroke-width:0.00316929"
     d="M 14.238191,0.17281785 V 1.7550528 3.3372881 h 2.752205 c 3.088764,0 2.816784,0.025013 2.674325,-0.2417816 C 19.473697,2.7325363 19.07873,2.3352196 18.699919,2.1180578 18.350248,1.9195103 18.045696,1.8452685 17.524426,1.826655 16.873649,1.804938 16.462532,1.900902 16.061058,2.177004 15.976878,2.232848 15.899235,2.273233 15.883047,2.263923 15.870097,2.254613 15.856977,1.7800355 15.856977,1.2092102 V 0.17281785 h -0.80939 z m -12.5688409,0.003331 c -0.022665,0 -0.3884892,0.10848682 -0.80939066,0.23878393 L 0.08950909,0.65071942 V 1.9941704 3.337289 H 1.6662209 3.2398035 L 3.2203308,2.8936898 C 3.2073808,2.65171 3.1977357,2.3601672 3.1977357,2.2422799 V 2.0344675 h -0.705784 c -0.5050806,0 -0.7155831,-0.00938 -0.7447227,-0.037302 C 1.718094,1.9692475 1.708292,1.7209287 1.708292,1.0663409 c 0,-0.69491785 -0.0098,-0.8932973 -0.038937,-0.89019488 z M 23.067428,1.7860248 c -0.725244,0.086866 -1.402032,0.4625553 -1.852072,1.024073 -0.15541,0.1954461 -0.307345,0.4371511 -0.307345,0.4898902 0,0.027918 0.63127,0.037302 2.541512,0.037302 h 2.541514 V 3.266017 c 0,-0.1830362 -0.505004,-0.7662662 -0.893528,-1.0330649 C 24.56005,1.8637785 23.799147,1.6960578 23.067428,1.7860248 Z m -9.59343,0.1428705 c -0.09065,-0.034125 -0.572863,-0.015457 -0.783314,0.027975 -0.271966,0.058944 -0.534294,0.1766022 -0.754457,0.3410249 -0.100369,0.074455 -0.191135,0.1272001 -0.204086,0.1178933 -0.0097,-0.00931 -0.01947,-0.1022107 -0.01947,-0.2014845 V 2.0344666 H 10.870945 10.029221 V 2.6858773 3.3372881 H 11.777684 13.5258 V 2.6425833 c 0,-0.604951 -0.0065,-0.6981759 -0.05181,-0.713688 z M 3.9101226,2.0344666 V 2.6858773 3.3372881 H 4.7355064 5.5612371 V 2.6858773 2.0344666 H 4.7355064 Z m 3.7555976,0 V 2.6858773 3.3372881 H 8.4914518 9.3168347 V 2.6858773 2.0344666 H 8.4914518 Z M 0.08950909,3.6476731 V 4.8728975 6.0984558 H 0.93436213 1.7795631 L 1.756968,5.9958816 C 1.7407828,5.9431424 1.7245018,5.3911194 1.7180312,4.7706572 L 1.7051682,3.6476731 H 0.8989076 Z m 3.82061351,0 V 4.755005 c 0,0.6111546 0.00941,1.1635108 0.019125,1.2255575 l 0.022943,0.1178933 H 4.851977 c 0.6702035,0 0.9036106,-0.00938 0.9036106,-0.037302 0,-0.018612 -0.03905,-0.127101 -0.087614,-0.2387837 L 5.5807055,5.6175558 5.5674947,4.6311151 5.5546317,3.6476714 H 4.732378 Z m 3.7622039,0 -0.013211,0.9368195 C 7.6461657,5.5989475 7.6334505,5.676602 7.4553777,5.8999684 7.2934928,6.1047212 7.2676225,6.0984558 8.3457765,6.0984558 H 9.3168356 V 4.8728975 3.6476731 H 8.4945811 Z m 2.3568965,0 v 1.2252244 1.2255583 h 0.838595 0.841724 l 0.0097,-0.8935254 c 0.01619,-1.0144548 0.02582,-1.0765285 0.271883,-1.3371228 0.07771,-0.083762 0.142547,-0.167551 0.142547,-0.1861654 0,-0.024822 -0.307746,-0.033971 -1.052416,-0.033971 z m 4.208968,0 v 1.2252244 1.2255583 h 0.9874 c 0.611925,0 0.987749,-0.012359 0.987749,-0.03097 0,-0.015516 -0.05183,-0.1179864 -0.113343,-0.2234646 -0.152172,-0.269901 -0.204173,-0.4189864 -0.243025,-0.7230121 -0.06151,-0.4653471 0.03581,-0.9614775 0.243025,-1.2561964 0.06151,-0.089968 0.113343,-0.1736512 0.113343,-0.1891625 0,-0.015516 -0.424389,-0.027978 -0.987749,-0.027978 z m 4.711012,0 c -0.789999,0 -0.922732,0.006 -0.922732,0.046295 0,0.024821 0.0452,0.1118332 0.097,0.1924934 0.210451,0.3164356 0.297806,0.7973696 0.229815,1.2472046 -0.05181,0.3443558 -0.110173,0.5149474 -0.246156,0.729007 -0.06151,0.099274 -0.113341,0.1923003 -0.113341,0.2078116 0,0.015507 0.42104,0.027978 0.939073,0.027978 h 0.935597 l 0.03581,-0.1178933 c 0.132745,-0.4436305 0.171424,-1.4055254 0.07753,-1.9329175 -0.02914,-0.1613204 -0.06482,-0.3163294 -0.081,-0.3473528 -0.02914,-0.049634 -0.106551,-0.052617 -0.95159,-0.052617 z m 1.79992,0 -0.04833,0.1611874 c -0.152172,0.514984 -0.175077,1.2966771 -0.05528,1.8519911 0.03885,0.1768317 0.08418,0.3506317 0.103608,0.381655 0.02914,0.052739 0.0909,0.055948 0.935943,0.055948 1.006926,0 0.974317,0.006 0.825384,-0.2018176 -0.359385,-0.5118808 -0.365774,-1.5542316 -0.01287,-2.0568057 0.0518,-0.074456 0.09387,-0.1455709 0.09387,-0.1641844 0,-0.015516 -0.362611,-0.027979 -0.922732,-0.027979 z m 4.513532,0 c -0.508319,0 -0.922732,0.00924 -0.922732,0.021647 0,0.012411 0.06473,0.1489428 0.145677,0.3040587 0.119792,0.2264686 0.155476,0.3317973 0.184615,0.5551636 0.06151,0.4777561 -0.05183,1.0702919 -0.268754,1.3774208 -0.0518,0.074456 -0.09387,0.145904 -0.09387,0.1645175 0,0.015507 0.362611,0.027978 0.922732,0.027978 h 0.919255 l 0.0518,-0.1645184 c 0.181309,-0.5770292 0.194326,-1.56666 0.0292,-2.1250763 L 26.18226,3.6476766 Z M 0.08950909,6.4085086 v 0.2141397 c 0,0.6080523 0.41117815,1.0981525 1.02634031,1.2315519 0.4468023,0.093069 1.3728939,0.027865 2.0592861,-0.1458675 0.226639,-0.05895 0.2492836,-0.071082 0.2492836,-0.1455357 0,-0.043433 -0.068211,-0.3196196 -0.1491523,-0.6174408 L 3.1233313,6.4085086 h -1.51552 z m 6.58881111,0 c -2.4282738,0 -2.6388615,0.00304 -2.6388615,0.049617 0,0.099274 0.2235568,0.4934569 0.3789667,0.6733909 0.4597532,0.5273934 0.9712852,0.7476566 1.7418582,0.7476566 0.6054493,-0.00313 1.0036575,-0.1179759 1.3274273,-0.3909796 0.074464,-0.062045 0.1455892,-0.105553 0.15854,-0.096246 0.00971,0.00931 0.019473,0.093095 0.019473,0.1861646 V 7.7426305 H 8.4914545 9.3168373 V 7.0755672 6.4085043 Z m 3.3509028,0 v 0.6670629 0.6670634 h 0.841724 0.841724 V 7.0755715 6.4085086 h -0.841724 z m 4.208968,0 v 0.6670629 0.6670634 h 0.80939 0.809391 V 7.572122 c 0,-0.1768317 0.02601,-0.2078603 0.100478,-0.1178933 0.08418,0.099274 0.430751,0.2884088 0.62825,0.3473524 0.615163,0.1830362 1.612182,0.059088 2.182016,-0.2697562 0.110082,-0.06515 0.281598,-0.1831014 0.375491,-0.2637617 0.197499,-0.1675241 0.524709,-0.6143977 0.553848,-0.7633091 l 0.0226,-0.096246 h -2.742469 z m 9.227326,0 c -2.382946,0 -2.525172,0.0033 -2.525172,0.052948 0,0.167525 0.446615,0.7070738 0.793049,0.9614635 0.466228,0.3443572 0.932432,0.4996028 1.586447,0.527523 0.851513,0.037232 1.5672,-0.2078186 2.130559,-0.7290074 0.18131,-0.167525 0.540637,-0.6701165 0.540637,-0.7569812 0,-0.052739 -0.103721,-0.055948 -2.52552,-0.055948 z" />
  <path
     id="path2221-1-4-2"
     style="fill:#ffffff;fill-opacity:1;fill-rule:nonzero;stroke:none;stroke-width:0.0179991"
     d="m 6.8598875,9.3034919 v 0.3417189 c 0.054105,0.023613 0.1059635,0.051235 0.1542898,0.083588 0.078595,0.052496 0.1480739,0.1164391 0.2077498,0.1883275 V 9.6232254 h 0.40614 c 0.4326564,0 0.7151682,0.2884362 0.7151682,0.6824136 0,0.393964 -0.2825118,0.67658 -0.7151682,0.67658 h -0.318836 c -0.075665,0.128599 -0.1811977,0.237877 -0.3076176,0.319732 h 0.6264536 c 0.6474492,0 1.094835,-0.436712 1.094835,-1.002018 0,-0.5653562 -0.4473858,-0.9964402 -1.094835,-0.9964402 z M 6.4404784,9.7267468 A 0.81223917,0.81223921 0 0 0 5.6282621,10.539028 0.81223917,0.81223921 0 0 0 6.4404784,11.351244 0.81223917,0.81223921 0 0 0 7.2527592,10.539028 0.81223917,0.81223921 0 0 0 6.4404784,9.7267468 Z m 5.2908496,0.047112 c -0.465057,0 -0.806384,0.3597852 -0.806384,0.7909352 0,0.43116 0.341367,0.78241 0.803499,0.78241 0.303094,0 0.482694,-0.11723 0.635812,-0.282811 l -0.214929,-0.205442 c -0.111855,0.111286 -0.235444,0.188392 -0.403255,0.188392 -0.273764,0 -0.464985,-0.216927 -0.464985,-0.488254 0,-0.265579 0.188304,-0.482677 0.447357,-0.482677 0.179525,0 0.294324,0.0771 0.403256,0.18852 l 0.220826,-0.231336 C 12.208196,9.8794476 12.025723,9.7738607 11.731328,9.7738607 Z m 1.54873,3.227e-4 c -0.119713,0 -0.230124,0.020917 -0.331271,0.06288 -0.100927,0.041746 -0.18837,0.098397 -0.261978,0.1699305 -0.07359,0.07132 -0.131517,0.154698 -0.173712,0.249864 -0.04225,0.09522 -0.06333,0.197183 -0.06333,0.305695 v 0.0058 c 0,0.106576 0.02055,0.20752 0.06179,0.30281 0.04126,0.09508 0.09858,0.177892 0.172238,0.248389 0.07361,0.07043 0.161015,0.126183 0.262235,0.167109 0.100928,0.041 0.210427,0.06154 0.32813,0.06154 0.119787,0 0.230713,-0.02106 0.332938,-0.06295 0.101786,-0.04189 0.189789,-0.09846 0.263324,-0.169994 0.07366,-0.07146 0.131436,-0.154835 0.173776,-0.250056 0.0421,-0.09515 0.06327,-0.196034 0.06327,-0.302682 v -0.0056 c 0,-0.108592 -0.0206,-0.210155 -0.06179,-0.304541 -0.04126,-0.09412 -0.09872,-0.176942 -0.172238,-0.248262 C 13.79978,9.932581 13.712407,9.8765243 13.611333,9.8354654 13.510332,9.7945284 13.399849,9.7741244 13.280062,9.7741244 Z m 3.231944,0 c -0.112002,0 -0.214043,0.020412 -0.306272,0.061341 -0.0923,0.041059 -0.172177,0.097114 -0.239992,0.1686475 -0.06774,0.07132 -0.120307,0.154645 -0.157495,0.249864 -0.03734,0.09529 -0.05596,0.197195 -0.05596,0.305567 v 0.0058 c 0,0.116065 0.02065,0.222388 0.06192,0.318578 0.04112,0.09619 0.09756,0.178486 0.169161,0.247043 0.07174,0.06849 0.156189,0.121842 0.253261,0.159931 0.09716,0.03789 0.20165,0.05724 0.313579,0.05724 0.143342,0 0.266473,-0.02586 0.369411,-0.07724 0.103157,-0.05138 0.191981,-0.119976 0.266722,-0.20557 l -0.209352,-0.180058 c -0.06268,0.05914 -0.126403,0.10376 -0.191148,0.134163 -0.06482,0.03054 -0.141362,0.04589 -0.229607,0.04589 -0.115913,0 -0.214551,-0.03292 -0.296145,-0.09878 -0.08137,-0.06551 -0.131815,-0.160411 -0.151533,-0.284093 h 1.142398 c 0.0019,-0.01718 0.0036,-0.0338 0.0046,-0.05 8.55e-4,-0.0162 0.0013,-0.03187 0.0013,-0.04711 0,-0.108443 -0.01578,-0.211853 -0.04711,-0.309926 -0.0312,-0.09806 -0.0778,-0.184265 -0.139675,-0.258583 -0.06197,-0.07416 -0.139588,-0.133195 -0.232749,-0.1771083 -0.09322,-0.043703 -0.201831,-0.065637 -0.325309,-0.065637 z m -6.353827,0.00565 c -0.07652,0 -0.148662,0.01048 -0.2164035,0.031475 -0.067742,0.020969 -0.1266078,0.051452 -0.1766603,0.091407 -0.050034,0.040033 -0.089345,0.088062 -0.117689,0.1442255 -0.028544,0.05638 -0.042755,0.120525 -0.042755,0.192751 v 0.0057 c 0,0.07244 0.014689,0.133304 0.044164,0.182942 0.029422,0.04939 0.067237,0.09085 0.1132656,0.124099 0.046199,0.03345 0.098256,0.06062 0.1561492,0.08154 0.057818,0.02092 0.115277,0.03906 0.172238,0.0543 0.04512,0.01337 0.08877,0.02613 0.131021,0.03853 0.0422,0.01239 0.07938,0.02661 0.111855,0.04282 0.03242,0.01613 0.05795,0.03479 0.07666,0.05571 0.01855,0.02099 0.02788,0.04583 0.02788,0.07429 v 0.0057 c 0,0.04965 -0.02113,0.08902 -0.06333,0.118522 -0.04212,0.02964 -0.101484,0.04429 -0.178071,0.04429 -0.08052,0 -0.164427,-0.01566 -0.2517214,-0.04718 -0.087461,-0.03136 -0.1733042,-0.07765 -0.2577486,-0.138452 l -0.1589687,0.234223 c 0.09815,0.07424 0.2045415,0.130563 0.3195404,0.168584 0.1147059,0.03815 0.2281243,0.05705 0.3400523,0.05705 0.08044,0 0.156048,-0.0098 0.226788,-0.03 0.07059,-0.02001 0.131859,-0.04939 0.183904,-0.08859 0.05204,-0.03899 0.09281,-0.08784 0.122304,-0.147046 0.02941,-0.05893 0.0441,-0.128603 0.0441,-0.208519 v -0.0057 c 0,-0.06863 -0.0147,-0.126787 -0.0441,-0.174224 -0.02949,-0.04771 -0.06742,-0.08815 -0.113522,-0.12153 -0.04605,-0.03317 -0.09758,-0.06137 -0.15461,-0.08429 -0.05697,-0.02278 -0.113731,-0.04282 -0.170764,-0.06 -0.04512,-0.01523 -0.08864,-0.02945 -0.130957,-0.04282 -0.0422,-0.01323 -0.07953,-0.02803 -0.111855,-0.04416 -0.03242,-0.01627 -0.058445,-0.03428 -0.077943,-0.05436 -0.019768,-0.01987 -0.029483,-0.04335 -0.029483,-0.07006 v -0.0055 c 0,-0.04384 0.019029,-0.08012 0.057366,-0.108587 0.038172,-0.02853 0.091907,-0.04289 0.1605079,-0.04289 0.06489,0 0.135402,0.0129 0.211915,0.03859 0.0766,0.02562 0.152193,0.06045 0.226787,0.104227 L 10.729433,9.9512023 C 10.646973,9.8978893 10.555747,9.8560223 10.455532,9.825565 10.355518,9.79509 10.25632,9.779801 10.15817,9.779801 Z m 8.431642,0.025639 0.577674,1.4976425 -0.0046,0.01032 c 0,0 -0.1163,0.305578 -0.221594,0.379539 -0.08108,0.04023 -0.270864,0.03715 -0.342681,0.03237 v 0.282362 c 0.125414,-1.36e-4 0.420369,0.0076 0.515303,-0.0507 0.119147,-0.07306 0.145853,-0.104616 0.2273,-0.264862 0.08872,-0.174514 0.769782,-1.8866688 0.769782,-1.8866688 H 19.740043 L 19.341722,10.911144 18.969747,9.8054754 Z m -9.6605757,7.05e-5 v 1.50828 H 9.2855757 V 9.8055363 Z m 5.1927757,0 0.639146,1.519757 h 0.320823 l 0.63594,-1.519757 H 15.3439 L 14.923016,10.91409 14.504953,9.8055372 Z m 3.401169,0 v 1.508277 h 0.356142 v -0.574287 c 0,-0.100829 0.0097,-0.189431 0.03833,-0.262555 0.107232,-0.274381 0.406308,-0.352435 0.561071,-0.374667 L 18.356551,9.8141169 c -0.124281,0.020777 -0.343022,0.078926 -0.477227,0.2406971 V 9.8055268 Z m -1.014325,0.251402 c 0.05903,0 0.111645,0.01006 0.157623,0.02994 0.0461,0.02008 0.08581,0.0482 0.119355,0.08442 0.03311,0.03608 0.05979,0.07856 0.07929,0.127047 0.0197,0.04854 0.03254,0.06423 0.0384,0.119484 h -0.798051 c 0.01579,-0.118071 0.05955,-0.177477 0.131149,-0.25089 0.07167,-0.07333 0.162372,-0.109996 0.272235,-0.109996 z m -3.234701,0.02007 c 0.07066,0 0.135051,0.01278 0.192943,0.03846 0.05795,0.02576 0.107874,0.06051 0.150123,0.104356 0.0422,0.04382 0.07509,0.09522 0.09865,0.154289 0.02355,0.05893 0.03538,0.121766 0.03538,0.188456 v 0.0058 c 0,0.06461 -0.01087,0.125998 -0.03243,0.184032 -0.02171,0.05823 -0.05304,0.109112 -0.09416,0.15288 -0.04119,0.04383 -0.09081,0.07854 -0.148777,0.104163 -0.05789,0.02576 -0.123225,0.03878 -0.195827,0.03878 -0.06875,0 -0.131991,-0.01302 -0.189865,-0.03878 -0.05797,-0.02562 -0.108011,-0.06085 -0.150188,-0.10551 -0.04227,-0.04488 -0.07517,-0.09656 -0.09865,-0.1557 -0.02348,-0.059 -0.03532,-0.120879 -0.03532,-0.185699 v -0.0056 c 0,-0.06668 0.01068,-0.129207 0.03237,-0.187303 0.02149,-0.0581 0.05311,-0.10841 0.09423,-0.151277 0.04124,-0.04294 0.0908,-0.07719 0.148841,-0.102944 0.05767,-0.02569 0.12202,-0.03846 0.192685,-0.03846 z" />
  <metadata
     id="metadata7980">
    <rdf:RDF>
      <cc:Work
         rdf:about="">
        <dc:title>Discovery Turbo logo</dc:title>
        <dc:date>27 agt 2021</dc:date>
        <cc:license
           rdf:resource="http://scripts.sil.org/OFL" />
        <dc:language>es</dc:language>
        <dc:rights>
          <cc:Agent>
            <dc:title>N/A</dc:title>
          </cc:Agent>
        </dc:rights>
      </cc:Work>
      <cc:License
         rdf:about="http://scripts.sil.org/OFL">
        <cc:permits
           rdf:resource="http://scripts.sil.org/pub/OFL/Reproduction" />
        <cc:permits
           rdf:resource="http://scripts.sil.org/pub/OFL/Distribution" />
        <cc:permits
           rdf:resource="http://scripts.sil.org/pub/OFL/Embedding" />
        <cc:permits
           rdf:resource="http://scripts.sil.org/pub/OFL/DerivativeWorks" />
        <cc:requires
           rdf:resource="http://scripts.sil.org/pub/OFL/Notice" />
        <cc:requires
           rdf:resource="http://scripts.sil.org/pub/OFL/Attribution" />
        <cc:requires
           rdf:resource="http://scripts.sil.org/pub/OFL/ShareAlike" />
        <cc:requires
           rdf:resource="http://scripts.sil.org/pub/OFL/DerivativeRenaming" />
        <cc:requires
           rdf:resource="http://scripts.sil.org/pub/OFL/BundlingWhenSelling" />
      </cc:License>
    </rdf:RDF>
  </metadata>
</svg>
