<?xml version="1.0" encoding="UTF-8" standalone="no"?>
<!-- Created with Inkscape (http://www.inkscape.org/) -->

<svg
   width="100"
   height="46"
   viewBox="0 0 26.458333 12.17083"
   version="1.1"
   id="svg5"
   inkscape:version="1.4.4 (dcaf3e7, 2026-05-05)"
   sodipodi:docname="Discovery Turbo.svg"
   inkscape:export-filename="..\PNG\Discovery Turbo.png"
   inkscape:export-xdpi="300"
   inkscape:export-ydpi="300"
   xmlns:inkscape="http://www.inkscape.org/namespaces/inkscape"
   xmlns:sodipodi="http://sodipodi.sourceforge.net/DTD/sodipodi-0.dtd"
   xmlns="http://www.w3.org/2000/svg"
   xmlns:svg="http://www.w3.org/2000/svg"
   xmlns:rdf="http://www.w3.org/1999/02/22-rdf-syntax-ns#"
   xmlns:cc="http://creativecommons.org/ns#"
   xmlns:dc="http://purl.org/dc/elements/1.1/">
  <title
     id="title7982">Discovery Turbo logo</title>
  <sodipodi:namedview
     id="namedview7"
     pagecolor="#ffffff"
     bordercolor="#111111"
     borderopacity="1"
     inkscape:pageshadow="0"
     inkscape:pageopacity="0"
     inkscape:pagecheckerboard="1"
     inkscape:document-units="px"
     showgrid="false"
     objecttolerance="1"
     gridtolerance="1"
     guidetolerance="1"
     units="px"
     inkscape:zoom="9.58"
     inkscape:cx="50"
     inkscape:cy="23.016701"
     inkscape:window-width="1920"
     inkscape:window-height="974"
     inkscape:window-x="-11"
     inkscape:window-y="-11"
     inkscape:window-maximized="1"
     inkscape:current-layer="svg5"
     inkscape:showpageshadow="2"
     inkscape:deskcolor="#d1d1d1" />
  <defs
     id="defs2" />
  <path
     id="path18-3"
     style="fill:#ffffff;fill-opacity:1;stroke:none;stroke-width:0.00316929"
     d="M 14.238405 0.17259926 L 14.238405 1.7549314 L 14.238405 3.3372635 L 16.990175 3.3372635 C 20.078939 3.3372635 19.807406 3.3622125 19.664947 3.0954179 C 19.473923 2.7324477 19.078959 2.3353785 18.700148 2.1182167 C 18.350477 1.9196692 18.045779 1.8453751 17.524509 1.8267616 C 16.873732 1.8050446 16.462507 1.9010258 16.061033 2.1771278 C 15.978168 2.2320992 15.901078 2.2715882 15.883266 2.2639442 C 15.870316 2.2546342 15.856911 1.7800536 15.856911 1.2092283 L 15.856911 0.17259926 L 15.047658 0.17259926 L 14.238405 0.17259926 z M 1.6691485 0.17621661 C 1.6464835 0.17621661 1.2807972 0.28466458 0.85989571 0.41496169 L 0.089400215 0.65060619 L 0.089400215 1.9941932 L 0.089400215 3.3372635 L 1.6660479 3.3372635 L 3.2395951 3.3372635 L 3.2204748 2.8938798 C 3.2075248 2.6519 3.1977372 2.3601274 3.1977372 2.2422401 L 3.1977372 2.0345008 L 2.4918372 2.0345008 C 1.9867566 2.0345008 1.7763195 2.0252158 1.7471799 1.9972938 C 1.7180449 1.9693758 1.7084226 1.7206724 1.7084226 1.0660846 C 1.7084226 0.40917012 1.6988538 0.19598348 1.6732826 0.17725014 L 1.6727659 0.17673337 L 1.6722491 0.17621661 C 1.6720308 0.17614022 1.6709194 0.17626742 1.6706988 0.17621661 L 1.6701821 0.17621661 C 1.6699568 0.17621611 1.6693762 0.17619237 1.6691485 0.17621661 z M 23.342758 1.7642331 C 23.250874 1.7675361 23.158787 1.7746914 23.067323 1.7859372 C 22.342079 1.8728032 21.665279 2.2486463 21.215239 2.810164 C 21.059829 3.0056101 20.907765 3.2473174 20.907765 3.3000565 C 20.907765 3.3279745 21.539486 3.3372635 23.449728 3.3372635 L 25.991175 3.3372635 L 25.991175 3.2659501 C 25.991175 3.0829139 25.486213 2.499737 25.097689 2.2329383 C 24.627413 1.9099114 23.985942 1.7411124 23.342758 1.7642331 z M 13.342853 1.9125445 C 13.159123 1.9054343 12.848535 1.9244122 12.690696 1.9569862 C 12.41873 2.0159302 12.156384 2.1336279 11.936221 2.2980506 C 11.83742 2.3713423 11.747741 2.4231351 11.732616 2.4158729 L 11.732099 2.4158729 L 11.731582 2.4153561 L 11.731065 2.4148393 C 11.721673 2.4008322 11.712462 2.3105063 11.712462 2.2143348 L 11.712462 2.0345008 L 10.87117 2.0345008 L 10.029361 2.0345008 L 10.029361 2.6856238 L 10.029361 3.3372635 L 11.777574 3.3372635 L 13.525787 3.3372635 L 13.525787 2.6427324 C 13.525787 2.0377814 13.519421 1.944593 13.474111 1.9290809 C 13.451449 1.9205497 13.404096 1.9149146 13.342853 1.9125445 z M 3.9103551 2.0345008 L 3.9103551 2.6856238 L 3.9103551 3.3372635 L 4.7356276 3.3372635 L 5.5614168 3.3372635 L 5.5614168 2.6856238 L 5.5614168 2.0345008 L 4.7356276 2.0345008 L 3.9103551 2.0345008 z M 7.6656809 2.0345008 L 7.6656809 2.6856238 L 7.6656809 3.3372635 L 8.4914701 3.3372635 L 9.3167426 3.3372635 L 9.3167426 2.6856238 L 9.3167426 2.0345008 L 8.4914701 2.0345008 L 7.6656809 2.0345008 z M 0.089400215 3.6478388 L 0.089400215 4.8730869 L 0.089400215 6.0983349 L 0.93430976 6.0983349 L 1.7797361 6.0983349 L 1.7569984 5.9960156 C 1.7408132 5.9432764 1.7247117 5.3912297 1.7182411 4.7707675 L 1.705322 3.6478388 L 0.89865303 3.6478388 L 0.089400215 3.6478388 z M 3.9103551 3.6478388 L 3.9103551 4.7547479 C 3.9103551 5.3659025 3.9197603 5.918466 3.9294753 5.9805127 L 3.952213 6.0983349 L 4.8518995 6.0983349 C 5.4906872 6.0983349 5.7334045 6.089204 5.7546867 6.0642285 L 5.7546867 6.0637117 L 5.7552034 6.0631949 L 5.7552034 6.0626782 C 5.7552608 6.0624645 5.7556916 6.0613438 5.7557202 6.0611279 C 5.7557202 6.0425159 5.7164343 5.9340655 5.6678703 5.8223828 L 5.5805371 5.6177441 L 5.567618 4.6312412 L 5.5546989 3.6478388 L 4.732527 3.6478388 L 3.9103551 3.6478388 z M 7.6723988 3.6478388 L 7.6589629 4.5847324 C 7.6460131 5.5991873 7.6334306 5.676531 7.4553578 5.8998974 C 7.2934729 6.1046502 7.2675886 6.0983349 8.3457426 6.0983349 L 9.3167426 6.0983349 L 9.3167426 4.8730869 L 9.3167426 3.6478388 L 8.4945707 3.6478388 L 7.6723988 3.6478388 z M 10.029361 3.6478388 L 10.029361 4.8730869 L 10.029361 6.0983349 L 10.868069 6.0983349 L 11.709361 6.0983349 L 11.71918 5.2048495 C 11.73537 4.1903947 11.744935 4.1285747 11.990998 3.8679804 C 12.068708 3.7842184 12.133625 3.7000429 12.133625 3.6814285 C 12.133625 3.6566065 11.826163 3.6478388 11.081493 3.6478388 L 10.029361 3.6478388 z M 14.238405 3.6478388 L 14.238405 4.8730869 L 14.238405 6.0983349 L 15.225425 6.0983349 C 15.83735 6.0983349 16.213478 6.08594 16.213478 6.067329 C 16.213478 6.051813 16.161303 5.9495651 16.09979 5.8440869 C 15.947618 5.5741859 15.895763 5.4251594 15.856911 5.1211337 C 15.795401 4.6557866 15.892575 4.1595987 16.09979 3.8648798 C 16.1613 3.7749118 16.213478 3.6912554 16.213478 3.6757441 C 16.213478 3.6602281 15.788785 3.6478388 15.225425 3.6478388 L 14.238405 3.6478388 z M 18.949228 3.6478388 C 18.159229 3.6478388 18.026287 3.6535359 18.026287 3.6938309 C 18.026287 3.7186519 18.071639 3.8059237 18.123439 3.8865839 C 18.33389 4.2030195 18.42139 4.683701 18.353399 5.133536 C 18.301589 5.4778918 18.242886 5.6486308 18.106903 5.8626904 C 18.045393 5.9619644 17.993731 6.0549183 17.993731 6.0704296 C 17.993731 6.0859366 18.414659 6.0983349 18.932692 6.0983349 L 19.868552 6.0983349 L 19.904209 5.9805127 C 20.036954 5.5368822 20.075617 4.5752065 19.981723 4.0478144 C 19.952583 3.886494 19.916771 3.7315722 19.900591 3.7005488 C 19.871451 3.6509148 19.794267 3.6478388 18.949228 3.6478388 z M 20.749118 3.6478388 L 20.700542 3.8090693 C 20.54837 4.3240533 20.525968 5.1053216 20.645765 5.6606356 C 20.684615 5.8374673 20.72969 6.0115011 20.749118 6.0425244 C 20.778258 6.0952634 20.839935 6.0983349 21.684978 6.0983349 C 22.691904 6.0983349 22.659184 6.1046144 22.510251 5.8967968 C 22.150866 5.384916 22.144428 4.3426492 22.497332 3.8400751 C 22.549132 3.7656191 22.591383 3.6943576 22.591383 3.6757441 C 22.591383 3.6602281 22.229079 3.6478388 21.668958 3.6478388 L 20.749118 3.6478388 z M 25.262537 3.6478388 C 24.754218 3.6478388 24.340113 3.6571359 24.340113 3.6695429 C 24.340113 3.6819539 24.404893 3.8182844 24.48584 3.9734003 C 24.605632 4.1998689 24.641186 4.3050388 24.670325 4.5284051 C 24.731835 5.0061612 24.618532 5.5989697 24.401608 5.9060986 C 24.349808 5.9805546 24.307557 6.0518161 24.307557 6.0704296 C 24.307557 6.0859366 24.670377 6.0983349 25.230498 6.0983349 L 26.149821 6.0983349 L 26.201498 5.9340039 C 26.382807 5.3569747 26.395563 4.3674856 26.230437 3.8090693 L 26.182377 3.6478388 L 25.262537 3.6478388 z M 0.089400215 6.4083935 L 0.089400215 6.6228506 C 0.089400215 7.2309029 0.50053185 7.7209004 1.115694 7.8542998 C 1.5624963 7.9473688 2.4886073 7.8823048 3.1749995 7.7085723 C 3.4016385 7.6496223 3.4245967 7.6372985 3.4245967 7.5628448 C 3.4245967 7.5194118 3.3561931 7.2431327 3.2752518 6.9453115 L 3.1233231 6.4083935 L 1.6076536 6.4083935 L 0.089400215 6.4083935 z M 6.6781444 6.4083935 C 4.2498706 6.4083935 4.0395461 6.4114258 4.0395461 6.4580028 C 4.0395461 6.5572768 4.2629244 6.9514126 4.4183343 7.1313466 C 4.8780875 7.65874 5.3897736 7.8791045 6.1603466 7.8791045 C 6.7657959 7.8759745 7.1641442 7.7614344 7.487914 7.4884307 C 7.560051 7.4283246 7.6295106 7.385945 7.6455271 7.3917958 L 7.6460438 7.3917958 L 7.6465606 7.3923126 L 7.6470774 7.3928293 C 7.6564778 7.406296 7.6656809 7.4881865 7.6656809 7.5783477 L 7.6656809 7.7426787 L 8.4914701 7.7426787 L 9.3167426 7.7426787 L 9.3167426 7.0755361 L 9.3167426 6.4083935 L 6.6781444 6.4083935 z M 10.029361 6.4083935 L 10.029361 7.0755361 L 10.029361 7.7426787 L 10.87117 7.7426787 L 11.712462 7.7426787 L 11.712462 7.0755361 L 11.712462 6.4083935 L 10.87117 6.4083935 L 10.029361 6.4083935 z M 14.238405 6.4083935 L 14.238405 7.0755361 L 14.238405 7.7426787 L 15.047658 7.7426787 L 15.856911 7.7426787 L 15.856911 7.5721465 C 15.856911 7.3953148 15.883212 7.3643573 15.95768 7.4543243 C 16.04186 7.5535983 16.38805 7.7426463 16.585549 7.8015899 C 17.200712 7.9846261 18.19801 7.8606831 18.767844 7.5318389 C 18.877926 7.4666889 19.049122 7.3489495 19.143015 7.2682892 C 19.340514 7.1007651 19.667847 6.653423 19.696986 6.5045116 L 19.719724 6.4083935 L 16.977256 6.4083935 L 14.238405 6.4083935 z M 23.465748 6.4083935 C 21.082802 6.4083935 20.940321 6.4119722 20.940321 6.4616202 C 20.940321 6.6291452 21.38712 7.168412 21.733554 7.4228017 C 22.199782 7.7671589 22.666005 7.9224978 23.32002 7.950418 C 24.171533 7.98765 24.88728 7.7424524 25.450639 7.2212636 C 25.631949 7.0537386 25.991175 6.5510687 25.991175 6.464204 C 25.991175 6.411465 25.887547 6.4083935 23.465748 6.4083935 z M 6.8600454 9.3033068 L 6.8600454 9.6454047 C 6.9141504 9.6690177 6.9657149 9.6962507 7.0140412 9.7286037 C 7.0926362 9.7810997 7.1621045 9.8453343 7.2217804 9.9172227 L 7.2217804 9.6231838 L 7.6279571 9.6231838 C 8.0606135 9.6231838 8.3431588 9.911852 8.3431588 10.305829 C 8.3431588 10.699793 8.0606135 10.982274 7.6279571 10.982274 L 7.3091135 10.982274 C 7.2334485 11.110873 7.1280587 11.220296 7.0016388 11.302151 L 7.6279571 11.302151 C 8.2754063 11.302151 8.7229805 10.865451 8.7229805 10.300145 C 8.7229805 9.7347888 8.2754063 9.3033068 7.6279571 9.3033068 L 6.8600454 9.3033068 z M 6.4404328 9.7265367 A 0.81223917 0.81223921 0 0 0 5.6280794 10.53889 A 0.81223917 0.81223921 0 0 0 6.4404328 11.351243 A 0.81223917 0.81223921 0 0 0 7.2527862 10.53889 A 0.81223917 0.81223921 0 0 0 6.4404328 9.7265367 z M 11.731582 9.774079 C 11.266525 9.774079 10.924913 10.133578 10.924913 10.564728 C 10.924913 10.995888 11.266349 11.347109 11.728481 11.347109 C 12.031575 11.347109 12.210983 11.23002 12.364101 11.064439 L 12.149127 10.858767 C 12.037272 10.970053 11.913862 11.047386 11.746051 11.047386 C 11.472287 11.047386 11.280964 10.830371 11.280964 10.559044 C 11.280964 10.293465 11.469428 10.076386 11.728481 10.076386 C 11.908006 10.076386 12.022626 10.153585 12.131558 10.265005 L 12.352733 10.033495 C 12.208404 9.8793463 12.025977 9.774079 11.731582 9.774079 z M 13.279808 9.774079 C 13.160095 9.774079 13.049709 9.7951612 12.948562 9.8371242 C 12.847635 9.8788702 12.76017 9.9356062 12.686562 10.00714 C 12.612972 10.07846 12.555125 10.161571 12.51293 10.256737 C 12.47068 10.351957 12.449884 10.454149 12.449884 10.562661 L 12.449884 10.568346 C 12.449884 10.674922 12.470139 10.77588 12.511379 10.87117 C 12.552639 10.96625 12.61032 11.049236 12.683978 11.119733 C 12.757588 11.190163 12.844758 11.245722 12.945978 11.286648 C 13.046906 11.327648 13.15642 11.348143 13.274123 11.348143 C 13.39391 11.348143 13.504694 11.326988 13.606919 11.285098 C 13.708705 11.243208 13.796934 11.186616 13.870469 11.115082 C 13.944129 11.043622 14.001762 10.960189 14.044102 10.864968 C 14.086202 10.769818 14.107664 10.669309 14.107664 10.562661 L 14.107664 10.556977 C 14.107664 10.448385 14.086842 10.346989 14.045652 10.252603 C 14.004392 10.158483 13.947088 10.075359 13.87357 10.004039 C 13.79991 9.9325061 13.712644 9.8766328 13.61157 9.8355739 C 13.510569 9.7946369 13.399595 9.774079 13.279808 9.774079 z M 16.512168 9.774079 C 16.400166 9.774079 16.297956 9.7946449 16.205727 9.8355739 C 16.113427 9.8766329 16.033763 9.9325056 15.965948 10.004039 C 15.898208 10.075359 15.845523 10.158934 15.808335 10.254153 C 15.770995 10.349443 15.752525 10.451189 15.752525 10.559561 L 15.752525 10.565245 C 15.752525 10.68131 15.77275 10.787899 15.81402 10.884089 C 15.85514 10.980279 15.911917 11.062545 15.983518 11.131102 C 16.055258 11.199592 16.139661 11.252693 16.236733 11.290782 C 16.333893 11.328672 16.43848 11.348143 16.550409 11.348143 C 16.693751 11.348143 16.81644 11.322525 16.919378 11.271145 C 17.022535 11.219765 17.111804 11.151067 17.186545 11.065473 L 16.976739 10.885122 C 16.914059 10.944262 16.850798 10.989078 16.786053 11.019481 C 16.721233 11.050021 16.644338 11.065473 16.556093 11.065473 C 16.44018 11.065473 16.341581 11.032631 16.259987 10.966771 C 16.178617 10.901261 16.128293 10.806233 16.108575 10.682551 L 17.251141 10.682551 C 17.253041 10.665371 17.254792 10.648624 17.255792 10.632424 C 17.256647 10.616224 17.256825 10.600639 17.256825 10.585399 C 17.256825 10.476956 17.24113 10.373413 17.2098 10.27534 C 17.1786 10.17728 17.132148 10.091276 17.070273 10.016958 C 17.008303 9.9427982 16.930374 9.8836214 16.837213 9.8397081 C 16.743993 9.7960051 16.635646 9.774079 16.512168 9.774079 z M 10.158035 9.7797634 C 10.081515 9.7797634 10.009769 9.790291 9.9420274 9.811286 C 9.8742854 9.832255 9.8153465 9.8627983 9.765294 9.9027533 C 9.71526 9.9427863 9.6758158 9.990767 9.6474718 10.046931 C 9.6189278 10.103311 9.6045803 10.167458 9.6045803 10.239684 L 9.6045803 10.245368 C 9.6045803 10.317808 9.6195471 10.378665 9.6490221 10.428303 C 9.6784441 10.477693 9.7161648 10.519077 9.7621934 10.552326 C 9.8083924 10.585776 9.860363 10.613055 9.9182562 10.633975 C 9.9760742 10.654895 10.033378 10.672995 10.090339 10.688235 C 10.135459 10.701605 10.179346 10.714592 10.221597 10.726992 C 10.263797 10.739382 10.300743 10.753157 10.333218 10.769367 C 10.365638 10.785497 10.391506 10.804257 10.410216 10.825177 C 10.428766 10.846167 10.438121 10.871132 10.438121 10.899592 L 10.438121 10.905276 C 10.438121 10.954926 10.416759 10.994113 10.374559 11.023615 C 10.332439 11.053255 10.272862 11.068057 10.196275 11.068057 C 10.115755 11.068057 10.031906 11.052551 9.9446112 11.021031 C 9.8571502 10.989671 9.771707 10.94334 9.6872626 10.882538 L 9.5280992 11.116633 C 9.6262492 11.190873 9.7324606 11.247077 9.8474595 11.285098 C 9.9621654 11.323248 10.075562 11.342458 10.18749 11.342458 C 10.26793 11.342458 10.34361 11.332686 10.41435 11.312486 C 10.48494 11.292476 10.546273 11.262803 10.598318 11.223603 C 10.650358 11.184613 10.691297 11.136048 10.720791 11.076842 C 10.750201 11.017912 10.764716 10.947985 10.764716 10.868069 L 10.764716 10.862385 C 10.764716 10.793755 10.750191 10.735672 10.720791 10.688235 C 10.691301 10.640525 10.653205 10.600175 10.607103 10.566795 C 10.561053 10.533625 10.50962 10.505483 10.45259 10.482563 C 10.39562 10.459783 10.338574 10.439798 10.281541 10.422618 C 10.236421 10.407388 10.193117 10.393097 10.1508 10.379727 C 10.1086 10.366497 10.071504 10.351415 10.039179 10.335285 C 10.006759 10.319015 9.9806457 10.301105 9.9611477 10.281025 C 9.9413797 10.261155 9.9316921 10.237972 9.9316921 10.211262 L 9.9316921 10.205577 C 9.9316921 10.161737 9.9507159 10.125524 9.9890529 10.097057 C 10.027225 10.068527 10.080649 10.054165 10.14925 10.054165 C 10.21414 10.054165 10.28461 10.067233 10.361123 10.092923 C 10.437723 10.118543 10.513389 10.153015 10.587983 10.196792 L 10.729576 9.9513291 C 10.647116 9.8980161 10.555906 9.8562127 10.455691 9.8257554 C 10.355677 9.7952804 10.256185 9.7797634 10.158035 9.7797634 z M 8.9291695 9.8056016 L 8.9291695 11.314036 L 9.2857368 11.314036 L 9.2857368 9.8056016 L 8.9291695 9.8056016 z M 14.122133 9.8056016 L 14.761371 11.325405 L 15.081765 11.325405 L 15.717901 9.8056016 L 15.343764 9.8056016 L 14.923118 10.914061 L 14.505056 9.8056016 L 14.122133 9.8056016 z M 17.522959 9.8056016 L 17.522959 11.314036 L 17.879526 11.314036 L 17.879526 10.739395 C 17.879526 10.638566 17.889137 10.550002 17.917767 10.476878 C 18.024999 10.202497 18.32421 10.124456 18.478973 10.102224 L 18.3565 9.8138699 C 18.232219 9.8346469 18.013731 9.8929109 17.879526 10.054682 L 17.879526 9.8056016 L 17.522959 9.8056016 z M 18.58956 9.8056016 L 19.167303 11.303184 L 19.162652 11.31352 C 19.162652 11.31352 19.046771 11.618864 18.941477 11.692825 C 18.860397 11.733055 18.670679 11.730161 18.598862 11.725381 L 18.598862 12.007534 C 18.724276 12.007398 19.019142 12.015191 19.114076 11.956891 C 19.233223 11.883831 19.260005 11.852554 19.341452 11.692308 C 19.430172 11.517794 20.110914 9.8056016 20.110914 9.8056016 L 19.739878 9.8056016 L 19.341969 10.91096 L 18.969899 9.8056016 L 18.58956 9.8056016 z M 16.509067 10.056749 C 16.568097 10.056749 16.620703 10.066841 16.666681 10.086721 C 16.712781 10.106801 16.752508 10.135251 16.786053 10.171471 C 16.819163 10.207551 16.845618 10.250108 16.865118 10.298595 C 16.884818 10.347135 16.897499 10.362713 16.903359 10.417967 L 16.105475 10.417967 C 16.121265 10.299896 16.165134 10.240233 16.236733 10.16682 C 16.308403 10.09349 16.399204 10.056749 16.509067 10.056749 z M 13.274123 10.076903 C 13.344783 10.076903 13.408984 10.08998 13.466876 10.11566 C 13.524826 10.14142 13.575006 10.176201 13.617255 10.220047 C 13.659455 10.263867 13.692397 10.314973 13.715957 10.374042 C 13.739507 10.432972 13.751097 10.495971 13.751097 10.562661 L 13.751097 10.568346 C 13.751097 10.632956 13.740617 10.69428 13.719057 10.752314 C 13.697347 10.810544 13.665609 10.861508 13.624489 10.905276 C 13.583299 10.949106 13.533628 10.984039 13.475661 11.009662 C 13.417771 11.035422 13.35241 11.04842 13.279808 11.04842 C 13.211058 11.04842 13.148029 11.035422 13.090155 11.009662 C 13.032185 10.984042 12.981954 10.948386 12.939777 10.903726 C 12.897507 10.858846 12.865072 10.80732 12.841592 10.74818 C 12.818112 10.68918 12.805935 10.627481 12.805935 10.562661 L 12.805935 10.556977 C 12.805935 10.490297 12.816801 10.427487 12.838491 10.369391 C 12.859981 10.311291 12.891422 10.261363 12.932542 10.218496 C 12.973782 10.175556 13.023329 10.141414 13.08137 10.11566 C 13.13904 10.08997 13.203458 10.076903 13.274123 10.076903 z " />
  <metadata
     id="metadata7980">
    <rdf:RDF>
      <cc:Work
         rdf:about="">
        <dc:title>Discovery Turbo logo</dc:title>
        <dc:date>27 agt 2021</dc:date>
        <cc:license
           rdf:resource="http://scripts.sil.org/OFL" />
        <dc:language>es</dc:language>
        <dc:rights>
          <cc:Agent>
            <dc:title>N/A</dc:title>
          </cc:Agent>
        </dc:rights>
      </cc:Work>
      <cc:License
         rdf:about="http://scripts.sil.org/OFL">
        <cc:permits
           rdf:resource="http://scripts.sil.org/pub/OFL/Reproduction" />
        <cc:permits
           rdf:resource="http://scripts.sil.org/pub/OFL/Distribution" />
        <cc:permits
           rdf:resource="http://scripts.sil.org/pub/OFL/Embedding" />
        <cc:permits
           rdf:resource="http://scripts.sil.org/pub/OFL/DerivativeWorks" />
        <cc:requires
           rdf:resource="http://scripts.sil.org/pub/OFL/Notice" />
        <cc:requires
           rdf:resource="http://scripts.sil.org/pub/OFL/Attribution" />
        <cc:requires
           rdf:resource="http://scripts.sil.org/pub/OFL/ShareAlike" />
        <cc:requires
           rdf:resource="http://scripts.sil.org/pub/OFL/DerivativeRenaming" />
        <cc:requires
           rdf:resource="http://scripts.sil.org/pub/OFL/BundlingWhenSelling" />
      </cc:License>
    </rdf:RDF>
  </metadata>
</svg>
