<?xml version="1.0" encoding="UTF-8" standalone="no"?>
<svg
   width="100mm"
   height="41.784706mm"
   viewBox="0 0 100 41.784706"
   version="1.1"
   id="svg8"
   sodipodi:docname="Discovery Home &amp; Health.svg"
   inkscape:version="1.4.2 (f4327f4, 2025-05-13)"
   xml:space="preserve"
   xmlns:inkscape="http://www.inkscape.org/namespaces/inkscape"
   xmlns:sodipodi="http://sodipodi.sourceforge.net/DTD/sodipodi-0.dtd"
   xmlns:xlink="http://www.w3.org/1999/xlink"
   xmlns="http://www.w3.org/2000/svg"
   xmlns:svg="http://www.w3.org/2000/svg"
   xmlns:rdf="http://www.w3.org/1999/02/22-rdf-syntax-ns#"
   xmlns:cc="http://creativecommons.org/ns#"
   xmlns:dc="http://purl.org/dc/elements/1.1/"><sodipodi:namedview
     id="namedview1"
     pagecolor="#ffffff"
     bordercolor="#000000"
     borderopacity="0.25"
     inkscape:showpageshadow="2"
     inkscape:pageopacity="0.0"
     inkscape:pagecheckerboard="0"
     inkscape:deskcolor="#d1d1d1"
     inkscape:document-units="mm"
     inkscape:zoom="2.3786042"
     inkscape:cx="188.97638"
     inkscape:cy="78.827743"
     inkscape:window-width="1920"
     inkscape:window-height="974"
     inkscape:window-x="-11"
     inkscape:window-y="-11"
     inkscape:window-maximized="1"
     inkscape:current-layer="svg8" /><defs
     id="defs2"><linearGradient
       id="linearGradient1178"><stop
         style="stop-color:#aeb0b4;stop-opacity:1"
         offset="0"
         id="stop1174" /><stop
         style="stop-color:#e6e6e6;stop-opacity:1"
         offset="0.50718993"
         id="stop1182" /><stop
         style="stop-color:#b1b2b6;stop-opacity:1"
         offset="1"
         id="stop1176" /></linearGradient><linearGradient
       xlink:href="#linearGradient1178"
       id="linearGradient1180"
       x1="41.428574"
       y1="1080"
       x2="991.42859"
       y2="1080"
       gradientUnits="userSpaceOnUse"
       gradientTransform="matrix(0.19135973,0,0,0.18293294,25.892112,66.878929)" /><style
       type="text/css"
       id="style6"><![CDATA[
    .fil0 {fill:#1F1A17}
    .fil4 {fill:white}
    .fil2 {fill:#E51E2A}
    .fil3 {fill:white}
    .fil1 {fill:url(#id0)}
   ]]></style><linearGradient
       id="id0"
       gradientUnits="userSpaceOnUse"
       x1="10.2224"
       y1="228.21001"
       x2="214.13699"
       y2="228.21001"
       gradientTransform="translate(82.741733,34.42837)"><stop
         offset="0"
         style="stop-color:#A7B6BF"
         id="stop9" /><stop
         offset="0.0705882"
         style="stop-color:#AAB8C1"
         id="stop11" /><stop
         offset="0.211765"
         style="stop-color:white"
         id="stop13" /><stop
         offset="0.368627"
         style="stop-color:#A7B6BF"
         id="stop15" /><stop
         offset="0.490196"
         style="stop-color:#A7B6BF"
         id="stop17" /><stop
         offset="0.611765"
         style="stop-color:#A7B6BF"
         id="stop19" /><stop
         offset="0.768627"
         style="stop-color:white"
         id="stop21" /><stop
         offset="0.921569"
         style="stop-color:#AEBCC5"
         id="stop23" /><stop
         offset="1"
         style="stop-color:#A7B6BF"
         id="stop25" /></linearGradient><style
       type="text/css"
       id="style6-1"><![CDATA[
    .fil0 {fill:#1F1A17}
    .fil4 {fill:white}
    .fil2 {fill:#E51E2A}
    .fil3 {fill:white}
    .fil1 {fill:url(#id0)}
   ]]></style><style
       type="text/css"
       id="style6-8"><![CDATA[
    .fil3 {fill:#1F1A17}
    .fil0 {fill:black}
    .fil1 {fill:white}
    .fil2 {fill:#DE3E3F}
   ]]></style><style
       type="text/css"
       id="style6-16"><![CDATA[
    .fil0 {fill:#1F1A17}
    .fil4 {fill:white}
    .fil2 {fill:#E51E2A}
    .fil3 {fill:white}
    .fil1 {fill:url(#id0)}
   ]]></style><style
       type="text/css"
       id="style6-1-3"><![CDATA[
    .fil0 {fill:#1F1A17}
    .fil4 {fill:white}
    .fil2 {fill:#E51E2A}
    .fil3 {fill:white}
    .fil1 {fill:url(#id0)}
   ]]></style><style
       type="text/css"
       id="style6-4"><![CDATA[
    .fil0 {fill:#1F1A17}
    .fil4 {fill:white}
    .fil2 {fill:#E51E2A}
    .fil3 {fill:white}
    .fil1 {fill:url(#id0)}
   ]]></style><style
       type="text/css"
       id="style6-1-6"><![CDATA[
    .fil0 {fill:#1F1A17}
    .fil4 {fill:white}
    .fil2 {fill:#E51E2A}
    .fil3 {fill:white}
    .fil1 {fill:url(#id0)}
   ]]></style><style
       type="text/css"
       id="style6-8-1"><![CDATA[
    .fil3 {fill:#1F1A17}
    .fil0 {fill:black}
    .fil1 {fill:white}
    .fil2 {fill:#DE3E3F}
   ]]></style><style
       type="text/css"
       id="style6-16-4"><![CDATA[
    .fil0 {fill:#1F1A17}
    .fil4 {fill:white}
    .fil2 {fill:#E51E2A}
    .fil3 {fill:white}
    .fil1 {fill:url(#id0)}
   ]]></style><style
       type="text/css"
       id="style6-1-3-2"><![CDATA[
    .fil0 {fill:#1F1A17}
    .fil4 {fill:white}
    .fil2 {fill:#E51E2A}
    .fil3 {fill:white}
    .fil1 {fill:url(#id0)}
   ]]></style></defs><metadata
     id="metadata5"><rdf:RDF><cc:Work
         rdf:about=""><dc:format>image/svg+xml</dc:format><dc:type
           rdf:resource="http://purl.org/dc/dcmitype/StillImage" /></cc:Work></rdf:RDF></metadata><path
     id="path3272"
     style="fill:#ffffff;fill-opacity:1;stroke-width:0.212099"
     class="st0"
     d="m 0,0 v 40.952327 h 6.7835951 v -9.806626 c 0,-2.202564 6.08e-5,-2.80546 0.061105,-4.059919 0.061105,-1.254481 0.1830229,-3.160446 0.9488619,-4.557649 0.765839,-1.397207 2.1752831,-2.28558 3.460404,-2.711925 1.285133,-0.426349 2.446003,-0.390759 3.440894,-0.159736 0.994891,0.231 1.823669,0.657383 2.439467,1.450966 0.615786,0.793602 1.018471,1.954455 1.201992,3.079596 0.183533,1.125141 0.148024,2.214692 0.130263,3.843221 -0.01774,1.62853 -0.01774,3.796098 -0.01774,5.288412 0,1.492315 -1.09e-4,2.309146 0.236815,3.304062 0.236924,0.994896 0.710747,2.167585 1.859664,3.132773 1.148916,0.96519 2.972962,1.723009 4.838287,1.734788 1.522628,0.0096 3.066053,-0.476928 4.22204,-0.910812 v -5.483002 c -0.882145,0.313308 -2.094523,0.601916 -2.842577,0.43061 -0.852771,-0.195288 -1.101114,-0.988646 -1.22551,-2.048682 -0.124397,-1.06004 -0.124482,-2.386825 -0.124482,-4.352901 0,-1.966078 -1.94e-4,-4.571232 -0.242986,-6.543196 -0.242755,-1.971945 -0.728131,-3.310601 -1.515703,-4.613418 -0.78756,-1.302819 -1.877181,-2.569851 -3.357631,-3.434521 -1.48045,-0.86467 -3.351691,-1.32649 -5.151987,-1.39759 -1.800284,-0.0711 -3.529575,0.248579 -4.980493,0.781551 -1.3144822,0.482855 -2.3998642,1.14245 -3.3807364,2.270361 V 0 Z m 70.394312,0 v 40.952327 h 6.783595 v -9.806626 c 0,-2.202564 4.9e-5,-2.80546 0.0611,-4.059919 0.0611,-1.254481 0.183011,-3.160446 0.94885,-4.557649 0.765839,-1.397207 2.175295,-2.28558 3.460416,-2.711925 1.28512,-0.426349 2.446003,-0.390759 3.440894,-0.159736 0.994891,0.231 1.823657,0.657383 2.439455,1.450966 0.615786,0.793602 1.01847,1.954455 1.202003,3.079596 0.183521,1.125141 0.148013,2.214692 0.130252,3.843221 -0.01774,1.62853 -0.01749,3.796098 -0.01749,5.288412 0,1.492315 -2.19e-4,2.309146 0.23662,3.304062 0.236924,0.994896 0.710748,2.167585 1.859664,3.132773 1.148929,0.96519 2.97295,1.723009 4.838287,1.734788 1.522628,0.0096 3.066041,-0.476928 4.22204,-0.910812 v -5.483002 c -0.882157,0.313308 -2.094523,0.601916 -2.842577,0.43061 -0.852771,-0.195288 -1.101114,-0.988646 -1.22551,-2.048682 -0.124396,-1.06004 -0.124481,-2.386825 -0.124481,-4.352901 0,-1.966078 -1.95e-4,-4.571232 -0.242986,-6.543196 -0.242755,-1.971945 -0.728132,-3.310601 -1.515704,-4.613418 -0.787559,-1.302819 -1.877181,-2.569851 -3.357631,-3.434521 -1.480449,-0.86467 -3.35169,-1.326487 -5.151987,-1.39759 -1.800284,-0.0711 -3.529575,0.248579 -4.980492,0.781551 -1.314483,0.482855 -2.399865,1.14245 -3.380737,2.270361 V 0 Z M 47.310294,1.8168444 c -1.516723,-0.016533 -3.06768,0.2749705 -4.599273,0.963792 -1.750405,0.7872305 -3.475298,2.0933224 -4.530565,3.3956837 -1.055267,1.3023564 -1.636066,2.5295113 -1.937545,3.8820579 -0.301491,1.352551 -0.323734,2.830418 0.367273,4.731527 0.397886,1.09468 1.099437,2.354498 2.173364,3.86792 -0.838449,0.486021 -1.750295,1.122301 -2.596409,1.956464 -1.482393,1.461442 -2.755256,3.513403 -3.362417,6.059406 -0.607161,2.546002 -0.54851,5.586005 0.582184,7.993764 1.130694,2.40774 3.333044,4.183058 5.841305,5.397358 2.508262,1.214282 5.322279,1.867478 8.152902,1.691568 2.830636,-0.175911 5.677902,-1.1809 7.708757,-2.223556 0.795103,-0.408216 1.460296,-0.820396 1.997289,-1.188658 l 2.537648,2.608156 h 9.151353 l -7.626295,-7.508581 -0.06669,-0.05139 c 0.494609,-1.015942 0.946772,-2.500039 1.196622,-3.938225 0.309885,-1.783798 0.309715,-3.483882 0.309715,-5.087649 v -3.915321 h -5.829558 c -7.78e-4,1.573418 -0.0097,3.76193 -0.129268,5.426638 -0.07617,1.061445 -0.198694,1.894981 -0.385398,2.622496 -2.289888,-2.275587 -4.976666,-4.941181 -7.067022,-7.015232 -2.851165,-2.828942 -4.178112,-4.149731 -5.122698,-5.384414 -0.944585,-1.234699 -1.506701,-2.383385 -1.557128,-3.553026 -0.05041,-1.169638 0.411127,-2.3602 1.06258,-3.1893406 0.651465,-0.8291378 1.492319,-1.2965193 2.48727,-1.4830323 0.99494,-0.1865167 2.143917,-0.091864 3.067244,0.2672868 0.923339,0.3591506 1.621003,0.9825923 1.96981,1.9307751 0.207866,0.565042 0.290655,1.243311 0.324646,1.835567 h 6.471098 c 0.02138,-0.266172 0.03025,-0.538884 0.02272,-0.816607 C 57.87776,9.3880674 57.266311,7.5207598 56.353529,6.1388749 55.440747,4.7569862 54.226826,3.8609976 52.786356,3.161651 51.345898,2.4623045 49.679291,1.9596378 47.958236,1.8423384 47.743106,1.8276878 47.527004,1.8192084 47.310331,1.8168639 Z M 42.215282,22.934043 c 2.86731,3.290704 6.764923,7.332352 8.933647,9.580966 0.613247,0.635821 1.069662,1.108731 1.441806,1.490999 -0.407045,0.312906 -0.86815,0.591525 -1.438016,0.832938 -1.205891,0.510846 -2.889177,0.862387 -4.668785,0.845683 -1.779608,-0.01668 -3.655271,-0.40201 -4.957594,-1.113768 -1.302322,-0.711759 -2.030854,-1.749957 -2.391057,-3.1025 -0.360203,-1.352566 -0.351808,-3.019271 0.238612,-4.484954 0.590409,-1.465683 2.749086,-3.932665 2.841387,-4.049364 z"
     sodipodi:nodetypes="cccscssccccssscccsssccsssccccccscssccscscssccssscssssccccsscsccsscsscccccssccccccccssscccssccccscscsscc" /><style
     type="text/css"
     id="style3265">
	.st0{fill-rule:evenodd;clip-rule:evenodd;fill:#999999;}
	.st1{fill-rule:evenodd;clip-rule:evenodd;fill:#FF9000;}
</style><style
     type="text/css"
     id="style3265-2">
	.st0{fill-rule:evenodd;clip-rule:evenodd;fill:#999999;}
	.st1{fill-rule:evenodd;clip-rule:evenodd;fill:#FF9000;}
</style></svg>
