<?xml version="1.0" encoding="UTF-8" standalone="no"?>
<svg
   width="100mm"
   height="63.755653mm"
   viewBox="0 0 100 63.755653"
   version="1.1"
   id="svg8"
   sodipodi:docname="Discovery Home &amp; Health.svg"
   xml:space="preserve"
   inkscape:version="1.4.2 (f4327f4, 2025-05-13)"
   inkscape:export-filename="Discovery Home &amp; Health.png"
   inkscape:export-xdpi="96"
   inkscape:export-ydpi="96"
   xmlns:inkscape="http://www.inkscape.org/namespaces/inkscape"
   xmlns:sodipodi="http://sodipodi.sourceforge.net/DTD/sodipodi-0.dtd"
   xmlns:xlink="http://www.w3.org/1999/xlink"
   xmlns="http://www.w3.org/2000/svg"
   xmlns:svg="http://www.w3.org/2000/svg"
   xmlns:rdf="http://www.w3.org/1999/02/22-rdf-syntax-ns#"
   xmlns:cc="http://creativecommons.org/ns#"
   xmlns:dc="http://purl.org/dc/elements/1.1/"><sodipodi:namedview
     id="namedview1"
     pagecolor="#ffffff"
     bordercolor="#000000"
     borderopacity="0.25"
     inkscape:showpageshadow="2"
     inkscape:pageopacity="0.0"
     inkscape:pagecheckerboard="0"
     inkscape:deskcolor="#d1d1d1"
     inkscape:document-units="mm"
     inkscape:zoom="0.44807736"
     inkscape:cx="121.63078"
     inkscape:cy="175.19296"
     inkscape:window-width="1920"
     inkscape:window-height="974"
     inkscape:window-x="-11"
     inkscape:window-y="-11"
     inkscape:window-maximized="1"
     inkscape:current-layer="svg8" /><defs
     id="defs2"><linearGradient
       id="linearGradient1178"><stop
         style="stop-color:#aeb0b4;stop-opacity:1"
         offset="0"
         id="stop1174" /><stop
         style="stop-color:#e6e6e6;stop-opacity:1"
         offset="0.50718993"
         id="stop1182" /><stop
         style="stop-color:#b1b2b6;stop-opacity:1"
         offset="1"
         id="stop1176" /></linearGradient><linearGradient
       xlink:href="#linearGradient1178"
       id="linearGradient1180"
       x1="41.428574"
       y1="1080"
       x2="991.42859"
       y2="1080"
       gradientUnits="userSpaceOnUse"
       gradientTransform="matrix(0.19135973,0,0,0.18293294,25.892112,66.878929)" /><style
       type="text/css"
       id="style6"><![CDATA[
    .fil0 {fill:#1F1A17}
    .fil4 {fill:white}
    .fil2 {fill:#E51E2A}
    .fil3 {fill:white}
    .fil1 {fill:url(#id0)}
   ]]></style><linearGradient
       id="id0"
       gradientUnits="userSpaceOnUse"
       x1="10.2224"
       y1="228.21001"
       x2="214.13699"
       y2="228.21001"
       gradientTransform="translate(82.741733,34.42837)"><stop
         offset="0"
         style="stop-color:#A7B6BF"
         id="stop9" /><stop
         offset="0.0705882"
         style="stop-color:#AAB8C1"
         id="stop11" /><stop
         offset="0.211765"
         style="stop-color:white"
         id="stop13" /><stop
         offset="0.368627"
         style="stop-color:#A7B6BF"
         id="stop15" /><stop
         offset="0.490196"
         style="stop-color:#A7B6BF"
         id="stop17" /><stop
         offset="0.611765"
         style="stop-color:#A7B6BF"
         id="stop19" /><stop
         offset="0.768627"
         style="stop-color:white"
         id="stop21" /><stop
         offset="0.921569"
         style="stop-color:#AEBCC5"
         id="stop23" /><stop
         offset="1"
         style="stop-color:#A7B6BF"
         id="stop25" /></linearGradient><style
       type="text/css"
       id="style6-1"><![CDATA[
    .fil0 {fill:#1F1A17}
    .fil4 {fill:white}
    .fil2 {fill:#E51E2A}
    .fil3 {fill:white}
    .fil1 {fill:url(#id0)}
   ]]></style><style
       type="text/css"
       id="style6-8"><![CDATA[
    .fil3 {fill:#1F1A17}
    .fil0 {fill:black}
    .fil1 {fill:white}
    .fil2 {fill:#DE3E3F}
   ]]></style><style
       type="text/css"
       id="style6-16"><![CDATA[
    .fil0 {fill:#1F1A17}
    .fil4 {fill:white}
    .fil2 {fill:#E51E2A}
    .fil3 {fill:white}
    .fil1 {fill:url(#id0)}
   ]]></style><style
       type="text/css"
       id="style6-1-3"><![CDATA[
    .fil0 {fill:#1F1A17}
    .fil4 {fill:white}
    .fil2 {fill:#E51E2A}
    .fil3 {fill:white}
    .fil1 {fill:url(#id0)}
   ]]></style></defs><metadata
     id="metadata5"><rdf:RDF><cc:Work
         rdf:about=""><dc:format>image/svg+xml</dc:format><dc:type
           rdf:resource="http://purl.org/dc/dcmitype/StillImage" /></cc:Work></rdf:RDF></metadata><path
     id="path3272"
     style="display:inline;fill:#ffffff;fill-opacity:1;stroke-width:0.212099"
     class="st0"
     d="m 0,0 v 40.952286 h 6.7835889 v -9.806618 c 0,-2.202562 5.76e-5,-2.805456 0.061094,-4.059914 0.061094,-1.254479 0.183023,-3.160442 0.9488608,-4.557645 0.7658378,-1.397205 2.1752867,-2.285576 3.4604053,-2.711922 1.285119,-0.426347 2.446003,-0.390757 3.440886,-0.159736 0.994893,0.231 1.823659,0.657384 2.439461,1.450965 0.615792,0.793601 1.018466,1.954453 1.201998,3.079593 0.183532,1.125141 0.148028,2.21469 0.130257,3.843217 -0.01777,1.628528 -0.01768,3.796093 -0.01768,5.288407 0,1.492313 -1.06e-4,2.309144 0.236807,3.304059 0.236932,0.994895 0.710747,2.167582 1.859672,3.13277 1.148915,0.96519 2.972949,1.723008 4.83828,1.734788 1.522626,0.0096 3.06604,-0.47693 4.222035,-0.910813 V 35.09644 c -0.882147,0.313307 -2.094519,0.601915 -2.842576,0.430609 -0.852772,-0.195286 -1.101107,-0.988644 -1.225504,-2.048681 -0.124398,-1.060037 -0.124484,-2.386821 -0.124484,-4.352896 0,-1.966075 -1.92e-4,-4.571227 -0.242984,-6.543189 -0.242763,-1.971943 -0.728134,-3.310597 -1.515701,-4.613413 -0.787566,-1.302818 -1.877193,-2.569849 -3.35763,-3.434518 -1.480457,-0.864668 -3.351695,-1.326488 -5.151983,-1.397587 -1.800288,-0.0711 -3.529578,0.248578 -4.980486,0.781549 -1.3144841,0.482854 -2.3998653,1.14245 -3.3807332,2.270359 V 0 Z m 70.394243,0 v 40.952286 h 6.783589 v -9.806618 c 0,-2.202562 4.8e-5,-2.805456 0.06119,-4.059914 0.06109,-1.254479 0.183014,-3.160442 0.948861,-4.557645 0.765838,-1.397205 2.175287,-2.285576 3.460405,-2.711922 1.285119,-0.426347 2.446003,-0.390757 3.440896,-0.159736 0.994883,0.231 1.823659,0.657384 2.439451,1.450965 0.615793,0.793601 1.018466,1.954453 1.201998,3.079593 0.183532,1.125141 0.148019,2.21469 0.130258,3.843217 -0.01777,1.628528 -0.01748,3.796093 -0.01748,5.288407 0,1.492313 -3.08e-4,2.309144 0.236605,3.304059 0.236932,0.994895 0.710757,2.167582 1.859672,3.13277 1.148925,0.96519 2.972949,1.723008 4.838279,1.734788 1.522627,0.0096 3.066041,-0.47693 4.222033,-0.910813 V 35.09644 c -0.882144,0.313307 -2.094517,0.601915 -2.842574,0.430609 -0.852772,-0.195286 -1.101106,-0.988644 -1.225503,-2.048681 -0.124398,-1.060037 -0.124484,-2.386821 -0.124484,-4.352896 0,-1.966075 -1.93e-4,-4.571227 -0.242984,-6.543189 -0.242763,-1.971943 -0.728134,-3.310597 -1.515701,-4.613413 -0.787566,-1.302818 -1.877184,-2.569849 -3.357631,-3.434518 -1.480446,-0.864668 -3.351684,-1.326485 -5.151972,-1.397587 -1.800298,-0.0711 -3.529578,0.248578 -4.980487,0.781549 -1.314484,0.482854 -2.399874,1.14245 -3.380742,2.270359 V 0 Z M 47.310245,1.816842 C 45.793516,1.80031 44.242571,2.0918135 42.710973,2.7806333 40.960578,3.5678627 39.235678,4.873953 38.180412,6.1763134 c -1.055257,1.3023555 -1.636055,2.5295067 -1.937539,3.8820536 -0.301484,1.35255 -0.323731,2.830415 0.367276,4.731523 0.39788,1.094679 1.099435,2.354495 2.173356,3.867915 -0.83845,0.486021 -1.750289,1.1223 -2.596394,1.956463 -1.482397,1.46144 -2.755268,3.513399 -3.362425,6.0594 -0.607156,2.546 -0.548511,5.585999 0.582181,7.993755 1.130693,2.407738 3.333049,4.183054 5.841308,5.397354 2.50825,1.214279 5.322268,1.867475 8.152895,1.691565 2.830627,-0.175908 5.677891,-1.1809 7.708742,-2.223553 0.795107,-0.408216 1.460293,-0.820396 1.997288,-1.188657 l 2.537653,2.608154 h 9.151341 l -7.626293,-7.508573 -0.06676,-0.05138 c 0.494622,-1.015941 0.946786,-2.500036 1.196628,-3.938221 0.309889,-1.783795 0.309716,-3.483878 0.309716,-5.087642 v -3.915323 h -5.82956 c -7.68e-4,1.573418 -0.0098,3.761927 -0.129258,5.426633 -0.07617,1.061444 -0.19869,1.894979 -0.385402,2.622494 -2.289877,-2.275585 -4.976654,-4.941176 -7.067004,-7.015225 -2.851174,-2.828939 -4.178117,-4.149726 -5.122703,-5.384409 -0.944577,-1.234697 -1.5067,-2.383382 -1.557122,-3.553022 -0.05043,-1.169637 0.411127,-2.360199 1.062577,-3.1893357 0.651468,-0.8291393 1.492319,-1.2965189 2.48726,-1.4830327 0.99495,-0.1865138 2.143914,-0.091862 3.067242,0.2672877 0.923337,0.3591498 1.621001,0.9825922 1.969814,1.9307707 0.207864,0.565042 0.290658,1.24331 0.324654,1.835566 H 57.90097 C 57.92239,11.642703 57.93123,11.36999 57.92364,11.092271 57.877625,9.3880589 57.266146,7.5207518 56.353365,6.1388692 55.440594,4.7569818 54.226656,3.8609944 52.786199,3.1616483 51.345742,2.4623022 49.679131,1.959637 47.958083,1.8423343 47.742947,1.8276852 47.526851,1.8192127 47.310178,1.8168592 Z M 42.215236,22.93402 c 2.867312,3.2907 6.764925,7.332344 8.933641,9.580956 0.613246,0.635819 1.069665,1.108729 1.441811,1.490997 -0.407054,0.312907 -0.868161,0.591524 -1.438026,0.832936 -1.205889,0.510846 -2.889176,0.862387 -4.668782,0.845684 -1.779606,-0.01669 -3.655253,-0.402011 -4.957576,-1.113768 -1.302323,-0.711758 -2.030861,-1.749955 -2.391057,-3.102497 -0.360205,-1.352563 -0.351809,-3.019266 0.238604,-4.484949 0.590413,-1.465681 2.749081,-3.932662 2.841385,-4.049359 z M 20.677803,50.830605 v 1.636591 c 0.257287,0.104912 0.493056,0.230686 0.707462,0.398544 0.343039,0.251788 0.664552,0.566531 0.94327,0.902248 v -1.405753 h 1.843938 c 1.972485,0 3.258842,1.384848 3.258842,3.252273 0,1.888406 -1.286357,3.231362 -3.258842,3.231362 h -1.45794 c -0.34304,0.629468 -0.814723,1.153948 -1.393609,1.531629 h 2.851549 c 2.937301,0 4.974108,-2.098169 4.974108,-4.783902 0,-2.685734 -2.015367,-4.74208 -4.974108,-4.74208 v -0.02091 z m -1.82242,2.014222 c -2.058257,0 -3.73068,1.720559 -3.73068,3.797806 0,2.098231 1.672423,3.797805 3.73068,3.797805 2.058256,0 3.730487,-1.699574 3.730487,-3.797805 0,-2.098229 -1.672231,-3.797806 -3.730487,-3.797806 z m 23.991428,0.251752 c -2.101138,0 -3.666156,1.720629 -3.666156,3.776894 0,2.056265 1.565018,3.734868 3.666156,3.734868 1.372168,0 2.208274,-0.54549 2.894362,-1.342817 l -0.986103,-0.986298 -0.192994,0.188815 c -0.471683,0.440629 -0.986295,0.713434 -1.650934,0.713434 -1.243534,0 -2.122578,-1.028013 -2.122578,-2.328916 0,-1.27992 0.857527,-2.308199 2.036739,-2.308199 0.814723,0 1.329297,0.37769 1.82242,0.902248 l 1.007803,-1.111977 -0.192994,-0.209927 c -0.621767,-0.629469 -1.415078,-1.028125 -2.615721,-1.028125 z m 21.761695,0 c -0.514564,0 -0.986238,0.104939 -1.393609,0.29378 -0.428802,0.188841 -0.793292,0.461566 -1.09345,0.797283 -0.321599,0.335717 -0.557445,0.734416 -0.72897,1.196026 -0.171515,0.461611 -0.257133,0.944335 -0.257133,1.468891 v 0.02091 c 0,0.54554 0.08568,1.070089 0.27865,1.510717 0.192956,0.461611 0.450185,0.860181 0.771784,1.174914 0.321599,0.335717 0.707549,0.587533 1.157791,0.776373 0.450243,0.167858 0.922061,0.272864 1.436625,0.272864 0.643207,0 1.221997,-0.125842 1.67224,-0.377629 0.471683,-0.251787 0.879073,-0.566652 1.222122,-0.986298 l -0.964787,-0.860224 c -0.278728,0.27277 -0.578982,0.50362 -0.879141,0.650495 -0.300168,0.146877 -0.643073,0.209729 -1.050434,0.209729 -0.536005,0 -0.964865,-0.16773 -1.350785,-0.461483 C 63.064928,58.468193 62.829024,58.006505 62.743262,57.419 h 5.209935 c 0,-0.08393 0.02152,-0.167891 0.02152,-0.230838 v -0.23084 c 0.02142,-0.503575 -0.04294,-1.007081 -0.193004,-1.468692 -0.150074,-0.46161 -0.364403,-0.881353 -0.643121,-1.238052 -0.278728,-0.356699 -0.643275,-0.629286 -1.050636,-0.839109 -0.428793,-0.209823 -0.922003,-0.314892 -1.479439,-0.314892 z m -14.707832,0.02111 c -0.536005,0 -1.050521,0.104939 -1.500763,0.293779 -0.471684,0.209823 -0.857758,0.461497 -1.200798,0.818197 -0.343049,0.335716 -0.600345,0.734416 -0.793311,1.196026 -0.192955,0.461611 -0.278641,0.944135 -0.278641,1.468692 v 0.02111 c 0,0.503575 0.08569,0.986168 0.278641,1.447778 0.192966,0.461611 0.450262,0.839198 0.793311,1.174915 0.34304,0.335717 0.729114,0.608444 1.200798,0.797285 0.450242,0.188841 0.964758,0.293777 1.500763,0.293777 0.536005,0 1.050579,-0.104936 1.522271,-0.293777 0.471683,-0.209823 0.857566,-0.482481 1.200605,-0.818198 0.321599,-0.335717 0.600336,-0.734416 0.793302,-1.196027 0.192965,-0.46161 0.278641,-0.923222 0.278641,-1.447778 v -0.02091 c -0.02142,-0.54554 -0.128509,-1.028263 -0.321465,-1.468891 -0.192965,-0.440628 -0.450386,-0.839198 -0.771995,-1.174914 -0.34304,-0.335717 -0.728845,-0.608443 -1.179088,-0.797284 -0.471692,-0.18884 -0.964826,-0.293779 -1.522271,-0.29378 z m -14.214881,0.02091 c -0.343049,0 -0.664562,0.04195 -0.94328,0.125877 -0.300158,0.104912 -0.557455,0.251727 -0.793301,0.440569 -0.235846,0.18884 -0.407333,0.41975 -0.535966,0.69252 -0.128644,0.27277 -0.193004,0.587444 -0.193004,0.92316 v 0.02111 l 0.02133,0.251753 c 0.02142,0.251788 0.08578,0.461522 0.192994,0.629381 0.128644,0.230805 0.300264,0.419699 0.514661,0.587557 0.214405,0.146875 0.450175,0.27272 0.707462,0.37763 0.257277,0.08393 0.514506,0.188806 0.771793,0.251752 0.214396,0.06295 0.407534,0.125869 0.6005,0.188816 0.192965,0.06295 0.364374,0.125997 0.514458,0.209926 0.150084,0.08393 0.25721,0.167755 0.342973,0.272667 0.08578,0.104911 0.128662,0.230822 0.128662,0.356716 v 0.02111 l -0.02133,0.167703 c -0.04284,0.167858 -0.128759,0.29383 -0.278843,0.398741 -0.192965,0.125894 -0.471568,0.209927 -0.814607,0.209927 -0.36449,0 -0.750555,-0.08397 -1.136485,-0.23084 -0.407362,-0.146876 -0.793167,-0.356743 -1.179097,-0.650495 l -0.728961,1.111976 0.342973,0.251953 c 0.343039,0.230805 0.729037,0.398656 1.114958,0.545531 0.514564,0.188841 1.029022,0.272665 1.543587,0.272665 0.36448,0 0.707519,-0.06286 1.029118,-0.14679 0.321599,-0.08393 0.600481,-0.230813 0.836317,-0.419654 0.235847,-0.167858 0.428649,-0.419751 0.557292,-0.692521 0.128634,-0.27277 0.192994,-0.608417 0.192994,-0.986098 v -0.02091 l -0.02132,-0.230839 c -0.02142,-0.230805 -0.08578,-0.419699 -0.192994,-0.587557 -0.128644,-0.230805 -0.300264,-0.419698 -0.514661,-0.587557 -0.214405,-0.146875 -0.450175,-0.29363 -0.707452,-0.398542 -0.257287,-0.125893 -0.514516,-0.20985 -0.771794,-0.293779 -0.214405,-0.08393 -0.407342,-0.146979 -0.600307,-0.209926 -0.192965,-0.06295 -0.364576,-0.1258 -0.51466,-0.209728 -0.150084,-0.06295 -0.278718,-0.146841 -0.36448,-0.251752 -0.08578,-0.104912 -0.128663,-0.209911 -0.128663,-0.335805 v -0.02091 l 0.02152,-0.146988 c 0.02142,-0.146875 0.107184,-0.272719 0.235827,-0.37763 0.171515,-0.146877 0.407362,-0.209727 0.728961,-0.209727 0.300168,0 0.621748,0.06292 0.964787,0.188813 0.34304,0.125895 0.68608,0.293683 1.029119,0.503506 l 0.643131,-1.174912 -0.278641,-0.189014 c -0.300166,-0.16785 -0.621756,-0.314734 -0.964796,-0.419646 -0.450242,-0.125894 -0.900542,-0.209729 -1.350785,-0.209729 z m -5.574425,0.104965 v 7.196869 h 1.629426 V 53.24357 Z m 23.62714,0 2.894363,7.259807 h 1.479256 l 2.894554,-7.259807 h -1.715265 l -1.908259,5.28741 -1.908068,-5.28741 z m 15.479626,0 v 7.196869 h 1.629628 V 57.712776 57.35606 c 0.02142,-0.335716 0.06426,-0.65046 0.171486,-0.902247 0.493114,-1.300902 1.84386,-1.678672 2.55138,-1.783583 l -0.557474,-1.38484 -0.235817,0.04203 c -0.578886,0.146876 -1.415088,0.440742 -1.951093,1.112175 V 53.24357 Z m 6.582228,0 v 0.02091 h -1.693758 l 2.637037,7.133931 -0.02132,0.04203 -0.02152,0.04203 c -0.06436,0.230805 -0.557494,1.468649 -0.986296,1.783384 -0.38592,0.18884 -1.243486,0.167971 -1.565094,0.146989 v 1.342815 h 0.535976 c 0.643198,-0.02098 1.479505,-0.04193 1.801104,-0.251754 0.536005,-0.356699 0.664639,-0.503601 1.029119,-1.258963 0.385921,-0.839292 3.49467,-9.001365 3.49467,-9.001365 H 79.31652 L 77.4941,58.510068 Z M 64.608506,54.43959 c 0.257277,0 0.514564,0.04187 0.72897,0.146788 0.214406,0.104912 0.386084,0.230885 0.536168,0.398744 0.150084,0.167858 0.278718,0.377664 0.36448,0.60847 0.08578,0.230805 0.150055,0.314654 0.171496,0.566442 h -3.64485 c 0.06436,-0.566522 0.278708,-0.839326 0.600307,-1.196025 0.34304,-0.356699 0.750305,-0.524419 1.243429,-0.524419 z m -14.72934,0.146788 c 0.321599,0 0.621854,0.06299 0.879141,0.167902 0.257277,0.125895 0.492989,0.293683 0.685944,0.503506 0.192966,0.209824 0.343126,0.461578 0.450329,0.734348 0.107203,0.272769 0.171487,0.587512 0.171487,0.902246 h -0.02133 c 0,0.314735 -0.04294,0.608565 -0.15017,0.881335 -0.107203,0.27277 -0.235856,0.524524 -0.428821,0.734346 -0.192966,0.209824 -0.407352,0.377613 -0.664639,0.503506 -0.257277,0.125894 -0.557407,0.189015 -0.900447,0.189015 -0.300168,0 -0.600355,-0.06312 -0.857642,-0.189015 -0.257277,-0.125893 -0.493181,-0.293682 -0.686146,-0.503506 -0.192956,-0.209822 -0.342925,-0.461576 -0.450128,-0.734346 -0.107202,-0.27277 -0.171486,-0.5666 -0.171486,-0.881335 v -0.02091 c 0,-0.314735 0.04275,-0.608494 0.149979,-0.902247 0.107203,-0.272769 0.235856,-0.524593 0.428811,-0.713434 0.192965,-0.209823 0.407429,-0.377611 0.686156,-0.503506 0.257278,-0.125893 0.55734,-0.167902 0.878939,-0.167902 z" /><style
     type="text/css"
     id="style3265">
	.st0{fill-rule:evenodd;clip-rule:evenodd;fill:#999999;}
	.st1{fill-rule:evenodd;clip-rule:evenodd;fill:#FF9000;}
</style></svg>
