<?xml version="1.0" encoding="UTF-8" standalone="no"?>
<!-- Generator: Adobe Illustrator 16.0.0, SVG Export Plug-In . SVG Version: 6.00 Build 0)  -->

<svg
   version="1.1"
   id="Layer_1"
   x="0px"
   y="0px"
   width="100"
   height="65.047295"
   viewBox="0 0 99.999999 65.047295"
   enable-background="new 0 0 792 515"
   xml:space="preserve"
   inkscape:version="1.4.2 (f4327f4, 2025-05-13)"
   sodipodi:docname="2015_Disney_XD_logo.svg"
   xmlns:inkscape="http://www.inkscape.org/namespaces/inkscape"
   xmlns:sodipodi="http://sodipodi.sourceforge.net/DTD/sodipodi-0.dtd"
   xmlns="http://www.w3.org/2000/svg"
   xmlns:svg="http://www.w3.org/2000/svg"
   xmlns:rdf="http://www.w3.org/1999/02/22-rdf-syntax-ns#"
   xmlns:cc="http://creativecommons.org/ns#"
   xmlns:dc="http://purl.org/dc/elements/1.1/"><metadata
     id="metadata14268"><rdf:RDF><cc:Work
         rdf:about=""><dc:format>image/svg+xml</dc:format><dc:type
           rdf:resource="http://purl.org/dc/dcmitype/StillImage" /></cc:Work></rdf:RDF></metadata><defs
     id="defs14266" /><sodipodi:namedview
     pagecolor="#ffffff"
     bordercolor="#666666"
     borderopacity="1"
     objecttolerance="10"
     gridtolerance="10"
     guidetolerance="10"
     inkscape:pageopacity="0"
     inkscape:pageshadow="2"
     inkscape:window-width="1920"
     inkscape:window-height="974"
     id="namedview14264"
     showgrid="false"
     fit-margin-top="0"
     fit-margin-left="0"
     fit-margin-right="0"
     fit-margin-bottom="0"
     inkscape:zoom="7.35"
     inkscape:cx="50"
     inkscape:cy="50"
     inkscape:window-x="-11"
     inkscape:window-y="-11"
     inkscape:window-maximized="1"
     inkscape:current-layer="Layer_1"
     inkscape:showpageshadow="2"
     inkscape:pagecheckerboard="0"
     inkscape:deskcolor="#d1d1d1" /><path
     id="path14244"
     style="display:inline;fill:#08ee59;stroke-width:0.137862"
     d="M 4.101379,0.01432587 C 3.1935547,-0.02900164 2.2893997,0.0261622 1.3923292,0.17695063 1.1842948,0.2118081 0.97798378,0.25958782 0.78056485,0.33985773 0.6855777,0.37829868 0.59150824,0.41978016 0.51830332,0.49630371 0.41793986,0.60055036 0.31649007,0.70354821 0.2188835,0.81053133 0.14457519,0.89229979 0.08032961,0.98267946 0.04090103,1.0881423 -0.07173258,1.3899255 0.05180458,1.6014485 0.3677856,1.6317777 c 0.14847785,0.014334 0.29981824,0.00652 0.44939893,0.00217 0.0457708,-0.00109 0.0940478,-0.016614 0.13678539,-0.036052 C 1.0351705,1.5605425 1.0542107,1.4556878 0.99355106,1.3881338 0.97094149,1.3634838 0.93968813,1.3465437 0.91142643,1.3278662 0.87158466,1.3015873 0.82732436,1.280738 0.79106607,1.2503327 0.72020442,1.1903909 0.72911425,1.1112503 0.81045269,1.0653492 0.9130227,1.0067105 1.027489,0.98738142 1.1419149,0.96598914 1.3907564,0.92005546 1.6430488,0.90474424 1.8942341,0.89225636 2.782068,0.8483859 3.6648373,0.90615591 4.5408142,1.0602781 5.578229,1.2416998 6.584915,1.5349478 7.5616702,1.9329528 c 1.1951281,0.4863757 2.3218714,1.1000736 3.3434308,1.9042278 0.568821,0.447772 1.090231,0.9452891 1.521603,1.5350645 0.258353,0.3522342 0.473699,0.729455 0.614457,1.1478641 0.146548,0.436055 0.194482,0.8793965 0.09936,1.3339227 C 13.030783,8.3791526 12.752939,8.7976052 12.349967,9.1333011 12.035641,9.3956552 11.680022,9.58331 11.301728,9.7297114 10.555342,10.01867 9.7786738,10.148913 8.9847249,10.185041 8.3428381,10.214578 7.7042655,10.176354 7.0716154,10.057144 6.9454716,10.033579 6.9413962,10.029996 6.9369842,9.896658 6.9203047,9.396361 6.9046568,8.8958142 6.8882488,8.3957887 c 2.487e-4,0 8.405e-4,-1.09e-5 0.00108,0 h 2.758e-4 2.758e-4 v -2.715e-4 h 2.758e-4 C 6.8792597,7.9367125 6.8677818,7.478125 6.8573028,7.0193095 c -0.00163,-0.062874 -7.438e-4,-0.1250851 0.00217,-0.1876766 0.00119,-0.029754 0.020035,-0.051906 0.04981,-0.055164 0.040537,-0.00434 0.081443,-0.00543 0.1222455,-0.00652 0.6019071,-0.016289 1.1975887,0.038224 1.7873641,0.160757 0.3205302,0.066131 0.6376105,0.1476284 0.9421486,0.2708675 0.1016079,0.040939 0.2020528,0.084809 0.289457,0.15321 0.106701,0.082963 0.119566,0.1548606 0.05008,0.2684568 -0.02178,0.035183 -0.04714,0.068629 -0.07512,0.098817 -0.051699,0.055055 -0.1071567,0.106527 -0.1594027,0.1612891 -0.052525,0.055164 -0.1001528,0.1137483 -0.1238613,0.1892945 -0.023846,0.074276 0.00261,0.1409284 0.072973,0.1709862 0.031296,0.013139 0.064926,0.020198 0.098014,0.02693 0.174948,0.035943 0.352623,0.028776 0.529638,0.036378 0.05846,0.00217 0.105138,-0.026279 0.151596,-0.054947 0.159507,-0.097405 0.297132,-0.2205143 0.411971,-0.3702277 0.169571,-0.2198952 0.22983,-0.4690773 0.189023,-0.744245 C 11.169076,6.9618869 11.093866,6.807363 10.991577,6.6655007 10.889969,6.5239207 10.763826,6.4075011 10.624034,6.3060344 10.394631,6.1390877 10.14192,6.0201597 9.8776376,5.9250346 9.3664446,5.7412565 8.8368662,5.652245 8.3000297,5.5957238 7.8725185,5.5505503 7.4433427,5.5408857 7.0137629,5.5437091 c -0.040667,4.126e-4 -0.081301,9.77e-5 -0.1222455,-0.00326 -0.038463,-0.00326 -0.06143,-0.028342 -0.065426,-0.066457 -0.00424,-0.048105 -0.00467,-0.096971 -0.00652,-0.1456738 C 6.803581,4.9249292 6.763609,4.5243181 6.6930231,4.1271383 6.6580028,3.928896 6.6095063,3.7334009 6.5311965,3.5471469 6.4931465,3.4576686 6.4492977,3.3705466 6.382025,3.2999629 6.2276194,3.1360459 6.0592654,3.1505645 5.9407044,3.3385125 5.91878,3.3735871 5.9000373,3.4111594 5.883347,3.4491768 5.8253055,3.5833183 5.785366,3.7234432 5.7554473,3.866272 5.6578355,4.3294854 5.6125056,4.7993663 5.5879663,5.2718208 c -0.00445,0.083071 -0.00814,0.1666209 -0.01669,0.2490626 -0.012542,0.1247702 -0.017483,0.1294504 -0.1273612,0.1497134 -0.093746,0.01694 -0.1883226,0.0316 -0.281379,0.049517 C 4.5185804,5.8465347 3.8903054,6.026371 3.2914312,6.3033413 3.0117081,6.4325203 2.7442123,6.5845792 2.5062618,6.7858621 2.4001039,6.8750147 2.3076426,6.9760037 2.2345757,7.0947037 c -0.09995,0.1617126 -0.1315551,0.3359348 -0.07324,0.5185945 0.029365,0.092085 0.069795,0.1813565 0.1133593,0.2673817 0.0914,0.1794997 0.208957,0.3416793 0.334963,0.4973217 0.3849111,0.475495 0.8417699,0.8694822 1.3333873,1.2246157 0.4628041,0.3334807 0.9547787,0.6172817 1.472865,0.8524767 0.094984,0.04333 0.1334042,0.09903 0.1340927,0.203031 9.653e-4,0.181563 0.035324,0.36014 0.090738,0.532061 0.1013256,0.314738 0.2975004,0.466362 0.6206498,0.477666 0.3407964,0.0126 0.528563,-0.132675 0.6319594,-0.445621 0.017233,-0.05234 0.028624,-0.106745 0.042546,-0.160757 0.00814,-0.03214 0.030264,-0.04517 0.06005,-0.04148 0.033359,0.0043 0.066403,0.01336 0.099632,0.0215 0.4647338,0.112499 0.9363673,0.187655 1.4128201,0.2173 0.8892119,0.0556 1.7700597,-0.0043 2.6347327,-0.239376 0.710405,-0.193281 1.377368,-0.483249 1.976656,-0.9233 0.470249,-0.3461753 0.865143,-0.7633899 1.146519,-1.2846557 0.216031,-0.4020011 0.340108,-0.8304114 0.367543,-1.289759 0.02965,-0.4833461 -0.0689,-0.9393709 -0.253914,-1.3797044 C 14.191201,5.6914678 13.933943,5.283049 13.639194,4.8980097 13.094776,4.1863635 12.451532,3.576955 11.748434,3.0330915 10.200101,1.835341 8.4879299,0.97126663 6.6154832,0.44062949 5.7925829,0.20723645 4.9543346,0.05547071 4.1013799,0.01439102 Z M 16.759136,1.1064506 c -0.693862,0.030188 -1.321016,0.2507567 -1.871914,0.6841947 -0.36051,0.2838549 -0.658646,0.6232537 -0.846829,1.052283 -0.07003,0.1599208 -0.113865,0.3252821 -0.115245,0.5027077 -0.0027,0.3100577 0.08597,0.5897537 0.260646,0.8395655 0.05376,0.076665 0.083,0.1513857 0.08617,0.2463696 0.0051,0.1527539 0.02432,0.3059096 0.08375,0.4483257 0.07155,0.1719093 0.201659,0.2349351 0.380466,0.1944092 0.118838,-0.026279 0.216834,-0.088501 0.282456,-0.1903696 0.04742,-0.073624 0.09692,-0.075905 0.172329,-0.05625 0.238088,0.062765 0.482331,0.083832 0.628189,0.089696 0.326596,0.0076 0.547874,-0.028668 0.763628,-0.096102 C 17.309998,4.593805 17.924166,4.185549 18.438531,3.6168727 18.624369,3.4110399 18.778895,3.1825443 18.875813,2.91867 18.95605,2.7004361 18.985724,2.4768705 18.931824,2.2444439 18.886737,2.0497742 18.782069,1.9054252 18.611671,1.8085084 18.504004,1.7467205 18.388189,1.6983001 18.267284,1.6841074 18.137556,1.6682532 18.040784,1.6068997 17.945245,1.5230897 17.605002,1.2246186 17.208577,1.0868175 16.759146,1.1065375 Z m -0.708969,0.9965437 c 0.01934,-7.167e-4 0.03994,8.904e-4 0.0622,0.00543 -0.257803,0.1839084 -0.507017,0.3522233 -0.736971,0.5463393 -0.225129,0.1902501 -0.432409,0.4000791 -0.640305,0.6257622 -0.07003,-0.1239341 -0.03769,-0.2290494 0.0027,-0.3306573 0.05238,-0.1309708 0.142498,-0.2358146 0.243413,-0.3301144 0.262766,-0.2455334 0.578637,-0.3874609 0.917917,-0.4795563 0.04632,-0.012596 0.09302,-0.035509 0.151055,-0.037681 z m 1.760169,0.1537421 c 0.283446,0.016288 0.469759,0.2665347 0.405239,0.5498359 -0.02963,0.1309707 -0.09492,0.2440023 -0.180944,0.3451975 -0.121732,0.1431002 -0.265204,0.2581625 -0.421127,0.3581198 -0.378569,0.2420803 -0.789025,0.4056172 -1.227566,0.486821 -0.283583,0.052666 -0.569118,0.029971 -0.849254,-0.041482 -0.01779,-0.00434 -0.03196,-0.02313 -0.04685,-0.034749 0.01186,-0.062331 0.05702,-0.097405 0.09397,-0.1362482 0.404351,-0.4226875 0.837064,-0.8125157 1.316962,-1.1451711 0.185702,-0.1283537 0.378586,-0.2456203 0.591032,-0.3239247 0.102705,-0.037898 0.207007,-0.064937 0.318538,-0.058422 z m 7.128185,2.6285465 c -0.113106,0.00434 -0.173096,0.1000116 -0.175559,0.2703355 -0.0027,0.1832243 0.02701,0.3600961 0.07512,0.5342206 0.118699,0.427509 0.241265,0.8536388 0.361619,1.2808763 0.09747,0.3471414 0.19576,0.6942284 0.247183,1.0530866 0.02192,0.1522001 0.02738,0.3042373 -0.0091,0.4550583 -0.01406,0.059399 -0.01866,0.1342719 -0.08994,0.1494311 -0.0619,0.013139 -0.09486,-0.048214 -0.125745,-0.090999 C 25.095942,8.3646884 24.972755,8.1899124 24.85185,8.0133121 24.610452,7.6594164 24.37341,7.3031752 24.130496,6.9507999 23.965613,6.7121619 23.788149,6.4829822 23.591971,6.2692983 23.489125,6.1580476 23.38131,6.051021 23.247584,5.9782221 c -0.146548,-0.079922 -0.251982,-0.062657 -0.368889,0.058204 -0.08271,0.084918 -0.138736,0.1888059 -0.187676,0.2959193 -0.06935,0.151516 -0.122901,0.3088741 -0.169636,0.4685235 -0.09995,0.3401047 -0.170753,0.68717 -0.226449,1.0369284 -0.07458,0.4663842 -0.138447,0.9342671 -0.136517,1.4082418 0,0.1184177 -0.0048,0.2363358 0.0011,0.3543517 0.0067,0.1392345 0.03151,0.275993 0.07701,0.4079302 0.0273,0.07971 0.06347,0.154427 0.118475,0.217561 0.112771,0.128907 0.257453,0.179847 0.422474,0.163439 0.157163,-0.0152 0.229006,-0.134923 0.286494,-0.266024 0.06094,-0.140625 0.09226,-0.2903493 0.113898,-0.4418653 0.04977,-0.3445134 0.06324,-0.691405 0.0762,-1.0385463 0.009,-0.2433182 -5.52e-4,-0.4876463 0.03985,-0.7283474 0.009,-0.054729 0.0186,-0.1095784 0.03501,-0.1621035 0.02261,-0.071452 0.07029,-0.083832 0.121436,-0.034966 0.07583,0.071561 0.134402,0.1574884 0.190099,0.2447624 0.193559,0.3024673 0.385211,0.6064223 0.579183,0.9090308 0.164195,0.2558712 0.33497,0.5073771 0.524255,0.7447771 0.124766,0.1563374 0.25894,0.3036944 0.417896,0.4257062 0.154957,0.119243 0.323064,0.134696 0.50325,0.07428 0.1806,-0.06168 0.322216,-0.1770674 0.441053,-0.3252605 0.130681,-0.1629651 0.225756,-0.346146 0.300753,-0.5414999 C 26.57284,8.8181722 26.601711,8.3741032 26.542292,7.9172314 26.437101,7.1063228 26.177942,6.3525327 25.766009,5.6521907 25.64662,5.4485731 25.508661,5.2594089 25.339229,5.0953616 25.274574,5.0330308 25.205538,4.976477 25.125164,4.9362226 25.052223,4.8997363 24.989976,4.883122 24.938565,4.8852938 Z m 7.838498,0.6023393 c -0.02378,3.801e-4 -0.04813,0.00869 -0.07216,0.024759 -0.0448,0.030297 -0.08537,0.068412 -0.124669,0.1071786 -0.241811,0.2365747 -0.451212,0.5015675 -0.643806,0.7803187 -0.280274,0.4049005 -0.516165,0.8334085 -0.677464,1.3029636 -0.216582,0.6274128 -0.234714,1.2507968 0.03177,1.8681433 0.03612,0.084266 0.03289,0.1577273 0.008,0.2407229 -0.153165,0.5113297 -0.310087,1.0215077 -0.452361,1.5358677 -0.189146,0.682555 -0.349577,1.371571 -0.409547,2.08059 -0.01765,0.208308 -0.03449,0.416172 0.01831,0.621733 0.08864,0.343276 0.276581,0.616185 0.561681,0.818282 0.107536,0.07623 0.224171,0.129364 0.361619,0.124672 0.07045,-0.0033 0.120479,-0.02682 0.138401,-0.09697 0.03074,-0.120904 0.06373,-0.241461 0.08455,-0.364581 0.06865,-0.411242 0.14927,-0.819031 0.288649,-1.212486 0.04674,-0.130699 0.08293,-0.264406 0.123053,-0.397158 0.214099,-0.710267 0.418312,-1.423162 0.601532,-2.142529 0.02757,-0.109318 0.03038,-0.110969 0.135708,-0.109318 0.29544,0.0043 0.584346,-0.03508 0.863794,-0.135434 0.913752,-0.32715 1.599405,-0.9319537 2.076822,-1.7862876 C 35.941987,8.2987959 36.031585,7.8136363 35.972857,7.3010686 35.936186,6.9802604 35.854765,6.6739599 35.671822,6.4036136 35.545264,6.2165343 35.385024,6.0697311 35.179609,5.9779181 35.029201,5.9105921 34.87806,5.9057055 34.721863,5.9595663 c -0.149994,0.052123 -0.285987,0.1287881 -0.416819,0.2173 -0.303021,0.2036176 -0.573239,0.4478262 -0.832558,0.7046638 -0.465287,0.4599015 -0.891139,0.957158 -1.298385,1.4709745 -0.04149,0.052123 -0.07228,0.1172232 -0.147555,0.1534815 -0.08271,-0.1477914 -0.08085,-0.294714 -0.03796,-0.4440147 0.04343,-0.1538507 0.105626,-0.3001869 0.171521,-0.4453612 0.166261,-0.365884 0.364016,-0.7149691 0.55468,-1.0676268 0.06603,-0.1215886 0.133761,-0.2427861 0.193869,-0.367274 0.07458,-0.1548171 0.09124,-0.3175396 0.04712,-0.4865495 -0.0142,-0.054621 -0.03472,-0.105224 -0.06974,-0.1489098 -0.03153,-0.038658 -0.06941,-0.05929 -0.109051,-0.058747 z m -12.564055,0.030405 c -0.620932,-0.0076 -1.197002,0.036269 -1.765822,0.1596711 -0.293784,0.063851 -0.580002,0.1521132 -0.849523,0.2908047 -0.183633,0.094691 -0.352526,0.2107085 -0.493558,0.3653845 -0.189975,0.2080372 -0.285052,0.4555795 -0.289188,0.7375124 -0.004,0.3170836 0.134228,0.5462524 0.421396,0.6761155 0.106017,0.048214 0.216641,0.081443 0.330653,0.1033779 0.349894,0.067543 0.703759,0.079379 1.058203,0.080248 0.430682,0.00109 0.857531,0.04311 1.279804,0.1281691 0.28055,0.056576 0.55832,0.1253132 0.822327,0.241255 0.08796,0.038441 0.17426,0.079814 0.246914,0.1451417 0.09319,0.083289 0.103486,0.1687058 0.03662,0.277068 -0.05652,0.091216 -0.141297,0.1492899 -0.230219,0.2014024 -0.160333,0.094148 -0.333781,0.1587698 -0.51052,0.2089494 -0.552966,0.157445 -1.117737,0.2496598 -1.690969,0.2762644 -0.224578,0.010859 -0.449627,0.00543 -0.669655,-0.057118 -0.07913,-0.022044 -0.155744,-0.049952 -0.219987,-0.104681 -0.103117,-0.088067 -0.130781,-0.214683 -0.07108,-0.3376614 0.05845,-0.119243 0.158169,-0.1871336 0.279764,-0.2272577 0.128763,-0.041481 0.257175,-0.02617 0.382353,0.011619 0.123801,0.038441 0.244891,0.084918 0.365658,0.131948 0.191077,0.074059 0.380707,0.1503541 0.577299,0.2089386 0.313636,0.093931 0.619121,0.069389 0.919799,-0.054404 0.08934,-0.036486 0.171861,-0.085569 0.23776,-0.1577925 0.107395,-0.1177335 0.09955,-0.2427318 -0.0237,-0.340615 -0.04812,-0.037898 -0.102085,-0.07167 -0.158058,-0.094799 C 20.09225,8.343155 19.98428,8.2992845 19.872888,8.2688141 19.430212,8.1486047 18.978468,8.0874358 18.521729,8.0601362 c -0.240018,-0.014334 -0.476328,0.00977 -0.706007,0.085895 -0.15027,0.050494 -0.289082,0.1228156 -0.408471,0.2307651 -0.29985,0.2714431 -0.367755,0.7105712 -0.163442,1.0611657 0.05225,0.090021 0.114799,0.1718875 0.185522,0.2479876 0.235193,0.2524289 0.524237,0.4186044 0.840907,0.5377174 0.256975,0.09664 0.522308,0.152764 0.794862,0.183365 0.463631,0.05202 0.924703,0.04724 1.381855,-0.05571 0.37154,-0.08405 0.714262,-0.23247 0.993848,-0.5037823 C 21.752095,9.5457595 21.925881,9.179452 21.902857,8.7333306 21.87735,8.227376 21.653434,7.8457139 21.203314,7.615622 21.112185,7.5689282 21.016947,7.5298357 20.920857,7.4952606 20.715029,7.4204419 20.501028,7.3780808 20.284859,7.3458186 19.866585,7.2828363 19.444921,7.2599238 19.024441,7.221157 18.773532,7.198245 18.523275,7.167296 18.273468,7.134719 18.200268,7.124949 18.128118,7.099861 18.056982,7.07684 18.011892,7.062072 17.963202,7.038399 17.954928,6.984755 c -0.0101,-0.063525 0.03691,-0.1012061 0.08186,-0.1330122 0.0619,-0.044522 0.132518,-0.070041 0.205447,-0.089913 0.144755,-0.039418 0.29216,-0.065697 0.441051,-0.084049 0.521259,-0.062874 1.046226,-0.079379 1.568724,-0.1238581 0.278207,-0.023998 0.556014,-0.054404 0.83229,-0.09241 0.161713,-0.022478 0.322327,-0.05777 0.476594,-0.1155075 0.07707,-0.028668 0.15273,-0.060376 0.21918,-0.1095892 0.187079,-0.1388327 0.183517,-0.3435796 -0.0065,-0.4814458 -0.0732,-0.053318 -0.156206,-0.085786 -0.240991,-0.1114679 -0.150546,-0.044848 -0.305048,-0.07395 -0.461246,-0.088067 -0.298886,-0.026062 -0.597988,-0.04854 -0.858409,-0.037464 z m 9.694256,0.033663 c -0.04095,0.00217 -0.08172,0.00217 -0.121975,0.00543 -0.373193,0.031057 -0.746946,0.061136 -1.119863,0.093713 -0.244292,0.021935 -0.488121,0.044196 -0.731586,0.07167 -0.209689,0.023998 -0.418524,0.055707 -0.621457,0.1190149 -0.07859,0.024541 -0.153525,0.055598 -0.220527,0.105767 -0.06039,0.045608 -0.0826,0.1073957 -0.07378,0.1825619 0.01089,0.095777 0.06197,0.167381 0.129246,0.2291363 0.08713,0.079597 0.189009,0.136107 0.292957,0.1882195 0.07334,0.036703 0.149627,0.068195 0.222142,0.1058755 0.104084,0.054187 0.119381,0.075362 0.09801,0.1987093 -0.02205,0.1298739 -0.06072,0.2561535 -0.08913,0.3847787 -0.02454,0.1107078 -0.08753,0.1816389 -0.189829,0.2267256 -0.09333,0.040396 -0.185378,0.087741 -0.271955,0.1418949 -0.08314,0.051472 -0.13953,0.1291355 -0.171789,0.2256397 -0.03074,0.091433 0.01267,0.1624184 0.05197,0.2350653 0.04149,0.077425 0.05031,0.1531014 0.01778,0.2385728 -0.03929,0.1037037 -0.06885,0.2106325 -0.101238,0.3166492 -0.05638,0.185559 -0.113852,0.3712592 -0.16748,0.557372 -0.02909,0.1003374 -0.04809,0.204356 -0.0412,0.3085809 0.02205,0.3267264 0.124174,0.6256203 0.323385,0.8845213 0.207621,0.270216 0.483945,0.399895 0.819364,0.386929 0.142274,-0.0054 0.285761,-0.0215 0.426243,-0.04734 0.625896,-0.116767 1.196032,-0.371151 1.714395,-0.7458521 0.08823,-0.06396 0.167389,-0.1422966 0.25176,-0.2119138 0.122973,-0.1010976 0.116789,-0.2348808 0.03365,-0.3519302 -0.143101,-0.2027923 -0.330147,-0.3288221 -0.58726,-0.309113 -0.07472,0.00652 -0.14932,0.014008 -0.223489,0.026387 -0.341899,0.058747 -0.683709,0.1209153 -1.026159,0.1779903 -0.114288,0.018895 -0.229936,0.028994 -0.345464,0.037138 -0.0852,0.00543 -0.129856,-0.036812 -0.126823,-0.124401 0.0027,-0.082746 0.01545,-0.1655567 0.02828,-0.247727 0.02523,-0.1585417 0.07025,-0.3110676 0.1349,-0.4572084 0.0448,-0.1013147 0.111909,-0.1718549 0.231297,-0.1747434 0.108493,-0.00326 0.217172,-0.018026 0.325808,-0.019872 0.29985,-0.00543 0.599624,-0.00652 0.899337,-0.00869 0.08148,-8.361e-4 0.163202,-0.00217 0.242335,-0.028559 0.177567,-0.058313 0.272531,-0.2200039 0.247992,-0.425967 -0.02426,-0.2037696 -0.136013,-0.3152918 -0.329847,-0.3276928 -0.04783,-0.00326 -0.09554,-0.00326 -0.143517,-0.00326 -0.251738,1.412e-4 -0.503157,-0.014985 -0.754204,-0.039636 -0.05405,-0.00543 -0.1089,-0.011402 -0.161288,-0.024758 -0.08313,-0.020524 -0.111493,-0.058747 -0.110667,-0.1494419 0.0011,-0.1118046 0.02672,-0.2196021 0.05278,-0.3276928 0.02978,-0.1233803 0.106875,-0.1884367 0.228603,-0.2019453 0.148616,-0.016506 0.297402,-0.036704 0.446707,-0.046259 0.305641,-0.021175 0.61213,-0.036161 0.918184,-0.054947 0.108635,-0.00652 0.217461,-0.013574 0.32527,-0.02693 0.147926,-0.018786 0.273217,-0.084483 0.362965,-0.2089494 0.05722,-0.079705 0.06823,-0.1648835 0.01778,-0.2525592 C 31.002463,6.15289 30.985193,6.121833 30.963823,6.095663 30.690299,5.7551452 30.34522,5.5602799 29.907231,5.5528307 Z m -14.158088,0.062439 c -0.09586,0.00434 -0.188981,0.065697 -0.253914,0.1833655 -0.06121,0.1097413 -0.09732,0.2295272 -0.127092,0.3511157 -0.06039,0.2427752 -0.09604,0.490285 -0.117129,0.7394019 -0.06162,0.7339724 -0.08001,1.4708116 -0.07243,2.2074118 0.0026,0.2561427 0.0176,0.514012 0.06517,0.767125 0.02592,0.1373124 0.06032,0.2713889 0.128977,0.3933899 0.07196,0.127528 0.176863,0.205952 0.322308,0.230493 0.11539,0.01933 0.229114,0.0189 0.345194,0.0043 0.137863,-0.01824 0.221639,-0.0973 0.266031,-0.225911 0.01806,-0.05223 0.03126,-0.105984 0.04173,-0.160486 0.03185,-0.1644702 0.04213,-0.3309065 0.04255,-0.497864 V 8.7483812 C 16.355228,8.0092942 16.342023,7.3493152 16.262621,6.693365 16.236842,6.4794096 16.204536,6.2664532 16.143607,6.0597951 16.113549,5.9596749 16.078203,5.8616179 16.019475,5.7751801 15.943723,5.6635167 15.845002,5.6103183 15.749137,5.6144339 Z M 5.4328812,6.8177334 c 0.016973,-8.796e-4 0.033804,-0.00103 0.050625,0 0.02895,0.00109 0.052579,0.018677 0.055196,0.05006 0.00402,0.048214 0.00478,0.096754 0.00402,0.1454023 -0.00521,0.4031088 -0.011315,0.8061524 -0.016962,1.2089896 h -0.00728 c 0,0.4032499 2.758e-4,0.8060112 -2.758e-4,1.2089896 0,0.048106 -0.00337,0.096863 -0.00728,0.1451309 -0.00195,0.026062 -0.024867,0.033229 -0.043621,0.032251 -0.026746,-0.00217 -0.054208,-0.0076 -0.079434,-0.017809 C 4.5303735,9.2589075 3.7169293,8.8442664 3.0005963,8.2506252 2.8901687,8.158975 2.7883143,8.0549021 2.6893289,7.9501343 2.6332203,7.8905182 2.5844741,7.8216177 2.543389,7.7500676 2.4741844,7.6286094 2.4885292,7.5345702 2.5832416,7.4291074 2.6631966,7.3402805 2.7649164,7.2833467 2.8716215,7.2355127 3.0472586,7.1574363 3.2304949,7.1041402 3.4166088,7.062637 3.8096545,6.9752218 4.2070601,6.9196562 4.6078255,6.8854611 4.8659043,6.8635259 5.1237454,6.842568 5.3816863,6.82161 5.3987133,6.82052 5.4158703,6.81835 5.4328433,6.81727 Z M 35.00732,6.9305478 c 0.10568,-0.00434 0.192415,0.074058 0.245837,0.2286042 0.03694,0.1077215 0.0331,0.2186899 0.03985,0.3031948 0.0056,0.3136413 -0.08237,0.5744208 -0.232912,0.8120923 -0.290614,0.4599123 -0.701269,0.7684063 -1.196333,0.9666596 -0.178671,0.07167 -0.36455,0.1117502 -0.55549,0.1284296 -0.05693,0.00543 -0.07864,-0.024976 -0.05493,-0.07319 0.003,-0.00652 0.0074,-0.011728 0.01053,-0.017809 0.367817,-0.6416055 0.743747,-1.2780964 1.18987,-1.8678718 0.104366,-0.1381377 0.214895,-0.2705418 0.346002,-0.3823572 0.07398,-0.062982 0.144194,-0.095234 0.207601,-0.097731 z M 2.8773116,14.093476 c -0.1945242,0 -0.3970092,0.06982 -0.5471417,0.225912 -0.1553705,0.152471 -0.2259109,0.35598 -0.2259109,0.556025 v 14.16536 c 6.894e-4,0.179358 0.036449,0.366633 0.1068974,0.543092 0.0761,0.190533 0.1881192,0.350519 0.3185372,0.485486 l 8.7741864,8.939247 c 0.308536,0.306322 0.308536,0.810181 0,1.121477 l -8.7741864,8.938161 c -0.1302801,0.1307 -0.2422996,0.298558 -0.3185372,0.484671 -0.070448,0.177024 -0.1063457,0.358663 -0.1068974,0.5423 v 14.166706 c 0,0.199763 0.072609,0.403326 0.2259109,0.553876 0.1501325,0.154263 0.3527554,0.231026 0.5471417,0.231026 H 16.779869 c 0.182253,-0.0043 0.359587,-0.0404 0.538256,-0.10959 0.181979,-0.07417 0.341758,-0.186992 0.476863,-0.325542 L 26.56675,55.67351 c 0.307709,-0.311013 0.796261,-0.310948 1.104246,-0.0022 l 8.770685,8.940855 c 0.13028,0.13855 0.291564,0.251376 0.477402,0.325543 0.178532,0.06917 0.356473,0.105549 0.535833,0.109589 h 13.906326 c 0.19287,0 0.394351,-0.07677 0.548758,-0.231026 0.151924,-0.15068 0.22618,-0.354113 0.22618,-0.553875 V 50.095717 c -0.0056,-0.185982 -0.04245,-0.365145 -0.109589,-0.542299 -0.07596,-0.186113 -0.192107,-0.356176 -0.32473,-0.484943 l -8.773649,-8.938161 c -0.302607,-0.311296 -0.302607,-0.814883 0,-1.121206 l 8.773649,-8.939247 c 0.132761,-0.134967 0.248906,-0.295094 0.32473,-0.485485 0.06714,-0.176459 0.107657,-0.363734 0.109589,-0.543093 V 14.878616 c 0,-0.202933 -0.07425,-0.406247 -0.22618,-0.558718 -0.154407,-0.156066 -0.355888,-0.225911 -0.548758,-0.225911 H 37.992093 c -0.178118,0 -0.354842,0.03051 -0.5291,0.110393 -0.187079,0.07048 -0.34571,0.18874 -0.478747,0.321503 l -9.317559,9.491233 c -0.303435,0.310047 -0.791959,0.309982 -1.099667,-0.0033 L 17.247578,14.52559 c -0.129591,-0.132763 -0.29111,-0.251191 -0.473364,-0.321504 -0.176602,-0.07981 -0.353479,-0.110403 -0.534217,-0.110403 z m 52.5169444,0 c -0.198936,0 -0.394843,0.06982 -0.545526,0.225912 -0.15413,0.153709 -0.230398,0.35598 -0.234258,0.556025 v 49.3865 c 0.0039,0.199763 0.08013,0.403055 0.234258,0.553604 0.150683,0.154264 0.34659,0.231026 0.545526,0.231026 h 33.602067 c 0.174947,-0.0043 0.353307,-0.0404 0.529908,-0.109589 0.188045,-0.07417 0.345939,-0.186993 0.474978,-0.325543 l 9.589783,-9.76588 c 0.123524,-0.129309 0.2254,-0.287721 0.298881,-0.465016 C 99.965007,54.194261 100,54.003099 100,53.809949 V 25.324141 c 0,-0.191075 -0.03499,-0.380891 -0.110127,-0.569762 -0.07348,-0.178675 -0.175357,-0.336163 -0.298881,-0.463127 L 90.001209,14.525644 C 89.872032,14.392881 89.714276,14.27556 89.526231,14.203869 89.349768,14.124055 89.17127,14.093476 88.996323,14.093476 Z" /></svg>
