<?xml version="1.0" encoding="UTF-8" standalone="no"?>
<svg
   width="95.915352"
   height="100.03739"
   viewBox="0 0 95.91535 100.03739"
   version="1.1"
   id="svg2"
   sodipodi:docname="Distrito Comedia.svg"
   inkscape:version="1.4.4 (dcaf3e7, 2026-05-05)"
   xmlns:inkscape="http://www.inkscape.org/namespaces/inkscape"
   xmlns:sodipodi="http://sodipodi.sourceforge.net/DTD/sodipodi-0.dtd"
   xmlns="http://www.w3.org/2000/svg"
   xmlns:svg="http://www.w3.org/2000/svg">
  <defs
     id="defs2" />
  <sodipodi:namedview
     id="namedview2"
     pagecolor="#ffffff"
     bordercolor="#000000"
     borderopacity="0.25"
     inkscape:showpageshadow="2"
     inkscape:pageopacity="0.0"
     inkscape:pagecheckerboard="0"
     inkscape:deskcolor="#d1d1d1"
     showguides="true"
     inkscape:zoom="5.6568543"
     inkscape:cx="66.998367"
     inkscape:cy="51.000076"
     inkscape:window-width="1920"
     inkscape:window-height="974"
     inkscape:window-x="-11"
     inkscape:window-y="-11"
     inkscape:window-maximized="1"
     inkscape:current-layer="svg2" />
  <path
     id="path2"
     style="display:inline;opacity:1;fill:#10e900;fill-opacity:1;fill-rule:evenodd;stroke-width:2.49255"
     d="M 43.580078,0 C 39.787012,0 36.712891,3.0741215 36.712891,6.8671875 V 25.617188 A 25.223989,25.223989 0 0 0 25.22461,22.84961 25.223989,25.223989 0 0 0 0,48.072266 25.223989,25.223989 0 0 0 25.22461,73.296875 25.223989,25.223989 0 0 0 49.449219,55.105469 25.223989,25.223989 0 0 0 73.671875,73.296875 25.223989,25.223989 0 0 0 94.78125,61.88086 c 2.06891,-3.107142 1.228232,-7.302183 -1.878906,-9.371094 -3.107142,-2.068914 -7.304139,-1.228236 -9.373047,1.878906 a 11.705744,11.705744 0 0 1 -9.857422,5.390625 11.705744,11.705744 0 0 1 -11.705078,-11.707031 11.705744,11.705744 0 0 1 11.705078,-11.705078 11.705744,11.705744 0 0 1 9.857422,5.390625 c 2.068908,3.107142 6.263952,3.949773 9.371094,1.880859 3.107138,-2.068911 3.949769,-6.265905 1.880859,-9.373047 A 25.223989,25.223989 0 0 0 73.671875,22.84961 25.223989,25.223989 0 0 0 50.449219,38.230469 V 6.8671875 C 50.449219,3.0741215 47.373144,0 43.580078,0 Z M 25.22461,36.367188 A 11.705744,11.705744 0 0 1 36.929688,48.072266 11.705744,11.705744 0 0 1 25.22461,59.779297 11.705744,11.705744 0 0 1 13.519532,48.072266 11.705744,11.705744 0 0 1 25.22461,36.367188 Z m -15.8574225,37.6875 a 6.8681502,6.8681502 0 0 0 -1.7871094,0.148437 6.8681502,6.8681502 0 0 0 -4.3164062,3 6.8681502,6.8681502 0 0 0 2.0664062,9.490235 c 27.6959689,17.79205 57.5598909,17.79205 85.2558599,0 a 6.8681502,6.8681502 0 0 0 2.066406,-9.490235 6.8681502,6.8681502 0 0 0 -9.490234,-2.066406 c -24.192326,15.541287 -46.215878,15.541287 -70.408203,0 A 6.8681502,6.8681502 0 0 0 9.3671875,74.054688 Z" />
</svg>
