<?xml version="1.0" encoding="UTF-8" standalone="no"?>
<svg
   width="96.382965"
   height="100"
   viewBox="0 0 96.382963 100"
   version="1.1"
   id="svg2"
   sodipodi:docname="Distrito Comedia.svg"
   inkscape:version="1.4.2 (f4327f4, 2025-05-13)"
   xmlns:inkscape="http://www.inkscape.org/namespaces/inkscape"
   xmlns:sodipodi="http://sodipodi.sourceforge.net/DTD/sodipodi-0.dtd"
   xmlns="http://www.w3.org/2000/svg"
   xmlns:svg="http://www.w3.org/2000/svg">
  <defs
     id="defs2" />
  <sodipodi:namedview
     id="namedview2"
     pagecolor="#ffffff"
     bordercolor="#000000"
     borderopacity="0.25"
     inkscape:showpageshadow="2"
     inkscape:pageopacity="0.0"
     inkscape:pagecheckerboard="0"
     inkscape:deskcolor="#d1d1d1"
     showguides="false"
     inkscape:zoom="4.6815286"
     inkscape:cx="50.19728"
     inkscape:cy="34.070068"
     inkscape:window-width="1920"
     inkscape:window-height="974"
     inkscape:window-x="-11"
     inkscape:window-y="-11"
     inkscape:window-maximized="1"
     inkscape:current-layer="svg2">
    <sodipodi:guide
       position="23.893665,-170.74559"
       orientation="0,-1"
       id="guide2"
       inkscape:locked="false" />
    <sodipodi:guide
       position="157.67527,-19.604149"
       orientation="1,0"
       id="guide1"
       inkscape:locked="false" />
    <sodipodi:guide
       position="115.08227,20.456451"
       orientation="1,0"
       id="guide3"
       inkscape:locked="false" />
  </sodipodi:namedview>
  <path
     id="path1"
     d="M 43.529858,1.0264358e-4 C 40.131123,0.01890508 36.732265,2.115474 36.732265,5.8725542 V 25.38882 C 30.983436,22.484552 23.88093,21.734408 17.365617,23.85525 2.8052882,28.594891 -4.0455516,45.186072 2.4725095,58.984653 c 1.1220193,2.37504 5.0376333,7.508385 7.3555374,8.833627 l 0.092266,0.1166 c 4.2279891,2.971272 7.8098671,4.543436 13.1538121,5.005927 8.466285,0.732844 16.598381,-2.925475 21.92011,-9.554895 1.513244,-1.885091 4.056866,-6.550182 4.213584,-8.83425 0.692625,1.347585 1.246072,3.286091 1.995513,4.756564 2.146503,4.173627 5.611159,7.832593 9.631582,10.259974 5.698685,3.440467 13.145318,4.321557 19.545566,2.587118 5.242892,-1.420671 9.988721,-4.623006 13.236723,-8.978248 1.838491,-2.465047 2.793836,-4.488128 1.913851,-7.642932 -0.896903,-2.930726 -3.754063,-4.569077 -6.749591,-4.389379 -4.125433,0.247362 -4.839308,2.786703 -7.306908,5.309526 -1.178741,1.205236 -3.049831,2.160192 -4.653084,2.621413 -2.816786,0.86722 -6.285522,0.449329 -8.849834,-1.00742 -2.546119,-1.446541 -4.81053,-4.289225 -5.606892,-7.139845 -0.899455,-3.218952 -0.409829,-6.093368 1.196935,-8.982618 1.466644,-2.586336 3.889441,-4.494563 6.74772,-5.313262 4.595909,-1.29876 9.223648,0.03565 12.212473,3.74354 1.158951,1.427068 2.128366,3.269963 3.867592,4.11197 6.668999,3.229806 12.741433,-3.833279 8.685256,-10.098518 -10.183518,-15.73036 -33.146917,-15.642037 -42.991145,0.372178 -0.65943,1.072764 -1.17266,2.290869 -1.756126,3.413753 V 6.5944821 c 0,-4.5538759 -3.398854,-6.61312084 -6.797589,-6.59435503768 z M 25.415001,36.18243 c 5.899068,0.113425 10.874326,4.671086 11.382723,10.6764 0.542291,6.405683 -4.201818,12.042274 -10.605962,12.601476 -6.428017,0.56113 -12.090246,-4.204713 -12.634516,-10.634009 -0.544302,-6.429614 4.236197,-12.078854 10.667055,-12.606458 0.400438,-0.03284 0.797428,-0.04493 1.1907,-0.03736 z m 62.100951,37.862398 c -0.784493,-0.0098 -1.589855,0.110617 -2.387013,0.374046 -1.489305,0.525699 -3.284551,2.056498 -4.58139,2.912546 -2.046598,1.359391 -4.18595,2.573809 -6.40235,3.633814 -15.470459,7.38109 -33.41626,7.527847 -49.005742,0.402091 -2.667632,-1.192782 -5.488096,-2.835712 -7.924703,-4.451097 -2.68557,-1.780395 -3.414671,-3.03547 -6.897336,-2.857677 -4.0102732,0.473028 -6.4621165,3.926546 -5.9217089,7.874825 0.275806,2.015011 1.6583599,3.521769 3.2311004,4.685505 10.9485665,8.029994 24.6715765,12.707185 38.1803395,13.37013 15.839585,0.243719 31.26238,-3.55134 44.280964,-12.902572 2.594953,-1.58922 4.132411,-3.637257 3.991652,-6.815674 C 93.91509,76.55085 90.915416,74.08518 87.515952,74.044828 Z"
     style="fill:#10e900;fill-opacity:1;stroke-width:0.319182" />
</svg>
