<?xml version="1.0" encoding="UTF-8" standalone="no"?>
<svg
   width="100mm"
   height="89.609322mm"
   viewBox="0 0 100 89.609322"
   version="1.1"
   id="svg8"
   inkscape:version="1.4.2 (f4327f4, 2025-05-13)"
   sodipodi:docname="DPelícula_2021.svg"
   xmlns:inkscape="http://www.inkscape.org/namespaces/inkscape"
   xmlns:sodipodi="http://sodipodi.sourceforge.net/DTD/sodipodi-0.dtd"
   xmlns="http://www.w3.org/2000/svg"
   xmlns:svg="http://www.w3.org/2000/svg"
   xmlns:rdf="http://www.w3.org/1999/02/22-rdf-syntax-ns#"
   xmlns:cc="http://creativecommons.org/ns#"
   xmlns:dc="http://purl.org/dc/elements/1.1/">
  <defs
     id="defs2" />
  <sodipodi:namedview
     id="base"
     pagecolor="#ffffff"
     bordercolor="#666666"
     borderopacity="1.0"
     inkscape:pageopacity="0.0"
     inkscape:pageshadow="2"
     inkscape:zoom="1.9446875"
     inkscape:cx="188.97638"
     inkscape:cy="188.97638"
     inkscape:document-units="mm"
     inkscape:current-layer="svg8"
     inkscape:document-rotation="0"
     showgrid="false"
     inkscape:window-width="1920"
     inkscape:window-height="974"
     inkscape:window-x="-11"
     inkscape:window-y="-11"
     inkscape:window-maximized="1"
     inkscape:showpageshadow="2"
     inkscape:pagecheckerboard="0"
     inkscape:deskcolor="#d1d1d1" />
  <metadata
     id="metadata5">
    <rdf:RDF>
      <cc:Work
         rdf:about="">
        <dc:format>image/svg+xml</dc:format>
        <dc:type
           rdf:resource="http://purl.org/dc/dcmitype/StillImage" />
      </cc:Work>
    </rdf:RDF>
  </metadata>
  <path
     style="fill:#ffffff;stroke-width:0.078125"
     d="M 0,44.80466 V 0 H 49.999912 100 V 44.80466 89.609321 H 49.999912 0 Z m 22.031216,32.578062 v -8.398418 h -8.04678 -8.0469552 v 8.398418 8.398417 h 8.0469552 8.04678 z M 60.590449,75.95494 c 4.651302,-0.46113 7.608988,-1.054211 10.759162,-2.157202 3.429519,-1.200726 6.34053,-2.791869 8.963073,-4.899062 2.123687,-1.706425 5.28667,-4.727454 6.192084,-5.914319 2.719752,-3.564629 3.840991,-6.127688 4.774656,-10.9141 0.689062,-3.531465 0.867513,-5.521622 0.807503,-9.002202 -0.03158,-1.851361 -0.07721,-2.646406 -0.200209,-3.458646 C 91.150806,34.725788 89.351032,30.16608 86.829735,26.797975 85.632342,25.19841 83.44882,22.849071 82.459006,22.095261 81.210553,21.144401 78.898062,19.597477 77.471859,18.759091 73.999877,16.717874 69.845676,15.384318 64.80466,14.692624 61.580088,14.25027 62.23353,14.266413 46.581974,14.239215 L 32.109387,14.21465 v 30.981479 30.98148 l 13.378896,-0.02632 c 13.08376,-0.02456 13.416798,-0.02983 15.102166,-0.196348 z M 52.421895,44.953282 V 32.094121 l 3.339855,0.03685 c 3.567963,0.04036 4.011721,0.07721 5.722532,0.497452 1.113168,0.273027 2.12281,0.644844 3.242295,1.194234 3.863451,1.896281 6.494767,5.108921 7.318764,8.935875 0.246181,1.143173 0.246181,3.261245 0,4.404418 -0.704153,3.27037 -2.745721,6.123828 -5.804301,8.11258 -1.436555,0.934016 -3.652889,1.815566 -5.481791,2.180364 -1.476386,0.294435 -2.433563,0.356375 -5.499513,0.356375 h -2.837841 z m -30.390679,11.02324 v -8.398417 h -8.04678 -8.0469552 v 8.398417 8.398418 h 8.0469552 8.04678 z m 0,-22.031215 v -8.398418 h -8.04678 -8.0469552 v 8.398418 8.398417 h 8.0469552 8.04678 z m 0.07721,-22.031216 V 3.5156737 h -8.04678 -8.0469553 v 8.3984173 8.398417 h 8.0469553 8.04678 z"
     id="path831"
     sodipodi:nodetypes="ccccccccccccccccccsssssscssssscccssccssssssssccccccccccccccccccccccccccccc" />
</svg>
