<?xml version="1.0" encoding="UTF-8" standalone="no"?>
<svg
   width="100"
   height="100"
   viewBox="0 0 100 100"
   fill="none"
   version="1.1"
   id="svg144"
   sodipodi:docname="favicon.svg"
   inkscape:version="1.4.2 (f4327f4, 2025-05-13)"
   xmlns:inkscape="http://www.inkscape.org/namespaces/inkscape"
   xmlns:sodipodi="http://sodipodi.sourceforge.net/DTD/sodipodi-0.dtd"
   xmlns="http://www.w3.org/2000/svg"
   xmlns:svg="http://www.w3.org/2000/svg">
  <sodipodi:namedview
     id="namedview144"
     pagecolor="#ffffff"
     bordercolor="#000000"
     borderopacity="0.25"
     inkscape:showpageshadow="2"
     inkscape:pageopacity="0.0"
     inkscape:pagecheckerboard="0"
     inkscape:deskcolor="#d1d1d1"
     inkscape:zoom="7.35"
     inkscape:cx="49.931973"
     inkscape:cy="50"
     inkscape:window-width="1920"
     inkscape:window-height="974"
     inkscape:window-x="-11"
     inkscape:window-y="-11"
     inkscape:window-maximized="1"
     inkscape:current-layer="svg144" />
  <g
     clip-path="url(#clip0_10411_41074)"
     id="g144"
     transform="matrix(0.59259259,0,0,0.59259259,-3.3333332,-3.3333332)">
    <path
       d="m 18.552,131.878 c 0,0.113 0,0.248 0,0.36 -0.4724,0.135 -0.9449,0.27 -1.3723,-0.09 0.27,-0.09 0.5399,-0.157 0.8099,-0.247 0.18,-0.203 0.3599,-0.203 0.5624,-0.023 z"
       fill="#aca519"
       id="path1" />
    <path
       d="m 161.975,130.416 c 0.135,0.292 0.27,0.562 0.405,0.855 -0.652,0.315 -0.922,-0.27 -1.327,-0.563 -1.732,-1.282 -3.104,-2.969 -4.858,-4.252 -3.351,-3.014 -6.59,-6.186 -10.031,-9.111 -0.765,-0.63 -1.53,-0.81 -2.519,-0.652 -2.474,0.36 -4.948,0.81 -7.422,1.08 -4.341,0.495 -7.332,2.902 -9.671,6.344 -0.338,0.495 -0.518,1.057 -0.315,1.642 0.337,0.99 0,1.8 -0.607,2.542 -1.148,1.418 -1.912,3.127 -3.172,4.455 -2.136,2.227 -4.903,2.924 -7.827,3.262 -3.148,0.337 -6.297,0.742 -9.378,1.619 -1.8,0.495 -3.194,1.755 -4.903,2.408 -3.0141,1.124 -5.9155,2.587 -9.2891,2.384 -1.7094,-0.112 -3.3287,-0.472 -4.9481,-0.967 -2.5864,-0.787 -5.0604,-1.845 -7.6469,-2.655 -0.5398,-0.18 -1.1021,-0.36 -1.4169,-0.922 -0.2699,-0.945 -0.045,-1.755 0.7197,-2.407 0.8321,-0.36 1.5968,0.022 2.384,0.202 3.5986,0.878 7.1747,1.867 10.9307,1.822 4.0483,-0.045 7.6019,-1.462 10.9526,-3.622 0.158,-0.112 -0.022,0.045 0.113,-0.09 0.742,-0.607 1.709,-1.214 1.462,-2.294 -0.248,-1.035 -1.372,-1.058 -2.249,-1.26 -1.237,-0.27 -2.4743,-0.27 -3.7338,-0.27 -0.8771,0 -1.8442,-0.023 -2.1141,-1.08 -0.2474,-1.08 -0.4723,-2.227 0.7422,-2.969 0.1574,-0.113 0.2924,-0.225 0.2924,-0.563 -0.7872,-0.472 -1.6419,0.068 -2.474,0 -2.2941,0.585 -4.2958,0.045 -6.275,-1.237 -1.5294,-0.99 -3.3737,-1.373 -5.038,-2.16 -0.6523,-0.315 -2.0917,-0.405 -1.0571,-1.327 2.1816,0.585 2.8564,0.607 5.5778,0.99 2.0242,0.112 3.1937,0.022 4.6781,0.247 2.0017,0.293 4.0034,0.517 5.8926,1.237 0.6073,0.225 1.2146,0.36 1.8443,0.18 1.7546,-0.517 3.4866,0.225 5.2406,0.045 0.405,0.698 -0.248,0.833 -0.607,1.035 -0.495,0.293 -1.08,0.383 -1.372,0.338 1.147,-0.113 2.519,-0.405 3.868,-0.765 4.993,-1.283 9.829,-3.082 14.529,-5.197 1.71,-0.765 3.419,-1.462 4.993,-2.565 3.126,-2.249 4.701,-5.556 6.208,-8.886 0.63,-1.395 1.372,-2.767 1.956,-4.184 0.18,-0.45 0.428,-0.855 0.945,-1.035 2.204,-0.09 4.183,0.945 6.275,1.372 1.057,0.382 2.159,0.54 3.216,0.9 0.45,0.225 1.035,0.202 1.26,0.787 -0.787,2.992 0.135,5.625 1.912,7.964 3.373,4.432 7.039,8.662 10.57,12.958 1.147,1.418 2.182,2.925 3.284,4.365 z"
       fill="#f2911a"
       id="path2" />
    <path
       d="m 17.1349,48.2569 c -0.0225,-0.09 -0.045,-0.18 -0.09,-0.27 2.1816,-0.1575 4.3633,-0.4949 6.5224,0.2475 0.5848,0.2025 1.237,0.18 1.8668,0.18 4.1608,-0.09 8.2542,0.4049 12.3925,0.7649 2.6315,0.2249 5.2854,0.2924 7.9168,-0.18 0.4274,-0.0675 0.8547,-0.18 1.282,-0.18 0.5623,0 1.3045,-0.1125 1.3945,0.6524 0.0899,0.6749 -0.5398,0.9899 -1.1021,1.1474 -1.8218,0.4724 -3.756,0.2924 -5.5778,0.7424 -3.5086,0.8549 -6.8597,-0.1125 -10.0534,-0.6524 0.9896,0.4049 2.2041,0.5849 3.4411,0.6749 2.0917,0.1799 3.3511,1.6422 4.1383,3.4195 0.9671,2.1822 2.2716,4.117 3.6886,6.0067 0.4273,0.5849 0.9221,1.1249 1.5069,1.5523 1.2819,0.9449 2.2491,0.9224 3.5535,0 2.0917,-1.5073 3.7785,-3.4195 5.4204,-5.3543 1.3044,-1.5523 1.192,-2.0247 -0.3599,-3.307 -0.8097,-0.6749 -1.5969,-1.3949 -2.3166,-2.1822 -0.3823,-0.405 -0.8546,-0.8099 -0.7647,-1.4848 2.7664,-2.4522 3.5986,-5.5568 3.1713,-9.1338 -0.7422,-5.8717 -2.6315,-11.451 -4.0709,-17.1427 -0.4948,-1.8898 -1.282,-3.7345 -1.1245,-5.7592 0.7422,-0.27 0.8771,0.4049 1.1245,0.8098 1.7543,2.8347 2.9913,5.9392 4.6331,8.8189 2.6315,4.6343 4.5657,9.5612 5.7802,14.758 0.135,0.5624 0.3149,1.1023 0.6073,1.6198 0.5848,1.0798 1.4394,1.6422 2.7214,1.4623 3.6885,-0.5175 7.2871,-1.4173 10.9081,-2.2047 1.5519,-0.3375 2.9913,-1.0349 4.3633,-1.8448 3.3287,-1.9572 6.8598,-3.2621 10.8182,-3.0821 1.5968,0.0675 3.1712,0.405 4.6781,0.8324 3.0588,0.8549 6.0501,1.9573 9.0637,2.9471 0.405,0.4275 0.203,0.8774 0.068,1.3273 -0.18,0.3375 -0.293,0.7199 -0.63,0.9674 -0.54,0.225 -1.035,0 -1.552,-0.135 -1.7318,-0.4499 -3.4186,-0.9898 -5.1504,-1.4398 -4.8131,-1.2373 -9.5362,-1.0573 -14.1469,0.8999 -3.6435,1.5523 -7.4445,2.6096 -11.178,3.9145 -4.2958,1.5298 -7.8943,3.892 -10.4808,7.7614 -2.384,3.5546 -5.1279,6.8616 -7.3321,10.5511 -1.8442,3.0821 -2.4965,6.4341 -2.6089,9.9437 -0.0675,2.1822 -0.135,2.3172 -2.2266,2.8346 -2.609,-0.2475 -5.128,-0.8549 -7.512,-2.0022 C 39.4909,75.9957 39.311,75.2308 39.5134,74.3759 40.503,70.1015 39.1986,66.2995 37.0619,62.6775 35.3751,59.8203 33.0585,57.7281 30.1347,56.1308 26.0863,53.9261 22.1954,51.384 18.147,49.1568 17.7646,48.8418 17.5172,48.4819 17.1349,48.2569 Z"
       fill="#b22f89"
       id="path3" />
    <path
       d="m 102.447,43.3525 c 0.068,-0.3825 0.158,-0.7649 0.225,-1.1699 -0.225,-0.4274 -0.045,-0.7199 0.27,-0.9898 1.282,-0.4275 2.452,0.2249 3.689,0.3149 3.036,0.2475 6.005,0.7874 8.794,2.1597 1.619,0.7874 3.103,1.7773 4.385,3.0146 2.317,2.2497 4.229,4.8594 6.05,7.5365 1.012,1.4848 2.474,2.4072 3.801,3.5095 2.407,2.0023 4.791,4.0495 7.242,5.9842 1.845,1.4623 2.542,1.5298 4.521,0.18 1.417,-0.9674 2.767,-1.7323 4.656,-1.4173 1.394,0.225 2.474,-0.9224 3.441,-1.8672 2.541,-2.4972 5.083,-5.0169 7.557,-7.5815 1.304,-1.3498 2.811,-2.4972 4.161,-3.802 0.292,-0.2925 0.607,-0.6524 1.124,-0.3825 -0.202,0.3825 -0.427,0.7424 -0.629,1.1249 -4.341,5.8942 -8.929,11.5859 -13.608,17.2102 -1.461,1.7547 -2.159,3.487 -1.057,5.6692 0.315,0.6299 0.338,1.3048 0.045,1.9572 -1.102,0.9899 -2.564,1.0349 -3.868,1.4398 -1.754,0.54 -1.957,0.8549 -1.17,2.5422 0.923,1.9573 2.294,3.3746 4.431,4.072 2.474,0.8099 4.656,2.3396 7.175,3.0146 4.475,1.1923 9.086,1.6197 13.629,2.4521 2.317,0.4275 4.701,0.495 6.86,1.5748 0.068,0.045 0.135,0.09 0.202,0.135 -0.134,0.0675 -0.247,0.135 -0.382,0.2025 -2.204,0.7874 -4.521,0.9448 -6.792,1.2148 -3.981,0.4724 -7.917,1.1024 -11.875,1.6423 -2.902,0.3824 -5.556,1.6198 -8.052,3.1046 -2.182,1.2823 -3.599,3.2845 -4.386,5.7371 -0.225,0.697 -0.292,1.552 -1.147,1.912 -2.114,-0.495 -4.206,-0.99 -6.32,-1.485 -0.27,-0.112 -0.63,-0.022 -0.787,-0.36 -0.292,-0.967 0.247,-1.71 0.72,-2.4071 2.519,-3.712 2.878,-7.7389 2.114,-12.0584 -0.607,-3.4645 -1.642,-6.839 -2.069,-10.3486 -0.158,-1.3048 -0.18,-2.5871 -0.315,-3.8919 -0.428,-4.252 -2.407,-7.694 -5.263,-10.6861 -3.531,-3.6895 -7.152,-7.2665 -10.481,-11.181 -2.856,-3.3746 -6.747,-5.3993 -11.178,-6.2092 -1.462,-0.2699 -2.946,-0.5624 -4.386,-0.8999 -0.517,-0.1574 -1.259,-0.1124 -1.327,-0.9673 z"
       fill="#da0b1e"
       id="path4" />
    <path
       d="m 131.013,17.5486 c 0.36,-0.2024 0.719,-0.4049 1.079,-0.6074 0.068,0.405 0.18,0.8099 0.18,1.2149 -0.022,8.9538 0.023,17.9301 -0.18,26.8838 -0.045,2.4297 0.608,2.9471 2.969,2.9022 8.952,-0.225 17.925,-0.18 26.877,-0.225 0.382,0 1.822,-0.4949 0.697,0.8549 -0.99,0.2024 -1.597,1.0123 -2.406,1.5523 -4.341,2.8571 -8.592,5.8492 -12.955,8.6838 -1.89,1.2373 -4.004,2.0472 -5.915,3.2846 -1.845,1.1923 -3.801,0.6974 -5.421,-0.495 -2.541,-1.9122 -5.195,-3.6445 -7.714,-5.6017 -2.114,-1.6423 -3.531,-3.937 -5.128,-6.0292 -1.889,-2.4972 -3.914,-4.9044 -6.208,-7.0191 -2.586,-2.3622 -2.361,-4.2969 -0.247,-6.5916 1.934,-2.1147 3.621,-4.3644 5.33,-6.6141 2.857,-3.757 5.623,-7.5815 8.524,-11.2935 0.248,-0.2699 0.473,-0.5399 0.518,-0.8999 z"
       fill="#e4122e"
       id="path5" />
    <path
       d="m 131.015,17.5485 c 0.652,0.6524 -0.023,1.0348 -0.337,1.4398 -3.442,4.6118 -6.883,9.2012 -10.391,13.7681 -1.26,1.6423 -2.722,3.0821 -3.981,4.7244 -1.26,1.6423 -1.17,3.217 0.45,4.7018 3.891,3.5321 6.859,7.8515 10.121,11.9459 1.259,1.5523 3.103,2.7222 4.835,3.802 2.024,1.2824 3.599,3.1496 5.915,4.0495 1.53,0.6074 2.789,0.225 4.094,-0.4725 6.679,-3.5995 12.752,-8.1439 19.117,-12.2383 0.562,-0.36 1.102,-0.7874 1.844,-0.6974 -0.09,0.09 -0.18,0.18 -0.292,0.2925 -4.453,3.622 -8.277,7.8964 -12.393,11.8784 -1.462,1.4173 -2.924,2.7221 -5.308,2.0697 -1.259,-0.3375 -2.204,0.8774 -3.126,1.5748 -1.799,1.3498 -3.306,1.0798 -4.925,-0.27 -3.082,-2.5872 -6.365,-4.9718 -9.289,-7.7165 -1.844,-1.7097 -3.351,-3.802 -4.768,-5.8942 -3.801,-5.6467 -9.312,-8.0314 -15.856,-8.5938 -1.237,-0.1125 -2.452,-0.3825 -3.689,-0.5624 -0.112,-0.09 -0.202,-0.225 -0.225,-0.3825 -0.112,-0.7649 0.36,-1.4173 0.428,-2.1597 0.404,-1.6198 0.764,-3.2396 1.259,-4.8144 0.157,-0.4949 0.247,-1.0348 0.697,-1.3723 1.26,-0.4949 2.677,-0.2249 3.959,-0.6524 2.271,-0.7424 4.228,-2.0472 6.162,-3.397 3.329,-2.3397 6.59,-4.7919 9.874,-7.2215 0.989,-0.7424 2.159,-1.2374 2.991,-2.1598 0.922,-0.5624 1.867,-1.1023 2.834,-1.6422 z"
       fill="#e30623"
       id="path6" />
    <path
       d="m 102.969,41.0128 c 0.023,0.1125 0.045,0.2025 0.045,0.315 -0.112,0.2924 -0.225,0.5849 -0.36,0.8549 -2.316,-0.09 -4.3854,-1.0799 -6.4771,-1.8898 -6.7473,-2.5871 -12.9098,-1.7097 -19.0723,2.0472 -3.8685,2.3397 -8.6141,2.4747 -13.0223,3.2621 -3.5536,0.6299 -4.3408,-0.0675 -5.2854,-4.2069 -1.9792,-8.5714 -6.6573,-15.9054 -10.7282,-23.5094 -0.1125,-0.0675 -0.2024,-0.1574 -0.2474,-0.2924 0.1349,-0.54 0.5173,-0.2475 0.8322,-0.225 2.4515,2.8346 4.4982,5.9842 6.8147,8.9313 0.9222,1.1698 1.6869,2.4522 2.6765,3.577 1.7767,2.0697 2.7888,4.5894 3.8009,7.0866 1.372,3.352 3.7335,4.7468 7.3546,4.3419 1.6643,-0.18 3.3512,-0.1125 5.0155,-0.4949 1.5519,-0.36 1.7768,-0.7649 1.4844,-2.3397 -0.2249,-1.1924 -1.0571,-2.3172 -0.5848,-3.622 0.135,-0.135 0.2924,-0.27 0.4723,-0.3375 3.6886,-1.2598 5.6903,-4.027 6.9273,-7.5815 1.8667,-5.4218 3.5536,-10.8885 5.2629,-16.3553 0.3823,-1.19233 0.8096,-2.36217 1.2595,-3.53201 0.1349,-0.24747 0.2699,-0.49494 0.3823,-0.7424 0.9671,0.42744 0.6298,1.28233 0.5623,1.97973 -0.4948,4.70188 -1.3045,9.33628 -1.7768,14.03808 -0.2699,2.7222 -0.9221,5.3993 -1.0571,8.1664 -0.0899,1.9798 0.8097,3.1721 2.429,4.027 1.4395,0.7874 2.9464,1.4173 4.4533,2.0697 2.5864,1.1474 5.0829,2.5422 7.7597,3.5096 0.449,0.2249 0.877,0.4049 1.079,0.9223 z"
       fill="#b6358b"
       id="path7" />
    <path
       d="m 91.1776,172.463 c -0.3599,0.63 -0.7422,1.282 -1.1021,1.912 -0.2024,-0.292 -0.4048,-0.562 -0.6072,-0.855 -1.7768,-5.489 -2.7214,-11.203 -4.2058,-16.76 -0.4049,-1.462 -0.8997,-2.857 -1.8218,-4.05 -1.3045,-1.732 -2.609,-3.442 -3.8235,-5.241 -0.9896,-1.485 -2.6539,-2.025 -4.0484,-2.947 -0.1124,-0.113 -0.2024,-0.225 -0.2474,-0.383 -0.0899,-0.225 -0.1124,-0.45 -0.1124,-0.675 0,-0.225 0.0675,-0.45 0.1349,-0.675 0.18,-0.36 0.4049,-0.652 0.8322,-0.742 2.1366,0.337 4.0484,1.237 5.6677,2.655 1.4844,1.304 3.0138,2.564 4.5207,3.824 1.3045,1.08 2.8114,1.867 4.4757,2.272 3.0588,0.72 5.7577,-0.315 7.512,-2.947 1.0571,-1.597 2.2268,-3.194 4.0258,-3.959 0.36,-0.158 0.675,-0.248 0.877,-0.585 1.575,-2.542 4.251,-2.115 6.59,-1.8 3.441,0.472 6.635,1.957 9.919,3.06 1.731,0.585 3.058,1.799 3.958,3.419 2.159,3.915 4.701,7.627 6.86,11.541 0.36,0.652 0.967,1.26 0.607,2.115 -0.652,0.27 -0.99,-0.225 -1.304,-0.608 -3.014,-3.689 -6.118,-7.311 -9.177,-10.956 -1.484,-1.777 -3.171,-3.172 -5.353,-4.027 -1.259,-0.495 -2.496,-1.034 -3.688,-1.642 -1.709,-0.877 -3.509,-0.922 -5.353,-0.832 -0.675,0.045 -1.214,0.292 -1.462,0.99 -0.112,0.315 -0.247,0.652 -0.517,0.854 -1.934,1.62 -3.284,3.735 -4.8357,5.67 -1.5744,1.979 -2.8564,4.004 -3.6211,6.479 -1.5744,4.994 -3.1712,9.921 -4.7006,14.893 z"
       fill="#c26c16"
       id="path8" />
    <path
       d="m 131.075,161.664 c -1.867,-4.229 -4.948,-7.807 -6.837,-11.991 -2.317,-5.152 -7.31,-5.444 -11.583,-7.042 -1.642,-0.607 -3.419,-1.214 -5.331,-0.809 -3.441,0.719 -6.23,2.834 -7.939,5.444 -3.8684,5.917 -9.7161,4.612 -13.697,1.282 -2.9463,-2.497 -5.6452,-5.399 -9.6261,-6.299 -0.2025,-0.18 -0.2474,-0.405 -0.2474,-0.652 0.0449,-0.428 0.2474,-0.765 0.6972,-0.9 1.8217,0.135 3.3961,0.99 4.948,1.845 2.4965,1.349 4.7456,3.127 7.3995,4.206 2.0692,0.833 4.0934,0.9 6.1401,-0.067 1.2145,-0.585 2.3615,-1.282 3.4411,-2.092 1.0796,-0.81 2.2266,-1.53 3.4866,-2.047 0.404,-0.158 0.877,-0.293 1.102,-0.653 1.214,-1.935 3.216,-1.912 5.128,-2.025 2.968,-0.157 5.847,0.36 8.704,1.058 2.024,0.495 4.07,0.697 6.14,0.675 1.417,-0.023 2.631,-0.383 3.688,-1.35 1.035,-0.945 1.754,-0.743 2.227,0.607 0.517,1.463 0.584,3.015 0.809,4.545 0.585,3.599 1.012,7.221 1.935,10.753 0.382,1.53 0.225,3.127 0.517,4.657 0,0.675 0,1.35 0,2.025 -0.652,-0.09 -1.17,-0.338 -1.102,-1.17 z"
       fill="#d67810"
       id="path9" />
    <path
       d="m 50.0881,50.0115 c 1.3044,1.2598 2.5864,2.5646 3.9584,3.7795 0.9671,0.8549 1.192,1.5973 0.3598,2.6771 -1.9342,2.5197 -4.0484,4.9268 -6.7023,6.6366 -2.2041,1.4173 -3.7335,-0.3374 -4.948,-1.9122 -1.5069,-1.9573 -2.9238,-4.0045 -3.891,-6.3667 -0.7871,-1.9122 -2.2266,-3.352 -4.6556,-3.1045 -1.5069,0.1349 -2.6539,-0.8999 -4.3408,-1.3724 2.7664,-0.2474 5.083,0.8099 7.4221,0.7649 3.4186,-0.0675 6.8147,-0.6074 10.2109,-1.0123 0.3149,-0.045 0.8546,-0.225 0.6747,-0.7424 -0.0675,-0.1575 -0.6072,-0.2925 -0.8771,-0.225 -7.7819,1.6648 -15.4963,-0.4949 -23.2557,-0.5399 -2.1817,0 -4.6107,-0.5175 -6.9497,-0.6299 0.4273,-0.09 0.8546,-0.2925 1.2819,-0.27 9.2663,0.045 18.5551,0.09 27.8214,0.2025 1.3045,0.0225 1.7093,-0.3375 1.6868,-1.6648 -0.0674,-5.0843 -0.0225,-10.1911 -0.0225,-15.2755 0.9222,0.3375 0.6973,1.1699 0.7198,1.8223 0.0224,4.8144 0.0449,9.6287 0,14.4431 0,0.2474 -0.0225,0.4724 0.0674,0.6974 0.4049,0.7424 1.2595,1.1698 1.4395,2.0922 z"
       fill="#b7368c"
       id="path10" />
    <path
       d="m 75.2583,34.9387 c 0.1349,0.5625 0.2474,1.1249 0.4048,1.6648 1.192,4.1395 1.2145,4.2294 -3.0138,4.9044 -2.7889,0.4274 -5.6228,0.3824 -8.3442,-0.5625 -0.9671,-0.3374 -1.6868,-1.1698 -2.0242,-2.1597 -2.5414,-7.4465 -8.0292,-12.9582 -12.37,-19.2349 -0.4948,-0.6974 -0.8547,-1.4848 -1.282,-2.2272 0.7872,0.4499 1.5519,0.8774 2.3391,1.3273 5.4203,4.0945 10.7057,8.3464 16.1935,12.3284 2.3616,1.7097 4.9705,2.9021 7.9843,2.9696 0.3824,0.3149 0.3824,0.6524 0.1125,0.9898 z"
       fill="#bb3d8f"
       id="path11" />
    <path
       d="M 102.97,41.0127 C 98.584,39.0555 94.1758,37.1433 89.8125,35.1185 86.8662,33.7462 86.3264,32.0589 86.8887,28.4819 87.9233,21.6203 88.8004,14.7588 89.7001,7.8747 89.7676,7.37976 89.5651,6.86233 89.4977,6.3449 89.6776,6.09744 89.8575,5.87247 90.0599,5.625 c 0.18,0.31496 0.3599,0.60742 0.5623,0.92238 1.9342,5.96172 3.0588,12.12582 4.8131,18.13252 0.7872,2.7222 1.4394,5.3768 0.8771,8.2339 -0.1799,0.8999 0.3149,1.6423 0.8772,2.3622 1.6643,2.0472 4.0034,2.9246 6.3874,3.757 -0.225,0.6524 -0.427,1.3048 -0.607,1.9797 z"
       fill="#bb3e8f"
       id="path12" />
    <path
       d="m 174.197,89.8946 c -6.995,-1.3045 -14.215,-1.6419 -20.985,-3.846 -3.801,-1.237 -8.051,-2.1367 -10.683,-5.6902 -0.607,-0.8322 -1.034,-1.8443 -1.394,-2.8114 -0.36,-0.9446 0.36,-1.2595 1.079,-1.4844 1.597,-0.4948 3.194,-0.9671 4.768,-1.4619 0.203,-0.18 0.428,-0.18 0.653,-0.0225 8.254,4.7231 16.508,9.4462 24.762,14.1918 0.608,0.3374 1.192,0.7422 1.8,1.1246 z"
       fill="#e41332"
       id="path13" />
    <path
       d="m 103.529,39.0104 c -2.317,0.5624 -8.0068,-3.2171 -7.647,-5.4443 0.8322,-5.1068 -1.3944,-9.5837 -2.3615,-14.3081 -0.8772,-4.2744 -2.4066,-8.3689 -2.9014,-12.73328 4.9031,8.59388 9.8289,17.16518 14.7319,25.75908 0.09,0.0674 0.135,0.1349 0.112,0.2024 -0.022,0.0675 -0.067,0.1125 -0.09,0.1125 -0.63,2.1597 -1.237,4.2969 -1.844,6.4117 z"
       fill="#c64e97"
       id="path14" />
    <path
       d="M 6.02984,90.2363 C 5.89489,90.1688 5.75995,90.1238 5.625,90.0563 5.69247,90.0113 5.73746,89.9438 5.80493,89.8988 6.25475,89.7189 6.74955,89.6739 7.19937,89.5389 11.7201,88.999 16.2857,88.6615 20.8064,88.1216 c 1.4844,-0.18 2.9688,-0.1125 4.4757,-0.0675 0.8997,0.045 1.6869,0.4049 2.3841,0.9674 3.801,3.0371 7.512,6.1866 9.8735,10.5735 0.6973,1.282 1.4844,2.61 1.0346,4.207 -0.1124,0.202 -0.2699,0.382 -0.4048,0.562 -0.4498,0.405 -0.4498,0.99 -0.3149,1.485 0.4948,1.912 0.045,3.712 -0.5848,5.489 -0.5173,1.485 -0.4723,2.97 -0.0449,4.387 0.5622,1.958 0,3.375 -1.7094,4.387 -0.3823,0.225 -0.6522,0.563 -0.9446,0.878 -2.4515,2.002 -5.3079,3.419 -7.8943,5.241 -0.4723,0.338 -0.9222,0.698 -1.372,1.035 -0.4498,0.338 -0.9446,0.743 -1.5519,0.27 -0.0674,-0.765 0.5173,-1.102 0.9897,-1.485 2.0916,-1.709 4.2283,-3.329 6.4324,-4.859 1.9342,-1.305 3.0588,-2.857 2.339,-5.332 -0.4498,-1.529 0.09,-2.969 0.7422,-4.319 1.0796,-2.227 1.9568,-4.477 1.5519,-7.042 0.3149,-1.102 -0.2249,-2.024 -0.8321,-2.789 -1.3495,-1.7325 -2.8339,-3.3748 -5.1055,-3.9147 -0.3374,-0.09 -0.6297,-0.2025 -0.8322,-0.5174 C 28.161,93.8133 27.3063,93.0709 23.5953,92.531 18.8947,91.8561 14.1491,91.5411 9.44847,90.9562 8.23396,90.7987 7.1319,90.4838 6.02984,90.2363 Z"
       fill="#d7ce01"
       id="path15" />
    <path
       d="m 7.28714,89.9213 c -0.4948,0 -0.9896,-0.0225 -1.48441,-0.0225 2.20412,-1.2599 4.38577,-2.4972 6.58987,-3.757 2.2491,-0.8774 4.2733,-2.1822 6.4324,-3.2171 3.4636,-1.6648 6.9273,-3.3071 10.3234,-5.1293 0.9446,-0.4949 1.9117,-0.9899 2.564,-1.8223 0.7197,-0.9223 1.5968,-1.3498 2.7439,-1.2148 0.2249,0 0.4498,0.0225 0.6747,0.0675 0.5398,0.2025 1.2145,0.135 1.4619,0.8549 -1.3719,1.9122 -3.1262,3.262 -5.2629,4.3419 -3.0588,1.5523 -3.4861,4.4769 -1.3269,7.2665 1.4844,1.9123 3.2611,3.5545 4.7905,5.4218 2.3166,2.8121 4.2283,5.8717 5.2629,9.3811 0.3599,1.237 0.1125,1.53 -1.057,1.687 -1.1696,-4.7465 -3.981,-8.436 -7.5795,-11.608 -1.327,-1.1699 -2.564,-2.4747 -3.801,-3.757 -1.1695,-1.1924 -2.4965,-1.6873 -4.1608,-1.3274 -5.128,1.0799 -10.3009,1.8673 -15.47384,2.5647 -0.29238,0.0225 -0.51729,0.1125 -0.69722,0.27 z"
       fill="#e4da06"
       id="path16" />
    <path
       d="m 75.5288,144.296 c 2.0916,0.63 3.5536,2.025 5.0155,3.622 5.7802,6.3 6.3649,14.466 8.2542,22.16 0.2699,1.125 0.9896,2.182 0.6522,3.442 -4.7231,-7.694 -8.5691,-15.86 -12.9098,-23.757 -0.4948,-0.9 -1.2145,-1.687 -1.8443,-2.519 -0.1799,-0.135 -0.2249,-0.315 -0.2474,-0.54 0.0225,-0.27 0.09,-0.54 0.135,-0.788 0.0674,-0.337 0.1799,-0.652 0.2699,-0.99 0.1574,-0.292 0.1799,-0.697 0.6747,-0.63 z"
       fill="#9d5718"
       id="path17" />
    <path
       d="m 131.08,161.664 c 0.382,0.382 0.764,0.787 1.147,1.17 -0.945,0.36 -1.372,-0.518 -2.047,-0.855 -2.047,-1.89 -4.138,-3.712 -6.23,-5.534 -2.249,-1.958 -4.498,-3.915 -6.657,-5.962 -2.699,-2.565 -6.095,-3.802 -9.379,-5.264 -1.417,-0.63 -2.182,-0.158 -2.654,1.26 -0.067,0.225 -0.202,0.427 -0.36,0.607 -1.979,1.147 -2.969,3.082 -3.981,4.994 -2.0464,3.847 -3.8682,7.829 -5.51,11.879 -0.8547,2.069 -2.1142,3.959 -2.8339,6.074 -0.4723,0.81 -0.9221,1.597 -1.3944,2.407 0.0674,-2.655 1.282,-4.994 1.9117,-7.514 1.5519,-6.254 3.8685,-12.148 8.0746,-17.12 1.214,-1.417 2.496,-2.902 3.756,-4.117 1.507,-1.44 4.205,-0.54 6.455,0.09 7.422,2.092 11.403,8.121 15.968,13.521 1.215,1.484 2.474,2.924 3.734,4.364 z"
       fill="#b96617"
       id="path18" />
    <path
       d="m 17.1465,48.2567 c 4.5432,1.9573 8.4791,5.0618 12.8873,7.244 4.993,2.4747 7.7369,6.5692 9.5812,11.496 0.8097,2.1822 0.8996,4.4769 0.4273,6.7941 -0.1799,0.8324 -0.0899,1.7097 -0.1349,2.5871 -0.1125,0.1125 -0.2249,0.18 -0.3824,0.225 -0.8771,0 -1.7543,-0.135 -2.5414,-0.5174 -0.1125,-0.09 -0.225,-0.2025 -0.2924,-0.315 -0.3149,-0.6749 -0.3599,-1.3948 -0.2024,-2.1147 0.3373,-1.4623 0.1349,-2.8571 -0.3599,-4.2519 -1.372,-3.9145 -3.6435,-7.1316 -6.8148,-9.8312 -3.621,-3.0821 -7.0846,-6.3442 -10.6607,-9.4937 -0.2699,-0.1575 -0.3824,-0.54 -0.7422,-0.5625 -0.2474,-0.4499 -0.5173,-0.8548 -0.7647,-1.2598 z"
       fill="#a42682"
       id="path19" />
    <path
       d="m 141.76,103.821 c 1.956,-7.8497 7.939,-10.3462 15.069,-11.3133 5.712,-0.7647 11.448,-1.5069 17.183,-2.2716 -0.495,0.2924 -0.99,0.5623 -1.462,0.8546 -6.23,2.2491 -12.55,4.2733 -18.803,6.4775 -2.631,0.9221 -4.79,2.6088 -6.904,4.3628 -0.495,0.428 -0.765,0.968 -0.99,1.552 -0.18,0.495 -0.315,1.035 -0.9,1.215 -1.079,-0.27 -2.136,-0.585 -3.193,-0.877 z"
       fill="#c1161a"
       id="path20" />
    <path
       d="m 20.1343,126.681 c 4.0934,-7.041 8.1868,-14.083 12.2801,-21.124 0.2924,-1.125 -0.7647,-1.238 -1.3269,-1.53 -1.5969,-0.878 -3.2837,-1.575 -4.8806,-2.452 -1.1245,-0.63 -2.2491,-1.305 -3.4411,-1.7777 -5.3979,-3.082 -10.7957,-6.1641 -16.19353,-9.2237 0.38234,-0.36 0.80967,-0.1575 1.21451,-0.045 5.91512,1.5748 11.67282,3.577 17.29562,5.9617 1.3494,0.5624 2.5639,1.3273 3.711,2.1822 1.0795,0.7874 2.1816,1.5525 3.2837,2.3175 1.3719,0.945 2.5864,2.137 2.8113,3.959 -1.1245,0.765 -1.7992,1.822 -2.1366,3.105 -0.2249,0.9 -0.6972,1.687 -1.1695,2.452 -3.1038,4.972 -6.4325,9.809 -9.6037,14.735 -0.4048,0.585 -0.6522,1.643 -1.8443,1.44 z"
       fill="#a19a1e"
       id="path21" />
    <path
       d="M 34.7513,104.949 C 33.5817,101.597 30.4555,100.27 27.8465,98.56 22.5386,95.0954 16.3761,93.5431 10.416,91.6759 9.15649,91.2709 7.98696,90.4386 6.59252,90.551 6.41259,90.4386 6.23266,90.3486 6.05273,90.2361 c 6.45497,0.6974 12.93237,1.2598 19.34227,2.1822 2.519,0.3599 4.2958,2.0247 3.8909,5.0393 1.6644,2.0697 3.9809,3.4874 5.5103,5.6694 0.2924,0.427 0.7422,0.765 0.8097,1.327 0,1.822 -0.4048,3.51 -1.3494,5.084 -0.3599,0.608 -0.7647,1.26 -0.9447,1.958 -1.0346,4.094 -3.8009,7.041 -6.5449,10.033 -1.6868,1.845 -3.2387,3.825 -4.9255,5.647 -0.7872,0.855 -1.3494,2.047 -2.7214,2.16 -0.2699,-1.103 0.7197,-1.597 1.192,-2.272 3.846,-5.332 8.0293,-10.416 11.5154,-16.018 0.7197,-1.17 1.0571,-2.475 1.3495,-3.78 0.2474,-0.99 0.6072,-1.867 1.5744,-2.317 z"
       fill="#c2ba0b"
       id="path22" />
    <path
       d="m 156.541,126.364 c 1.957,1.642 3.914,3.261 5.87,4.903 0.225,0.292 0.45,0.562 0.675,0.855 0,0.022 -0.045,0.09 -0.067,0.112 -0.045,0.023 -0.09,0 -0.135,-0.022 -0.36,-0.023 -0.72,-0.068 -1.058,-0.225 -4.88,-3.081 -9.896,-5.893 -14.844,-8.862 -1.124,-0.674 -2.384,-1.057 -3.711,-0.967 -3.913,0.248 -7.894,0.045 -11.425,2.249 -1.507,0.945 -2.879,2.07 -4.206,3.217 -1.507,-0.608 -1.799,-1.62 -0.765,-2.879 1.867,-2.227 4.274,-3.689 6.905,-4.813 2.654,-1.125 5.488,-1.327 8.322,-1.53 0.292,-0.022 0.585,0.045 0.855,-0.045 3.036,-0.877 5.217,0.45 7.332,2.497 1.934,1.956 4.026,3.823 6.252,5.51 z"
       fill="#e98509"
       id="path23" />
    <path
       d="m 75.5272,143.442 c 0,0.18 -0.0224,0.382 -0.0224,0.562 -0.5623,0.495 -1.2595,0.45 -1.9118,0.405 -1.7318,-0.113 -3.3286,0.36 -4.8355,1.147 -1.417,0.743 -2.9014,1.305 -4.4533,1.62 -2.0466,0.405 -3.576,1.53 -4.903,3.082 -3.0588,3.622 -6.1176,7.267 -9.1763,10.911 -0.4049,0.473 -0.9222,0.833 -1.3045,1.327 -0.3374,0.18 -0.6972,0.383 -1.0346,0.563 -0.0225,-0.36 -0.045,-0.72 -0.045,-1.102 0.1125,-0.113 0.1799,-0.225 0.2249,-0.36 0.8322,-3.195 2.609,-6.007 3.846,-9.022 0.8771,-2.137 1.8443,-4.229 2.9463,-6.276 1.0346,-1.935 1.7093,-2.318 3.8235,-1.89 3.5985,0.72 7.0622,0.315 10.4808,-1.057 2.0692,-0.878 4.2508,-1.058 6.3649,0.09 z"
       fill="#bfb70d"
       id="path24" />
    <path
       d="m 104.743,146.905 c 0.832,-2.676 1.462,-2.631 4.386,-1.641 6.297,2.181 10.525,7.039 15.361,11.133 1.574,1.327 3.126,2.676 4.633,4.093 0.427,0.405 1.26,0.607 1.035,1.484 -4.431,-2.586 -8.862,-5.195 -13.292,-7.782 -3.487,-2.136 -6.725,-4.7 -10.504,-6.342 -0.315,-0.135 -0.652,-0.472 -1.034,-0.09 -0.405,0.675 -0.81,1.349 -1.215,2.024 -1.327,-0.09 -0.787,-0.922 -0.562,-1.529 0.202,-0.585 0.899,-0.787 1.192,-1.35 z"
       fill="#915017"
       id="path25" />
    <path
       d="m 19.1482,129.269 c 6.9722,-7.267 14.3268,-14.286 16.1935,-24.882 0.2024,-0.18 0.3824,-0.158 0.5848,0 0.9896,2.61 -0.18,4.859 -1.2595,7.109 -0.7422,1.552 -1.237,3.149 -0.7422,4.814 0.7197,2.362 -0.5398,3.69 -2.2041,4.95 -2.699,2.024 -5.6003,3.802 -7.9619,6.276 0.135,0.81 -0.6522,0.923 -1.0121,1.373 -1.5069,1.169 -3.2612,1.979 -4.7231,3.194 -0.2699,0.225 -0.5622,0.293 -0.8771,0.045 0.0225,-1.08 0.8322,-1.755 1.327,-2.609 0.2474,-0.113 0.3373,-0.473 0.6747,-0.27 z"
       fill="#cdc403"
       id="path26" />
    <path
       d="m 17.9004,49.4716 c 0.3823,-0.405 0.4948,0 0.6522,0.2249 1.3045,1.0799 2.3616,2.3847 3.4636,3.667 3.1488,3.712 6.4999,7.2441 9.3788,11.1585 2.1141,2.8796 3.9359,5.9617 3.7785,9.7637 -0.0225,0.2925 0.0225,0.5849 -0.135,0.8324 -0.1799,0 -0.3598,0 -0.5397,0.0225 -0.6523,-0.2925 -1.5069,0.09 -2.0467,-0.6074 C 27.6165,66.1868 22.7584,57.8179 17.9004,49.4716 Z"
       fill="#75205d"
       id="path27" />
    <path
       d="m 50.0919,50.0115 c -0.4948,-0.4724 -0.9671,-0.9673 -1.4619,-1.4398 -0.0675,-0.4274 -0.1574,-0.8999 0.1125,-1.2598 1.6193,-2.1147 1.282,-4.5894 1.0795,-6.9516 -0.6072,-7.109 -1.7093,-14.1731 -2.0241,-21.3271 0,-0.4724 0,-0.9674 0,-1.4398 0.0899,0.09 0.1799,0.18 0.2474,0.2924 1.6643,6.4342 3.4186,12.8458 4.993,19.3024 1.0121,4.162 1.3719,8.3239 -1.5519,12.0359 -0.3599,0.4725 -0.7422,0.8324 -1.3945,0.7874 z"
       fill="#9a247b"
       id="path28" />
    <path
       d="m 161.983,130.416 c -3.284,-3.87 -6.613,-7.694 -9.807,-11.654 -2.429,-2.992 -5.442,-5.646 -6.387,-9.606 -0.315,-1.282 -0.922,-2.767 0.382,-3.959 0.225,-0.248 0.54,-0.315 0.855,-0.315 0.315,0.045 0.63,0.09 0.72,0.472 3.014,5.264 6.005,10.506 8.996,15.771 1.754,3.104 3.509,6.209 5.241,9.291 z"
       fill="#f8b11f"
       id="path29" />
    <path
       d="m 162.024,131.854 c 0.27,0.112 0.54,0.247 0.81,0.36 -2.587,0 -5.173,0 -7.737,0 1.259,-0.967 2.676,-0.293 3.981,-0.36 -4.993,-0.877 -9.942,-1.912 -14.89,-2.992 -3.711,-0.809 -7.354,-0.674 -11.043,-0.022 -1.124,0.202 -1.754,1.169 -2.789,1.462 -0.877,-0.045 -1.371,-0.517 -1.506,-1.372 1.462,-2.407 3.733,-3.441 6.432,-3.846 4.318,-0.652 8.502,-0.382 12.617,1.327 4.049,1.687 8.3,2.789 12.326,4.543 0.607,0.248 1.192,0.63 1.799,0.9 z"
       fill="#c26c16"
       id="path30" />
    <path
       d="m 75.2561,34.9384 c -0.0899,-0.2924 -0.2024,-0.5849 -0.2924,-0.8548 -0.2474,-0.225 -0.2699,-0.5175 -0.2024,-0.8324 0.1799,-0.5175 0.5623,-0.9224 0.9896,-1.2149 2.0917,-1.4623 3.2162,-3.6445 4.3183,-5.8267 2.0692,-4.1169 3.9134,-8.3239 5.7127,-12.5758 0.5848,-1.3723 1.4169,-2.6096 1.8893,-4.02694 0.4723,-0.85489 0.9446,-1.70977 1.4394,-2.54216 -1.7318,7.289 -4.1159,14.3981 -6.7248,21.4171 -1.2595,3.4196 -3.5536,5.6243 -7.1297,6.4566 z"
       fill="#aa2985"
       id="path31" />
    <path
       d="m 74.9403,33.2251 c 0,0.2923 0.0224,0.5622 0.0224,0.8546 -1.6868,0.9671 -3.2612,-0.1124 -4.4532,-0.7647 -7.1296,-4.0034 -13.4496,-9.1763 -19.5447,-14.6191 7.1297,4.1383 14.2368,8.2767 21.3665,12.3925 0.7422,0.4273 1.5294,0.8097 2.2941,1.2145 0.3823,0.2249 0.3598,0.5848 0.3149,0.9222 z"
       fill="#c95098"
       id="path32" />
    <path
       d="m 48.917,162.474 c 2.6089,-3.982 5.9151,-7.379 8.9514,-11.024 4.5657,-5.534 10.9531,-6.861 17.633,-7.446 0,0.09 0.0224,0.202 0.0224,0.292 -0.1124,0.293 -0.2024,0.585 -0.3148,0.855 -0.135,0.135 -0.3149,0.27 -0.4948,0.293 -2.3841,0.18 -4.4532,1.327 -6.6124,2.204 -2.8339,1.148 -5.1054,3.037 -7.377,4.972 -3.2837,2.812 -6.4325,5.782 -9.7836,8.504 -0.2924,0.405 -0.7872,0.54 -1.1695,0.81 -0.2699,0.18 -0.5623,0.36 -0.8547,0.54 z"
       fill="#afa719"
       id="path33" />
    <path
       d="m 43.7302,131.54 c -8.3891,0.36 -16.7783,0.832 -25.1674,0.675 -0.09,-0.135 -0.09,-0.292 -0.0225,-0.427 0.1124,-0.113 0.2474,-0.18 0.3823,-0.248 0.8547,-0.067 1.6869,-0.292 2.564,-0.382 4.8356,-0.45 9.6262,-1.192 14.4167,-1.934 3.2612,-0.495 6.5224,-0.473 9.7836,-0.405 1.0346,0.022 1.8443,0.517 2.6315,1.057 0.3373,0.225 0.5623,0.562 0.4048,0.989 -0.1349,0.383 -0.4948,0.36 -0.8322,0.428 -1.3719,0.292 -2.7888,-0.023 -4.1608,0.247 z"
       fill="#847f23"
       id="path34" />
    <path
       d="m 146.979,105.238 c -0.27,0 -0.539,-0.023 -0.809,-0.023 -0.405,-0.157 -0.833,-0.315 -1.237,-0.495 1.417,-4.61 5.442,-6.252 9.333,-7.7589 5.533,-2.1591 11.223,-3.8909 16.869,-5.7577 0.427,-0.1349 0.944,-0.0675 1.417,-0.1125 -0.428,0.2474 -0.855,0.5173 -1.282,0.7647 -2.632,1.0346 -5.083,2.4291 -7.67,3.5311 -2.991,1.282 -5.96,2.6765 -8.906,4.0484 -2.542,1.1699 -5.038,2.4289 -6.568,4.9479 -0.27,0.45 -0.742,0.607 -1.147,0.855 z"
       fill="#a51917"
       id="path35" />
    <path
       d="m 132.223,160.809 c -0.292,-1.552 -0.562,-3.082 -0.855,-4.634 -0.899,-5.827 -1.641,-11.676 -2.181,-17.548 -0.225,-2.497 0.112,-4.904 1.709,-6.974 0.225,-0.158 0.45,-0.203 0.72,-0.135 0.315,0.112 0.562,0.315 0.652,0.675 0,8.481 0,16.963 0,25.444 0,1.035 -0.045,2.115 -0.045,3.172 z"
       fill="#ec870c"
       id="path36" />
    <path
       d="m 48.0462,161.934 c -0.0675,0 -0.1574,0 -0.2249,0.023 0.0225,-3.375 0.0225,-6.772 0.045,-10.147 0.1574,-3.397 0.0225,-6.816 0.0674,-10.213 0.0225,-1.238 0,-2.475 0.2699,-3.712 0.4499,-2.025 0.4948,-4.072 0.2249,-6.142 0.18,-0.607 0.4049,-1.17 1.2146,-1.057 1.2145,1.575 1.1695,3.509 1.3944,5.309 0.4048,3.307 -0.2474,6.569 -0.6522,9.854 -0.3824,3.127 -0.9222,6.254 -1.0346,9.403 -0.1575,2.295 -0.5848,4.522 -1.3045,6.682 z"
       fill="#9d9720"
       id="path37" />
    <path
       d="m 47.8213,19.0331 c 0.5623,4.4544 1.1695,8.9088 1.6868,13.3632 0.3374,2.9471 0.5848,5.8942 0.8772,8.8638 0.2699,2.6321 -0.09,5.1293 -1.7318,7.3115 -0.7647,-0.4274 -0.5398,-1.1473 -0.5398,-1.7997 -0.09,-5.2643 -0.1575,-10.5286 -0.2474,-15.7929 -0.0225,-4.0045 -0.045,-7.964 -0.045,-11.9459 z"
       fill="#74215d"
       id="path38" />
    <path
       d="m 147.63,74.5558 c -0.225,0 -0.427,0.0225 -0.652,0.0225 -0.09,-0.5624 -0.045,-1.1923 -0.292,-1.6648 -1.147,-2.1372 -0.585,-3.9369 0.832,-5.6917 4.431,-5.4443 8.816,-10.9335 13.247,-16.4003 0.27,-0.3375 0.63,-0.5849 0.945,-0.8549 -0.675,1.1474 -1.35,2.3172 -2.024,3.4645 -2.587,4.0495 -5.151,8.1215 -7.85,12.1034 -1.327,1.9573 -2.316,4.0945 -2.879,6.4117 -0.427,0.8773 -0.877,1.7547 -1.327,2.6096 z"
       fill="#c5161a"
       id="path39" />
    <path
       d="m 132.254,132.192 c -0.202,-0.112 -0.404,-0.225 -0.584,-0.337 -0.383,-0.9 0.427,-1.057 0.922,-1.304 2.114,-1.102 4.408,-1.395 6.725,-1.125 5.712,0.675 11.47,0.945 17.16,1.889 1.17,0.203 2.362,0.338 3.509,0.563 0.09,0 0.225,-0.023 0.292,0.022 0.518,0.382 -0.045,0.225 -0.135,0.225 -1.687,0.045 -3.373,0.067 -5.06,0.09 -7.602,0 -15.204,-0.023 -22.829,-0.023 z"
       fill="#764213"
       id="path40" />
    <path
       d="m 105.346,32.6179 c 0,-0.1125 0,-0.2024 0,-0.3149 6.927,-4.0034 13.877,-8.0068 20.804,-12.0102 0.675,-0.3823 1.349,-0.7422 2.002,-1.1245 -1.777,2.2491 -4.296,3.576 -6.545,5.2629 -3.127,2.339 -6.23,4.7456 -9.649,6.7248 -2.114,1.192 -4.251,1.6418 -6.612,1.4619 z"
       fill="#c9151c"
       id="path41" />
    <path
       d="m 104.743,146.906 c 0.09,1.035 -2.092,1.552 -0.63,2.902 -3.846,6.749 -7.6918,13.498 -11.5378,20.27 0.1799,-2.43 1.6868,-4.365 2.5865,-6.502 2.0241,-4.904 4.1383,-9.786 6.9723,-14.308 0.652,-1.08 1.507,-1.845 2.609,-2.362 z"
       fill="#9d5618"
       id="path42" />
    <path
       d="m 49.5027,130.708 c -0.2924,0.292 -0.5847,0.584 -0.8546,0.877 -0.2249,0.202 -0.4498,0.18 -0.6748,0.045 -1.4169,-0.023 -2.8113,-0.045 -4.2283,-0.068 1.3495,-0.18 2.7214,-0.36 4.0709,-0.562 0.2474,-0.045 0.4723,-0.225 0.6972,-0.337 -0.2024,-0.203 -0.3598,-0.45 -0.5847,-0.585 -3.1488,-1.597 -6.4999,-0.9 -9.7162,-0.607 -5.6902,0.494 -11.3579,1.372 -17.0481,2.114 0,-0.72 0.6072,-0.652 1.0345,-0.742 5.1055,-1.215 10.1885,-2.609 15.3614,-3.307 4.1833,-0.562 8.3892,-0.292 12.1002,2.227 0.1124,0.112 0.2024,0.27 0.2474,0.427 0.0225,0.27 -0.135,0.428 -0.4049,0.518 z"
       fill="#9b951f"
       id="path43" />
    <path
       d="m 19.1415,129.269 c -0.2025,0.09 -0.4274,0.18 -0.6298,0.269 0.5398,-0.944 1.0796,-1.912 1.6419,-2.857 2.0466,-1.732 3.0587,-4.229 4.5656,-6.366 2.1817,-3.15 4.1384,-6.457 6.275,-9.629 0.7647,-1.147 1.237,-2.362 1.7093,-3.622 0.3599,-0.967 0.7198,-2.047 2.0467,-2.092 -1.6643,1.98 -1.4394,4.702 -2.8338,6.839 -3.756,5.737 -8.1868,10.978 -12.2127,16.513 -0.2249,0.27 -0.3823,0.607 -0.5622,0.945 z"
       fill="#bcb410"
       id="path44" />
    <path
       d="m 74.9429,146.051 c -0.0899,0.202 -0.2024,0.405 -0.2923,0.585 -0.4049,0.854 -1.3045,0.944 -2.0017,1.304 -4.6557,2.429 -8.8615,5.578 -13.3597,8.255 -1.1695,0.697 -2.4515,1.282 -3.4411,2.294 -1.5069,0.877 -3.0363,1.776 -4.5432,2.654 -0.045,-0.045 -0.09,-0.09 -0.1574,-0.158 0.1799,-0.877 1.0345,-1.102 1.6193,-1.552 5.4203,-4.318 10.8182,-8.681 16.8458,-12.145 1.6643,-0.922 3.3511,-1.732 5.3303,-1.237 z"
       fill="#857e23"
       id="path45" />
    <path
       d="m 146.979,105.238 c 3.149,-5.5098 9.154,-6.6119 14.192,-9.1759 2.969,-1.5294 6.118,-2.7439 9.177,-4.0708 0.27,-0.1125 0.607,-0.09 0.922,-0.135 -1.102,0.6073 -2.204,1.237 -3.306,1.8443 -5.916,3.1937 -11.988,6.14 -17.633,9.8284 -0.27,0.18 -0.563,0.36 -0.743,0.675 -0.629,0.405 -1.237,0.787 -1.866,1.192 -0.225,-0.068 -0.495,-0.113 -0.743,-0.158 z"
       fill="#851815"
       id="path46" />
    <path
       d="m 32.4526,74.5335 c 0.6748,0.2024 1.372,0.4048 2.0467,0.6073 -1.0796,-0.09 -1.7993,0.2699 -2.5415,1.147 -1.6193,1.9342 -4.1158,2.6315 -6.2525,3.756 -4.0259,2.1366 -8.2092,3.9809 -12.3475,5.9376 -0.2924,0.135 -0.6523,0.1125 -0.9896,0.1575 6.7023,-3.8685 13.4046,-7.7369 20.0844,-11.6054 z"
       fill="#ccbf08"
       id="path47" />
    <path
       d="m 74.9418,33.2291 c -0.1124,-0.315 -0.2024,-0.6299 -0.3148,-0.9224 0.3823,-0.5849 0.7646,-1.1923 1.147,-1.7773 1.5969,-1.7997 2.8114,-3.8694 3.9134,-5.9617 1.8443,-3.5095 3.7785,-6.974 5.6228,-10.506 0.0899,-0.18 0.2024,-0.315 0.1124,-0.5175 0.7422,-1.3048 1.5069,-2.6096 2.2491,-3.91444 -0.6972,3.26204 -2.4515,6.11914 -3.6885,9.17874 -1.3045,3.2396 -3.0138,6.3217 -4.5432,9.4937 -0.9896,2.0923 -2.6989,3.5546 -4.4982,4.9269 z"
       fill="#922475"
       id="path48" />
    <path
       d="m 55.8721,158.511 c 1.1695,-1.731 3.1037,-2.474 4.7681,-3.531 4.5881,-2.901 8.9289,-6.275 14.0344,-8.344 0.0224,0.203 -0.135,0.315 -0.1125,0.518 -0.2024,0.224 -0.2249,0.652 -0.4723,0.787 -6.0726,3.553 -12.1452,7.062 -18.2177,10.57 z"
       fill="#645a20"
       id="path49" />
    <path
       d="m 148.978,71.946 c -0.202,-2.3172 0.967,-4.1619 2.159,-5.9617 2.789,-4.2294 5.331,-8.6163 8.547,-12.5308 -2.924,5.1068 -5.825,10.2361 -8.749,15.3429 -0.608,1.0574 -1.282,2.0922 -1.957,3.1496 z"
       fill="#ad1b1a"
       id="path50" />
    <path
       d="m 85.4325,13.5441 c -0.45,2.3621 -1.8223,4.3194 -2.9022,6.3891 -1.8222,3.5545 -3.532,7.154 -6.0516,10.2811 -0.18,0.225 -0.225,0.7649 -0.6975,0.315 3.2171,-5.6693 6.4342,-11.3385 9.6513,-16.9852 z"
       fill="#7b2563"
       id="path51" />
    <path
       d="m 149.614,104.204 c 1.62,-2.092 3.914,-3.284 6.208,-4.4307 4.048,-2.0242 7.917,-4.4308 12.145,-6.0726 -6.118,3.4861 -12.235,6.9943 -18.353,10.5033 z"
       fill="#631d1a"
       id="path52" />
    <path
       d="m 47.9533,131.631 c 0.2249,-0.023 0.4498,-0.023 0.6747,-0.045 0.8097,2.407 0.5398,4.769 -0.2924,7.109 -0.5847,1.642 -0.1799,3.307 -0.2699,4.971 -0.1124,2.723 -0.1574,5.422 -0.2249,8.144 0.045,-6.726 0.09,-13.453 0.1125,-20.179 z"
       fill="#aca519"
       id="path53" />
    <path
       d="m 105.346,147.784 c 1.012,-0.833 1.957,-0.023 2.677,0.382 3.104,1.8 6.142,3.689 8.886,6.029 -3.374,-1.935 -6.749,-3.892 -10.123,-5.827 -0.473,-0.224 -0.968,-0.382 -1.44,-0.584 z"
       fill="#b2641d"
       id="path54" />
    <path
       d="m 22.7646,99.7749 c 3.3521,1.3501 6.6592,2.8571 9.8087,4.6791 0.7874,0.45 0.6524,0.833 -0.135,1.103 -3.2395,-1.935 -6.4566,-3.847 -9.6737,-5.7821 z"
       fill="#beb714"
       id="path55" />
    <path
       d="m 49.7969,161.934 c 0.2924,-0.27 0.5849,-0.563 0.8774,-0.832 0.1799,-0.158 0.3599,-0.18 0.5624,-0.023 l 0.09,0.09 c -0.5175,0.247 -1.0349,0.495 -1.5298,0.765 z"
       fill="#857e23"
       id="path56" />
    <path
       d="m 58.6279,87.9414 c -0.2699,7.784 1.7543,14.8706 6.4099,21.1926 1.3045,1.777 2.7439,3.397 4.4083,4.836 -0.7198,0.608 -1.0796,0.63 -1.9568,-0.18 -1.4619,-1.349 -2.6539,-2.902 -3.9809,-4.386 -2.4065,-2.7 -4.3182,-5.805 -6.4324,-8.707 -1.4169,-1.957 -2.1366,-4.2967 -2.7439,-6.6589 0,2.2272 -0.1799,4.4319 0.045,6.6589 0.1124,1.013 -0.1799,1.665 -1.237,1.935 -1.3945,0.36 -1.8218,1.057 -1.6644,2.542 0.2699,2.52 0.9672,4.927 2.2267,7.132 3.7335,6.569 8.8839,11.743 15.6087,15.23 2.519,1.305 5.2629,2.16 8.1642,2.205 0.7872,0 1.5744,0.112 1.8443,1.057 -0.2024,1.687 -0.4498,3.375 -1.4394,4.837 -0.2024,0.765 -0.4273,1.507 -0.6298,2.272 -0.0899,0.135 -0.2024,0.225 -0.3373,0.293 -1.7093,0.405 -3.3287,-0.27 -4.993,-0.45 -4.9705,-0.54 -9.4687,-2.16 -12.7524,-6.209 -1.1021,-1.35 -2.3166,-2.61 -3.2612,-4.027 -1.9567,-2.903 -4.6332,-4.995 -7.2196,-7.199 -1.7768,-1.53 -3.7111,-2.903 -5.0605,-4.905 -0.8772,-1.305 -1.5069,-2.677 -1.8893,-4.184 -0.5622,-2.205 -0.4948,-4.477 -0.9446,-6.704 -0.2249,-1.035 0.5848,-1.958 0.3599,-3.105 -0.6523,-3.3069 -1.8668,-6.3665 -3.5086,-9.2687 -0.7872,-1.3723 -1.5969,-2.7446 -2.3616,-4.1394 -1.282,-2.2947 -0.4723,-6.2092 0.3599,-7.9414 0.5623,-1.1699 1.3494,-1.0124 1.8218,-2.2272 0.3823,-0.9899 0.9896,-1.6423 2.1816,-1.3948 0.0899,-0.0225 0.1799,-0.0675 0.2474,-0.09 2.519,0.6974 5.038,1.3948 7.5345,2.0922 0.8321,-0.225 1.6193,0 2.4065,0.2475 1.9567,0.6299 4.0709,0.7199 5.8926,1.7997 0.2474,0.225 0.4499,0.5174 0.4724,0.8549 0.1574,2.5197 1.2145,4.8368 1.7992,7.2665 0.2025,0.8549 0.18,1.7098 0.2249,2.4522 0.135,-0.8774 -0.3148,-1.9122 0.045,-2.9246 0.0675,-0.135 0.18,-0.2025 0.3599,-0.2025 z"
       fill="#f6e919"
       id="path57" />
    <path
       d="m 77.8672,135.632 c 0.3823,-1.641 0.7647,-3.283 1.147,-4.925 0.09,-0.225 0.2024,-0.405 0.4274,-0.517 1.9342,-0.27 3.9359,-0.27 5.8026,-1.035 0.8097,-0.337 1.7094,-0.54 2.2941,-1.17 1.1246,-1.192 2.474,-1.551 4.0484,-1.506 1.147,0.045 2.0917,-0.338 2.474,-1.552 0.7197,-0.09 1.4169,-0.225 2.1367,-0.293 0.5847,-0.045 1.0795,0.225 1.237,0.787 0.2024,0.653 -0.4049,0.788 -0.8547,0.9 -1.4169,0.382 -0.6297,1.507 -0.7197,2.272 -0.1125,0.854 0.6072,0.922 1.282,0.944 1.5294,0.068 3.059,0.158 4.588,0.293 1.08,0.112 2.249,0.382 2.564,1.507 0.27,0.989 -0.54,1.821 -1.304,2.384 -3.2616,2.406 -6.9051,3.913 -10.976,4.183 -4.9255,0.36 -9.4912,-1.282 -14.1468,-2.272 z"
       fill="#f49b1c"
       id="path58" />
    <path
       d="m 76.991,137.952 c 0.0899,-0.022 0.1574,-0.022 0.2474,-0.045 3.3062,1.147 6.6123,2.34 9.941,3.465 5.5553,1.912 10.5033,-0.248 15.1366,-2.79 3.126,-1.71 6.41,-2.092 9.738,-2.655 3.262,-0.562 6.703,-0.405 9.447,-2.857 1.911,-1.71 3.981,-3.937 4.228,-6.006 1.057,-8.504 7.489,-9.067 13.697,-10.237 1.642,-0.315 3.306,-0.517 4.971,-0.742 1.506,-0.202 2.181,1.08 3.058,1.867 3.082,2.745 6.073,5.602 9.087,8.414 -2.204,-1.012 -3.891,-2.79 -5.578,-4.409 -2.587,-2.497 -5.151,-3.645 -8.907,-3.217 -5.532,0.63 -10.615,1.822 -14.641,5.961 -1.057,1.08 -1.282,2.003 0.202,2.835 0.113,0.112 0.158,0.27 0.158,0.427 -0.09,0.698 -0.563,1.215 -0.99,1.733 -0.607,0.742 -1.192,1.529 -1.552,2.429 -1.619,3.915 -4.768,5.58 -8.771,5.625 -2.992,0.045 -5.96,0.36 -8.907,0.674 -1.619,0.18 -3.014,0.855 -4.498,1.643 -3.2162,1.687 -6.4324,3.532 -10.1209,4.049 -2.519,0.36 -4.8581,-0.405 -7.1746,-1.305 -2.9014,-1.124 -5.7127,-2.519 -8.749,-3.374 -0.135,-0.068 -0.2699,-0.158 -0.3824,-0.27 -0.2699,-0.518 0,-0.878 0.3599,-1.215 z"
       fill="#ea860a"
       id="path59" />
    <path
       d="m 134.834,102.025 c 0.202,0.112 0.405,0.202 0.607,0.315 -1.012,2.114 -2.137,4.184 -3.014,6.344 -2.204,5.332 -6.05,8.751 -11.425,10.798 -5.241,1.98 -10.391,4.207 -15.924,5.31 -0.832,0.157 -1.709,0.157 -2.924,0.247 1.192,-0.63 2.047,-1.08 2.902,-1.53 1.417,-1.012 2.923,-1.912 4.52,-2.474 7.557,-2.655 13.36,-7.672 18.533,-13.521 1.349,-1.53 2.159,-3.397 3.036,-5.219 0.27,-0.54 0.473,-1.058 1.17,-1.125 0.967,-0.068 1.821,0.135 2.519,0.855 z"
       fill="#e98408"
       id="path60" />
    <path
       d="m 132.228,101.485 c -1.619,2.205 -2.407,4.927 -4.318,6.951 -5.151,5.422 -10.639,10.372 -17.926,12.779 -1.732,0.562 -3.036,2.047 -4.925,2.272 -6.0728,0.967 -11.7855,-0.967 -17.6557,-1.845 1.0571,0.023 2.8789,0.09 3.9359,0.113 1.327,-0.068 1.8443,-0.225 3.1038,-0.315 2.7214,-0.203 5.3754,0.022 8.052,0.382 0.63,0.09 1.259,0.045 1.844,-0.202 2.362,-0.968 4.701,-1.98 7.085,-2.88 0.629,-0.247 1.147,-0.697 1.664,-1.147 0.675,-0.563 1.439,-0.855 2.294,-1.103 2.002,-0.562 3.509,-2.002 4.971,-3.374 3.553,-3.33 6.949,-6.817 9.198,-11.249 0.293,-0.585 0.72,-1.012 1.44,-1.057 0.225,-0.023 0.472,0 0.697,0.045 0.292,0.135 0.63,0.202 0.54,0.63 z"
       fill="#e87c0d"
       id="path61" />
    <path
       d="m 94.0645,124.927 c 0.3599,1.012 0.1799,1.889 -1.0349,1.732 -3.2621,-0.428 -5.3318,2.16 -8.0539,3.037 -1.8898,0.607 -3.7345,0.787 -5.6693,0.72 -0.3824,-0.383 -0.3599,-0.878 -0.2249,-1.35 0.6974,-2.677 1.4623,-5.332 2.1147,-8.009 0.0675,-0.292 0.18,-0.247 0.3824,-0.45 0.2025,0.068 0.3375,0.045 0.54,0.113 -0.6075,0.832 0.3374,0.607 0.7424,0.787 2.4971,1.102 5.1068,1.912 7.4015,3.442 1.1923,0.81 2.5196,-0.157 3.802,-0.022 z"
       fill="#f7ae27"
       id="path62" />
    <path
       d="m 55.6008,80.6975 c -2.7215,-0.7424 -5.4429,-1.5073 -8.1643,-2.2497 1.7768,-0.3825 1.8443,-1.6648 1.8218,-3.1946 -0.0675,-6.1417 3.1712,-10.911 6.6348,-15.5679 1.1921,-1.6198 2.519,-3.1721 3.5986,-4.8594 2.519,-3.9144 6.23,-6.1641 10.4808,-7.6714 4.1159,-1.4623 8.2317,-2.8796 12.3251,-4.4094 6.4099,-2.3847 12.5724,-0.8549 18.7124,1.1248 0.36,0.1125 0.742,0.225 1.102,0.3375 0.203,0.1574 0.248,0.3824 0.225,0.6074 -0.067,0.3149 -0.225,0.5849 -0.472,0.7874 -0.697,0.4274 -1.417,0.135 -2.0919,-0.0225 -2.1142,-0.495 -4.2283,-0.9674 -6.365,-1.2823 -3.1487,-0.45 -6.2525,-0.2925 -9.2887,0.6074 -5.3979,1.5973 -10.7957,3.2395 -15.7662,6.0067 -0.9672,0.5399 -1.7993,1.2823 -2.7664,1.8447 -1.2145,0.4949 -2.0242,1.4623 -2.7889,2.4747 -0.2024,0.2699 -0.4049,0.4949 -0.6298,0.7424 -0.4948,0.4949 -1.0121,0.9449 -1.3719,1.5523 -0.0675,0.1125 -0.1575,0.2024 -0.2249,0.3149 -1.327,1.5523 -2.474,3.2171 -3.5311,4.9269 -0.0675,0.1125 -0.135,0.2249 -0.2249,0.3374 -2.0242,3.2621 -3.5536,6.7266 -4.2058,10.5286 -0.2474,1.4623 0.5397,2.9021 1.8667,3.5095 0.5173,0.225 0.6747,-0.1799 0.9221,-0.4499 0.5173,-0.5624 0.9222,-0.4274 1.1921,0.2025 0.6072,1.3723 0.6972,2.6771 -0.3599,3.8919 -0.2249,0.09 -0.4273,0.0225 -0.6297,-0.0899 z"
       fill="#a72784"
       id="path63" />
    <path
       d="m 102.136,44.7697 c 0,-0.18 0.135,-0.3149 0.112,-0.4949 0.113,-0.2925 0.09,-0.6299 0.18,-0.9224 2.159,1.0124 4.543,1.0574 6.815,1.6198 5.105,1.2598 8.974,4.1844 12.302,8.2339 2.969,3.6445 6.433,6.8616 9.649,10.3036 2.699,2.8796 4.296,6.3666 4.386,10.2586 0.135,5.1968 1.889,10.0562 2.519,15.163 0.472,3.802 -0.068,7.244 -2.159,10.4611 -0.518,0.7876 -1.08,1.5976 -1.125,2.6326 -0.877,-0.18 -1.732,-0.338 -2.609,-0.518 -0.18,-0.112 -0.382,-0.225 -0.562,-0.337 -0.315,-0.653 0,-1.2377 0.292,-1.7776 2.632,-4.8594 3.216,-10.0112 2.474,-15.4105 -0.54,-3.8694 -1.124,-7.7164 -2.024,-11.5184 -0.742,-3.1721 -2.069,-6.1192 -4.228,-8.6163 -3.441,-4.0045 -7.04,-7.8965 -10.841,-11.586 -3.351,-3.2395 -7.489,-4.7918 -11.875,-5.8717 -0.787,-0.2025 -1.597,-0.3374 -2.384,-0.5849 -0.473,-0.18 -1.035,-0.315 -0.922,-1.0349 z"
       fill="#cd131c"
       id="path64" />
    <path
       d="m 128.88,24.3652 c -0.449,3.9819 -1.597,7.019 -2.451,10.1461 -1.012,3.712 -0.787,7.4915 -0.428,11.181 0.473,4.5894 5.533,7.3115 10.009,7.694 4.228,0.3599 8.524,0.7199 12.685,-0.7199 0.45,-0.1575 1.349,-0.1125 1.462,0.135 0.337,0.6749 -0.517,0.8098 -0.877,1.0348 -2.362,1.5073 -4.409,3.2846 -6.343,5.3768 -2.429,2.6321 -5.128,2.3847 -8.726,-0.18 -0.743,-0.5174 -1.417,-1.1698 -2.227,-1.5973 -5.375,-2.7896 -7.602,-8.4363 -11.538,-12.5533 -4.588,-4.8143 -4.026,-5.7817 0.922,-10.0561 2.587,-2.2497 4.049,-5.4668 5.915,-8.3014 0.405,-0.5174 0.788,-1.0349 1.597,-2.1597 z"
       fill="#e62440"
       id="path65" />
    <path
       d="m 76.0871,141.686 c 0,0.18 10e-5,0.383 -0.0224,0.563 -0.18,0.202 -0.0675,0.517 -0.2474,0.719 -0.8322,0.563 -1.9343,-0.202 -2.7664,-0.157 -1.5294,0.067 -3.0138,0.18 -4.4982,0.697 -3.0138,1.035 -6.0726,1.282 -9.1764,0.157 -2.2491,-0.809 -3.1712,-0.359 -4.2283,1.822 -1.192,2.474 -2.3165,4.948 -3.3961,7.467 -0.2024,0.495 -0.2699,1.17 -1.0346,1.237 -0.5398,-0.495 -0.3149,-1.102 -0.1349,-1.597 1.3719,-3.868 2.4065,-7.871 4.6556,-11.358 0.3149,-0.359 0.5623,-0.742 0.8996,-1.079 1.7094,-1.709 1.9568,-1.732 4.0934,-0.585 2.4065,1.305 4.9705,1.552 7.6694,1.282 2.2941,-0.247 4.5882,-0.337 6.8598,0.135 0.5173,0.09 0.9896,0.27 1.3269,0.697 z"
       fill="#d2c801"
       id="path66" />
    <path
       d="m 50.6754,154.15 c 1.3494,-2.902 2.6764,-5.827 4.0259,-8.729 0.9221,-1.98 2.0691,-3.464 4.6556,-2.25 2.7889,1.305 5.7577,1.013 8.5691,0.113 2.5639,-0.832 5.3303,-0.81 7.9168,-0.293 0,0.18 -0.2699,1.373 -0.2924,1.553 -3.6435,-1.17 -6.8372,-0.36 -10.2109,0.382 -2.3391,0.518 -4.7006,0.473 -6.9722,-0.135 -1.5294,-0.405 -2.4066,0.113 -2.9913,1.418 -2.3166,5.174 -4.6557,10.326 -6.9722,15.5 -0.045,0.112 -0.2249,0.18 -0.3374,0.247 0.2924,-2.204 0.5848,-4.431 0.8772,-6.636 0.7647,-4.86 1.5293,-9.719 2.0916,-14.623 0.4049,-3.442 0.045,-6.952 -1.237,-10.281 0,-0.09 0.0225,-0.18 0.0225,-0.293 0.135,-0.09 0.2699,-0.112 0.4273,-0.067 0.8772,0.562 1.6419,1.237 1.9568,2.294 0.0674,2.678 0.5397,5.31 0.3823,8.009 -0.1799,3.375 -1.0796,6.614 -1.6643,9.921 -0.2699,1.463 -0.5173,2.925 -0.8997,4.342 -0.1574,0.158 0.18,0.135 0,0.045 -0.0225,-0.022 0,-0.045 0.0675,-0.135 0.1349,-0.202 0.3374,-0.337 0.5848,-0.382 z"
       fill="#c3bb0f"
       id="path67" />
    <path
       d="m 131.321,131.586 c -2.316,3.284 -1.687,6.951 -1.304,10.573 0.495,4.657 0.899,9.337 1.349,13.993 -1.192,-4.094 -1.597,-8.323 -2.316,-12.508 -0.045,-0.337 -0.023,-0.675 -0.135,-0.99 -0.45,-1.327 0.225,-3.959 -2.812,-1.552 -2.384,1.912 -5.622,0.945 -8.501,0.36 -3.846,-0.788 -7.782,-2.07 -11.606,-0.855 -2.519,0.81 -4.768,2.61 -7.0393,4.117 -2.4965,1.642 -4.8805,3.487 -8.1417,3.015 -2.4291,-0.36 -4.4533,-1.688 -6.455,-2.97 -2.4965,-1.62 -5.0829,-3.06 -7.9618,-3.96 -0.1349,-0.112 -0.2024,-0.225 -0.2249,-0.382 -0.0225,-0.247 0.0675,-0.472 0.2474,-0.63 0.135,-0.09 0.2924,-0.135 0.4498,-0.157 2.0467,0.247 3.8685,1.124 5.6453,2.069 1.6643,0.878 3.3286,1.71 5.0605,2.453 3.3286,1.417 6.4999,1.057 9.5586,-0.653 1.5294,-0.832 3.0361,-1.687 4.6331,-2.362 0.36,-0.158 0.72,-0.338 0.967,-0.63 1.08,-1.282 2.587,-1.642 4.139,-1.777 3.171,-0.293 6.342,-0.27 9.513,0.045 1.485,0.157 2.992,0.202 4.476,0.135 2.744,-0.113 4.183,-1.53 4.566,-4.275 0.314,-2.339 1.439,-4.229 3.171,-5.804 0.157,-0.022 0.315,0.023 0.427,0.135 0.383,0.383 0.765,0.765 1.147,1.17 0.652,0.27 1.35,0.517 1.147,1.44 z"
       fill="#df7e0c"
       id="path68" />
    <path
       d="m 76.3818,140.56 c 0.0225,0.09 0.045,0.18 0.045,0.293 -0.1124,0.292 -0.2474,1.147 -0.3598,1.417 -2.7664,-0.72 -5.5553,-1.282 -8.3892,-0.923 -2.4965,0.315 -5.083,0.203 -7.2421,-1.192 -1.7093,-1.102 -2.9913,-1.237 -4.2733,0.383 -0.3598,-0.338 -0.3823,-0.765 -0.2474,-1.192 0.2699,-1.035 0.4498,-2.047 0.4273,-3.127 0,-0.494 0.1575,-0.967 0.6748,-1.169 0.4948,-0.18 0.8096,0.157 1.147,0.45 0.6523,0.562 1.237,1.214 1.8668,1.799 2.1141,1.957 4.7681,2.384 7.467,2.542 2.0242,0.112 4.0484,-0.023 6.0501,0.044 0.9446,0.315 1.9792,0.113 2.8338,0.675 z"
       fill="#ded402"
       id="path69" />
    <path
       d="m 73.8156,140.27 c -2.5864,-0.045 -5.1954,-0.023 -7.7818,-0.158 -3.3062,-0.157 -5.9152,-1.755 -8.0293,-4.229 -0.2249,-0.27 -0.6073,-0.428 -0.8997,-0.63 -0.1124,0.337 -0.2699,0.675 -0.3373,1.035 -0.2249,1.417 -0.4049,2.834 -0.5848,4.252 -0.2024,0.292 -0.3824,0.584 -0.5848,0.877 -0.2924,-0.315 -0.2699,-0.675 -0.2024,-1.08 0.3599,-2.205 -0.1124,-4.274 -0.8771,-6.322 -0.7647,-1.889 -1.9568,-3.509 -3.3512,-4.994 -0.0675,-0.292 0.045,-0.562 0.2024,-0.81 0.6298,-0.72 0.3599,-1.282 -0.2924,-1.822 -2.3615,-1.957 -5.0604,-3.285 -7.8943,-4.342 -1.192,-0.45 -2.2266,-0.18 -3.0363,0.945 -0.3823,0.54 -0.8322,1.282 -1.7318,0.72 -0.3374,-3.06 -0.3374,-3.06 -3.4186,-2.677 -0.2924,0.045 -0.5623,0.067 -0.7872,-0.18 3.0363,-1.755 2.9688,-4.432 2.2716,-7.379 -0.3149,-1.283 0.6072,-2.385 0.8321,-3.6 0.2474,-1.35 0.5848,-2.699 0.1575,-4.117 -0.1575,-0.495 -0.4723,-1.395 0.5173,-1.687 0.8546,1.845 0.8096,3.802 0.5847,5.759 -0.0899,0.72 -0.2923,1.417 -0.3823,2.137 -0.3824,3.307 0.8771,5.67 3.8235,7.244 2.7439,1.485 5.5328,2.903 8.1417,4.635 1.4844,0.99 2.5415,2.272 3.5986,3.779 1.9342,2.745 3.3961,5.827 5.6452,8.347 1.7543,1.934 3.891,3.037 6.5224,3.307 2.1591,0.225 4.3183,0.247 6.4774,0.292 0.4723,0.023 1.237,-0.225 1.4169,0.698 z"
       fill="#e2d806"
       id="path70" />
    <path
       d="m 73.8165,140.269 c -2.4066,-0.18 -4.8356,-0.54 -7.2421,-0.54 -4.7906,0.023 -7.8944,-2.744 -9.7611,-6.524 -3.1488,-6.366 -8.1193,-10.393 -14.3718,-13.295 -4.2508,-1.98 -5.4428,-4.455 -4.4757,-9.089 0.4723,-2.272 0.0225,-4.477 -0.0225,-6.727 0.09,-0.09 0.2024,-0.202 0.2924,-0.292 0.2024,-0.158 0.4049,-0.18 0.6298,-0.045 0.8096,2.159 0.7647,4.432 0.6072,6.681 -0.2699,3.555 1.0121,6.277 4.0034,8.212 1.4844,0.967 2.9014,2.069 4.4757,2.879 4.1159,2.115 6.6574,5.715 9.0414,9.449 0.8772,1.395 1.7993,2.745 2.8789,3.96 1.192,1.372 2.6314,2.474 4.4982,2.947 2.8113,0.742 5.7127,0.787 8.569,1.079 1.2145,0.113 3.3962,-2.272 4.3408,-1.259 -0.0225,0.202 -0.8322,2.924 -0.8547,3.127 -0.8771,0.157 -1.7992,-0.225 -2.6089,-0.563 z"
       fill="#e4da06"
       id="path71" />
    <path
       d="m 38.8224,103.797 c -0.2024,0 -0.3824,0 -0.5848,0 0.2699,-2.541 -1.192,-4.4754 -2.519,-6.3422 -2.3165,-3.2162 -5.3303,-5.7577 -8.4341,-8.1642 -1.9342,-1.5069 -4.2733,-0.8547 -6.4324,-0.6972 -4.5207,0.3148 -9.0414,0.8771 -13.5396,1.3269 2.29408,-1.5069 5.038,-1.0795 7.557,-1.6868 2.9688,-0.7197 6.0051,-1.102 8.9964,-1.6868 1.282,-0.2474 2.474,0 3.3286,0.8996 3.6886,3.801 8.0518,6.9947 10.5033,11.8753 0.7198,1.4394 1.282,2.8784 1.417,4.4754 -0.1125,0.113 -0.2024,0.113 -0.2924,0 z"
       fill="#e2d806"
       id="path72" />
    <path
       d="m 34.1894,120.877 c 0.8774,-0.202 1.7548,-0.607 2.6097,-0.54 2.2047,0.225 2.2722,1.71 1.7322,3.42 -0.3599,1.125 -1.5523,1.192 -2.3396,1.777 -2.9472,1.237 -5.9617,2.317 -8.9313,3.465 -0.45,0.18 -0.8999,0.382 -1.3724,0.112 -0.3149,-0.945 0.54,-1.012 1.0349,-1.192 2.7446,-1.058 5.3768,-2.385 8.0314,-3.6 0.6974,-0.315 1.8673,-0.63 1.3723,-1.62 -0.4274,-0.877 -1.3948,-0.225 -2.0472,0.09 -3.4195,1.575 -6.5691,3.645 -9.8312,5.49 -0.5624,0.315 -1.0798,0.9 -1.8222,0.427 0.3824,-0.382 0.7874,-0.765 1.1698,-1.147 3.4421,-2.25 6.9066,-4.455 10.3936,-6.682 z"
       fill="#e6dc1f"
       id="path73" />
    <path
       d="m 35.928,104.387 c -0.2025,0 -0.3824,0 -0.5849,0 -1.5748,-1.89 -3.1496,-3.78 -5.1293,-5.2868 -0.5174,-0.3825 -1.0574,-0.8549 -0.9449,-1.6423 2.5872,0.045 6.8616,3.8691 7.1766,6.4121 0.0449,0.359 -0.225,0.472 -0.5175,0.517 z"
       fill="#d4ca18"
       id="path74" />
    <path
       d="m 38.8241,103.802 c 0.0899,0 0.2024,0 0.2923,0 1.7094,-1.282 0.2699,-2.587 -0.1574,-3.667 -1.9117,-4.8144 -5.5103,-8.4589 -8.9289,-12.2159 -2.8339,-3.1046 -2.2266,-6.6591 1.5294,-8.5488 1.5519,-0.7649 3.1712,-1.4174 3.9359,-3.1946 0.1125,-0.27 0.7197,-0.3375 1.1021,-0.495 0.0449,-0.1124 0.1124,-0.1349 0.2249,-0.0899 0.0899,0.0674 0.1799,0.1124 0.2924,0.1799 0.3598,0.4725 0.1124,0.9449 -0.1125,1.3499 -0.8996,1.5972 -1.7993,3.1495 -3.3961,4.2294 -2.0917,1.4173 -2.3391,2.6546 -1.2595,4.9718 0.6972,1.5073 1.7767,2.7446 2.7439,4.0495 2.519,3.3295 4.7006,6.839 5.8026,10.8887 0.225,0.81 0.3149,1.597 -0.1799,2.362 -0.2024,0.315 -0.3149,0.742 -0.2474,1.125 0.4948,2.699 0.09,5.489 0.8772,8.166 0.5397,1.777 1.5518,3.217 2.9238,4.387 1.5744,1.35 3.1487,2.722 4.9255,3.78 3.7785,2.294 6.1626,5.894 8.749,9.313 1.1246,1.508 2.2266,3.037 3.6661,4.275 2.7663,2.384 6.1625,2.789 9.5811,3.127 1.3945,0.135 2.7664,0.292 4.1384,0.607 0.5173,0.113 1.0345,0.27 1.3719,0.72 l 0.0675,-0.022 c 0.2024,0.315 0.2249,0.607 -0.09,0.855 -0.0674,0 0.0675,-0.023 0,0 -3.0138,-0.855 -6.4099,-0.743 -9.4912,-1.035 -4.2958,-0.405 -7.467,-2.52 -9.4462,-6.119 -3.3737,-6.097 -8.3442,-10.349 -14.3043,-13.724 -3.3511,-1.889 -4.7006,-4.904 -4.3632,-8.818 0.1574,-2.115 -0.1575,-4.297 -0.2474,-6.457 z"
       fill="#ede20d"
       id="path75" />
    <path
       d="m 36.8007,75.6131 c -0.0675,0.0225 -0.1574,0.0675 -0.2249,0.09 -0.4948,-0.18 -1.0121,-0.3824 -1.5069,-0.5624 -0.2474,-2.8796 -0.8996,-5.6467 -2.474,-8.1439 -2.6989,-4.2744 -6.2525,-7.8739 -9.4687,-11.7209 -1.5294,-1.8448 -3.0363,-3.712 -4.5432,-5.5568 2.1816,1.1699 3.7785,3.0596 5.5553,4.7244 3.8909,3.6445 8.4791,6.6366 11.0431,11.6084 1.5743,3.0596 2.2266,6.1642 1.6193,9.5612 z"
       fill="#902473"
       id="path76" />
    <path
       d="m 51.2293,161.075 c -0.18,0 -0.3824,0.023 -0.5623,0.023 5.3529,-4.566 10.031,-10.031 16.3959,-13.338 2.519,-1.304 5.1055,-2.833 8.1643,-2.586 -0.09,0.292 -0.18,0.585 -0.2699,0.877 -9.6487,2.272 -16.0361,9.694 -23.728,15.024 z"
       fill="#9c951f"
       id="path77" />
    <path
       d="m 76.6555,139.122 c -3.0812,-0.472 -6.14,-0.967 -9.2213,-1.395 -4.1833,-0.562 -7.0396,-3.037 -9.3787,-6.321 -1.8668,-2.61 -3.6211,-5.355 -6.0276,-7.492 -1.8892,-1.687 -3.9134,-3.262 -6.0501,-4.612 -4.4082,-2.812 -6.275,-6.951 -5.6452,-11.878 1.0346,-7.9415 -3.1713,-13.5658 -7.4895,-19.3475 -2.2266,-2.9921 -2.609,-5.2418 0.9896,-7.469 1.7543,-1.1023 2.4515,-2.9921 3.2387,-4.7918 0.8546,0.2249 1.7093,0.4499 2.564,0.6749 -0.4274,0.18 -0.9896,0.2474 -1.2595,0.5624 -4.2059,4.6119 -4.4308,8.6388 -0.9672,13.9931 2.1592,3.3071 4.0709,6.9291 4.0709,10.7759 0,3.217 0.2249,6.299 0.7197,9.426 0.6523,3.982 3.5986,6.345 6.4549,8.504 3.936,2.97 7.0622,6.614 9.9411,10.484 3.3511,4.499 7.9168,6.479 13.2472,7.131 1.7093,0.203 3.4186,0.383 5.1279,0.585 -0.0899,0.383 -0.2024,0.765 -0.3149,1.17 z"
       fill="#efe410"
       id="path78" />
    <path
       d="m 129.054,128.974 c -0.09,0 -0.203,0 -0.293,0 -0.584,-0.18 -0.967,-0.562 -1.147,-1.169 0,-0.09 0,-0.18 0,-0.293 2.654,-3.531 6.433,-4.678 10.594,-5.578 7.601,-1.664 12.639,3.307 18.42,6.433 1.889,1.012 3.621,2.316 5.42,3.486 -5.24,-1.844 -10.503,-3.576 -15.699,-5.555 -4.835,-1.822 -14.237,-1.71 -17.295,2.676 z"
       fill="#d97a0f"
       id="path79" />
    <path
       d="m 22.6077,128.682 c 3.5986,-2.002 7.1747,-4.049 10.8182,-5.938 1.0346,-0.54 2.609,-2.047 3.4411,-0.225 0.7422,1.664 -1.282,1.867 -2.3615,2.384 -2.9014,1.372 -5.8027,2.722 -8.7041,4.071 -0.4723,0.922 -1.4619,0.945 -2.2715,1.304 -0.8322,0.36 -1.7318,0.495 -2.5415,0.9 -0.7422,0.472 -1.6419,0.36 -2.4066,0.697 -0.2024,0.023 -0.3823,0.023 -0.5847,0.045 1.2595,-1.484 3.0587,-2.181 4.6106,-3.238 z"
       fill="#f0e63f"
       id="path80" />
    <path
       d="m 131.32,131.584 c -0.382,-0.494 -0.742,-0.967 -1.125,-1.461 3.644,-3.082 7.985,-2.632 12.145,-1.957 5.938,0.967 11.786,2.429 17.656,3.688 -6.725,-0.652 -13.427,-1.327 -20.152,-1.934 -2.901,-0.247 -5.825,-0.315 -8.164,1.912 -0.135,-0.068 -0.248,-0.158 -0.36,-0.248 z"
       fill="#a65c18"
       id="path81" />
    <path
       d="m 18.5596,131.876 c 0.7647,-0.292 1.5294,-0.584 2.2941,-0.899 4.8355,-1.53 9.6261,-3.261 14.5066,-4.678 3.981,-1.17 8.0068,-0.922 11.9428,0.247 1.3719,0.405 2.4965,1.394 3.4861,2.452 0.1349,0.584 -0.135,0.944 -0.6748,1.102 -0.0899,0 -0.1799,0 -0.2923,0 -7.2421,-4.161 -14.5292,-1.8 -21.8163,-0.203 -2.2716,0.495 -4.5432,1.102 -6.8148,1.642 -0.8771,0.135 -1.7543,0.225 -2.6314,0.337 z"
       fill="#aca519"
       id="path82" />
    <path
       d="m 49.7717,130.416 c 2.2491,3.127 1.8442,6.861 1.5968,10.258 -0.3598,4.905 -1.5968,9.764 -2.4515,14.646 0.5848,-5.602 1.192,-11.226 1.7318,-16.828 0.2474,-2.677 -0.4723,-5.219 -1.1695,-7.761 0.1124,-0.113 0.2024,-0.225 0.2924,-0.315 z"
       fill="#aca519"
       id="path83" />
    <path
       d="m 81.5753,120.629 c -0.7872,3.352 -0.6522,2.813 -1.4394,6.165 -0.09,0.09 -1.0346,3.824 -1.1246,3.914 -0.2249,-0.45 -0.6072,-0.585 -1.0795,-0.585 -6.1401,-0.022 -11.1331,-2.879 -15.5188,-6.726 -5.0155,-4.387 -9.4912,-9.337 -10.9981,-16.176 -0.2699,-1.237 -0.8322,-2.519 -0.1799,-3.802 0.2249,-0.45 0.6747,-1.215 0.9221,-1.17 2.7214,0.315 1.6643,-1.552 1.6643,-2.7668 0.0225,-1.9797 0,-3.9594 0.0225,-5.9392 0,-0.3149 -0.045,-0.7649 0.4049,-0.7649 0.1349,0 0.3598,0.4275 0.4273,0.6749 1.4619,6.997 6.2975,11.923 10.5708,17.188 1.012,1.237 1.8442,2.744 3.4411,3.419 0.2024,0.09 0.5173,-0.09 0.7647,-0.135 3.9359,3.352 7.6244,5.422 12.1226,6.704 z"
       fill="#f6e91f"
       id="path84" />
    <path
       d="m 62.0766,75.7706 c -0.8097,1.7097 -1.417,3.0821 -2.0692,5.0393 -0.8547,-0.2025 -0.6747,-1.0349 -0.5848,-1.5298 0.4274,-2.6547 0.4499,-5.3993 1.0571,-8.0089 0.5173,-2.2047 1.282,-4.4319 2.9463,-6.1417 1.7768,-1.8223 3.5986,-3.5995 5.5553,-5.0168 -0.9221,0.6074 -1.8218,1.4848 -2.7889,2.2722 -0.2924,0.2249 -0.6747,0.5624 -1.0121,0.2699 -0.4273,-0.3824 -0.0674,-0.8324 0.2025,-1.1248 1.147,-1.3049 2.3165,-2.5872 3.666,-3.667 6.4324,-5.0843 13.652,-7.964 21.9287,-8.009 3.2387,-0.0225 6.41,0.225 9.5365,1.0799 0.157,1.3273 -0.225,2.4972 -0.9899,3.5545 -0.6073,0.315 -1.2145,0.0675 -1.8218,-0.045 -3.666,-0.6074 -7.332,-1.1473 -11.178,-0.5174 2.2941,-0.1575 4.3857,0.2025 6.5224,0.3824 0.4498,0.2025 0.9446,0.405 0.8097,0.9899 -0.09,0.4724 -0.5623,0.6524 -0.9896,0.7424 -2.8339,0.5624 -5.4878,1.8448 -8.0743,3.1046 -1.3495,0.315 -2.6989,0.6074 -4.0484,0.8999 -0.4498,-0.7424 0.1574,-1.3723 0.5848,-1.7773 0.7647,-0.7199 1.6868,-1.2373 2.5864,-1.7997 0.4274,-0.27 0.9672,-0.4275 1.282,-1.1474 -2.9688,0.09 -5.7577,0.4949 -8.3216,1.8673 -4.3408,1.6422 -7.557,4.8143 -10.8182,7.9189 -0.3374,0.3374 -0.6972,0.6749 -0.8772,1.1248 -1.1245,3.1721 -2.0017,6.3892 -3.1037,9.5388 z"
       fill="#6d1f4b"
       id="path85" />
    <path
       d="m 100.496,50.8665 c -1.1245,0.5849 -2.1365,-0.1125 -3.1936,-0.2475 -12.55,-1.5973 -23.2107,2.0248 -31.8023,11.4285 -0.09,0.09 -0.1125,0.2475 -0.2924,0.6524 1.8668,-1.3723 3.5086,-2.5871 5.128,-3.802 0.0674,0.09 0.1124,0.18 0.1799,0.2475 -1.5519,1.3948 -3.0138,2.8796 -4.6332,4.2069 -4.2058,3.3971 -5.2853,8.1214 -5.5102,13.1157 -0.0675,1.3949 -0.9672,2.7222 -0.3599,4.1845 -0.09,0.3824 -0.2024,0.7649 -0.2924,1.1473 -0.4048,0.18 -0.7197,0.0225 -0.9896,-0.2699 -0.5623,-1.6423 -0.1124,-3.3296 -0.2924,-4.9944 -0.3598,-3.127 1.372,-5.6467 2.0917,-8.0764 -0.5623,0.495 -0.6073,1.9123 -1.8443,2.4522 -1.237,-0.6974 -0.8096,-1.7323 -0.4048,-2.6321 1.3719,-3.0371 3.1712,-5.8043 5.4653,-8.2564 2.1816,-2.3172 4.4982,-4.4544 7.0397,-6.3667 5.8926,-3.8695 12.3925,-5.9167 19.4097,-6.4116 2.564,-0.18 5.083,0.2475 7.6245,0.6074 1.057,0.1575 2.0916,0.36 3.1263,0.5174 0.247,0.09 0.337,0.2925 0.382,0.54 -0.045,0.5849 -0.135,1.1698 -0.472,1.6872 -0.113,0.135 -0.225,0.225 -0.36,0.27 z"
       fill="#83225f"
       id="path86" />
    <path
       d="m 98.3127,59.7977 -0.1349,-0.045 -0.2024,-0.045 c -0.4049,-0.5624 0.0449,-1.3048 0.1574,-1.8672 0.2474,-0.6749 0.4273,-1.3723 0.5848,-2.0698 0.1799,-0.4724 0.2024,-1.0348 0.7646,-1.2598 0.135,-0.045 0.2924,-0.0225 0.4274,0.0225 0.9444,1.0349 2.2714,1.3948 3.4864,1.9348 12.077,5.3767 19.387,14.6455 22.333,27.4463 0.225,0.9673 0.09,2.1597 1.237,2.7446 0.54,3.0146 0.383,6.0067 -0.18,8.9988 -0.09,0.5174 -0.157,1.0348 -0.247,1.5523 -0.247,0.7874 -0.18,1.6872 -0.855,2.3172 -0.225,0.1349 -0.472,0.1349 -0.697,0.0225 -0.112,-0.1125 -0.18,-0.2475 -0.225,-0.405 1.147,-5.0618 0.72,-10.1011 -0.427,-15.0955 -0.045,-0.2024 -0.023,-0.4724 -0.293,-0.6524 -0.359,2.2497 -0.359,4.5219 -1.079,6.6591 -0.225,0.63 -0.248,1.6648 -1.417,1.3274 0.09,-5.3093 -0.292,-5.5118 -0.562,-7.4915 -0.158,-1.5973 -0.113,-3.2171 -0.45,-4.8144 -1.282,-5.9617 -4.476,-10.7085 -9.087,-14.6005 -1.304,-1.0799 -2.541,-2.2947 -4.205,-2.8796 -0.855,-0.315 -1.755,-0.585 -2.474,-1.2149 -1.867,-0.8999 -3.734,-1.7997 -5.8705,-0.7649 -0.2249,0.1125 -0.4049,0.2475 -0.5848,0.18 z"
       fill="#ba1818"
       id="path87" />
    <path
       d="m 131.101,101.17 c -1.619,0.18 -1.574,1.8 -2.204,2.767 -3.284,4.949 -7.13,9.404 -12.213,12.418 -4.026,2.385 -8.434,4.252 -12.865,5.76 -1.866,0.63 -4.228,-0.225 -6.3647,-0.383 -2.294,-0.157 -5.2179,0.495 -7.4895,-0.045 2.609,-0.067 3.7785,-0.247 5.8252,-0.472 0.9446,0.09 1.8443,-0.36 2.7439,-0.585 0.135,-0.045 0.2924,-0.068 0.4273,-0.09 1.0568,-0.18 2.1138,-0.158 3.1708,-0.068 4.094,0.27 7.355,-1.484 10.301,-4.049 0.608,-0.63 1.237,-1.215 2.025,-1.642 1.754,-0.63 2.923,-1.958 4.07,-3.307 0.99,-1.17 1.935,-2.385 3.419,-2.993 0.405,-0.157 0.652,-0.54 0.922,-0.877 1.575,-2.002 3.036,-4.072 4.116,-6.389 0.18,-0.383 0.292,-0.81 0.697,-1.08 0.428,-0.2249 0.877,-0.2024 1.327,-0.09 0.697,0.383 1.755,0.113 2.092,1.125 z"
       fill="#d47213"
       id="path88" />
    <path
       d="m 62.1422,75.6358 c -0.4498,-1.2824 0.3824,-2.0923 0.5848,-3.2396 1.4169,-8.0539 7.1072,-12.2834 13.9669,-15.4554 1.0121,-0.36 2.0017,-0.8774 3.1263,-0.8999 0.5173,0 0.9896,0.045 1.2145,0.5399 0.2249,0.4725 -0.09,0.8324 -0.3824,1.1474 -1.0795,1.1923 -2.2041,2.4746 -3.3061,3.667 -1.1696,0.5849 -2.3841,1.2373 -3.5311,1.8447 -0.6748,-0.8324 0.3598,-1.7322 0.2024,-2.6321 -1.0571,0.2249 -1.7993,0.8999 -2.564,1.5073 -2.9238,2.2947 -4.9705,5.3093 -6.6123,8.5938 -0.0675,0.135 0,0.495 0.0449,0.6299 -1.147,1.4398 -1.7767,2.7447 -2.7439,4.297 z"
       fill="#4d1c2f"
       id="path89" />
    <path
       d="m 118.304,104.274 c 1.462,-2.88 1.777,-4.3643 2.474,-6.7715 0.607,0.36 1.057,0.6299 1.777,0.8099 0.45,0.1125 0.945,0.2475 1.08,0.7874 -0.36,4.2072 -2.947,7.1992 -5.466,10.2362 -3.014,3.644 -6.657,6.502 -10.908,8.549 -0.697,0.337 -1.394,0.675 -2.137,0.855 -0.472,0.112 -0.877,0.517 -1.057,-0.27 0.967,-0.563 2.115,-1.148 3.104,-1.71 1.485,-0.203 2.002,-1.507 3.104,-2.295 2.249,-1.665 4.228,-3.622 6.117,-5.669 1.192,-1.305 2.205,-2.632 1.912,-4.522 z"
       fill="#8f4816"
       id="path90" />
    <path
       d="m 121.502,91.3611 c 1.777,-1.2823 1.304,-3.352 1.709,-5.0843 0.315,-1.3273 0.27,-2.7446 0.698,-4.1619 1.845,5.5792 2.722,11.2035 1.08,17.0527 -0.18,0.1575 -0.36,0.18 -0.585,0.09 -0.495,-0.585 -0.18,-1.1924 -0.045,-1.7773 0.202,-0.8999 0.27,-1.7773 0.067,-2.6996 -0.202,-0.9674 -0.562,-0.9224 -1.237,-0.3375 -0.698,0.5849 -0.945,1.6198 -2.092,1.5523 0.337,-2.6096 0.427,-3.532 0.405,-4.6344 z"
       fill="#a01919"
       id="path91" />
    <path
       d="m 111.405,64.1621 c 2.586,1.5973 4.43,3.937 5.982,6.4566 2.519,4.0495 4.431,8.3014 3.531,13.2733 -1.484,-6.3217 -4.385,-11.8559 -8.996,-16.4678 0.495,-0.8549 0.54,-1.6423 -0.292,-2.3397 -0.203,-0.225 -0.405,-0.5399 -0.225,-0.9224 z"
       fill="#da0d1d"
       id="path92" />
    <path
       d="m 124.428,99.1675 c 0.203,0 0.383,0.0224 0.585,0.0224 0,0.09 0.022,0.18 0.022,0.27 -0.674,2.4301 -1.619,4.7241 -3.148,6.7491 -1.26,1.687 -2.182,3.622 -3.711,5.152 -3.329,3.329 -7.265,5.849 -11.471,7.896 -1.866,0.9 -4.026,0.743 -6.072,1.103 -0.338,0.067 -0.473,0.157 -0.675,-0.158 1.372,-0.562 2.744,-1.147 4.138,-1.71 2.002,0.473 3.284,-1.035 4.768,-1.867 5.803,-3.239 10.076,-8.009 13.45,-13.678 0.72,-1.215 0.113,-2.767 1.26,-3.7571 0.269,-0.2699 0.562,-0.2474 0.854,-0.0224 z"
       fill="#a65418"
       id="path93" />
    <path
       d="m 99.9516,120.202 c 6.2304,0.09 10.9084,-3.239 15.4964,-6.974 4.296,-3.509 7.197,-8.009 9.019,-13.2282 0.067,-0.225 0.382,-0.3599 0.562,-0.5399 0.18,0 0.382,0 0.562,0 0.495,-0.1125 0.967,-0.1125 1.417,0.18 0.09,0.1125 0.158,0.2249 0.18,0.3599 -0.225,1.5752 -1.192,2.8122 -1.979,4.1392 -0.09,0.158 -0.247,0.383 -0.405,0.405 -1.664,0.113 -2.024,1.597 -2.699,2.677 -1.979,3.15 -4.633,5.625 -7.512,7.897 -0.585,0.472 -1.147,0.967 -1.732,1.44 -2.024,1.574 -4.295,2.699 -6.657,3.667 -0.72,0.292 -1.462,0.405 -2.249,0.405 -1.754,-0.023 -3.531,-0.09 -5.2854,0.269 -0.6972,0.203 -1.2595,0.45 -1.9567,0.158 1.0796,-0.292 2.1816,-0.562 3.2387,-0.855 z"
       fill="#c16517"
       id="path94" />
    <path
       d="m 98.9886,55.7936 c -0.18,0.6749 -0.36,1.3723 -0.5625,2.0472 -1.6872,-0.225 -3.3745,-0.0675 -5.0168,0.3599 -2.0922,0.54 -4.2294,0.4725 -6.2991,0.6524 -0.7649,0.09 -1.5523,0.2025 -2.3172,0.315 2.2047,-2.0022 4.9718,-2.8121 7.7389,-3.442 0.36,-0.09 1.7323,0.045 0.6524,-1.0799 2.0923,-0.4274 4.0495,-0.1575 5.8043,1.1474 z"
       fill="#86235f"
       id="path95" />
    <path
       d="m 64.8701,71.3162 c 0.0225,-2.0697 1.1924,-3.9145 2.2947,-5.3768 1.5973,-2.1147 3.5095,-4.0945 5.8942,-5.4218 0.4725,-0.2699 1.3498,-0.5849 1.5523,-0.3824 0.4949,0.4724 -0.27,0.9673 -0.4049,1.5073 -0.1125,0.4499 -0.2475,1.1473 -0.3825,1.5973 -3.8245,2.3396 -6.4116,4.8593 -8.9538,8.0764 z"
       fill="#301a1b"
       id="path96" />
    <path
       d="m 77.3448,61.3952 c 0.3825,-1.5748 1.7548,-2.4522 2.6772,-3.5995 0.2924,-0.36 0.8324,-0.8549 0.7199,-1.1024 -0.225,-0.5849 -0.9224,-0.3824 -1.4173,-0.315 -0.8999,0.1125 -1.7773,0.36 -2.6547,0.5625 2.6322,-1.5748 5.5568,-1.9123 8.5264,-2.0023 0.2699,0 0.5399,0.2475 0.8324,0.3825 -0.2025,0.2475 -0.3825,0.5174 -0.6299,0.7199 -1.5523,1.2598 -3.802,1.8897 -4.6569,4.0269 -1.1474,0.45 -2.2272,0.8774 -3.3971,1.3274 z"
       fill="#5d1e3b"
       id="path97" />
    <path
       d="m 111.401,64.1623 c 0.293,0.3599 0.585,0.7199 0.9,1.0798 0.81,0.8774 1.102,1.6648 -0.36,2.1822 -3.937,-3.6895 -8.279,-6.1416 -13.7906,-7.6489 2.4076,-1.7998 4.7016,-0.6974 6.8836,0.3824 -0.809,0.6074 -1.507,-0.1575 -2.429,-0.1125 0.495,0.315 0.945,0.495 1.35,0.6974 1.619,0.8549 3.239,1.7098 4.701,2.8572 0.585,0.4049 1.125,0.8773 1.935,1.2148 -0.63,-0.9674 -1.44,-1.5073 -2.182,-2.1372 -0.45,-0.36 -1.192,-0.5624 -1.08,-1.3723 1.665,0.5174 2.947,1.5748 4.072,2.8571 z"
       fill="#dc172d"
       id="path98" />
    <path
       d="m 124.424,99.1674 c -0.293,0 -0.563,0 -0.855,0 -0.787,-0.9223 -2.565,0.225 -2.857,-1.4848 0.112,-0.4724 0.292,-1.4398 0.405,-1.9347 0.495,-0.45 0.81,-0.6974 1.35,-1.1024 0.63,-0.4724 1.012,-1.6647 1.822,-1.3498 0.787,0.315 0.675,1.5298 0.675,2.3172 -0.023,1.2148 -0.36,2.3847 -0.54,3.5545 z"
       fill="#911a14"
       id="path99" />
    <path
       d="m 118.305,104.274 c 1.35,1.935 -0.158,3.375 -1.147,4.545 -2.565,3.037 -5.602,5.624 -8.887,7.851 -0.427,0.292 -0.607,0.427 -1.08,0.09 4.837,-3.195 8.392,-7.357 11.114,-12.486 z"
       fill="#6d3917"
       id="path100" />
    <path
       d="m 87.7158,58.7178 c 3.3296,-0.4725 6.0517,-1.0124 9.3813,-1.4848 0.5399,-0.0675 1.0573,0.0225 1.3498,0.6074 -0.1125,0.5624 -0.36,1.3048 -0.4725,1.8672 -3.622,-0.8548 -6.5691,-1.1698 -10.2586,-0.9898 z"
       fill="#9d2775"
       id="path101" />
    <path
       d="m 58.7764,81.4398 c 0.2925,0.1125 0.5625,0.2475 0.8549,0.36 -0.3374,2.0472 -0.6524,4.0944 -0.9898,6.1417 l -0.135,-0.0225 c -0.7649,-0.8099 -0.7199,-1.8448 -0.7649,-2.8347 -0.045,-1.2373 -0.045,-2.4746 -0.225,-3.712 0.4724,-0.6074 0.8549,-0.3374 1.2598,0.0675 z"
       fill="#c6ae0e"
       id="path102" />
    <path
       d="m 96.7368,121.035 c 0.6974,0 1.2599,-0.18 1.9573,-0.158 -0.9449,0.495 -1.9123,0.652 -2.8796,0.36 0.2474,-0.045 0.6524,-0.157 0.9223,-0.202 z"
       fill="#c76715"
       id="path103" />
    <path
       d="m 57.5941,81.2373 c 1.2598,2.0923 0.1574,4.4994 0.8773,6.6816 0,1.4173 0,2.8347 0,4.252 -0.0675,0 -0.1574,0.0225 -0.2249,0.0225 -0.8999,-3.8245 -1.7773,-7.649 -2.6772,-11.496 0.18,0 0.36,0 0.5625,0 0.3149,-0.0675 0.6074,-0.0675 0.9223,0.0675 0.2475,0.09 0.45,0.225 0.54,0.4724 z"
       fill="#e6cf07"
       id="path104" />
    <path
       d="m 127.616,127.806 c 0.382,0.382 0.765,0.765 1.147,1.17 -1.439,2.024 -2.789,3.981 -3.036,6.679 -0.248,2.564 -2.362,3.599 -4.791,3.734 -3.913,0.202 -7.849,-0.247 -11.74,-0.405 -4.183,-0.18 -7.107,2.227 -10.0986,4.116 -5.8926,3.733 -11.1106,2.407 -16.4409,-0.787 -1.8668,-1.125 -3.8685,-1.755 -6.0051,-2.182 0.0225,-0.292 0.2024,-0.72 0.2249,-1.012 3.1937,0.427 5.8701,1.934 8.749,3.194 4.2058,1.844 8.2092,1.709 12.3475,-0.225 3.7332,-1.732 7.1072,-4.206 11.5602,-4.453 3.284,-0.203 6.59,0 9.874,-0.765 2.136,-0.495 3.598,-1.709 4.565,-3.374 1.125,-1.956 2.295,-3.868 3.644,-5.69 z"
       fill="#e98509"
       id="path105" />
    <path
       d="m 131.109,101.17 c -0.697,-0.27 -1.394,-0.54 -2.092,-0.81 -0.067,-0.6302 0.248,-1.1251 0.518,-1.62 2.609,-4.9494 3.238,-10.2587 2.811,-15.7254 -0.202,-2.6997 -0.585,-5.3768 -1.192,-8.009 -1.057,-4.6343 -2.901,-8.8638 -6.14,-12.4183 -2.047,-2.2497 -4.048,-4.5219 -6.14,-6.7041 -3.981,-4.1844 -8.772,-6.8391 -14.349,-8.1889 -1.012,-0.2474 -2.092,-0.4049 -2.969,-1.0573 -0.383,-0.5175 0.112,-0.8549 0.27,-1.2599 0.112,-0.2024 0.202,-0.4049 0.315,-0.6074 1.327,1.2373 3.103,1.1474 4.678,1.4848 7.557,1.6198 12.437,6.9516 17.25,12.3284 2.204,2.4746 4.611,4.7468 6.32,7.6489 2.339,3.937 2.969,8.3689 3.734,12.7558 0.967,5.5793 1.889,11.2035 -0.135,16.7603 -0.675,1.8447 -1.53,3.622 -2.317,5.4221 -0.18,0 -0.36,0 -0.562,0 z"
       fill="#c3161a"
       id="path106" />
    <path
       d="m 101.822,45.3773 c -0.068,0.3824 -0.157,0.7649 -0.225,1.1473 -0.067,0.2475 -0.202,0.4275 -0.427,0.5175 -0.563,0.2249 -1.147,0.135 -1.7096,-0.045 -8.3217,-2.4972 -16.1935,-0.7874 -23.9305,2.4521 -3.8459,1.6198 -7.467,3.5996 -10.3233,6.7266 -3.756,3.5096 -6.41,7.7615 -8.5691,12.3734 -0.9896,2.0922 -1.3045,4.1169 0.045,6.1641 -0.3599,1.5523 -0.7647,1.7548 -1.9792,0.8999 -1.7993,-1.2598 -2.1142,-2.0472 -1.5294,-4.1619 0.8322,-3.0596 2.0692,-5.9617 3.5985,-8.7288 1.372,-1.6423 2.3616,-3.5771 3.756,-5.1968 0.4049,-0.6525 1.0571,-1.0799 1.4395,-1.7323 0.2024,-0.2025 0.3823,-0.3825 0.5847,-0.5849 0.7647,-0.9674 1.6194,-1.8448 2.609,-2.6097 7.9618,-5.3093 16.6208,-8.6613 26.2695,-8.9313 2.9688,-0.0675 5.8477,0.8324 8.7269,1.5523 0.517,0.135 1.102,0.1125 1.664,0.1575 z"
       fill="#9f257e"
       id="path107" />
    <path
       d="m 56.7477,62.7225 c -1.0571,2.9471 -2.0242,5.9167 -3.2163,8.8188 -0.8996,2.2047 0.4723,3.2621 1.9343,4.117 0.8321,0.4949 0.7647,-0.6074 0.9896,-1.0799 -0.09,-0.5624 0.1124,-1.0573 0.4498,-1.5073 0.2474,-0.2924 0.5173,-0.6749 0.9221,-0.4949 0.4049,0.18 0.2699,0.6524 0.3374,1.0124 0.3598,2.2497 -0.8772,4.3644 -0.5173,6.6366 0.045,0.3149 -0.045,0.8099 -0.6298,0.7199 -0.2923,-0.09 -0.5847,-0.18 -0.8546,-0.27 0.5398,-1.3948 0.7197,-2.7671 -0.1575,-4.1394 -0.7646,0.1575 -0.5622,2.0247 -1.3494,1.3048 -0.9221,-0.8549 -2.7214,-1.3948 -2.609,-2.8121 0.3824,-4.4994 2.0242,-8.6164 4.7007,-12.3059 z"
       fill="#a6267d"
       id="path108" />
    <path
       d="m 60.5041,57.5256 c -1.1699,1.7998 -2.0473,3.802 -3.757,5.1968 0.9673,-1.9347 2.1597,-3.712 3.757,-5.1968 z"
       fill="#a6267d"
       id="path109" />
    <path
       d="m 65.1389,52.5988 c -0.8773,0.8774 -1.7322,1.7323 -2.6096,2.6097 0.5174,-1.2149 1.3948,-2.0923 2.6096,-2.6097 z"
       fill="#a6267d"
       id="path110" />
    <path
       d="m 61.9408,55.7706 c -0.135,0.8549 -0.8324,1.2599 -1.4398,1.7323 0.135,-0.8549 0.8324,-1.2598 1.4398,-1.7323 z"
       fill="#a6267d"
       id="path111" />
    <path
       d="m 138.505,59.5728 c -1.462,-0.045 -2.722,-0.9673 -4.004,-1.7997 -2.138,-1.3723 -4.432,-2.4972 -6.232,-4.3419 -0.472,-0.495 -0.832,-0.8774 -0.158,-1.5298 0.54,-0.5175 0.9,-0.7199 1.508,-0.09 2.609,2.6771 6.096,2.6996 9.449,3.1046 1.349,0.1574 3.239,0.0449 3.194,1.8897 -0.045,1.9347 -1.687,2.7221 -3.757,2.7671 z"
       fill="#e8415c"
       id="path112" />
    <path
       d="m 124.803,40.9229 c 0,1.3273 -0.472,2.6321 -0.135,3.9819 0.113,0.4275 -0.135,1.1924 -0.472,1.3948 -0.472,0.2925 -0.967,-0.2249 -1.305,-0.6299 -1.485,-1.7322 -3.937,-2.9021 -3.644,-5.6917 0.225,-2.1372 1.597,-3.3071 3.689,-3.577 1.17,-0.1575 1.395,0.7424 1.507,1.6648 0.09,0.9673 0.225,1.9122 0.36,2.8571 z"
       fill="#e73a55"
       id="path113" />
    <path
       d="m 54.7276,133.61 c 1.192,2.497 1.4844,5.107 0.8546,7.807 -2.3166,3.982 -3.7335,8.324 -4.9255,12.733 -0.3599,0.72 -0.7197,1.44 -1.0571,2.16 1.237,-8.009 3.5086,-15.928 2.2266,-24.162 0.9221,0.135 0.8322,0.967 0.9671,1.552 0.4499,2.092 0.3149,4.207 0.3599,6.322 0.0225,0.585 -0.1799,1.237 0.3598,1.867 0.8547,-0.765 1.2146,-1.71 1.3045,-2.79 0.09,-1.259 -0.0225,-2.497 -0.2924,-3.734 -0.1124,-0.585 -0.3373,-1.215 0.2025,-1.755 z"
       fill="#dbd220"
       id="path114" />
    <path
       d="m 54.7242,133.61 c 0.225,2.565 1.3723,5.175 -0.1125,7.717 -0.3599,0.607 -0.6524,1.552 -1.4623,1.35 -0.8099,-0.203 -0.4274,-1.148 -0.4499,-1.778 -0.1575,-2.924 0.3824,-5.916 -0.8774,-8.728 -0.5849,-0.675 -1.1473,-1.35 -1.7323,-2.025 0.2025,-0.293 0.405,-0.563 0.6075,-0.855 0.1124,-0.225 0.2249,-0.45 0.5624,-0.315 1.8672,0.99 2.5871,2.88 3.4645,4.634 z"
       fill="#ece334"
       id="path115" />
    <path
       d="m 51.2418,128.952 c -0.1799,0.112 -0.3824,0.225 -0.5623,0.315 -5.8252,-4.633 -12.1001,-3.599 -18.5101,-1.53 -3.7335,1.192 -7.557,2.159 -11.313,3.239 1.6419,-0.675 3.2837,-1.349 4.9481,-2.002 3.4636,-1.259 6.9497,-2.496 10.4133,-3.756 0.8547,-0.315 1.7093,-0.652 2.564,-0.944 4.5207,-1.462 8.4116,-0.045 12.0102,2.676 0.4498,0.337 0.9221,0.742 0.7647,1.44 -0.1125,0.202 -0.2025,0.382 -0.3149,0.562 z"
       fill="#c6be0b"
       id="path116" />
    <path
       d="m 51.5519,128.391 c -3.397,-3.487 -7.379,-5.107 -12.2608,-3.802 -1.0124,0.27 -2.0473,0.405 -3.0821,0.607 0.7649,-0.472 1.5523,-0.967 2.3172,-1.439 0.045,0 0.1125,0 0.135,-0.023 4.7468,-5.129 8.0764,-0.022 11.7659,1.755 0.8549,0.427 3.1945,1.035 1.1248,2.902 z"
       fill="#d5cb01"
       id="path117" />
    <path
       d="m 59.3346,118.56 c -2.1372,-1.98 -3.7795,-4.297 -4.6119,-7.109 -0.135,-0.45 -0.4274,-1.102 0.2025,-1.44 0.5399,-0.292 1.0348,0.135 1.3948,0.495 3.1496,3.15 6.2541,6.322 9.3812,9.494 -0.1575,0.18 -0.3374,0.225 -0.5624,0.225 -0.8324,-0.158 -1.2598,-0.81 -1.7323,-1.395 -0.6974,-0.922 -1.4398,-1.822 -2.5196,-2.317 -0.5625,-0.293 -0.9674,-0.72 -1.2824,-1.26 -0.5624,-0.855 -1.4173,-1.417 -2.1147,-2.137 -0.2024,-0.203 -0.4499,-0.473 -0.7424,-0.315 -0.3824,0.225 -0.2024,0.607 -0.0675,0.9 0.6974,1.417 1.5973,2.722 2.6322,3.914 0.09,0.113 0.135,0.248 0.18,0.36 0.0674,0.248 0.0225,0.428 -0.1575,0.585 z"
       fill="#f7ea36"
       id="path118" />
    <path
       d="m 65.992,120.292 c 2.4747,1.935 4.9494,3.869 7.4015,5.849 0.2025,0.158 0.3825,0.653 0.27,0.855 -0.225,0.45 -0.7424,0.63 -1.2373,0.495 -3.0146,-0.855 -5.8942,-2.002 -8.1664,-4.297 0.045,-0.045 0.1124,-0.09 0.1574,-0.135 0.6974,-0.135 1.1249,0.405 1.6648,0.698 1.4173,0.742 2.7446,1.687 4.5219,1.687 -0.7424,-1.373 -2.0247,-2.205 -3.2396,-3.082 -0.4274,-0.225 -0.7874,-0.54 -1.0573,-0.945 -0.18,-0.36 -0.5174,-0.675 -0.315,-1.125 z"
       fill="#f7ea36"
       id="path119" />
    <path
       d="m 59.333,118.56 c 0,-0.203 0,-0.383 0,-0.585 1.4623,0.112 1.9797,1.462 2.9021,2.25 0.5399,0.45 1.2823,0.877 1.1249,1.799 -0.18,0.158 -0.3825,0.158 -0.5625,0 -0.0899,-0.09 -0.2024,-0.18 -0.2924,-0.292 -1.0799,-0.855 -2.0472,-1.822 -2.9021,-2.902 -0.0675,-0.068 -0.1575,-0.18 -0.27,-0.27 z"
       fill="#f7ea3a"
       id="path120" />
    <path
       d="m 59.6309,118.852 c 0.9673,0.968 1.9347,1.935 2.9021,2.903 -1.3049,-0.63 -2.2722,-1.598 -2.9021,-2.903 z"
       fill="#f7ea36"
       id="path121" />
    <path
       d="m 65.9848,120.292 c 0.2024,0.292 0.3824,0.585 0.5849,0.877 -1.0124,0.27 -1.4173,-0.225 -1.4398,-1.17 0.2025,0 0.3824,0 0.5849,0 0.09,0.113 0.18,0.203 0.27,0.293 z"
       fill="#f7ea3a"
       id="path122" />
    <path
       d="m 62.8223,122.024 c 0.2024,0 0.3824,0 0.5849,0 0.0675,0 0.135,0.023 0.2025,0.023 0.4274,0.27 0.8548,0.495 0.6524,1.125 -0.7199,-0.068 -1.0799,-0.608 -1.4398,-1.148 z"
       fill="#f7ea36"
       id="path123" />
    <path
       d="m 99.8384,54.6461 c -0.1124,-0.0225 -0.2024,-0.0225 -0.3149,-0.045 -0.09,-0.045 -0.135,-0.1125 -0.1125,-0.18 0.0225,-0.0675 0.045,-0.09 0.09,-0.09 0.2925,-1.1473 0.585,-2.2947 0.877,-3.4645 0.023,-0.09 0.045,-0.18 0.068,-0.2925 0.54,-0.2249 1.035,-0.045 1.552,0.09 4.77,1.1924 8.909,3.577 12.733,6.5916 0.495,0.3825 0.945,0.8324 1.238,1.3948 0.18,0.3375 0.36,0.7199 0.112,1.0799 -0.292,0.4499 -0.765,0.3825 -1.17,0.2025 -1.327,-0.5624 -2.699,-1.0124 -4.072,-1.5073 -1.619,-0.5849 -3.217,-1.2824 -4.971,-1.3948 -2.07,-0.6075 -4.14,-1.2824 -6.0296,-2.3847 z"
       fill="#8d1914"
       id="path124" />
    <path
       d="m 99.5302,54.331 c 0.0225,0.09 -0.18,0.36 -0.18,0.4499 -0.18,0.405 -0.1575,0.63 -0.3599,1.0124 -1.9348,-0.3824 -3.8695,-0.7649 -5.8043,-1.1473 -2.7446,-0.1575 -5.4892,-0.315 -8.2339,-0.4725 4.9494,-1.4848 9.7637,-0.8549 14.5781,0.1575 z"
       fill="#912e50"
       id="path125" />
    <path
       d="m 105.892,56.6708 c 3.059,0.2925 5.78,1.7323 8.637,2.6996 0.427,0.135 0.922,0.7424 1.282,0.27 0.359,-0.4949 -0.203,-0.9899 -0.563,-1.3048 -3.778,-3.3746 -8.096,-5.8267 -13,-7.1766 -0.607,-0.1574 -1.192,-0.3824 -1.776,-0.5849 0.18,-0.4949 0.36,-0.9898 0.539,-1.4623 4.206,1.1699 8.255,2.6772 11.853,5.1743 9.289,6.4567 14.754,15.298 16.261,26.5015 0.72,5.3092 0.428,10.5735 -1.619,15.6129 -0.225,0.5624 -0.36,1.3723 -1.282,1.2598 -0.023,0 -0.045,-0.0675 -0.045,-0.1125 0,-0.045 0,-0.09 0.022,-0.135 0.36,-3.1496 0.788,-6.2991 0.563,-9.4937 -0.023,-0.4949 -0.18,-0.9899 -0.27,-1.4848 -0.607,-0.6524 -0.495,-1.5523 -0.63,-2.3172 -0.562,-3.5995 -1.687,-6.9965 -3.261,-10.2811 -0.203,-0.4274 -0.428,-0.8549 -0.36,-1.3723 0.675,-0.9899 1.237,0.2924 1.867,0.09 0.27,-2.3622 -3.981,-8.2564 -6.41,-8.8638 -0.248,0.6524 0.607,1.2373 0.157,1.9122 -0.652,0.225 -0.989,-0.2475 -1.349,-0.6074 -2.744,-2.9246 -5.96,-5.2643 -9.491,-7.1766 -0.473,-0.2474 -1.125,-0.4049 -1.125,-1.1473 z"
       fill="#a01919"
       id="path126" />
    <path
       d="m 64.8418,56.0605 c 2.8114,-3.4861 6.6573,-5.4428 10.6832,-7.0622 5.3529,-2.1366 10.8182,-4.0934 16.7333,-3.5986 3.0363,0.2474 6.0276,0.9222 9.0637,1.417 0.18,0.1349 0.248,0.3149 0.27,0.5398 0.023,0.2024 0,0.4048 -0.067,0.6072 -0.113,0.2474 -0.248,0.4948 -0.54,0.5848 -2.3617,0.5398 -4.5883,-0.4723 -6.8824,-0.6747 -7.6469,-0.6298 -14.5742,1.3944 -21.1865,4.948 -0.7647,0.4048 -1.5069,0.8097 -2.2491,1.2145 -1.1696,0.6522 -2.1367,1.5519 -3.3062,2.1816 -0.8772,0.4498 -1.7768,0.9671 -2.519,-0.1574 z"
       fill="#922473"
       id="path127" />
    <path
       d="m 101.116,48.5718 c 0.112,-0.2024 0.045,-0.4049 0.157,-0.6074 2.092,0.8549 4.319,1.3273 6.41,2.1822 5.533,2.2497 9.784,6.1642 13.81,10.4386 4.925,5.2643 7.647,11.5635 8.614,18.56 0.944,6.7266 0.54,13.4532 -2.429,19.7749 -0.158,0.3374 -0.315,0.7199 -0.697,0.8998 -0.473,-0.1124 -0.945,-0.2474 -1.417,-0.3599 0.202,-0.6749 0.382,-1.3498 0.584,-2.0022 1.237,-0.45 1.215,-1.7098 1.462,-2.6322 3.149,-12.1259 0.743,-23.1494 -7.062,-32.8456 -4.835,-6.0067 -11.02,-10.2361 -18.622,-12.1033 -0.383,-0.09 -0.9,-0.1575 -0.922,-0.7424 -0.023,-0.2025 0.112,-0.3825 0.112,-0.5625 z"
       fill="#a21917"
       id="path128" />
    <path
       d="m 64.8432,56.0634 c 1.5968,0.8999 2.564,-0.5399 3.756,-1.0573 0.6747,-0.2925 1.1695,-1.0124 2.0242,-0.9674 -3.2162,2.9021 -6.6574,5.6017 -9.0864,9.2687 -1.1245,1.7098 -2.0917,3.5321 -3.1038,5.3093 -0.4048,0.7199 -0.3373,1.4623 0.045,2.2047 0.2474,0.6525 -0.1124,1.1249 -0.5622,1.4173 -0.4724,0.315 -0.6973,0.7199 -0.8772,1.1924 -0.2024,0.3824 -0.3823,0.7649 -0.5848,1.1473 -1.3044,-1.0573 -1.5069,-2.5421 -1.0121,-3.9144 1.9792,-5.5793 4.9481,-10.5961 9.4013,-14.6006 z"
       fill="#932471"
       id="path129" />
    <path
       d="m 57.044,73.4309 c -0.09,-1.1924 1.2373,-1.5973 1.4398,-2.6097 0.9449,-1.3048 1.9122,-2.6096 2.8571,-3.9145 -2.4972,4.5894 -2.9246,9.4938 -2.5871,14.5331 -0.3825,-0.0675 -0.7649,-0.135 -1.1474,-0.2025 -0.2025,-0.09 -0.4049,-0.2025 -0.5849,-0.2924 0.2924,-2.6772 0.5624,-5.3543 0.8774,-8.3014 -0.3825,0.3599 -0.6299,0.5849 -0.8549,0.7874 z"
       fill="#98266c"
       id="path130" />
    <path
       d="m 122.396,72.2612 c 2.025,4.5219 3.914,9.1113 4.049,14.1731 -0.922,0.4724 -0.697,-0.495 -0.742,-0.7199 -0.743,-3.4871 -1.687,-6.8841 -3.194,-10.1237 -4.026,-8.6163 -10.391,-14.803 -19.05,-18.6949 -1.282,-0.5625 -2.969,-0.6075 -3.6211,-2.2497 2.0241,0.6749 4.0261,1.3498 6.0501,2.0247 4.386,2.4297 8.412,5.3318 11.875,8.9538 2.137,1.7997 3.779,3.9594 4.633,6.6366 z"
       fill="#cd2e18"
       id="path131" />
    <path
       d="m 107.335,61.2827 c 1.103,0.9449 2.25,1.8898 3.307,2.8796 0.338,0.315 1.058,0.6974 0.563,1.2374 -0.36,0.3824 -0.833,-0.18 -1.215,-0.4275 -0.518,-0.3374 -1.013,-0.7199 -1.507,-1.0573 0.067,-0.0675 0.112,-0.135 0.202,-0.2025 -1.35,-1.3723 -2.767,-2.6097 -4.859,-2.6547 -0.788,-0.2474 -1.53,-0.5399 -2.138,-1.2823 1.26,-0.5849 2.228,0.4275 3.33,0.405 0.787,0.3374 1.552,0.7199 2.317,1.1023 z"
       fill="#e84863"
       id="path132" />
    <path
       d="m 101.352,47.4021 c 0,-0.2025 0.157,-0.2925 0.135,-0.4949 0.089,-0.09 0.022,-0.2925 0.112,-0.3825 8.322,1.5073 15.069,5.5343 20.467,12.1034 2.924,3.5545 6.41,6.7041 7.917,11.2035 3.306,9.9211 4.723,19.8873 -0.383,29.7185 -0.157,0.2924 -0.382,0.5399 -0.562,0.8099 -0.472,-0.023 -0.922,-0.045 -1.394,-0.068 -0.09,-0.134 -0.113,-0.269 -0.068,-0.427 1.395,-3.3295 2.811,-6.7041 3.171,-10.3261 1.035,-10.9785 -1.237,-20.9671 -9.131,-29.1785 -1.799,-1.8673 -3.621,-3.7345 -5.555,-5.4893 -3.599,-3.2396 -7.85,-5.1518 -12.483,-6.3666 -0.832,-0.18 -1.777,-0.1575 -2.226,-1.1024 z"
       fill="#b51819"
       id="path133" />
    <path
       d="m 127.62,100.045 c 0,0.09 0.022,0.157 0,0.247 -1.373,3.51 -2.993,6.749 -6.322,8.954 -1.507,0.99 -2.587,2.655 -3.87,4.004 -0.81,0.833 -1.664,1.575 -2.834,1.845 3.172,-3.397 6.299,-6.794 9.089,-10.573 1.034,-1.395 2.182,-3.015 3.329,-4.455 0.203,-0.2023 0.405,-0.1798 0.608,-0.022 z"
       fill="#c76715"
       id="path134" />
    <path
       d="m 98.6934,120.877 c 0.6749,-0.18 1.3726,-0.562 2.0246,-0.495 4.657,0.563 8.324,-1.867 12.148,-3.847 -3.194,3.105 -6.929,4.725 -11.428,4.342 -0.922,-0.067 -1.8448,0 -2.7446,0 z"
       fill="#c76715"
       id="path135" />
    <path
       d="m 127.611,100.045 c -0.202,0 -0.382,0 -0.584,0 0,-0.09 -0.023,-0.1575 -0.023,-0.2475 1.777,-4.4769 3.171,-9.0663 3.149,-13.9256 -0.045,-6.8841 -1.102,-13.6557 -4.926,-19.5274 -5.465,-8.4364 -12.55,-14.9605 -22.671,-17.4351 -0.539,-0.135 -1.169,-0.2025 -1.282,-0.9449 0.023,-0.18 0.045,-0.36 0.068,-0.5399 4.363,1.3048 8.884,2.3621 12.55,5.2418 8.546,6.7266 15.474,14.5555 17.116,25.894 1.057,7.3115 0.247,14.3755 -2.857,21.1021 -0.09,0.1575 -0.36,0.2475 -0.54,0.3825 z"
       fill="#b11918"
       id="path136" />
    <path
       d="m 103.842,61.0126 c 0.382,-0.7424 0.832,-0.6749 2.924,0.5399 1.643,0.9449 2.475,1.8223 2.138,2.2722 -0.045,0.0675 -0.27,0.0225 -0.405,0.045 -1.553,-0.9449 -3.105,-1.8897 -4.657,-2.8571 z"
       fill="#ee7d9a"
       id="path137" />
    <path
       d="m 136.227,55.501 c 0.675,0.0675 1.777,0.1575 2.857,0.3374 0.698,0.1125 1.373,0.4725 1.373,1.2599 0,0.7874 -0.675,1.1923 -1.373,1.2598 -1.979,0.2025 -3.554,-0.6299 -4.769,-2.1372 -0.495,-0.6299 -0.338,-0.7424 1.912,-0.7199 z"
       fill="#ea516d"
       id="path138" />
    <path
       d="m 123.862,40.2252 c -0.518,1.0124 0.09,2.9246 -1.463,2.8797 -1.17,-0.0225 -2.092,-1.3949 -2.024,-2.9022 0.067,-1.1923 0.629,-2.0472 1.912,-2.0472 1.327,0 1.282,1.1924 1.575,2.0697 z"
       fill="#ea516c"
       id="path139" />
    <path
       d="m 65.1424,120 c 0.36,0.539 0.7199,1.079 1.4398,1.169 0.2925,0.293 0.5849,0.585 0.8774,0.855 0.5849,0.36 1.0124,0.878 1.4848,1.35 0.315,0.315 0.6299,0.652 0.36,1.125 -0.2925,0.517 -0.7874,0.517 -1.2599,0.36 -1.4623,-0.518 -2.7446,-1.372 -3.9594,-2.317 -0.225,-0.18 -0.4275,-0.383 -0.6749,-0.54 -1.3499,-1.35 -2.6997,-2.7 -4.0495,-4.05 -0.6299,-0.787 -1.2373,-1.597 -1.7098,-2.497 -0.2249,-0.45 -0.4499,-0.922 -0.0225,-1.305 0.495,-0.45 0.9899,-0.225 1.4173,0.18 0.27,0.27 0.6075,0.473 0.8999,0.743 0.3825,0.382 0.7649,0.765 1.1474,1.147 0.9898,0.652 1.6198,1.665 2.6096,2.317 0.4725,0.518 0.9449,0.99 1.4398,1.463 z"
       fill="#f7ec55"
       id="path140" />
    <path
       d="m 59.9206,115.096 c -0.8099,0.067 -1.3948,-1.485 -2.0472,-0.653 -0.6074,0.787 0.4724,1.642 0.8549,2.475 0.18,0.382 0.4049,0.72 0.6074,1.08 -1.4848,-1.305 -2.5422,-2.925 -3.1946,-4.792 -0.1349,-0.383 -0.2249,-0.81 0.225,-0.99 0.2475,-0.09 0.6974,-0.023 0.8774,0.157 0.9449,0.878 1.7997,1.8 2.6771,2.723 z"
       fill="#f7ea3a"
       id="path141" />
    <path
       d="m 63.6731,118.56 c -1.1923,-0.405 -1.8222,-1.44 -2.6096,-2.317 1.2148,0.382 1.8447,1.439 2.6096,2.317 z"
       fill="#f7ea3a"
       id="path142" />
    <path
       d="m 63.3994,122.024 c 1.2149,0.743 2.3847,1.553 3.6445,2.205 0.5849,0.293 1.4623,0.855 1.9573,0.135 0.4499,-0.63 -0.495,-0.99 -0.8324,-1.462 -0.225,-0.315 -0.495,-0.585 -0.7199,-0.878 1.4398,0.698 2.5196,1.823 3.6445,2.925 0.2474,0.248 0.4949,0.54 0.1575,0.855 -0.3825,0.382 -0.9224,0.36 -1.3499,0.157 -1.8897,-0.899 -3.757,-1.844 -5.6242,-2.789 -0.315,-0.36 -0.5849,-0.765 -0.8774,-1.148 z"
       fill="#f7ea3a"
       id="path143" />
    <path
       d="m 122.396,72.261 c -1.552,-2.2272 -3.082,-4.4319 -4.634,-6.6591 0.157,-0.8999 -1.53,-1.8222 -0.428,-2.4522 0.9,-0.5174 1.957,0.585 2.61,1.3724 1.462,1.7547 3.059,3.4195 3.982,5.5792 0.427,1.0124 1.35,2.1597 0.562,3.0371 -0.742,0.8324 -1.17,-0.9899 -2.092,-0.8774 z"
       fill="#b6242e"
       id="path144" />
  </g>
  <defs
     id="defs144">
    <clipPath
       id="clip0_10411_41074">
      <rect
         width="168.75"
         height="168.75"
         fill="#ffffff"
         transform="translate(5.625,5.625)"
         id="rect144"
         x="0"
         y="0" />
    </clipPath>
  </defs>
</svg>
