<?xml version="1.0" encoding="UTF-8" standalone="no"?>
<svg
   viewBox="0 0 100 18.884443"
   version="1.1"
   id="svg1"
   sodipodi:docname="ESPN2.svg"
   width="100"
   height="18.884443"
   inkscape:version="1.4.2 (f4327f4, 2025-05-13)"
   inkscape:export-filename="ESPN2.png"
   inkscape:export-xdpi="300"
   inkscape:export-ydpi="300"
   xmlns:inkscape="http://www.inkscape.org/namespaces/inkscape"
   xmlns:sodipodi="http://sodipodi.sourceforge.net/DTD/sodipodi-0.dtd"
   xmlns="http://www.w3.org/2000/svg"
   xmlns:svg="http://www.w3.org/2000/svg">
  <defs
     id="defs1" />
  <sodipodi:namedview
     id="namedview1"
     pagecolor="#ffffff"
     bordercolor="#000000"
     borderopacity="0.25"
     inkscape:showpageshadow="2"
     inkscape:pageopacity="0.0"
     inkscape:pagecheckerboard="0"
     inkscape:deskcolor="#d1d1d1"
     inkscape:zoom="9.24"
     inkscape:cx="50.054113"
     inkscape:cy="9.469697"
     inkscape:window-width="1920"
     inkscape:window-height="974"
     inkscape:window-x="-11"
     inkscape:window-y="-11"
     inkscape:window-maximized="1"
     inkscape:current-layer="svg1" />
  <path
     fill="#cc0000"
     d="m 83.871561,0.218652 h 13.418778 c 0,0 2.903341,-0.141893 2.699398,2.237354 l -0.698753,6.90731 c 0,0 -0.247409,2.066174 -2.229997,2.066174 h -7.990558 l -0.214636,2.201247 H 98.872395 L 98.38126,18.418383 H 81.731494 l 1.022392,-8.619094 c 0,0 0.1237,-2.488105 2.361054,-2.488105 h 7.92369 L 93.209604,5.132001 H 83.286615 M 17.596931,11.97044 18.179004,7.240974 H 1.2149649 L 0,18.882439 H 16.776812 L 17.40255,13.527763 H 7.3324505 L 7.5798568,11.97044 H 17.60315 Z m 1.384137,-4.727462 c -0.09094,0.480173 -0.149179,1.498478 0.178266,2.742863 0.516611,1.873603 2.506826,1.767952 2.506826,1.767952 l 9.147342,-0.10912 -0.327379,1.888309 -12.149648,0.04728 -0.538276,5.303854 h 15.412736 c 1.192899,0 2.772286,-0.952847 3.532559,-3.190201 0.127313,-0.45837 0.658435,-5.358683 0.647535,-5.686336 -0.05817,-1.265777 -0.760273,-2.284826 -1.744548,-2.764928 z m 38.140669,0 -1.22232,11.641465 h 6.479368 L 63.79368,7.242978 Z m 12.283382,0 -1.22232,11.641465 h 6.50812 L 76.091773,7.242978 Z m 7.020986,-1.899009 0.01458,-3.182844 C 76.240085,0.872603 75.303954,0.131058 73.83289,0 H 57.958773 L 57.391277,5.343969 H 76.454925 Z M 37.202867,18.884443 h 6.53754 l 0.724165,-7.281762 h 8.946742 C 55.481502,11.29349 56.376176,8.958104 56.423651,7.240974 L 38.434548,7.241766 Z M 56.620907,1.738529 C 56.045855,0.730845 55.35713,0.131058 54.086666,0 h -31.18655 c -1.203598,0.108993 -1.865577,0.541885 -2.734842,1.640236 -0.702098,0.851876 -0.909385,2.91805 -0.969564,3.703733 h 37.538202 c 0.09829,-0.785683 0.298225,-2.877264 -0.113005,-3.60544 M 19.058633,0 H 1.9942943 L 1.4340865,5.343969 H 18.425541 Z"
     id="path1"
     style="stroke-width:0.0668665;fill:#ffffff" />
</svg>
