<?xml version="1.0" encoding="UTF-8" standalone="no"?>
<svg
   width="100"
   height="24.692015"
   version="1.1"
   id="svg1"
   sodipodi:docname="ESPN.svg"
   inkscape:version="1.4.2 (f4327f4, 2025-05-13)"
   inkscape:export-filename="ESPN.png"
   inkscape:export-xdpi="300"
   inkscape:export-ydpi="300"
   xmlns:inkscape="http://www.inkscape.org/namespaces/inkscape"
   xmlns:sodipodi="http://sodipodi.sourceforge.net/DTD/sodipodi-0.dtd"
   xmlns="http://www.w3.org/2000/svg"
   xmlns:svg="http://www.w3.org/2000/svg">
  <defs
     id="defs1" />
  <sodipodi:namedview
     id="namedview1"
     pagecolor="#ffffff"
     bordercolor="#000000"
     borderopacity="0.25"
     inkscape:showpageshadow="2"
     inkscape:pageopacity="0.0"
     inkscape:pagecheckerboard="0"
     inkscape:deskcolor="#d1d1d1"
     inkscape:zoom="9.67"
     inkscape:cx="50"
     inkscape:cy="12.357808"
     inkscape:window-width="1920"
     inkscape:window-height="974"
     inkscape:window-x="-11"
     inkscape:window-y="-11"
     inkscape:window-maximized="1"
     inkscape:current-layer="svg1" />
  <path
     d="M 32.610013,1.0461546e-5 C 28.885009,-0.00522985 26.418062,1.9586725 26.071021,4.8946808 a 289.21974,289.21974 0 0 1 -0.250173,2.0347516 h 48.466926 c 0,0 0.09105,-0.7152385 0.161952,-1.2893157 C 74.814125,2.6824134 73.557522,3.7728408e-4 68.986586,3.7728408e-4 v 3.5372173e-4 c 0,0 -34.412854,0.001310084 -36.376573,-7.20544264e-4 z M 3.0312643,9.1441708e-4 2.180629,6.9294324 h 21.97981 L 25.007812,0.00109783 H 3.0308974 3.0312643 Z m 73.7812967,0 L 75.963734,6.9294324 H 99.79157 c 0,0 0.02895,-0.2505267 0.134493,-1.0660911 C 100.50592,1.315554 97.5719,9.1441708e-4 94.739113,9.1441708e-4 Z M 75.63548,9.5675546 73.778769,24.688792 81.999498,24.686192 83.857663,9.570745 75.63548,9.568125 Z m 15.617234,0 -1.859607,15.1212374 8.220729,-0.0026 1.858166,-15.115447 -8.219288,-0.00262 z M 1.8599737,9.5701747 0,24.689958 h 21.978356 l 0.809787,-6.559233 -13.7623172,-0.0013 0.3481277,-2.828463 H 23.13086 L 23.835081,9.5706595 H 1.861048 Z m 23.6384113,0 c -0.603004,3.9462373 1.372296,5.7301083 4.17182,5.7301083 1.522681,0 11.120055,-0.0039 11.120055,-0.0039 l -0.347053,2.832787 -15.994655,0.0013 -0.805437,6.559233 c 0,0 17.41321,0.0052 18.118884,0 0.58275,-0.04192 4.656249,-0.15328 6.042996,-3.484958 0.449724,-1.081642 0.847373,-4.959913 0.95873,-5.774036 0.64059,-4.728552 -2.633249,-5.8559159 -5.21154,-5.8559159 -1.42145,0 -15.247044,-0.00393 -18.0538,-0.00393 z m 25.586226,0 -1.856712,15.1197833 h 8.216393 l 1.15684,-9.389137 h 10.320382 c 2.926786,0 4.500074,-1.573643 4.792183,-3.686855 A 77.899978,77.899978 0 0 0 73.966752,9.5705285 H 51.084611 Z"
     fill="#e52534"
     id="path1"
     style="stroke-width:0.180754;fill:#ffffff" />
</svg>
