<?xml version="1.0" encoding="UTF-8" standalone="no"?>
<svg
   height="100"
   viewBox="0 0 3.8477583 3.821465"
   width="99.997757"
   version="1.1"
   id="svg27"
   inkscape:version="1.4.2 (f4327f4, 2025-05-13)"
   sodipodi:docname="Food_Network_logo.svg"
   xmlns:inkscape="http://www.inkscape.org/namespaces/inkscape"
   xmlns:sodipodi="http://sodipodi.sourceforge.net/DTD/sodipodi-0.dtd"
   xmlns="http://www.w3.org/2000/svg"
   xmlns:svg="http://www.w3.org/2000/svg">
  <sodipodi:namedview
     id="namedview1"
     pagecolor="#ffffff"
     bordercolor="#000000"
     borderopacity="0.25"
     inkscape:showpageshadow="2"
     inkscape:pageopacity="0.0"
     inkscape:pagecheckerboard="0"
     inkscape:deskcolor="#d1d1d1"
     inkscape:zoom="7.35"
     inkscape:cx="49.863946"
     inkscape:cy="50"
     inkscape:window-width="1920"
     inkscape:window-height="974"
     inkscape:window-x="-11"
     inkscape:window-y="-11"
     inkscape:window-maximized="1"
     inkscape:current-layer="svg27" />
  <defs
     id="defs31" />
  <clipPath
     id="a">
    <path
       d="M 332.977,317.146 H 374.1 v 27.482 h -41.123 z"
       id="path2" />
  </clipPath>
  <path
     id="path5"
     style="display:inline;fill:#ffffff;fill-opacity:1;stroke-width:0.140083"
     d="M 1.9258353,-0.01318871 C 0.86330961,-0.01430938 9.8138926e-4,0.84607025 8.0832391e-7,1.908736 -2.7935562e-4,2.2177581 0.07227922,2.5095568 0.20143524,2.7684292 c 0.0383826,-0.01737 0.0711577,-0.046106 0.0942713,-0.083648 l 0.001261,-0.00182 c 5.6029e-4,-8.418e-4 0.001261,-0.00182 0.001821,-0.0028 0.0112063,-0.017507 0.020466,-0.036698 0.0281706,-0.058129 0.007284,-0.019891 0.0137005,-0.042282 0.019725,-0.068757 8.405e-4,-0.00448 0.14683166,-0.7987757 0.15565686,-0.8462636 l -0.12748489,1.402e-4 0.0626085,-0.2116703 0.0998817,-4.203e-4 0.0105057,-0.055059 c 0.001258,-0.00756 0.002382,-0.014976 0.003785,-0.02268 l 0.003069,-0.017786 c 0.005884,-0.03376 0.0127611,-0.072428 0.0194869,-0.099463 0.005324,-0.022694 0.010646,-0.04132 0.0165325,-0.05855 0.008264,-0.025916 0.016936,-0.048907 0.0263216,-0.069919 0.0149887,-0.033059 0.0319457,-0.062037 0.0514172,-0.088513 0.0207322,-0.028156 0.0437029,-0.053229 0.0704587,-0.076903 0.0193312,-0.0169499 0.0404936,-0.0329223 0.0629068,-0.0472105 0.023814,-0.0154092 0.0497265,-0.0287309 0.0769025,-0.0400775 0.0295574,-0.0119069 0.0602215,-0.0211427 0.0908996,-0.0273063 0.0337596,-0.006864 0.0686516,-0.0103523 0.1036724,-0.0103523 h 0.00433 c 0.034741,0 0.067516,0.003347 0.097493,0.009792 0.011907,0.002382 0.022987,0.005743 0.033633,0.009106 l 0.00182,4.209e-4 -0.069771,0.22387553 -0.00293,-0.0017 c -0.0014,-8.418e-4 -0.00282,-0.00154 -0.00436,-0.00224 -0.010507,-0.00505 -0.02226,-0.00896 -0.034588,-0.011486 -0.013027,-0.00266 -0.02704,-0.0042 -0.041749,-0.0042 h -0.0014 c -0.015409,0 -0.030544,0.0016 -0.044972,0.00454 -0.0128875,0.00266 -0.0253495,0.00631 -0.038377,0.011486 l -0.001667,5.599e-4 c -6.9887e-4,2.801e-4 -0.001414,4.208e-4 -0.002117,6.988e-4 -0.009666,0.00364 -0.0189139,0.00827 -0.0284397,0.013855 -0.009106,0.00574 -0.0179069,0.012187 -0.0261713,0.019339 -0.015129,0.012748 -0.0280333,0.027757 -0.03966,0.045688 -0.0109263,0.017231 -0.0198987,0.035846 -0.0276033,0.056998 -0.007003,0.019331 -0.0132799,0.041189 -0.0193091,0.067384 -6.9886e-4,0.00309 -0.004077,0.02242 -0.007159,0.03951 -0.002382,0.014013 -0.00461,0.026874 -0.005169,0.029395 L 0.80084477,1.495281 0.9533974,1.4948607 0.89049062,1.7074864 0.76581019,1.7067859 0.6506792,2.3469602 0.62083611,2.502467 C 0.61383311,2.539309 0.60779372,2.570122 0.59911202,2.602201 0.58790572,2.642825 0.57558912,2.677972 0.56130082,2.71005 0.54617182,2.74339 0.52895153,2.772956 0.50877973,2.800413 0.48790733,2.82885 0.46435544,2.854492 0.43703944,2.878868 0.41686764,2.896517 0.39531164,2.912606 0.37275835,2.927034 0.35342715,2.939497 0.33282645,2.950584 0.31125376,2.960249 0.65431595,3.4861189 1.2472667,3.8338135 1.9220442,3.834654 2.9844299,3.8356341 3.8466376,2.975365 3.8477582,1.9126992 3.8478983,1.6400988 3.7914562,1.3808228 3.6894762,1.1459045 c -0.01079,0.00196 -0.02116,0.00503 -0.030826,0.00895 -0.00981,0.00407 -0.019186,0.00898 -0.028291,0.014862 -0.00897,0.00588 -0.017796,0.012874 -0.026202,0.020711 -0.01583,0.014009 -0.028979,0.030539 -0.040466,0.049031 -0.011341,0.018491 -0.020892,0.039099 -0.029156,0.061654 -0.00827,0.022273 -0.015102,0.046504 -0.021546,0.072278 -0.00603,0.025634 -0.01164,0.052803 -0.0171,0.08138 -0.00337,0.01709 -0.031114,0.1804359 -0.053387,0.3129539 l -0.030261,0.1720101 c 0,0 -6.989e-4,0.00436 -0.00166,0.0108 -5.599e-4,0.00309 -0.00126,0.00644 -0.00182,0.00952 -0.00239,0.013871 -0.00394,0.027041 -0.0052,0.039929 -6.99e-4,0.00574 -0.00126,0.010929 -0.0014,0.014563 -2.801e-4,0.00519 -8.418e-4,0.015278 -8.418e-4,0.015278 1.4e-4,6.988e-4 4.208e-4,0.0014 4.208e-4,0.00224 0,0.013444 4.21e-4,0.026193 0.00255,0.037959 0.0028,0.015129 0.0077,0.028848 0.01513,0.040614 0.00448,0.00644 0.00938,0.012066 0.01513,0.0171 0.00546,0.00505 0.01191,0.00909 0.018772,0.012592 0.007,0.00349 0.014691,0.00588 0.023097,0.0077 0.00126,2.802e-4 0.0028,2.802e-4 0.00421,6.988e-4 l -0.060787,0.1949909 c -0.00631,1.4e-4 -0.012592,4.208e-4 -0.019038,2.801e-4 -0.022833,-8.419e-4 -0.043994,-0.00349 -0.063325,-0.00827 -0.019051,-0.00448 -0.03671,-0.010801 -0.05282,-0.01907 -0.00294,-0.00168 -0.00573,-0.00348 -0.00853,-0.00532 -0.011341,-0.00574 -0.022125,-0.011924 -0.031931,-0.01907 -0.014849,-0.01079 -0.02788,-0.023099 -0.038525,-0.036407 -0.017231,-0.021852 -0.029279,-0.047336 -0.037124,-0.074933 -0.00981,0.017231 -0.02173,0.034321 -0.036019,0.050851 -0.00631,0.00715 -0.012578,0.013714 -0.019308,0.020024 l -6.988e-4,0.00112 c -0.0014,0.00112 -0.00264,0.00226 -0.0039,0.00337 -0.00337,0.00309 -0.00661,0.00604 -0.00997,0.00884 l -2.803e-4,2.802e-4 c -0.00349,0.00294 -0.007,0.0057 -0.010507,0.00849 -0.010507,0.00827 -0.020739,0.015858 -0.031245,0.022441 -0.018491,0.01191 -0.037259,0.021275 -0.05673,0.02856 -0.019331,0.007 -0.039507,0.012066 -0.060519,0.014862 -0.021293,0.00294 -0.043428,0.00394 -0.067383,0.00311 -0.021995,-8.38e-4 -0.043127,-0.00351 -0.063299,-0.00801 -0.020044,-0.00474 -0.039252,-0.011038 -0.056622,-0.019021 -0.01765,-0.00798 -0.033629,-0.017661 -0.047776,-0.028588 -0.014013,-0.01079 -0.026314,-0.023109 -0.036259,-0.036558 -0.01807,-0.024234 -0.029714,-0.052669 -0.036437,-0.083766 -0.00686,-0.030818 -0.00882,-0.064434 -0.00784,-0.099314 0.00126,-0.034881 0.00562,-0.070873 0.011369,-0.1070148 0.00588,-0.036 0.013161,-0.071855 0.020442,-0.1065949 0.00715,-0.034321 0.014701,-0.07035 0.023666,-0.1057911 0.00897,-0.035441 0.019342,-0.070441 0.032228,-0.1040595 0.012891,-0.033621 0.028152,-0.065555 0.047062,-0.094271 0.018772,-0.028857 0.041332,-0.054774 0.068368,-0.076068 0.014849,-0.012052 0.0315,-0.022577 0.049151,-0.031962 0.01793,-0.00911 0.036857,-0.016796 0.056609,-0.02268 0.019752,-0.00617 0.040491,-0.010507 0.061505,-0.013175 0.021012,-0.00251 0.042439,-0.00324 0.064011,-0.00198 0.022273,0.00126 0.043149,0.00394 0.06234,0.00842 0.019192,0.00435 0.03682,0.010648 0.053208,0.01877 0.016109,0.00798 0.030957,0.018351 0.044405,0.030679 0.012052,0.011214 0.022852,0.024364 0.032797,0.039213 0.00182,-0.012891 0.00364,-0.025766 0.00603,-0.039213 0.00617,-0.033479 0.013871,-0.068801 0.022411,-0.1052223 0.0084,-0.036842 0.017096,-0.071856 0.026202,-0.1047763 0.00952,-0.032919 0.019746,-0.064283 0.031513,-0.09272 0.00407,-0.0098 0.0084,-0.019204 0.012748,-0.028589 0.00126,-0.00252 0.00307,-0.00646 0.00573,-0.011641 4.208e-4,-6.989e-4 8.418e-4,-0.00165 0.00126,-0.00236 0.00167,-0.00322 0.00364,-0.00672 0.00588,-0.010659 0.00491,-0.00869 0.00993,-0.017092 0.01525,-0.025218 0.00981,-0.014849 0.020742,-0.028297 0.032648,-0.040764 0.038239,-0.0421652 0.095118,-0.0855934 0.1745443,-0.0998819 C 3.2517062,0.37039075 2.6336552,-0.01244069 1.9258185,-0.01314109 Z M 2.2691383,1.404016 h 3.08e-5 c 0.033058,1.401e-4 0.063197,0.00365 0.090092,0.00982 0.027036,0.00574 0.051134,0.014423 0.072426,0.02465 0.021293,0.010093 0.039925,0.022254 0.055895,0.035423 0.01597,0.013175 0.02942,0.02719 0.040347,0.041899 0.01653,0.021152 0.029113,0.043429 0.038079,0.067384 0.00926,0.024234 0.014856,0.04971 0.017518,0.078006 0.0028,0.028017 0.00265,0.058722 0,0.092481 -0.00265,0.0339 -0.00786,0.070735 -0.014862,0.1116406 -0.00686,0.041184 -0.0144,0.078444 -0.023366,0.1126227 -0.00911,0.034321 -0.019623,0.065565 -0.032231,0.094422 -0.012606,0.028717 -0.027471,0.055043 -0.045121,0.079558 -0.01765,0.024655 -0.038227,0.04777 -0.06246,0.069622 -0.016669,0.015129 -0.035577,0.029841 -0.056729,0.04357 -0.020872,0.013587 -0.044127,0.026327 -0.069622,0.036973 -0.025495,0.01079 -0.052944,0.019618 -0.082782,0.026203 -0.029839,0.00631 -0.061783,0.010235 -0.095824,0.010507 -0.03418,5.599e-4 -0.065014,-0.00239 -0.09275,-0.00801 -0.027736,-0.0056 -0.052534,-0.013871 -0.074247,-0.02423 -0.021713,-0.010093 -0.040898,-0.022124 -0.057149,-0.035573 -0.016389,-0.013445 -0.030262,-0.028154 -0.041749,-0.043003 -0.016949,-0.021852 -0.029548,-0.044538 -0.038795,-0.069472 -0.00911,-0.024794 -0.014579,-0.051435 -0.0171,-0.080573 -0.00251,-0.029136 -0.00194,-0.060784 0.00126,-0.095526 0.00309,-0.03502 0.00882,-0.072838 0.016382,-0.1148639 0.0077,-0.041604 0.016256,-0.079288 0.026202,-0.113609 0.00967,-0.03446 0.020862,-0.065555 0.03417,-0.094271 0.013302,-0.028576 0.02859,-0.054647 0.046941,-0.079023 0.018351,-0.024094 0.039207,-0.046629 0.063862,-0.06792 0.01681,-0.014569 0.035717,-0.028871 0.056729,-0.041899 0.021152,-0.013175 0.044128,-0.0248 0.069203,-0.034887 0.025075,-0.00995 0.0524,-0.018061 0.081678,-0.023664 0.029278,-0.0056 0.060634,-0.00868 0.093974,-0.00827 z m -0.8537538,1.401e-4 c 0.033061,0 0.063167,0.00349 0.090064,0.00967 0.027176,0.00588 0.051144,0.014423 0.072577,0.02465 0.021293,0.010235 0.039786,0.022395 0.055895,0.035423 0.01583,0.013175 0.02928,0.027189 0.040347,0.041899 0.016389,0.021152 0.028973,0.043429 0.038079,0.067384 0.00911,0.024234 0.014856,0.049851 0.017518,0.078006 0.0028,0.028017 0.00249,0.058722 -1.401e-4,0.092481 -0.00251,0.0339 -0.00769,0.070735 -0.014832,0.1116406 -0.00672,0.041184 -0.014431,0.078583 -0.023396,0.1126241 -0.00897,0.034321 -0.019482,0.065565 -0.032231,0.094422 -0.012465,0.028717 -0.027321,0.055043 -0.044971,0.079558 -0.017651,0.024655 -0.038224,0.047909 -0.062458,0.069622 -0.01681,0.01527 -0.035577,0.029841 -0.05673,0.04357 -0.021013,0.013587 -0.044267,0.026327 -0.069621,0.036973 -0.025495,0.01079 -0.053085,0.019618 -0.082783,0.026203 -0.029837,0.00617 -0.061932,0.010246 -0.095972,0.010659 -0.034039,4.21e-4 -0.065004,-0.00255 -0.0926,-0.00816 -0.027736,-0.0056 -0.052535,-0.013871 -0.074248,-0.024232 -0.021853,-0.010094 -0.040757,-0.022124 -0.057147,-0.035573 -0.01639,-0.013302 -0.0302634,-0.028014 -0.0417501,-0.043003 -0.0168099,-0.021713 -0.0295491,-0.044677 -0.0387945,-0.069472 -0.009106,-0.024794 -0.0145781,-0.051435 -0.0170996,-0.080573 -0.002382,-0.029137 -0.001906,-0.060785 0.001258,-0.095526 0.003221,-0.03502 0.008825,-0.072838 0.0165325,-0.1148639 0.007704,-0.041605 0.0162468,-0.079288 0.0260527,-0.1136091 0.009805,-0.03446 0.0208613,-0.065555 0.0341691,-0.094272 0.013308,-0.028576 0.028731,-0.054647 0.046942,-0.079023 0.018211,-0.024234 0.039199,-0.046627 0.063714,-0.06792 0.01681,-0.014428 0.035867,-0.028871 0.056879,-0.041899 0.021013,-0.013175 0.043988,-0.0248 0.069203,-0.034887 0.025075,-0.00995 0.0524,-0.01807 0.081678,-0.023814 0.029277,-0.00546 0.060514,-0.00853 0.093854,-0.00797 z m 1.6686837,0.1669671 c -0.011626,1.401e-4 -0.022707,9.808e-4 -0.033214,0.00296 -0.010365,0.00196 -0.020308,0.00474 -0.029693,0.00853 -0.00938,0.00393 -0.018361,0.00854 -0.027186,0.014295 -0.00854,0.0056 -0.016952,0.012322 -0.025218,0.019756 -0.015129,0.013587 -0.027869,0.02942 -0.038795,0.047211 -0.011071,0.017791 -0.020155,0.037543 -0.028141,0.059116 -0.00798,0.021293 -0.014717,0.044669 -0.020742,0.069324 -0.00603,0.024655 -0.011498,0.05071 -0.01668,0.078306 -0.00533,0.027036 -0.010235,0.053379 -0.013728,0.078454 -0.00364,0.024794 -0.00601,0.048465 -0.00657,0.070456 -6.99e-4,0.021852 6.988e-4,0.041892 0.00434,0.060102 0.00379,0.01793 0.00996,0.03402 0.019069,0.047747 0.00546,0.00742 0.011612,0.014155 0.018473,0.019756 0.00672,0.00603 0.014306,0.01079 0.022709,0.014563 0.0084,0.00393 0.017629,0.00675 0.027574,0.00871 0.010093,0.00182 0.021149,0.0025 0.032917,0.0025 0.011626,-2.802e-4 0.022836,-0.0014 0.033482,-0.00364 0.010648,-0.00196 0.020872,-0.00522 0.030679,-0.00914 0.00967,-0.00407 0.019197,-0.00908 0.028022,-0.015099 0.00897,-0.00603 0.017509,-0.012777 0.025634,-0.020622 0.014988,-0.013871 0.027741,-0.029975 0.038526,-0.048045 0.01079,-0.018351 0.019769,-0.038488 0.027754,-0.06034 0.00421,-0.011767 0.00811,-0.024138 0.011612,-0.036885 0.00462,-0.014289 0.0087,-0.028857 0.012208,-0.044406 0.00519,-0.021712 0.00964,-0.044554 0.013843,-0.068368 0.0021,-0.012194 0.00421,-0.023796 0.00588,-0.035423 0.00251,-0.013728 0.00462,-0.027319 0.00644,-0.040347 0.00337,-0.024515 0.0056,-0.047494 0.00588,-0.068786 5.598e-4,-0.021293 -8.42e-4,-0.041041 -0.00459,-0.05855 -0.00379,-0.017651 -0.00997,-0.033344 -0.019219,-0.046793 -0.00533,-0.00756 -0.011455,-0.013985 -0.018323,-0.019725 -0.00686,-0.0056 -0.014574,-0.010387 -0.022978,-0.01417 -0.0084,-0.00378 -0.017658,-0.00654 -0.027605,-0.00849 -0.010093,-0.00196 -0.020723,-0.00282 -0.03235,-0.00296 z m -1.6994809,0.00256 c -0.011483,0 -0.022408,8.418e-4 -0.032916,0.00277 -0.010093,0.00182 -0.020061,0.00463 -0.029306,0.00842 -0.00938,0.00393 -0.018194,0.00854 -0.026739,0.014141 -0.00868,0.0056 -0.016952,0.012194 -0.025216,0.019606 -0.014849,0.013445 -0.0276,0.028993 -0.038526,0.046643 -0.01079,0.017651 -0.020017,0.037148 -0.027722,0.05858 -0.00784,0.021152 -0.014569,0.044243 -0.020591,0.068756 -0.00588,0.024373 -0.011235,0.050153 -0.016414,0.077471 -0.00532,0.026755 -0.010083,0.052817 -0.013727,0.077472 -0.0035,0.024794 -0.00588,0.048178 -0.00644,0.06989 -6.988e-4,0.021713 5.6e-4,0.041626 0.0042,0.059417 0.00379,0.01793 0.00982,0.03389 0.01907,0.047478 0.00532,0.00729 0.011332,0.014013 0.018204,0.019606 0.00658,0.00574 0.014296,0.010518 0.02256,0.014444 0.00827,0.00364 0.0175,0.00643 0.027306,0.00839 0.00995,0.00196 0.02087,0.00269 0.032497,0.00269 0.011483,-2.8e-4 0.022689,-0.00157 0.033335,-0.00351 0.010365,-0.0021 0.020594,-0.00533 0.030259,-0.00926 0.00967,-0.00407 0.018927,-0.00895 0.027754,-0.014979 0.00882,-0.00588 0.017351,-0.012592 0.025337,-0.020294 0.014849,-0.013587 0.027322,-0.029706 0.038108,-0.047776 0.010648,-0.01807 0.01961,-0.037963 0.027455,-0.059534 0.00435,-0.01191 0.00811,-0.024236 0.011753,-0.037124 0.00294,-0.010365 0.0059,-0.021164 0.00842,-0.032231 0.00588,-0.024373 0.011214,-0.050148 0.016383,-0.076903 0.00239,-0.012606 0.00463,-0.024799 0.00659,-0.036705 0.00239,-0.013728 0.00462,-0.02718 0.00631,-0.040347 0.00349,-0.024234 0.0056,-0.047056 0.00603,-0.068069 5.598e-4,-0.021013 -8.418e-4,-0.040634 -0.00477,-0.057864 -0.00349,-0.017514 -0.00979,-0.033052 -0.01889,-0.0465 -0.00533,-0.00742 -0.011355,-0.013744 -0.018083,-0.019486 -0.00672,-0.00546 -0.014565,-0.01018 -0.022829,-0.013814 -0.0084,-0.00379 -0.017509,-0.00672 -0.027455,-0.00868 -0.00981,-0.00182 -0.020446,-0.00269 -0.031932,-0.00269 z m 0.853695,0 c -0.011483,0 -0.02226,8.418e-4 -0.032766,0.00277 -0.010235,0.00182 -0.020178,0.00477 -0.029425,0.00842 -0.00926,0.00379 -0.018203,0.00854 -0.026888,0.014141 -0.00854,0.0056 -0.016833,0.012194 -0.025098,0.019606 -0.014849,0.013445 -0.02745,0.028993 -0.038377,0.046643 -0.01079,0.017651 -0.020029,0.037148 -0.027874,0.05858 -0.00784,0.021152 -0.014567,0.044263 -0.02059,0.068638 -0.00588,0.024515 -0.0112,0.050273 -0.016382,0.077588 -0.00533,0.026755 -0.010093,0.052825 -0.013728,0.07762 -0.00349,0.024515 -0.00588,0.048029 -0.00644,0.069742 -5.599e-4,0.021713 6.989e-4,0.041605 0.00434,0.059534 0.00364,0.017791 0.00981,0.033632 0.01877,0.047359 0.0056,0.00729 0.011484,0.014013 0.018353,0.019606 0.00672,0.00574 0.014288,0.010518 0.022411,0.014444 0.0084,0.00364 0.017648,0.00644 0.027455,0.00827 0.00995,0.00196 0.02087,0.0028 0.032497,0.00265 0.011626,-2.802e-4 0.022707,-0.0014 0.033214,-0.00348 0.010648,-0.00196 0.020715,-0.00536 0.030379,-0.00914 0.00967,-0.00407 0.018927,-0.00895 0.027754,-0.014981 0.00882,-0.00588 0.01736,-0.012592 0.025485,-0.020294 0.014849,-0.013728 0.027313,-0.029845 0.037959,-0.047776 0.01079,-0.01807 0.019609,-0.037972 0.027455,-0.059685 0.00421,-0.011626 0.00801,-0.0238 0.01164,-0.036407 0.00309,-0.010648 0.00587,-0.02159 0.00853,-0.032796 0.00603,-0.024373 0.011242,-0.050156 0.016414,-0.077053 0.00239,-0.012463 0.0046,-0.024778 0.00657,-0.036825 0.00251,-0.013729 0.00462,-0.027051 0.00644,-0.040079 0.00337,-0.024234 0.00546,-0.046916 0.00588,-0.068069 5.599e-4,-0.021013 -8.419e-4,-0.040634 -0.00462,-0.057864 -0.00378,-0.017511 -0.00979,-0.033047 -0.019039,-0.046495 -0.00533,-0.00742 -0.011327,-0.013744 -0.018203,-0.019486 -0.00672,-0.00546 -0.014445,-0.010202 -0.022709,-0.013843 -0.00827,-0.00393 -0.017499,-0.00673 -0.027305,-0.00856 -0.00995,-0.00196 -0.020594,-0.00277 -0.032079,-0.00277 z m 0.5849355,0.9396396 h 0.05658 v 0.1759494 l 0.075232,-0.09275 h 0.068369 l -0.081111,0.091346 0.087111,0.1353039 h -0.070039 l -0.055746,-0.09442 -0.023814,0.026916 v 0.067503 h -0.05658 z m -1.1351052,0.02268 h 0.056461 v 0.066965 h 0.040078 v 0.043153 h -0.040078 v 0.1086843 c 0,0.013032 0.00617,0.020471 0.019606,0.020471 h 0.020471 v 0.047896 h -0.030977 c -0.045946,0 -0.065562,-0.032629 -0.065562,-0.064847 v -0.112204 h -0.023933 v -0.043152 h 0.023933 z m -0.4832637,0.057863 c 0.022554,0 0.040898,0.00741 0.053506,0.020024 0.018212,0.018212 0.02298,0.039656 0.02298,0.06431 V 2.8231704 H 1.2248724 V 2.6860459 c 0,-0.030818 -0.019602,-0.041332 -0.037393,-0.041332 -0.01793,0 -0.037989,0.010507 -0.037989,0.041332 v 0.1371245 h -0.05658 V 2.596527 h 0.055327 v 0.020859 c 0.014849,-0.015688 0.035739,-0.023515 0.056612,-0.023515 z m 0.27595,0 c 0.063036,0 0.098747,0.04607 0.098747,0.1082667 v 0.025216 H 1.4377972 c 0,0.029276 0.0178,0.050583 0.049597,0.050583 0.024794,0 0.03698,-0.00702 0.051269,-0.021307 l 0.034437,0.033482 c -0.023113,0.022972 -0.04522,0.035721 -0.086124,0.035721 -0.053512,0 -0.1049253,-0.02437 -0.1049253,-0.1162639 0,-0.073964 0.040054,-0.1156982 0.098747,-0.1156979 z m 0.8965181,0 c 0.03334,0 0.056449,0.013032 0.070456,0.027872 0.020451,0.021152 0.025635,0.046922 0.025635,0.087826 0,0.041324 -0.00519,0.0671 -0.025635,0.088393 -0.014013,0.014708 -0.037117,0.027871 -0.070456,0.027871 -0.033621,0 -0.056172,-0.013175 -0.07004,-0.027871 -0.020451,-0.021293 -0.025754,-0.047067 -0.025754,-0.088393 0,-0.040904 0.0053,-0.066673 0.025754,-0.087826 0.013871,-0.014849 0.03642,-0.027872 0.07004,-0.027872 z m 0.3046878,0 c 0.022273,0 0.037819,0.00559 0.053507,0.021277 l -0.042585,0.043152 c -0.00882,-0.00868 -0.016103,-0.013573 -0.030111,-0.013573 -0.01737,0 -0.036438,0.013161 -0.036438,0.041867 V 2.8231723 H 2.5697986 V 2.5965311 h 0.055208 v 0.021725 c 0.010929,-0.013032 0.032624,-0.024381 0.056998,-0.024381 z m -0.8075882,0.00266 h 0.060251 l 0.036407,0.1400777 0.046227,-0.1400777 h 0.041332 l 0.046525,0.1400791 0.036558,-0.1400777 h 0.059684 l -0.069203,0.2266467 h -0.046526 l -0.04748,-0.1421683 -0.047359,0.1421683 h -0.046643 z m -0.3936177,0.044286 c -0.019192,0 -0.031787,0.00995 -0.03781,0.023395 -0.00349,0.0084 -0.00477,0.014585 -0.0052,0.02453 h 0.086153 c -5.598e-4,-0.00995 -0.00181,-0.016126 -0.00532,-0.02453 -0.00603,-0.013444 -0.018648,-0.023395 -0.037839,-0.023395 z m 0.8964887,0.00394 c -0.011341,0 -0.019608,0.00348 -0.026053,0.00993 -0.011767,0.01191 -0.013047,0.031404 -0.013047,0.054939 0,0.023393 0.00126,0.043419 0.013047,0.055326 0.00644,0.00644 0.014705,0.00993 0.026053,0.00993 0.011341,0 0.020035,-0.00348 0.026618,-0.00993 0.011626,-0.01191 0.013018,-0.031934 0.013018,-0.055326 0,-0.023534 -0.0014,-0.043031 -0.013018,-0.054939 -0.00658,-0.00644 -0.015273,-0.00993 -0.026618,-0.00993 z"
     inkscape:export-filename="Food Network.png"
     inkscape:export-xdpi="300"
     inkscape:export-ydpi="300" />
</svg>
