<?xml version="1.0" encoding="UTF-8" standalone="no"?>
<!-- Generator: Adobe Illustrator 22.0.0, SVG Export Plug-In . SVG Version: 6.00 Build 0)  -->

<svg
   version="1.1"
   id="Layer_1"
   x="0px"
   y="0px"
   viewBox="0 0 99.999996 67.640623"
   xml:space="preserve"
   sodipodi:docname="HBO Xtreme.svg"
   width="100"
   height="67.640625"
   inkscape:version="1.4.2 (f4327f4, 2025-05-13)"
   inkscape:export-filename="HBO Xtreme.png"
   inkscape:export-xdpi="300"
   inkscape:export-ydpi="300"
   xmlns:inkscape="http://www.inkscape.org/namespaces/inkscape"
   xmlns:sodipodi="http://sodipodi.sourceforge.net/DTD/sodipodi-0.dtd"
   xmlns="http://www.w3.org/2000/svg"
   xmlns:svg="http://www.w3.org/2000/svg"><defs
   id="defs6" /><sodipodi:namedview
   id="namedview6"
   pagecolor="#ffffff"
   bordercolor="#000000"
   borderopacity="0.25"
   inkscape:showpageshadow="2"
   inkscape:pageopacity="0.0"
   inkscape:pagecheckerboard="0"
   inkscape:deskcolor="#d1d1d1"
   inkscape:zoom="7.35"
   inkscape:cx="50"
   inkscape:cy="50"
   inkscape:window-width="1920"
   inkscape:window-height="974"
   inkscape:window-x="-11"
   inkscape:window-y="-11"
   inkscape:window-maximized="1"
   inkscape:current-layer="Layer_1" />
<path
   id="path1"
   d="M 79.535156,0 C 68.239475,0 62.457849,8.3046937 61.062501,11.626953 61.062501,6.6435645 56.146004,0.6640625 50.298828,0.6640625 H 31.626953 V 40.996094 H 49.03711 c 7.043189,0 12.02539,-6.112198 12.025391,-11.294922 1.661129,3.255814 7.176974,11.49414 18.472655,11.49414 C 90.830838,41.195312 100,31.826931 100,20.53125 100,8.9697881 90.830838,0 79.535156,0 Z M 0,0.6640625 0.06640625,40.996094 H 11.294922 V 25.382813 H 18.40625 V 40.996094 H 29.369141 V 0.6640625 H 18.40625 V 15.681641 H 11.294922 V 0.6640625 Z m 42.126953,8.970703 h 5.513672 c 1.594685,0 2.857422,1.5946515 2.857422,3.3886715 0,1.79402 -1.262737,3.388673 -2.857422,3.388673 h -5.513672 z m 37.408203,0.6640625 c 5.647841,0 10.298831,4.584581 10.298831,10.232422 0,5.64784 -4.584585,10.232422 -10.232425,10.232422 -5.714286,0 -10.298824,-4.584582 -10.298824,-10.232422 0,-5.647841 4.584578,-10.232422 10.232418,-10.232422 z m 0,2.193359 c -4.451827,0 -8.041016,3.587236 -8.041016,8.039063 0,4.451827 3.589189,8.041016 8.041016,8.041016 4.451828,0 8.039064,-3.589189 8.039064,-8.041016 0,-4.451827 -3.587236,-8.039063 -8.039064,-8.039063 z m -20.398437,5.513672 c -0.265781,1.129568 -0.265781,4.452425 0,5.648438 -0.797342,-1.395349 -2.856682,-2.990157 -4.119141,-3.123047 1.262459,-0.13289 3.388244,-1.595158 4.119141,-2.525391 z m -17.076172,6.777344 h 5.513672 c 1.594684,0 2.857422,1.594652 2.857422,3.388672 0,1.79402 -1.262738,3.388672 -2.857422,3.388672 H 42.060547 Z M 8.970703,49.369141 12.425781,56.810547 2.4589844,67.640625 h 0.066406 0.1328125 0.53125 0.066406 0.1328125 L 13.289063,56.810547 9.7011721,49.369141 H 9.5683595 9.4355469 9.1699216 9.1035163 Z m 1.460938,0 3.521484,7.441406 -2.392578,2.724609 -7.2421876,8.105469 h 4.8515622 l 6.5117194,-8.039062 0.0664,-0.0664 2.324219,5.648438 h 4.253906 l -3.853516,-8.240235 3.853516,-4.384765 h 4.517578 l -2.259766,12.625 h 3.720703 l 2.259766,-12.625 h 4.318359 l 0.59961,-3.189454 H 25.183594 22.990235 20.664063 l -4.052735,4.982422 -1.994141,-4.982422 z m 39.402343,0 -2.791015,15.814453 h 10.365235 l 0.332031,-1.927735 H 49.56836 l 0.929687,-5.316406 h 7.242188 l 0.332031,-1.859374 h -7.242187 l 0.865234,-4.785157 h 7.574219 l 0.332031,-1.925781 z m 12.09375,0 -2.791015,15.814453 h 1.527344 l 2.392578,-13.689453 h 0.06641 l 3.322269,13.689453 h 0.863275 l 8.107424,-13.689453 h 0.06638 L 73.023416,65.183594 H 74.61717 L 77.40818,49.369141 H 75.017555 L 67.308592,62.458984 64.31836,49.369141 Z m 17.87305,0 -2.791016,15.814453 h 10.099608 l 0.265628,-1.396484 h -8.503907 l 1.062498,-6.113282 h 7.574219 l 0.265622,-1.394531 h -7.57422 l 0.929688,-5.515625 h 7.974611 l 0.199223,-1.394531 z M 36.94336,49.435546 34.152344,65.25 h 2.724609 l 1.195313,-6.777343 h 2.126953 l 2.990234,6.710937 h 3.123048 l -3.25586,-7.044922 c 1.196013,-0.265781 2.192931,-0.796408 2.923828,-1.59375 0.730897,-0.797342 1.128906,-1.794182 1.128906,-3.056641 0,-1.262458 -0.464298,-2.259337 -1.394531,-2.990234 -0.930233,-0.730897 -2.260668,-1.0625 -4.054688,-1.0625 z m 2.326172,2.259766 h 1.992187 c 0.930233,0 1.661798,0.132618 2.19336,0.464844 0.531561,0.26578 0.796874,0.862853 0.796874,1.59375 0,0.863787 -0.331642,1.462657 -0.996094,1.861328 -0.664452,0.398671 -1.595002,0.597656 -2.791015,0.597656 h -1.992187 z"
   inkscape:export-filename="HBO Xtreme.png"
   inkscape:export-xdpi="300"
   inkscape:export-ydpi="300"
   style="stroke-width:0.664452;fill:#ffffff" />
</svg>
