<?xml version="1.0" encoding="UTF-8" standalone="no"?>
<!-- Created with Inkscape (http://www.inkscape.org/) -->

<svg
   width="100"
   height="57.265633"
   id="svg2"
   version="1.1"
   inkscape:version="1.4.2 (f4327f4, 2025-05-13)"
   sodipodi:docname="HBO Signature.svg"
   inkscape:export-filename="HBO Signature.png"
   inkscape:export-xdpi="300"
   inkscape:export-ydpi="300"
   xmlns:inkscape="http://www.inkscape.org/namespaces/inkscape"
   xmlns:sodipodi="http://sodipodi.sourceforge.net/DTD/sodipodi-0.dtd"
   xmlns="http://www.w3.org/2000/svg"
   xmlns:svg="http://www.w3.org/2000/svg">
  <defs
     id="defs1" />
  <sodipodi:namedview
     id="namedview1"
     pagecolor="#9a9a9a"
     bordercolor="#000000"
     borderopacity="0.25"
     inkscape:showpageshadow="2"
     inkscape:pageopacity="0.0"
     inkscape:pagecheckerboard="0"
     inkscape:deskcolor="#d1d1d1"
     inkscape:zoom="5.4850746"
     inkscape:cx="33.454422"
     inkscape:cy="14.311565"
     inkscape:window-width="1920"
     inkscape:window-height="974"
     inkscape:window-x="-11"
     inkscape:window-y="-11"
     inkscape:window-maximized="1"
     inkscape:current-layer="svg2" />
  <path
     id="path9034"
     style="fill:#ffffff;fill-rule:nonzero;stroke:none;stroke-width:0.213677"
     d="M 69.169922,4.6017954e-6 C 61.696565,-0.00580741 57.875988,5.495307 56.933593,7.716802 56.941329,4.3826246 53.655611,0.44917075 49.8125,0.44336515 H 37.429687 V 27.152349 l 11.544921,0.0019 c 4.655853,0 7.966851,-4.032211 7.972657,-7.490235 1.06237,2.176988 4.7493,7.624984 12.222657,7.623048 7.483035,-0.0039 13.572246,-6.220109 13.570312,-13.705078 C 82.738311,5.9402957 76.652957,0.00578029 69.169922,-2.5312985e-5 Z M 16.478516,0.44727116 16.503905,27.160161 h 7.451173 V 16.79688 h 4.708984 v 10.363281 h 7.257813 V 0.44727116 H 28.664062 V 10.382818 H 23.955078 V 0.44727116 Z M 44.34961,6.3925837 h 3.671875 c 1.068175,0 1.910155,1.0541626 1.910155,2.2558586 0,1.2016981 -0.84198,2.2558587 -1.910155,2.2558587 H 44.34961 Z m 24.824218,0.3984371 c 3.756032,0 6.800782,3.0427797 6.800782,6.7968752 0,3.754095 -3.04475,6.798828 -6.800782,6.798828 -3.754093,0 -6.796875,-3.044733 -6.796875,-6.798828 0,-3.7540955 3.042782,-6.7968752 6.796875,-6.7968752 z m 0,1.4531254 c -2.951027,0 -5.34375,2.3927208 -5.34375,5.3437498 0,2.951029 2.392723,5.345703 5.34375,5.345703 2.952965,0 5.345703,-2.394674 5.345703,-5.345703 0,-2.951029 -2.392738,-5.3437498 -5.345703,-5.3437498 z M 55.648437,11.904303 c -0.174159,0.762429 -0.18755,2.966067 0.01562,3.726561 -0.563113,-0.86886 -1.89859,-1.936538 -2.753905,-2.042968 0.84177,-0.10643 2.242895,-1.068231 2.738281,-1.683593 z M 44.33789,16.419926 h 3.669922 c 1.068175,0 1.910157,1.054163 1.910157,2.255861 0,1.201696 -0.841982,2.257811 -1.910157,2.257811 H 44.33789 Z m 4.349609,15.041017 c -19.900575,0 -37.290688,3.426417 -46.6914054,8.527342 C 13.146142,36.990814 29.922827,35.08399 48.687499,35.08399 c 18.766606,0 35.543293,1.906824 46.691407,4.904295 C 85.978187,34.88736 68.588073,31.460943 48.687499,31.460943 Z m -35.908202,8.88867 c -4.0230742,0 -6.8789058,2.00019 -6.8789058,4.117189 0,1.012057 0.6510888,2.139646 1.9843734,3.292969 l 2.3378914,2.025391 c 1.114618,0.963679 1.660157,1.952119 1.660157,2.892578 0,2.070558 -2.5827694,4.09375 -6.2265627,4.09375 -2.2853546,0 -3.6445326,-0.893986 -3.6445326,-2.093751 0,-1.882851 2.1224835,-2.871094 6.25586,-2.871094 l 0.134766,-0.140625 -0.027344,-0.234374 -0.1621082,-0.0957 C 2.8004144,51.243057 0,52.419447 0,54.464849 c 0,1.62355 1.9317875,2.800782 5.3027345,2.800782 2.502085,0 4.7578885,-0.6837 6.4433595,-1.953126 1.22492,-0.917238 1.904296,-2.117066 1.904296,-3.152344 0,-1.083655 -0.571435,-2.187162 -1.740235,-3.199219 L 9.4902332,46.843755 c -1.1958925,-1.0585 -1.8496095,-1.907629 -1.8496095,-2.89453 0,-1.577108 1.9576574,-3.035158 4.5410163,-3.035158 1.550015,0 2.447266,0.564536 2.447266,1.41211 0,1.128163 -1.359494,1.88086 -3.888671,1.88086 l -0.109377,0.119139 v 0.1875 l 0.136719,0.09375 c 0.272849,0.02322 0.569958,0.04687 0.951173,0.04687 2.856207,0 4.677733,-1.082137 4.677733,-2.351562 0,-1.15332 -1.304739,-1.953126 -3.617186,-1.953126 z m 37.972655,3.894533 c -0.129653,0 -0.208491,0.146219 -0.365234,0.537109 l -3.283202,8.441406 c -0.26124,0.673414 -0.507558,1.129663 -1.109375,1.210938 -0.104495,0.01355 -0.286257,0.02734 -0.404298,0.02734 -0.104497,0 -0.158203,0.02808 -0.158203,0.107422 0,0.108366 0.07776,0.134766 0.248047,0.134766 0.67922,0 1.399771,-0.04102 1.542968,-0.04102 0.406371,0 0.966784,0.04102 1.384766,0.04102 0.145134,0 0.222656,-0.0264 0.222656,-0.134766 0,-0.07934 -0.03857,-0.107422 -0.195311,-0.107422 h -0.195314 c -0.406371,0 -0.525389,-0.176081 -0.525389,-0.41797 0,-0.160612 0.06763,-0.483606 0.199217,-0.820312 l 0.705079,-1.921875 c 0.02516,-0.08127 0.05333,-0.105469 0.117187,-0.105469 h 2.916016 c 0.06579,0 0.103768,0.02407 0.13086,0.0918 l 1.044921,2.851562 c 0.06579,0.160613 -0.02623,0.2815 -0.117187,0.308593 -0.129651,0.01355 -0.18164,0.04176 -0.18164,0.121095 0,0.09482 0.156477,0.09387 0.390625,0.107421 1.046889,0.02709 2.000474,0.02734 2.470702,0.02734 0.483775,0 0.601563,-0.0264 0.601563,-0.134766 0,-0.09288 -0.06543,-0.107422 -0.169923,-0.107422 -0.156745,0 -0.351447,-0.01404 -0.548827,-0.05469 -0.272851,-0.06773 -0.65307,-0.255406 -1.15039,-1.464843 -0.8379,-2.043466 -2.930655,-7.528371 -3.24414,-8.267578 -0.129655,-0.309618 -0.208134,-0.429687 -0.326174,-0.429687 z m -14.777344,0.06641 c -0.120133,0.01139 -0.156249,0.198408 -0.156249,0.458985 l -0.117187,7.958983 c -0.01355,1.168801 -0.06567,1.557652 -0.406251,1.666016 -0.181899,0.05418 -0.419553,0.06641 -0.589842,0.06641 -0.129651,0 -0.207032,0.02808 -0.207032,0.107422 0,0.121909 0.116821,0.134766 0.287109,0.134766 0.679222,0 1.294071,-0.04102 1.41211,-0.04102 0.247695,0 0.771586,0.04102 1.621093,0.04102 0.183837,0 0.300782,-0.0264 0.300782,-0.134766 0,-0.07934 -0.07946,-0.107422 -0.222658,-0.107422 -0.208991,0 -0.457132,-0.01248 -0.677734,-0.09375 -0.263173,-0.09482 -0.431892,-0.443363 -0.458984,-1.492188 l -0.144532,-5.646483 h 0.03906 c 0.236081,0.255434 1.687095,1.935412 3.111329,3.388672 1.360375,1.383597 3.03307,3.144235 3.857421,3.951172 0.143198,0.149003 0.302116,0.294921 0.445314,0.294921 0.118041,0 0.16992,-0.119948 0.16992,-0.416016 l 0.142578,-8.482422 c 0.01355,-0.752754 0.118642,-1.036167 0.484376,-1.144531 0.156743,-0.0387 0.260992,-0.03906 0.392578,-0.03906 0.156743,0 0.234376,-0.03982 0.234376,-0.121093 0,-0.106428 -0.130495,-0.119142 -0.300782,-0.119142 -0.640519,0 -1.1361,0.03711 -1.279297,0.03711 -0.274785,0 -0.902829,-0.03711 -1.583984,-0.03711 -0.195446,0 -0.337891,0.01271 -0.337891,0.119142 0,0.08127 0.05224,0.121093 0.208984,0.121093 0.181899,0 0.494028,6.41e-4 0.691408,0.08008 0.313487,0.135456 0.431755,0.390454 0.443358,1.210937 l 0.132813,6.035157 h -0.06641 C 43.177855,51.892631 41.4136,49.956343 40.52539,49.042974 38.615445,47.09433 36.629381,44.902679 36.470702,44.72852 36.2501,44.486633 36.13146,44.310552 35.986329,44.310552 c -0.0041,0 -0.0078,-4.27e-4 -0.01171,0 z m -7.169921,0.03906 c -1.099137,0 -2.263651,0.09515 -3.519531,0.874998 -1.188151,0.73921 -2.273438,2.244654 -2.273438,4.396486 0,3.709586 2.83647,5.269531 6.039063,5.269531 1.019797,0 2.302834,-0.146852 3.152343,-0.605469 0.158687,-0.09289 0.169922,-0.120578 0.169922,-0.484375 v -1.476562 c 0,-0.67148 1.26e-4,-1.210801 0.01368,-1.615236 0.01355,-0.47023 0.141969,-0.697897 0.496091,-0.765624 0.156743,-0.0271 0.249022,-0.03906 0.353516,-0.03906 0.09289,0 0.169922,-0.02615 0.169922,-0.107422 0,-0.108364 -0.09143,-0.136719 -0.261718,-0.136719 -0.431527,0 -1.124879,0.04102 -1.531249,0.04102 -0.390891,0 -1.21531,-0.04102 -1.894531,-0.04102 -0.183833,0 -0.273438,0.02835 -0.273438,0.136719 0,0.08127 0.07727,0.107422 0.195311,0.107422 0.183835,0 0.40527,0.01197 0.509767,0.03906 0.431527,0.09482 0.548943,0.308941 0.560545,0.765624 0.01355,0.404435 0.01562,0.916412 0.01562,1.587892 v 1.263673 c 0,0.228341 -0.0526,0.403206 -0.248047,0.496092 -0.313485,0.149001 -0.772703,0.148439 -1.11328,0.148439 -2.757519,0 -4.548829,-2.163649 -4.548829,-5.054688 0,-1.652578 0.469722,-2.662127 1.203125,-3.29297 0.915303,-0.779846 1.869984,-0.833983 2.589843,-0.833983 1.47648,0 2.523172,0.617298 2.914062,1.048827 0.340578,0.375409 0.40466,0.80562 0.443361,1.115236 0.01355,0.108366 0.03993,0.175779 0.132811,0.175779 0.102561,0 0.142578,-0.06645 0.142578,-0.281248 0,-1.681602 0.0918,-2.058028 0.0918,-2.207031 0,-0.09289 -0.0249,-0.14661 -0.181641,-0.160157 -0.301876,-0.01355 -0.758418,-0.09426 -1.033203,-0.148438 -0.261237,-0.05225 -1.412695,-0.216796 -2.314453,-0.216796 z m 27.234375,0 c -0.0774,0 -0.115614,0.0817 -0.156251,0.255859 -0.02516,0.108366 -0.275389,1.332077 -0.275389,1.546874 0,0.149003 0.02624,0.214846 0.117187,0.214846 0.07934,0 0.119375,-0.05179 0.144531,-0.160158 0.02709,-0.108364 0.09105,-0.269453 0.220703,-0.470702 0.19738,-0.296071 0.510972,-0.363536 1.269532,-0.390626 l 1.947266,-0.05273 v 5.511719 c 0,1.23653 0.0013,2.298233 -0.0625,2.863283 -0.04064,0.388956 -0.119623,0.684095 -0.38086,0.738279 -0.118042,0.02709 -0.273321,0.05469 -0.470703,0.05469 -0.156743,0 -0.208985,0.03969 -0.208985,0.107422 0,0.09482 0.09143,0.134766 0.261718,0.134766 0.522477,0 1.34461,-0.04102 1.646486,-0.04102 0.365734,0 1.191613,0.04102 2.052733,0.04102 0.145132,0 0.248047,-0.03995 0.248047,-0.134766 0,-0.06773 -0.06383,-0.107422 -0.207029,-0.107422 -0.195446,0 -0.484135,-0.0276 -0.66797,-0.05469 -0.392826,-0.05418 -0.471066,-0.349197 -0.509767,-0.724608 -0.06579,-0.578595 -0.0664,-1.640424 -0.0664,-2.876954 v -5.511719 l 1.648437,0.03906 c 1.16493,0.02709 1.515859,0.403655 1.541015,0.753908 l 0.01367,0.148437 c 0.01355,0.20125 0.04002,0.267577 0.142578,0.267577 0.07934,0 0.107537,-0.08132 0.11914,-0.214843 0,-0.350253 0.04102,-1.276071 0.04102,-1.558594 0,-0.20125 -0.01451,-0.283202 -0.105468,-0.283202 -0.05418,0 -0.156136,0.02772 -0.353516,0.06836 -0.195444,0.02709 -0.484361,0.06445 -0.902343,0.06445 h -5.175783 c -0.433467,0 -0.929311,-0.02382 -1.308592,-0.06445 -0.327026,-0.02709 -0.458006,-0.164057 -0.5625,-0.164061 z m 36.726562,0.08203 c -0.06579,0 -0.145142,0.04114 -0.210936,0.05469 -0.104494,0.02709 -0.314806,0.05492 -0.5625,0.08008 -0.247692,0.01355 -2.849597,0.01171 -3.267579,0.01171 -0.365734,0 -1.190046,-0.03711 -1.882812,-0.03711 -0.195444,0 -0.289063,0.02432 -0.289063,0.119142 0,0.09482 0.07946,0.121092 0.222656,0.121092 0.183835,0 0.407223,0.01391 0.51172,0.03906 0.431527,0.09482 0.535387,0.310896 0.560545,0.767579 0.02709,0.431527 0.02734,0.806141 0.02734,2.849609 v 2.367187 c 0,1.236529 -6.41e-4,2.298232 -0.06641,2.863282 -0.05225,0.388956 -0.117668,0.684096 -0.378905,0.73828 -0.118041,0.02709 -0.275259,0.05469 -0.470705,0.05469 -0.02715,0 -0.05111,0.0017 -0.07227,0.0039 -0.01496,-0.0023 -0.03073,-0.0039 -0.04883,-0.0039 -0.104494,0 -0.222036,-0.01393 -0.365233,-0.04102 -0.19738,-0.04064 -0.733376,-0.134217 -1.464844,-0.914063 -0.772105,-0.832093 -1.674896,-2.029648 -2.837891,-3.535156 1.319738,-1.101071 1.726561,-2.017077 1.726561,-3.011719 0,-0.899822 -0.524891,-1.586364 -0.890625,-1.841798 -0.706313,-0.49732 -1.579942,-0.576171 -2.404295,-0.576171 -0.404435,0 -1.400632,0.03711 -1.845704,0.03711 -0.272848,0 -1.096295,-0.03711 -1.789062,-0.03711 -0.195446,0 -0.289062,0.02432 -0.289062,0.119142 0,0.09482 0.07946,0.121092 0.222656,0.121092 0.183835,0 0.407221,0.01391 0.511718,0.03906 0.431527,0.09482 0.535391,0.310896 0.560547,0.767579 C 77.999748,46.019415 78,46.394029 78,48.437497 v 2.367187 c 0,1.236529 -6.41e-4,2.298232 -0.06641,2.863282 -0.05225,0.388956 -0.117668,0.684096 -0.378907,0.73828 -0.11804,0.02709 -0.275259,0.05469 -0.470703,0.05469 -0.156743,0 -0.208984,0.03969 -0.208984,0.107422 0,0.09482 0.09143,0.134766 0.261718,0.134766 0.522476,0 1.348011,-0.04102 1.595703,-0.04102 0.195446,0 1.161358,0.04102 1.919922,0.04102 0.170288,0 0.26172,-0.03995 0.26172,-0.134766 0,-0.06773 -0.05176,-0.107422 -0.156251,-0.107422 -0.156745,0 -0.445181,-0.0276 -0.640625,-0.05469 -0.392826,-0.05418 -0.471064,-0.349324 -0.509765,-0.73828 -0.06579,-0.56505 -0.06445,-1.626879 -0.06445,-2.876953 v -0.1875 c 0,-0.08127 0.03772,-0.109377 0.103516,-0.109377 l 1.138672,0.02734 c 0.09095,0 0.168583,0.01442 0.234376,0.0957 0.17029,0.201252 0.770489,1.114326 1.292968,1.855469 0.731468,1.033344 1.229854,1.664992 1.792968,1.974608 0.338644,0.187705 0.665036,0.255861 1.398437,0.255861 h 1.242188 c 0.05251,0 0.09797,-0.0036 0.134766,-0.01171 0.03632,0.0076 0.08017,0.01171 0.13086,0.01171 0.522476,0 1.346543,-0.04102 1.646484,-0.04102 0.772104,0 1.647308,0.08203 3.623047,0.08203 0.495385,0 0.614129,6.42e-4 0.705079,-0.349609 0.06579,-0.268979 0.16992,-1.182572 0.16992,-1.492188 0,-0.135461 -0.0011,-0.242188 -0.105469,-0.242188 -0.09095,0 -0.117422,0.05411 -0.142578,0.201173 -0.09095,0.551502 -0.249246,0.833528 -0.58789,0.994141 -0.340577,0.160614 -0.889875,0.160155 -1.228516,0.160155 -1.333285,0 -1.54322,-0.20004 -1.570313,-1.126952 -0.01355,-0.39089 0,-1.627302 0,-2.083985 V 49.74217 c 0,-0.08127 0.01427,-0.134764 0.07813,-0.134764 0.315422,0 1.609729,0.01391 1.857422,0.03906 0.483775,0.05418 0.66661,0.258344 0.730467,0.525389 0.04065,0.176093 0.04113,0.348919 0.05274,0.484375 0,0.06579 0.02819,0.121093 0.11914,0.121093 0.118039,0 0.117187,-0.147494 0.117187,-0.255859 0,-0.09482 0.02564,-0.631411 0.05273,-0.90039 0.0387,-0.686961 0.103516,-0.901148 0.103516,-0.982422 0,-0.07934 -0.0376,-0.105469 -0.08984,-0.105469 -0.06579,0 -0.118035,0.0674 -0.208985,0.173828 -0.118041,0.135456 -0.315417,0.176017 -0.628904,0.201173 -0.299941,0.02709 -1.803466,0.02734 -2.091798,0.02734 -0.0774,0 -0.0918,-0.05362 -0.0918,-0.148439 v -3.40039 c 0,-0.09289 0.02794,-0.134766 0.0918,-0.134766 0.26124,0 1.634881,0.0276 1.857422,0.05469 0.654063,0.07934 0.784051,0.242487 0.875001,0.484373 0.06579,0.160613 0.07812,0.387604 0.07812,0.482423 0,0.119976 0.02626,0.1875 0.11914,0.1875 0.09095,0 0.11536,-0.08069 0.128907,-0.146485 0.02709,-0.162548 0.05286,-0.755151 0.06641,-0.888671 0.0387,-0.617298 0.103516,-0.778208 0.103516,-0.871093 0,-0.06773 -0.01233,-0.123048 -0.07617,-0.123048 z M 17.689453,44.54102 c -0.208991,0 -0.314453,0.02419 -0.314453,0.105469 0,0.108366 0.0774,0.134766 0.208985,0.134766 0.156745,0 0.327504,0.01404 0.470702,0.05273 0.28833,0.06773 0.418226,0.297225 0.445314,0.753908 0.02516,0.431528 0.02539,0.806142 0.02539,2.84961 v 2.367186 c 0,1.304259 -6.41e-4,2.36659 -0.06445,2.93164 -0.04064,0.388954 -0.117667,0.615738 -0.378904,0.669922 -0.118042,0.02709 -0.275278,0.05469 -0.472658,0.05469 -0.156745,0 -0.208983,0.03969 -0.208983,0.107422 0,0.09482 0.09336,0.134766 0.261718,0.134766 0.524413,0 1.346561,-0.04102 1.648437,-0.04102 0.352189,0 1.17601,0.04102 2.039064,0.04102 0.143198,0 0.248047,-0.03995 0.248047,-0.134766 0,-0.06773 -0.06579,-0.107422 -0.208985,-0.107422 -0.195444,0 -0.484134,-0.0276 -0.667969,-0.05469 -0.39089,-0.05418 -0.482782,-0.294385 -0.521485,-0.656249 -0.05225,-0.578594 -0.05273,-1.641054 -0.05273,-2.945313 v -2.367186 c 0,-2.043468 2.13e-4,-2.418082 0.02734,-2.84961 0.02516,-0.47023 0.130251,-0.699852 0.484374,-0.767579 0.156742,-0.02516 0.260974,-0.03906 0.390625,-0.03906 0.131588,0 0.208984,-0.0264 0.208984,-0.134766 0,-0.08127 -0.105084,-0.105469 -0.273438,-0.105469 -0.49732,0 -1.268669,0.03711 -1.595703,0.03711 -0.379279,0 -1.201897,-0.03711 -1.699218,-0.03711 z m 47.572266,0 c -0.195446,0 -0.289063,0.02432 -0.289063,0.119142 0,0.09482 0.07946,0.121093 0.222656,0.121093 0.183833,0 0.407224,0.01391 0.511718,0.03906 0.431527,0.09482 0.535391,0.310896 0.560547,0.767579 0.02709,0.431528 0.02734,0.806142 0.02734,2.84961 v 1.964843 c 0,1.948647 0.4945,2.943268 1.16211,3.5625 0.954004,0.886277 2.209576,0.925781 2.902343,0.925781 0.849509,0 1.793792,-0.146315 2.720704,-0.966796 1.099137,-0.967551 1.240232,-2.554913 1.240232,-4.046876 v -1.439452 c 0,-2.043468 2.14e-4,-2.418082 0.02734,-2.84961 0.02516,-0.47023 0.130251,-0.699852 0.484376,-0.767579 0.156742,-0.02516 0.233773,-0.03906 0.378904,-0.03906 0.156743,0 0.234376,-0.02627 0.234376,-0.121093 0,-0.09482 -0.0896,-0.119142 -0.273438,-0.119142 -0.508934,0 -1.333492,0.03711 -1.490235,0.03711 -0.01355,0 -0.836295,-0.03711 -1.503905,-0.03711 -0.183835,0 -0.275391,0.02432 -0.275391,0.119142 0,0.09482 0.07946,0.121093 0.222657,0.121093 0.143198,0 0.366206,0.01391 0.470703,0.03906 0.431527,0.09482 0.535408,0.310896 0.5625,0.767579 0.02516,0.431528 0.02539,0.806142 0.02539,2.84961 v 1.68164 c 0,1.383597 -0.03795,2.594778 -0.757812,3.333985 -0.522477,0.536024 -1.229964,0.726562 -1.804688,0.726562 -0.445075,0 -1.044541,-0.05542 -1.632811,-0.552736 -0.642444,-0.537955 -1.021475,-1.35799 -1.021475,-3.306637 v -1.882812 c 0,-2.043468 2.14e-4,-2.418082 0.02734,-2.84961 0.02709,-0.47023 0.130234,-0.699852 0.482421,-0.767579 0.156743,-0.02516 0.237662,-0.03906 0.38086,-0.03906 0.131586,0 0.208984,-0.02627 0.208984,-0.121093 0,-0.09482 -0.09168,-0.119142 -0.289062,-0.119142 -0.470228,0 -1.292,0.03711 -1.607421,0.03711 -0.390893,0 -1.21544,-0.03711 -1.908204,-0.03711 z m 15.091797,0.63086 c 0.770171,0 1.998046,0.550975 1.998046,2.458984 0,1.103007 -0.376708,1.721491 -0.769532,2.015626 -0.236083,0.176094 -0.40721,0.230468 -0.929687,0.230468 -0.327035,0 -0.717403,-0.03995 -0.992188,-0.134766 -0.09288,-0.04064 -0.117187,-0.09512 -0.117187,-0.242186 v -4.087891 c 0,-0.10643 0.0243,-0.160409 0.117187,-0.187502 0.129653,-0.04063 0.366328,-0.05273 0.693361,-0.05273 z m -29.935548,1.828124 c 0.0011,-2.13e-4 0.0028,1.26e-4 0.0039,0 h 0.0019 0.0019 0.0019 c 0.0037,4.28e-4 0.01045,0.0024 0.01367,0.0039 0.0011,6.41e-4 0.0049,0.0032 0.0059,0.0039 0.02347,0.01998 0.0339,0.07051 0.04297,0.111328 l 1.177735,3.320312 c 0.01355,0.04064 -6.41e-4,0.08203 -0.06445,0.08203 h -2.408202 c -0.01633,0 -0.0301,-0.0066 -0.03906,-0.01367 l -0.0019,-0.0019 c -0.01524,-0.01665 -0.01703,-0.04426 -0.0098,-0.07813 L 50.3476,47.119178 c 0.01147,-0.04429 0.03323,-0.101334 0.0625,-0.117189 0.0021,-8.54e-4 0.0056,-0.0015 0.0078,-0.0019 z M 95.0625,52.406255 v 0.396484 h 0.767579 v 1.947266 h 0.464844 v -1.947266 h 0.765623 v -0.396484 z m 2.394531,0 v 2.34375 h 0.43164 V 52.85938 l 0.648439,1.890625 h 0.392578 L 99.56836,52.85938 v 1.890625 H 100 v -2.34375 h -0.679687 l -0.591797,1.677734 -0.591798,-1.677734 z" />
</svg>
