<?xml version="1.0" encoding="UTF-8" standalone="no"?>
<!-- Generator: Adobe Illustrator 22.0.0, SVG Export Plug-In . SVG Version: 6.00 Build 0)  -->

<svg
   version="1.1"
   id="Layer_1"
   x="0px"
   y="0px"
   viewBox="0 0 100 77.530869"
   xml:space="preserve"
   sodipodi:docname="HBO Family.svg"
   width="100"
   height="77.530869"
   inkscape:version="1.4.2 (f4327f4, 2025-05-13)"
   inkscape:export-filename="HBO Family.png"
   inkscape:export-xdpi="300"
   inkscape:export-ydpi="300"
   xmlns:inkscape="http://www.inkscape.org/namespaces/inkscape"
   xmlns:sodipodi="http://sodipodi.sourceforge.net/DTD/sodipodi-0.dtd"
   xmlns="http://www.w3.org/2000/svg"
   xmlns:svg="http://www.w3.org/2000/svg"><defs
   id="defs10" /><sodipodi:namedview
   id="namedview10"
   pagecolor="#9e9e9e"
   bordercolor="#000000"
   borderopacity="0.25"
   inkscape:showpageshadow="2"
   inkscape:pageopacity="0.0"
   inkscape:pagecheckerboard="0"
   inkscape:deskcolor="#d1d1d1"
   inkscape:zoom="4.7400475"
   inkscape:cx="49.050141"
   inkscape:cy="43.564964"
   inkscape:window-width="1920"
   inkscape:window-height="974"
   inkscape:window-x="-11"
   inkscape:window-y="-11"
   inkscape:window-maximized="1"
   inkscape:current-layer="Layer_1" />
<style
   type="text/css"
   id="style1">
	.st0{fill:#EB3D78;}
</style>
<path
   id="path1"
   style="fill:#ffffff"
   d="M 225.49878 0 C 200.69562 0 179.49907 15.619926 171.21849 37.547138 C 171.47289 35.373069 171.68737 32.70727 171.60055 30.797402 C 171.60055 16.797402 159.70127 1.4008887 139.70127 1.4008887 L 91.799735 1.4008887 L 91.799735 114.80089 L 142.09884 114.80089 C 160.69884 114.80089 172.70244 102.6005 172.70244 84.900497 C 172.70244 84.100497 172.69723 83.197724 172.59723 82.397724 C 172.59723 82.366431 172.61554 82.177267 172.62492 81.84955 C 181.73117 101.97488 201.99699 116.00244 225.49878 116.00244 C 257.49878 116.00244 283.5 90.00122 283.5 58.00122 C 283.5 26.00122 257.49878 -6.7146288e-15 225.49878 0 z M 2.6024414 1.3012207 L 2.4972363 114.70122 L 34.501728 114.70122 L 34.501728 69.601464 L 53.898222 69.601464 L 53.898222 114.70122 L 86.201718 114.70122 L 86.301386 1.3012207 L 53.99789 1.3012207 L 53.898222 44.40208 L 34.501728 44.40208 L 34.601396 1.3012207 L 2.6024414 1.3012207 z M 123.40002 27.397617 L 136.30148 27.397617 C 139.60148 27.397617 143.10105 32.001621 143.10105 36.201621 C 143.20105 41.201621 140.10115 45.398759 136.40115 45.398759 L 123.40002 45.398759 L 123.40002 27.397617 z M 225.49878 28.59917 C 241.79878 28.59917 254.90083 41.80122 254.90083 58.00122 C 254.90083 74.30122 241.79878 87.397733 225.49878 87.397733 C 209.19878 87.397733 196.10226 74.20122 196.10226 58.00122 C 196.10226 41.70122 209.29878 28.59917 225.49878 28.59917 z M 225.49878 35.000068 C 212.79878 35.000068 202.49762 45.30122 202.49762 58.00122 C 202.49762 70.70122 212.79878 81.002372 225.49878 81.002372 C 238.19878 81.002372 248.49993 70.70122 248.49993 58.00122 C 248.49993 45.30122 238.19878 35.000068 225.49878 35.000068 z M 168.60498 46.694443 C 167.88089 50.350959 167.49756 54.134164 167.49756 58.00122 C 167.49756 61.525358 167.81275 64.976047 168.41672 68.327929 C 168.34483 68.218981 168.2751 68.110545 168.20077 68.001239 C 165.50077 63.901239 161.39864 60.499892 155.49864 58.399892 C 161.69864 56.899892 165.99944 52.29998 168.59944 46.69998 L 168.60498 46.694443 z M 123.20068 70.398808 L 136.10215 70.398808 C 139.40215 70.398808 142.90172 74.997275 142.90172 79.197275 C 143.00172 84.197275 139.90181 88.39995 136.20181 88.39995 L 123.20068 88.39995 L 123.20068 70.398808 z M 186.00258 131.70015 C 181.00258 131.70015 177.19857 135.49861 177.19857 140.49861 C 177.19857 145.29861 181.09737 149.19741 185.89737 149.19741 C 190.89737 149.29741 194.80104 145.49828 194.80104 140.59828 C 194.80104 135.69828 190.80258 131.70015 186.00258 131.70015 z M 25.39872 131.89948 C 14.69872 131.89948 7.901455 138.60251 7.901455 151.00251 L 7.901455 154.60163 L 0 154.60163 L 0 167.60276 L 7.901455 167.60276 L 7.901455 200.5984 L 22.60248 200.5984 L 22.60248 167.60276 L 33.001172 167.60276 C 34.401172 167.60276 35.498408 166.49999 35.498408 165.09999 L 35.498408 157.09887 C 35.498408 155.69887 34.401172 154.60163 33.001172 154.60163 L 22.60248 154.60163 L 22.497275 151.40118 C 22.497275 147.40118 24.097949 145.59829 27.297949 145.59829 C 29.297949 145.59829 30.897295 146.00017 32.497295 146.70017 C 33.697295 147.20017 34.998076 146.79796 35.598076 145.69796 L 39.701074 138.79872 C 40.401074 137.59872 39.998193 136.09893 38.898193 135.39893 C 35.598193 133.39893 31.29872 131.89948 25.39872 131.89948 z M 205.2994 133.2007 C 203.9994 133.2007 202.90183 134.29794 202.90183 135.69794 L 202.90183 200.5984 L 217.49765 200.5984 L 217.49765 135.69794 C 217.49765 134.29794 216.40042 133.2007 215.00042 133.2007 L 205.2994 133.2007 z M 124.60157 153.0014 C 118.40157 153.0014 113.80276 155.20031 110.90276 160.00031 L 110.90276 156.79986 C 110.90276 155.39986 109.79999 154.30263 108.39999 154.30263 L 99.302518 154.30263 C 97.902518 154.30263 96.799745 155.39986 96.799745 156.79986 L 96.799745 200.29939 L 111.50077 200.29939 L 111.50077 175.59835 C 111.50077 169.79835 114.69835 166.89955 118.89835 166.89955 C 123.49835 166.89955 126.2018 169.99901 126.2018 175.39901 L 126.2018 200.39906 L 140.89728 200.39906 L 140.89728 175.69802 C 140.89728 169.89802 144.2004 166.99922 148.3004 166.99922 C 152.9004 166.99922 155.59831 170.09868 155.59831 175.49868 L 155.59831 200.49873 L 170.19967 200.49873 L 170.19967 170.399 C 170.19967 159.799 163.50074 153.4014 153.20074 153.0014 C 146.90074 153.0014 141.69938 155.39799 138.59938 160.69799 C 135.79938 155.79799 130.60157 153.0014 124.60157 153.0014 z M 60.498456 153.40008 C 48.198456 153.40008 39.097529 164.09724 39.097529 177.59724 C 39.097529 191.19724 48.198788 201.79995 60.398788 201.79995 C 66.698788 201.79995 70.799257 199.19839 73.599257 195.59839 L 73.599257 200.5984 L 87.801942 200.5984 L 87.801942 157.09887 C 87.901942 155.69887 86.798837 154.60163 85.398837 154.60163 L 76.201698 154.60163 C 74.801698 154.60163 73.698925 155.69887 73.698925 157.09887 L 73.698925 159.60164 C 70.898925 156.00164 66.798456 153.40008 60.498456 153.40008 z M 181.2019 154.60163 C 179.8019 154.60163 178.6988 155.69887 178.7988 157.09887 L 178.7988 200.5984 L 193.40015 200.5984 L 193.40015 157.09887 C 193.40015 155.69887 192.29738 154.60163 190.89738 154.60163 L 181.2019 154.60163 z M 258.79895 154.60163 C 257.49895 154.60163 256.40172 155.6992 256.30172 156.9992 C 256.00172 167.9992 253.89849 178.00258 250.59849 186.00258 L 238.00157 156.20185 C 237.60157 155.30185 236.69813 154.7013 235.69813 154.7013 L 225.1001 154.7013 C 223.3001 154.7013 222.1022 156.50108 222.8022 158.10108 L 240.69814 200.5984 C 237.39814 203.4984 233.70111 205.10007 229.80111 205.10007 L 229.80111 219.80109 C 252.00111 219.80109 270.09754 192.0982 270.89754 157.2982 C 270.99754 155.7982 269.89997 154.60163 268.49997 154.60163 L 258.79895 154.60163 z M 63.997909 166.99922 C 69.797909 166.99922 73.798593 171.39758 73.798593 177.49758 C 73.798593 183.69758 69.797909 188.10114 63.997909 188.10114 C 58.097909 188.10114 54.202763 183.59724 54.202763 177.59724 C 54.202763 171.59724 58.097909 166.99922 63.997909 166.99922 z "
   transform="scale(0.35273369)" />
</svg>
