<?xml version="1.0" encoding="UTF-8" standalone="no"?>
<!-- Created with Inkscape (http://www.inkscape.org/) -->

<svg
   version="1.1"
   id="svg59"
   width="100"
   height="30.200014"
   viewBox="0 0 100 30.200014"
   sodipodi:docname="HBO 2.svg"
   inkscape:version="1.4.2 (f4327f4, 2025-05-13)"
   inkscape:export-filename="HBO 2.png"
   inkscape:export-xdpi="300"
   inkscape:export-ydpi="300"
   xmlns:inkscape="http://www.inkscape.org/namespaces/inkscape"
   xmlns:sodipodi="http://sodipodi.sourceforge.net/DTD/sodipodi-0.dtd"
   xmlns="http://www.w3.org/2000/svg"
   xmlns:svg="http://www.w3.org/2000/svg">
  <defs
     id="defs63" />
  <sodipodi:namedview
     id="namedview61"
     pagecolor="#ffffff"
     bordercolor="#111111"
     borderopacity="1"
     inkscape:showpageshadow="true"
     inkscape:pageopacity="0"
     inkscape:pagecheckerboard="false"
     inkscape:deskcolor="#d1d1d1"
     showgrid="false"
     inkscape:zoom="19.16"
     inkscape:cx="83.924843"
     inkscape:cy="14.744259"
     inkscape:window-width="1920"
     inkscape:window-height="974"
     inkscape:window-x="-11"
     inkscape:window-y="-11"
     inkscape:window-maximized="1"
     inkscape:current-layer="g1"
     showborder="false"
     showguides="false">
    <sodipodi:guide
       position="70.062734,27.636752"
       orientation="1,0"
       id="guide1"
       inkscape:locked="false" />
    <sodipodi:guide
       position="100,26.708674"
       orientation="1,0"
       id="guide2"
       inkscape:locked="false" />
    <sodipodi:guide
       position="95.857163,30.200014"
       orientation="0,-1"
       id="guide3"
       inkscape:locked="false" />
    <sodipodi:guide
       position="95.326833,0"
       orientation="0,-1"
       id="guide4"
       inkscape:locked="false" />
  </sodipodi:namedview>
  <g
     id="g1"
     transform="matrix(0.09999998,0,0,0.09999998,-1.9531246e-4,-1.7466747e-4)">
    <path
       style="display:inline;opacity:1;fill:#ffffff;stroke-width:1.18928"
       d="m 836.83155,284.59909 c -20.89984,-2.16312 -42.43844,-10.03393 -60.58419,-22.13919 -27.45276,-18.31403 -45.90796,-44.52663 -54.62433,-77.58488 -13.34395,-50.6091 5.15672,-107.344958 45.34211,-139.050411 27.04585,-21.33861 59.95323,-31.223415 95.03017,-28.545413 42.81487,3.268767 82.07728,28.628809 104.13984,67.265107 13.21603,23.144127 18.86221,49.454297 16.72482,77.935477 -4.40264,58.66807 -48.50256,108.48065 -106.3585,120.13607 -11.80288,2.37777 -28.02317,3.18868 -39.66992,1.98324 z"
       id="path4"
       sodipodi:nodetypes="sssssssss" />
    <path
       style="display:inline;fill:#166ec0;stroke-width:1.33864"
       d="m 835.13807,301.37757 c -23.52463,-2.43479 -47.76824,-11.29409 -68.19291,-24.91963 -30.90052,-20.61408 -51.6735,-50.1187 -61.48455,-87.3287 C 690.44081,132.16418 711.26496,68.302913 756.4972,32.615598 786.93971,8.5970899 823.9799,-2.5291399 863.46213,0.48519044 911.65408,4.1644798 955.84743,32.709468 980.68081,76.198067 c 14.87582,26.050773 21.23109,55.665223 18.82527,87.723323 -4.95556,66.03615 -54.59395,122.10465 -119.71598,135.22387 -13.28519,2.67639 -31.54257,3.58914 -44.65203,2.23231 z m 100.63367,-80.65449 v -25.54396 h -36.82169 -36.82169 l 22.63303,-17.3947 c 24.6131,-18.91648 36.3241,-30.64958 42.77307,-42.85368 C 939.54386,112.204 938.54361,84.038939 925.0006,63.582802 910.77899,42.10166 886.97556,31.160043 854.46508,31.160043 c -27.63667,0 -45.49487,6.76209 -61.99268,23.473824 -13.32852,13.501344 -20.76429,30.038635 -24.05291,53.494143 l -0.89536,6.38599 h 32.80732 32.80729 l 0.0293,-5.04157 c 0.0647,-11.143641 7.64604,-20.502386 16.60857,-20.502386 9.33728,0 18.00185,8.118555 18.01246,16.877366 0.0156,12.8519 -18.4904,33.54364 -67.51654,75.49081 L 767.82682,209.099 v 18.58402 18.58401 h 83.97244 83.97247 z"
       id="path256" />
    <path
       id="Fill-15"
       d="M 400.97202,1.2579808e-4 C 344.22785,-0.04072614 315.23404,41.694742 308.07025,58.540649 308.13714,33.251833 283.19206,3.4030044 254.01263,3.3710789 H 159.99977 V 205.99106 l 87.65095,0.0174 c 35.33866,0 60.48519,-30.59661 60.52812,-56.83229 8.06652,16.51167 36.04901,57.84425 92.79318,57.8243 56.81009,-0.0219 103.0403,-47.18574 103.02732,-103.95736 C 503.9883,45.074186 457.78211,0.0430596 400.97202,1.2579808e-4 Z M 6.1447177e-5,3.0002473 V 206.00043 H 56.926103 v -78.76356 h 35.848601 v 78.76356 H 148.00035 V 3.0002473 H 92.774704 V 78.514684 H 56.926103 V 3.0002473 Z M 212.52784,48.482678 h 27.879 c 8.11144,0 14.49968,8.000112 14.49968,17.118498 0,9.118381 -6.38824,17.125191 -14.49968,17.125191 h -27.879 z m 188.47729,3.026896 c 28.50741,0 51.6196,23.092113 51.6196,51.573706 0,28.48659 -23.11219,51.57639 -51.6196,51.57639 -28.50839,0 -51.61563,-23.0898 -51.61563,-51.57639 0,-28.481593 23.10724,-51.573706 51.61563,-51.573706 z m 0,11.031237 c -22.41207,0 -40.57632,18.153093 -40.57632,40.542469 0,22.39537 18.16425,40.54515 40.57632,40.54515 22.40909,0 40.57633,-18.14978 40.57633,-40.54515 0,-22.389376 -18.16724,-40.542469 -40.57633,-40.542469 z M 298.29962,90.321052 c -1.31811,5.774943 -1.41897,22.488588 0.12183,28.263528 -4.28088,-6.58512 -14.41553,-14.69013 -20.90528,-15.5013 6.3869,-0.80817 17.03279,-8.104759 20.78345,-12.762228 z m -85.87375,34.239668 h 27.88033 c 8.11043,0 14.49835,8.00445 14.49835,17.11984 0,9.11938 -6.38792,17.12118 -14.49835,17.12118 h -27.88033 z"
       transform="matrix(1.474844,0,0,1.4589253,0.0018625,0.00372272)"
       style="display:inline;fill:#ffffff" />
  </g>
</svg>
