<?xml version="1.0" encoding="UTF-8" standalone="no"?>
<!-- Generator: Adobe Illustrator 22.0.0, SVG Export Plug-In . SVG Version: 6.00 Build 0)  -->

<svg
   version="1.1"
   id="Layer_1"
   x="0px"
   y="0px"
   viewBox="0 0 99.999997 72.507872"
   xml:space="preserve"
   sodipodi:docname="HBO Pop.svg"
   width="100"
   height="72.507874"
   inkscape:version="1.4.2 (f4327f4, 2025-05-13)"
   inkscape:export-filename="HBO Pop.png"
   inkscape:export-xdpi="300"
   inkscape:export-ydpi="300"
   xmlns:inkscape="http://www.inkscape.org/namespaces/inkscape"
   xmlns:sodipodi="http://sodipodi.sourceforge.net/DTD/sodipodi-0.dtd"
   xmlns="http://www.w3.org/2000/svg"
   xmlns:svg="http://www.w3.org/2000/svg"><defs
   id="defs4" /><sodipodi:namedview
   id="namedview4"
   pagecolor="#ffffff"
   bordercolor="#000000"
   borderopacity="0.25"
   inkscape:showpageshadow="2"
   inkscape:pageopacity="0.0"
   inkscape:pagecheckerboard="0"
   inkscape:deskcolor="#d1d1d1"
   inkscape:zoom="7.1081666"
   inkscape:cx="72.944267"
   inkscape:cy="45.511032"
   inkscape:window-width="1920"
   inkscape:window-height="974"
   inkscape:window-x="-11"
   inkscape:window-y="-11"
   inkscape:window-maximized="1"
   inkscape:current-layer="Layer_1" />
<path
   id="path1"
   d="M 303.09867 0.1 C 260.09867 0.1 238.10324 31.696398 232.70324 44.496398 C 232.70324 25.296398 213.8019 2.698414 191.7019 2.698414 L 120.50238 2.698414 L 120.50238 156.30265 L 186.89968 156.30265 C 213.69968 156.30265 232.70003 133.10174 232.80003 113.20174 C 238.90003 125.70174 260.09867 157.00251 303.09867 157.00251 C 346.09867 157.00251 381.19999 121.20133 381.19999 78.201327 C 381.19999 34.201327 346.19867 0.1 303.09867 0.1 z M 0 2.601625 L 0.20102343 156.19842 L 42.996679 156.19842 L 42.996679 96.598694 L 70.097616 96.598694 L 70.097616 156.30265 L 111.79881 156.30265 L 111.79881 2.601625 L 70.097616 2.601625 L 70.097616 59.796515 L 42.996679 59.796515 L 42.996679 2.601625 L 0 2.601625 z M 160.40181 36.797945 L 181.50183 36.797945 C 187.60183 36.797945 192.49855 42.89746 192.49855 49.79746 C 192.49855 56.69746 187.70183 62.796976 181.50183 62.796976 L 160.40181 62.796976 L 160.40181 36.797945 z M 303.09867 39.098546 C 324.69867 39.098546 342.20145 56.601327 342.20145 78.201327 C 342.20145 99.801327 324.69867 117.29666 303.09867 117.29666 C 281.59867 117.29666 264.00333 99.801327 264.00333 78.201327 C 264.00333 56.601327 281.49867 39.098546 303.09867 39.098546 z M 303.09867 47.496859 C 286.09867 47.496859 272.40164 61.301327 272.40164 78.201327 C 272.40164 95.201327 286.19867 108.89835 303.09867 108.89835 C 320.09867 108.89835 333.89992 95.101327 333.89992 78.201327 C 333.89992 61.201327 320.09867 47.496859 303.09867 47.496859 z M 225.3026 68.500085 C 224.3026 72.900085 224.19939 85.597913 225.39939 89.897913 C 222.19939 84.897913 214.50043 78.801327 209.60043 78.201327 C 214.40043 77.601327 222.5026 72.100085 225.3026 68.500085 z M 160.29758 94.499116 L 181.39759 94.499116 C 187.59759 94.499116 192.40176 100.59863 192.40176 107.49863 C 192.40176 114.39863 187.59759 120.49815 181.39759 120.49815 L 160.29758 120.49815 L 160.29758 94.499116 z M 93.498233 186.50084 C 88.298233 186.60084 84.003413 190.70004 83.603413 195.80004 L 83.603413 196.70092 L 83.603413 197.6018 L 83.603413 266.2997 C 83.603413 271.9997 88.203491 276.49978 93.803491 276.49978 C 99.403491 276.49978 104.00357 271.8997 104.00357 266.2997 L 104.00357 265.89765 L 104.00357 242.30346 L 114.59825 242.30346 C 122.69825 242.30346 129.40162 239.69654 134.90162 234.39654 C 140.40162 229.19654 143.0989 222.50164 143.0989 214.30164 C 143.1989 206.30164 140.4984 199.60032 134.9984 194.40032 C 129.4984 189.20032 122.80248 186.50084 114.70248 186.50084 L 94.101303 186.50084 L 93.803491 186.50084 L 93.498233 186.50084 z M 241.8982 186.50084 C 236.6982 186.60084 232.40338 190.70004 232.00338 195.80004 L 232.00338 196.70092 L 232.00338 197.6018 L 232.00338 266.2997 C 232.00338 271.9997 236.60346 276.49978 242.20346 276.49978 C 247.80346 276.49978 252.40354 271.8997 252.40354 266.2997 L 252.40354 265.89765 L 252.40354 242.30346 L 262.99821 242.30346 C 271.09821 242.30346 277.80158 239.69654 283.30158 234.39654 C 288.80158 229.19654 291.49887 222.50164 291.49887 214.30164 C 291.59887 206.30164 288.89837 199.60032 283.39837 194.40032 C 277.89837 189.20032 271.20245 186.50084 263.10245 186.50084 L 242.50127 186.50084 L 242.20346 186.50084 L 241.8982 186.50084 z M 187.1007 186.79865 C 164.0007 186.79865 145.30272 205.49985 145.30272 228.49985 L 145.30272 228.59664 C 145.40272 251.59664 164.1007 270.20104 187.1007 270.20104 C 210.2007 270.20104 228.89868 251.59664 228.89868 228.59664 L 228.89868 228.49985 C 228.89868 205.39985 210.2007 186.79865 187.1007 186.79865 z M 104.10036 206.00011 L 114.70248 206.00011 C 117.00248 206.00011 118.90238 206.80072 120.50238 208.30072 C 122.10238 209.90072 122.80298 211.89843 122.80298 214.39843 C 122.80298 216.99843 122.00238 219.00037 120.50238 220.60037 C 118.90238 222.20037 117.00248 222.99776 114.70248 222.99776 L 104.10036 222.99776 L 104.10036 206.00011 z M 252.50032 206.00011 L 263.10245 206.00011 C 265.40245 206.00011 267.30235 206.80072 268.90235 208.30072 C 270.50235 209.90072 271.20295 211.89843 271.20295 214.39843 C 271.20295 216.99843 270.50235 219.00037 268.90235 220.60037 C 267.30235 222.20037 265.40245 222.99776 263.10245 222.99776 L 252.50032 222.99776 L 252.50032 206.00011 z M 162.00255 228.59664 L 212.19885 228.59664 C 212.09885 242.29664 200.9007 253.50121 187.1007 253.50121 C 173.3007 253.50121 162.00255 242.29664 162.00255 228.59664 z "
   transform="matrix(0.26232949,0,0,0.26232949,0,-0.02623295)"
   style="fill:#ffffff" />
</svg>
