<?xml version="1.0" encoding="UTF-8" standalone="no"?>
<svg
   width="100"
   height="41.204098"
   viewBox="0 0 100 41.204098"
   version="1.1"
   id="svg200"
   sodipodi:docname="HBO.svg"
   inkscape:version="1.4.2 (f4327f4, 2025-05-13)"
   inkscape:export-filename="HBO.png"
   inkscape:export-xdpi="300"
   inkscape:export-ydpi="300"
   xmlns:inkscape="http://www.inkscape.org/namespaces/inkscape"
   xmlns:sodipodi="http://sodipodi.sourceforge.net/DTD/sodipodi-0.dtd"
   xmlns="http://www.w3.org/2000/svg"
   xmlns:svg="http://www.w3.org/2000/svg"
   xmlns:rdf="http://www.w3.org/1999/02/22-rdf-syntax-ns#"
   xmlns:cc="http://creativecommons.org/ns#">
  <defs
     id="defs204" />
  <sodipodi:namedview
     id="namedview202"
     pagecolor="#ffffff"
     bordercolor="#111111"
     borderopacity="1"
     inkscape:showpageshadow="true"
     inkscape:pageopacity="0"
     inkscape:pagecheckerboard="false"
     inkscape:deskcolor="#d1d1d1"
     showgrid="false"
     inkscape:zoom="9.58"
     inkscape:cx="50.052192"
     inkscape:cy="20.615866"
     inkscape:window-width="1920"
     inkscape:window-height="974"
     inkscape:window-x="-11"
     inkscape:window-y="-11"
     inkscape:window-maximized="1"
     inkscape:current-layer="svg200"
     showborder="false"
     borderlayer="true"
     inkscape:antialias-rendering="true" />
  <path
     id="Fill-15"
     d="M 79.5582,6.4201341e-6 C 68.299416,-0.00842987 62.546352,8.2995729 61.12496,11.652783 61.138241,6.6189907 56.188732,0.6771637 50.399153,0.67080032 H 31.746006 V 41.003111 l 17.391355,0.0036 c 7.01165,0 12.000839,-6.090342 12.009361,-11.312613 1.600499,3.286684 7.152694,11.513963 18.411478,11.509998 11.271864,-0.0048 20.44437,-9.3925 20.441799,-20.693014 C 99.99783,8.9722473 90.830064,0.00874401 79.5582,1.8719787e-4 Z M 0,0.59711531 V 41.004642 H 11.295045 V 25.326728 H 18.40766 V 41.004642 H 29.36521 V 0.59711531 H 18.40766 V 15.628291 H 11.295045 V 0.59711531 Z M 42.168296,9.6507182 h 5.531652 c 1.609417,0 2.876733,1.5923748 2.876733,3.4074078 0,1.815045 -1.267316,3.408564 -2.876733,3.408564 H 42.168296 Z M 79.56469,10.253178 c 5.656242,0 10.242088,4.596431 10.242088,10.265754 0,5.670323 -4.585846,10.266525 -10.242088,10.266525 -5.656436,0 -10.241326,-4.596202 -10.241326,-10.266525 0,-5.669323 4.58489,-10.265754 10.241326,-10.265754 z m 0,2.195631 c -4.446848,0 -8.051037,3.61347 -8.051037,8.070123 0,4.457847 3.604189,8.070509 8.051037,8.070509 4.446257,0 8.051036,-3.612662 8.051036,-8.070509 0,-4.456653 -3.604779,-8.070123 -8.051036,-8.070123 z m -20.378041,5.529738 c -0.261532,1.149517 -0.281665,4.476442 0.02406,5.62596 -0.849387,-1.310783 -2.860419,-2.924116 -4.148072,-3.085575 1.267245,-0.160868 3.37984,-1.613309 4.12402,-2.540385 z m -17.038587,6.815586 h 5.531651 c 1.60922,0 2.876734,1.593363 2.876734,3.407793 0,1.815237 -1.267514,3.407793 -2.876734,3.407793 h -5.531651 z"
     style="stroke-width:0.198733;fill:#ffffff" />
  <metadata
     id="metadata439">
    <rdf:RDF>
      <cc:Work
         rdf:about="" />
    </rdf:RDF>
  </metadata>
</svg>
