<?xml version="1.0" encoding="UTF-8" standalone="no"?>
<svg
   id="_Слой_1"
   data-name="Слой 1"
   width="100"
   height="23.26211"
   viewBox="0 0 100 23.262109"
   version="1.1"
   sodipodi:docname="N+Foro TV.svg"
   inkscape:version="1.4.2 (f4327f4, 2025-05-13)"
   inkscape:export-filename="N+Foro TV.png"
   inkscape:export-xdpi="300"
   inkscape:export-ydpi="300"
   xmlns:inkscape="http://www.inkscape.org/namespaces/inkscape"
   xmlns:sodipodi="http://sodipodi.sourceforge.net/DTD/sodipodi-0.dtd"
   xmlns="http://www.w3.org/2000/svg"
   xmlns:svg="http://www.w3.org/2000/svg">
  <defs
     id="defs6" />
  <sodipodi:namedview
     id="namedview6"
     pagecolor="#ffffff"
     bordercolor="#000000"
     borderopacity="0.25"
     inkscape:showpageshadow="2"
     inkscape:pageopacity="0.0"
     inkscape:pagecheckerboard="0"
     inkscape:deskcolor="#d1d1d1"
     inkscape:zoom="7.35"
     inkscape:cx="50.952381"
     inkscape:cy="33.945578"
     inkscape:window-width="1920"
     inkscape:window-height="974"
     inkscape:window-x="-11"
     inkscape:window-y="-11"
     inkscape:window-maximized="1"
     inkscape:current-layer="_Слой_1" />
  <path
     id="polygon3"
     style="fill:#ffffff;stroke-width:0px"
     d="M 20.460156,0 19.816015,2.6878905 16.06211,18.016015 21.642188,22.776172 26.760156,2.6878905 27.403906,0 Z m 43.859765,3.3398427 c -3.908001,0 -6.246091,2.422328 -6.246091,5.7863293 v 8.321875 c 0,3.391999 2.33809,5.814062 6.246091,5.814062 3.907999,0 6.246094,-2.422063 6.246094,-5.814062 V 9.126172 c 0,-3.3620017 -2.310095,-5.7863293 -6.246094,-5.7863293 z m 29.433985,0 c -3.908002,0 -6.246097,2.422328 -6.246097,5.7863293 v 8.321875 c 0,3.391999 2.338095,5.814062 6.246097,5.814062 3.907999,0 6.246094,-2.422063 6.246094,-5.814062 V 9.126172 C 100,5.7641703 97.689905,3.3398427 93.753906,3.3398427 Z M 4.7800781,3.7359371 3.821875,7.5519519 H 3.81992 L 15.401953,17.446093 18.832031,3.7421865 Z M 46.066016,3.7960859 V 22.776165 h 4.080079 V 14.91015 h 4.591794 V 11.633984 H 50.146095 V 7.1019521 h 6.301951 V 3.7960919 Z m 27.123829,0 V 22.776165 h 4.078126 V 15.02382 h 2.196089 c 1.17,0 1.682035,0.854345 1.682035,1.852344 v 3.105861 c 0,1.766001 0.628031,2.905857 2.282029,2.905857 h 2.42383 v -1.195701 c -0.514,-0.456 -0.79805,-1.054282 -0.79805,-1.938283 h 0.002 v -3.105859 c 0,-1.31 -0.827892,-2.735983 -2.537891,-3.133984 1.712001,-0.456 2.45195,-1.624061 2.45195,-3.164062 V 8.2980395 c 0,-2.7359994 -1.85398,-4.5019536 -4.93398,-4.5019536 z M 64.319921,6.757806 c 1.339999,0 2.140235,0.8542806 2.140235,2.1382802 v 8.7777358 c 0,1.282 -0.770236,2.13828 -2.140235,2.13828 -1.370002,0 -2.109765,-0.85428 -2.109765,-2.13828 V 8.8960923 c 0,-1.2820001 0.769765,-2.1382802 2.109765,-2.1382802 z m 29.432033,0 c 1.34,0 2.140236,0.8542806 2.140236,2.1382802 v 8.7777358 c 0,1.282 -0.770234,2.13828 -2.140236,2.13828 -1.369999,0 -2.109764,-0.85428 -2.109764,-2.13828 V 8.8960923 c 0,-1.2820001 0.769765,-2.1382802 2.109764,-2.1382802 z M 77.267971,6.9878837 h 2.310154 c 1.056,0 1.453904,0.5982813 1.453904,1.5382804 v 1.9937509 l 0.002,0.0019 c 0,1.140001 -0.570177,1.682031 -1.626177,1.682031 H 77.268015 Z M 32.271875,7.6160149 v 5.7078121 h -5.20586 v 3.744142 h 5.20586 v 5.708203 h 3.896093 v -5.708203 h 5.25 v -3.744142 h -5.25 V 7.6160149 Z M 3.6101562,8.3839845 0,22.749999 14.060156,22.776182 15.2,18.251962 Z" />
</svg>
