<?xml version="1.0" encoding="UTF-8" standalone="no"?>
<svg
   id="Layer_1"
   data-name="Layer 1"
   width="100"
   height="94.134354"
   viewBox="0 0 99.999998 94.134354"
   version="1.1"
   sodipodi:docname="Nick Jr.svg"
   inkscape:version="1.4.4 (dcaf3e7, 2026-05-05)"
   inkscape:export-filename="Nick Jr.png"
   inkscape:export-xdpi="300"
   inkscape:export-ydpi="300"
   xml:space="preserve"
   xmlns:inkscape="http://www.inkscape.org/namespaces/inkscape"
   xmlns:sodipodi="http://sodipodi.sourceforge.net/DTD/sodipodi-0.dtd"
   xmlns="http://www.w3.org/2000/svg"
   xmlns:svg="http://www.w3.org/2000/svg"><sodipodi:namedview
     id="namedview10"
     pagecolor="#ffffff"
     bordercolor="#000000"
     borderopacity="0.25"
     inkscape:showpageshadow="2"
     inkscape:pageopacity="0.0"
     inkscape:pagecheckerboard="0"
     inkscape:deskcolor="#d1d1d1"
     inkscape:zoom="7.807989"
     inkscape:cx="49.948841"
     inkscape:cy="47.067177"
     inkscape:window-width="1920"
     inkscape:window-height="974"
     inkscape:window-x="-11"
     inkscape:window-y="-11"
     inkscape:window-maximized="1"
     inkscape:current-layer="Layer_1" /><defs
     id="defs1"><style
       id="style1">
      .cls-1 {
        fill: #ff6700;
      }

      .cls-2 {
        fill: #fff;
      }

      .cls-3 {
        fill: #12bdc7;
      }
    </style><style
       id="style1-8">
      .cls-1 {
        fill: #ff6700;
      }

      .cls-2 {
        fill: #fff;
      }

      .cls-3 {
        fill: #12bdc7;
      }
    </style></defs><path
     id="path1"
     style="display:inline;stroke-width:0.0684622"
     class="cls-1"
     d="M 51.843614,0.0114824 C 47.869381,-0.16515018 44.079955,1.7055025 41.796739,4.9704667 38.96651,8.5989654 35.942124,12.448352 30.695176,13.257576 c -5.552971,0.672983 -9.96993,5.290428 -10.224609,11.076172 -0.117071,2.661127 0.848846,5.036236 2.072266,7.177735 6.158863,10.771164 -3.074397,23.414423 -14.5253908,24.734375 -4.4431994,0.764723 -7.80868812,4.749876 -8.00585937,9.251953 -0.28411829,6.440243 4.69327457,11.891764 11.11914017,12.173828 3.605906,0.160202 6.862444,-1.301245 9.109375,-3.787109 9.749708,-9.733962 33.173912,-6.389474 34.9375,9.222656 0.326565,5.924722 5.097847,10.749307 11.146485,11.015625 6.440928,0.284118 11.892885,-4.711697 12.177734,-11.160156 0.145824,-3.305357 -1.732191,-7.049444 -3.900391,-9.240235 h -0.002 C 63.859802,62.875262 78.047619,53.4685 85.19713,52.632576 v 0.002 C 92.345272,51.73019 97.645269,48.286441 98.038926,41.845513 98.384661,36.168624 94.497453,30.334888 88.042833,30.126763 84.183617,30.002846 82.282134,30.822184 78.744005,33.740044 75.943215,36.046537 71.33379,36.79134 68.122911,36.449029 62.917727,35.8938 57.71493,31.100186 57.69713,25.974419 c -0.0096,-2.797368 1.333763,-5.157041 2.585937,-6.839843 1.4692,-1.97582 2.56457,-4.298945 2.681641,-6.951172 C 63.246772,5.7444837 58.268111,0.29423145 51.843614,0.0114824 Z M 9.497911,19.443123 c -3.277972,-0.0034 -5.9379863,2.659709 -5.9414063,5.947266 0.00342,3.287557 2.6634343,5.950666 5.9414063,5.947266 3.277972,0.0034 5.938006,-2.659709 5.941406,-5.947266 -0.0034,-3.287557 -2.663434,-5.950666 -5.941406,-5.947266 z" /><path
     id="rect4"
     style="font-variation-settings:normal;display:inline;opacity:1;vector-effect:none;fill:#16bccb;fill-opacity:1;fill-rule:evenodd;stroke-width:88.836;stroke-linecap:butt;stroke-linejoin:round;stroke-miterlimit:4;stroke-dasharray:none;stroke-dashoffset:0;stroke-opacity:1;-inkscape-stroke:none;stop-color:#000000;stop-opacity:1"
     d="m 78.337891,31.898438 c -1.976505,0 -3.572266,1.597713 -3.572266,3.574218 0,1.976505 1.595761,3.574219 3.572266,3.574219 1.97582,0 3.574218,-1.597714 3.574218,-3.574219 0,-1.976505 -1.597713,-3.574218 -3.574218,-3.574218 z m 8.324218,8.271484 c -1.98609,0 -3.603515,1.608425 -3.603515,3.605469 v 14.58789 h 7.208984 v -9.710937 c 0,-0.704476 0.442045,-1.881655 1.251953,-2.197266 0.829763,-0.315611 1.586533,0.05184 2.490235,0.388672 2.995223,1.145374 5.317221,-0.366985 5.685546,-2.322266 0.367648,-1.955282 -0.925076,-3.83667 -2.890624,-4.193359 -2.407134,-0.45185 -4.098903,0.304659 -6.064454,1.818359 -0.13624,0.105432 -0.51397,0.431678 -0.640625,0.53711 -0.46212,-1.460984 -1.829322,-2.513672 -3.4375,-2.513672 z m -8.322265,0.002 c -1.986775,0 -3.605469,1.607982 -3.605469,4.224609 v 8.765625 c 0,1.198085 -0.682659,1.366786 -0.914063,0.07422 -0.640805,-3.67916 -5.003101,-3.290479 -6.253906,-1.177734 -1.345283,2.281162 -0.01019,4.445975 2.029297,5.759765 1.176866,0.756508 3.058335,1.228516 4.855469,1.228516 h 0.199219 c 5.13935,0 7.28254,-2.848169 7.283203,-7.240234 h 0.01172 v -8.029297 c 0,-1.986774 -1.618694,-3.605469 -3.605468,-3.605469 z m 18.085937,11.253906 c -1.976505,0 -3.572265,1.598902 -3.572265,3.564453 0,1.965551 1.59576,3.572266 3.572265,3.572266 1.97582,0 3.574219,-1.595761 3.574219,-3.572266 0,-1.976505 -1.597714,-3.564453 -3.574219,-3.564453 z" /><path
     id="rect2"
     style="font-variation-settings:normal;display:inline;opacity:1;vector-effect:none;fill:#ffffff;fill-opacity:1;fill-rule:evenodd;stroke-width:88.836;stroke-linecap:butt;stroke-linejoin:round;stroke-miterlimit:4;stroke-dasharray:none;stroke-dashoffset:0;stroke-opacity:1;-inkscape-stroke:none;stop-color:#000000;stop-opacity:1"
     d="m 24.076172,30.984375 c -1.11388,0 -2.112876,0.452035 -2.837891,1.177734 -0.7257,0.7257 -1.177734,1.724011 -1.177734,2.837891 0,1.113881 0.452034,2.112876 1.177734,2.837891 l 0.882813,0.882812 C 23.603301,40.20291 23.707096,40.591732 22.298828,42 l -0.808594,0.808594 c -0.66203,0.66203 -1.072265,1.577992 -1.072265,2.576172 v 12.980468 h 7.294922 V 45.384766 c 0,-1.009134 -0.410236,-1.924412 -1.072266,-2.576172 L 25.830078,42 c -1.408268,-1.408268 -1.301835,-1.79709 0.179688,-3.279297 l 0.882812,-0.882812 h 0.02148 c 0.7257,-0.7257 1.175782,-1.72401 1.175782,-2.837891 0,-1.11388 -0.450081,-2.112876 -1.175782,-2.837891 -0.725697,-0.725699 -1.724009,-1.177734 -2.83789,-1.177734 z m 38.320312,9.068359 c -1.279438,-0.04505 -2.544501,0.591896 -3.238281,1.769532 l -3.269531,5.84375 v -3.888672 c 0,-1.997043 -1.618695,-3.605469 -3.605469,-3.605469 -1.986774,0 -3.605469,1.618695 -3.605469,3.605469 v 14.576172 h 7.220704 v -5.707032 l 3.804687,5.707032 h 5.824219 c 0.693523,0 1.259765,-0.566244 1.259765,-1.259766 l -0.0098,0.0078 c 0,-0.241672 -0.07306,-0.462199 -0.189453,-0.662109 l -3.951172,-5.980469 2.732422,-4.970703 c 1.009134,-1.712925 0.44144,-3.930319 -1.271485,-4.939453 -0.535289,-0.315354 -1.119609,-0.475615 -1.701172,-0.496094 z M 9.9394531,40.169922 c -2.6166268,0 -5.0129526,1.072231 -6.7265625,2.785156 -1.7129253,1.712925 -2.78515622,4.109252 -2.78515622,6.726563 v 8.68164 H 7.6484375 v -8.535156 c 0,-1.040626 0.2522015,-1.932666 0.671875,-2.615234 0.4203582,-0.683254 0.9776494,-1.083985 1.6191406,-1.083985 0.6414909,0 1.1987819,0.401416 1.6191409,1.083985 0.420358,0.683253 0.671875,1.575293 0.671875,2.615234 v 8.535156 h 7.220703 v -8.68164 c 0,-2.616627 -1.072231,-5.012953 -2.785156,-6.726563 -1.712925,-1.712925 -4.109251,-2.785156 -6.7265629,-2.785156 z m 28.2734379,0.01172 c -2.617311,0 -5.012953,1.072231 -6.726563,2.785156 -1.712925,1.712926 -2.785156,4.10925 -2.785156,6.726562 0,2.617311 1.072231,5.011 2.785156,6.72461 1.313791,1.31379 3.60537,2.785156 6.726563,2.785156 2.344148,0 4.508263,-0.861263 6.158203,-2.269531 1.208358,-1.019403 2.994172,-3.079271 3.298828,-6.347656 h -7.220703 c -0.09448,0.819492 -0.30353,1.544722 -0.619141,2.132812 l 0.0098,-0.0098 h 0.002 c -0.430627,0.788685 -0.97765,1.25 -1.619141,1.25 -0.641491,0 -1.188512,-0.461315 -1.61914,-1.25 -0.420439,-0.798921 -0.671875,-1.818984 -0.671875,-3.027343 0,-1.208358 0.252202,-2.226437 0.671875,-3.025391 0.430628,-0.788685 0.977649,-1.251953 1.61914,-1.251953 0.641491,0 1.188514,0.474222 1.619141,1.251953 0.315611,0.58809 0.523978,1.302366 0.619141,2.132812 h 7.220703 c -0.210179,-2.259938 -1.218218,-4.318834 -2.742188,-5.822265 -1.712925,-1.712925 -4.10925,-2.785157 -6.726562,-2.785156 z" /></svg>
