<?xml version="1.0" encoding="UTF-8" standalone="no"?>
<svg
   id="Layer_1"
   data-name="Layer 1"
   width="100"
   height="42.156273"
   viewBox="0 0 100 42.156271"
   version="1.1"
   sodipodi:docname="Nickelodeon.svg"
   inkscape:version="1.4.2 (f4327f4, 2025-05-13)"
   inkscape:export-filename="Nickelodeon.png"
   inkscape:export-xdpi="300"
   inkscape:export-ydpi="300"
   xmlns:inkscape="http://www.inkscape.org/namespaces/inkscape"
   xmlns:sodipodi="http://sodipodi.sourceforge.net/DTD/sodipodi-0.dtd"
   xmlns="http://www.w3.org/2000/svg"
   xmlns:svg="http://www.w3.org/2000/svg">
  <sodipodi:namedview
     id="namedview13"
     pagecolor="#ffffff"
     bordercolor="#000000"
     borderopacity="0.25"
     inkscape:showpageshadow="2"
     inkscape:pageopacity="0.0"
     inkscape:pagecheckerboard="0"
     inkscape:deskcolor="#d1d1d1"
     inkscape:zoom="4.6299997"
     inkscape:cx="26.457885"
     inkscape:cy="-5.7235425"
     inkscape:window-width="1920"
     inkscape:window-height="974"
     inkscape:window-x="-11"
     inkscape:window-y="-11"
     inkscape:window-maximized="1"
     inkscape:current-layer="Layer_1" />
  <defs
     id="defs1">
    <style
       id="style1">
      .cls-1 {
        fill: #ff6700;
      }

      .cls-2 {
        fill: #fff;
      }
    </style>
  </defs>
  <path
     id="path16"
     style="fill:#ff6700;stroke-width:2.87156"
     d="M 35.855251,3.4639808e-5 C 32.547256,-0.01110329 29.854059,2.66511 29.84292,5.9731054 v 0.022427 c 0,1.6547933 0.67273,3.1564674 1.761074,4.2400386 l 1.32922,1.323611 c 2.214878,2.210104 2.368679,2.79592 0.263609,4.896235 L 31.9966,17.661248 c -1.027881,1.019926 -1.603201,2.406699 -1.598426,3.853052 V 40.902944 H 41.317956 V 21.514307 c 0,-1.446353 -0.573729,-2.831535 -1.598428,-3.853051 l -1.211449,-1.205831 c -2.105086,-2.100315 -1.945666,-2.689313 0.269209,-4.896236 l 1.323612,-1.32361 c 1.088344,-1.0835718 1.755465,-2.585246 1.755465,-4.2400392 0,-1.6547938 -0.667121,-3.156468 -1.755465,-4.2400393 C 38.975957,0.62896821 37.447991,-0.00473882 35.855251,3.4639808e-5 Z M 93.432289,13.555821 c -1.915201,-0.06746 -3.806679,0.888345 -4.851367,2.652829 l -4.890627,8.732461 V 19.11947 c -0.0049,-2.980219 -2.426391,-5.391376 -5.406609,-5.389785 -2.981812,-0.0048 -5.401837,2.407975 -5.406612,5.389785 v 0.0056 21.78909 h 10.813221 v -8.536163 l 5.698254,8.530555 h 8.721246 c 1.037426,-0.0032 1.881277,-0.845442 1.884462,-1.884462 H 100 c -0.0016,-0.348461 -0.101452,-0.691147 -0.286036,-0.987099 l -5.917121,-8.928751 4.09422,-7.420069 c 1.51318,-2.561747 0.660459,-5.867627 -1.90129,-7.380809 l -0.0057,-0.0056 c -0.802897,-0.472879 -1.681192,-0.71528 -2.551741,-0.745942 z m -79.197872,0.173864 c -3.774202,-0.0016 -7.3957523,1.49074 -10.0672885,4.155912 v 0.0056 C 1.5990164,20.443378 0,24.028201 0,27.93606 V 40.914169 H 10.802005 V 28.154792 c 0,-1.55296 0.375421,-2.881256 1.003924,-3.909137 0.639641,-1.015152 1.460235,-1.617679 2.422879,-1.620861 0.962645,0.0064 1.793621,0.608892 2.428488,1.620861 0.630095,1.027881 1.000743,2.356177 1.003925,3.909137 V 40.914169 H 28.468834 V 27.93606 c 0.0016,-3.77102 -1.497183,-7.388474 -4.167128,-10.050463 -2.671537,-2.666764 -6.291496,-4.160685 -10.067289,-4.155912 z m 42.798596,0.01123 c -3.774202,-0.0016 -7.395751,1.496337 -10.067288,4.161509 l -0.0224,0.02243 c -5.5356,5.548331 -5.52586,14.531671 0.0224,20.067274 5.249193,5.239648 13.641542,5.57606 19.2933,0.773978 2.833831,-2.38354 4.61098,-5.790118 4.946711,-9.478397 H 60.386907 c -0.108201,1.107438 -0.421011,2.181545 -0.925407,3.174422 v 0.0057 c -0.638899,1.172909 -1.461673,1.868473 -2.422879,1.873242 -0.961367,-0.0014 -1.787076,-0.701775 -2.42288,-1.873242 -0.630092,-1.187253 -1.003923,-2.727369 -1.003923,-4.520592 0,-1.793224 0.375422,-3.324679 1.003923,-4.514857 0.638052,-1.174267 1.460235,-1.868471 2.42288,-1.873245 0.962645,0.0064 1.786421,0.697387 2.422879,1.873245 0.504396,0.992876 0.817209,2.071 0.925407,3.180029 H 71.205736 C 70.502448,19.312265 64.366611,13.736129 57.033013,13.740902 Z"
     sodipodi:nodetypes="ccscccccccsccccsccsccccscccccccccccccscccsccsccccccccccccccccccccscccccsc" />
</svg>
