<?xml version="1.0" encoding="UTF-8" standalone="no"?>
<svg
   id="Layer_1"
   data-name="Layer 1"
   width="100"
   height="94.135323"
   viewBox="0 0 99.999998 94.135323"
   version="1.1"
   sodipodi:docname="Nick_Jr._logo_2023.svg"
   inkscape:version="1.4.2 (f4327f4, 2025-05-13)"
   xmlns:inkscape="http://www.inkscape.org/namespaces/inkscape"
   xmlns:sodipodi="http://sodipodi.sourceforge.net/DTD/sodipodi-0.dtd"
   xmlns="http://www.w3.org/2000/svg"
   xmlns:svg="http://www.w3.org/2000/svg">
  <sodipodi:namedview
     id="namedview10"
     pagecolor="#ffffff"
     bordercolor="#000000"
     borderopacity="0.25"
     inkscape:showpageshadow="2"
     inkscape:pageopacity="0.0"
     inkscape:pagecheckerboard="0"
     inkscape:deskcolor="#d1d1d1"
     inkscape:zoom="7.8079087"
     inkscape:cx="50.013392"
     inkscape:cy="47.067661"
     inkscape:window-width="1920"
     inkscape:window-height="974"
     inkscape:window-x="-11"
     inkscape:window-y="-11"
     inkscape:window-maximized="1"
     inkscape:current-layer="Layer_1" />
  <defs
     id="defs1">
    <style
       id="style1">
      .cls-1 {
        fill: #ff6700;
      }

      .cls-2 {
        fill: #fff;
      }

      .cls-3 {
        fill: #12bdc7;
      }
    </style>
  </defs>
  <g
     id="g10"
     transform="matrix(0.06846223,0,0,0.06846223,-5.147865e-5,-1.4926641e-4)">
    <path
       id="path1"
       class="cls-1"
       d="M 757.25977,0.16992188 C 699.20977,-2.4100781 643.86953,24.909609 610.51953,72.599609 569.17953,125.59961 524.98961,181.84016 448.34961,193.66016 367.23961,203.49016 302.72,270.91969 299,355.42969 c -1.71,38.87 12.39953,73.56961 30.26953,104.84961 89.96,157.33 -44.90016,342.00125 -212.16015,361.28125 C 52.209375,832.73055 3.0499219,890.95094 0.16992188,956.71094 -3.9800781,1050.7809 68.729844,1130.3898 162.58984,1134.5098 c 52.67,2.34 100.22102,-19.0006 133.04102,-55.3106 142.41,-142.17998 484.57984,-93.31928 510.33984,134.7207 4.77,86.54 74.44883,157.0202 162.79883,160.9102 94.07997,4.15 173.72087,-68.8296 177.88087,-163.0196 2.13,-48.28 -25.3105,-102.9707 -56.9805,-134.9707 h -0.029 C 932.77062,918.39984 1139.9997,781.01078 1244.4297,768.80078 l 0.02,-0.0117 v 0.0215 c 104.41,-13.21 181.8106,-63.50008 187.5606,-157.58008 5.05,-82.92 -51.7103,-168.12992 -145.9903,-171.16992 -56.37,-1.81 -84.15,10.13976 -135.83,52.75976 -40.91,33.69 -108.229,44.57031 -155.12895,39.57031 -76.03,-8.11 -152.05055,-78.12999 -152.31055,-153 -0.14,-40.86 19.4893,-75.30085 37.7793,-99.88085 21.46,-28.86 37.45015,-62.79907 39.16015,-101.53907 C 923.80945,83.920703 851.09977,4.2999219 757.25977,0.16992188 Z M 138.73047,284 c -47.880001,-0.05 -86.731251,38.84914 -86.781251,86.86914 0.05,48.02 38.90125,86.92109 86.781251,86.87109 47.88,0.05 86.7293,-38.85109 86.7793,-86.87109 -0.05,-48.02 -38.8993,-86.91914 -86.7793,-86.86914 z" />
    <path
       id="path3"
       style="fill:#16bccb"
       class="cls-3"
       d="m 1144.2598,465.93945 c -28.87,0 -52.1993,23.33117 -52.1993,52.20117 0,28.87001 23.3293,52.19922 52.1993,52.19922 28.86,0 52.2011,-23.32922 52.2011,-52.19922 0,-28.87 -23.3311,-52.20117 -52.2011,-52.20117 z m 121.5898,120.82032 c -29.01,0 -52.6601,23.49015 -52.6601,52.66015 V 852.5 h 105.3105 0.01 V 710.65039 c 0,-10.29 6.4395,-27.47984 18.2695,-32.08984 12.12,-4.61 23.1809,0.75968 36.3809,5.67968 43.75,16.73 77.6805,-5.36968 83.0605,-33.92968 5.37,-28.56 -13.5107,-56.04 -42.2207,-61.25 -35.16,-6.6 -59.8701,4.44859 -88.5801,26.55859 -1.99,1.54 -7.5191,6.29008 -9.3691,7.83008 -6.75,-21.34 -26.7112,-36.68945 -50.2012,-36.68945 z m -121.5801,0.01 c -29.02,0 -52.6601,23.5007 -52.6601,61.7207 v 128.0293 c 0,17.5 -9.9696,19.95031 -13.3496,1.07031 -9.36,-53.74 -73.0699,-48.05922 -91.33988,-17.19922 -19.65,33.32001 -0.15914,64.93891 29.63088,84.12891 17.19,11.05 44.6699,17.96094 70.9199,17.96094 h 2.9102 c 75.08,0 106.3886,-41.61125 106.3886,-105.78125 l 0.01,0.0215 h 0.1504 V 639.42969 c 0,-29.02 -23.6402,-52.66016 -52.6602,-52.66016 z m 264.1914,164.40039 c -28.87,0 -52.2011,23.33102 -52.2011,52.04102 0,28.71 23.3311,52.19922 52.2011,52.19922 28.86,0 52.1993,-23.32922 52.1993,-52.19922 0,-28.87 -23.3293,-52.04102 -52.1993,-52.04102 z" />
    <path
       id="path6"
       class="cls-2"
       d="m 351.66016,452.58008 c -16.27,0 -30.85922,6.59922 -41.44922,17.19922 -10.6,10.6 -17.20117,25.18117 -17.20117,41.45117 0,16.27 6.60117,30.85922 17.20117,41.44922 l 12.89844,12.90039 c 21.64999,21.65 23.18132,27.33039 2.61132,47.90039 l -11.82031,11.82031 c -9.67,9.67 -15.66016,23.02938 -15.66016,37.60938 V 852.50977 H 404.7793 V 662.91016 c 0,-14.74 -5.99016,-28.08938 -15.66016,-37.60938 l -11.81836,-11.82031 c -20.57,-20.57 -19.03062,-26.25039 2.60938,-47.90039 l 12.90039,-12.90039 h 0.29883 c 10.6,-10.6 17.20117,-25.17922 17.20117,-41.44922 0,-16.27 -6.60117,-30.86117 -17.20117,-41.45117 -10.60001,-10.6 -25.17922,-17.19922 -41.44922,-17.19922 z M 911.38867,585.0293 c -18.68824,-0.65807 -37.16508,8.63859 -47.29883,25.83984 l -47.74023,85.36133 v -56.80078 c 0,-29.17 -23.64016,-52.66016 -52.66016,-52.66016 -29.02,0 -52.66015,23.64016 -52.66015,52.66016 V 852.35938 H 816.5 V 769 l 55.57031,83.35938 h 85.04883 c 10.13,0 18.41992,-8.28993 18.41992,-18.41993 l -0.14844,0.15039 v -0.0195 c 0,-3.53 -1.07148,-6.74992 -2.77148,-9.66992 l -57.71875,-87.34961 39.91992,-72.61133 c 14.74,-25.02 6.43992,-57.41039 -18.58008,-72.15039 -7.81875,-4.60625 -16.3569,-6.96064 -24.85156,-7.25976 z m -766.20898,1.73047 c -38.22,0 -73.220003,15.65968 -98.250002,40.67968 -25.02,25.02 -40.679688,60.02 -40.679688,98.25 V 852.49023 H 111.7207 V 727.83008 c 0,-15.2 3.68836,-28.2507 9.81836,-38.2207 6.14,-9.98001 14.27063,-15.8086 23.64063,-15.8086 9.37,0 17.50062,5.83859 23.64062,15.8086 6.14,9.98 9.82031,23.0307 9.82031,38.2207 V 852.49023 H 284.10938 V 725.68945 c 0,-38.22 -15.65969,-73.22 -40.67969,-98.25 -25.02,-25.02 -60.02,-40.67968 -98.25,-40.67968 z m 412.9707,0.15039 c -38.23,0 -73.22,15.65968 -98.25,40.67968 -25.02,25.02 -40.67969,60.02 -40.67969,98.25 0,38.23 15.65969,73.22 40.67969,98.25 19.19,19.19 52.66,40.67969 98.25,40.67969 34.24,0 65.85899,-12.59016 89.95899,-33.16015 17.64999,-14.89 43.75117,-44.97875 48.20117,-92.71876 H 590.83984 c -1.38,11.97001 -4.45054,22.57016 -9.06054,31.16016 l 0.15039,-0.15039 v -0.0195 l 0.01,0.0195 c -6.29,11.52 -14.26867,18.26953 -23.63867,18.26953 -9.37,0 -17.35062,-6.74953 -23.64062,-18.26953 -6.14,-11.67 -9.82032,-26.56094 -9.82032,-44.21094 0,-17.65 3.69032,-32.53898 9.82032,-44.20898 6.29,-11.52 14.27062,-18.26953 23.64062,-18.26953 9.37,0 17.34867,6.90953 23.63867,18.26953 4.61,8.59 7.67055,19.03015 9.06055,31.16015 h 105.4707 c -3.07,-33.00999 -17.81031,-63.09078 -40.07031,-85.05078 -25.02,-25.02 -60.02,-40.67968 -98.25,-40.67968 z" />
  </g>
</svg>
