<?xml version="1.0" encoding="UTF-8" standalone="no"?>
<svg
   id="Layer_1"
   data-name="Layer 1"
   width="99.572166"
   height="28.219408"
   viewBox="0 0 99.572164 28.219408"
   version="1.1"
   sodipodi:docname="Nick Jr.svg"
   inkscape:version="1.4.2 (f4327f4, 2025-05-13)"
   inkscape:export-filename="Nick Jr.png"
   inkscape:export-xdpi="300"
   inkscape:export-ydpi="300"
   xmlns:inkscape="http://www.inkscape.org/namespaces/inkscape"
   xmlns:sodipodi="http://sodipodi.sourceforge.net/DTD/sodipodi-0.dtd"
   xmlns="http://www.w3.org/2000/svg"
   xmlns:svg="http://www.w3.org/2000/svg">
  <sodipodi:namedview
     id="namedview10"
     pagecolor="#ffffff"
     bordercolor="#000000"
     borderopacity="0.25"
     inkscape:showpageshadow="2"
     inkscape:pageopacity="0.0"
     inkscape:pagecheckerboard="0"
     inkscape:deskcolor="#d1d1d1"
     inkscape:zoom="7.8079087"
     inkscape:cx="49.629166"
     inkscape:cy="16.073446"
     inkscape:window-width="1920"
     inkscape:window-height="974"
     inkscape:window-x="-11"
     inkscape:window-y="-11"
     inkscape:window-maximized="1"
     inkscape:current-layer="Layer_1" />
  <defs
     id="defs1">
    <style
       id="style1">
      .cls-1 {
        fill: #ff6700;
      }

      .cls-2 {
        fill: #fff;
      }

      .cls-3 {
        fill: #12bdc7;
      }
    </style>
  </defs>
  <g
     id="g10"
     transform="matrix(0.06846223,0,0,0.06846223,-0.42788894,-30.984642)">
    <path
       id="path3"
       style="fill:#16bccb"
       class="cls-3"
       d="m 1144.2598,465.93945 c -28.87,0 -52.1993,23.33117 -52.1993,52.20117 0,28.87001 23.3293,52.19922 52.1993,52.19922 28.86,0 52.2011,-23.32922 52.2011,-52.19922 0,-28.87 -23.3311,-52.20117 -52.2011,-52.20117 z m 121.5898,120.82032 c -29.01,0 -52.6601,23.49015 -52.6601,52.66015 V 852.5 h 105.3105 0.01 V 710.65039 c 0,-10.29 6.4395,-27.47984 18.2695,-32.08984 12.12,-4.61 23.1809,0.75968 36.3809,5.67968 43.75,16.73 77.6805,-5.36968 83.0605,-33.92968 5.37,-28.56 -13.5107,-56.04 -42.2207,-61.25 -35.16,-6.6 -59.8701,4.44859 -88.5801,26.55859 -1.99,1.54 -7.5191,6.29008 -9.3691,7.83008 -6.75,-21.34 -26.7112,-36.68945 -50.2012,-36.68945 z m -121.5801,0.01 c -29.02,0 -52.6601,23.5007 -52.6601,61.7207 v 128.0293 c 0,17.5 -9.9696,19.95031 -13.3496,1.07031 -9.36,-53.74 -73.0699,-48.05922 -91.33988,-17.19922 -19.65,33.32001 -0.15914,64.93891 29.63088,84.12891 17.19,11.05 44.6699,17.96094 70.9199,17.96094 h 2.9102 c 75.08,0 106.3886,-41.61125 106.3886,-105.78125 l 0.01,0.0215 h 0.1504 V 639.42969 c 0,-29.02 -23.6402,-52.66016 -52.6602,-52.66016 z m 264.1914,164.40039 c -28.87,0 -52.2011,23.33102 -52.2011,52.04102 0,28.71 23.3311,52.19922 52.2011,52.19922 28.86,0 52.1993,-23.32922 52.1993,-52.19922 0,-28.87 -23.3293,-52.04102 -52.1993,-52.04102 z" />
    <path
       id="path8"
       style="fill:#ff6700;fill-opacity:1"
       d="M 351.67313 452.58009 C 335.40313 452.58009 320.81121 459.18277 310.22121 469.78277 C 299.62121 480.38277 293.01852 494.96469 293.01852 511.23469 C 293.01852 527.50469 299.62121 542.09661 310.22121 552.68661 L 323.11609 565.58149 C 344.76608 587.23149 346.28219 592.91085 325.71219 613.48085 L 313.90139 625.29165 C 304.23139 634.96165 298.23924 648.34075 298.23924 662.92075 L 298.23924 852.52118 L 404.7932 852.52118 L 404.7932 662.92075 C 404.7932 648.18075 398.80105 634.81165 389.13105 625.29165 L 377.29172 613.48085 C 356.72172 592.91085 358.27634 587.23149 379.91634 565.58149 L 392.81123 552.68661 L 393.09651 552.68661 C 403.69651 542.08661 410.2992 527.50469 410.2992 511.23469 C 410.2992 494.96469 403.69651 480.37277 393.09651 469.78277 C 382.4965 459.18277 367.94313 452.58009 351.67313 452.58009 z M 911.40237 585.03793 C 892.71413 584.37986 874.23586 593.65498 864.10211 610.85623 L 816.3454 696.24204 L 816.3454 639.44179 C 816.3454 610.27179 792.70178 586.77817 763.68178 586.77817 C 756.84359 586.77817 750.31307 588.10026 744.31093 590.48688 C 742.81039 591.08353 741.34714 591.7282 739.91754 592.45534 C 722.79759 601.16308 711.01816 618.96952 711.01816 639.44179 L 711.01816 852.35001 L 816.48804 852.35001 L 816.48804 768.98972 L 872.06157 852.35001 L 957.10504 852.35001 C 967.23504 852.35001 975.53445 844.07913 975.53445 833.94913 L 975.39181 834.06324 C 975.39181 830.53324 974.32454 827.31208 972.62454 824.39208 L 914.91138 737.0378 L 954.82276 664.43276 C 969.56276 639.41276 961.2707 607.02417 936.2507 592.28417 C 928.43195 587.67792 919.89703 585.33705 911.40237 585.03793 z M 145.18381 586.74964 C 106.96381 586.74964 71.961646 602.41129 46.931647 627.43129 C 21.911647 652.45129 6.25 687.45346 6.25 725.68346 L 6.25 852.49266 L 111.71988 852.49266 L 111.71988 727.82309 C 111.71988 712.62309 115.40368 699.59343 121.53368 689.62343 C 127.67368 679.64342 135.81381 673.79011 145.18381 673.79011 C 154.55381 673.79011 162.69394 679.65342 168.83394 689.62343 C 174.97394 699.60343 178.64775 712.63309 178.64775 727.82309 L 178.64775 852.49266 L 284.11763 852.49266 L 284.11763 725.68346 C 284.11763 687.46346 268.45598 652.46129 243.43598 627.43129 C 218.41598 602.41129 183.41381 586.74964 145.18381 586.74964 z M 558.16244 586.92081 C 519.93244 586.92081 484.94027 602.58246 459.91027 627.60246 C 434.89027 652.62246 419.22862 687.5961 419.22862 725.8261 C 419.22862 764.0561 434.89027 799.04827 459.91027 824.07827 C 479.10027 843.26827 512.57244 864.75991 558.16244 864.75991 C 592.40244 864.75991 624.01281 852.17978 648.11281 831.60979 C 665.7628 816.71979 691.84745 786.63216 696.29745 738.89215 L 590.82757 738.89215 C 589.44757 750.86216 586.39404 761.45528 581.78404 770.04528 L 581.92668 769.90264 C 575.63668 781.42264 567.67508 788.16088 558.30508 788.16088 C 548.93508 788.16088 540.94495 781.42264 534.65495 769.90264 C 528.51495 758.23264 524.84115 743.33346 524.84115 725.68346 C 524.84115 708.03346 528.52495 693.1628 534.65495 681.4928 C 540.94495 669.9728 548.93508 663.20603 558.30508 663.20603 C 567.67508 663.20603 575.63668 670.1328 581.92668 681.4928 C 586.53668 690.0828 589.60875 700.51593 590.99875 712.64593 L 696.46862 712.64593 C 693.39862 679.63594 678.67461 649.56246 656.41461 627.60246 C 631.39461 602.58246 596.39244 586.92081 558.16244 586.92081 z " />
  </g>
</svg>
