<?xml version="1.0" encoding="UTF-8" standalone="no"?>
<svg
   id="Layer_1"
   data-name="Layer 1"
   width="100"
   height="76.188629"
   viewBox="0 0 100 76.188626"
   version="1.1"
   sodipodi:docname="Nickelodeon.svg"
   inkscape:version="1.4.4 (dcaf3e7, 2026-05-05)"
   inkscape:export-filename="Nickelodeon.png"
   inkscape:export-xdpi="300"
   inkscape:export-ydpi="300"
   xml:space="preserve"
   xmlns:inkscape="http://www.inkscape.org/namespaces/inkscape"
   xmlns:sodipodi="http://sodipodi.sourceforge.net/DTD/sodipodi-0.dtd"
   xmlns="http://www.w3.org/2000/svg"
   xmlns:svg="http://www.w3.org/2000/svg"><sodipodi:namedview
     id="namedview13"
     pagecolor="#ffffff"
     bordercolor="#000000"
     borderopacity="0.25"
     inkscape:showpageshadow="2"
     inkscape:pageopacity="0.0"
     inkscape:pagecheckerboard="0"
     inkscape:deskcolor="#d1d1d1"
     inkscape:zoom="4"
     inkscape:cx="22.75"
     inkscape:cy="23.125"
     inkscape:window-width="1920"
     inkscape:window-height="974"
     inkscape:window-x="-11"
     inkscape:window-y="-11"
     inkscape:window-maximized="1"
     inkscape:current-layer="Layer_1"
     showguides="false" /><defs
     id="defs1"><style
       id="style1">
      .cls-1 {
        fill: #ff6700;
      }

      .cls-2 {
        fill: #fff;
      }
    </style><style
       id="style1-8">
      .cls-1 {
        fill: #ff6700;
      }

      .cls-2 {
        fill: #fff;
      }
    </style></defs><path
     id="path1"
     style="display:inline;stroke-width:0.0554106"
     class="cls-1"
     d="m 51.658203,0.0093652 c -3.226003,-0.14351336 -6.30026,1.3700341 -8.154297,4.0136719 -2.297322,2.9362056 -4.754816,6.0515249 -9.013672,6.7070319 -4.507649,0.544686 -8.092146,4.282098 -8.298828,8.964843 -0.09531,2.153256 0.68813,4.075352 1.681641,5.808594 5.000249,8.717744 -2.495895,18.951217 -11.791016,20.019532 -3.606673,0.619491 -6.3379101,3.844482 -6.4980466,7.488281 -0.230508,5.212471 3.8090396,9.622717 9.0253906,9.851562 2.926785,0.129661 5.570969,-1.051941 7.394531,-3.064453 7.91429,-7.877719 26.930073,-5.17098 28.361328,7.464844 0.264862,4.79523 4.136353,8.701023 9.046875,8.916016 5.22854,0.229954 9.655103,-3.814084 9.886719,-9.033204 0.118024,-2.675222 -1.408129,-5.705377 -3.167969,-7.478515 h -0.002 c -8.716357,-8.77897 2.799635,-16.391931 8.603516,-17.06836 5.803148,-0.73142 10.103555,-3.517443 10.423828,-8.730468 0.280932,-4.59409 -2.873104,-9.315927 -8.113281,-9.484375 -3.132359,-0.09974 -4.676344,0.561676 -7.548828,2.923828 -2.272894,1.866782 -6.014534,2.468459 -8.621047,2.191406 -4.225609,-0.44938 -8.450434,-4.327973 -8.464844,-8.476562 -0.0078,-2.264075 1.085333,-4.173166 2.101563,-5.535157 1.192435,-1.598595 2.080471,-3.480348 2.175781,-5.6269533 C 60.915501,4.6495645 56.873445,0.23821082 51.658203,0.0093652 Z M 17.285156,15.735928 c -2.660815,-0.0022 -4.821418,2.153638 -4.824218,4.814453 0.0028,2.66137 2.163403,4.8153 4.824218,4.8125 2.660815,0.0022 4.819466,-2.151685 4.822266,-4.8125 -0.0028,-2.661369 -2.161451,-4.817253 -4.822266,-4.814453 z" /><path
     id="rect2"
     style="font-variation-settings:normal;display:inline;opacity:1;vector-effect:none;fill:#ffffff;fill-opacity:1;fill-rule:evenodd;stroke-width:88.836;stroke-linecap:butt;stroke-linejoin:round;stroke-miterlimit:4;stroke-dasharray:none;stroke-dashoffset:0;stroke-opacity:1;-inkscape-stroke:none;stop-color:#000000;stop-opacity:1"
     d="m 44.456984,33.113328 0.0059,12.382813 h 3.763671 l -0.0059,-12.384766 c 0,-1.03784 -0.843019,-1.878906 -1.882112,-1.87793 -1.039093,9.77e-4 -1.881005,0.84149 -1.881559,1.879883 z m 22.687547,-1.877006 c -1.040056,0 -1.881122,0.84162 -1.878906,1.878906 v 3.070313 c -1.687251,-0.420566 -3.472457,0.07233 -4.703125,1.300781 -1.932166,1.923301 -1.938916,5.048857 -0.01563,6.980469 0.465107,0.465107 1.678967,1.464849 3.519536,1.464849 1.709416,0 2.934023,-0.87572 3.50586,-1.449219 0.929789,-0.927018 1.454524,-2.185371 1.455078,-3.498047 v -7.871135 c -0.02687,-1.037491 -0.842757,-1.876953 -1.882813,-1.876953 z m -54.658203,0.01563 c -1.151985,-0.0039 -2.089872,0.926139 -2.09375,2.078125 0,0.311214 0.07451,0.947955 0.613281,1.484362 l 0.462891,0.460938 c 0.771315,0.769652 0.824881,0.975611 0.0918,1.707031 l -0.417969,0.417969 c -0.357952,0.355181 -0.558303,0.838115 -0.55664,1.341797 v 6.753906 h 3.802734 v -6.753906 c 0,-0.503682 -0.199797,-0.986062 -0.556641,-1.341797 l -0.421875,-0.417969 c -0.733082,-0.73142 -0.67757,-0.936534 0.09375,-1.705078 l 0.460938,-0.462891 c 0.379009,-0.377346 0.611328,-0.900293 0.611328,-1.476562 0,-0.57627 -0.232319,-1.097264 -0.611328,-1.47461 -0.391752,-0.392307 -0.923856,-0.612991 -1.478516,-0.611328 z m 20.050781,4.720703 c -0.666955,-0.02349 -1.325648,0.30936 -1.689453,0.923828 l -1.703125,3.039063 v -2.025391 c -0.0017,-1.03784 -0.844973,-1.87946 -1.882812,-1.878906 -1.038394,-0.0017 -1.881151,0.838559 -1.882813,1.876953 v 0.002 7.587891 h 3.765625 V 42.52739 l 1.984375,2.96875 h 3.03711 c 0.361277,-0.0011 0.655142,-0.292466 0.65625,-0.654297 h 0.002 v -0.002 c -5.54e-4,-0.121349 -0.03533,-0.238733 -0.09961,-0.341797 l -2.060547,-3.109375 1.425782,-2.585938 c 0.526954,-0.89211 0.23,-2.041404 -0.66211,-2.568359 l -0.002,-0.002 c -0.27965,-0.164674 -0.58551,-0.249088 -0.888672,-0.259766 z m 6.697266,0.05469 c -1.313784,-5.54e-4 -2.573562,0.521091 -3.503906,1.449218 -1.5297,1.5297 -2.29774,4.706937 0,6.998047 0.935885,0.933668 2.205247,1.454466 3.527343,1.447266 1.472259,0 2.691934,-0.655669 3.513672,-1.478516 1.036179,-1.186894 1.083985,-2.453125 1.083985,-2.453125 h -3.353516 c 0,0 -0.465497,1.167969 -1.265625,1.167969 -0.335234,0 -0.622108,-0.240907 -0.84375,-0.650391 -0.151271,-0.283146 -0.257907,-0.624952 -0.310547,-1.011718 h 5.841797 c 0,0 0.401066,-2.378604 -1.195312,-3.988282 -0.929789,-0.935884 -2.113283,-1.479615 -3.490235,-1.478515 z m 35.228516,0 c -1.313302,-5.54e-4 -2.575616,0.521733 -3.50586,1.449218 l -0.002,0.002 -0.002,0.002 c -6.31e-4,8.75e-4 -0.0032,0.005 -0.0039,0.0059 -1.927199,1.932166 -1.922436,5.061656 0.0098,6.988281 0.935884,0.933668 2.207201,1.454466 3.529297,1.447266 1.47115,0 2.688027,-0.655669 3.509766,-1.478516 1.036733,-1.186894 1.085937,-2.453125 1.085937,-2.453125 h -3.353515 c 0,0 -0.464942,1.167969 -1.265625,1.167969 -0.335234,0 -0.620999,-0.240907 -0.84375,-0.650391 -0.150716,-0.283146 -0.257907,-0.624952 -0.310547,-1.011718 h 5.839844 c 0,0 0.40162,-2.378604 -1.195313,-3.988282 -0.929789,-0.935884 -2.113281,-1.479615 -3.490234,-1.478515 z M 4.9570312,36.03125 C 3.6426927,36.030696 2.3815152,36.552342 1.4511719,37.480469 0.55684535,38.369254 0,39.617632 0,40.978516 v 4.519531 h 3.7617188 v -4.443359 c 0,-0.540808 0.1307375,-1.003377 0.3496093,-1.361329 0.2227504,-0.35352 0.5085161,-0.563353 0.84375,-0.564453 0.3352339,0.0022 0.6246152,0.212041 0.8457031,0.564453 0.219426,0.357952 0.3485011,0.820521 0.3496094,1.361329 v 4.443359 H 9.9140625 V 40.978516 C 9.9146166,39.665285 9.3926798,38.407487 8.4628906,37.480469 7.5325473,36.551788 6.271924,36.02955 4.9570312,36.03125 Z m 48.7460938,0 c -2.734511,-0.0028 -4.953731,2.212755 -4.957031,4.947266 0.0033,2.735066 2.221965,4.948612 4.957031,4.945312 2.734511,0.0028 4.953731,-2.2108 4.957031,-4.945312 -0.0033,-2.734511 -2.22252,-4.950066 -4.957031,-4.947266 z m 30.958984,0 c -2.734511,-0.0028 -4.953706,2.212755 -4.957031,4.947266 0.0033,2.734512 2.22252,4.948083 4.957031,4.945312 2.734511,0.0028 4.953708,-2.2108 4.957032,-4.945312 -0.0033,-2.734511 -2.222521,-4.950037 -4.957032,-4.947266 z m 10.38086,0 c -1.314339,-0.0011 -2.576916,0.521092 -3.507813,1.449219 -0.930344,0.927018 -1.45228,2.184816 -1.451172,3.498047 v 4.519531 h 3.765625 v -4.443359 c 0,-0.540808 0.12963,-1.003377 0.34961,-1.361329 0.221642,-0.352412 0.508516,-0.562237 0.84375,-0.564453 0.335234,0.0011 0.622662,0.210933 0.84375,0.564453 0.218317,0.357952 0.347946,0.820521 0.349609,1.361329 v 4.443359 H 100 v -4.519531 c 0,-1.360884 -0.556845,-2.609262 -1.451172,-3.498047 -0.930343,-0.928681 -2.19152,-1.448374 -3.505859,-1.447266 z m -75.181641,0.0059 c -1.314338,-5.54e-4 -2.575516,0.519139 -3.505859,1.447266 -1.522957,1.522957 -2.301238,4.700092 0,6.996081 1.827994,1.82467 4.750567,1.941822 6.71875,0.269531 0.986862,-0.83005 1.605739,-2.016364 1.722656,-3.300781 h -3.767578 c -0.03768,0.385658 -0.146614,0.76166 -0.322266,1.107422 -0.22275,0.40893 -0.508516,0.651243 -0.84375,0.652343 -0.335234,0 -0.622108,-0.243967 -0.84375,-0.652343 -0.219426,-0.413362 -0.349609,-0.949742 -0.349609,-1.574219 0,-0.624477 0.130737,-1.157795 0.349609,-1.572266 0.222196,-0.40893 0.508516,-0.650644 0.84375,-0.652344 0.335233,0.0022 0.622108,0.24286 0.84375,0.652344 0.175652,0.345762 0.284586,0.72121 0.322266,1.107422 h 3.767578 C 24.55196,37.975313 22.415201,36.035409 19.861328,36.037109 Z m 19.373047,2.671875 c 0.339113,5.54e-4 0.615513,0.241017 0.851563,0.666016 0.101953,0.182855 0.194511,0.500377 0.238281,0.710938 l -2.179688,0.0059 h -0.002 c 0.05818,-0.251564 0.141659,-0.497481 0.248047,-0.732422 0.168449,-0.358506 0.508516,-0.649291 0.84375,-0.650391 z m 35.228516,0 c 0.339112,5.54e-4 0.615513,0.241017 0.851562,0.666016 0.101956,0.182855 0.192558,0.500377 0.236328,0.710938 l -2.179687,0.0059 c 0.05818,-0.251564 0.141659,-0.497481 0.248047,-0.732422 0.167894,-0.358506 0.508516,-0.649291 0.84375,-0.650391 z M 53.703125,38.75 c 0.658831,0 1.193359,0.997848 1.193359,2.228516 0,1.230669 -0.534528,2.228515 -1.193359,2.228515 -0.658832,0 -1.193359,-0.997846 -1.193359,-2.228515 0,-1.230668 0.534527,-2.228516 1.193359,-2.228516 z m 10.367187,0 c 0.658834,0 1.19336,0.997848 1.19336,2.228516 0,1.230669 -0.534526,2.228515 -1.19336,2.228515 -0.65883,0 -1.193359,-0.997846 -1.193359,-2.228515 0,-1.230668 0.534529,-2.228516 1.193359,-2.228516 z m 20.591797,0 c 0.658831,0 1.195313,0.997847 1.195313,2.228516 0,1.230668 -0.536482,2.228515 -1.195313,2.228515 -0.658832,0 -1.193359,-0.998401 -1.193359,-2.228515 0,-1.230115 0.534527,-2.228516 1.193359,-2.228516 z"
     sodipodi:nodetypes="ccccccccccccscscccccccccsccccsccsccccsccccccccscccccscccccccscccccccsccccccccsccccccccsccsccccccccccccccccccccccccsccccccsccccccccccccscccccccccccccccccccssssssssssssssssssssss" /></svg>
