<?xml version="1.0" encoding="UTF-8" standalone="no"?>
<!-- Generator: Adobe Illustrator 23.1.0, SVG Export Plug-In . SVG Version: 6.00 Build 0)  -->

<svg
   version="1.1"
   id="Layer_2"
   x="0px"
   y="0px"
   width="100"
   height="99.589386"
   viewBox="0 0 100 99.589386"
   enable-background="new 0 0 1000 995.8945313"
   xml:space="preserve"
   sodipodi:docname="Paramount_Network.svg"
   inkscape:version="1.4.2 (f4327f4, 2025-05-13)"
   xmlns:inkscape="http://www.inkscape.org/namespaces/inkscape"
   xmlns:sodipodi="http://sodipodi.sourceforge.net/DTD/sodipodi-0.dtd"
   xmlns="http://www.w3.org/2000/svg"
   xmlns:svg="http://www.w3.org/2000/svg"><defs
   id="defs32" /><sodipodi:namedview
   id="namedview32"
   pagecolor="#ffffff"
   bordercolor="#000000"
   borderopacity="0.25"
   inkscape:showpageshadow="2"
   inkscape:pageopacity="0.0"
   inkscape:pagecheckerboard="0"
   inkscape:deskcolor="#d1d1d1"
   inkscape:zoom="7.3803046"
   inkscape:cx="49.997937"
   inkscape:cy="49.794693"
   inkscape:window-width="1920"
   inkscape:window-height="974"
   inkscape:window-x="-11"
   inkscape:window-y="-11"
   inkscape:window-maximized="1"
   inkscape:current-layer="Layer_2" />
<path
   id="path1"
   d="M 54.861718,0 53.953711,2.1343694 51.560937,1.9191388 53.34668,3.5125016 52.384569,5.6872974 54.44082,4.4718689 56.238477,6.0302733 55.69121,3.721682 57.771484,2.4888634 55.390625,2.2621028 Z M 45.13828,1.9018557e-4 44.609179,2.2623049 42.22832,2.4890536 44.308593,3.721682 43.761522,6.0302733 45.55918,4.4718689 47.615233,5.6872974 46.65332,3.5125016 48.438867,1.9191388 46.046093,2.1343694 Z M 35.873828,1.5757825 35.807619,3.8787039 33.50508,4.5415957 35.78965,5.3673815 35.699419,7.7515596 37.166216,5.8790995 39.420904,6.687305 38.044147,4.7218679 39.499029,2.8435476 37.190436,3.4890612 Z m 28.251757,0 L 62.80918,3.4890612 60.50039,2.8435476 61.955468,4.7218679 60.578516,6.687305 62.833008,5.8790995 64.299999,7.7515596 64.209769,5.3673815 66.494339,4.5415957 64.1918,3.8787039 Z M 27.402929,5.169529 27.79375,7.4490219 25.66543,8.5365149 28.064258,8.9203094 28.449022,11.263859 29.513281,9.1587902 31.881836,9.5251946 30.15039,7.873635 31.220508,5.7277356 29.068163,6.8093684 Z m 45.194141,0 -1.665429,1.6400415 -2.15215,-1.0818349 1.070117,2.1458994 -1.731639,1.6513575 2.368749,-0.3662023 1.064062,2.1050688 0.384766,-2.3435496 2.398828,-0.3837945 -2.128125,-1.087493 z m -49.155665,4.4486307 -1.881836,1.4597693 -1.959961,-1.2968754 0.817579,2.1689474 -1.88164,1.448037 2.446874,-0.05824 0.835742,2.227144 0.625196,-2.262102 2.392774,-0.08131 -2.014063,-1.314253 z m 53.117578,2.021e-4 0.619141,2.2912132 -2.013867,1.314253 2.392774,0.08131 0.625196,2.262103 0.835741,-2.227145 2.446876,0.05825 -1.881837,-1.44805 0.817578,-2.1689352 -1.959766,1.2966732 z m -26.821288,0.060503 c -21.83009,0 -39.520312,17.7500782 -39.520312,39.6402352 0,6.020015 1.340087,11.720019 3.730078,16.830068 l 15.090038,-17.359961 1.300001,-0.42012 5.810156,-8.199993 2.539844,-2.190046 3.810156,-5.969913 2.290039,-2.190047 3.699999,-5.199994 2.329884,-1.770117 4.330077,3.109951 2.150001,3.990045 2.75,8.200196 3.20996,5.690043 6.730078,2.999999 6.1,12.479882 1.480079,4.98008 1.440038,1.059952 1.269922,1.480084 2.35,4.48007 C 86.817772,65.029236 89.267772,57.459185 89.267772,49.319088 89.257669,27.428991 71.567833,9.6788526 49.737695,9.6788526 Z m 33.608984,5.7660102 0.162304,2.366598 -2.242578,0.907233 2.344727,0.534956 0.174414,2.325981 1.250586,-2.029494 2.374609,0.517578 -1.557031,-1.773634 1.226367,-1.971286 -2.164258,0.907221 z m -66.693163,2.02e-4 -1.569141,1.785153 -2.164259,-0.907031 1.226368,1.971286 -1.557031,1.773445 2.374805,-0.517388 1.250389,2.029494 0.174415,-2.32597 2.344726,-0.535158 -2.242577,-0.907031 z m -5.988086,6.750981 -1.1964852,2.041013 -2.2906247,-0.48262 1.5933593,1.709566 -1.1964848,2.035354 2.2365241,-0.959569 1.6111333,1.762105 -0.264454,-2.320312 2.188477,-0.959367 -2.380859,-0.471102 z m 78.669335,0 -0.300586,2.355068 -2.38086,0.471102 2.188477,0.959569 -0.264453,2.32011 1.611133,-1.761903 2.236523,0.959367 -1.196483,-2.035354 1.593358,-1.709566 -2.290625,0.48262 z m -37.687109,4.223047 v 9.880069 l -2.54004,6.929887 3.450001,2.199995 -5.869922,15.820123 1.129883,0.969923 -3.05,6.900194 3.820117,4.150003 h 5.75996 l -0.990038,-2.510164 8.70996,3.200193 h 9.880078 l -2.079883,-3.600189 -1.080078,-2.829878 -0.419921,-2.140039 5.139843,6.380072 h 6.330078 L 77.977733,67.919296 75.097656,65.039221 67.927733,49.3191 64.737695,48.349177 63.817577,49.389219 h -0.559961 l -1.6,-4.230084 -1.599999,-2.840041 -2.209961,-3.569914 -3.15,-9.330076 z m 41.907226,3.743946 -0.751563,2.244724 -2.441014,0.02912 1.978125,1.343161 -0.733595,2.238865 1.948047,-1.430469 2.001953,1.354882 -0.775392,-2.221474 1.905667,-1.383993 -2.362697,0.05824 z m -87.1099602,1.9e-4 -0.7695312,2.233016 -2.3626956,-0.05824 1.9058591,1.38398 -0.775585,2.221487 2.0019527,-1.354882 1.948047,1.430469 -0.7335945,-2.238865 1.9779299,-1.343364 -2.4408202,-0.02888 z m 90.2060532,8.45489 -1.184374,2.06425 -2.38086,-0.430271 1.659375,1.692188 -1.148242,2.052732 2.182421,-1.040814 1.707224,1.709566 -0.318549,-2.325969 2.12832,-1.006058 -2.332817,-0.395515 z M 3.348633,38.618523 3.0361331,40.938644 0.7033205,41.334147 2.8316408,42.340205 2.513086,44.666186 4.2205078,42.956608 6.40293,43.997434 5.2544921,41.944702 6.9138671,40.252514 4.5330077,40.682785 Z m 37.008984,5.440627 -2.370118,2.990038 -0.589844,0.209965 -4.300194,6.53008 0.610156,0.639844 -4.440039,9.900193 2.979883,-3.09004 1.660156,-2.870114 0.990038,-1.409965 0.919923,-0.240037 2.8,-5.32988 0.330078,-3.460165 1.529882,-3.419917 z m 57.580272,3.456052 -1.563278,1.808403 -2.260354,-0.866402 1.310547,1.965425 -1.539063,1.808403 2.350582,-0.622073 1.34082,1.988675 0.138289,-2.331841 L 100,50.678487 97.811523,49.864421 Z M 2.0621096,47.515404 2.1884772,49.864624 0,50.678713 l 2.2845709,0.587495 0.1382803,2.33183 1.3408202,-1.988866 2.3505866,0.622263 -1.5390624,-1.808581 1.3105461,-1.965437 -2.2605468,0.866402 z m 28.1353504,3.183789 -2.679882,2.809968 -2.360157,3.680079 -4.129882,6.809951 0.140039,0.220116 4.519921,-6.390033 1.59004,-1.240033 z m -27.5580064,5.52715 0.5890617,2.291213 -2.0080077,1.209378 2.3748044,0.151162 0.571094,2.267975 0.9318367,-2.203906 2.4349601,0.162894 -1.8576173,-1.482818 0.9017577,-2.174808 -2.0501944,1.273447 z m 94.7205094,2.02e-4 -1.887698,1.494526 -2.050195,-1.273436 0.901757,2.174808 -1.857617,1.482806 2.434961,-0.162882 0.931839,2.203906 0.571282,-2.267975 2.37461,-0.151174 -2.008003,-1.209366 z m -58.052347,2.402733 -3.80996,6.87988 -0.89004,3.860161 h 0.74004 l 2.429883,-2.899998 0.990038,-4.520116 0.99004,-2.56993 z M 8.8560552,64.50096 7.1066404,66.129079 4.9603511,65.024196 5.9822264,67.146667 4.2568356,68.71678 6.5957033,68.426153 7.6236325,70.531233 8.1046879,68.199392 10.51543,67.920295 8.4052738,66.798033 Z m 82.2882798,2.02e-4 0.450781,2.296871 -2.110156,1.122464 2.410742,0.279097 0.481055,2.331842 1.028125,-2.105283 2.33867,0.290829 -1.725389,-1.570125 1.02207,-2.122459 -2.146483,1.104883 z M 20.437499,69.74585 c -5.450003,0 -10.4499989,2.40996 -12.2999994,6.149995 -0.4899905,0.98994 -0.7601562,2.070123 -0.7601562,3.220115 0,1.039947 0.2501463,1.97988 0.7601562,2.729888 0.7899917,1.160061 2.1899414,1.900002 4.2599614,1.900002 2.520021,0 4.530078,-1.390031 4.530078,-3.790042 0,0 0.03999,-0.679878 -0.75,-0.679878 -0.65,0 -0.81001,0.439935 -0.8,0.679878 0.08999,1.89004 -1.020067,3.400197 -3.030079,3.400197 -2.239991,0 -3.180077,-1.900096 -3.180077,-3.940039 0,-4.17002 3.150096,-6.940038 6.420117,-8.120115 1.679982,-0.609961 3.030028,-0.830077 4.790039,-0.830077 3.70005,0 6.729882,1.420009 6.729882,5.230067 0,3.179986 -2.669822,5.890143 -5.889843,6.120125 l 0.129883,-0.440042 c 0.660009,-2.329988 1.44995,-4.880079 2.759961,-6.78008 0.08003,-0.120019 0.210155,-0.299994 0.360156,-0.490037 l -0.180079,-0.219926 c -0.230028,0.12998 -0.649902,0.439947 -0.819922,0.569927 -6.150052,4.790037 -6.330074,18.230083 -14.5201162,18.230083 -0.2999999,0 -0.5700682,-0.01997 -0.830078,-0.06003 -1.709962,-0.279977 -2.5999996,-1.419926 -2.5999996,-3.019921 0,-0.310062 0.1099629,-0.749997 0.1099629,-0.990035 0,-0.409969 -0.2798343,-0.840038 -0.8898438,-0.840038 -0.7300297,0 -1.0300296,0.569915 -1.0400393,1.409953 -0.039986,2.390038 1.7198719,3.780081 4.4298831,4.030079 0.2999999,0.02996 0.6000973,0.04006 0.9201166,0.04006 6.4000523,-0.05004 10.3300293,-4.860156 11.9800793,-10.710157 0.769971,-0.08998 2.019968,-0.34004 2.5,-0.509959 2.949999,-0.820033 6.299999,-2.799912 6.299999,-6.309965 0,-4.040041 -4.279979,-5.980076 -9.390039,-5.980076 z m 67.980274,7.403318 -0.519921,1.170117 -0.870118,1.980081 h -1.050001 l -0.309961,0.669917 h 1.08008 l -1.300001,2.890036 c -0.930078,2.029982 -2.4,4.040041 -3.25,4.040041 -0.180078,0 -0.29004,-0.08012 -0.29004,-0.270111 0,-0.170026 0.0499,-0.359867 0.269922,-0.869921 0.270021,-0.620028 0.700098,-1.509966 1.020118,-2.159961 0.459961,-0.94004 1.20996,-2.430179 1.20996,-3.160159 0,-0.739953 -0.470019,-1.309963 -1.390039,-1.309963 -1.039941,0 -1.970117,0.630073 -2.830078,1.520118 l 0.559961,-1.349997 h -2.119922 l -1.730078,3.909954 c -0.689941,1.390043 -2.099902,3.69004 -2.969921,3.69004 -0.179981,0 -0.259961,-0.109951 -0.259961,-0.290033 0,-0.09997 0.0499,-0.300101 0.129882,-0.480076 0.07998,-0.179987 1.109961,-2.56993 1.109961,-2.56993 l 1.870117,-4.280079 h -2.270116 l -1.819923,4.159965 c -0.570019,1.290041 -1.989941,3.460153 -2.899999,3.460153 -0.189942,0 -0.309961,-0.0901 -0.309961,-0.320118 0,-0.229982 0.17002,-0.640034 0.3,-0.94004 l 0.949999,-2.079881 1.969922,-4.280079 h -2.269922 l -0.440039,0.959962 c -0.329979,0.650007 -0.90009,1.420116 -1.790039,1.420116 -0.42998,0 -0.630077,-0.170014 -0.730078,-0.34004 -0.12998,-1.439943 -1.039941,-2.209957 -2.399999,-2.209957 -1.879981,0 -3.209863,1.109959 -4.089845,2.449995 -0.590039,0.890044 -0.980077,1.859967 -1.340039,2.979887 -0.8,1.320018 -1.650096,2.350194 -2.310155,2.350194 -0.169923,0 -0.269923,-0.100204 -0.269923,-0.320118 0,-0.249999 0.219923,-0.72998 0.3,-0.909955 l 1.469922,-3.130086 c 0.410059,-0.970017 0.700001,-1.610051 0.700001,-2.240029 0,-0.679997 -0.469824,-1.159966 -1.239845,-1.159966 -1.070019,0 -2.230078,0.610056 -3.140039,1.630081 0.02998,-0.140036 0.05,-0.309967 0.05,-0.490037 0,-0.739953 -0.370019,-1.140044 -1.149999,-1.140044 -0.97998,0 -1.979981,0.580078 -2.9,1.630081 l 0.609961,-1.470123 H 49.68769 l -1.74004,3.910156 c -0.829979,1.839939 -2.150145,3.68985 -2.910155,3.68985 -0.17998,0 -0.279883,-0.08998 -0.279883,-0.309967 0,-0.359962 0.390039,-1.229883 0.540039,-1.579883 l 2.3,-5.220119 c 0.17002,-0.390035 -0.930029,-0.630073 -2.340039,-0.630073 -1.44004,0 -2.919971,0.720114 -4.009961,1.62012 -0.760013,0.630073 -1.330127,0.950001 -1.620118,0.950001 -0.139989,0 -0.20996,-0.08 -0.20996,-0.169931 0,-0.320011 0.769921,-1.220005 0.769921,-1.89999 0,-0.310062 -0.17002,-0.520122 -0.599999,-0.520122 -0.83003,0 -1.799951,0.789936 -2.519922,1.609957 l 0.60996,-1.440038 h -2.00996 l -1.730078,3.910156 c -0.82998,1.840046 -2.18999,3.76993 -2.95,3.76993 -0.180029,0 -0.280078,-0.08998 -0.280078,-0.319928 0,-0.350001 0.370067,-1.209961 0.580077,-1.659963 l 2.300001,-5.220119 c 0.17002,-0.390035 -0.930028,-0.630073 -2.340039,-0.630073 -2.07002,0 -4.089893,1.400099 -5.179883,2.83008 -1.180029,1.559962 -1.980029,3.200003 -2.000001,4.55 -0.02002,1.079981 0.539943,1.759953 1.669922,1.759953 1.260011,0 2.259959,-0.9999 2.859962,-1.739841 -0.01,0.08 -0.06993,0.350001 -0.06993,0.450003 0,0.749997 0.299952,1.289838 1.209962,1.289838 0.8,0 1.87998,-0.669916 2.75,-1.749992 l -0.7,1.590035 h 2.2 l 2.15,-4.869916 c 0.7,-1.590046 1.52002,-2.40996 1.740039,-2.40996 0.06998,0 0.100002,0.02984 0.100002,0.08986 0,0.170014 -0.330078,0.61015 -0.330078,1.03008 0,0.430081 0.230127,0.719924 0.820117,0.719924 0.47002,0 0.999952,-0.229887 1.459961,-0.519932 -1.1,1.500006 -1.849951,3.069928 -1.85996,4.359969 -0.01,1.07998 0.549901,1.759953 1.669922,1.759953 1.189992,0 2.280077,-1.109958 2.880077,-1.859955 -0.01997,0.120019 -0.04003,0.370113 -0.04003,0.520122 0,0.729979 0.409961,1.340035 1.25996,1.340035 0.93003,0 1.690041,-0.580173 2.630079,-1.720121 l -0.69004,1.559961 h 2.220117 l 2.050001,-4.659962 c 0.9,-2.029982 2.109864,-3.09004 2.719922,-3.09004 0.179981,0 0.3,0.09997 0.3,0.300006 0,0.12998 -0.0499,0.350001 -0.179883,0.659955 l -3.010156,6.790041 2.299999,-0.0095 2.100001,-4.740031 c 0.9,-2.029981 1.899994,-3.030084 2.649999,-3.030084 0.220021,0 0.320118,0.120114 0.320118,0.360152 0,0.140048 -0.04003,0.359962 -0.220117,0.740048 l -2.009961,4.289838 c -0.17002,0.370018 -0.329884,0.890044 -0.329884,1.300001 0,0.650007 0.359962,1.230085 1.359961,1.230085 1.310066,0 2.309962,-0.989952 3.429884,-2.469928 l 0.0101,0.319928 c 0.07999,1.17997 0.749999,2.199995 2.490039,2.199995 2.05996,0 3.729882,-1.430077 4.739844,-3.680079 0.449999,-1.009957 0.670019,-1.869916 0.730077,-2.529884 0.189942,0.09997 0.430079,0.159958 0.730079,0.159958 0.27998,0 0.619921,-0.06003 0.969921,-0.240038 l -0.35996,0.780076 c -0.409966,0.859959 -0.869922,1.819921 -1.20996,2.619925 -0.25,0.590039 -0.400001,1.140032 -0.400001,1.509954 0,0.81006 0.44004,1.380082 1.359961,1.380082 0.920026,0 2.179981,-0.85996 3.069922,-2.06992 h 0.03007 c -0.04999,0.239942 -0.100002,0.579982 -0.100002,0.759957 0,0.660063 0.200098,1.300002 1.140039,1.300002 1.090039,0 1.929981,-0.790043 2.75,-1.770117 l -0.7,1.580074 h 2.269923 l 1.810155,-4.109958 c 1.029981,-2.320014 2.059858,-3.710152 3.019922,-3.710152 0.200001,0 0.309961,0.140036 0.309961,0.34004 0,0.390035 -0.549895,1.450094 -1.069922,2.530075 -0.470019,0.970017 -0.820117,1.710053 -1.070117,2.299997 -0.220019,0.520027 -0.389844,1.139948 -0.389844,1.55 0,0.709963 0.399903,1.259968 1.269923,1.259968 1.309966,0 2.649999,-1.259873 3.35,-2.22989 -0.160059,0.450003 -0.259961,0.989844 -0.259961,1.419925 0,1.309963 0.8,1.959958 1.890038,1.959958 0.770021,0 1.450002,-0.269921 2.040041,-0.679878 0.85996,-0.6 1.549901,-1.49014 2.139842,-2.320122 l -0.389843,-0.369922 c -0.540039,0.770025 -1.140039,1.500005 -1.749999,1.949996 -0.379982,0.279989 -0.770119,0.459964 -1.160157,0.459964 -0.47002,0 -0.769923,-0.240038 -0.769923,-0.849999 0,-0.6 0.279981,-1.410059 0.709961,-2.480079 0.02002,-0.05004 0.63008,-1.420021 1.220119,-2.740039 0.499999,-1.11992 0.979881,-2.199996 1.069921,-2.419921 h 1.469921 l 0.300196,-0.669917 h -1.470118 l 1.390039,-3.160159 z m -57.120313,3.720113 -1.429883,3.180081 c -1.070018,2.399999 -2.240039,3.859959 -3.090038,3.859959 -0.329981,0 -0.539991,-0.11007 -0.550001,-0.530071 0.02002,-1.109971 0.930027,-3.069928 2.09004,-4.629889 0.800049,-1.080076 1.849902,-1.88008 2.979882,-1.88008 z m 13.980079,0 -1.429883,3.180081 c -1.069971,2.429977 -2.180078,3.859959 -3.080079,3.859959 -0.320022,0 -0.540039,-0.11007 -0.55,-0.530071 0.01997,-1.109971 0.930079,-3.069928 2.080079,-4.629889 0.8,-1.080076 1.849854,-1.88008 2.979883,-1.88008 z m 19.790234,0.03007 c 0.429981,0 0.57998,0.369816 0.569922,0.829875 -0.02998,1.2 -1.1,4.140043 -2.359962,5.900008 -0.510058,0.709963 -0.940136,0.920118 -1.320116,0.920118 -0.52002,0 -0.670019,-0.430081 -0.609962,-1.060166 0.109963,-1.109959 1.019922,-3.670011 2.300001,-5.449993 0.57998,-0.809965 0.980077,-1.139842 1.420117,-1.139842 z m -5.700196,13.029875 c -0.83994,0 -1.52998,0.260257 -2.05996,0.780272 -0.540039,0.509971 -0.800001,1.2 -0.800001,2.05001 0,0.849999 0.259962,1.539933 0.800001,2.05996 0.539941,0.510054 1.22002,0.769918 2.05996,0.769918 0.830078,0 1.52002,-0.259864 2.050001,-0.769918 0.540039,-0.520027 0.799999,-1.2 0.799999,-2.05996 0,-0.860066 -0.269921,-1.540039 -0.799999,-2.05001 -0.539942,-0.520015 -1.219923,-0.780272 -2.050001,-0.780272 z m 7.04004,0.08012 v 5.490039 h 1.140039 v -1.980081 h 0.920116 l 1.079884,1.980081 h 1.280077 l -1.170117,-2.159961 c 0.56006,-0.270016 0.890039,-0.81006 0.890039,-1.570113 0,-0.550005 -0.159961,-0.979979 -0.490038,-1.29004 -0.319922,-0.319928 -0.749903,-0.469925 -1.289845,-0.469925 z m -46.640039,2.02e-4 v 5.489849 h 1.139844 V 96.09939 l 2.420117,3.400007 h 0.95996 v -5.489849 h -1.130077 v 3.409766 l -2.429884,-3.409766 z m 9.219922,0 v 5.489849 h 3.55 v -1.000008 h -2.400001 v -1.319923 h 2.070118 v -0.980074 h -2.070118 v -1.189848 h 2.39004 v -0.999996 z m 7.730078,0 v 0.999996 h 1.85 v 4.489853 h 1.130078 v -4.489853 h 1.849999 v -0.999996 z m 8.440038,0 1.919922,5.489849 h 0.970118 l 1.169922,-3.480087 1.170116,3.480087 h 0.959961 l 1.919922,-5.489849 h -1.240038 l -1.169922,3.569926 -1.180079,-3.569926 h -0.929883 l -1.170116,3.569926 -1.179883,-3.569926 z m 29.950195,0 v 5.489849 h 1.139844 V 97.97947 l 0.680078,-0.810155 1.530078,2.330082 h 1.339845 l -2.109962,-3.239847 1.890039,-2.250002 h -1.45996 l -1.870118,2.269722 v -2.269722 z m -15.740234,0.929888 c 0.51006,0 0.910157,0.159863 1.220118,0.489835 0.320019,0.320023 0.469921,0.760255 0.469921,1.330277 0,0.559966 -0.159863,0.999901 -0.469921,1.329884 -0.309961,0.329984 -0.720118,0.490037 -1.220118,0.490037 -0.509961,0 -0.919922,-0.160053 -1.239843,-0.490037 -0.32002,-0.329983 -0.470118,-0.769918 -0.470118,-1.329884 0,-0.570022 0.150098,-1.010254 0.470118,-1.330277 0.319921,-0.329972 0.729882,-0.489835 1.239843,-0.489835 z m 8.180079,0.06989 h 1.080078 c 0.450005,0 0.75996,0.26992 0.75996,0.759957 0,0.47002 -0.309955,0.750009 -0.75996,0.750009 h -1.080078 z"
   style="fill:#ffffff;fill-opacity:1;stroke-width:0.1" />



































</svg>
