<?xml version="1.0" encoding="UTF-8" standalone="no"?>
<!-- Created with Inkscape (http://www.inkscape.org/) -->

<svg
   version="1.1"
   width="100"
   height="100"
   id="svg2"
   xml:space="preserve"
   sodipodi:docname="Space.svg"
   inkscape:version="1.4.2 (f4327f4, 2025-05-13)"
   inkscape:export-filename="Space.png"
   inkscape:export-xdpi="300"
   inkscape:export-ydpi="300"
   xmlns:inkscape="http://www.inkscape.org/namespaces/inkscape"
   xmlns:sodipodi="http://sodipodi.sourceforge.net/DTD/sodipodi-0.dtd"
   xmlns="http://www.w3.org/2000/svg"
   xmlns:svg="http://www.w3.org/2000/svg"
   xmlns:rdf="http://www.w3.org/1999/02/22-rdf-syntax-ns#"
   xmlns:cc="http://creativecommons.org/ns#"
   xmlns:dc="http://purl.org/dc/elements/1.1/"><sodipodi:namedview
     id="namedview1"
     pagecolor="#ffffff"
     bordercolor="#000000"
     borderopacity="0.25"
     inkscape:showpageshadow="2"
     inkscape:pageopacity="0.0"
     inkscape:pagecheckerboard="0"
     inkscape:deskcolor="#d1d1d1"
     inkscape:zoom="0.91875"
     inkscape:cx="189.93197"
     inkscape:cy="238.91156"
     inkscape:window-width="1920"
     inkscape:window-height="974"
     inkscape:window-x="-11"
     inkscape:window-y="-11"
     inkscape:window-maximized="1"
     inkscape:current-layer="svg2" /><metadata
     id="metadata8"><rdf:RDF><cc:Work
         rdf:about=""><dc:format>image/svg+xml</dc:format><dc:type
           rdf:resource="http://purl.org/dc/dcmitype/StillImage" /></cc:Work></rdf:RDF></metadata><defs
     id="defs6" /><path
     d="m 50.004505,79.775139 c -15.600108,0 -28.249951,-12.551038 -28.249951,-28.030772 0,-11.228414 6.656684,-20.913086 16.26602,-25.385227 v -6.051425 c 0,-6.566815 5.364021,-11.8897164 11.983931,-11.8897164 6.618922,0 11.974959,5.3229014 11.974959,11.8897164 l -0.211268,5.95622 c 9.725883,4.429026 16.485495,14.169592 16.485495,25.480432 0,15.479734 -12.648089,28.030772 -28.249186,28.030772 z M 50.004505,0 C 22.392909,0 0,22.385335 0,49.998348 0,77.615188 22.392909,100 50.004505,100 77.615149,100 100,77.615188 100,49.998348 100,22.385335 77.615149,0 50.004505,0 Z m 0,39.502245 c -6.614183,0 -11.981692,5.319096 -11.981692,11.882589 0,6.564874 5.367509,11.885406 11.981692,11.885406 6.607542,0 11.973541,-5.320532 11.973541,-11.885406 0,-6.563493 -5.365999,-11.882589 -11.973541,-11.882589"
     inkscape:connector-curvature="0"
     id="path16"
     style="fill:#f7de05;fill-opacity:1;fill-rule:nonzero;stroke:none;stroke-width:0.0473694" /></svg>
