<?xml version="1.0" encoding="UTF-8" standalone="no"?>
<svg
   id="uuid-992480e5-52b6-43d0-bb76-1b1d82b7b396"
   viewBox="0 0 100 33.126465"
   version="1.1"
   sodipodi:docname="TNT Series.svg"
   inkscape:version="1.4.2 (f4327f4, 2025-05-13)"
   width="100"
   height="33.126465"
   xmlns:inkscape="http://www.inkscape.org/namespaces/inkscape"
   xmlns:sodipodi="http://sodipodi.sourceforge.net/DTD/sodipodi-0.dtd"
   xmlns="http://www.w3.org/2000/svg"
   xmlns:svg="http://www.w3.org/2000/svg"
   xmlns:rdf="http://www.w3.org/1999/02/22-rdf-syntax-ns#"
   xmlns:cc="http://creativecommons.org/ns#"
   xmlns:dc="http://purl.org/dc/elements/1.1/">
  <defs
     id="defs1" />
  <sodipodi:namedview
     id="namedview1"
     pagecolor="#828282"
     bordercolor="#000000"
     borderopacity="0.25"
     inkscape:showpageshadow="2"
     inkscape:pageopacity="0.0"
     inkscape:pagecheckerboard="0"
     inkscape:deskcolor="#d1d1d1"
     inkscape:zoom="8.99"
     inkscape:cx="50"
     inkscape:cy="16.518354"
     inkscape:window-width="1920"
     inkscape:window-height="974"
     inkscape:window-x="-11"
     inkscape:window-y="-11"
     inkscape:window-maximized="1"
     inkscape:current-layer="uuid-992480e5-52b6-43d0-bb76-1b1d82b7b396"
     showguides="false">
    <sodipodi:guide
       position="1093.1699,-108.32907"
       orientation="0,-1"
       id="guide1"
       inkscape:locked="false" />
    <sodipodi:guide
       position="1092.5097,-349.84859"
       orientation="0,-1"
       id="guide2"
       inkscape:locked="false" />
    <sodipodi:guide
       position="738.58005,-199.16652"
       orientation="1,0"
       id="guide3"
       inkscape:locked="false" />
  </sodipodi:namedview>
  <title
     id="title1">TNT Novelas logo - Brandlogos.net</title>
  <path
     id="uuid-d4147fcd-bc21-420f-ba9c-d1e11ecb6332"
     style="display:inline;fill:#ffffff;stroke-width:0.0518695"
     d="M 16.558886,0 C 9.1358355,0 2.8601248,4.874718 0.75062295,11.617747 h 9.97495305 3.24657 c 0.819005,0 1.224126,0.219914 1.629749,0.89526 l 3.355393,5.222705 h 0.123404 V 11.617747 H 32.36758 C 30.259083,4.877828 23.981864,0 16.558886,0 Z m 27.049865,11.480271 c -1.613947,0 -3.074394,0.616064 -4.18273,1.616972 -1.321527,1.349634 -1.177867,2.950846 -0.700701,3.725489 0.751844,1.216195 2.597156,1.893947 4.965317,2.237675 3.35374,0.492638 2.260704,2.391592 -0.346364,2.30424 -1.790864,-0.06156 -2.168115,-1.452244 -2.168115,-1.452244 l -2.866374,1.159774 c 1.108408,1.760408 3.063906,2.935589 5.298967,2.935589 1.580762,0 3.019875,-0.595341 4.123254,-1.565304 1.377914,-1.359949 1.237128,-2.986868 0.75716,-3.771984 -0.744158,-1.221526 -2.594211,-1.914261 -4.965173,-2.263311 -3.353812,-0.497796 -2.240089,-2.483923 0.351535,-2.304241 1.793522,0.128274 2.170701,1.467537 2.170701,1.467537 l 2.858617,-1.14943 c -1.10338,-1.765236 -3.063691,-2.940762 -5.296094,-2.940762 z m 51.095227,0 c -1.614019,0 -3.074394,0.616064 -4.182801,1.616972 -1.321528,1.349634 -1.177724,2.950846 -0.700558,3.725489 0.751844,1.216195 2.597012,1.893947 4.965173,2.237675 3.353812,0.492638 2.260704,2.391592 -0.346364,2.30424 -1.790864,-0.06156 -2.168043,-1.452244 -2.168043,-1.452244 l -2.866446,1.159774 c 1.108408,1.760408 3.063907,2.935589 5.299039,2.935589 1.58069,0 3.019875,-0.595341 4.123254,-1.565304 1.377918,-1.359949 1.237058,-2.986868 0.757088,-3.771984 -0.744158,-1.221526 -2.594138,-1.914261 -4.965173,-2.263311 -3.35374,-0.497796 -2.240089,-2.483923 0.351536,-2.304241 1.793522,0.128274 2.170701,1.467537 2.170701,1.467537 L 100,14.421033 C 98.89662,12.655797 96.936381,11.480271 94.703978,11.480271 Z M 50.71381,11.777913 v 12.08559 h 8.890895 v -2.68384 h -5.755446 v -2.247911 h 3.759005 v -2.65811 h -3.759005 v -1.842481 h 5.755446 v -2.653248 z m 23.119259,0 v 12.085892 h 3.458755 V 11.777913 Z m 5.540028,0 v 12.08559 h 8.888381 v -2.68384 h -5.750274 v -2.247911 h 3.751462 v -2.65811 h -3.751462 v -1.842481 h 5.750274 v -2.653248 z m -17.656519,0.01034 v 12.085582 h 3.315526 v -4.269909 h 0.490024 c 0.461795,0 0.736545,0.272084 1.018693,0.672378 l 2.411762,3.597531 h 3.40517 l -2.848488,-4.264637 c 1.54499,-0.677644 2.422465,-2.083679 2.422465,-3.828615 0,-2.083176 -1.680821,-3.99233 -4.067083,-3.99233 z M 0.1971732,14.018239 C 0.06435963,14.848672 0,15.694671 0,16.559338 c 0,9.144585 7.4152927,16.567125 16.559389,16.567125 9.144024,0 16.559316,-7.437064 16.559316,-16.567125 0,-0.864667 -0.06824,-1.710666 -0.197101,-2.541099 h -3.633446 v 9.785703 h -3.295845 v -9.785703 h -3.777681 v 9.785703 h -2.196129 c -0.819005,0 -1.216871,-0.241177 -1.63801,-0.912887 l -4.263179,-6.38156 h -0.06968 v 7.294447 h -3.20555 V 14.018239 H 7.0856651 v 9.785703 H 3.7292672 v -9.785703 c -1.1769337,-7.18e-4 -2.354873,7.18e-4 -3.53180668,0 z m 64.8349308,0.412828 h 2.616765 c 0.862319,0 1.362686,0.749208 1.362902,1.39075 0,0.666999 -0.605814,1.34952 -1.347315,1.34952 h -2.632352 z" />
  <metadata
     id="metadata1">
    <rdf:RDF>
      <cc:Work
         rdf:about="">
        <dc:title>TNT Novelas logo - Brandlogos.net</dc:title>
      </cc:Work>
    </rdf:RDF>
  </metadata>
</svg>
