<?xml version="1.0" encoding="UTF-8" standalone="no"?>
<!-- Created with Inkscape (http://www.inkscape.org/) -->

<svg
   width="100"
   height="54.52145"
   id="svg3094"
   version="1.1"
   inkscape:version="1.4.2 (f4327f4, 2025-05-13)"
   sodipodi:docname="Universal TV.svg"
   inkscape:export-filename="Universal TV.png"
   inkscape:export-xdpi="300"
   inkscape:export-ydpi="300"
   xmlns:inkscape="http://www.inkscape.org/namespaces/inkscape"
   xmlns:sodipodi="http://sodipodi.sourceforge.net/DTD/sodipodi-0.dtd"
   xmlns="http://www.w3.org/2000/svg"
   xmlns:svg="http://www.w3.org/2000/svg"
   xmlns:rdf="http://www.w3.org/1999/02/22-rdf-syntax-ns#"
   xmlns:cc="http://creativecommons.org/ns#"
   xmlns:dc="http://purl.org/dc/elements/1.1/">
  <defs
     id="defs3096" />
  <sodipodi:namedview
     id="base"
     pagecolor="#ffffff"
     bordercolor="#666666"
     borderopacity="1.0"
     inkscape:pageopacity="0.0"
     inkscape:pageshadow="2"
     inkscape:zoom="9.26"
     inkscape:cx="49.946004"
     inkscape:cy="27.483801"
     inkscape:document-units="px"
     inkscape:current-layer="layer1"
     showgrid="false"
     fit-margin-top="0"
     fit-margin-left="0"
     fit-margin-right="0"
     fit-margin-bottom="0"
     inkscape:window-width="1920"
     inkscape:window-height="974"
     inkscape:window-x="-11"
     inkscape:window-y="-11"
     inkscape:window-maximized="1"
     showguides="false"
     inkscape:snap-nodes="false"
     inkscape:snap-global="false"
     inkscape:showpageshadow="false"
     inkscape:pagecheckerboard="0"
     inkscape:deskcolor="#d1d1d1" />
  <metadata
     id="metadata3099">
    <rdf:RDF>
      <cc:Work
         rdf:about="">
        <dc:format>image/svg+xml</dc:format>
        <dc:type
           rdf:resource="http://purl.org/dc/dcmitype/StillImage" />
      </cc:Work>
    </rdf:RDF>
  </metadata>
  <g
     inkscape:label="Layer 1"
     inkscape:groupmode="layer"
     id="layer1"
     transform="translate(-112.75,-620.34325)">
    <path
       id="path3039"
       style="fill:#ffffff;fill-opacity:1;stroke:none;stroke-width:1.02545"
       d="m 161.87376,620.34325 c -12.95102,0 -22.76439,8.93373 -25.6985,18.09369 l 3.97164,-0.054 c 3.51236,-9.04593 12.08942,-15.77839 22.37177,-15.77839 8.57513,0 19.33793,5.04076 23.70165,16.59555 h 1.31988 c -2.92439,-10.57178 -13.75444,-18.8568 -25.66644,-18.8568 z m 22.64014,20.79553 c -3.14037,0 -4.47035,1.73464 -4.47035,3.8094 0,4.61546 6.25889,3.55059 6.25889,5.2795 0,0.44321 -0.44754,0.84521 -1.40399,0.84521 -1.68605,0 -2.59033,-0.78896 -3.60112,-1.51416 l -1.85663,2.3173 c 1.59969,1.2775 2.6276,2.03488 5.39166,2.03488 2.66464,0 4.6566,-1.299 4.6566,-4.02571 0,-4.27209 -6.29694,-3.47309 -6.29694,-5.17535 0,-0.35866 0.38951,-0.72704 1.20171,-0.72704 1.31492,0 2.42434,0.67959 3.21656,1.27582 l 1.6103,-2.44148 c -1.36131,-1.08282 -2.86871,-1.67837 -4.70669,-1.67837 z m -27.53109,0.024 v 12.52579 h 9.30321 v -2.86007 h -6.02456 v -2.09698 h 5.37764 v -2.66978 h -5.37764 v -1.94476 h 5.94845 v -2.9542 z m 11.36213,0 v 12.52378 h 3.22257 v -3.81342 h 1.6203 l 1.94877,3.81342 h 3.77137 l -2.72188,-4.30211 c 1.17213,-0.59366 2.35936,-1.61928 2.35936,-3.90154 0,-2.52257 -1.78553,-4.32013 -4.77279,-4.32013 z m -12.72807,0.0381 -3.57108,0.0381 -2.38538,7.85116 -2.71385,-7.79507 h -3.55305 l 4.62857,12.3936 h 3.0924 z m -13.69544,0.12216 -3.24261,0.0901 v 12.27544 h 3.24261 z m -8.75243,0.16424 v 6.4812 l -4.61655,-6.2689 -3.02831,0.0721 v 11.91693 h 3.14647 v -6.48121 l 4.8609,6.48121 h 2.80198 v -12.20133 z m 61.73166,0.0441 -4.93302,12.15525 h 3.43087 l 0.76309,-2.09897 h 4.38423 l 0.79312,2.09897 h 3.47293 l -4.86089,-12.08916 z m 9.26915,0.39656 v 11.7607 H 212.75 v -2.72788 l -5.43372,-0.058 v -8.88862 z m -80.83878,0.006 -3.14448,0.0901 v 6.32499 c 0,1.71433 -0.96789,2.66578 -2.16506,2.66578 -1.11452,0 -2.12502,-0.76429 -2.12502,-2.51558 v -6.32298 l -3.14647,0.0721 v 7.05401 c 0,2.72514 1.80733,4.62057 5.2134,4.62057 3.44187,0 5.36763,-1.8323 5.36763,-5.23144 z m 48.23648,2.12301 h 1.81258 c 1.45747,0 1.96479,0.85262 1.96479,1.59226 0,0.91898 -0.84837,1.48211 -1.77451,1.48211 h -2.00286 z m 24.79923,1.44206 1.29783,3.42085 h -2.54962 z m -18.92689,10.80333 v 0.95136 h 1.85063 v 4.82485 h 0.95335 v -4.82485 h 1.84863 v -0.95136 z m 5.66405,0 2.39139,5.77621 h 0.92331 l 2.42545,-5.77621 h -1.10157 l -1.75849,4.34618 -1.76851,-4.34618 z m -46.71232,0.6289 c 2.25643,8.09987 10.98911,17.93346 25.36801,17.93346 9.74537,0 17.09554,-4.47477 21.49051,-10.48489 h -1.47608 c -4.61351,5.5037 -11.63237,8.90464 -19.36952,8.90464 -8.41645,0 -19.1707,-4.32135 -23.5334,-16.35321 z" />
  </g>
</svg>
