<?xml version="1.0" encoding="UTF-8" standalone="no"?>
<svg
   width="259.45651mm"
   height="165.41832mm"
   viewBox="0 0 259.45652 165.41832"
   version="1.1"
   id="svg8"
   sodipodi:docname="Discovery_Home_&amp;_Health_logo.svg"
   inkscape:version="1.4.2 (f4327f4, 2025-05-13)"
   xmlns:inkscape="http://www.inkscape.org/namespaces/inkscape"
   xmlns:sodipodi="http://sodipodi.sourceforge.net/DTD/sodipodi-0.dtd"
   xmlns:xlink="http://www.w3.org/1999/xlink"
   xmlns="http://www.w3.org/2000/svg"
   xmlns:svg="http://www.w3.org/2000/svg"
   xmlns:rdf="http://www.w3.org/1999/02/22-rdf-syntax-ns#"
   xmlns:cc="http://creativecommons.org/ns#"
   xmlns:dc="http://purl.org/dc/elements/1.1/">
  <sodipodi:namedview
     id="namedview1"
     pagecolor="#ffffff"
     bordercolor="#000000"
     borderopacity="0.25"
     inkscape:showpageshadow="2"
     inkscape:pageopacity="0.0"
     inkscape:pagecheckerboard="0"
     inkscape:deskcolor="#d1d1d1"
     inkscape:document-units="mm"
     inkscape:zoom="0.83128744"
     inkscape:cx="437.87501"
     inkscape:cy="285.70142"
     inkscape:window-width="1920"
     inkscape:window-height="974"
     inkscape:window-x="-11"
     inkscape:window-y="-11"
     inkscape:window-maximized="1"
     inkscape:current-layer="svg8" />
  <defs
     id="defs2">
    <linearGradient
       id="linearGradient1178">
      <stop
         style="stop-color:#aeb0b4;stop-opacity:1"
         offset="0"
         id="stop1174" />
      <stop
         style="stop-color:#e6e6e6;stop-opacity:1"
         offset="0.50718993"
         id="stop1182" />
      <stop
         style="stop-color:#b1b2b6;stop-opacity:1"
         offset="1"
         id="stop1176" />
    </linearGradient>
    <linearGradient
       xlink:href="#linearGradient1178"
       id="linearGradient1180"
       x1="41.428574"
       y1="1080"
       x2="991.42859"
       y2="1080"
       gradientUnits="userSpaceOnUse"
       gradientTransform="matrix(0.19135973,0,0,0.18293294,25.892112,66.878929)" />
    <style
       type="text/css"
       id="style6"><![CDATA[
    .fil0 {fill:#1F1A17}
    .fil4 {fill:white}
    .fil2 {fill:#E51E2A}
    .fil3 {fill:white}
    .fil1 {fill:url(#id0)}
   ]]></style>
    <linearGradient
       id="id0"
       gradientUnits="userSpaceOnUse"
       x1="10.2224"
       y1="228.21001"
       x2="214.13699"
       y2="228.21001"
       gradientTransform="translate(82.741733,34.42837)">
      <stop
         offset="0"
         style="stop-color:#A7B6BF"
         id="stop9" />
      <stop
         offset="0.0705882"
         style="stop-color:#AAB8C1"
         id="stop11" />
      <stop
         offset="0.211765"
         style="stop-color:white"
         id="stop13" />
      <stop
         offset="0.368627"
         style="stop-color:#A7B6BF"
         id="stop15" />
      <stop
         offset="0.490196"
         style="stop-color:#A7B6BF"
         id="stop17" />
      <stop
         offset="0.611765"
         style="stop-color:#A7B6BF"
         id="stop19" />
      <stop
         offset="0.768627"
         style="stop-color:white"
         id="stop21" />
      <stop
         offset="0.921569"
         style="stop-color:#AEBCC5"
         id="stop23" />
      <stop
         offset="1"
         style="stop-color:#A7B6BF"
         id="stop25" />
    </linearGradient>
    <style
       type="text/css"
       id="style6-1"><![CDATA[
    .fil0 {fill:#1F1A17}
    .fil4 {fill:white}
    .fil2 {fill:#E51E2A}
    .fil3 {fill:white}
    .fil1 {fill:url(#id0)}
   ]]></style>
    <style
       type="text/css"
       id="style6-8"><![CDATA[
    .fil3 {fill:#1F1A17}
    .fil0 {fill:black}
    .fil1 {fill:white}
    .fil2 {fill:#DE3E3F}
   ]]></style>
    <style
       type="text/css"
       id="style6-16"><![CDATA[
    .fil0 {fill:#1F1A17}
    .fil4 {fill:white}
    .fil2 {fill:#E51E2A}
    .fil3 {fill:white}
    .fil1 {fill:url(#id0)}
   ]]></style>
    <style
       type="text/css"
       id="style6-1-3"><![CDATA[
    .fil0 {fill:#1F1A17}
    .fil4 {fill:white}
    .fil2 {fill:#E51E2A}
    .fil3 {fill:white}
    .fil1 {fill:url(#id0)}
   ]]></style>
  </defs>
  <metadata
     id="metadata5">
    <rdf:RDF>
      <cc:Work
         rdf:about="">
        <dc:format>image/svg+xml</dc:format>
        <dc:type
           rdf:resource="http://purl.org/dc/dcmitype/StillImage" />
        <dc:title />
      </cc:Work>
    </rdf:RDF>
  </metadata>
  <path
     id="path3272"
     style="fill:#ffffff;fill-opacity:1"
     class="st0"
     d="M 31.855989 23.845509 L 31.855989 219.02094 L 63.495652 219.02094 L 63.495652 172.28336 C 63.495652 161.78612 63.495903 158.91277 63.780845 152.93412 C 64.065786 146.95537 64.634457 137.8717 68.20644 131.21274 C 71.778423 124.55377 78.352301 120.31986 84.346301 118.28793 C 90.340291 116.25599 95.754808 116.42561 100.39512 117.52664 C 105.03543 118.62757 108.90094 120.65968 111.7731 124.44183 C 114.64525 128.22407 116.5234 133.7566 117.37941 139.11893 C 118.23542 144.48126 118.06981 149.67397 117.98696 157.4354 C 117.90409 165.19684 117.90428 175.52729 117.90428 182.63954 C 117.90428 189.75179 117.9038 193.64474 119.00882 198.38643 C 120.11388 203.12802 122.32384 208.71696 127.68258 213.31697 C 133.04132 217.91699 141.54888 221.52869 150.24903 221.58483 C 157.35081 221.63081 164.54953 219.31182 169.94126 217.24397 L 169.94126 191.11243 C 165.82677 192.60563 160.17209 193.98111 156.68305 193.16468 C 152.70559 192.23396 151.54732 188.45288 150.96712 183.40083 C 150.38692 178.34877 150.38651 172.02542 150.38651 162.65526 C 150.38651 153.2851 150.38561 140.86915 149.25318 131.47093 C 148.12093 122.0728 145.85706 115.69288 142.18374 109.48376 C 138.51043 103.27463 133.42825 97.236059 126.52323 93.115116 C 119.6182 88.994173 110.89047 86.793175 102.49366 86.454321 C 94.096839 86.115448 86.031182 87.639026 79.263926 90.179127 C 73.132991 92.480371 68.070569 95.623949 63.495652 100.99948 L 63.495652 23.845509 L 31.855989 23.845509 z M 360.18519 23.845509 L 360.18519 219.02094 L 391.82486 219.02094 L 391.82486 172.28336 C 391.82486 161.78612 391.82509 158.91277 392.11005 152.93412 C 392.39499 146.95537 392.96366 137.8717 396.53564 131.21274 C 400.10763 124.55377 406.68151 120.31986 412.6755 118.28793 C 418.6695 116.25599 424.08401 116.42561 428.72433 117.52664 C 433.36463 118.62757 437.23015 120.65968 440.10231 124.44183 C 442.97445 128.22407 444.85259 133.7566 445.70862 139.11893 C 446.56461 144.48126 446.399 149.67397 446.31616 157.4354 C 446.23325 165.19684 446.23441 175.52729 446.23441 182.63954 C 446.23441 189.75179 446.23302 193.64474 447.33802 198.38643 C 448.4431 203.12802 450.65307 208.71696 456.01178 213.31697 C 461.37054 217.91699 469.87807 221.52869 478.57823 221.58483 C 485.68001 221.63081 492.87872 219.31182 498.27046 217.24397 L 498.27046 191.11243 C 494.15596 192.60563 488.50131 193.98111 485.01225 193.16468 C 481.0348 192.23396 479.87651 188.45288 479.29632 183.40083 C 478.71609 178.34877 478.71572 172.02542 478.71572 162.65526 C 478.71572 153.2851 478.71481 140.86915 477.58238 131.47093 C 476.45012 122.0728 474.18625 115.69288 470.51295 109.48376 C 466.83961 103.27463 461.75746 97.236059 454.85243 93.115116 C 447.94742 88.994173 439.21968 86.793185 430.82286 86.454321 C 422.42604 86.115448 414.36039 87.639026 407.59313 90.179127 C 401.4622 92.480371 396.39977 95.623949 391.82486 100.99948 L 391.82486 23.845509 L 360.18519 23.845509 z M 252.518 32.504447 C 245.44375 32.425706 238.20992 33.814934 231.06631 37.097804 C 222.90218 40.849671 214.85703 47.074409 209.93511 53.281342 C 205.0132 59.488276 202.3043 65.336782 200.89813 71.782917 C 199.49195 78.229062 199.3882 85.272455 202.61114 94.332987 C 204.46694 99.550142 207.7391 105.55433 212.74802 112.76717 C 208.83736 115.08351 204.58441 118.11597 200.63802 122.09152 C 193.72391 129.05663 187.78708 138.83611 184.95521 150.97015 C 182.12333 163.10419 182.39686 177.59259 187.67058 189.06777 C 192.94431 200.54286 203.21642 209.00388 214.9153 214.79114 C 226.61418 220.5783 239.73916 223.69138 252.94161 222.85301 C 266.14406 222.01464 279.42416 217.22493 288.89632 212.25573 C 292.60482 210.3102 295.70737 208.34578 298.21199 206.59068 L 310.04795 219.02094 L 352.73117 219.02094 L 317.16105 183.23566 L 316.84984 182.99076 C 319.15679 178.14886 321.26574 171.07578 322.43107 164.2215 C 323.87644 155.72007 323.87562 147.61761 323.87562 139.97419 L 323.87562 121.31409 L 296.6857 121.31409 C 296.68195 128.81287 296.64 139.24314 296.0828 147.177 C 295.7275 152.23576 295.15607 156.20832 294.28525 159.6756 C 283.60491 148.83034 271.07338 136.12634 261.32367 126.24158 C 248.02537 112.75908 241.83633 106.46431 237.43066 100.57991 C 233.02498 94.695435 230.40317 89.22089 230.168 83.646479 C 229.93282 78.072078 232.08554 72.397952 235.12403 68.44635 C 238.16254 64.494738 242.0844 62.267242 246.72497 61.378332 C 251.36555 60.489423 256.7245 60.940534 261.03105 62.652208 C 265.33761 64.363883 268.59163 67.335162 270.21852 71.85411 C 271.18803 74.547056 271.57419 77.779628 271.73274 80.602276 L 301.91485 80.602276 C 302.01488 79.333725 302.05571 78.033999 302.02076 76.710405 C 301.80623 68.588278 298.95411 59.688839 294.69678 53.102886 C 290.43946 46.516933 284.77751 42.246721 278.059 38.913694 C 271.3405 35.580667 263.56719 33.18499 255.53993 32.625949 C 254.53651 32.556117 253.52861 32.515703 252.518 32.504447 z M 228.75411 133.14728 C 242.12767 148.8305 260.30671 168.09266 270.42197 178.80937 C 273.28222 181.83964 275.41103 184.09349 277.14675 185.91535 C 275.24821 187.40664 273.09753 188.73451 270.43962 189.88506 C 264.81515 192.31971 256.96405 193.99513 248.66372 193.91552 C 240.36338 193.83602 231.61505 191.99957 225.54082 188.60739 C 219.46658 185.21521 216.06862 180.26724 214.38858 173.82113 C 212.70854 167.37492 212.74769 159.43154 215.50148 152.44621 C 218.25527 145.46089 228.32361 133.70345 228.75411 133.14728 z M 128.30034 266.10024 L 128.30034 273.90011 C 129.50034 274.40011 130.60003 274.99954 131.60003 275.79954 C 133.20003 276.99954 134.69961 278.49958 135.99961 280.09958 L 135.99961 273.39987 L 144.59998 273.39987 C 153.79998 273.39987 159.79973 279.99995 159.79973 288.89995 C 159.79973 297.89995 153.79998 304.30037 144.59998 304.30037 L 137.79995 304.30037 C 136.19995 307.30037 133.99997 309.8 131.29997 311.6 L 144.59998 311.6 C 158.29998 311.6 167.79999 301.60029 167.79999 288.80029 C 167.79999 276.00029 158.39998 266.19991 144.59998 266.19991 L 144.59998 266.10024 L 128.30034 266.10024 z M 119.8003 275.69987 C 110.2003 275.69987 102.39983 283.89992 102.39983 293.79992 C 102.39983 303.79992 110.2003 311.89996 119.8003 311.89996 C 129.4003 311.89996 137.19984 303.79992 137.19984 293.79992 C 137.19984 283.79992 129.4003 275.69987 119.8003 275.69987 z M 231.69986 276.8997 C 221.89986 276.8997 214.60038 285.10008 214.60038 294.90008 C 214.60038 304.70008 221.89986 312.70017 231.69986 312.70017 C 238.09986 312.70017 241.9996 310.10041 245.1996 306.30041 L 240.60029 301.59979 L 239.70012 302.49967 C 237.50012 304.59967 235.09992 305.89984 231.99992 305.89984 C 226.19992 305.89984 222.09993 301.00041 222.09993 294.80041 C 222.09993 288.70041 226.09954 283.79971 231.59954 283.79971 C 235.39954 283.79971 237.79958 285.59975 240.09958 288.09975 L 244.80015 282.80016 L 243.89998 281.79966 C 240.99998 278.79966 237.29986 276.8997 231.69986 276.8997 z M 333.19965 276.8997 C 330.79965 276.8997 328.59967 277.39983 326.69967 278.29983 C 324.69967 279.19983 322.99965 280.49962 321.59965 282.09962 C 320.09965 283.69962 318.99963 285.59979 318.19963 287.79979 C 317.39963 289.99979 317.00034 292.30041 317.00034 294.80041 L 317.00034 294.90008 C 317.00034 297.50008 317.39996 300.00004 318.29996 302.10004 C 319.19996 304.30004 320.3997 306.19959 321.8997 307.69959 C 323.3997 309.29959 325.19979 310.49972 327.29979 311.39972 C 329.39979 312.19972 331.60042 312.70017 334.00042 312.70017 C 337.00042 312.70017 339.70002 312.10042 341.80002 310.90042 C 344.00002 309.70042 345.90016 308.1998 347.50016 306.1998 L 343.00025 302.10004 C 341.70025 303.40004 340.29979 304.50025 338.89979 305.20025 C 337.49979 305.90025 335.90042 306.1998 334.00042 306.1998 C 331.50042 306.1998 329.50017 305.40041 327.70017 304.00041 C 326.00017 302.50041 324.89988 300.30004 324.49988 297.50004 L 348.79978 297.50004 C 348.79978 297.10004 348.90011 296.69988 348.90011 296.39988 L 348.90011 295.29971 C 349.00011 292.89971 348.69994 290.50004 347.99994 288.30004 C 347.29994 286.10004 346.30031 284.09958 345.00031 282.39958 C 343.70031 280.69958 342.00001 279.40045 340.10001 278.40045 C 338.10001 277.40045 335.79965 276.8997 333.19965 276.8997 z M 264.60013 277.00032 C 262.10013 277.00032 259.70037 277.50045 257.60037 278.40045 C 255.40037 279.40045 253.59964 280.59991 251.99964 282.29991 C 250.39964 283.89991 249.19956 285.80008 248.29956 288.00008 C 247.39956 290.20008 246.99994 292.49975 246.99994 294.99975 L 246.99994 295.10037 C 246.99994 297.50037 247.39956 299.80037 248.29956 302.00037 C 249.19956 304.20037 250.39964 305.99992 251.99964 307.59992 C 253.59964 309.19992 255.40037 310.49972 257.60037 311.39972 C 259.70037 312.29972 262.10013 312.79984 264.60013 312.79984 C 267.10013 312.79984 269.50022 312.29972 271.70022 311.39972 C 273.90022 310.39972 275.70003 309.10025 277.30003 307.50025 C 278.80003 305.90025 280.10011 304.00008 281.00011 301.80008 C 281.90011 299.60008 282.29973 297.40008 282.29973 294.90008 L 282.29973 294.80041 C 282.19973 292.20041 281.70038 289.89979 280.80038 287.79979 C 279.90038 285.69979 278.6997 283.80024 277.1997 282.20024 C 275.5997 280.60024 273.80022 279.30045 271.70022 278.40045 C 269.50022 277.50045 267.20013 277.00032 264.60013 277.00032 z M 198.29981 277.09999 C 196.69981 277.09999 195.20023 277.29991 193.90023 277.69991 C 192.50023 278.19991 191.30015 278.89962 190.20015 279.79962 C 189.10015 280.69962 188.3003 281.80012 187.7003 283.10012 C 187.1003 284.40012 186.80014 285.89983 186.80014 287.49983 L 186.80014 287.60045 L 186.89954 288.80029 C 186.99954 290.00029 187.2997 290.99987 187.7997 291.79987 C 188.3997 292.89987 189.20015 293.80012 190.20015 294.60012 C 191.20015 295.30012 192.29984 295.89988 193.49984 296.39988 C 194.69984 296.79988 195.89959 297.29971 197.09959 297.59971 C 198.09959 297.89971 199.00042 298.19959 199.90042 298.49959 C 200.80042 298.79959 201.59994 299.10008 202.29994 299.50008 C 202.99994 299.90008 203.49962 300.29959 203.89962 300.79959 C 204.29962 301.29959 204.49973 301.89967 204.49973 302.49967 L 204.49973 302.60029 L 204.40033 303.39955 C 204.20033 304.19955 203.79978 304.79992 203.09978 305.29992 C 202.19978 305.89992 200.90031 306.30041 199.30031 306.30041 C 197.60031 306.30041 195.79962 305.90025 193.99962 305.20025 C 192.09962 304.50025 190.30014 303.50004 188.50014 302.10004 L 185.10013 307.39963 L 186.69981 308.60042 C 188.29981 309.70042 190.10016 310.50038 191.90016 311.20038 C 194.30016 312.10038 196.69965 312.49988 199.09965 312.49988 C 200.79965 312.49988 202.39962 312.20029 203.89962 311.80029 C 205.39962 311.40029 206.70035 310.70025 207.80035 309.80025 C 208.90035 309.00025 209.7996 307.79975 210.3996 306.49975 C 210.9996 305.19975 211.29976 303.60008 211.29976 301.80008 L 211.29976 301.70041 L 211.20036 300.60025 C 211.10036 299.50025 210.8002 298.6 210.3002 297.8 C 209.7002 296.7 208.89975 295.79975 207.89975 294.99975 C 206.89975 294.29975 205.80006 293.60033 204.60006 293.10033 C 203.40006 292.50033 202.20031 292.1002 201.00031 291.7002 C 200.00031 291.3002 199.10041 290.99971 198.20041 290.69971 C 197.30041 290.39971 196.49996 290.10016 195.79996 289.70016 C 195.09996 289.40016 194.49995 289.00033 194.09995 288.50033 C 193.69995 288.00033 193.49984 287.49991 193.49984 286.89991 L 193.49984 286.80024 L 193.60017 286.09971 C 193.70017 285.39971 194.10007 284.79995 194.70007 284.29995 C 195.50007 283.59995 196.60008 283.30041 198.10008 283.30041 C 199.50008 283.30041 200.99999 283.60028 202.59999 284.20028 C 204.19999 284.80028 205.79996 285.59995 207.39996 286.59995 L 210.3996 281.00041 L 209.09997 280.09958 C 207.69997 279.29958 206.20006 278.59954 204.60006 278.09954 C 202.50006 277.49954 200.39981 277.09999 198.29981 277.09999 z M 172.2999 277.60024 L 172.2999 311.89996 L 179.89977 311.89996 L 179.89977 277.60024 L 172.2999 277.60024 z M 282.50039 277.60024 L 296.00012 312.19992 L 302.89956 312.19992 L 316.40022 277.60024 L 308.39997 277.60024 L 299.49954 302.79963 L 290.60004 277.60024 L 282.50039 277.60024 z M 354.69965 277.60024 L 354.69965 311.89996 L 362.30045 311.89996 L 362.30045 298.90016 L 362.30045 297.20008 C 362.40045 295.60008 362.60029 294.10004 363.10029 292.90004 C 365.40029 286.70004 371.70035 284.89962 375.00035 284.39962 L 372.40017 277.79958 L 371.30027 277.99987 C 368.60027 278.69987 364.70012 280.10041 362.20012 283.30041 L 362.20012 277.60024 L 354.69965 277.60024 z M 385.40013 277.60024 L 385.40013 277.69991 L 377.5002 277.69991 L 389.79971 311.69967 L 389.70031 311.89996 L 389.59998 312.10025 C 389.29998 313.20025 386.99974 319.09972 384.99974 320.59972 C 383.19974 321.49972 379.19992 321.40026 377.69992 321.30026 L 377.69992 327.70001 L 380.19977 327.70001 C 383.19977 327.60001 387.10041 327.50017 388.60041 326.50017 C 391.10041 324.80017 391.70038 324.10005 393.40038 320.50005 C 395.20038 316.50005 409.70003 277.60024 409.70003 277.60024 L 401.8001 277.60024 L 393.30005 302.69996 L 385.40013 277.60024 z M 333.19965 283.30041 C 334.39965 283.30041 335.59967 283.49999 336.59967 283.99999 C 337.59967 284.49999 338.40044 285.10037 339.10044 285.90037 C 339.80044 286.70037 340.40045 287.70029 340.80045 288.80029 C 341.20045 289.90029 341.50029 290.29991 341.60029 291.49991 L 324.60021 291.49991 C 324.90021 288.79991 325.90011 287.49975 327.40011 285.79975 C 329.00011 284.09975 330.89965 283.30041 333.19965 283.30041 z M 264.49981 283.99999 C 265.99981 283.99999 267.40026 284.3002 268.60026 284.8002 C 269.80026 285.4002 270.89962 286.19987 271.79962 287.19987 C 272.69962 288.19987 273.40002 289.39971 273.90002 290.69971 C 274.40002 291.99971 274.69986 293.49975 274.69986 294.99975 L 274.60046 294.99975 C 274.60046 296.49975 274.40002 297.90012 273.90002 299.20012 C 273.40002 300.50012 272.79995 301.69996 271.89995 302.69996 C 270.99995 303.69996 269.99999 304.49963 268.79999 305.09963 C 267.59999 305.69963 266.20013 306.00046 264.60013 306.00046 C 263.20013 306.00046 261.80001 305.69963 260.60001 305.09963 C 259.40001 304.49963 258.29972 303.69996 257.39972 302.69996 C 256.49972 301.69996 255.80025 300.50012 255.30025 299.20012 C 254.80025 297.90012 254.50041 296.49975 254.50041 294.99975 L 254.50041 294.90008 C 254.50041 293.40008 254.69992 292.00004 255.19992 290.60004 C 255.69992 289.30004 256.29999 288.09987 257.19999 287.19987 C 258.09999 286.19987 259.10028 285.4002 260.40028 284.8002 C 261.60028 284.2002 262.99981 283.99999 264.49981 283.99999 z "
     transform="matrix(0.55627886,0,0,0.54439979,-17.720813,-12.98149)" />
  <style
     type="text/css"
     id="style3265">
	.st0{fill-rule:evenodd;clip-rule:evenodd;fill:#999999;}
	.st1{fill-rule:evenodd;clip-rule:evenodd;fill:#FF9000;}
</style>
</svg>
