<?xml version="1.0" encoding="UTF-8" standalone="no"?>
<svg
   id="uuid-992480e5-52b6-43d0-bb76-1b1d82b7b396"
   viewBox="0 0 2267.72 638.66"
   version="1.1"
   sodipodi:docname="tnt-novelas-logo-brandlogos.net_swaaic7j6.svg"
   inkscape:version="1.4.2 (f4327f4, 2025-05-13)"
   xmlns:inkscape="http://www.inkscape.org/namespaces/inkscape"
   xmlns:sodipodi="http://sodipodi.sourceforge.net/DTD/sodipodi-0.dtd"
   xmlns="http://www.w3.org/2000/svg"
   xmlns:svg="http://www.w3.org/2000/svg"
   xmlns:rdf="http://www.w3.org/1999/02/22-rdf-syntax-ns#"
   xmlns:cc="http://creativecommons.org/ns#"
   xmlns:dc="http://purl.org/dc/elements/1.1/">
  <defs
     id="defs1" />
  <sodipodi:namedview
     id="namedview1"
     pagecolor="#828282"
     bordercolor="#000000"
     borderopacity="0.25"
     inkscape:showpageshadow="2"
     inkscape:pageopacity="0.0"
     inkscape:pagecheckerboard="0"
     inkscape:deskcolor="#d1d1d1"
     inkscape:zoom="0.21764616"
     inkscape:cx="1686.2232"
     inkscape:cy="374.46101"
     inkscape:window-width="1920"
     inkscape:window-height="974"
     inkscape:window-x="-11"
     inkscape:window-y="-11"
     inkscape:window-maximized="1"
     inkscape:current-layer="uuid-992480e5-52b6-43d0-bb76-1b1d82b7b396" />
  <title
     id="title1">TNT Novelas logo - Brandlogos.net</title>
  <path
     id="uuid-d4147fcd-bc21-420f-ba9c-d1e11ecb6332"
     style="fill:#ffffff"
     d="M 319.25 0 C 176.14 0 55.150469 93.980469 14.480469 223.98047 L 206.78906 223.98047 L 269.38086 223.98047 C 285.17086 223.98047 292.98078 228.22023 300.80078 241.24023 L 365.49023 341.92969 L 367.86914 341.92969 L 367.86914 223.98047 L 624.0293 223.98047 C 583.3793 94.040469 462.36 -3.7895613e-14 319.25 0 z M 1093.1797 221.33008 C 1075.1697 221.33008 1058.4906 224.55 1043.1406 231 C 1028.0206 237.23 1014.8993 245.89953 1003.7793 257.01953 C 992.8793 267.90953 984.31984 280.70086 978.08984 295.38086 C 971.85984 309.83086 968.75 325.40008 968.75 342.08008 L 968.75 342.75 C 968.75 359.43 971.75977 375.10906 977.75977 389.78906 C 983.98977 404.24906 992.54922 416.92031 1003.4492 427.82031 C 1014.5692 438.50031 1027.6905 447.05977 1042.8105 453.50977 C 1057.9405 459.73977 1074.5095 462.84961 1092.5195 462.84961 C 1110.5395 462.84961 1127.1105 459.73977 1142.2305 453.50977 C 1157.5705 447.05977 1170.6898 438.39023 1181.5898 427.49023 C 1192.7098 416.37023 1201.3794 403.59086 1207.6094 389.13086 C 1213.8394 374.45086 1216.9492 358.76984 1216.9492 342.08984 L 1216.9492 341.41992 C 1216.9492 324.73992 1213.8394 309.1807 1207.6094 294.7207 C 1201.5994 280.0407 1193.0399 267.36945 1181.9199 256.68945 C 1171.0199 245.78945 1158.0106 237.23 1142.8906 231 C 1127.7606 224.55 1111.1897 221.33008 1093.1797 221.33008 z M 2173.3398 221.33008 C 2125.2298 221.33008 2091.2305 249.68969 2091.2305 292.17969 L 2091.2305 292.68945 C 2091.2305 339.17945 2121.2292 352.46984 2168.9492 364.58984 C 2207.9992 374.58984 2216.3691 381.21094 2216.3691 394.46094 L 2216.3691 395.11914 C 2216.3691 409.02914 2203.0804 417.25 2182.1504 417.25 C 2161.2204 417.25 2142.2805 410.01906 2124.7305 398.03906 C 2124.5105 397.88906 2124.2903 397.74961 2124.0703 397.59961 C 2121.4403 395.84961 2118.1705 395 2114.7305 395 C 2112.2005 395.09 2109.5608 395.61047 2107.0508 396.98047 C 2105.0208 398.09047 2103.1205 399.68906 2101.2305 402.03906 L 2081.7891 425.28906 C 2101.0191 442.40906 2123.7004 453.62906 2147.4004 459.03906 C 2158.4904 461.56906 2169.9698 462.84961 2181.3398 462.84961 C 2194.5698 462.84961 2206.2391 461.15016 2216.7891 457.91016 C 2230.2191 453.78016 2241.3501 447.13094 2249.8301 438.21094 C 2261.2501 426.20094 2267.7207 410.04008 2267.7207 390.08008 L 2267.7207 389.44922 C 2267.7207 348.54922 2241.0907 331.45094 2193.2207 318.96094 C 2152.5007 308.59094 2142.6094 303.49008 2142.6094 288.08008 L 2142.6094 287.41992 C 2142.6094 282.81992 2144.3195 278.57992 2147.6895 275.16992 C 2152.5695 270.23992 2160.9197 267.00977 2172.6797 267.00977 C 2187.5997 267.00977 2202.8398 271.97953 2218.3398 280.51953 C 2222.2798 282.56953 2224.2503 284.12 2229.8203 284 C 2233.5503 284 2238.3602 282.22977 2241.4102 278.75977 C 2242.4302 277.58977 2243.5496 276.19937 2244.5996 274.60938 L 2260.6797 251.21094 C 2246.4897 239.85094 2230.4906 231.44023 2212.6406 226.49023 C 2200.4106 223.10023 2187.3098 221.33008 2173.3398 221.33008 z M 1931.7695 223.66016 L 1837.0293 458.84961 L 1889.4004 458.84961 L 1907.1992 414.10938 L 2000.5996 414.10938 L 2020.1602 458.84961 L 2073.8691 458.84961 L 1979.1309 223.66016 L 1931.7695 223.66016 z M 1671.9707 225.32031 L 1671.9707 458.83008 L 1825.5508 458.83008 L 1825.5508 412.13086 L 1723.3398 412.13086 L 1723.3398 225.32031 L 1671.9707 225.32031 z M 738.58984 225.33008 L 738.58984 458.84961 L 789.30078 458.84961 L 789.30078 310.40039 L 888.91016 449.40039 C 893.16016 455.33039 900.01055 458.84961 907.31055 458.84961 L 939.38086 458.84961 L 939.38086 225.33008 L 888.66992 225.33008 L 888.66992 369.10938 L 792.73047 234.78906 C 788.49047 228.84906 781.64961 225.33008 774.34961 225.33008 L 738.59961 225.33008 L 738.58984 225.33008 z M 1210.9004 225.33008 L 1305.3105 460.51953 L 1350.6797 460.51953 L 1445.0898 225.33008 L 1389.7109 225.33008 L 1328.6602 389.78906 L 1267.6094 225.33008 L 1210.9004 225.33008 z M 1472.8301 225.33008 L 1472.8301 458.83984 L 1631.8301 458.83984 L 1631.8301 413.14062 L 1523.8691 413.14062 L 1523.8691 364.09961 L 1619.2207 364.09961 L 1619.2207 318.40039 L 1523.8691 318.40039 L 1523.8691 271.0293 L 1630.1602 271.0293 L 1630.1602 225.33008 L 1472.8301 225.33008 z M 1092.5195 268.67969 C 1102.7495 268.67969 1112.2109 270.68945 1120.8809 274.68945 C 1129.5509 278.46945 1137.0005 283.69914 1143.2305 290.36914 C 1149.6805 297.03914 1154.5702 304.8207 1157.9102 313.7207 C 1161.4702 322.6207 1163.25 332.07008 1163.25 342.08008 L 1163.25 342.75 C 1163.25 352.76 1161.4702 362.20938 1157.9102 371.10938 C 1154.5802 379.78938 1149.8003 387.46086 1143.5703 394.13086 C 1137.5603 400.80086 1130.2208 406.03055 1121.5508 409.81055 C 1112.8708 413.59055 1103.4195 415.48047 1093.1895 415.48047 L 1093.1895 415.46094 C 1082.7395 415.46094 1073.17 413.56906 1064.5 409.78906 C 1056.05 405.78906 1048.6004 400.4493 1042.1504 393.7793 C 1035.9204 387.1093 1031.0307 379.32969 1027.4707 370.42969 C 1024.1407 361.52969 1022.4707 352.08031 1022.4707 342.07031 L 1022.4707 341.40039 C 1022.4707 331.39039 1024.1307 322.05086 1027.4707 313.38086 C 1031.0207 304.49086 1035.8105 296.6993 1041.8105 290.0293 C 1048.0405 283.3593 1055.3801 278.12961 1063.8301 274.34961 C 1072.5001 270.56961 1082.2895 268.67969 1092.5195 268.67969 z M 3.8105469 270.25977 C 1.2505469 286.26977 0.009765625 302.58 0.009765625 319.25 C 0.009765625 495.55 142.96977 638.65039 319.25977 638.65039 C 495.54977 638.65039 638.50977 495.27 638.50977 319.25 C 638.50977 302.58 637.19094 286.26977 634.71094 270.25977 L 564.66016 270.25977 L 564.66016 458.91992 L 501.11914 458.91992 L 501.11914 270.25977 L 428.28906 270.25977 L 428.28906 458.91992 L 385.94922 458.91992 C 370.15922 458.91992 362.48914 454.27031 354.36914 441.32031 L 272.17969 318.28906 L 270.83008 318.28906 L 270.83008 458.91992 L 209.0293 458.91992 L 209.0293 270.25977 L 136.60938 270.25977 L 136.60938 458.91992 L 71.900391 458.91992 L 71.900391 270.25977 C 49.210391 270.23977 26.500547 270.27977 3.8105469 270.25977 z M 1954.7793 285.38086 L 1985.8008 366.43945 L 1923.7598 366.43945 L 1954.7793 285.38086 z " />
  <metadata
     id="metadata1">
    <rdf:RDF>
      <cc:Work
         rdf:about="">
        <dc:title>TNT Novelas logo - Brandlogos.net</dc:title>
      </cc:Work>
    </rdf:RDF>
  </metadata>
</svg>
