<?xml version="1.0" encoding="UTF-8" standalone="no"?>
<svg
   id="uuid-992480e5-52b6-43d0-bb76-1b1d82b7b396"
   viewBox="0 0 1927.9157 638.65042"
   version="1.1"
   sodipodi:docname="TNT NOVELAS - copia.svg"
   inkscape:version="1.4.2 (f4327f4, 2025-05-13)"
   width="1927.9156"
   height="638.65039"
   xmlns:inkscape="http://www.inkscape.org/namespaces/inkscape"
   xmlns:sodipodi="http://sodipodi.sourceforge.net/DTD/sodipodi-0.dtd"
   xmlns="http://www.w3.org/2000/svg"
   xmlns:svg="http://www.w3.org/2000/svg"
   xmlns:rdf="http://www.w3.org/1999/02/22-rdf-syntax-ns#"
   xmlns:cc="http://creativecommons.org/ns#"
   xmlns:dc="http://purl.org/dc/elements/1.1/">
  <defs
     id="defs1" />
  <sodipodi:namedview
     id="namedview1"
     pagecolor="#828282"
     bordercolor="#000000"
     borderopacity="0.25"
     inkscape:showpageshadow="2"
     inkscape:pageopacity="0.0"
     inkscape:pagecheckerboard="0"
     inkscape:deskcolor="#d1d1d1"
     inkscape:zoom="0.42245075"
     inkscape:cx="1133.86"
     inkscape:cy="318.38031"
     inkscape:window-width="1920"
     inkscape:window-height="974"
     inkscape:window-x="-11"
     inkscape:window-y="-11"
     inkscape:window-maximized="1"
     inkscape:current-layer="uuid-992480e5-52b6-43d0-bb76-1b1d82b7b396"
     showguides="false">
    <sodipodi:guide
       position="1093.1699,417.3299"
       orientation="0,-1"
       id="guide1"
       inkscape:locked="false" />
    <sodipodi:guide
       position="1092.5097,175.81037"
       orientation="0,-1"
       id="guide2"
       inkscape:locked="false" />
    <sodipodi:guide
       position="738.58008,326.49244"
       orientation="1,0"
       id="guide3"
       inkscape:locked="false" />
  </sodipodi:namedview>
  <title
     id="title1">TNT Novelas logo - Brandlogos.net</title>
  <path
     id="uuid-d4147fcd-bc21-420f-ba9c-d1e11ecb6332"
     style="display:inline;fill:#ffffff"
     d="M 319.24023,0 C 176.13023,0 55.140703,93.980469 14.470703,223.98047 h 192.308587 62.5918 c 15.79,0 23.59992,4.23976 31.41992,17.25976 l 64.68945,100.68946 h 2.37891 V 223.98047 H 624.01953 C 583.36953,94.040469 462.35023,0 319.24023,0 Z M 3.8007813,270.25977 C 1.2407813,286.26977 0,302.58 0,319.25 0,495.55 142.96,638.65039 319.25,638.65039 495.54,638.65039 638.5,495.27 638.5,319.25 c 0,-16.67 -1.31883,-32.98023 -3.79883,-48.99023 H 564.65039 V 458.91992 H 501.10937 V 270.25977 h -72.83008 v 188.66015 h -42.33984 c -15.79,0 -23.46008,-4.64961 -31.58008,-17.59961 L 272.16992,318.28906 h -1.34961 V 458.91992 H 209.01953 V 270.25977 H 136.59961 V 458.91992 H 71.890625 V 270.25977 c -22.69,-0.02 -45.399844,0.02 -68.0898437,0 z"
     sodipodi:nodetypes="sccscccccscssscccccccsccccccccccc" />
  <metadata
     id="metadata1">
    <rdf:RDF>
      <cc:Work
         rdf:about="">
        <dc:title>TNT Novelas logo - Brandlogos.net</dc:title>
      </cc:Work>
    </rdf:RDF>
  </metadata>
  <path
     id="rect5"
     style="font-variation-settings:normal;display:inline;vector-effect:none;fill:#ffffff;fill-opacity:1;fill-rule:evenodd;stroke-width:210.632;stroke-linecap:butt;stroke-linejoin:round;stroke-miterlimit:4;stroke-dasharray:none;stroke-dashoffset:0;stroke-opacity:1;-inkscape-stroke:none;stop-color:#000000"
     d="m 840.73969,221.33008 c -31.11657,0 -59.2714,11.87664 -80.64017,31.17334 -25.47765,26.01977 -22.70612,56.89124 -13.50685,71.82566 14.49497,23.44724 50.06926,36.51232 95.7257,43.13913 64.65804,9.49764 43.58427,46.10776 -6.67823,44.4238 -34.52623,-1.18678 -41.79855,-27.99753 -41.79855,-27.99753 l -55.26153,22.35898 c 21.36877,33.9392 59.06923,56.59615 102.15963,56.59615 30.47505,0 58.22112,-11.47729 79.49366,-30.17739 26.56503,-26.21861 23.85075,-57.58509 14.59692,-72.72155 -14.34742,-23.54991 -50.01474,-36.9046 -95.72572,-43.63405 -64.65805,-9.59706 -43.18571,-47.88765 6.77847,-44.42349 34.57755,2.47303 41.8487,28.29165 41.8487,28.29165 L 942.8429,278.02634 C 921.57036,243.99406 883.77873,221.33008 840.73969,221.33008 Z m 985.07281,0 c -31.1169,0 -59.2716,11.87664 -80.6404,31.17334 -25.4774,26.01977 -22.7062,56.89124 -13.5069,71.82566 14.4951,23.44724 50.0693,36.51232 95.7258,43.13913 64.6581,9.49764 43.5842,46.10776 -6.6781,44.4238 -34.5264,-1.18678 -41.7985,-27.99753 -41.7985,-27.99753 l -55.2616,22.35898 c 21.3687,33.9392 59.0692,56.59615 102.1597,56.59615 30.475,0 58.2212,-11.47729 79.4937,-30.17739 26.5651,-26.21861 23.8506,-57.58509 14.5969,-72.72155 -14.3474,-23.54991 -50.0147,-36.9046 -95.7257,-43.63405 -64.658,-9.59706 -43.1859,-47.88765 6.7781,-44.42349 34.5778,2.47303 41.8489,28.29165 41.8489,28.29165 l 55.1112,-22.15844 c -21.2726,-34.03228 -59.0641,-56.69626 -102.1031,-56.69626 z m -402.3738,5.73863 v 233.0054 h 66.6821 v -233.0054 z m -445.71981,0 v 232.99928 h 171.41041 v -51.74085 h -110.9616 v -43.33963 h 72.4708 v -51.24596 h -72.4708 v -35.52117 h 110.9616 v -51.15167 z m 552.52771,0 v 232.99928 h 171.3603 v -51.74085 h -110.8614 v -43.33963 h 72.3266 v -51.24596 h -72.3266 v -35.52117 h 110.8614 v -51.15167 z m -340.4025,0.19883 V 460.2668 h 63.9194 v -82.31922 h 9.4473 c 8.9042,0 14.2,5.24437 19.6401,12.96176 l 46.497,69.35746 h 65.6487 l -54.9172,-82.21882 c 29.7856,-13.0644 46.704,-40.17057 46.704,-73.81147 0,-40.16192 -32.4038,-76.96897 -78.4098,-76.96897 z m 63.9194,50.95115 h 50.4501 c 16.6251,0 26.2713,14.44491 26.2746,26.81327 0,12.85915 -11.6777,26.01753 -25.9738,26.01753 h -50.7509 z" />
</svg>
