<?xml version="1.0" encoding="UTF-8" standalone="no"?>
<svg
   version="1.1"
   xml:space="preserve"
   height="1000"
   width="1000"
   enable-background="new 0 0 1000 999.839"
   y="0px"
   x="0px"
   viewBox="0 0 1000 999.99897"
   id="svg2"
   sodipodi:docname="TNT SERIES.svg"
   inkscape:version="1.4.2 (f4327f4, 2025-05-13)"
   xmlns:inkscape="http://www.inkscape.org/namespaces/inkscape"
   xmlns:sodipodi="http://sodipodi.sourceforge.net/DTD/sodipodi-0.dtd"
   xmlns="http://www.w3.org/2000/svg"
   xmlns:svg="http://www.w3.org/2000/svg"><defs
     id="defs2" /><sodipodi:namedview
     id="namedview2"
     pagecolor="#808080"
     bordercolor="#000000"
     borderopacity="0.25"
     inkscape:showpageshadow="2"
     inkscape:pageopacity="0.0"
     inkscape:pagecheckerboard="0"
     inkscape:deskcolor="#d1d1d1"
     inkscape:zoom="0.735"
     inkscape:cx="499.31973"
     inkscape:cy="500"
     inkscape:window-width="1920"
     inkscape:window-height="974"
     inkscape:window-x="-11"
     inkscape:window-y="-11"
     inkscape:window-maximized="1"
     inkscape:current-layer="svg2"
     showguides="false"><sodipodi:guide
       position="340.74035,100.01934"
       orientation="0,-1"
       id="guide1"
       inkscape:locked="false" /><sodipodi:guide
       position="340.74035,200.23832"
       orientation="0,-1"
       id="guide2"
       inkscape:locked="false" /><sodipodi:guide
       position="0,580.95178"
       orientation="1,0"
       id="guide4"
       inkscape:locked="false" /><sodipodi:guide
       position="1000,523.80898"
       orientation="1,0"
       id="guide5"
       inkscape:locked="false" /><sodipodi:guide
       position="500,687.07411"
       orientation="1,0"
       id="guide6"
       inkscape:locked="false" /></sodipodi:namedview><path
     id="path1"
     style="display:inline;fill:#ffffff"
     d="M 499.84766 -0.00442125 C 275.72766 -0.00442125 86.018828 147.4562 22.548828 350.6362 L 323.87891 350.6362 L 323.88086 350.64011 L 421.89648 350.64011 C 446.57348 350.64011 458.88712 357.58175 471.20312 377.94675 L 572.42383 535.59519 L 575.92773 535.59519 L 575.92773 350.6362 L 977.11719 350.6362 C 913.64719 147.4562 723.98766 -0.00442125 499.84766 -0.00442125 z M 670.85352 423.18698 L 670.85352 718.62644 L 604.33789 718.62644 C 579.70789 718.62644 567.89813 711.62473 555.07812 691.28074 L 426.22852 498.38034 L 424.15039 498.38034 L 424.15039 718.62058 L 327.38867 718.62058 L 327.38867 423.19089 L 213.91797 423.19089 L 213.91797 718.62058 L 112.62891 718.62058 L 112.62891 423.19089 L 5.8574219 423.19089 C 1.9834219 448.16689 1.1842379e-15 473.76809 0 499.84909 C 0 775.94909 223.84023 999.83933 499.99023 999.83933 C 776.11023 999.83933 1000 775.93909 1000 499.84909 L 999.99805 499.84714 C 999.99805 473.76714 997.97766 448.167 994.09766 423.18698 L 884.31836 423.18698 L 884.31836 718.61667 L 784.69336 718.61667 L 784.69336 423.18698 L 670.85352 423.18698 z M 295.63281 799.7612 C 313.49196 799.7612 329.17291 809.16482 338 823.28659 L 315.13281 832.48191 C 315.13281 832.48191 312.11561 821.76786 297.76758 820.74167 C 277.03483 819.30421 268.12507 835.19295 294.95508 839.17527 C 313.92295 841.96767 328.72229 847.5106 334.67578 857.28269 C 338.51568 863.5636 339.64236 876.579 328.61914 887.45847 C 319.79205 895.21812 308.2785 899.97995 295.63281 899.97995 C 277.75235 899.97995 262.10921 890.57873 253.24219 876.49558 L 276.17188 867.21824 C 276.17188 867.21824 279.18889 878.34296 293.51562 878.83542 C 314.37216 879.53418 323.11711 864.3429 296.28711 860.40183 C 277.34186 857.65202 262.58113 852.23093 256.56641 842.50144 C 252.74915 836.30437 251.59791 823.49371 262.16992 812.69675 C 271.03694 804.68954 282.72092 799.7612 295.63281 799.7612 z M 704.39062 799.7612 C 722.24979 799.7612 737.93072 809.16482 746.75781 823.28659 L 723.89062 832.48191 C 723.89063 832.48191 720.87342 821.76786 706.52539 820.74167 C 685.79262 819.30421 676.88288 835.19295 703.71289 839.17527 C 722.68076 841.96767 737.48009 847.5106 743.43359 857.28269 C 747.27347 863.5636 748.40018 876.579 737.37695 887.45847 C 728.54986 895.21812 717.03631 899.97995 704.39062 899.97995 C 686.51017 899.97995 670.86702 890.57873 662 876.49558 L 684.92969 867.21824 C 684.92969 867.21824 687.94865 878.34296 702.27539 878.83542 C 723.13193 879.53418 731.87493 864.3429 705.04492 860.40183 C 686.09967 857.65202 671.33895 852.23093 665.32422 842.50144 C 661.50697 836.30437 660.35768 823.49371 670.92969 812.69675 C 679.79671 804.68954 691.47874 799.7612 704.39062 799.7612 z M 352.47266 802.14206 L 423.59961 802.14206 L 423.59961 823.36863 L 377.55664 823.36863 L 377.55664 838.10691 L 407.62695 838.10691 L 407.62695 859.37253 L 377.55664 859.37253 L 377.55664 877.35495 L 423.59961 877.35495 L 423.59961 898.82566 L 352.47266 898.82566 L 352.47266 802.14206 z M 537.42578 802.14206 L 565.0957 802.14206 L 565.0957 898.82761 L 537.42578 898.82761 L 537.42578 802.14206 z M 581.74609 802.14206 L 652.85156 802.14206 L 652.85156 823.36863 L 606.84961 823.36863 L 606.84961 838.10691 L 636.86133 838.10691 L 636.86133 859.37253 L 606.84961 859.37253 L 606.84961 877.35495 L 652.85156 877.35495 L 652.85156 898.82566 L 581.74609 898.82566 L 581.74609 802.14206 z M 440.49414 802.22409 L 489.67773 802.22409 C 508.76805 802.22409 522.21484 817.49827 522.21484 834.16355 C 522.21484 848.12292 515.19351 859.3694 502.83398 864.7905 L 525.62305 898.90769 L 498.38086 898.90769 L 479.08789 870.12839 C 476.83054 866.92604 474.63233 864.74949 470.9375 864.74949 L 467.01758 864.74949 L 467.01758 898.90769 L 440.49414 898.90769 L 440.49414 802.22409 z M 467.01758 823.36667 L 467.01758 845.28855 L 488.07617 845.28855 C 494.00837 845.28855 498.85547 839.82956 498.85547 834.49363 C 498.85413 829.36135 494.85163 823.36667 487.95312 823.36667 L 467.01758 823.36667 z " /><g
     id="g4"
     transform="matrix(1.3310014,0,0,1.3310014,0,-5.15e-4)"
     style="display:none">
	<path
   fill="#e22226"
   d="m 400.499,618.609 h -15.73 v 16.471 h 15.823 c 4.457,0 8.097,-4.102 8.097,-8.111 -0.001,-3.856 -3.007,-8.36 -8.19,-8.36"
   id="path1-0" />
	<path
   fill="#e22226"
   d="M 746.804,317.956 H 664.322 V 539.89 H 589.521 V 317.956 H 503.957 V 539.89 h -49.94 c -18.522,0 -27.36,-5.244 -37.03,-20.543 L 320.209,374.434 h -1.573 V 539.89 H 245.948 V 317.956 H 160.737 V 539.89 H 84.609 V 317.956 H 4.38 C 1.511,336.741 0,355.958 0,375.544 c 0,207.438 168.154,375.578 375.576,375.578 207.437,0 375.607,-168.141 375.607,-375.578 0,-19.586 -1.543,-38.803 -4.379,-57.588 m -491.31,312.528 c 14.251,2.098 25.37,6.262 29.843,13.604 2.885,4.719 3.732,14.498 -4.55,22.672 -6.632,5.83 -15.283,9.408 -24.784,9.408 -13.434,0 -25.186,-7.064 -31.848,-17.645 l 17.227,-6.971 c 0,0 2.268,8.359 13.032,8.729 15.67,0.525 22.24,-10.889 2.082,-13.85 -14.234,-2.066 -25.324,-6.139 -29.843,-13.449 -2.868,-4.656 -3.732,-14.281 4.211,-22.393 6.662,-6.016 15.438,-9.717 25.139,-9.717 13.418,0 25.201,7.064 31.833,17.674 l -17.182,6.91 c 0,0 -2.267,-8.051 -13.047,-8.822 -15.577,-1.08 -22.271,10.858 -2.113,13.85 z m 96.654,-11.875 h -34.593 v 11.074 h 22.594 v 15.977 h -22.594 v 13.512 h 34.593 v 16.131 h -53.439 v -72.641 h 53.439 z m 76.652,56.756 h -20.466 l -14.497,-21.623 c -1.696,-2.406 -3.347,-4.041 -6.123,-4.041 h -2.945 v 25.664 h -19.927 v -72.641 h 36.953 c 14.343,0 24.445,11.475 24.445,23.996 0,10.488 -5.274,18.939 -14.56,23.012 z m 29.658,-0.063 h -20.79 v -72.641 h 20.79 z m 65.932,-56.693 h -34.562 v 11.074 h 22.548 v 15.977 h -22.548 v 13.512 h 34.562 v 16.131 h -53.424 v -72.641 h 53.424 z"
   id="path2" />
	<path
   fill="#e22226"
   d="m 243.464,263.359 h 73.629 c 18.508,0 27.73,5.244 36.984,20.513 l 76.05,118.385 h 2.591 V 263.359 H 734.095 C 686.408,110.735 543.931,0 375.622,0 207.267,0 64.807,110.735 17.119,263.359 h 226.345"
   id="path3" />
	
	
</g></svg>
