<?xml version="1.0" encoding="UTF-8" standalone="no"?>
<svg
   width="97.999062"
   height="110.74373"
   viewBox="0 0 73.499296 83.057796"
   version="1.1"
   id="svg32"
   sodipodi:docname="Unicable_logo.svg"
   inkscape:version="1.4.2 (f4327f4, 2025-05-13)"
   xml:space="preserve"
   xmlns:inkscape="http://www.inkscape.org/namespaces/inkscape"
   xmlns:sodipodi="http://sodipodi.sourceforge.net/DTD/sodipodi-0.dtd"
   xmlns="http://www.w3.org/2000/svg"
   xmlns:svg="http://www.w3.org/2000/svg"
   xmlns:rdf="http://www.w3.org/1999/02/22-rdf-syntax-ns#"
   xmlns:cc="http://creativecommons.org/ns#"
   xmlns:dc="http://purl.org/dc/elements/1.1/"><title
     id="title4528">Unicable logo</title><metadata
     id="metadata38"><rdf:RDF><cc:Work
         rdf:about=""><dc:format>image/svg+xml</dc:format><dc:type
           rdf:resource="http://purl.org/dc/dcmitype/StillImage" /><dc:title>Unicable logo</dc:title><cc:license
           rdf:resource="http://scripts.sil.org/OFL" /></cc:Work><cc:License
         rdf:about="http://scripts.sil.org/OFL"><cc:permits
           rdf:resource="http://scripts.sil.org/pub/OFL/Reproduction" /><cc:permits
           rdf:resource="http://scripts.sil.org/pub/OFL/Distribution" /><cc:permits
           rdf:resource="http://scripts.sil.org/pub/OFL/Embedding" /><cc:permits
           rdf:resource="http://scripts.sil.org/pub/OFL/DerivativeWorks" /><cc:requires
           rdf:resource="http://scripts.sil.org/pub/OFL/Notice" /><cc:requires
           rdf:resource="http://scripts.sil.org/pub/OFL/Attribution" /><cc:requires
           rdf:resource="http://scripts.sil.org/pub/OFL/ShareAlike" /><cc:requires
           rdf:resource="http://scripts.sil.org/pub/OFL/DerivativeRenaming" /><cc:requires
           rdf:resource="http://scripts.sil.org/pub/OFL/BundlingWhenSelling" /></cc:License></rdf:RDF></metadata><defs
     id="defs36" /><sodipodi:namedview
     pagecolor="#ffffff"
     bordercolor="#666666"
     borderopacity="1"
     objecttolerance="10"
     gridtolerance="10"
     guidetolerance="10"
     inkscape:pageopacity="0"
     inkscape:pageshadow="2"
     inkscape:window-width="1920"
     inkscape:window-height="974"
     id="namedview34"
     showgrid="false"
     inkscape:snap-path-clip="false"
     inkscape:snap-path-mask="false"
     units="px"
     inkscape:showpageshadow="false"
     inkscape:zoom="4"
     inkscape:cx="51.5"
     inkscape:cy="84.625"
     inkscape:window-x="-11"
     inkscape:window-y="-11"
     inkscape:window-maximized="1"
     inkscape:current-layer="svg32"
     inkscape:pagecheckerboard="0"
     inkscape:deskcolor="#d1d1d1"
     showguides="false" /><path
     style="opacity:1;fill:#ffd230;stroke-width:1.00599;fill-opacity:1"
     d="m 206.54717,109.47723 c -0.0685,110.67863 -0.97287,220.36638 0.48178,327.52137 2.92744,41.42678 16.60814,82.08207 39.56489,116.7184 6.24721,9.81848 13.72922,18.76075 20.96231,27.84487 -0.16096,-1.26755 -0.28723,-2.5485 -0.62926,-3.76575 -10.2913,-33.98243 -16.65988,-69.18363 -18.65174,-104.62474 0.0704,-6.05608 -0.63294,-12.04575 -0.90456,-18.07164 l -0.01,-345.59301 z m 81.64683,0.01 0.0885,332.50631 c -0.12071,67.10976 16.89346,134.17347 48.96451,193.12463 l 68.12751,24.21679 c -43.0766,-55.26924 -69.48945,-123.3961 -74.91175,-193.2623 -1.19714,-8.28938 -0.38745,-16.72335 -1.51417,-25.03285 l -0.01,-331.53292 z m 285.86222,0 c -0.0906,110.85032 0.0315,221.70514 -0.059,332.55547 -0.89533,12.03168 -0.92553,24.13263 -2.60553,36.10394 -4.88913,43.21744 -17.60869,85.59048 -37.62795,124.21055 l 35.73032,25.85878 c 23.56036,-45.6721 38.46094,-95.80739 43.36013,-146.97217 2.26349,-21.04537 1.7785,-42.24265 1.82879,-63.37855 l 0.45229,-308.28953 z m 81.56817,0.0491 -0.0491,344.51146 c 0.33197,7.44435 -1.06485,14.78655 -0.93406,22.22083 -2.35768,31.96547 -10.17298,68.96966 -19.05487,104.83123 13.29922,-15.29108 24.97291,-32.05662 34.1375,-50.14437 17.40367,-33.56997 26.47891,-71.30395 26.88131,-109.06891 V 109.56573 Z m -285.84256,0.01 0.0295,315.34908 c -0.1006,13.40988 0.26973,26.84485 1.81896,40.18432 6.4786,63.31716 32.40931,124.38258 73.14195,173.25368 7.49464,8.80243 15.04254,17.71268 23.7645,25.31801 l 55.31612,-11.56273 C 485.86658,623.45787 455.28172,585.08064 435.78558,541.69218 419.19677,504.85273 410.50491,464.39146 411.02803,423.98074 l 0.0197,-314.40518 z m 122.07696,0.0491 0.059,311.2392 c 0.89534,34.91801 -5.153,69.95235 -17.27521,102.70747 l 27.7367,45.32657 c 19.8583,-42.02032 30.49389,-88.41148 30.74539,-134.88835 l 0.11796,-324.32593 z"
     id="path3"
     inkscape:connector-curvature="0"
     sodipodi:nodetypes="ccccccccccccccccccccccccccccccccccccccccccccccccccc"
     transform="matrix(0.1498767,0,0,0.1498767,-30.90559,-16.408086)" /></svg>
